<?xml version="1.0" encoding="UTF-8"?>
<svg version="1.1" xmlns="http://www.w3.org/2000/svg" width="475" height="480">
<path d="M0 0 C0.66 0 1.32 0 2 0 C18.05648809 32.57207222 36.00434898 69.8750077 25 107 C21.29698708 116.51343157 16.28808351 123.90404523 9 131 C8.42121094 131.61101562 7.84242188 132.22203125 7.24609375 132.8515625 C-5.9621092 145.79382848 -25.712245 151.12058998 -43.27514648 154.74536133 C-46.9412564 155.22477727 -46.9412564 155.22477727 -50 157 C-49.34330322 157.13986328 -48.68660645 157.27972656 -48.01000977 157.42382812 C-29.67842733 161.3743675 -11.40368481 165.89772523 6 173 C2.36550575 183.36636537 -7.66360147 189.16049067 -17 194 C-31.4883503 200.51244029 -47.042918 198.971764 -62 195 C-63.62481559 194.6034104 -65.24978247 194.20743923 -66.875 193.8125 C-67.90625 193.544375 -68.9375 193.27625 -70 193 C-72.96874189 199.42822378 -75.8199972 205.89040697 -78.53564453 212.42944336 C-83.35860506 224.02760294 -88.41316879 235.50959238 -93.625 246.9375 C-93.95527191 247.6635141 -94.28554382 248.3895282 -94.62582397 249.13754272 C-98.56056984 257.77000885 -102.62365328 266.32342403 -106.875 274.8046875 C-107.47361343 276.00615166 -107.47361343 276.00615166 -108.08432007 277.23188782 C-110.01326603 281.10315979 -111.9598376 284.96304533 -113.94384766 288.80639648 C-114.64310592 290.19993022 -115.34155464 291.59387056 -116.0390625 292.98828125 C-116.53611694 293.92346085 -116.53611694 293.92346085 -117.04321289 294.87753296 C-118.61257381 298.06894173 -119.05380756 299.7306191 -118.34912109 303.25854492 C-117.05686646 306.20610708 -117.05686646 306.20610708 -114.375 308.875 C-111.98019416 312.02606032 -111.30618918 313.57075701 -111.58203125 317.4921875 C-114.0628186 332.37691162 -119.43505322 347.53777585 -128 360 C-128.42539062 360.66773438 -128.85078125 361.33546875 -129.2890625 362.0234375 C-133.54252141 367.91858231 -139.14695595 369.36073365 -146 371 C-147.19496094 371.2990625 -148.38992188 371.598125 -149.62109375 371.90625 C-169.58568871 376.30108098 -194.24529176 376.25125156 -214 371 C-215.13050781 370.73316406 -216.26101562 370.46632813 -217.42578125 370.19140625 C-225.62604139 367.93858753 -229.73166213 364.57868711 -233.99951172 357.29394531 C-240.33732455 346.04425448 -245.16078978 334.00775847 -246 321 C-246.08636719 320.030625 -246.17273438 319.06125 -246.26171875 318.0625 C-246.7068907 309.99004862 -246.7068907 309.99004862 -244.625 307.07421875 C-243.09471262 305.7033363 -241.54823109 304.35058456 -240 303 C-240.24760843 299.08540912 -241.82144699 296.1260923 -243.703125 292.73828125 C-244.54508423 291.20494141 -244.54508423 291.20494141 -245.40405273 289.640625 C-246.31779663 287.99320312 -246.31779663 287.99320312 -247.25 286.3125 C-248.54055404 283.94546722 -249.82899955 281.57745644 -251.11328125 279.20703125 C-251.44074844 278.60315582 -251.76821564 277.9992804 -252.10560608 277.37710571 C-260.75407905 261.39034397 -268.56318486 245.04306626 -275.9375 228.4375 C-276.24887909 227.74060059 -276.56025818 227.04370117 -276.881073 226.32568359 C-280.36065557 218.51489901 -283.583601 210.65886271 -286.44140625 202.59765625 C-286.82993019 201.50184486 -286.82993019 201.50184486 -287.2263031 200.38389587 C-289 195.26467635 -289 195.26467635 -289 193 C-290.45019531 193.50660156 -290.45019531 193.50660156 -291.9296875 194.0234375 C-311.01665391 200.61049552 -329.01095465 203.42125182 -347.99609375 194.609375 C-355.33605366 190.82486378 -362.50989482 186.1093332 -367 179 C-367.01953125 177.05859375 -367.01953125 177.05859375 -366 175 C-363.70244274 173.64047991 -361.65138815 172.65657976 -359.1875 171.6875 C-358.4548291 171.39262695 -357.7221582 171.09775391 -356.96728516 170.79394531 C-340.71418373 164.58696174 -323.1038431 161.0542577 -306 158 C-307.61841797 157.87044922 -307.61841797 157.87044922 -309.26953125 157.73828125 C-330.98062985 155.79371134 -353.77876616 150.51596281 -370 135 C-370.63035156 134.40960938 -371.26070313 133.81921875 -371.91015625 133.2109375 C-384.27494813 120.43851512 -388.14719491 102.22567851 -388 85 C-387.14382436 56.4331247 -376.79120721 29.64539807 -363 5 C-362.67 5 -362.34 5 -362 5 C-361.93268677 6.95667603 -361.93268677 6.95667603 -361.86401367 8.95288086 C-361.69146107 13.87556708 -361.50306184 18.79754952 -361.31030273 23.71948242 C-361.22960168 25.83423504 -361.15298058 27.94914804 -361.08081055 30.06420898 C-360.4594034 59.99643352 -360.4594034 59.99643352 -346.875 85.9375 C-327.99602347 102.54595374 -302.5103623 99.86551238 -279.19524288 98.4031744 C-271.38487943 97.89364386 -263.57894066 97.3214654 -255.77362061 96.74047852 C-217.6889907 93.91458522 -180.13438317 92.63136969 -141.94421387 93.80771637 C-139.72651016 93.8757203 -137.50876956 93.94238386 -135.29101562 94.00872803 C-115.5649595 94.60082872 -95.84977963 95.30668328 -76.14355469 96.39013672 C-44.6239823 98.26247152 -44.6239823 98.26247152 -16.6328125 85.5859375 C-15.82457031 84.80089844 -15.82457031 84.80089844 -15 84 C-14.19175781 83.21496094 -14.19175781 83.21496094 -13.3671875 82.4140625 C2.16089183 65.79355548 1.51160647 39.26315205 1 18 C0.76894772 11.99374094 0.40557492 5.99671489 0 0 Z " fill="#222526" transform="translate(406,105)"/>
<path d="M0 0 C1.07960999 0.04338501 2.15921997 0.08677002 3.27154541 0.13146973 C6.31546005 0.25715228 9.35893035 0.39009783 12.40234375 0.52734375 C13.74393303 0.58525337 13.74393303 0.58525337 15.11262512 0.64433289 C19.50247818 0.85520383 23.73720603 1.22035667 28.0625 2.0625 C28.67106326 3.97777524 29.27403874 5.89482588 29.875 7.8125 C30.21144531 8.87984375 30.54789062 9.9471875 30.89453125 11.046875 C33.72393904 20.56249499 35.64765847 29.94563971 36.75 39.8125 C36.87955078 40.88371094 37.00910156 41.95492187 37.14257812 43.05859375 C37.80623553 48.76815432 38.20825763 54.31548485 38.0625 60.0625 C38.91432861 60.04292236 39.76615723 60.02334473 40.64379883 60.00317383 C49.16846566 59.89278246 57.32469248 60.48569958 65.75 61.75 C66.96824463 61.93006592 68.18648926 62.11013184 69.44165039 62.2956543 C79.5528198 63.85794376 89.29962565 66.02040184 99.0625 69.0625 C99.99368652 69.35092773 100.92487305 69.63935547 101.88427734 69.93652344 C104.82442647 70.85746415 107.75735873 71.79772266 110.6875 72.75 C111.60781006 73.04753174 112.52812012 73.34506348 113.47631836 73.65161133 C114.32202393 73.93544678 115.16772949 74.21928223 116.0390625 74.51171875 C116.79268066 74.76268311 117.54629883 75.01364746 118.32275391 75.2722168 C120.0625 76.0625 120.0625 76.0625 121.0625 78.0625 C115.24288999 86.68414446 104.44603192 92.517525 94.6171875 95.4375 C81.33382592 97.7730361 68.70168013 96.56007839 56.0625 92.0625 C53.7365447 91.36623978 51.40179141 90.71328032 49.0625 90.0625 C48.75546143 90.81869629 48.44842285 91.57489258 48.13208008 92.35400391 C46.72422431 95.80318444 45.29980495 99.2452883 43.875 102.6875 C43.39224609 103.87730469 42.90949219 105.06710937 42.41210938 106.29296875 C38.92631472 114.66823376 35.92621629 121.49007188 27.30859375 125.3671875 C22.63574189 126.8137399 17.61925518 127.23941905 13.09375 125.15625 C11.4375 124.0625 11.4375 124.0625 9.0625 122.0625 C12.0625 120.0625 12.0625 120.0625 15.625 119.25 C22.83822497 117.49650885 29.1547734 115.00367599 33.5 108.75 C36.62693711 103.42360712 38.90605423 98.44829798 39.3125 92.25 C40.0625 89.0625 40.0625 89.0625 41.67578125 87.9609375 C43.625 87.125 43.625 87.125 47.0625 86.0625 C47.39600061 81.17719709 47.39600061 81.17719709 45.75 76.6875 C42.09697104 73.16976841 37.15945743 73.6010241 32.375 73.67578125 C18.43962447 75.30267061 8.54455423 87.44855382 -0.6875 96.9375 C-8.25123672 104.57050171 -15.82225405 109.16123564 -26.83642578 109.49389648 C-34.05553703 109.51551059 -39.50422029 109.24399357 -44.9375 104.0625 C-45.48664063 103.58941406 -46.03578125 103.11632812 -46.6015625 102.62890625 C-51.73116569 97.56247551 -53.3076881 90.9172971 -54.9375 84.0625 C-54.9375 83.4025 -54.9375 82.7425 -54.9375 82.0625 C-54.18879639 82.0123877 -53.44009277 81.96227539 -52.66870117 81.91064453 C-34.28425174 80.6832096 -34.28425174 80.6832096 -15.9375 79 C-14.79317505 78.88132568 -14.79317505 78.88132568 -13.62573242 78.76025391 C-8.68082162 78.34655444 -8.68082162 78.34655444 -3.9375 77.0625 C-3.6075 76.0725 -3.2775 75.0825 -2.9375 74.0625 C-3.50033691 74.14814209 -4.06317383 74.23378418 -4.64306641 74.32202148 C-21.83465389 76.9163501 -38.55442875 78.23987828 -55.9375 78.0625 C-55.9375 74.7625 -55.9375 71.4625 -55.9375 68.0625 C-51.92477572 67.17104791 -47.96449474 66.73505105 -43.87109375 66.37890625 C-42.48371546 66.25465214 -41.09634596 66.13029992 -39.70898438 66.00585938 C-37.55279257 65.81564297 -35.39649159 65.62686039 -33.23999023 65.44018555 C-19.96241879 64.51306931 -19.96241879 64.51306931 -6.9375 62.0625 C-6.6075 61.4025 -6.2775 60.7425 -5.9375 60.0625 C-12.93703944 60.49640293 -19.89397718 61.0383908 -26.85888672 61.84863281 C-36.597309 62.97420909 -46.14040201 63.28829739 -55.9375 63.0625 C-55.9375 58.7725 -55.9375 54.4825 -55.9375 50.0625 C-53.50503906 49.91554688 -53.50503906 49.91554688 -51.0234375 49.765625 C-39.7138862 49.02407136 -28.53711932 48.07837613 -17.375 46.0625 C-16.43640137 45.8965332 -15.49780273 45.73056641 -14.53076172 45.55957031 C-11.19804735 44.95103659 -11.19804735 44.95103659 -7.9375 44.0625 C-7.6075 43.4025 -7.2775 42.7425 -6.9375 42.0625 C-7.88890869 42.18367188 -8.84031738 42.30484375 -9.82055664 42.4296875 C-13.42586938 42.88632006 -17.03262813 43.330559 -20.63989258 43.77148438 C-22.1868477 43.96223337 -23.73341853 44.15613124 -25.27954102 44.35351562 C-35.58943338 45.66696308 -45.53908371 46.26626566 -55.9375 46.0625 C-55.9375 41.7725 -55.9375 37.4825 -55.9375 33.0625 C-56.9275 33.0625 -57.9175 33.0625 -58.9375 33.0625 C-58.9375 37.3525 -58.9375 41.6425 -58.9375 46.0625 C-76.27940877 46.51931126 -92.85254774 44.9954168 -109.9375 42.0625 C-109.9375 43.3825 -109.9375 44.7025 -109.9375 46.0625 C-109.30038086 46.11075928 -108.66326172 46.15901855 -108.00683594 46.20874023 C-98.04776367 46.99863909 -88.12071288 48.06643624 -78.1875 49.125 C-76.41147129 49.31327331 -74.63542971 49.50142526 -72.859375 49.68945312 C-68.55193382 50.14573768 -64.24466964 50.60365953 -59.9375 51.0625 C-59.9375 55.0225 -59.9375 58.9825 -59.9375 63.0625 C-70.23488352 63.44972751 -80.26088561 62.87071546 -90.5 61.6875 C-91.60520996 61.56141357 -92.71041992 61.43532715 -93.84912109 61.30541992 C-99.68852314 60.59510261 -105.27005722 59.64251435 -110.9375 58.0625 C-110.6075 59.3825 -110.2775 60.7025 -109.9375 62.0625 C-93.47295399 65.60677632 -76.68887145 66.67976714 -59.9375 68.0625 C-59.9375 71.3625 -59.9375 74.6625 -59.9375 78.0625 C-71.92610158 78.25569143 -83.73300897 78.28888904 -95.64379883 76.77392578 C-100.45429213 76.16522233 -105.08609078 75.97498867 -109.9375 76.0625 C-109.6075 76.7225 -109.2775 77.3825 -108.9375 78.0625 C-106.56801834 78.59647535 -106.56801834 78.59647535 -103.671875 78.84375 C-102.56303955 78.96258545 -101.4542041 79.0814209 -100.31176758 79.20385742 C-99.11575928 79.32220947 -97.91975098 79.44056152 -96.6875 79.5625 C-95.47795654 79.68923096 -94.26841309 79.81596191 -93.0222168 79.9465332 C-89.32836457 80.32997891 -85.6333578 80.69893224 -81.9375 81.0625 C-80.83680176 81.17126465 -79.73610352 81.2800293 -78.60205078 81.39208984 C-72.71571564 81.96979382 -66.82771703 82.52587787 -60.9375 83.0625 C-62.93270097 93.39972934 -66.76455935 100.71261811 -74.8125 107.6875 C-81.30428242 111.8880651 -88.48098341 111.74916859 -95.9375 111.0625 C-107.5159662 108.43027315 -115.71599506 99.32035147 -124.11157227 91.50390625 C-136.80780477 79.3717606 -136.80780477 79.3717606 -153.1875 74.5625 C-156.70143766 74.70458768 -157.89667858 75.03750729 -161 76.9375 C-163.65839437 79.85315834 -164.06196256 81.34582119 -164 85.1875 C-163.979375 86.46625 -163.95875 87.745 -163.9375 89.0625 C-163.009375 89.165625 -162.08125 89.26875 -161.125 89.375 C-157.9375 91.0625 -157.9375 91.0625 -157.01171875 93.36328125 C-156.53309622 95.29648846 -156.07302302 97.23435653 -155.62890625 99.17578125 C-153.94617892 106.20140553 -151.14310645 110.70709838 -145.15234375 114.8125 C-139.78585942 117.84120368 -134.02474687 119.28208374 -127.9375 120.0625 C-129.40741705 123.93773586 -131.28076492 125.21872487 -134.9375 127.0625 C-139.91445872 128.00983835 -144.80465738 128.19955665 -149.35546875 125.7734375 C-156.43817233 119.95312949 -159.23469104 111.7657153 -162.125 103.3125 C-162.38474609 102.57128906 -162.64449219 101.83007812 -162.91210938 101.06640625 C-164.06375672 97.75132836 -165.12144051 94.47829863 -165.9375 91.0625 C-166.9996875 91.48402344 -168.061875 91.90554688 -169.15625 92.33984375 C-170.58314847 92.89370566 -172.0102424 93.44706421 -173.4375 94 C-174.13359375 94.27779297 -174.8296875 94.55558594 -175.546875 94.84179688 C-183.8681871 98.0393381 -191.99097214 98.2639634 -200.8125 98.3125 C-201.74191406 98.333125 -202.67132813 98.35375 -203.62890625 98.375 C-218.1954668 98.45626394 -228.67202972 92.30295443 -239.3203125 82.796875 C-240.9375 81.0625 -240.9375 81.0625 -240.9375 79.0625 C-228.22593619 73.85979899 -215.28205759 70.26640284 -201.9375 67.0625 C-200.67679688 66.753125 -199.41609375 66.44375 -198.1171875 66.125 C-185.25882295 63.26095592 -172.02699783 62.34089438 -158.9375 61.0625 C-158.79054688 59.83660156 -158.64359375 58.61070312 -158.4921875 57.34765625 C-157.18630601 47.09320926 -155.41500535 37.05441655 -153 27 C-152.63914307 25.48708374 -152.63914307 25.48708374 -152.27099609 23.94360352 C-150.5194081 16.8529847 -148.33717108 9.95916842 -145.9375 3.0625 C-138.43578857 2.51765361 -130.9326856 1.99603031 -123.42773438 1.49789429 C-119.91275219 1.26423055 -116.39832926 1.02565706 -112.88476562 0.77148438 C-75.30270043 -1.93078548 -37.62910643 -1.51803364 0 0 Z " fill="#CF1539" transform="translate(284.9375,202.9375)"/>
<path d="M0 0 C1.11761719 0.36222656 2.23523438 0.72445313 3.38671875 1.09765625 C13.13219969 4.56558976 25.61055828 9.56857281 33 17 C34.85492826 29.095678 27.300849 42.62703814 21.98486328 53.04541016 C21.14516843 54.7118943 20.36138924 56.40635887 19.58984375 58.10546875 C16.07734812 64.57276572 11.49125401 66.39503379 4.75 68.5 C1.52177601 69.45122927 -1.71615917 70.26443236 -5 71 C-6.27895142 71.29040161 -6.27895142 71.29040161 -7.58374023 71.58666992 C-14.92231922 73.09399223 -22.08539685 73.34744214 -29.5625 73.3125 C-31.4031604 73.30621582 -31.4031604 73.30621582 -33.28100586 73.29980469 C-66.70617448 72.88728373 -66.70617448 72.88728373 -76.6875 62.75 C-85.50308059 51.26431568 -89.80726364 38.14509154 -92 24 C-92.18175781 22.96101563 -92.36351562 21.92203125 -92.55078125 20.8515625 C-92.8144627 18.23049019 -92.86770763 16.48479913 -92 14 C-89.41937252 11.16130977 -86.42347264 9.66187992 -83 8 C-81.99839844 7.48695313 -80.99679688 6.97390625 -79.96484375 6.4453125 C-55.64085849 -5.43590509 -25.90520132 -8.56022362 0 0 Z " fill="#CF1539" transform="translate(256,403)"/>
<path d="M0 0 C3.14051252 1.40276226 5.36749893 3.09615863 7.875 5.4375 C15.5751145 12.30903075 22.8732826 13.38850999 32.9375 13.3671875 C39.05288366 13.01297963 44.79548634 10.99020677 50.578125 9.09375 C54 8 54 8 56 8 C55.73445313 9.08796875 55.46890625 10.1759375 55.1953125 11.296875 C54.83832353 12.78119755 54.48156531 14.26557562 54.125 15.75 C53.95097656 16.46027344 53.77695312 17.17054688 53.59765625 17.90234375 C50.97270975 28.88823094 49.63617744 39.441151 49.6875 50.75 C49.69023926 51.97775146 49.69297852 53.20550293 49.69580078 54.47045898 C49.80175849 63.69304223 50.8343424 72.05213663 53 81 C53.40995018 83.16404005 53.8072303 85.33054767 54.1875 87.5 C54.34605469 88.3765625 54.50460937 89.253125 54.66796875 90.15625 C54.83232422 91.06890625 54.83232422 91.06890625 55 92 C53.94683594 91.54109375 52.89367187 91.0821875 51.80859375 90.609375 C42.33860175 86.55491039 33.05064688 83.30224177 23 81 C22.2675708 80.8256543 21.5351416 80.65130859 20.78051758 80.47167969 C17.29876285 79.88104398 13.86168061 79.78078798 10.33984375 79.7265625 C9.60141235 79.71407974 8.86298096 79.70159698 8.10217285 79.68873596 C-11.44480583 79.42223049 -29.38377565 79.84571146 -47.1015625 89.1796875 C-48.04128906 89.58574219 -48.04128906 89.58574219 -49 90 C-49.66 89.67 -50.32 89.34 -51 89 C-50.72285156 87.98679687 -50.44570312 86.97359375 -50.16015625 85.9296875 C-49.79411919 84.57816606 -49.42824228 83.22660124 -49.0625 81.875 C-48.88009766 81.20984375 -48.69769531 80.5446875 -48.50976562 79.859375 C-42.78707341 58.63338932 -44.76339381 34.78527693 -52.23046875 14.2578125 C-53 12 -53 12 -53 10 C-51.06213915 10.47770523 -49.12472326 10.95721571 -47.1875 11.4375 C-45.56908203 11.83775391 -45.56908203 11.83775391 -43.91796875 12.24609375 C-41.9259157 12.76077412 -39.95188476 13.34937175 -38 14 C-25.07659324 15.0624364 -13.81835508 13.10657037 -3.70703125 4.68359375 C-1.79381209 2.91051509 -1.79381209 2.91051509 0 0 Z " fill="#CF1539" transform="translate(225,317)"/>
<path d="M0 0 C7.70941057 3.53275473 12.76323327 8.99731959 16.5625 16.5 C22.69278306 28.52478601 31.66382885 34.23170866 44 39 C58.2356718 43.46826534 76.39958599 42.00616376 91 40 C94.67000634 39.88756108 98.32916867 39.95411461 102 40 C100.51197092 48.07036946 98.44353403 55.89760743 96.2109375 63.7890625 C93.60005061 73.15133367 91.78388047 82.30463629 91 92 C60.73916135 92.76939351 30.78351171 91.72630029 6.3515625 71.25 C-4.77697618 60.60209588 -10.66247715 45.90245548 -11.18359375 30.625 C-11.21285345 29.02094746 -11.23492826 27.41674858 -11.25 25.8125 C-11.25942627 25.05171143 -11.26885254 24.29092285 -11.27856445 23.50708008 C-11.24610654 17.89431034 -10.93782326 12.46798246 -7.34375 7.890625 C-6.7353125 7.34921875 -6.126875 6.8078125 -5.5 6.25 C-3.21872512 4.18138634 -1.7393974 2.6090961 0 0 Z " fill="#FDFDFD" transform="translate(33,167)"/>
<path d="M0 0 C1.984375 1.0234375 1.984375 1.0234375 3.75 2.375 C4.63945312 3.03628906 4.63945312 3.03628906 5.546875 3.7109375 C7.53791517 5.47718281 7.96521172 6.62200809 8.20874023 9.26806641 C8.70815288 23.43966329 8.53187293 35.25231251 2 48 C1.54367187 48.93714844 1.08734375 49.87429687 0.6171875 50.83984375 C-8.71320517 68.14105758 -27.81943039 78.28456226 -46 84 C-62.3697787 88.47666827 -78.05835903 90.22555439 -95 90 C-95.14695312 89.10087891 -95.14695312 89.10087891 -95.296875 88.18359375 C-95.73632529 85.52037345 -96.18297989 82.85842672 -96.63183594 80.19677734 C-96.89794149 78.60896715 -97.16126314 77.02068954 -97.42285156 75.43212891 C-99.28398603 64.15270569 -101.28728513 53.02714283 -104.265625 41.984375 C-105 39 -105 39 -105 36 C-104.15674164 36.00999275 -104.15674164 36.00999275 -103.29644775 36.02018738 C-97.39056173 36.08709156 -91.48478515 36.13202655 -85.57861328 36.16479492 C-83.38097757 36.1797854 -81.18337129 36.20018466 -78.98583984 36.22631836 C-62.2289381 36.61913556 -62.2289381 36.61913556 -46 33 C-45.09523926 32.69980957 -44.19047852 32.39961914 -43.25830078 32.09033203 C-31.35257292 27.99974356 -23.42052297 19.35677517 -17.609375 8.37109375 C-15.63072866 5.45595217 -13.7240363 4.33041377 -10.625 2.6875 C-9.68914062 2.17574219 -8.75328125 1.66398438 -7.7890625 1.13671875 C-4.8597556 -0.05715843 -3.12080423 -0.41440187 0 0 Z " fill="#FDFDFD" transform="translate(422,169)"/>
<path d="M0 0 C4.39663033 -0.02291238 8.79305488 -0.04283833 13.18969727 -0.05493164 C14.68644918 -0.05997121 16.18319616 -0.06680287 17.67993164 -0.07543945 C19.82699807 -0.08752159 21.97399962 -0.09323191 24.12109375 -0.09765625 C26.06133423 -0.10551147 26.06133423 -0.10551147 28.04077148 -0.11352539 C31 0 31 0 32 1 C32.07244053 3.01964199 32.08377188 5.04167124 32.0625 7.0625 C32.05347656 8.16722656 32.04445312 9.27195312 32.03515625 10.41015625 C32.02355469 11.26480469 32.01195312 12.11945312 32 13 C30.35 13.33 28.7 13.66 27 14 C27 19.28 27 24.56 27 30 C32.94 30 38.88 30 45 30 C45 24.72 45 19.44 45 14 C43.35 14 41.7 14 40 14 C40 9.38 40 4.76 40 0 C50.56 0 61.12 0 72 0 C72 4.62 72 9.24 72 14 C70.02 14 68.04 14 66 14 C66 29.51 66 45.02 66 61 C67.98 61 69.96 61 72 61 C72 65.62 72 70.24 72 75 C67.46095634 75.02291161 62.92211198 75.04283781 58.38305664 75.05493164 C56.83780234 75.0599714 55.29255284 75.0668032 53.74731445 75.07543945 C51.53074971 75.08752076 49.31424782 75.09323173 47.09765625 75.09765625 C46.05545677 75.10539818 46.05545677 75.10539818 44.99220276 75.11329651 C43.3277067 75.11349277 41.66334501 75.06189129 40 75 C39 74 39 74 38.90234375 71.05859375 C38.91394531 69.86363281 38.92554688 68.66867188 38.9375 67.4375 C38.94652344 66.23996094 38.95554688 65.04242188 38.96484375 63.80859375 C38.97644531 62.88175781 38.98804688 61.95492187 39 61 C41.475 60.505 41.475 60.505 44 60 C44 54.72 44 49.44 44 44 C38.39 43.67 32.78 43.34 27 43 C27.495 51.415 27.495 51.415 28 60 C29.32 60.33 30.64 60.66 32 61 C32 65.62 32 70.24 32 75 C21.44 75 10.88 75 0 75 C0 70.38 0 65.76 0 61 C1.98 61 3.96 61 6 61 C6 45.49 6 29.98 6 14 C4.02 14 2.04 14 0 14 C0 9.38 0 4.76 0 0 Z " fill="#1B2423" transform="translate(69,2)"/>
<path d="M0 0 C6.11974418 -0.0992969 12.23901352 -0.17167096 18.359375 -0.21972656 C20.43888525 -0.23977159 22.51833963 -0.26701513 24.59765625 -0.30175781 C27.59649487 -0.35058948 30.59458463 -0.37304028 33.59375 -0.390625 C34.51490601 -0.41127014 35.43606201 -0.43191528 36.38513184 -0.45318604 C43.0241349 -0.45546456 48.58183 0.7556793 53.52526855 5.44769287 C58.37090268 11.02058844 59.40373799 15.0811122 59.25 22.31640625 C58.67169947 28.52410101 54.95482893 32.51073472 51 37 C51.47050781 37.4125 51.94101563 37.825 52.42578125 38.25 C56.83823694 42.34271252 59.96687064 45.9534745 61 52 C61.24170552 58.68368321 59.89414371 63.59146707 56 69 C49.69888394 74.9779819 44.00530603 75.29291057 35.703125 75.23046875 C34.71374939 75.23001053 33.72437378 75.22955231 32.70501709 75.2290802 C30.62055253 75.22606595 28.53609005 75.21820445 26.45166016 75.20581055 C23.24764104 75.18748651 20.04390993 75.18530143 16.83984375 75.18554688 C14.81510165 75.18063401 12.79036151 75.1748067 10.765625 75.16796875 C9.80215149 75.16685593 8.83867798 75.1657431 7.8460083 75.16459656 C6.51892853 75.15502678 6.51892853 75.15502678 5.16503906 75.14526367 C3.99186127 75.13954597 3.99186127 75.13954597 2.79498291 75.13371277 C1 75 1 75 0 74 C-0.07258946 71.81360547 -0.08373783 69.62499611 -0.0625 67.4375 C-0.05347656 66.23996094 -0.04445313 65.04242188 -0.03515625 63.80859375 C-0.02355469 62.88175781 -0.01195313 61.95492187 0 61 C1.98 61 3.96 61 6 61 C6 45.49 6 29.98 6 14 C4.02 14 2.04 14 0 14 C0 9.38 0 4.76 0 0 Z M28 13 C26.58225162 14.18852855 26.58225162 14.18852855 26.90234375 17.59765625 C26.9090178 19.08596867 26.92097817 20.57426432 26.9375 22.0625 C26.94201172 22.82111328 26.94652344 23.57972656 26.95117188 24.36132812 C26.9629932 26.24091871 26.98092922 28.12046899 27 30 C31.3923221 31.04224592 33.80463207 30.82407301 38 29 C39.98029682 27.93654948 39.98029682 27.93654948 41 26 C41.48034584 22.22585408 41.59589807 19.95861864 39.5625 16.6875 C35.98904306 14.33424787 32.24425712 13.43906108 28 13 Z M27 43 C27 48.61 27 54.22 27 60 C33.29965434 60 34.99879624 59.976907 40 57 C41.43155899 55.78410016 41.43155899 55.78410016 41.3125 52.1875 C41.28363496 48.96616111 41.17080745 48.22204968 39.125 45.5625 C34.46980139 42.13955985 34.18660047 43 27 43 Z " fill="#1B2423" transform="translate(65,95)"/>
<path d="M0 0 C7.75213275 6.33211591 12.82731481 14.86749994 14.08081055 24.88134766 C14.21354274 27.37312686 14.2454151 29.83697546 14.21484375 32.33203125 C14.20654541 33.20899658 14.19824707 34.08596191 14.18969727 34.98950195 C13.90343469 45.98667111 10.61818164 54.57016104 2.77734375 62.45703125 C-6.3478128 69.75089567 -14.66869682 71.7318717 -26.22265625 70.45703125 C-34.78111499 67.84580776 -41.31634281 62.91871627 -46.22265625 55.45703125 C-52.44752552 43.36522268 -53.95157257 31.62056334 -50.3203125 18.48046875 C-46.72613114 8.58048165 -40.47638108 1.12996996 -31.0703125 -3.6328125 C-20.52152528 -7.77221002 -9.24826599 -6.4201495 0 0 Z M-24.796875 11.640625 C-31.24113007 19.8504294 -31.2090993 30.54278042 -30.22265625 40.45703125 C-28.81113337 46.82020659 -26.79576924 52.74162259 -21.22265625 56.45703125 C-18.15176768 56.86245824 -18.15176768 56.86245824 -15.22265625 55.45703125 C-9.39676669 50.17308491 -7.5828187 43.75924569 -6.9375 36.05078125 C-6.72114596 27.39661967 -7.24954103 19.03097522 -12.59765625 11.89453125 C-15.01707847 9.41101913 -15.01707847 9.41101913 -17.66015625 8.26953125 C-20.77117414 8.49716671 -22.5400136 9.50039727 -24.796875 11.640625 Z " fill="#1B2423" transform="translate(461.22265625,7.54296875)"/>
<path d="M0 0 C14.19 0 28.38 0 43 0 C43 4.62 43 9.24 43 14 C41.02 14 39.04 14 37 14 C37.17539307 14.54457352 37.35078613 15.08914703 37.53149414 15.65022278 C39.35336727 21.30982563 41.16917482 26.97134835 42.98144531 32.6340332 C43.65892105 34.74814075 44.33795068 36.86175099 45.01855469 38.97485352 C45.99561317 42.00928953 46.96710051 45.04546017 47.9375 48.08203125 C48.24373291 49.02899368 48.54996582 49.97595612 48.86547852 50.95161438 C49.14576904 51.83230087 49.42605957 52.71298737 49.71484375 53.62036133 C49.96355225 54.39535477 50.21226074 55.17034821 50.46850586 55.96882629 C51 58 51 58 51 61 C52.98 61 54.96 61 57 61 C57.02685938 63.14576637 57.04633088 65.29162645 57.0625 67.4375 C57.07410156 68.63246094 57.08570313 69.82742187 57.09765625 71.05859375 C57 74 57 74 56 75 C53.72052208 75.1002093 51.43792865 75.13081303 49.15625 75.1328125 C48.47195923 75.13376923 47.78766846 75.13472595 47.0826416 75.13571167 C45.63338123 75.1363933 44.18411782 75.13454023 42.73486328 75.13037109 C40.50937072 75.12502252 38.28407999 75.1303166 36.05859375 75.13671875 C34.65364539 75.13605797 33.24869715 75.1347768 31.84375 75.1328125 C30.55662109 75.13168457 29.26949219 75.13055664 27.94335938 75.12939453 C25 75 25 75 24 74 C23.90126184 72.00200428 23.87028201 70.00042842 23.875 68 C23.87242187 66.906875 23.86984375 65.81375 23.8671875 64.6875 C24 62 24 62 25 61 C26.66617115 60.95936168 28.33388095 60.957279 30 61 C29.34 58.03 28.68 55.06 28 52 C21.4 52 14.8 52 8 52 C7.01 54.97 6.02 57.94 5 61 C5.804375 60.979375 6.60875 60.95875 7.4375 60.9375 C10 61 10 61 11 62 C11.09873816 63.99799572 11.12971799 65.99957158 11.125 68 C11.12886719 69.6396875 11.12886719 69.6396875 11.1328125 71.3125 C11 74 11 74 10 75 C8.29227642 75.08713831 6.58101351 75.10700007 4.87109375 75.09765625 C3.31938477 75.09282227 3.31938477 75.09282227 1.73632812 75.08789062 C0.64771484 75.07951172 -0.44089844 75.07113281 -1.5625 75.0625 C-3.2012207 75.05573242 -3.2012207 75.05573242 -4.87304688 75.04882812 C-7.58205432 75.0369984 -10.2910338 75.01906231 -13 75 C-13 70.38 -13 65.76 -13 61 C-10.525 60.505 -10.525 60.505 -8 60 C-3.38 45.15 1.24 30.3 6 15 C3.03 14.505 3.03 14.505 0 14 C0 9.38 0 4.76 0 0 Z M17 20 C15.96448955 22.93253346 14.94918162 25.87166938 13.9375 28.8125 C13.49567383 30.06256836 13.49567383 30.06256836 13.04492188 31.33789062 C12.77099609 32.14033203 12.49707031 32.94277344 12.21484375 33.76953125 C11.95823975 34.50792236 11.70163574 35.24631348 11.43725586 36.00708008 C10.77951574 38.19219749 10.77951574 38.19219749 12 41 C15.63 41 19.26 41 23 41 C24.33201473 38.33597054 23.69751146 37.4413616 22.78515625 34.6484375 C22.37426758 33.37226562 22.37426758 33.37226562 21.95507812 32.0703125 C21.66052734 31.18085937 21.36597656 30.29140625 21.0625 29.375 C20.77181641 28.4778125 20.48113281 27.580625 20.18164062 26.65625 C19.46100166 24.43526435 18.73354395 22.21675021 18 20 C17.67 20 17.34 20 17 20 Z " fill="#1B2423" transform="translate(276,2)"/>
<path d="M0 0 C2.39834577 1.20600578 4.71070833 2.46560057 6.9921875 3.87890625 C7.3221875 2.88890625 7.6521875 1.89890625 7.9921875 0.87890625 C11.6221875 0.87890625 15.2521875 0.87890625 18.9921875 0.87890625 C18.9921875 9.45890625 18.9921875 18.03890625 18.9921875 26.87890625 C15.3621875 26.87890625 11.7321875 26.87890625 7.9921875 26.87890625 C7.3734375 25.48671875 7.3734375 25.48671875 6.7421875 24.06640625 C4.60994613 20.1606172 4.60994613 20.1606172 0.9921875 17.87890625 C-1.79681058 17.36136021 -4.22497507 17.30057995 -7.0078125 17.87890625 C-11.25433808 21.11967577 -11.99566781 25.58960831 -12.75390625 30.64453125 C-13.48063581 39.9019478 -13.36313497 49.91665322 -8.0078125 57.87890625 C-4.6826071 59.54150895 -1.3673341 59.22849752 2.1796875 58.31640625 C5.02882523 56.05674529 5.74019529 53.25928521 6.9921875 49.87890625 C6.35410156 49.89050781 5.71601563 49.90210938 5.05859375 49.9140625 C4.23230469 49.92308594 3.40601563 49.93210938 2.5546875 49.94140625 C1.73097656 49.95300781 0.90726562 49.96460938 0.05859375 49.9765625 C-2.0078125 49.87890625 -2.0078125 49.87890625 -3.0078125 48.87890625 C-3.10632421 47.04774742 -3.13753879 45.21270692 -3.1328125 43.37890625 C-3.13539063 42.37859375 -3.13796875 41.37828125 -3.140625 40.34765625 C-3.0078125 37.87890625 -3.0078125 37.87890625 -2.0078125 36.87890625 C-0.16622227 36.77931004 1.67915717 36.74810214 3.5234375 36.74609375 C4.64363281 36.74480469 5.76382813 36.74351563 6.91796875 36.7421875 C8.09746094 36.74605469 9.27695312 36.74992187 10.4921875 36.75390625 C12.26142578 36.74810547 12.26142578 36.74810547 14.06640625 36.7421875 C15.74669922 36.74412109 15.74669922 36.74412109 17.4609375 36.74609375 C18.49669922 36.74722168 19.53246094 36.74834961 20.59960938 36.74951172 C22.9921875 36.87890625 22.9921875 36.87890625 23.9921875 37.87890625 C24.0729702 49.35004991 22.09772777 60.05694041 14.7734375 69.15625 C7.77908309 75.92052696 -0.10977501 77.2374251 -9.48828125 77.16015625 C-14.16740171 76.78624207 -17.2226002 75.57120514 -21.0078125 72.87890625 C-22.5546875 71.82703125 -22.5546875 71.82703125 -24.1328125 70.75390625 C-31.79448297 63.88554226 -35.39258258 53.80548463 -36.171875 43.76513672 C-36.87174293 30.23727287 -35.64700751 17.91465648 -27.0078125 6.87890625 C-19.20937696 -0.37859734 -10.51746699 -3.92014679 0 0 Z " fill="#1B2423" transform="translate(378.0078125,1.12109375)"/>
<path d="M0 0 C0.66209473 -0.00095673 1.32418945 -0.00191345 2.00634766 -0.00289917 C3.40852961 -0.00358076 4.8107147 -0.00172792 6.21289062 0.00244141 C8.36595713 0.00779004 10.51881502 0.0024958 12.671875 -0.00390625 C14.03125046 -0.00324546 15.3906258 -0.00196429 16.75 0 C18.61785156 0.00169189 18.61785156 0.00169189 20.5234375 0.00341797 C23.375 0.1328125 23.375 0.1328125 24.375 1.1328125 C24.47373816 3.13080822 24.50471799 5.13238408 24.5 7.1328125 C24.50386719 8.7725 24.50386719 8.7725 24.5078125 10.4453125 C24.375 13.1328125 24.375 13.1328125 23.375 14.1328125 C21.37541636 14.17362033 19.37454746 14.17535606 17.375 14.1328125 C17.44405529 19.43519031 17.53210821 24.73679295 17.63745117 30.03857422 C17.67061773 31.84056979 17.69867525 33.64266717 17.72143555 35.44482422 C17.75513432 38.04178073 17.80745649 40.63781116 17.86328125 43.234375 C17.86967117 44.0346109 17.8760611 44.8348468 17.88264465 45.65933228 C18.0093458 50.5261906 18.72161148 53.90204914 21.375 58.1328125 C24.45179585 60.78227559 25.84900429 61.15126849 29.9375 61.0078125 C33.25314444 60.16383028 34.98123921 59.52657329 37.375 57.1328125 C38.26065586 54.47584492 38.5200262 52.85091167 38.58032227 50.12036133 C38.60026749 49.31975784 38.62021271 48.51915436 38.64076233 47.69429016 C38.65747482 46.83482285 38.67418732 45.97535553 38.69140625 45.08984375 C38.71218735 44.2062468 38.73296844 43.32264984 38.75437927 42.41227722 C38.81975754 39.59003465 38.87870528 36.76769915 38.9375 33.9453125 C38.98069637 32.03189144 39.02431102 30.11847977 39.06835938 28.20507812 C39.17542695 23.51441813 39.27672752 18.82366467 39.375 14.1328125 C37.395 14.1328125 35.415 14.1328125 33.375 14.1328125 C33.375 9.5128125 33.375 4.8928125 33.375 0.1328125 C41.625 0.1328125 49.875 0.1328125 58.375 0.1328125 C58.375 4.7528125 58.375 9.3728125 58.375 14.1328125 C56.395 14.4628125 54.415 14.7928125 52.375 15.1328125 C52.36041748 16.38827881 52.34583496 17.64374512 52.33081055 18.93725586 C52.272511 23.62845274 52.19528141 28.31918544 52.11254883 33.01000977 C52.07944772 35.03402124 52.05137043 37.05812174 52.02856445 39.08227539 C51.99474463 42.00445223 51.94241659 44.92582408 51.88671875 47.84765625 C51.87713387 49.18883766 51.87713387 49.18883766 51.86735535 50.55711365 C51.68409251 58.52133153 50.292001 66.38017264 44.375 72.1328125 C36.16518492 77.79144673 27.56618558 78.24085342 17.83984375 76.7421875 C11.57530334 75.01861025 6.35303019 71.23655677 2.375 66.1328125 C-1.06232626 59.37292047 -2.19468501 53.48918299 -2.015625 45.96875 C-2.00996521 45.05066559 -2.00430542 44.13258118 -1.99847412 43.18667603 C-1.97632475 40.2931602 -1.92617171 37.40094539 -1.875 34.5078125 C-1.85490718 32.52996597 -1.83666133 30.55209977 -1.8203125 28.57421875 C-1.77653075 23.75992572 -1.70765631 18.94658861 -1.625 14.1328125 C-3.605 14.1328125 -5.585 14.1328125 -7.625 14.1328125 C-7.65185938 11.98704613 -7.67133088 9.84118605 -7.6875 7.6953125 C-7.69910156 6.50035156 -7.71070313 5.30539063 -7.72265625 4.07421875 C-7.54388159 -1.3104739 -4.76033446 0.0043119 0 0 Z " fill="#1B2423" transform="translate(142.625,94.8671875)"/>
<path d="M0 0 C0.66 0 1.32 0 2 0 C2.66 -0.99 3.32 -1.98 4 -3 C6.64 -3 9.28 -3 12 -3 C12 5.58 12 14.16 12 23 C4 23 4 23 2.01171875 21.3203125 C1.57472656 20.59585938 1.13773437 19.87140625 0.6875 19.125 C-1.71755897 15.27966216 -3.41023481 13.3974413 -8 12.25 C-11.18138229 11.67178442 -11.18138229 11.67178442 -14 14 C-13.51107831 18.40029519 -12.31398729 20.12090473 -9 23 C-6.90935918 24.20738559 -4.78032847 25.34978762 -2.625 26.4375 C5.33645578 30.64557069 10.94428117 34.19699653 14 43 C15.77184225 50.39776471 14.89302941 56.55198215 11.25 63.1875 C6.53697874 69.07877658 1.56731194 72.84792527 -6 74 C-10.79491102 73.70745335 -14.76416047 72.75225015 -18.875 70.25 C-19.57625 69.8375 -20.2775 69.425 -21 69 C-23.14376674 69.71458891 -24.41224417 70.41224417 -26 72 C-28.64 72 -31.28 72 -34 72 C-34 63.42 -34 54.84 -34 46 C-25 46 -25 46 -23.16796875 47.6796875 C-22.84441406 48.40414062 -22.52085937 49.12859375 -22.1875 49.875 C-20.72491695 53.03498419 -20.72491695 53.03498419 -18.12890625 55.25 C-15.84529323 56.0545022 -14.16041814 56.20534727 -11.75 56.125 C-10.5125 56.08375 -9.275 56.0425 -8 56 C-7.30668982 53.50408336 -6.83300371 51.64280319 -7.4921875 49.10546875 C-9.85496101 45.80615548 -13.19848437 44.40508741 -16.75 42.5625 C-24.38675697 38.5553006 -30.98565946 34.96104757 -34.3046875 26.59375 C-35.9793147 20.34682607 -36.10439591 13.68691201 -33.5 7.6875 C-30.32915523 2.30156155 -25.62085263 -1.63259863 -20.125 -4.5 C-12.30716239 -5.75085402 -6.55212689 -4.23158195 0 0 Z " fill="#1B2423" transform="translate(378,98)"/>
<path d="M0 0 C1.2684375 0.7734375 1.2684375 0.7734375 2.5625 1.5625 C4.69196603 2.43215506 4.69196603 2.43215506 6.5625 2.5625 C7.2225 1.9025 7.8825 1.2425 8.5625 0.5625 C10.91015625 0.33203125 10.91015625 0.33203125 13.625 0.375 C14.97271484 0.38466797 14.97271484 0.38466797 16.34765625 0.39453125 C18.5625 0.5625 18.5625 0.5625 19.5625 1.5625 C19.65025605 3.70808827 19.66945219 5.85654421 19.66015625 8.00390625 C19.65693359 9.30908203 19.65371094 10.61425781 19.65039062 11.95898438 C19.64203401 13.3476569 19.63356905 14.73632877 19.625 16.125 C19.61998666 17.51757656 19.61542347 18.91015481 19.61132812 20.30273438 C19.59949434 23.7226987 19.5830088 27.14257844 19.5625 30.5625 C15.6025 30.5625 11.6425 30.5625 7.5625 30.5625 C6.91145833 28.05598958 6.26041667 25.54947917 5.609375 23.04296875 C4.37810522 20.12559447 3.2919064 19.11927254 0.5625 17.5625 C-3.30100628 17.07956171 -5.48133676 16.91644376 -8.75 19.125 C-12.60685706 24.69601575 -12.79635841 30.87743933 -12.75 37.4375 C-12.74653564 38.230354 -12.74307129 39.02320801 -12.73950195 39.84008789 C-12.622453 46.1303375 -12.22222752 52.21008698 -8.01953125 57.26953125 C-5.57751666 59.26535058 -3.48557108 58.81650592 -0.4375 58.5625 C2.58796436 57.91080069 2.58796436 57.91080069 3.5625 55.9375 C4.0575 54.761875 4.0575 54.761875 4.5625 53.5625 C4.82289063 52.96179687 5.08328125 52.36109375 5.3515625 51.7421875 C6.09778474 50.0195997 6.83103911 48.29140755 7.5625 46.5625 C12.53556516 47.05980652 16.20049813 48.11552334 20.5625 50.5625 C19.01466056 60.31388846 14.92125495 67.01592209 7.37109375 73.37109375 C1.20855892 77.43064693 -5.29538073 77.34496994 -12.4375 76.5625 C-20.33063181 74.28520987 -25.83418752 69.23304078 -30.4375 62.5625 C-37.25160263 50.19165891 -37.89298986 34.9315375 -34.68359375 21.37890625 C-31.50859594 11.80077479 -26.14088929 5.36475953 -17.8125 -0.1875 C-11.86266093 -2.3911441 -5.86528771 -2.45275668 0 0 Z " fill="#1B2423" transform="translate(230.4375,1.4375)"/>
<path d="M0 0 C2.39834577 1.20600578 4.71070833 2.46560057 6.9921875 3.87890625 C7.3221875 2.88890625 7.6521875 1.89890625 7.9921875 0.87890625 C11.6221875 0.87890625 15.2521875 0.87890625 18.9921875 0.87890625 C18.9921875 10.77890625 18.9921875 20.67890625 18.9921875 30.87890625 C15.3621875 30.87890625 11.7321875 30.87890625 7.9921875 30.87890625 C7.08072917 28.37239583 6.16927083 25.86588542 5.2578125 23.359375 C3.83871759 20.57812416 2.67761022 19.43362466 -0.0078125 17.87890625 C-3.83613604 17.40036581 -6.0439483 17.25369704 -9.3203125 19.37890625 C-14.68894117 27.3324302 -14.06750711 38.83787345 -12.47265625 47.9296875 C-11.27784825 52.33676619 -10.13284614 56.47263663 -6.0078125 58.87890625 C-2.4847629 59.3647352 -2.4847629 59.3647352 0.9921875 57.87890625 C3.08289947 55.41602566 4.50848871 52.73516533 5.9921875 49.87890625 C6.6521875 48.88890625 7.3121875 47.89890625 7.9921875 46.87890625 C12.76795089 47.34711835 16.03695095 48.12222623 19.9921875 50.87890625 C19.23916672 59.91515563 15.67076159 66.00467235 9.046875 72.1796875 C3.19990819 77.01510682 -2.51139817 77.4200489 -9.85546875 77.2265625 C-14.32449361 76.73369607 -17.35670257 75.43711188 -21.0078125 72.87890625 C-21.59949219 72.5128125 -22.19117188 72.14671875 -22.80078125 71.76953125 C-29.31999242 67.10678419 -33.74573312 58.15708335 -35.58154297 50.47949219 C-36.30552719 46.0626079 -36.23387746 41.65828269 -36.2578125 37.19140625 C-36.2784375 36.24845703 -36.2990625 35.30550781 -36.3203125 34.33398438 C-36.37776954 23.88398608 -33.87391976 14.91240535 -27.0078125 6.87890625 C-19.05836822 -0.27406192 -10.63973243 -3.96571845 0 0 Z " fill="#1B2423" transform="translate(36.0078125,1.12109375)"/>
<path d="M0 0 C10.23 0 20.46 0 31 0 C31 4.62 31 9.24 31 14 C29.02 14 27.04 14 25 14 C25.33 29.18 25.66 44.36 26 60 C30.29 60 34.58 60 39 60 C39.144375 58.040625 39.28875 56.08125 39.4375 54.0625 C39.875 48.125 39.875 48.125 41 47 C42.66429051 46.90176063 44.33281931 46.87026369 46 46.875 C47.36125 46.87113281 47.36125 46.87113281 48.75 46.8671875 C51 47 51 47 52 48 C52.09971786 49.91458282 52.13080589 51.83282317 52.1328125 53.75 C52.13474609 55.49796875 52.13474609 55.49796875 52.13671875 57.28125 C52.13285156 58.5084375 52.12898438 59.735625 52.125 61 C52.13080078 62.84078125 52.13080078 62.84078125 52.13671875 64.71875 C52.13542969 65.8840625 52.13414062 67.049375 52.1328125 68.25 C52.13168457 69.32765625 52.13055664 70.4053125 52.12939453 71.515625 C52 74 52 74 51 75 C49.40389018 75.09333705 47.80366572 75.11745372 46.20483398 75.11352539 C45.18385117 75.11344986 44.16286835 75.11337433 43.11094666 75.11329651 C42.0005452 75.10813522 40.89014374 75.10297394 39.74609375 75.09765625 C38.61551041 75.0962413 37.48492706 75.09482635 36.32008362 75.09336853 C32.69252935 75.08775019 29.06503576 75.07519458 25.4375 75.0625 C22.98502693 75.05748736 20.5325529 75.05292405 18.08007812 75.04882812 C12.05336455 75.0377748 6.02668661 75.02101884 0 75 C-1.24377393 72.51245214 -1.13306235 70.77344699 -1.125 68 C-1.12757813 67.113125 -1.13015625 66.22625 -1.1328125 65.3125 C-1 63 -1 63 0 61 C2.475 60.505 2.475 60.505 5 60 C5 45.15 5 30.3 5 15 C3.35 14.67 1.7 14.34 0 14 C-1.17635297 11.64729407 -1.13359359 10.179248 -1.125 7.5625 C-1.12757813 6.78003906 -1.13015625 5.99757813 -1.1328125 5.19140625 C-1 3 -1 3 0 0 Z " fill="#1B2423" transform="translate(213,95)"/>
<path d="M0 0 C10.23 0 20.46 0 31 0 C31 4.62 31 9.24 31 14 C29.02 14 27.04 14 25 14 C25.33 29.18 25.66 44.36 26 60 C32.93 60.495 32.93 60.495 40 61 C40 56.71 40 52.42 40 48 C42.3796612 46.8101694 43.91485735 46.86650034 46.5625 46.875 C47.77099609 46.87113281 47.77099609 46.87113281 49.00390625 46.8671875 C51 47 51 47 52 48 C52.09971786 49.91458282 52.13080589 51.83282317 52.1328125 53.75 C52.13474609 55.49796875 52.13474609 55.49796875 52.13671875 57.28125 C52.13285156 58.5084375 52.12898438 59.735625 52.125 61 C52.13080078 62.84078125 52.13080078 62.84078125 52.13671875 64.71875 C52.13542969 65.8840625 52.13414062 67.049375 52.1328125 68.25 C52.13168457 69.32765625 52.13055664 70.4053125 52.12939453 71.515625 C52 74 52 74 51 75 C49.40389018 75.09333705 47.80366572 75.11745372 46.20483398 75.11352539 C45.18385117 75.11344986 44.16286835 75.11337433 43.11094666 75.11329651 C42.0005452 75.10813522 40.89014374 75.10297394 39.74609375 75.09765625 C38.61551041 75.0962413 37.48492706 75.09482635 36.32008362 75.09336853 C32.69252935 75.08775019 29.06503576 75.07519458 25.4375 75.0625 C22.98502693 75.05748736 20.5325529 75.05292405 18.08007812 75.04882812 C12.05336187 75.0377748 6.02669124 75.02049788 0 75 C0 70.38 0 65.76 0 61 C2.475 60.505 2.475 60.505 5 60 C5 45.15 5 30.3 5 15 C3.35 14.67 1.7 14.34 0 14 C0 9.38 0 4.76 0 0 Z " fill="#1B2423" transform="translate(278,95)"/>
<path d="M0 0 C10.56 0 21.12 0 32 0 C32 4.62 32 9.24 32 14 C30.35 14 28.7 14 27 14 C27 29.51 27 45.02 27 61 C28.65 61 30.3 61 32 61 C32 65.62 32 70.24 32 75 C21.44 75 10.88 75 0 75 C0 70.38 0 65.76 0 61 C1.98 61 3.96 61 6 61 C6 45.49 6 29.98 6 14 C4.02 14 2.04 14 0 14 C0 9.38 0 4.76 0 0 Z " fill="#1B2423" transform="translate(153,2)"/>
<path d="M0 0 C3.82920957 1.91460479 4.64259653 7.14266814 6 11 C7.15740916 14.63606166 8.12583699 18.28610035 9 22 C9.20753906 22.84304688 9.41507813 23.68609375 9.62890625 24.5546875 C12.63953793 39.08151168 12.11211924 55.52308818 9 70 C5.06413391 66.54827233 2.88490598 62.60494062 0.4375 58.0625 C0.00912842 57.27762207 -0.41924316 56.49274414 -0.8605957 55.68408203 C-2.24981011 53.1276864 -3.62593708 50.56456782 -5 48 C-5.70431152 46.69409912 -5.70431152 46.69409912 -6.42285156 45.36181641 C-12.47643661 34.11323749 -18.10845581 22.80314589 -23 11 C-22.24589844 11.15855469 -21.49179688 11.31710937 -20.71484375 11.48046875 C-15.90920905 12.4001082 -12.3571256 12.65142029 -7.875 10.5 C-4.33605793 7.42265907 -2.23859004 4.08096945 0 0 Z " fill="#CC1539" transform="translate(163,334)"/>
<path d="M0 0 C2.02737509 2.01892769 4.0389052 4.04133677 6 6.125 C9.59195578 9.49245854 12.35810038 10.2537342 17.25 10.125 C18.58804687 10.09792969 18.58804687 10.09792969 19.953125 10.0703125 C20.62859375 10.04710937 21.3040625 10.02390625 22 10 C19.73572341 17.31125002 16.80100983 24.13304914 13.5625 31.0625 C13.04187988 32.18197021 12.52125977 33.30144043 11.98486328 34.45483398 C8.20458785 42.5347904 4.33256505 50.56793968 0.375 58.5625 C-0.13345459 59.59705322 -0.64190918 60.63160645 -1.16577148 61.69750977 C-1.63958252 62.64424561 -2.11339355 63.59098145 -2.6015625 64.56640625 C-3.01744629 65.40115479 -3.43333008 66.23590332 -3.86181641 67.09594727 C-5 69 -5 69 -7 70 C-13.00036911 47.12359277 -7.76714639 21.82611527 0 0 Z " fill="#CD1539" transform="translate(289,334)"/>
<path d="M0 0 C3.87312911 2.32387746 5.66597117 4.07468272 8.125 7.875 C8.9987647 11.89431763 8.06418877 14.46894796 6.1875 18 C3.09743628 22.56944267 -0.6433481 24.42025742 -5.875 25.875 C-11.52297062 26.76678484 -14.64523585 25.23699124 -19.2734375 22.26171875 C-20.875 20.875 -20.875 20.875 -21.875 17.875 C-22.535 17.875 -23.195 17.875 -23.875 17.875 C-23.215 20.845 -22.555 23.815 -21.875 26.875 C-22.865 26.875 -23.855 26.875 -24.875 26.875 C-27.61861107 21.50209498 -28.86821592 16.92258139 -27.875 10.875 C-22.37548367 0.07965312 -11.41721205 -4.24067876 0 0 Z " fill="#202424" transform="translate(263.875,416.125)"/>
<path d="M0 0 C4.19489448 2.51515919 6.6726184 6.0076869 8.5 10.5 C9.31681542 16.21770792 7.68604416 20.30814512 5.5 25.5 C4.51 25.5 3.52 25.5 2.5 25.5 C2.83 23.19 3.16 20.88 3.5 18.5 C3.02949219 18.84933594 2.55898437 19.19867188 2.07421875 19.55859375 C1.45160156 20.01363281 0.82898438 20.46867187 0.1875 20.9375 C-0.42738281 21.38996094 -1.04226562 21.84242188 -1.67578125 22.30859375 C-6.18686316 25.25480356 -11.31075425 25.0828794 -16.5 24.5 C-20.84594 22.32703 -24.05977726 19.72346243 -26.5 15.5 C-27.26040322 11.66245104 -27.39390378 8.1676782 -25.51171875 4.65625 C-19.39743731 -3.06705288 -8.78975076 -3.79099937 0 0 Z " fill="#1E2424" transform="translate(206.5,418.5)"/>
<path d="M0 0 C2.08635794 2.62359695 3.60775357 5.0645401 4.8671875 8.16796875 C5.19332031 8.97097412 5.51945312 9.77397949 5.85546875 10.60131836 C6.36013672 11.88147827 6.36013672 11.88147827 6.875 13.1875 C7.22433594 14.06865479 7.57367188 14.94980957 7.93359375 15.85766602 C10.18812475 21.6515403 12.2269167 27.47859345 14 33.4375 C14.20737793 34.12803467 14.41475586 34.81856934 14.62841797 35.5300293 C15.6444538 39.10301468 16.22912307 42.28391013 16 46 C15.13375 45.484375 14.2675 44.96875 13.375 44.4375 C9.48314319 42.77985729 8.00639223 42.83146893 4 44 C1.99024532 44.98024799 -0.01117113 45.97796294 -2 47 C-1.90150757 45.78642822 -1.90150757 45.78642822 -1.80102539 44.54833984 C-1.06079695 34.9083768 -0.69787675 25.28763443 -0.4375 15.625 C-0.3941537 14.09895054 -0.35053531 12.57290878 -0.30664062 11.046875 C-0.20130413 7.36466642 -0.09960138 3.68236872 0 0 Z " fill="#C51638" transform="translate(411,122)"/>
<path d="M0 0 C0.33 0 0.66 0 1 0 C1.01981934 0.85529297 1.03963867 1.71058594 1.06005859 2.59179688 C1.48409444 24.87774837 1.48409444 24.87774837 4 47 C3.46890625 46.566875 2.9378125 46.13375 2.390625 45.6875 C1.68421875 45.130625 0.9778125 44.57375 0.25 44 C-0.44609375 43.443125 -1.1421875 42.88625 -1.859375 42.3125 C-4.14984749 40.65152802 -4.14984749 40.65152802 -8 41 C-9.77760758 42.51009927 -9.77760758 42.51009927 -11.25 44.5 C-12.03117187 45.47453125 -12.03117187 45.47453125 -12.828125 46.46875 C-13.21484375 46.9740625 -13.6015625 47.479375 -14 48 C-15.38493375 43.52550314 -14.25843373 39.9040025 -13.0625 35.5 C-12.84231201 34.6735498 -12.62212402 33.84709961 -12.39526367 32.99560547 C-9.90392438 24.05099954 -6.44269607 15.52436174 -2.83447266 6.98144531 C-1.85938858 4.66611987 -0.92240963 2.33677106 0 0 Z " fill="#CB1539" transform="translate(40,123)"/>
<path d="M0 0 C0.66 0 1.32 0 2 0 C0.74727352 13.06003358 -4.60543567 24.02217796 -13 34 C-13.54269531 34.66644531 -14.08539063 35.33289063 -14.64453125 36.01953125 C-22.07904719 44.32231182 -32.9032335 48.2680889 -43.765625 49.25 C-54.01619146 49.6793431 -64.26261612 47.41213933 -72.234375 40.6796875 C-81.53819849 31.82870498 -89.21189552 19.75324776 -90.17578125 6.6015625 C-90.18561325 4.73348174 -90.10362391 2.86523041 -90 1 C-89.01 1 -88.02 1 -87 1 C-86.90203125 1.66644531 -86.8040625 2.33289063 -86.703125 3.01953125 C-84.43107973 17.02394819 -79.64827065 30.09727533 -68.390625 39.3046875 C-59.36317518 45.70650649 -49.72704457 46.15744604 -39 45 C-28.09747056 42.98101307 -18.7071999 37.1296247 -12.125 28.1875 C-6.50980111 19.40956379 -3.09260978 9.89980674 0 0 Z " fill="#2B2325" transform="translate(272,334)"/>
<path d="M0 0 C0 0.99 0 1.98 0 3 C-5.37353831 2.52235215 -9.86392898 1.04867791 -14.86328125 -0.96484375 C-23.31241011 -3.75316149 -31.4560667 -4.32826804 -40.3125 -4.25 C-41.41899902 -4.24323242 -42.52549805 -4.23646484 -43.66552734 -4.22949219 C-55.551134 -4.07893067 -66.27445537 -2.10621751 -77.6875 1.09765625 C-80.45212404 1.85075549 -83.18364049 2.48260062 -86 3 C-86 2.01 -86 1.02 -86 0 C-57.95185422 -9.68196864 -27.77432734 -12.41502618 0 0 Z " fill="#2D2326" transform="translate(269,461)"/>
<path d="M0 0 C1.20460211 3.61380633 0.69608056 4.54362032 -0.6875 8 C-1.02136719 8.86625 -1.35523438 9.7325 -1.69921875 10.625 C-3.17049383 13.31129204 -4.34939436 14.48745256 -7 16 C-11.51700568 16.91161387 -15.16753685 16.3926713 -19.3125 14.4375 C-22.53966455 11.5105368 -24.05985466 8.88029067 -26 5 C-25.14921875 5.23396484 -25.14921875 5.23396484 -24.28125 5.47265625 C-14.79250518 7.6661161 -8.23005269 4.75137062 0 0 Z " fill="#CA1539" transform="translate(160,327)"/>
<path d="M0 0 C-1.37496217 5.19430154 -4.54748876 8.22916131 -9 11 C-11.99873872 12.09780416 -13.67225332 12.10564275 -17 12 C-20.30792759 10.34603621 -22.32194007 9.01708989 -24.375 5.9375 C-25 4 -25 4 -25 1 C-24.4946875 1.16113281 -23.989375 1.32226562 -23.46875 1.48828125 C-20.12271723 2.18184184 -16.91519441 2.17069294 -13.5 2.1875 C-11.53546875 2.20876953 -11.53546875 2.20876953 -9.53125 2.23046875 C-5.9519391 1.99686328 -3.35267961 0 0 0 Z " fill="#C81538" transform="translate(318,329)"/>
<path d="M0 0 C1.32 0 2.64 0 4 0 C4.15855469 0.73605469 4.31710938 1.47210938 4.48046875 2.23046875 C6.29903817 9.8363088 8.38238307 13.58825538 15 18 C16.88154883 18.44111565 18.78062638 18.8109267 20.6875 19.125 C21.68136719 19.29257812 22.67523438 19.46015625 23.69921875 19.6328125 C24.45847656 19.75398438 25.21773437 19.87515625 26 20 C26 20.99 26 21.98 26 23 C18.67205501 23.73964305 13.82518704 23.2306107 7.875 18.71484375 C4.01500466 15.18455635 1.49724299 10.99080995 0 6 C-0.125 2.6875 -0.125 2.6875 0 0 Z " fill="#E9EAEA" transform="translate(131,295)"/>
<path d="M0 0 C0.66 0 1.32 0 2 0 C2.54943348 6.5932018 1.92592974 11.54731981 -2 17 C-5.40882426 20.64307996 -9.08386809 23.77096702 -14 25 C-16.3320802 25.07646165 -18.66845878 25.09143299 -21 25 C-21 24.01 -21 23.02 -21 22 C-20.41992188 21.90203125 -19.83984375 21.8040625 -19.2421875 21.703125 C-14.04131248 20.70757797 -9.97641395 19.69898972 -6 16 C-4.31903102 12.77120809 -3.12991932 9.4549456 -2 6 C-1.5875 4.80375 -1.175 3.6075 -0.75 2.375 C-0.5025 1.59125 -0.255 0.8075 0 0 Z " fill="#EFEFEF" transform="translate(317,294)"/>
<path d="M0 0 C0.66 0.33 1.32 0.66 2 1 C-2.48454215 6.11914718 -7.45910599 6.96359074 -14 8 C-18.01705372 8.21357639 -21.98290346 8.19230781 -26 8 C-25.34 7.01 -24.68 6.02 -24 5 C-21.41353068 4.52650447 -18.98326126 4.21328552 -16.375 4 C-10.42270821 3.40795316 -5.54324814 2.32816422 0 0 Z " fill="#302326" transform="translate(245,375)"/>
<path d="M0 0 C3.0390625 -0.29296875 3.0390625 -0.29296875 6.625 -0.1875 C7.81351563 -0.16042969 9.00203125 -0.13335937 10.2265625 -0.10546875 C11.14179688 -0.07066406 12.05703125 -0.03585937 13 0 C13 0.66 13 1.32 13 2 C9.71480525 3.09506492 7.26336585 3.09960608 3.8125 3.0625 C2.18248047 3.04896484 2.18248047 3.04896484 0.51953125 3.03515625 C-0.31191406 3.02355469 -1.14335937 3.01195312 -2 3 C-1.34 2.01 -0.68 1.02 0 0 Z " fill="#4B2029" transform="translate(221,380)"/>
<path d="M0 0 C0.99 0 1.98 0 3 0 C3 1.65 3 3.3 3 5 C2.34 5 1.68 5 1 5 C0.67 5.99 0.34 6.98 0 8 C0 5.36 0 2.72 0 0 Z " fill="#3E2128" transform="translate(182,335)"/>
</svg>
