<?xml version="1.0" encoding="UTF-8"?>
<svg version="1.1" xmlns="http://www.w3.org/2000/svg" width="800" height="800">
<path d="M0 0 C3.50943399 0.01139394 7.01856477 0.00461368 10.52798843 -0.00686836 C29.73706131 -0.06045659 48.09009542 0.87235674 66.96435547 4.63574219 C68.08060303 4.85488281 69.19685059 5.07402344 70.34692383 5.29980469 C78.29181386 6.89422877 85.97917685 8.84120764 93.71435547 11.26074219 C95.1455578 11.67081336 96.57793178 12.0768095 98.01123047 12.47949219 C104.63927827 14.35116903 111.09861324 16.18501649 117.31982422 19.18261719 C119.86065282 20.32661179 122.44823941 21.27752232 125.06933594 22.22021484 C132.10007974 24.75413774 138.89867478 27.61977618 145.65185547 30.82324219 C146.80403564 31.36887817 146.80403564 31.36887817 147.97949219 31.92553711 C153.34090359 34.50672168 158.53377267 37.33642441 163.71435547 40.26074219 C165.38691406 41.17726563 165.38691406 41.17726563 167.09326172 42.11230469 C189.1230804 54.38413006 209.15102158 70.01555414 227.48779297 87.25683594 C229.9437939 89.56031226 232.45142314 91.77810698 235.02685547 93.94824219 C238.79597348 97.20520828 242.05639843 100.83635775 245.34326172 104.57324219 C248.64636323 108.31712001 252.05336851 111.96357747 255.45263672 115.62011719 C257.71435547 118.26074219 257.71435547 118.26074219 259.88232422 121.52636719 C261.43114484 124.32502732 261.43114484 124.32502732 263.71435547 125.26074219 C263.71435547 126.25074219 263.71435547 127.24074219 263.71435547 128.26074219 C264.70435547 128.59074219 265.69435547 128.92074219 266.71435547 129.26074219 C268.03857422 130.90527344 268.03857422 130.90527344 269.40185547 133.07324219 C272.56758045 138.03314379 275.86001402 142.89566849 279.17529297 147.75683594 C280.71435547 150.26074219 280.71435547 150.26074219 280.71435547 152.26074219 C281.37435547 152.26074219 282.03435547 152.26074219 282.71435547 152.26074219 C298.34250578 181.07321477 298.34250578 181.07321477 303.71435547 192.26074219 C304.13587891 193.11023438 304.55740234 193.95972656 304.99169922 194.83496094 C309.37895162 203.98791882 312.49560351 213.65129144 315.71435547 223.26074219 C315.98957031 224.07704102 316.26478516 224.89333984 316.54833984 225.734375 C325.52853498 252.55536944 331.9598057 282.00424269 332.08544922 310.31933594 C332.09447769 311.62435562 332.10350616 312.92937531 332.11280823 314.27394104 C332.12915339 317.02615799 332.13696872 319.7782557 332.13989258 322.53051758 C332.14414863 325.27896645 332.16466207 328.02645421 332.20141602 330.7746582 C332.55661529 357.8541612 328.90958712 383.55187082 322.31298828 409.87158203 C321.928478 411.40617323 321.55211505 412.94284171 321.18603516 414.48193359 C316.94078413 432.28682483 310.05496668 449.98910334 301.71435547 466.26074219 C301.21696182 467.58738382 300.73581332 468.92031831 300.27685547 470.26074219 C298.97157359 473.87482912 297.18325788 476.87555695 295.08935547 480.08496094 C293.02431831 483.35264757 291.23828753 486.76119077 289.40576172 490.16308594 C286.26596695 495.91333363 282.98080079 501.58177 279.71435547 507.26074219 C279.05435547 507.26074219 278.39435547 507.26074219 277.71435547 507.26074219 C277.45654297 507.96585938 277.19873047 508.67097656 276.93310547 509.39746094 C275.61105361 512.50343534 274.01687693 515.22052284 272.21435547 518.07324219 C271.60591797 519.0490625 270.99748047 520.02488281 270.37060547 521.03027344 C269.82404297 521.76632812 269.27748047 522.50238281 268.71435547 523.26074219 C268.05435547 523.26074219 267.39435547 523.26074219 266.71435547 523.26074219 C266.30636719 524.11345703 266.30636719 524.11345703 265.89013672 524.98339844 C264.68139104 527.32459024 263.34819521 529.49629487 261.90185547 531.69824219 C261.42103516 532.43945312 260.94021484 533.18066406 260.44482422 533.94433594 C258.42047981 536.65412428 256.13053013 538.89497951 253.71435547 541.26074219 C251.99911353 543.1294243 250.29141283 545.00504324 248.58935547 546.88574219 C225.55794611 571.97723257 225.55794611 571.97723257 213.15966797 580.47167969 C210.62351663 582.22465304 210.62351663 582.22465304 208.40576172 584.62011719 C205.05010865 587.91245605 201.38942791 590.47420567 197.52685547 593.13574219 C195.98904672 594.20468307 194.45128595 595.27369299 192.91357422 596.34277344 C192.18058105 596.85018066 191.44758789 597.35758789 190.69238281 597.88037109 C188.3818276 599.49279755 186.11392443 601.16059266 183.83935547 602.82324219 C170.99542093 611.75531849 157.03455395 618.82619104 142.82714844 625.29248047 C140.91737728 626.1677003 139.02010712 627.07007301 137.12451172 627.97558594 C130.52880637 631.11754012 123.87489422 633.73175298 116.96826172 636.11230469 C114.24536415 637.07332736 111.61607885 638.12363954 108.96435547 639.26074219 C77.29057745 652.04319069 40.72017897 656.08428683 6.92636871 655.89665604 C4.8637287 655.88553665 2.80112816 655.8803738 0.73846436 655.8757019 C-21.69284205 655.79963955 -43.40826627 654.42847199 -65.28564453 649.26074219 C-66.00739868 649.09149231 -66.72915283 648.92224243 -67.47277832 648.74786377 C-90.87284357 643.20696197 -113.7138404 635.97552841 -135.28564453 625.26074219 C-136.55335538 624.65028964 -137.82159816 624.04094068 -139.09033203 623.43261719 C-154.61858387 615.91514034 -169.4473809 607.18040746 -183.64599609 597.38769531 C-185.2335787 596.29652775 -186.83365798 595.22361159 -188.43408203 594.15136719 C-189.35447266 593.52746094 -190.27486328 592.90355469 -191.22314453 592.26074219 C-192.01591797 591.72449219 -192.80869141 591.18824219 -193.62548828 590.63574219 C-194.44726562 589.95511719 -194.44726562 589.95511719 -195.28564453 589.26074219 C-195.28564453 588.60074219 -195.28564453 587.94074219 -195.28564453 587.26074219 C-196.34332031 586.92623047 -196.34332031 586.92623047 -197.42236328 586.58496094 C-200.90591325 584.97387848 -203.36786544 582.701356 -206.09814453 580.07324219 C-207.16650536 579.06864467 -208.23551544 578.06473716 -209.30517578 577.06152344 C-209.81902832 576.57635254 -210.33288086 576.09118164 -210.86230469 575.59130859 C-212.63261322 573.93638896 -214.44986054 572.34251833 -216.28564453 570.76074219 C-224.41790199 563.68109425 -232.44593895 556.63062449 -239.28564453 548.26074219 C-241.65369353 545.38086704 -243.9845557 542.55390763 -246.66064453 539.94824219 C-256.28564453 530.09407552 -256.28564453 530.09407552 -256.28564453 526.26074219 C-256.94564453 526.26074219 -257.60564453 526.26074219 -258.28564453 526.26074219 C-262.28564453 520.84897748 -262.28564453 520.84897748 -262.28564453 518.26074219 C-262.94564453 518.26074219 -263.60564453 518.26074219 -264.28564453 518.26074219 C-265.93843397 515.85256453 -267.47097135 513.44841153 -268.97314453 510.94824219 C-269.86966511 509.47911681 -270.76680385 508.01036849 -271.66455078 506.54199219 C-272.10686035 505.81496094 -272.54916992 505.08792969 -273.00488281 504.33886719 C-274.14352227 502.49134545 -275.30852769 500.66789296 -276.50048828 498.85449219 C-277.13083984 497.89542969 -277.76119141 496.93636719 -278.41064453 495.94824219 C-278.97009766 495.10648438 -279.52955078 494.26472656 -280.10595703 493.39746094 C-281.28564453 491.26074219 -281.28564453 491.26074219 -281.28564453 488.26074219 C-281.94564453 488.26074219 -282.60564453 488.26074219 -283.28564453 488.26074219 C-284.41221213 486.00760698 -285.53790524 483.75407081 -286.66064453 481.49902344 C-287.83629772 479.15619533 -289.02351705 476.82166375 -290.22314453 474.49121094 C-293.92515139 467.25780069 -297.32005204 460.07953034 -300.08251953 452.42089844 C-301.03464238 449.92003031 -302.06289088 447.53902249 -303.18017578 445.11230469 C-305.59681603 439.72579705 -307.4334275 434.19449084 -309.22314453 428.57324219 C-309.57014404 427.48470947 -309.91714355 426.39617676 -310.2746582 425.2746582 C-313.56596294 414.72580079 -316.08510778 404.08330314 -318.28564453 393.26074219 C-318.4387207 392.53064941 -318.59179688 391.80055664 -318.74951172 391.04833984 C-318.89291992 390.36175293 -319.03632813 389.67516602 -319.18408203 388.96777344 C-319.3057373 388.38616455 -319.42739258 387.80455566 -319.55273438 387.20532227 C-323.05877716 368.90345317 -323.63490452 350.83155498 -323.60131836 332.24975586 C-323.59669541 329.47420001 -323.60359105 326.69908326 -323.62182617 323.92358398 C-323.76717169 301.60136473 -322.23195369 280.06846969 -317.28564453 258.26074219 C-317.10243652 257.44863281 -316.91922852 256.63652344 -316.73046875 255.79980469 C-311.30721811 231.91824257 -303.49152746 209.50320886 -293.28564453 187.26074219 C-292.28541757 185.05251164 -291.28537922 182.84419564 -290.28564453 180.63574219 C-289.61980616 179.17703049 -288.95352511 177.71851998 -288.28564453 176.26074219 C-287.62564453 176.26074219 -286.96564453 176.26074219 -286.28564453 176.26074219 C-286.10388672 175.14892578 -286.10388672 175.14892578 -285.91845703 174.01464844 C-285.3054487 171.346927 -284.52777884 169.54772135 -283.16064453 167.19824219 C-282.71849609 166.43511719 -282.27634766 165.67199219 -281.82080078 164.88574219 C-281.31419922 164.01949219 -280.80759766 163.15324219 -280.28564453 162.26074219 C-279.68623047 161.18824219 -279.08681641 160.11574219 -278.46923828 159.01074219 C-277.85177734 157.91761719 -277.23431641 156.82449219 -276.59814453 155.69824219 C-276.01677734 154.66570312 -275.43541016 153.63316406 -274.83642578 152.56933594 C-274.06878906 151.42658203 -274.06878906 151.42658203 -273.28564453 150.26074219 C-272.62564453 150.26074219 -271.96564453 150.26074219 -271.28564453 150.26074219 C-270.85251953 148.86855469 -270.85251953 148.86855469 -270.41064453 147.44824219 C-269.28564453 144.26074219 -269.28564453 144.26074219 -267.28564453 141.26074219 C-266.62564453 141.26074219 -265.96564453 141.26074219 -265.28564453 141.26074219 C-265.05490234 140.58011719 -264.82416016 139.89949219 -264.58642578 139.19824219 C-262.96225761 135.53045101 -260.82108264 132.49736968 -258.47314453 129.26074219 C-258.04710937 128.65746094 -257.62107422 128.05417969 -257.18212891 127.43261719 C-254.49093698 123.68693402 -251.59083697 120.49419402 -248.28564453 117.26074219 C-246.40717026 115.15245276 -244.59550384 112.99051069 -242.78564453 110.82324219 C-242.32544922 110.27603516 -241.86525391 109.72882813 -241.39111328 109.16503906 C-238.65809428 105.91247966 -238.65809428 105.91247966 -235.96044922 102.63061523 C-233.65364735 99.80500223 -231.34599949 97.27218955 -228.53564453 94.94824219 C-225.57473947 92.43312395 -222.84928395 89.81432344 -220.16064453 87.01074219 C-215.40989819 82.1945811 -210.19783443 78.14927036 -204.84814453 74.03417969 C-201.47376312 71.43218103 -198.21885285 68.70782763 -194.97314453 65.94824219 C-190.27005367 62.00411573 -185.48063888 58.51877129 -180.28564453 55.26074219 C-179.41166016 54.69742188 -178.53767578 54.13410156 -177.63720703 53.55371094 C-171.59180726 49.66738252 -165.48585378 45.89500332 -159.28564453 42.26074219 C-158.45419922 41.77089844 -157.62275391 41.28105469 -156.76611328 40.77636719 C-155.96818359 40.31746094 -155.17025391 39.85855469 -154.34814453 39.38574219 C-153.28273437 38.77085938 -153.28273437 38.77085938 -152.19580078 38.14355469 C-150.28564453 37.26074219 -150.28564453 37.26074219 -147.28564453 37.26074219 C-147.28564453 36.60074219 -147.28564453 35.94074219 -147.28564453 35.26074219 C-146.30466797 34.83664063 -145.32369141 34.41253906 -144.31298828 33.97558594 C-142.94959355 33.38339922 -141.5863223 32.79092817 -140.22314453 32.19824219 C-139.49071533 31.88097168 -138.75828613 31.56370117 -138.00366211 31.23681641 C-133.42584336 29.24028146 -128.9472954 27.10721012 -124.47314453 24.88574219 C-113.23807437 19.4771237 -101.15740822 15.97849811 -89.28564453 12.26074219 C-88.44066406 11.99487305 -87.59568359 11.72900391 -86.72509766 11.45507812 C-77.36943116 8.55812541 -67.89160001 6.46704133 -58.28564453 4.57324219 C-57.26591553 4.37053711 -56.24618652 4.16783203 -55.19555664 3.95898438 C-36.78280903 0.48164984 -18.69218552 -0.06116522 0 0 Z " fill="#0E213E" transform="translate(395.28564453125,71.7392578125)"/>
<path d="M0 0 C3.50943399 0.01139394 7.01856477 0.00461368 10.52798843 -0.00686836 C29.73706131 -0.06045659 48.09009542 0.87235674 66.96435547 4.63574219 C68.08060303 4.85488281 69.19685059 5.07402344 70.34692383 5.29980469 C78.29181386 6.89422877 85.97917685 8.84120764 93.71435547 11.26074219 C95.1455578 11.67081336 96.57793178 12.0768095 98.01123047 12.47949219 C104.63927827 14.35116903 111.09861324 16.18501649 117.31982422 19.18261719 C119.86065282 20.32661179 122.44823941 21.27752232 125.06933594 22.22021484 C132.10007974 24.75413774 138.89867478 27.61977618 145.65185547 30.82324219 C146.80403564 31.36887817 146.80403564 31.36887817 147.97949219 31.92553711 C153.34090359 34.50672168 158.53377267 37.33642441 163.71435547 40.26074219 C165.38691406 41.17726563 165.38691406 41.17726563 167.09326172 42.11230469 C189.1230804 54.38413006 209.15102158 70.01555414 227.48779297 87.25683594 C229.9437939 89.56031226 232.45142314 91.77810698 235.02685547 93.94824219 C238.79597348 97.20520828 242.05639843 100.83635775 245.34326172 104.57324219 C248.64636323 108.31712001 252.05336851 111.96357747 255.45263672 115.62011719 C257.71435547 118.26074219 257.71435547 118.26074219 259.88232422 121.52636719 C261.43114484 124.32502732 261.43114484 124.32502732 263.71435547 125.26074219 C263.71435547 126.25074219 263.71435547 127.24074219 263.71435547 128.26074219 C264.70435547 128.59074219 265.69435547 128.92074219 266.71435547 129.26074219 C268.03857422 130.90527344 268.03857422 130.90527344 269.40185547 133.07324219 C272.56758045 138.03314379 275.86001402 142.89566849 279.17529297 147.75683594 C280.71435547 150.26074219 280.71435547 150.26074219 280.71435547 152.26074219 C281.37435547 152.26074219 282.03435547 152.26074219 282.71435547 152.26074219 C298.34250578 181.07321477 298.34250578 181.07321477 303.71435547 192.26074219 C304.13587891 193.11023438 304.55740234 193.95972656 304.99169922 194.83496094 C309.37895162 203.98791882 312.49560351 213.65129144 315.71435547 223.26074219 C315.98957031 224.07704102 316.26478516 224.89333984 316.54833984 225.734375 C325.52853498 252.55536944 331.9598057 282.00424269 332.08544922 310.31933594 C332.09447769 311.62435562 332.10350616 312.92937531 332.11280823 314.27394104 C332.12915339 317.02615799 332.13696872 319.7782557 332.13989258 322.53051758 C332.14414863 325.27896645 332.16466207 328.02645421 332.20141602 330.7746582 C332.55661529 357.8541612 328.90958712 383.55187082 322.31298828 409.87158203 C321.928478 411.40617323 321.55211505 412.94284171 321.18603516 414.48193359 C316.94078413 432.28682483 310.05496668 449.98910334 301.71435547 466.26074219 C301.21696182 467.58738382 300.73581332 468.92031831 300.27685547 470.26074219 C298.97157359 473.87482912 297.18325788 476.87555695 295.08935547 480.08496094 C293.02431831 483.35264757 291.23828753 486.76119077 289.40576172 490.16308594 C286.26596695 495.91333363 282.98080079 501.58177 279.71435547 507.26074219 C279.05435547 507.26074219 278.39435547 507.26074219 277.71435547 507.26074219 C277.45654297 507.96585938 277.19873047 508.67097656 276.93310547 509.39746094 C275.61105361 512.50343534 274.01687693 515.22052284 272.21435547 518.07324219 C271.60591797 519.0490625 270.99748047 520.02488281 270.37060547 521.03027344 C269.82404297 521.76632812 269.27748047 522.50238281 268.71435547 523.26074219 C268.05435547 523.26074219 267.39435547 523.26074219 266.71435547 523.26074219 C266.30636719 524.11345703 266.30636719 524.11345703 265.89013672 524.98339844 C264.68139104 527.32459024 263.34819521 529.49629487 261.90185547 531.69824219 C261.42103516 532.43945312 260.94021484 533.18066406 260.44482422 533.94433594 C258.42047981 536.65412428 256.13053013 538.89497951 253.71435547 541.26074219 C251.99911353 543.1294243 250.29141283 545.00504324 248.58935547 546.88574219 C225.55794611 571.97723257 225.55794611 571.97723257 213.15966797 580.47167969 C210.62351663 582.22465304 210.62351663 582.22465304 208.40576172 584.62011719 C205.05010865 587.91245605 201.38942791 590.47420567 197.52685547 593.13574219 C195.98904672 594.20468307 194.45128595 595.27369299 192.91357422 596.34277344 C192.18058105 596.85018066 191.44758789 597.35758789 190.69238281 597.88037109 C188.3818276 599.49279755 186.11392443 601.16059266 183.83935547 602.82324219 C170.99542093 611.75531849 157.03455395 618.82619104 142.82714844 625.29248047 C140.91737728 626.1677003 139.02010712 627.07007301 137.12451172 627.97558594 C130.52880637 631.11754012 123.87489422 633.73175298 116.96826172 636.11230469 C114.24536415 637.07332736 111.61607885 638.12363954 108.96435547 639.26074219 C77.29057745 652.04319069 40.72017897 656.08428683 6.92636871 655.89665604 C4.8637287 655.88553665 2.80112816 655.8803738 0.73846436 655.8757019 C-21.69284205 655.79963955 -43.40826627 654.42847199 -65.28564453 649.26074219 C-66.00739868 649.09149231 -66.72915283 648.92224243 -67.47277832 648.74786377 C-90.87284357 643.20696197 -113.7138404 635.97552841 -135.28564453 625.26074219 C-136.55335538 624.65028964 -137.82159816 624.04094068 -139.09033203 623.43261719 C-154.61858387 615.91514034 -169.4473809 607.18040746 -183.64599609 597.38769531 C-185.2335787 596.29652775 -186.83365798 595.22361159 -188.43408203 594.15136719 C-189.35447266 593.52746094 -190.27486328 592.90355469 -191.22314453 592.26074219 C-192.01591797 591.72449219 -192.80869141 591.18824219 -193.62548828 590.63574219 C-194.44726562 589.95511719 -194.44726562 589.95511719 -195.28564453 589.26074219 C-195.28564453 588.60074219 -195.28564453 587.94074219 -195.28564453 587.26074219 C-196.34332031 586.92623047 -196.34332031 586.92623047 -197.42236328 586.58496094 C-200.90591325 584.97387848 -203.36786544 582.701356 -206.09814453 580.07324219 C-207.16650536 579.06864467 -208.23551544 578.06473716 -209.30517578 577.06152344 C-209.81902832 576.57635254 -210.33288086 576.09118164 -210.86230469 575.59130859 C-212.63261322 573.93638896 -214.44986054 572.34251833 -216.28564453 570.76074219 C-224.41790199 563.68109425 -232.44593895 556.63062449 -239.28564453 548.26074219 C-241.65369353 545.38086704 -243.9845557 542.55390763 -246.66064453 539.94824219 C-256.28564453 530.09407552 -256.28564453 530.09407552 -256.28564453 526.26074219 C-256.94564453 526.26074219 -257.60564453 526.26074219 -258.28564453 526.26074219 C-262.28564453 520.84897748 -262.28564453 520.84897748 -262.28564453 518.26074219 C-262.94564453 518.26074219 -263.60564453 518.26074219 -264.28564453 518.26074219 C-265.93843397 515.85256453 -267.47097135 513.44841153 -268.97314453 510.94824219 C-269.86966511 509.47911681 -270.76680385 508.01036849 -271.66455078 506.54199219 C-272.10686035 505.81496094 -272.54916992 505.08792969 -273.00488281 504.33886719 C-274.14352227 502.49134545 -275.30852769 500.66789296 -276.50048828 498.85449219 C-277.13083984 497.89542969 -277.76119141 496.93636719 -278.41064453 495.94824219 C-278.97009766 495.10648438 -279.52955078 494.26472656 -280.10595703 493.39746094 C-281.28564453 491.26074219 -281.28564453 491.26074219 -281.28564453 488.26074219 C-281.94564453 488.26074219 -282.60564453 488.26074219 -283.28564453 488.26074219 C-284.41221213 486.00760698 -285.53790524 483.75407081 -286.66064453 481.49902344 C-287.83629772 479.15619533 -289.02351705 476.82166375 -290.22314453 474.49121094 C-293.92515139 467.25780069 -297.32005204 460.07953034 -300.08251953 452.42089844 C-301.03464238 449.92003031 -302.06289088 447.53902249 -303.18017578 445.11230469 C-305.59681603 439.72579705 -307.4334275 434.19449084 -309.22314453 428.57324219 C-309.57014404 427.48470947 -309.91714355 426.39617676 -310.2746582 425.2746582 C-313.56596294 414.72580079 -316.08510778 404.08330314 -318.28564453 393.26074219 C-318.4387207 392.53064941 -318.59179688 391.80055664 -318.74951172 391.04833984 C-318.89291992 390.36175293 -319.03632813 389.67516602 -319.18408203 388.96777344 C-319.3057373 388.38616455 -319.42739258 387.80455566 -319.55273438 387.20532227 C-323.05877716 368.90345317 -323.63490452 350.83155498 -323.60131836 332.24975586 C-323.59669541 329.47420001 -323.60359105 326.69908326 -323.62182617 323.92358398 C-323.76717169 301.60136473 -322.23195369 280.06846969 -317.28564453 258.26074219 C-317.10243652 257.44863281 -316.91922852 256.63652344 -316.73046875 255.79980469 C-311.30721811 231.91824257 -303.49152746 209.50320886 -293.28564453 187.26074219 C-292.28541757 185.05251164 -291.28537922 182.84419564 -290.28564453 180.63574219 C-289.61980616 179.17703049 -288.95352511 177.71851998 -288.28564453 176.26074219 C-287.62564453 176.26074219 -286.96564453 176.26074219 -286.28564453 176.26074219 C-286.10388672 175.14892578 -286.10388672 175.14892578 -285.91845703 174.01464844 C-285.3054487 171.346927 -284.52777884 169.54772135 -283.16064453 167.19824219 C-282.71849609 166.43511719 -282.27634766 165.67199219 -281.82080078 164.88574219 C-281.31419922 164.01949219 -280.80759766 163.15324219 -280.28564453 162.26074219 C-279.68623047 161.18824219 -279.08681641 160.11574219 -278.46923828 159.01074219 C-277.85177734 157.91761719 -277.23431641 156.82449219 -276.59814453 155.69824219 C-276.01677734 154.66570312 -275.43541016 153.63316406 -274.83642578 152.56933594 C-274.06878906 151.42658203 -274.06878906 151.42658203 -273.28564453 150.26074219 C-272.62564453 150.26074219 -271.96564453 150.26074219 -271.28564453 150.26074219 C-270.85251953 148.86855469 -270.85251953 148.86855469 -270.41064453 147.44824219 C-269.28564453 144.26074219 -269.28564453 144.26074219 -267.28564453 141.26074219 C-266.62564453 141.26074219 -265.96564453 141.26074219 -265.28564453 141.26074219 C-265.05490234 140.58011719 -264.82416016 139.89949219 -264.58642578 139.19824219 C-262.96225761 135.53045101 -260.82108264 132.49736968 -258.47314453 129.26074219 C-258.04710937 128.65746094 -257.62107422 128.05417969 -257.18212891 127.43261719 C-254.49093698 123.68693402 -251.59083697 120.49419402 -248.28564453 117.26074219 C-246.40717026 115.15245276 -244.59550384 112.99051069 -242.78564453 110.82324219 C-242.32544922 110.27603516 -241.86525391 109.72882813 -241.39111328 109.16503906 C-238.65809428 105.91247966 -238.65809428 105.91247966 -235.96044922 102.63061523 C-233.65364735 99.80500223 -231.34599949 97.27218955 -228.53564453 94.94824219 C-225.57473947 92.43312395 -222.84928395 89.81432344 -220.16064453 87.01074219 C-215.40989819 82.1945811 -210.19783443 78.14927036 -204.84814453 74.03417969 C-201.47376312 71.43218103 -198.21885285 68.70782763 -194.97314453 65.94824219 C-190.27005367 62.00411573 -185.48063888 58.51877129 -180.28564453 55.26074219 C-179.41166016 54.69742188 -178.53767578 54.13410156 -177.63720703 53.55371094 C-171.59180726 49.66738252 -165.48585378 45.89500332 -159.28564453 42.26074219 C-158.45419922 41.77089844 -157.62275391 41.28105469 -156.76611328 40.77636719 C-155.96818359 40.31746094 -155.17025391 39.85855469 -154.34814453 39.38574219 C-153.28273437 38.77085938 -153.28273437 38.77085938 -152.19580078 38.14355469 C-150.28564453 37.26074219 -150.28564453 37.26074219 -147.28564453 37.26074219 C-147.28564453 36.60074219 -147.28564453 35.94074219 -147.28564453 35.26074219 C-146.30466797 34.83664063 -145.32369141 34.41253906 -144.31298828 33.97558594 C-142.94959355 33.38339922 -141.5863223 32.79092817 -140.22314453 32.19824219 C-139.49071533 31.88097168 -138.75828613 31.56370117 -138.00366211 31.23681641 C-133.42584336 29.24028146 -128.9472954 27.10721012 -124.47314453 24.88574219 C-113.23807437 19.4771237 -101.15740822 15.97849811 -89.28564453 12.26074219 C-88.44066406 11.99487305 -87.59568359 11.72900391 -86.72509766 11.45507812 C-77.36943116 8.55812541 -67.89160001 6.46704133 -58.28564453 4.57324219 C-57.26591553 4.37053711 -56.24618652 4.16783203 -55.19555664 3.95898438 C-36.78280903 0.48164984 -18.69218552 -0.06116522 0 0 Z M-61.78564453 23.01074219 C-62.91035156 23.26895752 -64.03505859 23.52717285 -65.19384766 23.79321289 C-110.19317927 34.37439375 -152.26877815 54.19802523 -188.28564453 83.26074219 C-189.29626953 84.05996094 -190.30689453 84.85917969 -191.34814453 85.68261719 C-208.37541346 99.3237815 -225.04907101 114.87964467 -238.28564453 132.26074219 C-239.47480469 133.75927734 -239.47480469 133.75927734 -240.68798828 135.28808594 C-247.02796253 143.307084 -252.79672587 151.63989928 -258.28564453 160.26074219 C-258.97762939 161.3404126 -258.97762939 161.3404126 -259.68359375 162.44189453 C-271.22377225 180.59432566 -281.41890578 200.00150246 -288.03955078 220.51464844 C-288.9998058 223.40143389 -290.0462203 226.1318602 -291.21533203 228.93261719 C-293.59568914 234.80795633 -295.23936367 240.82364042 -296.84814453 246.94824219 C-297.15333008 248.10235596 -297.45851563 249.25646973 -297.77294922 250.44555664 C-304.13193771 274.77775722 -306.83885855 298.74184717 -306.66064453 323.88574219 C-306.65698883 325.01773041 -306.65333313 326.14971863 -306.64956665 327.31600952 C-306.58353468 344.7824655 -306.01047733 361.97806143 -303.28564453 379.26074219 C-303.16286133 380.0499707 -303.04007813 380.83919922 -302.91357422 381.65234375 C-301.63403964 389.51637033 -299.57904284 397.12381328 -297.30908203 404.75292969 C-296.28003186 408.27997951 -295.37323867 411.82383118 -294.47314453 415.38574219 C-290.72770349 429.46040733 -285.81806318 443.11928963 -279.32373047 456.16113281 C-278.145852 458.54348344 -277.00162815 460.94086821 -275.85595703 463.33886719 C-263.35393179 489.23740534 -247.54005487 512.89227102 -228.28564453 534.26074219 C-227.77227539 534.83050781 -227.25890625 535.40027344 -226.72998047 535.98730469 C-188.32544228 578.41064594 -138.55204768 610.64709951 -83.28564453 626.26074219 C-82.51446289 626.48068848 -81.74328125 626.70063477 -80.94873047 626.92724609 C-68.86126709 630.33826319 -56.67185082 633.17355758 -44.28564453 635.26074219 C-43.39248535 635.41317383 -42.49932617 635.56560547 -41.57910156 635.72265625 C-26.05696093 638.23858522 -10.65994491 638.52663496 5.02685547 638.51074219 C6.01363281 638.51005737 7.00041016 638.50937256 8.01708984 638.50866699 C10.84989852 638.50217946 13.68240874 638.48581292 16.51513672 638.46386719 C17.36928665 638.45947632 18.22343658 638.45508545 19.10346985 638.45056152 C23.11205646 638.40298096 26.79486546 638.19254719 30.71435547 637.26074219 C32.75439125 637.11147128 34.79647968 636.98911663 36.83935547 636.88574219 C107.9870786 631.99942613 175.69672283 595.19944133 225.58935547 545.63574219 C226.45689453 544.77746826 227.32443359 543.91919434 228.21826172 543.03491211 C234.13935926 537.08491181 239.47523486 530.81244762 244.71435547 524.26074219 C246.21129317 522.46651618 247.71094563 520.67454858 249.21435547 518.88574219 C262.49376003 502.58412831 273.91878733 484.13346429 282.84667969 465.10205078 C283.69166522 463.30889352 284.56399844 461.52870356 285.43701172 459.74902344 C298.76707399 432.14759609 306.94219997 403.48887459 311.71435547 373.26074219 C311.96209717 371.75398926 311.96209717 371.75398926 312.21484375 370.21679688 C316.91949673 340.6850041 316.73197617 308.74532959 311.71435547 279.26074219 C311.53743164 278.21724609 311.36050781 277.17375 311.17822266 276.09863281 C308.62971907 261.54707347 305.11615544 247.35779638 300.71435547 233.26074219 C300.49247559 232.5467627 300.2705957 231.8327832 300.04199219 231.09716797 C283.52762848 178.49910737 250.05447533 127.81046546 207.71435547 92.26074219 C206.92641602 91.59413574 206.92641602 91.59413574 206.12255859 90.9140625 C179.4988594 68.48249274 148.78094233 48.69027982 115.71435547 37.26074219 C113.9119844 36.61831973 112.10993154 35.97500415 110.30810547 35.33105469 C99.87897918 31.62672489 89.46021332 27.9443877 78.71435547 25.26074219 C77.55009033 24.96538574 77.55009033 24.96538574 76.36230469 24.6640625 C51.12541579 18.37268646 26.2344535 16.98434246 0.33935547 16.88574219 C-0.75686127 16.87779633 -1.853078 16.86985046 -2.98251343 16.86166382 C-22.90945266 16.75076912 -42.35223185 18.48385257 -61.78564453 23.01074219 Z " fill="#FEC72F" transform="translate(395.28564453125,71.7392578125)"/>
<path d="M0 0 C1.13198822 0.0036557 2.26397644 0.0073114 3.43026733 0.01107788 C20.89672332 0.07710985 38.09231924 0.6501672 55.375 3.375 C56.16422852 3.4977832 56.95345703 3.62056641 57.76660156 3.74707031 C66.13382868 5.1084793 74.25426246 7.31927718 82.36132812 9.76855469 C84.62879895 10.45143509 86.9001609 11.12043743 89.171875 11.7890625 C94.24858141 13.28862251 99.3141257 14.82291555 104.375 16.375 C105.42252441 16.69404297 105.42252441 16.69404297 106.49121094 17.01953125 C115.41125046 19.7614373 123.83465644 23.18041925 132.19482422 27.3046875 C134.61251873 28.49160494 137.04251291 29.65129628 139.47265625 30.8125 C165.36259935 43.31708756 189.01124476 59.12483903 210.375 78.375 C210.94476562 78.88836914 211.51453125 79.40173828 212.1015625 79.93066406 C231.65523648 97.63200009 249.00554558 117.21177534 263.375 139.375 C263.88385742 140.15294922 264.39271484 140.93089844 264.91699219 141.73242188 C276.23826014 159.14446316 286.36625917 177.40656091 293.21875 197.06640625 C294.1833813 199.82668569 295.23459755 202.49743777 296.375 205.1875 C305.65785354 228.2983387 310.31282361 252.76027176 313.375 277.375 C313.48102539 278.21442139 313.58705078 279.05384277 313.69628906 279.91870117 C314.72512484 289.38564972 314.61881661 298.92629055 314.625 308.4375 C314.62601212 309.83852463 314.62601212 309.83852463 314.62704468 311.26785278 C314.6095976 326.5141519 313.85279177 341.30519133 311.375 356.375 C311.20339355 357.46200195 311.03178711 358.54900391 310.85498047 359.66894531 C305.77128871 391.3159487 296.59689682 422.20007031 281.36083984 450.52539062 C280.30348878 452.50916765 279.28485074 454.51003273 278.26953125 456.515625 C267.79531476 477.03553538 254.67369734 497.13826415 238.75390625 513.85546875 C236.8294955 515.89363777 234.99524378 517.96255426 233.16796875 520.0859375 C222.97239928 531.7898326 211.75201459 542.99023069 199.375 552.375 C198.09260508 553.38396317 196.81145769 554.39451305 195.53125 555.40625 C171.4003318 574.34047156 144.86585327 588.98951913 116.48779297 600.51269531 C114.70541912 601.2401444 112.93171777 601.98878953 111.16015625 602.7421875 C86.83809293 612.73218935 59.57452218 618.63400165 33.3984375 620.12890625 C30.5058925 620.28742328 30.5058925 620.28742328 28.26098633 620.87768555 C24.22756504 621.5727265 20.261947 621.55709482 16.17578125 621.578125 C15.27645874 621.58513931 14.37713623 621.59215363 13.45056152 621.59938049 C10.52949048 621.6169427 7.60862206 621.62324189 4.6875 621.625 C3.69181 621.62567474 2.69612 621.62634949 1.67025757 621.62704468 C-13.96329468 621.61019054 -29.18409465 621.02758284 -44.625 618.375 C-45.67091309 618.19807617 -46.71682617 618.02115234 -47.79443359 617.83886719 C-61.19221855 615.50689139 -74.22926446 612.38683484 -87.15820312 608.17529297 C-89.70880431 607.34781171 -92.26761321 606.55013975 -94.828125 605.75390625 C-135.60568717 592.86825687 -172.77289607 570.22863099 -204.29296875 541.48828125 C-206.37534736 539.60123463 -208.49003064 537.76441767 -210.625 535.9375 C-218.20027406 529.32635173 -225.18409999 522.08910118 -231.625 514.375 C-232.06650391 513.85260742 -232.50800781 513.33021484 -232.96289062 512.79199219 C-255.48615783 486.06221701 -274.92032544 455.45824418 -286.625 422.375 C-287.25360275 420.72805393 -287.8854068 419.08232794 -288.51953125 417.4375 C-293.01239233 405.64926886 -296.47668044 393.93787625 -299.13427734 381.609375 C-299.78149341 378.66244891 -300.52178077 375.74031474 -301.25 372.8125 C-302.49591527 367.36869978 -303.40371308 361.89235778 -304.25 356.375 C-304.3732666 355.5802124 -304.4965332 354.7854248 -304.62353516 353.96655273 C-306.7017513 339.8142745 -306.84084461 325.71909172 -306.86523438 311.44091797 C-306.8748797 308.04238839 -306.90595587 304.64448064 -306.9375 301.24609375 C-307.03094858 282.12317854 -305.21284668 263.51638039 -300.875 244.875 C-300.62186035 243.76261963 -300.3687207 242.65023926 -300.10791016 241.50415039 C-296.6686824 226.78446469 -292.40970394 212.34568427 -286.625 198.375 C-286.3057959 197.58875244 -285.9865918 196.80250488 -285.65771484 195.99243164 C-273.38340577 165.89350313 -257.22640588 138.51697075 -236.625 113.375 C-235.90699219 112.47007812 -235.18898438 111.56515625 -234.44921875 110.6328125 C-228.26960308 103.0438108 -221.52336927 96.05851612 -214.625 89.125 C-213.25480713 87.74103027 -213.25480713 87.74103027 -211.85693359 86.32910156 C-205.75368294 80.25312191 -199.39029099 74.70029444 -192.625 69.375 C-191.89345703 68.79476074 -191.16191406 68.21452148 -190.40820312 67.61669922 C-152.73559561 37.96164139 -110.28747571 17.58302076 -63.625 6.375 C-62.8942627 6.19888184 -62.16352539 6.02276367 -61.41064453 5.84130859 C-41.18493921 1.09700735 -20.70478092 -0.14675062 0 0 Z M-46.625 19.375 C-48.02697305 19.59611336 -49.42930236 19.81498345 -50.83203125 20.03125 C-103.67135939 28.88170576 -152.4716782 54.4687637 -192.625 89.375 C-193.46675781 90.10332031 -194.30851562 90.83164063 -195.17578125 91.58203125 C-205.24623408 100.46578587 -215.10114285 109.98139353 -223.625 120.375 C-224.0389502 120.86983887 -224.45290039 121.36467773 -224.87939453 121.87451172 C-240.30683504 140.35636038 -253.2765821 160.75180468 -263.69287109 182.44580078 C-264.56570463 184.25227815 -265.46361592 186.04657824 -266.36328125 187.83984375 C-274.992767 205.47573531 -281.16669486 224.28042768 -285.625 243.375 C-285.90859375 244.54417969 -286.1921875 245.71335937 -286.484375 246.91796875 C-288.86530432 257.27987035 -290.33302249 267.82769255 -291.625 278.375 C-291.72433838 279.15254639 -291.82367676 279.93009277 -291.92602539 280.73120117 C-292.90508904 289.61801934 -292.81107375 298.54866354 -292.81030273 307.4777832 C-292.81247098 310.27506156 -292.8306277 313.07193263 -292.84960938 315.86914062 C-292.90782527 333.73915464 -291.19851488 351.08533386 -287.8125 368.625 C-287.68116669 369.31356079 -287.54983337 370.00212158 -287.41452026 370.71154785 C-285.46834267 380.86845088 -283.14411721 390.6353256 -279.625 400.375 C-279.11637588 401.90120965 -278.61139551 403.42863673 -278.109375 404.95703125 C-264.64441085 445.43635613 -243.13223842 481.43585992 -214.125 512.65234375 C-212.16233489 514.78980872 -210.28065074 516.94867288 -208.4375 519.1875 C-205.8475471 522.24701943 -202.97036584 524.80364165 -199.9140625 527.390625 C-198.28996607 528.79854477 -196.70466722 530.25178391 -195.1484375 531.734375 C-180.54545277 545.63806187 -163.91572158 557.08080071 -146.625 567.375 C-145.89635742 567.81150879 -145.16771484 568.24801758 -144.41699219 568.69775391 C-87.96478868 602.19644584 -18.28995205 614.66011928 46.375 604.375 C47.49342285 604.19807617 48.6118457 604.02115234 49.76416016 603.83886719 C97.29869749 596.10239576 141.87024362 577.41477141 180.375 548.375 C180.93703125 547.95573242 181.4990625 547.53646484 182.078125 547.10449219 C191.78697811 539.82831905 200.66210517 531.80781249 209.375 523.375 C210.25599365 522.52687744 210.25599365 522.52687744 211.15478516 521.66162109 C217.55044104 515.4813676 223.61413498 509.21050063 229.12426758 502.20996094 C231.25701283 499.5236134 233.44423877 496.89278914 235.64453125 494.26171875 C240.22640192 488.66572737 244.33041714 482.845734 248.3125 476.8125 C249.0041626 475.76747314 249.6958252 474.72244629 250.40844727 473.64575195 C281.95646575 425.4896369 298.86962901 368.61335995 298.75 311.0625 C298.75018127 309.70460358 298.75018127 309.70460358 298.75036621 308.3192749 C298.71903956 291.70048768 297.25410549 275.76076421 294.375 259.375 C294.09445301 257.62118948 293.81445711 255.86729066 293.53515625 254.11328125 C284.67752536 201.94063198 257.67662323 150.64437477 221.375 112.375 C220.20156692 111.02669244 219.03448566 109.67282036 217.875 108.3125 C211.28968735 100.75101159 204.05871068 93.807292 196.375 87.375 C195.87387695 86.94413086 195.37275391 86.51326172 194.85644531 86.06933594 C140.24858177 39.21307911 71.778684 16.18196346 0.4375 16.125 C-1.05443375 16.12299088 -1.05443375 16.12299088 -2.57650757 16.12094116 C-17.49451984 16.12529328 -31.91076431 16.74129917 -46.625 19.375 Z " fill="#8B2432" transform="translate(395.625,88.625)"/>
<path d="M0 0 C-3.18428934 2.49538059 -6.52602247 4.55593986 -10 6.625 C-24.39425671 15.37878498 -37.69351248 26.29647053 -49.40625 38.40625 C-51 40 -51 40 -53.5625 42 C-56.36976621 44.30339791 -58.57483072 46.85435665 -60.92578125 49.61328125 C-62.87241727 51.85319576 -64.88010811 54.02381196 -66.91015625 56.18798828 C-77.04730564 66.79702049 -77.04730564 66.79702049 -85 79 C-84.42403076 79.27328125 -83.84806152 79.5465625 -83.25463867 79.828125 C-79.36583937 81.84937423 -75.88537684 84.47306125 -72.3125 87 C-71.52810547 87.5465625 -70.74371094 88.093125 -69.93554688 88.65625 C-69.18982422 89.1821875 -68.44410156 89.708125 -67.67578125 90.25 C-66.99427002 90.72953125 -66.31275879 91.2090625 -65.6105957 91.703125 C-64 93 -64 93 -63 95 C-63.4375 97.125 -63.4375 97.125 -64 99 C-48.26688161 109.27597077 -48.26688161 109.27597077 -32.5 119.5 C-25.82079082 123.81418154 -19.15842472 128.15381518 -12.5 132.5 C-5.04274162 137.36720257 2.41647609 142.2311299 9.90112305 147.05615234 C13.50740338 149.38145596 17.10199899 151.72274753 20.68359375 154.0859375 C21.45783691 154.59415039 22.23208008 155.10236328 23.02978516 155.62597656 C24.51293084 156.59993533 25.99324991 157.57821707 27.47021484 158.56152344 C28.13617676 158.99754883 28.80213867 159.43357422 29.48828125 159.8828125 C30.07134033 160.26840332 30.65439941 160.65399414 31.25512695 161.05126953 C33.2044404 162.11115928 34.79992942 162.6930007 37 163 C39.37037775 161.81170039 41.43116743 160.58839753 43.625 159.125 C44.30594727 158.68518799 44.98689453 158.24537598 45.68847656 157.79223633 C48.13406116 156.20740161 50.56651046 154.60334042 53 153 C55.0436535 151.6670218 57.08796213 150.33504766 59.1328125 149.00390625 C63.60098794 146.09164909 68.06432526 143.17219429 72.5234375 140.24609375 C78.13167857 136.56687007 83.74947999 132.90273799 89.375 129.25 C90.17429932 128.73091064 90.97359863 128.21182129 91.79711914 127.67700195 C93.39251876 126.64102186 94.9879773 125.60513249 96.58349609 124.56933594 C99.08366301 122.94566722 101.58296864 121.32068033 104.08203125 119.6953125 C114.71177861 112.78202627 125.3508327 105.88333482 136 99 C135.67 97.35 135.34 95.7 135 94 C154.36893204 79 154.36893204 79 157 79 C152.46974273 72.50704272 147.75372541 66.39201741 142.37109375 60.58203125 C140.49770449 58.54198133 138.68675159 56.47519965 136.8828125 54.375 C132.28159297 49.10475859 127.37887913 44.1369889 122.4375 39.1875 C121.95300385 38.70166443 121.46850769 38.21582886 120.96932983 37.715271 C113.41618563 30.1666365 105.66960008 23.24704689 97 17 C96.07574219 16.29230469 95.15148437 15.58460938 94.19921875 14.85546875 C87.17468074 9.5387779 79.70632272 5.23003991 72 1 C72 0.67 72 0.34 72 0 C78.19277878 0.53080961 83.68955463 1.5501564 89.5625 3.5625 C90.33625977 3.82498535 91.11001953 4.0874707 91.90722656 4.35791016 C99.30616762 6.95855794 106.23989373 10.26335981 113.13134766 13.98974609 C114.91561122 14.9543767 116.71339949 15.89386469 118.51171875 16.83203125 C132.35506175 24.329851 144.51707485 34.29456458 156 45 C157.2065625 46.05380859 157.2065625 46.05380859 158.4375 47.12890625 C164.26100016 52.21536967 169.50046654 57.64943473 174.65234375 63.3984375 C176.39173331 65.32594739 178.1380635 67.19336855 180 69 C181.32 68.34 182.64 67.68 184 67 C185.79806978 69.89190305 187.58729365 72.78918109 189.375 75.6875 C189.88289063 76.50412109 190.39078125 77.32074219 190.9140625 78.16210938 C191.40390625 78.95810547 191.89375 79.75410156 192.3984375 80.57421875 C193.07398682 81.66609497 193.07398682 81.66609497 193.76318359 82.7800293 C195.06916401 85.12414298 196.05505578 87.49107667 197 90 C195.515 90.495 195.515 90.495 194 91 C194.74443359 92.70929688 194.74443359 92.70929688 195.50390625 94.453125 C199.22461318 103.0868605 202.75278107 111.7553083 205.875 120.625 C206.16060791 121.4284082 206.44621582 122.23181641 206.74047852 123.05957031 C208.33085326 127.65854305 209.57977721 132.22684639 210.57519531 136.98974609 C210.91931713 138.61819384 211.32370996 140.23382645 211.74609375 141.84375 C218.60632903 168.19945616 217.60471686 193.45246017 213 220 C212.34 220 211.68 220 211 220 C210.97421875 218.99324219 210.9484375 217.98648438 210.921875 216.94921875 C210.51397537 205.62625235 208.7406205 194.98201137 206 184 C205.79777832 183.1857959 205.59555664 182.3715918 205.38720703 181.53271484 C199.33048483 157.72143768 190.6983649 130.54754735 177 110 C173.90451875 110.62975091 171.60842874 111.67902802 168.91796875 113.3203125 C168.15033203 113.77277344 167.38269531 114.22523438 166.59179688 114.69140625 C164.99410361 115.64405195 163.40284054 116.6075688 161.81835938 117.58203125 C156.50201577 120.68212134 154.15603929 120.9153702 148 120 C144.98697547 121.15364758 142.42202444 122.8973592 139.75 124.6875 C138.97132568 125.18644775 138.19265137 125.68539551 137.39038086 126.19946289 C135.74536764 127.25484441 134.10538241 128.31809929 132.47021484 129.38867188 C129.31003189 131.45006815 126.1155074 133.45392652 122.91894531 135.45825195 C120.53668312 136.95370643 118.16012573 138.45783792 115.78515625 139.96484375 C111.02777409 142.98344785 106.26445364 145.99257338 101.5 149 C96.80736727 151.96290871 92.11523187 154.9265881 87.42578125 157.89453125 C77.60928182 164.10496966 67.76802588 170.27466971 57.91455078 176.42626953 C48.58864874 182.2510408 39.29054283 188.11905045 30 194 C18.66039948 201.17801098 7.29868526 208.31906736 -4.08544922 215.42626953 C-13.41135126 221.2510408 -22.70945717 227.11905045 -32 233 C-41.239449 238.84860695 -50.48477134 244.68681193 -59.76416016 250.47192383 C-61.7969142 251.74097058 -63.82784194 253.0129474 -65.85693359 254.2878418 C-70.88598252 257.44659991 -75.9307947 260.56705649 -81.03125 263.609375 C-91.93301511 270.19349245 -100.68623119 276.46677314 -108 287 C-114.29636862 286.01356892 -117.0027039 282.44908098 -120.6875 277.5 C-124.32949795 272.18588978 -125.08323776 268.47741077 -125 262 C-124.00226563 261.83628906 -123.00453125 261.67257812 -121.9765625 261.50390625 C-107.43082987 258.56051819 -96.26385025 250.55007428 -84.27636719 242.25 C-79.22442333 238.7806472 -74.08187006 235.45503015 -68.9375 232.125 C-67.04395359 230.89111172 -65.15071555 229.65675004 -63.2578125 228.421875 C-57.93620111 224.95619241 -52.60624215 221.50355525 -47.27246094 218.05664062 C-40.21460661 213.49514432 -33.16942606 208.91422912 -26.125 204.33203125 C-22.68934201 202.0974089 -19.25171453 199.86586326 -15.8125 197.63671875 C-7.95607399 192.54246866 -0.10827165 187.43676021 7.6875 182.25 C8.31760986 181.83145752 8.94771973 181.41291504 9.59692383 180.98168945 C12.43571536 179.16488619 12.43571536 179.16488619 15 177 C14.37246826 176.60844727 13.74493652 176.21689453 13.09838867 175.81347656 C-1.38660158 166.7733861 -15.84548802 157.6938531 -30.27246094 148.56152344 C-40.12354187 142.32714231 -49.990318 136.11849776 -59.875 129.9375 C-60.90391357 129.29385498 -61.93282715 128.65020996 -62.99291992 127.98706055 C-64.44661987 127.07887573 -64.44661987 127.07887573 -65.9296875 126.15234375 C-66.78804199 125.61601318 -67.64639648 125.07968262 -68.53076172 124.52709961 C-69.34561035 124.02315674 -70.16045898 123.51921387 -71 123 C-71.86415527 122.42660889 -72.72831055 121.85321777 -73.61865234 121.26245117 C-76.03661736 119.65729187 -76.03661736 119.65729187 -79.171875 120.6484375 C-84.90195093 121.17466896 -88.43584437 118.51067808 -93.25 115.625 C-95.02505478 114.59465211 -96.80105565 113.56593191 -98.578125 112.5390625 C-99.35575195 112.07709473 -100.13337891 111.61512695 -100.93457031 111.13916016 C-103.08855596 109.86977909 -103.08855596 109.86977909 -106 109 C-106.25910156 109.84304688 -106.51820313 110.68609375 -106.78515625 111.5546875 C-107.8375177 114.5391981 -109.0609974 117.31327548 -110.46118164 120.14697266 C-125.95736468 151.54234025 -137.98992474 185.74837358 -139 221 C-145.160466 214.839534 -144.34443383 200.56648744 -144.37106323 192.29873657 C-144.36455443 190.66649582 -144.35289769 189.03426775 -144.33618164 187.40209961 C-144.31248899 184.93635405 -144.31566268 182.4716911 -144.32226562 180.00585938 C-144.30611865 170.5124463 -143.70484061 161.36518889 -142 152 C-141.8337915 151.08484619 -141.66758301 150.16969238 -141.49633789 149.22680664 C-137.56421409 128.96446795 -130.67998151 109.68908519 -122 91 C-123.485 90.505 -123.485 90.505 -125 90 C-124.38435076 86.9974109 -123.4271389 84.79576202 -121.78515625 82.21484375 C-121.34623047 81.51939453 -120.90730469 80.82394531 -120.45507812 80.10742188 C-119.99552734 79.39134766 -119.53597656 78.67527344 -119.0625 77.9375 C-118.60681641 77.21755859 -118.15113281 76.49761719 -117.68164062 75.75585938 C-115.81723073 72.81593337 -113.93116135 69.89674203 -112 67 C-111.12988281 67.29648437 -110.25976562 67.59296875 -109.36328125 67.8984375 C-105.76015459 68.39830534 -105.76015459 68.39830534 -103.10546875 65.3515625 C-102.11399049 64.1243458 -101.14225089 62.88100187 -100.1875 61.625 C-99.13290712 60.31942998 -98.07560393 59.01604469 -97.015625 57.71484375 C-96.50193359 57.07530762 -95.98824219 56.43577148 -95.45898438 55.77685547 C-89.22605609 48.18594983 -81.64957053 42.08910179 -74 36 C-73.20980469 35.34257812 -72.41960937 34.68515625 -71.60546875 34.0078125 C-55.45727293 20.67149158 -36.89178746 9.67582499 -17 3 C-15.62908203 2.52433594 -15.62908203 2.52433594 -14.23046875 2.0390625 C-9.30156203 0.42811548 -5.18155482 -0.33792749 0 0 Z " fill="#FBC427" transform="translate(363,227)"/>
<path d="M0 0 C1.14339844 0.61101562 2.28679687 1.22203125 3.46484375 1.8515625 C25.81489505 14.06992575 48.05465431 31.00504271 64 51 C65.23943359 52.51787109 65.23943359 52.51787109 66.50390625 54.06640625 C76.33648215 66.22592084 84.54215522 78.76532748 91.8125 92.625 C92.35181152 93.64956299 92.89112305 94.67412598 93.44677734 95.72973633 C97.17165355 102.97537802 100.20969192 110.34980281 103 118 C103.4640625 119.23492187 103.928125 120.46984375 104.40625 121.7421875 C115.66533576 153.991426 119.34508312 192.2579301 113 226 C112.73340576 227.41974121 112.73340576 227.41974121 112.46142578 228.86816406 C104.68487044 268.64799766 87.07970272 305.95266165 59.23046875 335.6171875 C57.24711076 337.73601127 55.3676006 339.90477551 53.5 342.125 C26.25132209 373.20356121 -16.63285736 393.55751237 -56.5 402.1875 C-57.210354 402.34250977 -57.92070801 402.49751953 -58.65258789 402.65722656 C-72.28047193 405.44505889 -85.75669041 406.38160136 -99.625 406.3125 C-100.40991821 406.31034485 -101.19483643 406.3081897 -102.00354004 406.30596924 C-136.97794745 406.15258049 -170.18896886 397.62870028 -201 381 C-202.7325 380.07960938 -202.7325 380.07960938 -204.5 379.140625 C-230.22117395 364.99397933 -253.35130969 345.16779545 -270.83154297 321.56982422 C-271.89015542 320.1475764 -272.9767629 318.7462722 -274.06640625 317.34765625 C-307.85156928 273.05155361 -320.11700802 215.26442941 -313.359375 160.62011719 C-308.36083979 124.17699227 -293.1377048 87.68762724 -270 59 C-269.21625 58.01257813 -268.4325 57.02515625 -267.625 56.0078125 C-254.94986529 40.35072841 -240.44584554 26.60859659 -224 15 C-223.37561035 14.55221191 -222.7512207 14.10442383 -222.10791016 13.64306641 C-202.12326584 -0.60893094 -179.72797161 -10.82346087 -156 -17 C-154.89527344 -17.33644531 -153.79054688 -17.67289063 -152.65234375 -18.01953125 C-103.92815175 -32.42635214 -44.09805917 -25.03829547 0 0 Z M-152.9375 -3.0625 C-153.87400391 -2.82337891 -154.81050781 -2.58425781 -155.77539062 -2.33789062 C-162.07289123 -0.68157367 -168.00798791 1.46250612 -174 4 C-174.70858154 4.28866943 -175.41716309 4.57733887 -176.1472168 4.87475586 C-193.89928013 12.13476804 -210.22045626 21.77328655 -225 34 C-225.53141602 34.43135254 -226.06283203 34.86270508 -226.61035156 35.30712891 C-248.70249382 53.24144356 -265.86297496 74.76036135 -279 100 C-279.51989502 100.99870117 -279.51989502 100.99870117 -280.05029297 102.01757812 C-287.94126504 117.42146725 -293.26722246 133.52612607 -296.875 150.4375 C-297.07826904 151.38310791 -297.28153809 152.32871582 -297.4909668 153.30297852 C-300.10226578 166.35721161 -300.26832256 179.66724882 -300.3125 192.9375 C-300.31511841 193.69979919 -300.31773682 194.46209839 -300.32043457 195.24749756 C-300.32528925 208.53025916 -298.97464829 221.03291941 -296 234 C-295.67070634 235.57240127 -295.34380615 237.14530605 -295.01953125 238.71875 C-293.15545928 247.48877388 -290.54759572 255.75545994 -287 264 C-286.68933594 264.73589355 -286.37867188 265.47178711 -286.05859375 266.22998047 C-272.54749824 298.08765387 -252.32698408 326.52091695 -225 348 C-223.60974609 349.09828125 -223.60974609 349.09828125 -222.19140625 350.21875 C-196.557807 369.97435974 -166.89329074 383.44697989 -135 389 C-133.66050293 389.26707764 -133.66050293 389.26707764 -132.29394531 389.53955078 C-122.69568443 391.28595698 -113.19290181 391.30430506 -103.47167969 391.26074219 C-100.63715088 391.25004585 -97.80325934 391.26067828 -94.96875 391.2734375 C-80.91147509 391.28533821 -67.45700909 390.14183681 -53.75 386.8125 C-52.86868408 386.59964355 -51.98736816 386.38678711 -51.0793457 386.16748047 C-41.77344628 383.82707462 -32.8856245 380.59548695 -24 377 C-23.30567871 376.72430176 -22.61135742 376.44860352 -21.89599609 376.16455078 C22.68777061 358.31610816 62.22086491 320.86353823 82 277 C84.87485925 270.2327407 87.51408664 263.37911284 90.07373047 256.48730469 C90.80303381 254.52891183 91.55548728 252.57913936 92.31640625 250.6328125 C95.68412603 241.52015898 96.99706833 231.83284098 98.58276367 222.28320312 C99 220 99 220 99.51757812 218.07128906 C109.57449159 174.89170718 94.38221193 123.35484237 72.17114258 86.35668945 C64.37790773 73.83785168 55.19045375 62.6461513 45 52 C44.47954102 51.44699219 43.95908203 50.89398438 43.42285156 50.32421875 C30.326758 36.45316209 15.66283283 25.25859757 -1 16 C-1.62116699 15.65098633 -2.24233398 15.30197266 -2.88232422 14.94238281 C-17.67263594 6.67261305 -32.464215 1.04068347 -48.79956055 -3.37548828 C-50.55945931 -3.87496915 -52.29524466 -4.45911648 -54.01953125 -5.0703125 C-69.5523161 -9.91540135 -86.83583894 -9.31800908 -102.9375 -9.375 C-103.85139496 -9.38267395 -104.76528992 -9.3903479 -105.70687866 -9.39825439 C-122.10453754 -9.50812946 -137.08214913 -7.298834 -152.9375 -3.0625 Z " fill="#882332" transform="translate(498,212)"/>
<path d="M0 0 C0.66 0 1.32 0 2 0 C3.67531673 3.93387538 5.33875803 7.87266263 7 11.8125 C7.47695313 12.93205078 7.95390625 14.05160156 8.4453125 15.20507812 C8.89648438 16.27822266 9.34765625 17.35136719 9.8125 18.45703125 C10.44091797 19.9416687 10.44091797 19.9416687 11.08203125 21.45629883 C12 24 12 24 12 27 C15.26008643 23.83047153 18.22237877 20.60062011 21 17 C25.0257246 18.3419082 26.60323733 21.04150868 29.0625 24.3125 C30.05186269 25.60143067 31.04277659 26.88917198 32.03515625 28.17578125 C32.78176514 29.14572021 32.78176514 29.14572021 33.54345703 30.13525391 C35.63404629 32.81174079 37.8102309 35.40380976 40 38 C43.57028983 42.24712203 47.03120358 46.55935065 50.4375 50.9375 C54.4547405 56.09767371 58.60146908 61.1186413 62.85717773 66.08325195 C66.840562 70.75374679 70.63547795 75.56012586 74.38476562 80.41992188 C76.10951032 82.64631645 77.7970343 84.80140856 79.8125 86.7734375 C81 88 81 88 81 90 C72.78977322 88.13132853 64.62781097 86.24009636 56.5625 83.8125 C54.37603646 83.20459309 52.18861777 82.60010487 50 82 C49.08476562 81.70480469 48.16953125 81.40960938 47.2265625 81.10546875 C44.41748216 80.43561113 42.78364499 80.20059426 40 81 C36.84229527 84.01698705 34.59625363 87.50753791 32.24658203 91.15283203 C30.05189679 94.4048862 27.54389998 97.40227575 25.0625 100.4375 C20.38152739 106.24175755 15.80055153 112.11335431 11.26953125 118.03515625 C8.20277264 122.04147258 5.10392653 126.02245177 2 130 C-1.95074411 128.6830853 -3.46252304 126.14620254 -5.875 122.9375 C-6.85930368 121.6551946 -7.845039 120.37398716 -8.83203125 119.09375 C-9.34846191 118.42214844 -9.86489258 117.75054687 -10.39697266 117.05859375 C-13.06086568 113.63764554 -15.81419871 110.29071196 -18.5625 106.9375 C-23.44472414 100.96206806 -28.20518852 94.90920428 -32.87890625 88.76953125 C-33.57886719 87.85558594 -34.27882813 86.94164062 -35 86 C-35.67160156 85.05640625 -36.34320313 84.1128125 -37.03515625 83.140625 C-38.00775391 82.08101562 -38.00775391 82.08101562 -39 81 C-45.86908197 80.88920836 -52.12981925 83.12305538 -58.66796875 85.078125 C-62.48242969 86.1334741 -66.06397183 86.68511775 -70 87 C-68.29980348 83.07129732 -65.70958317 79.88396131 -63.0625 76.5625 C-62.57668457 75.94850342 -62.09086914 75.33450684 -61.59033203 74.7019043 C-57.36913231 69.39787508 -53.00547824 64.22215449 -48.60546875 59.06640625 C-45.52012551 55.44751587 -42.51455086 51.7656244 -39.51171875 48.078125 C-36.35389844 44.20819902 -33.17707836 40.3541192 -30 36.5 C-26.15927055 31.83933954 -22.32120402 27.17669746 -18.5 22.5 C-17.81808594 21.66855469 -17.13617188 20.83710938 -16.43359375 19.98046875 C-14.41701114 17.51072151 -12.41212608 15.03235184 -10.41015625 12.55078125 C-9.12775179 10.9712343 -7.84519943 9.39180742 -6.5625 7.8125 C-5.94632812 7.04421875 -5.33015625 6.2759375 -4.6953125 5.484375 C-4.11652344 4.77410156 -3.53773438 4.06382812 -2.94140625 3.33203125 C-2.42263916 2.68983643 -1.90387207 2.0476416 -1.36938477 1.38598633 C-0.91748779 0.92861084 -0.46559082 0.47123535 0 0 Z " fill="#FCC529" transform="translate(397,230)"/>
<path d="M0 0 C0.33 0 0.66 0 1 0 C1 42.9 1 85.8 1 130 C-4.62811791 124.37188209 -4.62811791 124.37188209 -6.9453125 121.50390625 C-7.45916504 120.8701709 -7.97301758 120.23643555 -8.50244141 119.58349609 C-9.03788574 118.91656738 -9.57333008 118.24963867 -10.125 117.5625 C-10.6926709 116.85947754 -11.2603418 116.15645508 -11.84521484 115.43212891 C-15.01221091 111.50102097 -18.15889225 107.55413342 -21.27929688 103.5859375 C-22.17327219 102.44933028 -23.07039224 101.31518915 -23.97070312 100.18359375 C-26.35058527 97.17669753 -28.62517365 94.13079271 -30.8125 90.98046875 C-35.04480299 84.45711671 -35.04480299 84.45711671 -41.19921875 80.20703125 C-43.72075787 80.40744933 -45.63866822 81.08333394 -48 82 C-50.35116443 82.67717869 -52.70559617 83.34307574 -55.0625 84 C-56.25230469 84.35578125 -57.44210937 84.7115625 -58.66796875 85.078125 C-62.48242969 86.1334741 -66.06397183 86.68511775 -70 87 C-68.29980348 83.07129732 -65.70958317 79.88396131 -63.0625 76.5625 C-62.57668457 75.94850342 -62.09086914 75.33450684 -61.59033203 74.7019043 C-57.36913231 69.39787508 -53.00547824 64.22215449 -48.60546875 59.06640625 C-45.52012551 55.44751587 -42.51455086 51.7656244 -39.51171875 48.078125 C-36.35389844 44.20819902 -33.17707836 40.3541192 -30 36.5 C-26.15927055 31.83933954 -22.32120402 27.17669746 -18.5 22.5 C-17.819375 21.66855469 -17.13875 20.83710938 -16.4375 19.98046875 C-15.04941565 18.28317971 -13.66213328 16.58523221 -12.27734375 14.88525391 C-10.35432014 12.52540384 -8.42735995 10.16880914 -6.5 7.8125 C-5.87544922 7.04421875 -5.25089844 6.2759375 -4.60742188 5.484375 C-4.02541016 4.77410156 -3.44339844 4.06382812 -2.84375 3.33203125 C-2.05774414 2.36873901 -2.05774414 2.36873901 -1.25585938 1.38598633 C-0.84142578 0.92861084 -0.42699219 0.47123535 0 0 Z " fill="#FDFDFD" transform="translate(397,230)"/>
<path d="M0 0 C1.46065636 0.80005627 2.88852037 1.66134031 4.2890625 2.5625 C5.5577417 3.37376343 5.5577417 3.37376343 6.85205078 4.20141602 C8.22466064 5.09171509 8.22466064 5.09171509 9.625 6 C10.58776855 6.61866943 11.55053711 7.23733887 12.54248047 7.87475586 C23.37749163 14.85275273 34.15267092 21.92341736 44.93017578 28.98974609 C56.10934476 36.31035031 67.32473748 43.57610714 78.55102539 50.82421875 C82.43863688 53.33572103 86.31711381 55.86045598 90.1875 58.3984375 C91.07115234 58.97658203 91.95480469 59.55472656 92.86523438 60.15039062 C94.56612603 61.26372445 96.2654621 62.37944013 97.96289062 63.49804688 C105.7055934 68.56033901 112.97866231 73.19934138 122.0625 75.3125 C122.73732422 75.48072266 123.41214844 75.64894531 124.10742188 75.82226562 C125.73545896 76.22638831 127.36734446 76.61496002 129 77 C128.55605403 86.32286541 125.79251993 92.67923499 118.9375 99.125 C115.71111111 102 115.71111111 102 112.98828125 102 C110.13627881 100.56559406 109.05672888 98.50105941 107.25 95.875 C100.26483956 86.73991925 89.87704764 81.65127671 80.15283203 75.88916016 C75.26775881 72.96205031 70.47937078 69.88896802 65.6875 66.8125 C63.86627138 65.65043655 62.04466217 64.48896933 60.22265625 63.328125 C58.9080542 62.48991211 58.9080542 62.48991211 57.56689453 61.63476562 C45.39481669 53.88279366 33.16543137 46.22293726 20.92480469 38.57983398 C13.03978142 33.65454216 5.16385287 28.7154536 -2.68359375 23.73046875 C-5.53716296 21.91840426 -8.40432398 20.13165372 -11.28515625 18.36328125 C-12.5859375 17.5546875 -13.88671875 16.74609375 -15.1875 15.9375 C-15.78256348 15.57930176 -16.37762695 15.22110352 -16.99072266 14.85205078 C-18.60546875 13.83984375 -18.60546875 13.83984375 -21 12 C-21 11.01 -21 10.02 -21 9 C-18.50997367 6.88031027 -15.57927075 5.37855584 -12.75 3.75 C-11.97269531 3.27820313 -11.19539063 2.80640625 -10.39453125 2.3203125 C-9.64042969 1.87945312 -8.88632812 1.43859375 -8.109375 0.984375 C-7.41811523 0.57928711 -6.72685547 0.17419922 -6.01464844 -0.24316406 C-3.49291312 -1.19049556 -2.49054329 -0.97106398 0 0 Z " fill="#FBC427" transform="translate(431,412)"/>
<path d="M0 0 C18.48 0 36.96 0 56 0 C54.35776847 13.13785227 50.72950275 27.34495295 40.24609375 36.37109375 C39.50488281 36.90863281 38.76367188 37.44617188 38 38 C37.34515625 37.49210938 36.6903125 36.98421875 36.015625 36.4609375 C24.38663689 27.68992105 14.21222716 23.36870453 0 21 C0 14.07 0 7.14 0 0 Z " fill="#F9C228" transform="translate(404,525)"/>
<path d="M0 0 C18.15 0 36.3 0 55 0 C55 6.93 55 13.86 55 21 C52.81375 21.350625 50.6275 21.70125 48.375 22.0625 C36.65865453 24.24633495 26.40290333 29.41442486 18 38 C10.71471893 35.03487466 7.12801924 26.73041171 4.1875 19.875 C1.52257157 13.03735468 0 7.43784958 0 0 Z " fill="#FAC328" transform="translate(337,525)"/>
<path d="M0 0 C4.58162739 1.52432216 8.13217238 4.11550811 11.9375 7 C13.26082363 7.99208053 14.58506614 8.98293639 15.91015625 9.97265625 C16.58320801 10.47555176 17.25625977 10.97844727 17.94970703 11.49658203 C19.9620057 12.97213993 22.00051789 14.39775553 24.05859375 15.80859375 C24.69998291 16.25138672 25.34137207 16.69417969 26.00219727 17.15039062 C27.22727553 17.99234247 28.45806758 18.8260553 29.69506836 19.65039062 C32.00268429 21.24877433 33.74900706 22.4685453 34.96484375 25.04296875 C35.12640035 34.036286 26.09153809 43.16917695 21 50 C11.65067108 44.33686024 2.89124628 37.92523213 -5.93701172 31.49462891 C-9.92008982 28.6089006 -13.95347979 25.79596246 -18 23 C-16.51231156 18.56999441 -14.09319931 15.14708006 -11.25 11.5 C-10.83234375 10.94441406 -10.4146875 10.38882813 -9.984375 9.81640625 C-7.01524465 5.96920991 -3.82526405 2.99757534 0 0 Z " fill="#F9F9F9" transform="translate(182,228)"/>
<path d="M0 0 C10.71476351 9.7406941 16.21749651 21.73997207 18 36 C-0.48 36 -18.96 36 -38 36 C-38 29.73 -38 23.46 -38 17 C-35.669375 16.67 -33.33875 16.34 -30.9375 16 C-19.11358806 13.99145086 -8.5959942 8.3863358 0 0 Z " fill="#FAFAFA" transform="translate(442,477)"/>
<path d="M0 0 C4.12181546 0.6046673 7.08955491 2.94993445 10.4375 5.25 C19.95972636 11.56224791 28.53581436 14.7262016 40 16 C40 22.27 40 28.54 40 35 C21.85 35 3.7 35 -15 35 C-15 21.90476814 -8.51068649 9.82002287 0 0 Z " fill="#FBFBFB" transform="translate(352,478)"/>
<path d="M0 0 C1.578125 1.79296875 1.578125 1.79296875 3.25 4.1875 C3.81203125 4.96480469 4.3740625 5.74210938 4.953125 6.54296875 C6 9 6 9 5.3984375 11.4375 C3.83023661 14.31107482 2.16047165 17.06816394 0.375 19.8125 C-0.25664062 20.78832031 -0.88828125 21.76414062 -1.5390625 22.76953125 C-2.02117187 23.50558594 -2.50328125 24.24164062 -3 25 C-1.989375 24.4225 -0.97875 23.845 0.0625 23.25 C5.53125 20.125 5.53125 20.125 11 17 C12.03319813 18.2608012 13.05124379 19.53403258 14.0625 20.8125 C14.63097656 21.52019531 15.19945312 22.22789062 15.78515625 22.95703125 C16.18605469 23.63121094 16.58695313 24.30539062 17 25 C15.88266057 28.35201828 15.33954861 28.7409441 12.53759766 30.65136719 C11.80658844 31.15488708 11.07557922 31.65840698 10.32241821 32.17718506 C9.52766083 32.71168274 8.73290344 33.24618042 7.9140625 33.796875 C7.10133881 34.34990295 6.28861511 34.90293091 5.45126343 35.47271729 C3.73064333 36.63996186 2.00722192 37.80308601 0.28125 38.96240234 C-2.3661624 40.74405249 -4.99975839 42.54487546 -7.6328125 44.34765625 C-9.30388548 45.47774936 -10.97573508 46.60669511 -12.6484375 47.734375 C-13.43914642 48.2769696 -14.22985535 48.81956421 -15.04452515 49.37860107 C-15.78183868 49.86951233 -16.51915222 50.36042358 -17.27880859 50.86621094 C-17.92643158 51.30350525 -18.57405457 51.74079956 -19.24130249 52.19134521 C-21 53 -21 53 -24 52 C-25.38671875 50.37109375 -25.38671875 50.37109375 -26.6875 48.4375 C-27.34298828 47.47650391 -27.34298828 47.47650391 -28.01171875 46.49609375 C-28.33785156 46.00238281 -28.66398438 45.50867188 -29 45 C-27.37815499 41.41486894 -25.20743761 38.41007677 -22.875 35.25 C-22.15054688 34.26515625 -21.42609375 33.2803125 -20.6796875 32.265625 C-20.12539062 31.51796875 -19.57109375 30.7703125 -19 30 C-22.19624262 31.53837846 -25.21605574 33.28866532 -28.25 35.125 C-29.14203125 35.66382813 -30.0340625 36.20265625 -30.953125 36.7578125 C-31.62859375 37.16773438 -32.3040625 37.57765625 -33 38 C-34.98 35.36 -36.96 32.72 -39 30 C-36.75600555 25.51201111 -34.32171666 23.91315617 -30.2421875 21.33984375 C-29.57913605 20.90869766 -28.91608459 20.47755157 -28.23294067 20.03334045 C-25.40040279 18.19152983 -22.55399708 16.37168184 -19.70751953 14.55151367 C-17.63011452 13.21861082 -15.56102313 11.87349399 -13.4921875 10.52734375 C-12.84224823 10.11790024 -12.19230896 9.70845673 -11.52267456 9.28660583 C-9.96145284 8.26900279 -8.47212201 7.14270995 -7 6 C-7 5.01 -7 4.02 -7 3 C-2.77777778 0 -2.77777778 0 0 0 Z " fill="#F8F8F9" transform="translate(197,515)"/>
<path d="M0 0 C4.53015161 15.44844327 7.7600246 31.06521567 10 47 C4.06 47.495 4.06 47.495 -2 48 C-3.33878572 45.8782637 -4.67115476 43.75294812 -6 41.625 C-6.3815625 41.02171875 -6.763125 40.4184375 -7.15625 39.796875 C-10 35.2265625 -10 35.2265625 -10 33 C-10.66 33 -11.32 33 -12 33 C-11.52433594 34.04220703 -11.52433594 34.04220703 -11.0390625 35.10546875 C-9.90598948 38.26188644 -9.59519989 40.97280167 -9.375 44.3125 C-9.30023438 45.38113281 -9.22546875 46.44976562 -9.1484375 47.55078125 C-9.09945313 48.35902344 -9.05046875 49.16726562 -9 50 C-12.8610854 51.43668294 -15.896427 52.11185208 -20 52 C-20.79235325 48.20847648 -21.58375456 44.41675484 -22.375 40.625 C-22.59671875 39.56410156 -22.8184375 38.50320312 -23.046875 37.41015625 C-23.48861547 35.29240045 -23.92840311 33.17423636 -24.36621094 31.05566406 C-24.77443466 29.08750994 -25.18868204 27.12059074 -25.61035156 25.15527344 C-25.79307617 24.28676758 -25.97580078 23.41826172 -26.1640625 22.5234375 C-26.32600098 21.76724121 -26.48793945 21.01104492 -26.65478516 20.23193359 C-27.03231026 17.79110295 -27.05810764 15.46604484 -27 13 C-28.32 12.67 -29.64 12.34 -31 12 C-31 10.02 -31 8.04 -31 6 C-22.75411636 3.41305611 -22.75411636 3.41305611 -19 4 C-16.83203125 6.30078125 -16.83203125 6.30078125 -14.8125 9.3125 C-14.13832031 10.29863281 -13.46414063 11.28476563 -12.76953125 12.30078125 C-12.18558594 13.19152344 -11.60164063 14.08226562 -11 15 C-10.01 16.485 -10.01 16.485 -9 18 C-9.144375 17.236875 -9.28875 16.47375 -9.4375 15.6875 C-10.18167736 10.80900396 -10.58885749 5.91621465 -11 1 C-7.27569643 0.30710631 -3.78916254 -0.11144596 0 0 Z " fill="#F9F9FA" transform="translate(355,126)"/>
<path d="M0 0 C4.44311505 1.52571004 6.51225495 5.04889475 9.0625 8.75 C9.49626953 9.3584375 9.93003906 9.966875 10.37695312 10.59375 C12.9308226 14.23213939 15.40945697 17.82846589 17 22 C16.15729725 26.40929318 11.56774159 29.03174799 8.1875 31.625 C7.57068359 32.11484375 6.95386719 32.6046875 6.31835938 33.109375 C3.05525154 35.64773306 0.05557908 37.91001889 -4 39 C-5.485 38.505 -5.485 38.505 -7 38 C-7.61488281 39.010625 -8.22976563 40.02125 -8.86328125 41.0625 C-9.67912397 42.37535036 -10.4955611 43.68783147 -11.3125 45 C-11.71662109 45.66773438 -12.12074219 46.33546875 -12.53710938 47.0234375 C-13.6113438 48.73522569 -14.79941276 50.37433438 -16 52 C-19 52 -19 52 -20.38671875 50.6875 C-21.59114583 49.125 -22.79557292 47.5625 -24 46 C-22.33243304 41.21627256 -19.7343936 38.07578686 -16.4609375 34.28125 C-14.75502587 31.61747354 -14.70496817 30.1032978 -15 27 C-15.81984375 27.63808594 -16.6396875 28.27617187 -17.484375 28.93359375 C-18.57265651 29.76856836 -19.66121268 30.60318507 -20.75 31.4375 C-21.55824219 32.06881836 -21.55824219 32.06881836 -22.3828125 32.71289062 C-25.36902724 34.98896893 -27.28435704 36.07108926 -31 37 C-33.475 33.535 -33.475 33.535 -36 30 C-34.45380624 25.71055925 -31.19973749 23.5201406 -27.6875 20.875 C-27.06738037 20.39853027 -26.44726074 19.92206055 -25.80834961 19.43115234 C-24.51691682 18.43985856 -23.22301623 17.45177207 -21.92675781 16.46679688 C-20.08651786 15.06586408 -18.25634192 13.65295787 -16.4296875 12.234375 C-11.03003279 8.04562684 -5.60593994 3.91112089 0 0 Z " fill="#F8F8F9" transform="translate(613,224)"/>
<path d="M0 0 C3.43921093 0.33958595 5.58014276 1.97111183 8.25 4.0625 C8.95640625 4.61035156 9.6628125 5.15820312 10.390625 5.72265625 C10.92171875 6.14417969 11.4528125 6.56570313 12 7 C10.69582416 9.80250084 9.25272543 12.09522162 7.27734375 14.46875 C6.74262451 15.11682617 6.20790527 15.76490234 5.65698242 16.43261719 C5.08955322 17.11485352 4.52212402 17.79708984 3.9375 18.5 C-2.26513402 26.06300661 -2.26513402 26.06300661 -8.3125 33.75 C-9.03050781 34.67296875 -9.74851563 35.5959375 -10.48828125 36.546875 C-12.34975118 39.08730276 -12.34975118 39.08730276 -12 43 C-10.35 43.33 -8.7 43.66 -7 44 C-6.76152344 43.46117187 -6.52304688 42.92234375 -6.27734375 42.3671875 C-3.63626787 37.4727166 0.1185734 33.24344587 3.54296875 28.87451172 C5.04603461 26.94077517 6.52459914 24.99006239 8 23.03515625 C8.97898197 21.75246318 9.95814404 20.46990755 10.9375 19.1875 C11.39761475 18.57084473 11.85772949 17.95418945 12.33178711 17.31884766 C13.48482219 15.82282248 14.73564323 14.4032046 16 13 C19.39593478 13 20.06619881 13.52165948 22.6875 15.5 C23.31011719 15.9640625 23.93273437 16.428125 24.57421875 16.90625 C25.04472656 17.2671875 25.51523437 17.628125 26 18 C24.73002405 20.67744427 23.34897614 23.03324173 21.56640625 25.3984375 C21.0873584 26.0363623 20.60831055 26.67428711 20.11474609 27.33154297 C19.60250488 28.00588379 19.09026367 28.68022461 18.5625 29.375 C17.77093506 30.42324951 17.77093506 30.42324951 16.96337891 31.49267578 C13.30751383 36.31815631 9.60903079 41.10978531 5.875 45.875 C5.18386108 46.75744385 5.18386108 46.75744385 4.47875977 47.65771484 C2.72968946 49.87519808 0.99900317 52.00099683 -1 54 C-8.10792436 54.78755403 -12.61402757 51.24513966 -18 47 C-20.78139791 44.26976493 -23.4513932 41.60704301 -25 38 C-24.00190329 33.16369401 -20.45682634 29.58305193 -17.375 25.875 C-16.2913362 24.54299318 -15.20931363 23.20964951 -14.12890625 21.875 C-13.59797363 21.22015625 -13.06704102 20.5653125 -12.52001953 19.890625 C-10.39985594 17.25353106 -8.34053687 14.5839567 -6.3125 11.875 C-5.68988281 11.04742188 -5.06726563 10.21984375 -4.42578125 9.3671875 C-2.91369092 6.85670328 -2.51440769 4.8556838 -2 2 C-1.34 1.34 -0.68 0.68 0 0 Z " fill="#F8F8F9" transform="translate(247,578)"/>
<path d="M0 0 C0 4.29 0 8.58 0 13 C-3.63 13 -7.26 13 -11 13 C-11.33 11.02 -11.66 9.04 -12 7 C-13.65 7 -15.3 7 -17 7 C-17.13379211 18.04528196 -16.76370639 28.98080785 -16 40 C-14.05396726 40.59070014 -14.05396726 40.59070014 -12 41 C-10.05909174 39.05909174 -10.60080565 35.52706098 -10.4375 32.9375 C-10.35371094 31.64714844 -10.26992188 30.35679687 -10.18359375 29.02734375 C-10.09271484 27.52880859 -10.09271484 27.52880859 -10 26 C-11.32 26 -12.64 26 -14 26 C-14.125 20.25 -14.125 20.25 -13 18 C-8.38 18 -3.76 18 1 18 C1.33 26.58 1.66 35.16 2 44 C-9.34646962 48.53858785 -9.34646962 48.53858785 -15.25 48.4375 C-16.95929688 48.43556641 -16.95929688 48.43556641 -18.703125 48.43359375 C-22.52369737 47.93112511 -24.78743673 47.14088553 -28 45 C-28.86474609 41.89648438 -28.86474609 41.89648438 -29.0234375 38.09375 C-29.0593399 37.41380981 -29.09524231 36.73386963 -29.13223267 36.0333252 C-29.24039874 33.85580975 -29.30795729 31.67912909 -29.375 29.5 C-29.44140606 28.06498128 -29.51039104 26.63007944 -29.58203125 25.1953125 C-29.94629156 17.46526915 -30.0931127 9.73869958 -30 2 C-19.26152329 -2.18618584 -11.31775733 -2.48060435 0 0 Z " fill="#F7F8F9" transform="translate(426,633)"/>
<path d="M0 0 C11.47751129 -0.42335083 18.34872826 1.71085162 28 8 C27.40075776 12.19469571 26.42500059 16.00999834 25 20 C17.375 19.125 17.375 19.125 14 18 C14 15.03 14 12.06 14 9 C12.68 9 11.36 9 10 9 C3.7319978 25.19550868 3.7319978 25.19550868 1 42 C3.475 41.505 3.475 41.505 6 41 C6.50336767 39.37604003 7.00258976 37.75079459 7.5 36.125 C7.7784375 35.22007812 8.056875 34.31515625 8.34375 33.3828125 C9.08850794 31.09055353 9.08850794 31.09055353 9 29 C8.34 28.67 7.68 28.34 7 28 C7.6875 25.5625 7.6875 25.5625 9 23 C12.56681325 21.270636 15.22413684 22.25830519 18.8125 23.4375 C20.21257351 23.94682527 21.60993485 24.46396181 23 25 C22.28803749 30.08082339 20.97065485 34.85061843 19.5 39.75 C19.27441406 40.51699219 19.04882812 41.28398438 18.81640625 42.07421875 C17.13886634 47.72226732 17.13886634 47.72226732 16 50 C6.48734 50.5707596 -0.92780281 50.73126 -9 45 C-9.60328125 44.61457031 -10.2065625 44.22914063 -10.828125 43.83203125 C-12.44064119 41.31113095 -12.05324125 39.35761681 -11.56933594 36.48828125 C-10.3689456 31.24197837 -8.74724636 26.12839172 -7.125 21 C-6.77308594 19.86304688 -6.42117188 18.72609375 -6.05859375 17.5546875 C-4.20921904 11.62843843 -2.25426153 5.78452015 0 0 Z " fill="#F8F8F9" transform="translate(317,621)"/>
<path d="M0 0 C3.52399621 1.63307141 6.50912482 3.80287558 9.5625 6.1875 C8.3133258 9.64675163 6.88722205 12.33443203 4.5625 15.1875 C1.9225 14.8575 -0.7175 14.5275 -3.4375 14.1875 C-3.7675 15.5075 -4.0975 16.8275 -4.4375 18.1875 C-1.4675 19.8375 1.5025 21.4875 4.5625 23.1875 C5.04460938 22.48882813 5.52671875 21.79015625 6.0234375 21.0703125 C6.65507813 20.16023437 7.28671875 19.25015625 7.9375 18.3125 C8.87722656 16.95511719 8.87722656 16.95511719 9.8359375 15.5703125 C11.5625 13.1875 11.5625 13.1875 13.5625 11.1875 C19.63064086 11.35416554 23.60145331 13.55321182 28.5 16.8125 C29.18384766 17.22628906 29.86769531 17.64007812 30.57226562 18.06640625 C32.48683142 19.32493201 34.04894507 20.4663637 35.5625 22.1875 C36.63590886 28.8722462 34.11380296 33.68980984 30.5625 39.1875 C28.17664136 42.2083049 25.83512078 45.12351758 22.5625 47.1875 C17.83046791 46.87840926 14.52682584 44.59718826 10.5625 42.1875 C11.89738128 38.59358886 13.52272723 35.43259304 15.5625 32.1875 C16.119375 32.331875 16.67625 32.47625 17.25 32.625 C19.67634195 33.21519128 22.11156345 33.710929 24.5625 34.1875 C24.8925 32.8675 25.2225 31.5475 25.5625 30.1875 C24.13089732 29.17907547 22.69198547 28.18102109 21.25 27.1875 C20.44949219 26.630625 19.64898438 26.07375 18.82421875 25.5 C16.56586982 23.93654036 16.56586982 23.93654036 13.5625 24.1875 C11.93601526 26.11667717 11.93601526 26.11667717 10.5 28.5625 C8.94823499 31.05006224 7.63977234 33.11022766 5.5625 35.1875 C-0.11692933 36.04398788 -3.28160705 33.84639428 -7.75 30.75 C-8.38228516 30.32912109 -9.01457031 29.90824219 -9.66601562 29.47460938 C-14.16251522 26.46248478 -14.16251522 26.46248478 -15.4375 25.1875 C-15.29066273 15.93675208 -11.47479987 9.32671902 -5.375 2.5 C-2.4375 0.1875 -2.4375 0.1875 0 0 Z " fill="#F7F7F8" transform="translate(603.4375,513.8125)"/>
<path d="M0 0 C3.3 0.33 6.6 0.66 10 1 C10.14141393 11.05610192 9.72904559 20.97562315 9 31 C9.66 31 10.32 31 11 31 C11.10183594 29.88625 11.20367187 28.7725 11.30859375 27.625 C11.94381514 22.54322888 13.45774676 17.84776965 15.0625 13 C15.34416016 12.12988281 15.62582031 11.25976562 15.91601562 10.36328125 C16.60432426 8.24002411 17.29906661 6.11911583 18 4 C22.02659396 3.07395198 24.93720525 3.14964761 29 4 C28.76488825 5.62722078 28.51080728 7.25169949 28.25 8.875 C28.11078125 9.77992188 27.9715625 10.68484375 27.828125 11.6171875 C26.92202779 15.31850911 25.59637659 18.64729669 24.14550781 22.16357422 C22.0208863 27.42441239 20.15719571 32.78236707 18.25 38.125 C17.83878906 39.27226562 17.42757813 40.41953125 17.00390625 41.6015625 C16.00096777 44.40046058 14.99970001 47.19994395 14 50 C8.5814234 50.22577402 4.22512279 49.46670113 -1 48 C-1.20638953 14.49821699 -1.20638953 14.49821699 0 0 Z " fill="#F7F7F8" transform="translate(431,124)"/>
<path d="M0 0 C4.85645289 1.71858572 9.14218146 4.27213432 13.5625 6.875 C14.31724609 7.30941406 15.07199219 7.74382812 15.84960938 8.19140625 C19.70841994 10.45569509 23.01655969 12.59713705 26 16 C25.01 17.65 24.02 19.3 23 21 C17.68972746 19.53967505 13.53669968 17.01679014 9 14 C8.71125 14.721875 8.4225 15.44375 8.125 16.1875 C7.08333333 18.79166667 6.04166667 21.39583333 5 24 C7.64 25.65 10.28 27.3 13 29 C11 33 11 33 9 35 C5.33773088 34.60761402 2.22219876 32.68433117 -1 31 C-1.2475 31.680625 -1.495 32.36125 -1.75 33.0625 C-3.24197908 36.56865083 -5.06835511 39.71620368 -7 43 C-6.319375 43.2475 -5.63875 43.495 -4.9375 43.75 C-1.43134917 45.24197908 1.71620368 47.06835511 5 49 C3.125 53.75 3.125 53.75 2 56 C-1.36415551 54.73294681 -4.37031789 53.28886807 -7.42578125 51.3984375 C-8.22177734 50.90859375 -9.01777344 50.41875 -9.83789062 49.9140625 C-10.65451172 49.40617187 -11.47113281 48.89828125 -12.3125 48.375 C-13.14845703 47.859375 -13.98441406 47.34375 -14.84570312 46.8125 C-16.89931199 45.54512996 -18.95063341 44.27421427 -21 43 C-20.21750702 38.39796316 -18.4556397 35.04210992 -16 31.125 C-15.60570801 30.47950195 -15.21141602 29.83400391 -14.80517578 29.16894531 C-13.11206828 26.39864921 -11.40049167 23.64025387 -9.67871094 20.88769531 C-8.81575089 19.50683072 -7.95658969 18.12358356 -7.1015625 16.73779297 C-6.29560838 15.43164678 -5.4807326 14.13095595 -4.65625 12.83642578 C-3.69209543 11.27010198 -2.83596788 9.63832902 -2 8 C-2.33 7.01 -2.66 6.02 -3 5 C-1.5625 2.3125 -1.5625 2.3125 0 0 Z " fill="#F7F7F8" transform="translate(531,156)"/>
<path d="M0 0 C1.81567383 0.98901367 1.81567383 0.98901367 3.81567383 5.98901367 C0.51567383 8.29901367 -2.78432617 10.60901367 -6.18432617 12.98901367 C-5.26974399 16.64734239 -4.17956451 18.86603193 -2.18432617 21.98901367 C1.31370494 21.34123013 3.79512959 19.81723782 6.81567383 17.98901367 C7.47567383 17.98901367 8.13567383 17.98901367 8.81567383 17.98901367 C9.31067383 21.45401367 9.31067383 21.45401367 9.81567383 24.98901367 C7.83567383 26.30901367 5.85567383 27.62901367 3.81567383 28.98901367 C5.26611654 33.09860134 7.32678135 36.42160112 9.81567383 39.98901367 C10.5865332 39.48370117 11.35739258 38.97838867 12.15161133 38.45776367 C13.15450195 37.80807617 14.15739258 37.15838867 15.19067383 36.48901367 C16.68727539 35.51448242 16.68727539 35.51448242 18.21411133 34.52026367 C20.81567383 32.98901367 20.81567383 32.98901367 22.81567383 32.98901367 C24.50317383 35.30151367 24.50317383 35.30151367 25.81567383 37.98901367 C24.69126872 41.36222899 24.25967429 41.62171373 21.35864258 43.36401367 C20.65803711 43.79198242 19.95743164 44.21995117 19.2355957 44.66088867 C18.49889648 45.09916992 17.76219727 45.53745117 17.00317383 45.98901367 C15.55819925 46.86242053 14.11416011 47.73737722 12.67114258 48.61401367 C11.99486816 49.02264648 11.31859375 49.4312793 10.62182617 49.85229492 C8.67619896 51.03995509 8.67619896 51.03995509 6.42895508 52.80151367 C4.81567383 53.98901367 4.81567383 53.98901367 2.81567383 53.98901367 C1.24971641 51.68451274 -0.19732289 49.37941712 -1.62182617 46.98901367 C-5.32699858 40.9360432 -9.10050059 34.94234297 -13.05932617 29.05151367 C-13.51106201 28.35993164 -13.96279785 27.66834961 -14.42822266 26.95581055 C-16.63885523 23.35014909 -16.63885523 23.35014909 -20.2121582 21.48681641 C-22.18432617 20.98901367 -22.18432617 20.98901367 -24.18432617 17.98901367 C-24.09375 16.01953125 -24.09375 16.01953125 -23.18432617 13.98901367 C-20.02243848 11.18308717 -16.40457845 8.99043139 -12.87182617 6.67651367 C-11.90825195 6.01844727 -10.94467773 5.36038086 -9.9519043 4.68237305 C-9.0218457 4.06555664 -8.09178711 3.44874023 -7.13354492 2.81323242 C-6.28107178 2.24693115 -5.42859863 1.68062988 -4.55029297 1.09716797 C-2.18432617 -0.01098633 -2.18432617 -0.01098633 0 0 Z " fill="#F7F7F8" transform="translate(257.184326171875,161.010986328125)"/>
<path d="M0 0 C1.29694676 2.1361476 2.03499077 3.47308021 1.8671875 6 C1 8 1 8 -1.21484375 9.265625 C-2.11332031 9.59046875 -3.01179688 9.9153125 -3.9375 10.25 C-4.83339844 10.58515625 -5.72929687 10.9203125 -6.65234375 11.265625 C-9 12 -9 12 -11 12 C-10.71125 12.54269531 -10.4225 13.08539062 -10.125 13.64453125 C-9.568125 14.71767578 -9.568125 14.71767578 -9 15.8125 C-8.443125 16.87404297 -8.443125 16.87404297 -7.875 17.95703125 C-7 20 -7 20 -7 23 C-6.45730469 22.7834375 -5.91460937 22.566875 -5.35546875 22.34375 C-4.28232422 21.92609375 -4.28232422 21.92609375 -3.1875 21.5 C-2.47980469 21.2215625 -1.77210938 20.943125 -1.04296875 20.65625 C1 20 1 20 4 20 C4.495 23.465 4.495 23.465 5 27 C2.69 27.99 0.38 28.98 -2 30 C-1.53657462 32.70331473 -0.969437 35.07550858 0.0625 37.625 C1 40 1 40 1 43 C1.74765625 42.6390625 2.4953125 42.278125 3.265625 41.90625 C4.25046875 41.4421875 5.2353125 40.978125 6.25 40.5 C7.22453125 40.0359375 8.1990625 39.571875 9.203125 39.09375 C12 38 12 38 16 38 C16.66 40.31 17.32 42.62 18 45 C14.77371408 46.3196608 11.54350696 47.62944528 8.3125 48.9375 C6.94448242 49.49727539 6.94448242 49.49727539 5.54882812 50.06835938 C4.66259766 50.42607422 3.77636719 50.78378906 2.86328125 51.15234375 C2.05157471 51.48226318 1.23986816 51.81218262 0.40356445 52.15209961 C-2.05023824 53.01772244 -4.43990426 53.55173421 -7 54 C-10.81546985 46.64636227 -14.14697582 39.15353402 -17.3125 31.5 C-17.76689453 30.4171875 -18.22128906 29.334375 -18.68945312 28.21875 C-19.33237305 26.671875 -19.33237305 26.671875 -19.98828125 25.09375 C-20.37540283 24.16240234 -20.76252441 23.23105469 -21.16137695 22.27148438 C-22 20 -22 20 -22 18 C-22.61875 17.95875 -23.2375 17.9175 -23.875 17.875 C-24.926875 17.441875 -24.926875 17.441875 -26 17 C-26.73302614 15.02335711 -27.40456033 13.02234914 -28 11 C-24.3357646 9.42885366 -20.66956379 7.86239884 -17.00146484 6.30029297 C-15.75351727 5.76805615 -14.5061174 5.23453322 -13.25927734 4.69970703 C-11.46856372 3.93185131 -9.67571657 3.16897715 -7.8828125 2.40625 C-6.80402832 1.94541016 -5.72524414 1.48457031 -4.61376953 1.00976562 C-2 0 -2 0 0 0 Z " fill="#F7F7F8" transform="translate(502,609)"/>
<path d="M0 0 C3.97417654 1.6647277 6.97695718 4.39053932 10.1875 7.1875 C11.34534424 8.17956533 12.50420266 9.17044819 13.6640625 10.16015625 C14.2302832 10.64371582 14.79650391 11.12727539 15.37988281 11.62548828 C17.58095159 13.49288087 19.80743684 15.32319705 22.0625 17.125 C22.73410156 17.66382813 23.40570313 18.20265625 24.09765625 18.7578125 C26.25252279 20.16489168 27.41883772 20.83780847 30 21 C33.32811442 19.80910078 33.32811442 19.80910078 36.75 18.0625 C37.92046875 17.49660156 39.0909375 16.93070312 40.296875 16.34765625 C41.18890625 15.90292969 42.0809375 15.45820313 43 15 C41.83562765 18.05254372 40.58865942 20.8450636 38.875 23.625 C36.75717853 26.79360175 36.75717853 26.79360175 37 30 C37.99 30.66 38.98 31.32 40 32 C40 32.66 40 33.32 40 34 C40.87978516 34.38671875 40.87978516 34.38671875 41.77734375 34.78125 C44.17337123 36.09506472 45.68911552 37.5218401 47.5625 39.5 C49.67524223 41.72096733 51.41613626 43.27742417 54 45 C53.505 45.99 53.505 45.99 53 47 C52.37955811 46.75765625 51.75911621 46.5153125 51.11987305 46.265625 C48.31107961 45.17187037 45.49935556 44.08585681 42.6875 43 C41.22280273 42.42765625 41.22280273 42.42765625 39.72851562 41.84375 C38.79072266 41.4828125 37.85292969 41.121875 36.88671875 40.75 C36.02264404 40.41484375 35.15856934 40.0796875 34.26831055 39.734375 C31.92168026 38.84599308 31.92168026 38.84599308 29 39 C27.02 42.63 25.04 46.26 23 50 C22.34 50 21.68 50 21 50 C21 45.38 21 40.76 21 36 C15.39 35.67 9.78 35.34 4 35 C6.38681675 32.61318325 8.2585508 31.05776184 11.0625 29.3125 C12.10083984 28.65701172 12.10083984 28.65701172 13.16015625 27.98828125 C15 27 15 27 17 27 C14.90097056 23.63660056 12.80134499 20.27357411 10.70117188 16.91088867 C9.63640421 15.20576278 8.5721058 13.50034389 7.5078125 11.79492188 C6.50234375 10.18520508 6.50234375 10.18520508 5.4765625 8.54296875 C4.85861816 7.55321045 4.24067383 6.56345215 3.60400391 5.54370117 C2.42837732 3.67933992 1.2226001 1.83390015 0 0 Z " fill="#F5C029" transform="translate(117,358)"/>
<path d="M0 0 C1.70884005 1.62339805 3.37446717 3.29319053 5 5 C5 5.66 5 6.32 5 7 C3.37373596 8.38232443 1.7074998 9.71937515 0 11 C1.40839495 15.29445018 3.45854776 17.87046479 6.5625 21.125 C10.95542278 25.82351741 15.06689331 30.66428783 19.08984375 35.6875 C20.65039602 37.57675756 22.22857528 39.31187111 24 41 C22.4169423 45.2742558 19.49431596 47.26531794 16 50 C10.95519111 46.24873185 7.2961943 41.82745778 3.3828125 36.92578125 C0.3384371 33.18768752 -2.88825341 29.63992222 -6.15234375 26.09375 C-8 24 -8 24 -10 21 C-12.46800047 22.15173355 -14.04783565 23.04783565 -16 25 C-18 24.9375 -18 24.9375 -20 24 C-20.72251755 22.35677433 -21.39437405 20.68980455 -22 19 C-14.86529976 12.38970713 -7.59431658 6.08132895 0 0 Z " fill="#F7F7F8" transform="translate(560,567)"/>
<path d="M0 0 C0.66 0.33 1.32 0.66 2 1 C1.5153125 1.64324219 1.030625 2.28648437 0.53125 2.94921875 C-8.86975324 14.202317 -8.86975324 14.202317 -14 27 C-12.04476509 28.2598463 -10.03426607 29.43470666 -8 30.5625 C-5.98607506 31.68367812 -3.98194822 32.82321825 -2 34 C-2 34.33 -2 34.66 -2 35 C-10.415 35.495 -10.415 35.495 -19 36 C-18.979375 37.381875 -18.95875 38.76375 -18.9375 40.1875 C-18.93212857 43.59298534 -19.14429455 46.68414137 -20 50 C-27 41.55172414 -27 41.55172414 -27 38 C-28.14597656 38.40992188 -29.29195312 38.81984375 -30.47265625 39.2421875 C-32.0025638 39.78657178 -33.532514 40.33083624 -35.0625 40.875 C-35.81466797 41.14441406 -36.56683594 41.41382813 -37.34179688 41.69140625 C-41.85898121 43.29490891 -46.37632728 44.73509086 -51 46 C-46.17917294 40.03739811 -40.77505724 35.03320206 -35 30 C-35.68886787 26.61108678 -36.98716486 23.81988387 -38.5625 20.75 C-39.01753906 19.85796875 -39.47257813 18.9659375 -39.94140625 18.046875 C-40.29074219 17.37140625 -40.64007812 16.6959375 -41 16 C-37.76475205 17.00138627 -34.9122343 18.04836069 -31.9375 19.6875 C-28.52455359 21.2124335 -27.50384645 21.04728375 -24 20 C-21.93186317 18.72477568 -21.93186317 18.72477568 -20.0390625 17.05078125 C-19.31976562 16.44943359 -18.60046875 15.84808594 -17.859375 15.22851562 C-17.12203125 14.59623047 -16.3846875 13.96394531 -15.625 13.3125 C-14.89539063 12.69955078 -14.16578125 12.08660156 -13.4140625 11.45507812 C-11.26685415 9.64720538 -9.13149699 7.82635742 -7 6 C-6.30745117 5.40751465 -5.61490234 4.8150293 -4.90136719 4.20458984 C-3.26634725 2.80449602 -1.63298274 1.40246935 0 0 Z " fill="#F7C228" transform="translate(678,358)"/>
<path d="M0 0 C10.41308785 1.30163598 20.41440717 4.41440717 28 12 C26.95947922 15.12156235 26.06822408 15.96071947 23.1640625 17.6328125 C15.40726384 20.90333909 8.43735783 22.97105392 0 24 C0 16.08 0 8.16 0 0 Z " fill="#F7C128" transform="translate(404,558)"/>
<path d="M0 0 C0 7.92 0 15.84 0 24 C-10.10023823 22.67734976 -19.90361328 20.54967133 -28 14 C-25.78464108 7.96414187 -19.40626171 5.74962205 -14 3 C-9.03153517 0.87913293 -5.46793901 0 0 0 Z " fill="#F8C228" transform="translate(392,558)"/>
<path d="M0 0 C8.02109432 0.72919039 12.76692765 1.20477602 19.5625 4.5 C20.25923828 4.82097656 20.95597656 5.14195312 21.67382812 5.47265625 C24.13455694 6.61130908 26.57485266 7.78742633 29 9 C27.2303071 14.3090787 21.72278764 16.39921582 17 19 C10.99240466 21.72281001 6.68450201 23 0 23 C0 15.41 0 7.82 0 0 Z " fill="#F7F7F8" transform="translate(404,459)"/>
<path d="M0 0 C0 7.59 0 15.18 0 23 C-11.96210499 21.67087722 -18.94157546 18.7893699 -28 11 C-27 8 -27 8 -24.375 6.46484375 C-16.08925066 2.71515857 -9.12356897 0 0 0 Z " fill="#F9F9FA" transform="translate(392,459)"/>
<path d="M0 0 C1.65 0.33 3.3 0.66 5 1 C5.125 7.75 5.125 7.75 4 10 C4.99 10.33 5.98 10.66 7 11 C6.67 12.32 6.34 13.64 6 15 C5.071875 14.896875 4.14375 14.79375 3.1875 14.6875 C2.135625 14.790625 1.08375 14.89375 0 15 C-1.9354148 17.39056942 -1.9354148 17.39056942 -3 20 C-2.01 20.33 -1.02 20.66 0 21 C-0.96396425 26.20540698 -1.87680501 30.59913433 -5 35 C-6.65 34.67 -8.3 34.34 -10 34 C-9.30740878 27.35871435 -7.44816 21.14050559 -5.5625 14.75 C-5.09360352 13.11804688 -5.09360352 13.11804688 -4.61523438 11.453125 C-4.31037109 10.4115625 -4.00550781 9.37 -3.69140625 8.296875 C-3.41498291 7.35166992 -3.13855957 6.40646484 -2.85375977 5.43261719 C-2 3 -2 3 0 0 Z " fill="#22324D" transform="translate(327,629)"/>
<path d="M0 0 C3.80543707 0.4348262 6.19194388 1.54298727 9.25 3.80078125 C10.0234375 4.36603516 10.796875 4.93128906 11.59375 5.51367188 C12.3878125 6.10728516 13.181875 6.70089844 14 7.3125 C14.7940625 7.89451172 15.588125 8.47652344 16.40625 9.07617188 C20.33857971 11.96971116 24.21754607 14.91150435 28 18 C27.67 19.32 27.34 20.64 27 22 C25.25732422 22.6628418 25.25732422 22.6628418 23 23 C20.98876953 21.98364258 20.98876953 21.98364258 18.8828125 20.39453125 C18.11066406 19.82283203 17.33851563 19.25113281 16.54296875 18.66210938 C15.74503906 18.05173828 14.94710937 17.44136719 14.125 16.8125 C12.54491041 15.63065485 10.96419406 14.44964711 9.3828125 13.26953125 C8.63491455 12.70355225 7.8870166 12.13757324 7.11645508 11.55444336 C5.26925485 10.19775587 3.39842705 8.95731813 1.45703125 7.7421875 C0.64621094 7.16726562 -0.16460937 6.59234375 -1 6 C-1.4375 3.3125 -1.4375 3.3125 -1 1 C-0.67 0.67 -0.34 0.34 0 0 Z " fill="#192B46" transform="translate(179,241)"/>
<path d="M0 0 C0.33 0 0.66 0 1 0 C1 9.9 1 19.8 1 30 C-1.81774586 27.18225414 -3.13509817 23.77156077 -4.75 20.1875 C-5.09160156 19.47529297 -5.43320312 18.76308594 -5.78515625 18.02929688 C-8.16206859 12.74237869 -8.16206859 12.74237869 -7.39453125 9.2265625 C-6.02951848 7.04713034 -4.64339954 5.1113523 -2.9375 3.1875 C-2.41027344 2.58292969 -1.88304687 1.97835937 -1.33984375 1.35546875 C-0.89769531 0.90816406 -0.45554687 0.46085938 0 0 Z " fill="#FCF8EC" transform="translate(418,247)"/>
<path d="M0 0 C0.66 0 1.32 0 2 0 C2 1.32 2 2.64 2 4 C3.32 4 4.64 4 6 4 C6.05384521 6.29141286 6.09272087 8.58318188 6.125 10.875 C6.14820313 12.15117188 6.17140625 13.42734375 6.1953125 14.7421875 C6 18 6 18 4 20 C0.46428571 19.46428571 0.46428571 19.46428571 -1 18 C-1.09980173 15.73097824 -1.12967809 13.45871075 -1.125 11.1875 C-1.12886719 9.32158203 -1.12886719 9.32158203 -1.1328125 7.41796875 C-1.02767173 4.71213998 -0.81143252 2.55665645 0 0 Z " fill="#1A2C47" transform="translate(410,655)"/>
<path d="M0 0 C0.103125 0.639375 0.20625 1.27875 0.3125 1.9375 C0.539375 2.618125 0.76625 3.29875 1 4 C1.99 4.33 2.98 4.66 4 5 C3.03603575 10.20540698 2.12319499 14.59913433 -1 19 C-2.65 18.67 -4.3 18.34 -6 18 C-5.34849138 11.87581896 -4.49644342 4.49644342 0 0 Z " fill="#172945" transform="translate(323,645)"/>
<path d="M0 0 C0.86044922 0.32871094 0.86044922 0.32871094 1.73828125 0.6640625 C2.06828125 1.9840625 2.39828125 3.3040625 2.73828125 4.6640625 C-0.56171875 7.3040625 -3.86171875 9.9440625 -7.26171875 12.6640625 C-8.58171875 12.0040625 -9.90171875 11.3440625 -11.26171875 10.6640625 C-11.26171875 8.5390625 -11.26171875 8.5390625 -10.26171875 5.6640625 C-3.99057754 -0.59272827 -3.99057754 -0.59272827 0 0 Z " fill="#152743" transform="translate(615.26171875,238.3359375)"/>
<path d="M0 0 C2.2477975 2.05233685 3.0022242 3.00667261 4 6 C4.06740865 7.56118428 4.08514456 9.1250252 4.0625 10.6875 C4.05347656 11.49574219 4.04445312 12.30398438 4.03515625 13.13671875 C4.02355469 13.75160156 4.01195312 14.36648438 4 15 C0.59141414 11.59141414 0.06991606 6.67798535 -0.125 2 C-0.08375 1.34 -0.0425 0.68 0 0 Z " fill="#C59E33" transform="translate(220,433)"/>
<path d="M0 0 C0.66 0 1.32 0 2 0 C3.32 2.64 4.64 5.28 6 8 C5.01 8 4.02 8 3 8 C3 9.65 3 11.3 3 13 C2.67 13 2.34 13 2 13 C1.34 8.71 0.68 4.42 0 0 Z " fill="#37445D" transform="translate(343,159)"/>
<path d="M0 0 C2.57343171 1.07918104 4.66603411 2.44402274 7 4 C6.67 4.66 6.34 5.32 6 6 C3.36 5.01 0.72 4.02 -2 3 C-2 2.34 -2 1.68 -2 1 C-1.34 0.67 -0.68 0.34 0 0 Z " fill="#D8AD2F" transform="translate(164,399)"/>
<path d="M0 0 C1.32 0 2.64 0 4 0 C4 0.66 4 1.32 4 2 C3.01 2.33 2.02 2.66 1 3 C0.26676204 5.01508358 0.26676204 5.01508358 0 7 C-0.66 6.34 -1.32 5.68 -2 5 C-1.46428571 1.46428571 -1.46428571 1.46428571 0 0 Z " fill="#2F3D57" transform="translate(600,527)"/>
<path d="M0 0 C-2.38573379 1.89213369 -4.07175348 3.02391783 -7 4 C-7 3.34 -7 2.68 -7 2 C-7.99 1.67 -8.98 1.34 -10 1 C-6.52674819 -0.1577506 -3.63932552 -0.06866652 0 0 Z " fill="#CBA332" transform="translate(363,227)"/>
<path d="M0 0 C1 4 1 4 0 7 C-1.32 7.33 -2.64 7.66 -4 8 C-2.68 5.36 -1.36 2.72 0 0 Z " fill="#273550" transform="translate(197,533)"/>
</svg>
