<?xml version="1.0" encoding="UTF-8"?>
<svg version="1.1" xmlns="http://www.w3.org/2000/svg" width="520" height="321">
<path d="M0 0 C0.80824219 0.43570313 1.61648438 0.87140625 2.44921875 1.3203125 C33.07201943 18.57953994 55.76149775 48.40311103 65.43457031 81.95898438 C75.20794734 117.23766829 70.57571131 154.16651369 52.84130859 186.08544922 C50.42051508 190.20152267 47.77681333 194.1164857 45 198 C44.4121875 198.83015625 43.824375 199.6603125 43.21875 200.515625 C22.01439552 228.60209454 -9.61685067 248.12662297 -44.55688477 253.27758789 C-79.56337526 257.54561616 -114.84226408 250.42818263 -143.5625 229.4375 C-148.92197969 225.18867744 -154.03073963 220.69719136 -159 216 C-159.81082031 215.25363281 -160.62164062 214.50726563 -161.45703125 213.73828125 C-185.12311058 191.19028441 -199.26898647 158.18113703 -200.22265625 125.6796875 C-200.84824701 91.427381 -191.73340526 55.63911861 -167.28417969 30.21582031 C-163.43773608 26.28839895 -159.53731096 22.41750167 -155.60644531 18.57470703 C-154.55653029 17.54553501 -153.51903455 16.50349686 -152.49609375 15.44750977 C-113.4960273 -22.2860728 -45.74813201 -26.00124246 0 0 Z " fill="#DF1B34" transform="translate(325,42)"/>
<path d="M0 0 C0.80824219 0.43570313 1.61648438 0.87140625 2.44921875 1.3203125 C33.07201943 18.57953994 55.76149775 48.40311103 65.43457031 81.95898438 C75.20794734 117.23766829 70.57571131 154.16651369 52.84130859 186.08544922 C50.42051508 190.20152267 47.77681333 194.1164857 45 198 C44.4121875 198.83015625 43.824375 199.6603125 43.21875 200.515625 C22.01439552 228.60209454 -9.61685067 248.12662297 -44.55688477 253.27758789 C-79.56337526 257.54561616 -114.84226408 250.42818263 -143.5625 229.4375 C-148.92197969 225.18867744 -154.03073963 220.69719136 -159 216 C-159.81082031 215.25363281 -160.62164062 214.50726563 -161.45703125 213.73828125 C-185.12311058 191.19028441 -199.26898647 158.18113703 -200.22265625 125.6796875 C-200.84824701 91.427381 -191.73340526 55.63911861 -167.28417969 30.21582031 C-163.43773608 26.28839895 -159.53731096 22.41750167 -155.60644531 18.57470703 C-154.55653029 17.54553501 -153.51903455 16.50349686 -152.49609375 15.44750977 C-113.4960273 -22.2860728 -45.74813201 -26.00124246 0 0 Z M-93 11 C-94.23621094 11.35191406 -95.47242188 11.70382813 -96.74609375 12.06640625 C-126.52870666 21.30297914 -149.28420568 40.83312906 -164.44140625 67.83984375 C-177.89599577 95.11995133 -179.72031255 125.54960921 -170.8125 154.5 C-165.96202134 168.21415099 -159.34930112 179.88111507 -150 191 C-149.32710937 191.84820312 -148.65421875 192.69640625 -147.9609375 193.5703125 C-135.09060606 209.02464871 -117.52056557 218.93433357 -98.75 225.375 C-98.05398682 225.61404053 -97.35797363 225.85308105 -96.64086914 226.09936523 C-86.5256746 229.35552148 -76.33518835 230.36967692 -65.75 230.3125 C-64.66025879 230.30758545 -63.57051758 230.3026709 -62.44775391 230.29760742 C-36.54520428 229.92384709 -12.71286159 220.57553614 7 204 C7.84820312 203.32710937 8.69640625 202.65421875 9.5703125 201.9609375 C30.11131255 184.85444549 43.54348739 157.47222512 46 131 C46.78561386 117.45783878 46.74289976 104.11524149 43 91 C42.6596875 89.78699219 42.319375 88.57398438 41.96875 87.32421875 C37.29000113 72.10247835 30.2223746 59.15720891 20 47 C19.32710937 46.15179688 18.65421875 45.30359375 17.9609375 44.4296875 C0.85444549 23.88868745 -26.52777488 10.45651261 -53 8 C-66.53909783 7.21456386 -79.88849208 7.25170439 -93 11 Z " fill="#0B4A91" transform="translate(325,42)"/>
<path d="M0 0 C1.7340948 1.49430003 3.46360467 2.9939448 5.1875 4.5 C5.92097656 5.0775 6.65445313 5.655 7.41015625 6.25 C22.66804383 18.65568718 32.2831312 36.44951742 38.5625 54.75 C38.92106079 55.79401978 38.92106079 55.79401978 39.28686523 56.85913086 C42.54302148 66.9743254 43.55717692 77.16481165 43.5 87.75 C43.49262817 89.38461182 43.49262817 89.38461182 43.48510742 91.05224609 C43.11134709 116.95479572 33.76303614 140.78713841 17.1875 160.5 C16.51460937 161.34820312 15.84171875 162.19640625 15.1484375 163.0703125 C-1.95805451 183.61131255 -29.34027488 197.04348739 -55.8125 199.5 C-69.35466122 200.28561386 -82.69725851 200.24289976 -95.8125 196.5 C-97.02550781 196.1596875 -98.23851562 195.819375 -99.48828125 195.46875 C-114.71002165 190.79000113 -127.65529109 183.7223746 -139.8125 173.5 C-140.66070312 172.82710937 -141.50890625 172.15421875 -142.3828125 171.4609375 C-162.92381255 154.35444549 -176.35598739 126.97222512 -178.8125 100.5 C-179.59793614 86.96090217 -179.56079561 73.61150792 -175.8125 60.5 C-175.46058594 59.26378906 -175.10867187 58.02757812 -174.74609375 56.75390625 C-165.49582813 26.92714218 -145.34615916 3.15241511 -117.8125 -11.5 C-79.88719164 -29.13301823 -33.2347659 -26.71634496 0 0 Z M-104.8125 17.5 C-105.46347656 17.67128418 -106.11445313 17.84256836 -106.78515625 18.01904297 C-129.04794954 23.96759734 -152.03558049 37.64499716 -164.05493164 57.71044922 C-169.4293133 67.01231079 -172.13720577 74.69529225 -172.8125 85.5 C-165.8825 85.5 -158.9525 85.5 -151.8125 85.5 C-151.8125 87.48 -151.8125 89.46 -151.8125 91.5 C-158.7425 91.5 -165.6725 91.5 -172.8125 91.5 C-172.12959872 108.80016577 -163.28264101 123.73571603 -150.8125 135.5 C-122.92209087 159.33839034 -88.54655809 165.32012325 -52.8125 163.5 C-47.01164522 162.99050693 -41.46848009 161.89743065 -35.8125 160.5 C-33.91951172 160.08234375 -33.91951172 160.08234375 -31.98828125 159.65625 C-22.6231952 157.42325929 -14.30921542 153.91867314 -5.8125 149.5 C-4.77222656 148.96503906 -3.73195313 148.43007812 -2.66015625 147.87890625 C15.64144086 137.85030442 29.51491241 122.61152456 36.1328125 102.6484375 C37.03747558 98.83865918 37.1875 95.43332513 37.1875 91.5 C30.2575 91.5 23.3275 91.5 16.1875 91.5 C16.1875 89.52 16.1875 87.54 16.1875 85.5 C23.1175 85.5 30.0475 85.5 37.1875 85.5 C36.50357362 68.17386505 27.64339346 53.30032012 15.1875 41.5 C-16.30376764 13.82951195 -65.02834064 6.27090229 -104.8125 17.5 Z " fill="#FCF6F7" transform="translate(327.8125,72.5)"/>
<path d="M0 0 C0.80824219 0.43570313 1.61648438 0.87140625 2.44921875 1.3203125 C33.07201943 18.57953994 55.76149775 48.40311103 65.43457031 81.95898438 C75.20794734 117.23766829 70.57571131 154.16651369 52.84130859 186.08544922 C50.42051508 190.20152267 47.77681333 194.1164857 45 198 C44.4121875 198.83015625 43.824375 199.6603125 43.21875 200.515625 C22.01439552 228.60209454 -9.61685067 248.12662297 -44.55688477 253.27758789 C-79.56337526 257.54561616 -114.84226408 250.42818263 -143.5625 229.4375 C-148.92197969 225.18867744 -154.03073963 220.69719136 -159 216 C-159.81082031 215.25363281 -160.62164062 214.50726563 -161.45703125 213.73828125 C-185.12311058 191.19028441 -199.26898647 158.18113703 -200.22265625 125.6796875 C-200.84824701 91.427381 -191.73340526 55.63911861 -167.28417969 30.21582031 C-163.43773608 26.28839895 -159.53731096 22.41750167 -155.60644531 18.57470703 C-154.55653029 17.54553501 -153.51903455 16.50349686 -152.49609375 15.44750977 C-113.4960273 -22.2860728 -45.74813201 -26.00124246 0 0 Z M-97 -8 C-97.67643555 -7.81727539 -98.35287109 -7.63455078 -99.04980469 -7.44628906 C-117.40380167 -2.39541506 -134.60777467 6.53444473 -149 19 C-149.51353027 19.43812012 -150.02706055 19.87624023 -150.55615234 20.32763672 C-174.88088041 41.19565335 -191.28592403 71.05990262 -195 103 C-195.31021876 108.00357289 -195.38152662 112.98755384 -195.375 118 C-195.37478851 118.67675781 -195.37457703 119.35351562 -195.37435913 120.05078125 C-195.3380575 131.7443805 -194.14995372 142.71575402 -191 154 C-190.67257813 155.25683594 -190.34515625 156.51367188 -190.0078125 157.80859375 C-185.31128992 173.73220499 -176.8066293 189.41303638 -166 202 C-165.54512207 202.53028809 -165.09024414 203.06057617 -164.62158203 203.60693359 C-146.46945286 224.54889886 -123.57035111 238.40504301 -97 246 C-95.80761719 246.34289062 -94.61523438 246.68578125 -93.38671875 247.0390625 C-75.2346934 251.28445422 -51.89004904 251.1588195 -34 246 C-33.2157666 245.77957031 -32.4315332 245.55914062 -31.62353516 245.33203125 C-12.79412365 239.92871559 4.05939757 231.73625125 19 219 C19.90234375 218.236875 20.8046875 217.47375 21.734375 216.6875 C44.89317885 196.47618027 61.31372741 166.70700859 65 136 C65.25707713 131.31212292 65.33017335 126.6440356 65.31567383 121.94995117 C65.3125299 119.83263781 65.33600407 117.71674969 65.36132812 115.59960938 C65.42099956 102.86363833 63.61845891 90.41161031 59.5 78.3125 C59.25282227 77.58393799 59.00564453 76.85537598 58.75097656 76.10473633 C53.36399131 61.05893093 45.44045606 47.08040328 35 35 C34.16082031 33.9996875 33.32164062 32.999375 32.45703125 31.96875 C21.89793318 19.69480867 9.26179166 10.50353171 -5 3 C-5.87914062 2.48050781 -6.75828125 1.96101563 -7.6640625 1.42578125 C-32.66701679 -12.62455147 -69.43701497 -15.86656 -97 -8 Z " fill="#BEBBB8" transform="translate(325,42)"/>
<path d="M0 0 C2.42631296 2.40502952 4.82925056 4.81528015 7.1484375 7.32421875 C20.58483291 21.58565598 38.94882318 31.49502087 58 36 C58.97404785 36.23928223 58.97404785 36.23928223 59.96777344 36.48339844 C69.27193134 38.75500962 78.39212239 40.72785568 88 41 C88.9890332 41.0306958 88.9890332 41.0306958 89.99804688 41.06201172 C121.61615378 41.9213538 156.76503137 34.88339903 180.8125 12.9375 C181.58207031 12.18339844 182.35164062 11.42929688 183.14453125 10.65234375 C185 9 185 9 187 9 C187.3403125 8.1646875 187.3403125 8.1646875 187.6875 7.3125 C189.35896766 4.36753316 191.55276352 2.31843456 194 0 C187.32645436 22.24515213 167.99138199 41.9428417 148 53 C131.77435564 61.37046574 116.0323548 65.1773947 97.8125 65.1875 C96.66974609 65.19974609 95.52699219 65.21199219 94.34960938 65.22460938 C82.96691816 65.24391298 72.22019865 63.98425701 61.5625 59.875 C60.75756104 59.57005615 59.95262207 59.2651123 59.12329102 58.95092773 C32.27305022 48.44060316 12.18293364 27.89363066 0 2 C0 1.34 0 0.68 0 0 Z " fill="#DF1A33" transform="translate(163,200)"/>
<path d="M0 0 C2.08029186 -0.00216898 4.16003736 -0.02030152 6.24023438 -0.03930664 C34.01312322 -0.15972524 58.92340729 11.15233479 78.66992188 30.43530273 C87.94727241 39.79747788 95.73545112 51.05856263 100.98242188 63.18530273 C100.65242187 63.84530273 100.32242188 64.50530273 99.98242188 65.18530273 C99.43714844 64.55624023 98.891875 63.92717773 98.33007812 63.27905273 C84.57782706 47.66966007 69.36916251 38.28437971 49.98242188 31.18530273 C48.94504883 30.79749634 48.94504883 30.79749634 47.88671875 30.40185547 C31.13991298 24.44096889 12.60680564 23.24261147 -5.01757812 24.18530273 C-6.13060303 24.23533447 -6.13060303 24.23533447 -7.26611328 24.28637695 C-27.08247424 25.32185847 -46.89469834 31.21677434 -64.01757812 41.18530273 C-65.02820313 41.76151367 -66.03882813 42.33772461 -67.08007812 42.93139648 C-76.83446502 48.79757638 -84.81036637 56.42686991 -92.01757812 65.18530273 C-92.34757813 64.52530273 -92.67757812 63.86530273 -93.01757812 63.18530273 C-91.99983318 60.82278969 -90.92817752 58.62757694 -89.70507812 56.37280273 C-89.34188477 55.7020874 -88.97869141 55.03137207 -88.60449219 54.34033203 C-74.01443283 28.16532079 -50.03421554 10.38566201 -21.44335938 2.09545898 C-14.23076107 0.17922705 -7.42307199 -0.00086476 0 0 Z " fill="#DF1A33" transform="translate(256.017578125,56.814697265625)"/>
<path d="M0 0 C3.60401481 -0.08701039 7.20776012 -0.14039388 10.8125 -0.1875 C12.34874023 -0.22520508 12.34874023 -0.22520508 13.91601562 -0.26367188 C15.39038086 -0.27817383 15.39038086 -0.27817383 16.89453125 -0.29296875 C18.25348511 -0.31653442 18.25348511 -0.31653442 19.63989258 -0.34057617 C22 0 22 0 23.79199219 1.12597656 C26.6149745 5.50536464 25.46509753 11.90722275 25.4375 16.9375 C25.4674707 18.87012695 25.4674707 18.87012695 25.49804688 20.84179688 C25.49740234 22.07865234 25.49675781 23.31550781 25.49609375 24.58984375 C25.49887329 26.28935181 25.49887329 26.28935181 25.50170898 28.02319336 C24.88966702 31.65464234 23.94334551 32.83951098 21 35 C18.07545478 35.29362904 15.64493292 35.38195943 12.75 35.25 C10.1925 35.1675 7.635 35.085 5 35 C5 25.43 5 15.86 5 6 C3.68 5.67 2.36 5.34 1 5 C0.67 3.35 0.34 1.7 0 0 Z " fill="#FEF8F9" transform="translate(185,122)"/>
<path d="M0 0 C0.94746094 -0.02578125 1.89492188 -0.0515625 2.87109375 -0.078125 C6.11495892 0.31735348 7.26285738 0.94192827 9.5625 3.25 C10.08007812 6.09741211 10.08007812 6.09741211 10.09375 9.52734375 C10.09890625 10.76291016 10.1040625 11.99847656 10.109375 13.27148438 C10.09390625 14.56376953 10.0784375 15.85605469 10.0625 17.1875 C10.07796875 18.47591797 10.0934375 19.76433594 10.109375 21.09179688 C10.10421875 22.32865234 10.0990625 23.56550781 10.09375 24.83984375 C10.08923828 25.97284912 10.08472656 27.10585449 10.08007812 28.27319336 C9.45515174 31.8674044 8.37944893 33.01202482 5.5625 35.25 C3.14739385 36.45755308 1.44511951 36.48572748 -1.25 36.5625 C-2.10207031 36.59988281 -2.95414062 36.63726562 -3.83203125 36.67578125 C-7.3830894 36.0954734 -8.89704818 34.77321071 -11.4375 32.25 C-12.05273438 29.38085938 -12.05273438 29.38085938 -12.03125 26.09375 C-12.02867187 24.90652344 -12.02609375 23.71929687 -12.0234375 22.49609375 C-11.99507813 21.25988281 -11.96671875 20.02367187 -11.9375 18.75 C-11.94007813 17.51378906 -11.94265625 16.27757812 -11.9453125 15.00390625 C-11.83328071 4.68577812 -11.83328071 4.68577812 -8.4375 1.25 C-5.40443887 0.23897962 -3.17809761 0.0517465 0 0 Z " fill="#FEFAFB" transform="translate(279.4375,163.75)"/>
<path d="M0 0 C1.39412109 0.00193359 1.39412109 0.00193359 2.81640625 0.00390625 C5.96755306 0.52518389 7.18599952 1.17454523 9.4375 3.4375 C10.18312218 7.56793977 10.05382613 11.69708238 10.01391602 15.88916016 C10.00003963 17.93166732 10.03412045 19.96959835 10.07226562 22.01171875 C10.07033203 23.29691406 10.06839844 24.58210938 10.06640625 25.90625 C10.06713135 27.08638672 10.06785645 28.26652344 10.06860352 29.48242188 C9.4375 32.4375 9.4375 32.4375 7.08618164 34.32080078 C3.98797185 35.62702362 1.66803917 35.83772962 -1.6875 35.8125 C-2.72132813 35.82023437 -3.75515625 35.82796875 -4.8203125 35.8359375 C-7.5625 35.4375 -7.5625 35.4375 -9.20458984 34.30493164 C-12.27798665 30.07832032 -11.07251183 23.51843006 -11.0625 18.5 C-11.09085937 17.21158203 -11.11921875 15.92316406 -11.1484375 14.59570312 C-11.15101563 13.35884766 -11.15359375 12.12199219 -11.15625 10.84765625 C-11.16333984 9.71465088 -11.17042969 8.58164551 -11.17773438 7.41430664 C-10.5625 4.4375 -10.5625 4.4375 -8.19750977 2.06787109 C-5.18374138 0.20314902 -3.51393306 -0.07330876 0 0 Z " fill="#FEFAFB" transform="translate(291.5625,121.5625)"/>
<path d="M0 0 C2.908125 -0.0825 5.81625 -0.165 8.8125 -0.25 C10.18112183 -0.30462402 10.18112183 -0.30462402 11.57739258 -0.36035156 C17.44614923 -0.4413991 17.44614923 -0.4413991 20.05859375 1.640625 C21.23105513 4.57907593 21.32901369 6.83945251 21.25 10 C21.23453125 11.03125 21.2190625 12.0625 21.203125 13.125 C21.03048754 15.56848409 20.58955106 17.64179577 20 20 C20.33 20.33 20.66 20.66 21 21 C21.07271741 23.35313555 21.08370868 25.70833668 21.0625 28.0625 C21.05347656 29.35285156 21.04445313 30.64320313 21.03515625 31.97265625 C21.02355469 32.97167969 21.01195312 33.97070312 21 35 C18.125 35.1875 18.125 35.1875 15 35 C12.81005752 31.71508627 12.64722661 30.16904361 12.375 26.3125 C12.30023438 25.31863281 12.22546875 24.32476562 12.1484375 23.30078125 C12.09945313 22.54152344 12.05046875 21.78226563 12 21 C11.01 20.67 10.02 20.34 9 20 C9 24.95 9 29.9 9 35 C6.03 35 3.06 35 0 35 C0 23.45 0 11.9 0 0 Z " fill="#FCECEF" transform="translate(256,122)"/>
<path d="M0 0 C6 1 6 1 8.25 3.3125 C10 6 10 6 12 10 C12.33 6.7 12.66 3.4 13 0 C15.64 0 18.28 0 21 0 C21 11.55 21 23.1 21 35 C18.36 35 15.72 35 13 35 C11.35 31.04 9.7 27.08 8 23 C7.67 26.96 7.34 30.92 7 35 C4.69 35 2.38 35 0 35 C0 23.45 0 11.9 0 0 Z " fill="#FEFDFD" transform="translate(294,164)"/>
<path d="M0 0 C3.77057547 -0.11597653 7.54069393 -0.18717396 11.3125 -0.25 C12.38435547 -0.28351563 13.45621094 -0.31703125 14.56054688 -0.3515625 C15.58857422 -0.36445313 16.61660156 -0.37734375 17.67578125 -0.390625 C18.62364502 -0.41157227 19.57150879 -0.43251953 20.5480957 -0.45410156 C23 0 23 0 24.80786133 1.84472656 C26.37618003 4.68009775 26.39919777 6.77363045 26.375 10 C26.38273437 11.03125 26.39046875 12.0625 26.3984375 13.125 C25.94679947 16.38387833 25.43057582 17.78559253 23 20 C19.59576078 20.53610066 16.46656123 20.1800811 13 20 C13 24.95 13 29.9 13 35 C10.36 35 7.72 35 5 35 C5 25.1 5 15.2 5 5 C3.68 4.34 2.36 3.68 1 3 C0.67 2.01 0.34 1.02 0 0 Z " fill="#FEF9FA" transform="translate(183,164)"/>
<path d="M0 0 C5.28 0 10.56 0 16 0 C16 1.98 16 3.96 16 6 C13.36 6 10.72 6 8 6 C8 8.31 8 10.62 8 13 C9.98 13 11.96 13 14 13 C14 15.64 14 18.28 14 21 C12.02 21 10.04 21 8 21 C8 23.64 8 26.28 8 29 C10.64 29 13.28 29 16 29 C16 30.98 16 32.96 16 35 C10.72 35 5.44 35 0 35 C0 23.45 0 11.9 0 0 Z " fill="#FDF2F3" transform="translate(214,122)"/>
<path d="M0 0 C1.38294718 0.01329757 2.76582404 0.03715018 4.1484375 0.0703125 C4.85484375 0.07933594 5.56125 0.08835938 6.2890625 0.09765625 C8.03399848 0.12123647 9.77876045 0.15710789 11.5234375 0.1953125 C11.1934375 1.8453125 10.8634375 3.4953125 10.5234375 5.1953125 C7.5534375 5.1953125 4.5834375 5.1953125 1.5234375 5.1953125 C2.09786394 7.63809513 2.09786394 7.63809513 3.5234375 10.1953125 C6.52351021 11.90386272 6.52351021 11.90386272 9.5234375 13.1953125 C11.15854729 16.46553209 10.74972049 20.04265001 10.7734375 23.6328125 C10.7940625 24.40947266 10.8146875 25.18613281 10.8359375 25.98632812 C10.87558765 31.74055629 10.87558765 31.74055629 9.18530273 33.92333984 C6.64639186 35.86659321 4.47055973 35.48392935 1.3359375 35.3828125 C0.24925781 35.35574219 -0.83742187 35.32867187 -1.95703125 35.30078125 C-3.20419922 35.24857422 -3.20419922 35.24857422 -4.4765625 35.1953125 C-4.4765625 33.5453125 -4.4765625 31.8953125 -4.4765625 30.1953125 C-2.4965625 30.1953125 -0.5165625 30.1953125 1.5234375 30.1953125 C1.5234375 25.9053125 1.5234375 21.6153125 1.5234375 17.1953125 C0.2034375 16.8653125 -1.1165625 16.5353125 -2.4765625 16.1953125 C-4.62186766 14.03547932 -5.40167742 12.71226112 -5.83984375 9.6875 C-5.82308594 8.82382813 -5.80632812 7.96015625 -5.7890625 7.0703125 C-5.78519531 6.20148438 -5.78132812 5.33265625 -5.77734375 4.4375 C-5.2445387 0.46568054 -3.84420907 0.2159668 0 0 Z " fill="#FDF1F3" transform="translate(231.4765625,163.8046875)"/>
<path d="M0 0 C1.48831242 0.00667405 2.97660807 0.01863442 4.46484375 0.03515625 C5.22345703 0.03966797 5.98207031 0.04417969 6.76367188 0.04882812 C8.64326246 0.06064945 10.52281274 0.07858547 12.40234375 0.09765625 C11.52734375 3.97265625 11.52734375 3.97265625 10.40234375 5.09765625 C7.73175524 5.23880786 5.07802137 5.14012732 2.40234375 5.09765625 C2.99043811 7.49328392 2.99043811 7.49328392 4.40234375 10.09765625 C5.91248047 10.89236328 5.91248047 10.89236328 7.453125 11.703125 C10.40234375 14.09765625 10.40234375 14.09765625 10.94042969 16.05615234 C11.10249502 18.44945473 11.07332453 20.7640633 10.96484375 23.16015625 C10.96291016 23.97548828 10.96097656 24.79082031 10.95898438 25.63085938 C10.82766504 31.54995696 10.82766504 31.54995696 9.05322266 33.83496094 C6.52212067 35.77090585 4.33803329 35.3859043 1.21484375 35.28515625 C0.12816406 35.25808594 -0.95851563 35.23101562 -2.078125 35.203125 C-3.32529297 35.15091797 -3.32529297 35.15091797 -4.59765625 35.09765625 C-4.59765625 33.44765625 -4.59765625 31.79765625 -4.59765625 30.09765625 C-2.28765625 30.09765625 0.02234375 30.09765625 2.40234375 30.09765625 C2.40234375 25.80765625 2.40234375 21.51765625 2.40234375 17.09765625 C0.75234375 16.76765625 -0.89765625 16.43765625 -2.59765625 16.09765625 C-4.59765625 14.09765625 -4.59765625 14.09765625 -4.828125 11.09375 C-4.81394531 9.91941406 -4.79976563 8.74507812 -4.78515625 7.53515625 C-4.77548828 5.76978516 -4.77548828 5.76978516 -4.765625 3.96875 C-4.51726652 -0.27644732 -4.38815845 0.11911396 0 0 Z " fill="#FEF9FA" transform="translate(324.59765625,163.90234375)"/>
<path d="M0 0 C6.27 0 12.54 0 19 0 C18.34 1.65 17.68 3.3 17 5 C16.01 5 15.02 5 14 5 C14 14.9 14 24.8 14 35 C11.36 35 8.72 35 6 35 C6 25.43 6 15.86 6 6 C4.02 6 2.04 6 0 6 C0 4.02 0 2.04 0 0 Z " fill="#FEFBFC" transform="translate(247,164)"/>
<path d="M0 0 C5.94 0 11.88 0 18 0 C17.67 1.65 17.34 3.3 17 5 C15.68 5.33 14.36 5.66 13 6 C13 15.57 13 25.14 13 35 C10.36 35 7.72 35 5 35 C5 25.43 5 15.86 5 6 C3.35 6 1.7 6 0 6 C0 4.02 0 2.04 0 0 Z " fill="#FDF6F7" transform="translate(317,122)"/>
<path d="M0 0 C5.61 0 11.22 0 17 0 C16.67 1.65 16.34 3.3 16 5 C15.01 5.33 14.02 5.66 13 6 C13 15.57 13 25.14 13 35 C10.36 35 7.72 35 5 35 C5 25.43 5 15.86 5 6 C3.35 6 1.7 6 0 6 C0 4.02 0 2.04 0 0 Z " fill="#FDF2F4" transform="translate(235,122)"/>
<path d="M0 0 C2.64 0 5.28 0 8 0 C8 11.55 8 23.1 8 35 C5.36 35 2.72 35 0 35 C0 23.45 0 11.9 0 0 Z " fill="#FEFEFE" transform="translate(213,164)"/>
<path d="M0 0 C2.31 0 4.62 0 7 0 C7 11.55 7 23.1 7 35 C4.69 35 2.38 35 0 35 C0 23.45 0 11.9 0 0 Z " fill="#FEFDFD" transform="translate(306,122)"/>
<path d="M0 0 C0.33 0 0.66 0 1 0 C1.30866886 20.74254731 0.42689637 39.17964785 -6 59 C-6.66 59 -7.32 59 -8 59 C-8 58.34 -8 57.68 -8 57 C-8.66 57 -9.32 57 -10 57 C-9.39549285 51.44102701 -8.38952195 46.17460082 -7.0625 40.75 C-4.7503922 30.91831558 -3.79746841 21.05229916 -3 11 C-2.67 11 -2.34 11 -2 11 C-2 13.97 -2 16.94 -2 20 C-1.34 20 -0.68 20 0 20 C0 13.4 0 6.8 0 0 Z " fill="#C0BBB6" transform="translate(394,147)"/>
<path d="M0 0 C0 0.33 0 0.66 0 1 C-6.27 1.33 -12.54 1.66 -19 2 C-13.72 2.33 -8.44 2.66 -3 3 C-3 3.33 -3 3.66 -3 4 C-4.72669922 4.05607422 -4.72669922 4.05607422 -6.48828125 4.11328125 C-17.48422373 4.54211835 -28.11919993 5.7716497 -38.95629883 7.65014648 C-47.62534948 9.13416865 -47.62534948 9.13416865 -52 8 C-52.66 8.66 -53.32 9.32 -54 10 C-56.125 9.625 -56.125 9.625 -58 9 C-58 8.34 -58 7.68 -58 7 C-38.69356372 0.28026865 -20.34879497 -0.44177411 0 0 Z " fill="#C3BFBB" transform="translate(273,26)"/>
<path d="M0 0 C0.66 0 1.32 0 2 0 C4.16618682 3.44326711 4.04748686 5.44144995 3.25 9.375 C3.05019531 10.44234375 2.85039062 11.5096875 2.64453125 12.609375 C2.43183594 13.72828125 2.21914062 14.8471875 2 16 C0.20348765 26.6516619 -0.53578388 37.2252995 -1 48 C-1.33 48 -1.66 48 -2 48 C-2.33 43.38 -2.66 38.76 -3 34 C-3 39.94 -3 45.88 -3 52 C-3.66 52 -4.32 52 -5 52 C-5.38939577 34.0638319 -5.148206 17.28006536 0 0 Z " fill="#C2BEBB" transform="translate(130,122)"/>
<path d="M0 0 C1.84078125 -0.01836914 1.84078125 -0.01836914 3.71875 -0.03710938 C5.48605469 -0.04000977 5.48605469 -0.04000977 7.2890625 -0.04296875 C8.8970874 -0.04913208 8.8970874 -0.04913208 10.53759766 -0.05541992 C13.34731918 0.18513015 14.98914934 0.73563399 17.375 2.1875 C17.375 2.8475 17.375 3.5075 17.375 4.1875 C9.84192625 5.16683111 2.52038692 5.24548187 -5.0625 4.9375 C-6.67415039 4.89689453 -6.67415039 4.89689453 -8.31835938 4.85546875 C-9.34638672 4.81550781 -10.37441406 4.77554687 -11.43359375 4.734375 C-12.35970459 4.70182617 -13.28581543 4.66927734 -14.23999023 4.63574219 C-16.98665948 4.11952919 -17.90282193 3.33494696 -19.625 1.1875 C-13.06461335 -0.04618742 -6.65579209 0.00351786 0 0 Z " fill="#B2B2B3" transform="translate(267.625,26.8125)"/>
<path d="M0 0 C2.475 0.495 2.475 0.495 5 1 C5 8.26 5 15.52 5 23 C3.35 23 1.7 23 0 23 C0 15.41 0 7.82 0 0 Z " fill="#E12E41" transform="translate(197,128)"/>
<path d="M0 0 C2.39112209 3.58668313 2.23381027 5.16396569 2.1953125 9.41796875 C2.18886719 10.67158203 2.18242187 11.92519531 2.17578125 13.21679688 C2.15902344 14.52712891 2.14226562 15.83746094 2.125 17.1875 C2.11496639 18.52277987 2.1058412 19.85806689 2.09765625 21.19335938 C2.07405292 24.46242015 2.04112594 27.73112028 2 31 C1.34 31 0.68 31 0 31 C-0.66 31.66 -1.32 32.32 -2 33 C-2.19688523 28.58369908 -2.38088923 24.16695334 -2.5625 19.75 C-2.61857422 18.49574219 -2.67464844 17.24148437 -2.73242188 15.94921875 C-2.78076172 14.74394531 -2.82910156 13.53867188 -2.87890625 12.296875 C-2.9260376 11.18666992 -2.97316895 10.07646484 -3.02172852 8.93261719 C-3.00285211 6.38493859 -2.76220692 4.41237207 -2 2 C-1.34 2 -0.68 2 0 2 C0 1.34 0 0.68 0 0 Z " fill="#AFAFAF" transform="translate(392,136)"/>
<path d="M0 0 C0.66 0.33 1.32 0.66 2 1 C1.46890625 2.00417969 0.9378125 3.00835937 0.390625 4.04296875 C-4.02827068 12.5466281 -7.5770192 20.69065273 -10 30 C-10.66 30 -11.32 30 -12 30 C-13.52506374 27.66754958 -14.00598491 26.24538117 -13.9375 23.4375 C-12.5662998 18.40976595 -10.79340378 13.41975208 -8 9 C-6.6769836 8.62782197 -5.34288034 8.29250859 -4 8 C-2.65768558 6.16016576 -2.65768558 6.16016576 -1.75 3.9375 C-1.41484375 3.20402344 -1.0796875 2.47054687 -0.734375 1.71484375 C-0.49203125 1.14894531 -0.2496875 0.58304687 0 0 Z " fill="#BAB8B6" transform="translate(145,96)"/>
<path d="M0 0 C1.65 0 3.3 0 5 0 C5 7.26 5 14.52 5 22 C3.35 21.67 1.7 21.34 0 21 C0 14.07 0 7.14 0 0 Z " fill="#E1293F" transform="translate(276,170)"/>
<path d="M0 0 C6.91663627 1.09890483 13.42736799 2.56569185 20 5 C19.67 5.99 19.34 6.98 19 8 C10.21156902 8.62774507 2.39685444 6.30784711 -6 4 C-6 3.67 -6 3.34 -6 3 C-5.195625 2.87625 -4.39125 2.7525 -3.5625 2.625 C-2.716875 2.41875 -1.87125 2.2125 -1 2 C-0.67 1.34 -0.34 0.68 0 0 Z " fill="#C4BFBB" transform="translate(285,28)"/>
<path d="M0 0 C0.66 0 1.32 0 2 0 C2.86627405 2.91355841 3.71831006 5.83004328 4.5625 8.75 C4.80935547 9.575 5.05621094 10.4 5.31054688 11.25 C5.53935547 12.04921875 5.76816406 12.8484375 6.00390625 13.671875 C6.21861572 14.4050293 6.4333252 15.13818359 6.65454102 15.89355469 C7.03914672 18.23869816 6.72878764 19.75825808 6 22 C5.34 22 4.68 22 4 22 C3.67 23.32 3.34 24.64 3 26 C2.29921555 23.44048255 1.61414804 20.87840298 0.9375 18.3125 C0.73833984 17.59126953 0.53917969 16.87003906 0.33398438 16.12695312 C-0.94519044 11.21222885 -1.34728091 7.69456181 1 3 C0.34 2.67 -0.32 2.34 -1 2 C-0.67 1.34 -0.34 0.68 0 0 Z " fill="#C3BEB9" transform="translate(386,116)"/>
<path d="M0 0 C0.33 0 0.66 0 1 0 C1.33 9.24 1.66 18.48 2 28 C1.01 28.33 0.02 28.66 -1 29 C-1.66 28.67 -2.32 28.34 -3 28 C-3 20.08 -3 12.16 -3 4 C-2.34 3.67 -1.68 3.34 -1 3 C-0.67 2.01 -0.34 1.02 0 0 Z " fill="#AFAFB0" transform="translate(129,152)"/>
<path d="M0 0 C1.32 0 2.64 0 4 0 C4 7.26 4 14.52 4 22 C2.68 21.67 1.36 21.34 0 21 C0 14.07 0 7.14 0 0 Z " fill="#DB0F22" transform="translate(289,128)"/>
<path d="M0 0 C1.25619141 0.00451172 2.51238281 0.00902344 3.80664062 0.01367188 C6.89197663 0.02540319 9.97721316 0.041819 13.0625 0.0625 C13.0625 0.3925 13.0625 0.7225 13.0625 1.0625 C6.7925 1.3925 0.5225 1.7225 -5.9375 2.0625 C-0.6575 2.3925 4.6225 2.7225 10.0625 3.0625 C10.0625 3.3925 10.0625 3.7225 10.0625 4.0625 C5.64654696 4.2883868 1.22981435 4.49017834 -3.1875 4.6875 C-4.44175781 4.75195312 -5.69601563 4.81640625 -6.98828125 4.8828125 C-8.79619141 4.96015625 -8.79619141 4.96015625 -10.640625 5.0390625 C-11.75083008 5.09143066 -12.86103516 5.14379883 -14.00488281 5.19775391 C-16.92638697 5.06301254 -18.48436494 4.59179484 -20.9375 3.0625 C-20.9375 2.4025 -20.9375 1.7425 -20.9375 1.0625 C-13.98535719 -0.24941997 -7.05305097 -0.04808058 0 0 Z " fill="#D9D4CF" transform="translate(259.9375,25.9375)"/>
<path d="M0 0 C3.87555857 0.11042245 7.75019332 0.24092364 11.625 0.375 C12.71941406 0.4059375 13.81382812 0.436875 14.94140625 0.46875 C20.28856459 0.66319212 25.01073016 0.84673618 30 3 C30 3.33 30 3.66 30 4 C25.97918212 4.02921779 21.95839186 4.04687188 17.9375 4.0625 C16.2369043 4.07506836 16.2369043 4.07506836 14.50195312 4.08789062 C8.89121133 4.10424847 3.52350669 4.01812097 -2 3 C-1.34 2.67 -0.68 2.34 0 2 C0 1.34 0 0.68 0 0 Z " fill="#D4D3D3" transform="translate(243,292)"/>
<path d="M0 0 C0.89589844 0.00322266 1.79179687 0.00644531 2.71484375 0.00976562 C4.12056641 0.02233398 4.12056641 0.02233398 5.5546875 0.03515625 C6.49957031 0.03966797 7.44445312 0.04417969 8.41796875 0.04882812 C10.75527137 0.06063268 13.09244811 0.07709866 15.4296875 0.09765625 C15.4296875 0.42765625 15.4296875 0.75765625 15.4296875 1.09765625 C9.1596875 1.09765625 2.8896875 1.09765625 -3.5703125 1.09765625 C-3.5703125 3.07765625 -3.5703125 5.05765625 -3.5703125 7.09765625 C-1.9203125 7.09765625 -0.2703125 7.09765625 1.4296875 7.09765625 C1.4296875 16.66765625 1.4296875 26.23765625 1.4296875 36.09765625 C1.0996875 36.09765625 0.7696875 36.09765625 0.4296875 36.09765625 C0.4296875 26.85765625 0.4296875 17.61765625 0.4296875 8.09765625 C-1.2203125 8.09765625 -2.8703125 8.09765625 -4.5703125 8.09765625 C-6.5703125 6.09765625 -6.5703125 6.09765625 -6.6953125 3.47265625 C-6.6540625 2.68890625 -6.6128125 1.90515625 -6.5703125 1.09765625 C-4.16971433 -0.10264283 -2.67670601 -0.01694118 0 0 Z " fill="#D8040E" transform="translate(320.5703125,120.90234375)"/>
<path d="M0 0 C0.33 0 0.66 0 1 0 C0.67 8.25 0.34 16.5 0 25 C-0.33 25 -0.66 25 -1 25 C-1.33 20.38 -1.66 15.76 -2 11 C-2 16.94 -2 22.88 -2 29 C-2.66 29 -3.32 29 -4 29 C-4 20.09 -4 11.18 -4 2 C-2.02 2.99 -2.02 2.99 0 4 C0 2.68 0 1.36 0 0 Z " fill="#DED9D3" transform="translate(129,145)"/>
<path d="M0 0 C0.66 0 1.32 0 2 0 C2.598125 1.0725 3.19625 2.145 3.8125 3.25 C5.00780378 5.36509428 6.14375584 7.17570159 7.6875 9.0625 C9.42078767 11.62116275 9.65507855 13.96469121 10 17 C9.67 16.34 9.34 15.68 9 15 C7.68 15.33 6.36 15.66 5 16 C3.96728358 13.90163996 2.94916283 11.79609109 1.9375 9.6875 C1.36902344 8.51574219 0.80054688 7.34398437 0.21484375 6.13671875 C-1 3 -1 3 0 0 Z " fill="#BBB9B8" transform="translate(135,208)"/>
<path d="M0 0 C0.33 0.66 0.66 1.32 1 2 C1.66 2 2.32 2 3 2 C4.23800682 5.49038052 3.80144052 7.33876761 2.3125 10.6875 C1.97863281 11.47511719 1.64476562 12.26273438 1.30078125 13.07421875 C0 15 0 15 -2.14453125 15.76953125 C-2.75683594 15.84558594 -3.36914062 15.92164063 -4 16 C-5.35304209 11.94087374 -4.15216503 10.22850409 -2.5625 6.3125 C-2.08941406 5.13300781 -1.61632812 3.95351562 -1.12890625 2.73828125 C-0.75636719 1.83464844 -0.38382812 0.93101562 0 0 Z " fill="#B1B0B0" transform="translate(383,202)"/>
<path d="M0 0 C0.33 0 0.66 0 1 0 C1 8.58 1 17.16 1 26 C0.01 25.67 -0.98 25.34 -2 25 C-2.33 26.65 -2.66 28.3 -3 30 C-3.33 30 -3.66 30 -4 30 C-3.67 23.73 -3.34 17.46 -3 11 C-2.67 11 -2.34 11 -2 11 C-2 13.97 -2 16.94 -2 20 C-1.34 20 -0.68 20 0 20 C0 13.4 0 6.8 0 0 Z " fill="#E3DED8" transform="translate(394,147)"/>
<path d="M0 0 C1.65 0.33 3.3 0.66 5 1 C4.01 4.63 3.02 8.26 2 12 C1.34 12 0.68 12 0 12 C0 11.34 0 10.68 0 10 C-0.66 10 -1.32 10 -2 10 C-1.125 2.25 -1.125 2.25 0 0 Z " fill="#C5C2C1" transform="translate(386,194)"/>
<path d="M0 0 C-1.23551244 3.70653731 -2.96665078 4.64915435 -6 7 C-6.33 7.66 -6.66 8.32 -7 9 C-7.99 9 -8.98 9 -10 9 C-10 10.32 -10 11.64 -10 13 C-13 15 -13 15 -16 15 C-13.49234835 9.3577838 -6.89913447 0 0 0 Z " fill="#B8B5B3" transform="translate(342,263)"/>
<path d="M0 0 C3.16664666 -0.02940458 6.33325747 -0.04693315 9.5 -0.0625 C10.386875 -0.07087891 11.27375 -0.07925781 12.1875 -0.08789062 C17.55823086 -0.10763596 22.68633663 0.21164107 28 1 C28 1.99 28 2.98 28 4 C23.83861737 4.08159574 20.0527516 3.98248524 16 3 C16 2.67 16 2.34 16 2 C10.72 1.67 5.44 1.34 0 1 C0 0.67 0 0.34 0 0 Z " fill="#A6A9AD" transform="translate(251,291)"/>
<path d="M0 0 C0.99 0 1.98 0 3 0 C3.33 2.97 3.66 5.94 4 9 C3.34 9 2.68 9 2 9 C2 10.32 2 11.64 2 13 C1.01 12.67 0.02 12.34 -1 12 C-1.02712066 10.56260487 -1.04645067 9.12506137 -1.0625 7.6875 C-1.07410156 6.88699219 -1.08570312 6.08648437 -1.09765625 5.26171875 C-1 3 -1 3 0 0 Z " fill="#BEBDBC" transform="translate(127,136)"/>
<path d="M0 0 C4.40114397 0.50298788 6.71195019 2.08772731 10 5 C10.66 3.68 11.32 2.36 12 1 C12.33 1 12.66 1 13 1 C13 5.29 13 9.58 13 14 C10 10 10 10 8.1875 6.9375 C5.74892475 3.66284181 3.73597151 2.52835198 0 1 C0 0.67 0 0.34 0 0 Z " fill="#DD0D25" transform="translate(294,162)"/>
<path d="M0 0 C1.35622245 0.96873032 2.69417053 1.96434215 4 3 C0.21786019 3.77361951 -2.29873524 3.92531619 -6 3 C-6.66 3.66 -7.32 4.32 -8 5 C-10.125 4.625 -10.125 4.625 -12 4 C-12 3.34 -12 2.68 -12 2 C-10.56656 1.46809459 -9.12804633 0.94984742 -7.6875 0.4375 C-6.48673828 0.00244141 -6.48673828 0.00244141 -5.26171875 -0.44140625 C-3 -1 -3 -1 0 0 Z " fill="#CBC8C6" transform="translate(227,31)"/>
<path d="M0 0 C1.32 0.33 2.64 0.66 4 1 C4 1.99 4 2.98 4 4 C4.99 4 5.98 4 7 4 C7.53229326 5.26607607 8.05044544 6.53810412 8.5625 7.8125 C8.85253906 8.52019531 9.14257812 9.22789062 9.44140625 9.95703125 C10 12 10 12 9 15 C6 9.25 6 9.25 6 7 C4.68 7.33 3.36 7.66 2 8 C1.34 5.36 0.68 2.72 0 0 Z " fill="#C6C2BF" transform="translate(131,201)"/>
<path d="M0 0 C0.66 0 1.32 0 2 0 C2 0.66 2 1.32 2 2 C2.66 2 3.32 2 4 2 C4.66 4.97 5.32 7.94 6 11 C5.34 11 4.68 11 4 11 C4 10.01 4 9.02 4 8 C2.68 7.67 1.36 7.34 0 7 C-1.125 2.25 -1.125 2.25 0 0 Z " fill="#B8B7B6" transform="translate(131,194)"/>
<path d="M0 0 C1.32 0.33 2.64 0.66 4 1 C4 3.97 4 6.94 4 10 C2.68 10 1.36 10 0 10 C0 6.7 0 3.4 0 0 Z " fill="#DD0D24" transform="translate(196,169)"/>
<path d="M0 0 C1.65 0 3.3 0 5 0 C3.55575365 3.23861303 1.74227753 5.61969163 -0.625 8.25 C-1.25664062 8.95640625 -1.88828125 9.6628125 -2.5390625 10.390625 C-3.02117187 10.92171875 -3.50328125 11.4528125 -4 12 C-4.33 11.34 -4.66 10.68 -5 10 C-4.00390625 7.6171875 -4.00390625 7.6171875 -2.5625 4.875 C-1.85287109 3.50988281 -1.85287109 3.50988281 -1.12890625 2.1171875 C-0.75636719 1.41851562 -0.38382813 0.71984375 0 0 Z " fill="#E12D3D" transform="translate(168,110)"/>
<path d="M0 0 C1.86323318 0.25288812 3.71708432 0.57690153 5.5625 0.9375 C6.57441406 1.13214844 7.58632813 1.32679687 8.62890625 1.52734375 C9.80259766 1.76130859 9.80259766 1.76130859 11 2 C9.76171875 3.51953125 9.76171875 3.51953125 8 5 C5.21464152 5.10118893 2.76464243 4.49854208 0 4 C-0.33 3.01 -0.66 2.02 -1 1 C-0.67 0.67 -0.34 0.34 0 0 Z " fill="#C6C5C5" transform="translate(285,28)"/>
<path d="M0 0 C1.32 0.33 2.64 0.66 4 1 C4 3.64 4 6.28 4 9 C2.68 9 1.36 9 0 9 C0 6.03 0 3.06 0 0 Z " fill="#DD1929" transform="translate(265,128)"/>
<path d="M0 0 C0.66 0.33 1.32 0.66 2 1 C2 1.66 2 2.32 2 3 C2.99 3.33 3.98 3.66 5 4 C4.34 6.97 3.68 9.94 3 13 C2.67 13 2.34 13 2 13 C1.87625 12.195625 1.7525 11.39125 1.625 10.5625 C1.315625 9.2940625 1.315625 9.2940625 1 8 C0.34 7.67 -0.32 7.34 -1 7 C-0.67 4.69 -0.34 2.38 0 0 Z " fill="#CAC4BF" transform="translate(128,129)"/>
<path d="M0 0 C3.63 0.66 7.26 1.32 11 2 C9.68 2.33 8.36 2.66 7 3 C7 3.66 7 4.32 7 5 C4.39417629 5.93065133 3.35801776 6.14917407 0.75 5.0625 C0.1725 4.711875 -0.405 4.36125 -1 4 C-0.01 3.34 0.98 2.68 2 2 C1.34 1.34 0.68 0.68 0 0 Z " fill="#CAC4BF" transform="translate(225,287)"/>
<path d="M0 0 C2.4294516 3.6441774 2.16179575 5.71241272 2 10 C0.02 10.99 0.02 10.99 -2 12 C-3.12377697 8.69564916 -2.89554742 6.9493138 -1.5625 3.75 C-1.27503906 3.04359375 -0.98757813 2.3371875 -0.69140625 1.609375 C-0.46324219 1.07828125 -0.23507812 0.5471875 0 0 Z " fill="#B2B0AF" transform="translate(392,170)"/>
<path d="M0 0 C0.33 0 0.66 0 1 0 C1 5.28 1 10.56 1 16 C0.67 16 0.34 16 0 16 C-2.27529157 10.78021347 -2.13953601 6.46747074 -1 1 C-0.67 0.67 -0.34 0.34 0 0 Z " fill="#C2C0C0" transform="translate(393,139)"/>
<path d="M0 0 C4.91185365 4.61416555 9.96828966 9.93657931 13 16 C6.93213663 13.7526432 3.24462264 7.28753318 0 2 C0 1.34 0 0.68 0 0 Z " fill="#233E86" transform="translate(165,220)"/>
<path d="M0 0 C0.66 0 1.32 0 2 0 C2.66 2.64 3.32 5.28 4 8 C2.35 8.33 0.7 8.66 -1 9 C-0.49396008 6.83125748 -0.00016187 5.00032373 1 3 C0.34 2.67 -0.32 2.34 -1 2 C-0.67 1.34 -0.34 0.68 0 0 Z " fill="#CCCAC8" transform="translate(386,116)"/>
<path d="M0 0 C1.65 0 3.3 0 5 0 C4.46930939 3.82097239 3.50298434 6.06171403 1 9 C0.67 6.03 0.34 3.06 0 0 Z " fill="#CDC9C6" transform="translate(126,180)"/>
<path d="M0 0 C0.66 0.99 1.32 1.98 2 3 C-3.75 8 -3.75 8 -6 8 C-6 7.01 -6 6.02 -6 5 C-5.01 5 -4.02 5 -3 5 C-2.5359375 4.0409375 -2.5359375 4.0409375 -2.0625 3.0625 C-1 1 -1 1 0 0 Z " fill="#C2C1C0" transform="translate(338,267)"/>
<path d="M0 0 C0.66 0 1.32 0 2 0 C2.99 2.31 3.98 4.62 5 7 C4.01 7.33 3.02 7.66 2 8 C0.4375 5.6875 0.4375 5.6875 -1 3 C-0.67 2.01 -0.34 1.02 0 0 Z " fill="#B4B3B2" transform="translate(135,208)"/>
<path d="M0 0 C3.63 0.33 7.26 0.66 11 1 C11 1.33 11 1.66 11 2 C4.565 2.495 4.565 2.495 -2 3 C-1.34 2.67 -0.68 2.34 0 2 C0 1.34 0 0.68 0 0 Z " fill="#AFAEAD" transform="translate(243,292)"/>
<path d="M0 0 C2.93200474 2.85276137 5.64315404 5.65079784 8 9 C6.68 9.33 5.36 9.66 4 10 C3.32845067 8.71086513 2.66291141 7.41859796 2 6.125 C1.62875 5.40570313 1.2575 4.68640625 0.875 3.9453125 C0 2 0 2 0 0 Z " fill="#E13443" transform="translate(163,200)"/>
<path d="M0 0 C0.66 0.33 1.32 0.66 2 1 C1.67 3.97 1.34 6.94 1 10 C0.34 9.67 -0.32 9.34 -1 9 C-1.75 6.125 -1.75 6.125 -2 3 C-1.34 2.01 -0.68 1.02 0 0 Z " fill="#CDCCCB" transform="translate(392,179)"/>
<path d="M0 0 C1.32 0 2.64 0 4 0 C4 0.66 4 1.32 4 2 C4.66 2.33 5.32 2.66 6 3 C2.535 4.485 2.535 4.485 -1 6 C-1.33 5.01 -1.66 4.02 -2 3 C-1.34 2.01 -0.68 1.02 0 0 Z " fill="#B0AFAF" transform="translate(202,39)"/>
<path d="M0 0 C6.75 0.75 6.75 0.75 9 3 C6.36 3.33 3.72 3.66 1 4 C0.67 2.68 0.34 1.36 0 0 Z " fill="#B1B0B0" transform="translate(195,276)"/>
<path d="M0 0 C1.65 0 3.3 0 5 0 C5 4 5 4 4 7 C3.34 7 2.68 7 2 7 C1.34 4.69 0.68 2.38 0 0 Z " fill="#B4B2B0" transform="translate(382,115)"/>
<path d="M0 0 C1.65 0 3.3 0 5 0 C5.33 1.32 5.66 2.64 6 4 C4.35 4.33 2.7 4.66 1 5 C0.67 3.35 0.34 1.7 0 0 Z " fill="#CAC8C5" transform="translate(293,287)"/>
<path d="M0 0 C3.98381075 2.16264012 6.88983545 4.71211176 10 8 C9.01 8.495 9.01 8.495 8 9 C8 8.34 8 7.68 8 7 C7.195625 6.731875 6.39125 6.46375 5.5625 6.1875 C4.716875 5.795625 3.87125 5.40375 3 5 C2.67 4.01 2.34 3.02 2 2 C1.34 2 0.68 2 0 2 C0 1.34 0 0.68 0 0 Z " fill="#214189" transform="translate(183,242)"/>
<path d="M0 0 C0.33 0.66 0.66 1.32 1 2 C1.66 2 2.32 2 3 2 C3.33 2.99 3.66 3.98 4 5 C2.02 5.99 0.04 6.98 -2 8 C-1.34 5.36 -0.68 2.72 0 0 Z " fill="#AFAEAF" transform="translate(383,202)"/>
<path d="M0 0 C0 0.66 0 1.32 0 2 C-3.3 2.33 -6.6 2.66 -10 3 C-9.01 2.67 -8.02 2.34 -7 2 C-7 1.34 -7 0.68 -7 0 C-3.86650268 -1.04449911 -3.01031744 -0.93423645 0 0 Z " fill="#ACACAD" transform="translate(285,29)"/>
<path d="M0 0 C3.375 0.3125 3.375 0.3125 7 1 C7.66 1.99 8.32 2.98 9 4 C6.03 3.67 3.06 3.34 0 3 C0 2.01 0 1.02 0 0 Z " fill="#B1B0AF" transform="translate(235,28)"/>
<path d="M0 0 C2.64 0 5.28 0 8 0 C7.01 0.495 7.01 0.495 6 1 C6.33 2.32 6.66 3.64 7 5 C4.69 4.01 2.38 3.02 0 2 C0 1.34 0 0.68 0 0 Z " fill="#CCCAC8" transform="translate(197,279)"/>
<path d="M0 0 C0.66 0.33 1.32 0.66 2 1 C1.67 1.99 1.34 2.98 1 4 C0.0409375 4.2165625 0.0409375 4.2165625 -0.9375 4.4375 C-3.20311706 4.80104993 -3.20311706 4.80104993 -4.25 7.0625 C-4.4975 7.701875 -4.745 8.34125 -5 9 C-5.33 8.01 -5.66 7.02 -6 6 C-4 4 -2 2 0 0 Z " fill="#C2BDB8" transform="translate(385,207)"/>
<path d="M0 0 C0.33 0.66 0.66 1.32 1 2 C0.22265625 3.9453125 0.22265625 3.9453125 -0.9375 6.125 C-1.31777344 6.84945312 -1.69804687 7.57390625 -2.08984375 8.3203125 C-2.39019531 8.87460938 -2.69054687 9.42890625 -3 10 C-3.33 9.34 -3.66 8.68 -4 8 C-4.66 7.67 -5.32 7.34 -6 7 C-4.02 4.69 -2.04 2.38 0 0 Z " fill="#E23644" transform="translate(356,200)"/>
<path d="M0 0 C2.475 0.495 2.475 0.495 5 1 C4.34 2.98 3.68 4.96 3 7 C0 3.375 0 3.375 0 0 Z " fill="#B3B1B0" transform="translate(374,96)"/>
<path d="M0 0 C0.33 0.66 0.66 1.32 1 2 C1.99 2.33 2.98 2.66 4 3 C3.67 3.66 3.34 4.32 3 5 C1.68 5 0.36 5 -1 5 C-1 4.34 -1 3.68 -1 3 C-1.66 3 -2.32 3 -3 3 C-3 2.34 -3 1.68 -3 1 C-2.01 0.67 -1.02 0.34 0 0 Z " fill="#B2B1B0" transform="translate(224,286)"/>
<path d="M0 0 C-0.66 1.32 -1.32 2.64 -2 4 C-4.475 3.01 -4.475 3.01 -7 2 C-7 1.34 -7 0.68 -7 0 C-3.86650268 -1.04449911 -3.01031744 -0.93423645 0 0 Z " fill="#B2B1B0" transform="translate(302,286)"/>
<path d="M0 0 C0.66 0.66 1.32 1.32 2 2 C1.34 2.66 0.68 3.32 0 4 C0 3.34 0 2.68 0 2 C-4.62 2 -9.24 2 -14 2 C-14 1.67 -14 1.34 -14 1 C-11.70954632 0.77872902 -9.41755236 0.5733496 -7.125 0.375 C-5.84882813 0.25898438 -4.57265625 0.14296875 -3.2578125 0.0234375 C-2.18273437 0.01570312 -1.10765625 0.00796875 0 0 Z " fill="#E22D45" transform="translate(243,162)"/>
<path d="M0 0 C2.64465038 3.1254959 3.84414715 6.08788267 5 10 C0.125 5.375 0.125 5.375 -1 2 C-0.67 1.34 -0.34 0.68 0 0 Z " fill="#E13341" transform="translate(352,112)"/>
<path d="M0 0 C0.66 0.33 1.32 0.66 2 1 C1.2575 1.6496875 1.2575 1.6496875 0.5 2.3125 C-1.33218192 3.99740483 -1.33218192 3.99740483 -1 7 C-1.99 7.33 -2.98 7.66 -4 8 C-4 6.02 -4 4.04 -4 2 C-2.125 0.9375 -2.125 0.9375 0 0 Z " fill="#C8C3BE" transform="translate(328,272)"/>
<path d="M0 0 C3.36720387 1.39332574 4.9859524 2.9789286 7 6 C4 6 4 6 1.8125 4.125 C0 2 0 2 0 0 Z " fill="#E02838" transform="translate(172,201)"/>
<path d="M0 0 C1.03348696 3.10046087 1.17755913 4.05610218 0 7 C-0.99 7.33 -1.98 7.66 -3 8 C-2.25 2.25 -2.25 2.25 0 0 Z " fill="#B1B0AF" transform="translate(131,183)"/>
<path d="M0 0 C1.32 0 2.64 0 4 0 C4.33 1.65 4.66 3.3 5 5 C3.68 4.67 2.36 4.34 1 4 C1 3.34 1 2.68 1 2 C0.34 1.67 -0.32 1.34 -1 1 C-0.67 0.67 -0.34 0.34 0 0 Z " fill="#B9B7B7" transform="translate(386,124)"/>
<path d="M0 0 C3.36720387 1.39332574 4.9859524 2.9789286 7 6 C4 6 4 6 1.8125 4.125 C0 2 0 2 0 0 Z " fill="#E02839" transform="translate(342,115)"/>
<path d="M0 0 C1.1875 2.0625 1.1875 2.0625 2 4 C-1.14737182 3.30058404 -4.02588876 2.23921302 -7 1 C-3.375 -1.125 -3.375 -1.125 0 0 Z " fill="#D1CBC4" transform="translate(286,290)"/>
<path d="M0 0 C0.99 0.33 1.98 0.66 3 1 C3 2.98 3 4.96 3 7 C2.01 6.67 1.02 6.34 0 6 C0 4.02 0 2.04 0 0 Z " fill="#B0AFAE" transform="translate(126,142)"/>
<path d="M0 0 C1.65 0 3.3 0 5 0 C4.67 1.65 4.34 3.3 4 5 C2 3.625 2 3.625 0 2 C0 1.34 0 0.68 0 0 Z " fill="#E02639" transform="translate(347,110)"/>
<path d="M0 0 C2.25 0.25 2.25 0.25 4 1 C4 1.66 4 2.32 4 3 C1.36 3.33 -1.28 3.66 -4 4 C-2.25 1.9375 -2.25 1.9375 0 0 Z " fill="#BBB6B2" transform="translate(221,33)"/>
</svg>
