<?xml version="1.0" encoding="UTF-8"?>
<!DOCTYPE svg PUBLIC "-//W3C//DTD SVG 1.1//EN" "http://www.w3.org/Graphics/SVG/1.1/DTD/svg11.dtd">
<svg xmlns="http://www.w3.org/2000/svg" version="1.1" width="838px" height="1024px" style="shape-rendering:geometricPrecision; text-rendering:geometricPrecision; image-rendering:optimizeQuality; fill-rule:evenodd; clip-rule:evenodd" xmlns:xlink="http://www.w3.org/1999/xlink">
<g><path style="opacity:0.946" fill="#1a63b6" d="M 377.5,7.5 C 384.5,7.5 391.5,7.5 398.5,7.5C 397.392,9.69512 397.559,11.6951 399,13.5C 410.03,24.1959 420.697,35.1959 431,46.5C 431.667,34.8333 431.667,23.1667 431,11.5C 429.294,10.6921 428.461,9.3588 428.5,7.5C 434.5,7.5 440.5,7.5 446.5,7.5C 444.413,26.3741 443.913,45.3741 445,64.5C 446.188,65.5634 446.688,66.8967 446.5,68.5C 440.167,68.5 433.833,68.5 427.5,68.5C 427.815,66.7741 427.981,65.1075 428,63.5C 415.97,51.8043 404.304,39.8043 393,27.5C 392.333,39.5 392.333,51.5 393,63.5C 394.438,64.9003 395.271,66.567 395.5,68.5C 389.5,68.5 383.5,68.5 377.5,68.5C 377.312,66.8967 377.812,65.5634 379,64.5C 380.087,45.3741 379.587,26.3741 377.5,7.5 Z"/></g>
<g><path style="opacity:0.969" fill="#1a63b6" d="M 346.5,7.5 C 347.931,7.88066 348.764,8.88066 349,10.5C 349.9,14.8342 350.734,19.1676 351.5,23.5C 347.869,22.588 344.203,22.4213 340.5,23C 330.497,25.0005 320.497,27.0005 310.5,29C 309.692,29.3076 309.025,29.8076 308.5,30.5C 309.681,34.0716 310.348,37.7383 310.5,41.5C 317.873,40.6593 325.206,39.4926 332.5,38C 335.002,36.6625 337.002,34.8292 338.5,32.5C 340.155,38.7655 341.489,45.0988 342.5,51.5C 340.014,50.8709 337.681,49.8709 335.5,48.5C 328.178,49.9646 320.845,51.2979 313.5,52.5C 313.859,57.627 314.859,62.627 316.5,67.5C 329.223,64.8558 341.889,62.0224 354.5,59C 355.313,57.1153 356.647,56.4487 358.5,57C 359.981,62.046 360.981,67.2127 361.5,72.5C 359.512,72.1729 357.512,71.8396 355.5,71.5C 337.83,75.0019 320.164,78.1685 302.5,81C 302.043,80.586 301.709,80.086 301.5,79.5C 302.383,78.452 303.05,77.2853 303.5,76C 300.078,60.2209 296.911,44.3876 294,28.5C 292.87,26.0671 291.704,23.7338 290.5,21.5C 308.611,18.3445 326.611,14.6779 344.5,10.5C 345.425,9.64314 346.092,8.64314 346.5,7.5 Z"/></g>
<g><path style="opacity:0.963" fill="#1a63b6" d="M 525.5,22.5 C 540.054,21.9629 553.054,26.1296 564.5,35C 566.65,36.4114 568.984,37.2447 571.5,37.5C 571.649,38.552 571.483,39.552 571,40.5C 567.833,43.6667 564.667,46.8333 561.5,50C 560.552,50.4828 559.552,50.6495 558.5,50.5C 558.344,47.1589 557.011,44.3255 554.5,42C 546.896,35.8636 538.229,33.1969 528.5,34C 523.745,36.5095 523.412,39.5095 527.5,43C 536.833,47 546.167,51 555.5,55C 563.281,60.3509 565.448,67.5176 562,76.5C 557.396,83.8021 550.729,87.1355 542,86.5C 528.71,86.2931 516.876,82.1265 506.5,74C 504.655,72.872 502.655,72.372 500.5,72.5C 502.611,67.0406 505.945,62.374 510.5,58.5C 514.456,66.4908 520.79,71.6574 529.5,74C 534.428,75.4178 539.428,75.7511 544.5,75C 551.167,71.6667 551.167,68.3333 544.5,65C 535.339,61.7243 526.339,58.0577 517.5,54C 507.044,44.8184 507.044,35.4851 517.5,26C 520.158,24.522 522.825,23.3554 525.5,22.5 Z"/></g>
<g><path style="opacity:0.972" fill="#1a63b7" d="M 242.5,37.5 C 261.574,35.3915 273.408,43.7248 278,62.5C 280.884,76.8898 276.051,87.7232 263.5,95C 250.276,100.626 236.943,105.626 223.5,110C 222.273,108.413 222.606,107.079 224.5,106C 218.029,89.5863 211.362,73.253 204.5,57C 203.552,56.5172 202.552,56.3505 201.5,56.5C 201.561,53.9505 202.894,52.4505 205.5,52C 217.932,47.106 230.265,42.2727 242.5,37.5 Z M 245.5,48.5 C 251.005,48.278 255.505,50.278 259,54.5C 263.255,60.9229 265.255,67.9229 265,75.5C 264.3,79.0662 262.467,81.8995 259.5,84C 251.617,87.775 243.617,91.275 235.5,94.5C 230.358,82.3839 225.358,70.2172 220.5,58C 228.904,54.7034 237.238,51.5368 245.5,48.5 Z"/></g>
<g><path style="opacity:0.965" fill="#1a63b7" d="M 595.5,39.5 C 596.5,39.5 597.5,39.5 598.5,39.5C 598.297,41.3904 598.963,42.8904 600.5,44C 615.5,51 630.5,58 645.5,65C 647.488,65.1805 649.488,65.0138 651.5,64.5C 649.887,70.3925 647.22,75.7258 643.5,80.5C 642.573,79.0944 641.573,77.5944 640.5,76C 635.833,73.6667 631.167,71.3333 626.5,69C 625.365,68.2506 624.365,68.4173 623.5,69.5C 617.295,82.743 610.962,95.9097 604.5,109C 607.079,110.612 607.079,112.112 604.5,113.5C 598.888,111.361 593.554,108.694 588.5,105.5C 589.347,104.155 590.513,103.155 592,102.5C 598.372,88.9236 604.872,75.4236 611.5,62C 605.543,59.0701 599.543,56.2368 593.5,53.5C 592.522,53.9767 591.689,54.6433 591,55.5C 590.25,54.8742 589.416,54.3742 588.5,54C 590.703,49.0947 593.036,44.2614 595.5,39.5 Z"/></g>
<g><path style="opacity:0.971" fill="#1a63b7" d="M 147.5,84.5 C 150.124,86.1978 150.124,88.0312 147.5,90C 155.667,102.833 163.833,115.667 172,128.5C 181.581,121.958 191.414,115.791 201.5,110C 204.062,107.831 205.895,105.665 207,103.5C 209.902,106.959 212.568,110.626 215,114.5C 215.667,115.5 215.667,116.5 215,117.5C 213.575,118.212 212.075,118.379 210.5,118C 194.751,127.959 178.917,137.792 163,147.5C 161.173,145.76 161.34,144.093 163.5,142.5C 154.364,127.533 145.031,112.7 135.5,98C 133.616,97.7837 131.949,97.117 130.5,96C 136.232,92.1436 141.899,88.3103 147.5,84.5 Z"/></g>
<g><path style="opacity:0.995" fill="#1b64b6" d="M 391.5,85.5 C 519.858,82.5304 627.024,128.197 713,222.5C 799.54,326.997 828.873,445.997 801,579.5C 772.276,690.858 708.776,776.024 610.5,835C 501.363,894.267 388.029,903.601 270.5,863C 157.271,818.104 78.4372,738.937 34,625.5C -6.07929,508.675 3.25405,396.008 62,287.5C 120.827,188.39 206.327,124.556 318.5,96C 342.72,90.6592 367.053,87.1592 391.5,85.5 Z"/></g>
<g><path style="opacity:0.97" fill="#1a63b7" d="M 676.5,84.5 C 682.672,87.7554 688.339,91.7554 693.5,96.5C 692.711,98.4879 691.545,98.8213 690,97.5C 688.956,99.7148 688.29,102.048 688,104.5C 686.159,121.229 683.992,137.896 681.5,154.5C 683.922,156.94 683.922,159.274 681.5,161.5C 675.658,157.746 669.991,153.746 664.5,149.5C 665.32,147.889 666.654,147.222 668.5,147.5C 669.331,143.524 669.497,139.524 669,135.5C 662.167,130.667 655.333,125.833 648.5,121C 644.894,121.631 641.561,123.131 638.5,125.5C 637.269,126.651 637.269,127.817 638.5,129C 637.892,129.87 637.059,130.37 636,130.5C 631.429,127.462 626.929,124.295 622.5,121C 641.019,111.134 659.019,100.467 676.5,89C 675.278,87.437 675.278,85.937 676.5,84.5 Z M 673.5,104.5 C 673.96,111.114 673.126,117.781 671,124.5C 666.252,121.209 661.419,118.042 656.5,115C 662.231,111.475 667.897,107.975 673.5,104.5 Z"/></g>
<g><path style="opacity:1" fill="#f7bd1a" d="M 387.5,105.5 C 514.837,101.516 619.004,148.183 700,245.5C 776.007,346.92 797.007,458.92 763,581.5C 724.212,699.665 646.378,780.165 529.5,823C 398.349,863.443 279.349,841.109 172.5,756C 73.5577,667.21 31.0577,556.377 45,423.5C 65.8595,299.035 131.359,206.535 241.5,146C 287.506,122.605 336.173,109.105 387.5,105.5 Z"/></g>
<g><path style="opacity:0.977" fill="#1a63b7" d="M 722.5,113.5 C 723.496,113.414 724.329,113.748 725,114.5C 725,115.833 725,117.167 725,118.5C 737.738,130.45 750.572,142.283 763.5,154C 764.549,154.492 765.549,154.326 766.5,153.5C 767.5,153.833 768.167,154.5 768.5,155.5C 765.542,160.126 761.876,164.126 757.5,167.5C 755.512,166.711 755.179,165.545 756.5,164C 751.908,158.373 746.575,154.04 740.5,151C 730.869,162.299 720.869,173.299 710.5,184C 711.337,185.011 711.67,186.178 711.5,187.5C 710.448,187.649 709.448,187.483 708.5,187C 704.625,182.957 700.625,179.123 696.5,175.5C 702.065,171.443 707.232,166.776 712,161.5C 718.353,154.648 724.519,147.648 730.5,140.5C 726.648,135.815 722.315,131.648 717.5,128C 715.866,127.506 714.199,127.34 712.5,127.5C 712.351,126.448 712.517,125.448 713,124.5C 716.75,121.256 719.917,117.589 722.5,113.5 Z"/></g>
<g><path style="opacity:0.971" fill="#1a63b7" d="M 103.5,123.5 C 120.248,121.783 131.415,128.783 137,144.5C 138.14,169.349 126.64,185.182 102.5,192C 79.3414,193.507 67.8414,182.674 68,159.5C 72.6775,140.323 84.5109,128.323 103.5,123.5 Z M 101.5,136.5 C 118.348,135.18 125.848,142.847 124,159.5C 117.574,176.463 105.741,182.297 88.5,177C 78.8317,167.973 77.9984,158.139 86,147.5C 90.1272,142.202 95.2939,138.535 101.5,136.5 Z"/></g>
<g><path style="opacity:1" fill="#1a64b6" d="M 285.5,385.5 C 275.452,374.785 265.119,364.452 254.5,354.5C 249.9,348.725 245.066,343.059 240,337.5C 239.393,322.153 238.559,306.82 237.5,291.5C 234.241,289.969 230.907,288.636 227.5,287.5C 224.385,289.439 221.385,291.606 218.5,294C 217.691,299.417 217.191,304.917 217,310.5C 214.957,308.792 213.29,306.792 212,304.5C 211.5,296.173 211.334,287.84 211.5,279.5C 206.5,279.5 201.5,279.5 196.5,279.5C 196.5,282.5 196.5,285.5 196.5,288.5C 193.482,288.704 190.482,289.037 187.5,289.5C 187.172,306.503 186.672,323.503 186,340.5C 161.069,398.41 129.069,451.743 90,500.5C 83,508.167 76,515.833 69,523.5C 55.526,417.95 83.1926,324.95 152,244.5C 242.249,148.974 352.416,112.807 482.5,136C 592.229,162.418 672.396,225.918 723,326.5C 762.733,415.426 766.066,505.759 733,597.5C 728.424,608.981 723.59,620.315 718.5,631.5C 642.065,614.281 569.732,586.448 501.5,548C 422.545,503.229 350.545,449.063 285.5,385.5 Z"/></g>
<g><path style="opacity:0.973" fill="#1a63b6" d="M 782.5,175.5 C 793.517,188.359 804.017,201.693 814,215.5C 815.333,216.833 816.667,218.167 818,219.5C 819.545,218.179 820.711,218.512 821.5,220.5C 817.717,224.696 813.384,227.862 808.5,230C 807.949,226.911 806.783,224.078 805,221.5C 798.355,212.524 791.355,203.858 784,195.5C 780.76,197.875 777.594,200.375 774.5,203C 779.018,209.697 784.018,216.03 789.5,222C 790.549,222.492 791.549,222.326 792.5,221.5C 793.5,221.833 794.167,222.5 794.5,223.5C 791.339,226.491 788.005,229.325 784.5,232C 782.783,233.559 780.783,234.392 778.5,234.5C 778.297,232.61 778.963,231.11 780.5,230C 775.717,222.883 770.551,216.05 765,209.5C 761.328,212.342 757.828,215.342 754.5,218.5C 761.667,228.167 768.833,237.833 776,247.5C 778.268,248.76 780.434,250.094 782.5,251.5C 778.746,255.548 774.413,258.882 769.5,261.5C 768.729,259.138 767.895,256.804 767,254.5C 756.046,240.757 745.213,226.924 734.5,213C 736.285,211.837 738.285,211.17 740.5,211C 753.729,200.138 767.229,189.638 781,179.5C 781.617,178.551 781.451,177.718 780.5,177C 781.416,176.722 782.082,176.222 782.5,175.5 Z"/></g>
<g><path style="opacity:0.97" fill="#1a63b7" d="M 36.5,185.5 C 37.4959,185.414 38.3292,185.748 39,186.5C 41.7012,191.041 44.2012,195.708 46.5,200.5C 44.8817,202.836 43.0483,202.836 41,200.5C 28.9552,206.605 21.7885,216.271 19.5,229.5C 21.4485,241.332 28.4485,247.999 40.5,249.5C 49.7546,247.791 56.5879,242.791 61,234.5C 63.3109,230.046 65.4776,225.546 67.5,221C 65,219.167 62.5,217.333 60,215.5C 57.578,219.344 54.9113,223.01 52,226.5C 51.3486,228.235 51.5153,229.902 52.5,231.5C 52.1667,232.5 51.5,233.167 50.5,233.5C 46.5,230.5 42.5,227.5 38.5,224.5C 41.1593,223.188 43.6593,221.521 46,219.5C 50.6398,212.693 55.4731,206.027 60.5,199.5C 61.325,198.614 62.325,198.281 63.5,198.5C 62.9586,201.652 63.9586,204.152 66.5,206C 70.5451,209.259 74.8784,211.759 79.5,213.5C 77.1202,229.427 70.1202,242.927 58.5,254C 48.1655,261.961 36.8322,263.627 24.5,259C 10.819,251.47 5.31896,239.97 8,224.5C 13.2407,209.927 22.2407,198.26 35,189.5C 35.4101,188.099 35.9101,186.766 36.5,185.5 Z"/></g>
<g><path style="opacity:1" fill="#2b66b1" d="M 212.5,311.5 C 214.129,312.625 215.629,313.959 217,315.5C 220.801,433.827 224.301,552.16 227.5,670.5C 225.167,670.5 222.833,670.5 220.5,670.5C 216.121,550.877 213.455,431.21 212.5,311.5 Z"/></g>
<g><path style="opacity:1" fill="#2064b5" d="M 239.5,340.5 C 241.99,344.446 243.824,348.78 245,353.5C 277.143,455.427 308.976,557.427 340.5,659.5C 333.455,659.704 326.455,660.371 319.5,661.5C 318.353,661.182 317.519,660.516 317,659.5C 292,578.833 267,498.167 242,417.5C 241.29,391.824 240.457,366.157 239.5,340.5 Z"/></g>
<g><path style="opacity:1" fill="#d9b135" d="M 254.5,354.5 C 265.119,364.452 275.452,374.785 285.5,385.5C 285.436,386.365 285.103,387.365 284.5,388.5C 274.558,377.222 264.225,366.222 253.5,355.5C 252.443,354.794 252.776,354.461 254.5,354.5 Z"/></g>
<g><path style="opacity:1" fill="#2064b5" d="M 253.5,355.5 C 264.225,366.222 274.558,377.222 284.5,388.5C 312.425,477.943 340.758,567.276 369.5,656.5C 363.858,657.37 358.191,658.037 352.5,658.5C 350.9,658.449 349.4,658.116 348,657.5C 316.797,556.724 285.297,456.057 253.5,355.5 Z"/></g>
<g><path style="opacity:1" fill="#2165b5" d="M 184.5,356.5 C 166.912,462.394 148.412,568.394 129,674.5C 124.667,667.833 120.333,661.167 116,654.5C 129.184,573.415 143.184,492.415 158,411.5C 167.39,393.389 176.223,375.055 184.5,356.5 Z"/></g>
<g><path style="opacity:1" fill="#1f64b5" d="M 296.5,399.5 C 306.776,408.605 316.943,417.939 327,427.5C 351.148,503.432 374.981,579.432 398.5,655.5C 391.142,655.418 383.809,655.752 376.5,656.5C 350.24,570.719 323.573,485.052 296.5,399.5 Z"/></g>
<g><path style="opacity:1" fill="#2365b4" d="M 184.5,403.5 C 185.166,409.491 185.5,415.657 185.5,422C 184.681,456.5 183.848,491 183,525.5C 173.322,576.749 164.155,628.082 155.5,679.5C 148.99,679.477 142.657,680.477 136.5,682.5C 136.167,681.667 135.833,680.833 135.5,680C 152.16,587.878 168.493,495.711 184.5,403.5 Z"/></g>
<g><path style="opacity:1" fill="#2265b4" d="M 145.5,433.5 C 146.097,433.735 146.43,434.235 146.5,435C 134.064,504.448 121.897,573.948 110,643.5C 104.635,635.602 100.468,627.102 97.5,618C 106.495,568.861 115.329,519.695 124,470.5C 131.178,458.139 138.345,445.806 145.5,433.5 Z"/></g>
<g><path style="opacity:1" fill="#2064b5" d="M 338.5,438.5 C 348.25,446.472 357.75,454.806 367,463.5C 387.068,526.536 407.234,589.536 427.5,652.5C 421.858,653.37 416.191,654.037 410.5,654.5C 408.68,654.351 407.18,653.684 406,652.5C 383.595,581.118 361.095,509.785 338.5,438.5 Z"/></g>
<g><path style="opacity:1" fill="#2265b4" d="M 243.5,451.5 C 266.276,521.501 288.276,591.834 309.5,662.5C 304.134,662.323 298.8,662.656 293.5,663.5C 292.006,663.291 290.839,662.624 290,661.5C 275.667,616.167 261.333,570.833 247,525.5C 245.44,500.849 244.273,476.182 243.5,451.5 Z"/></g>
<g><path style="opacity:1" fill="#1f64b5" d="M 457.5,650.5 C 454.833,651.167 452.167,651.833 449.5,652.5C 444.5,652.5 439.5,652.5 434.5,652.5C 415.739,592.389 396.906,532.389 378,472.5C 388.852,481.262 399.519,490.262 410,499.5C 425.941,549.821 441.774,600.155 457.5,650.5 Z"/></g>
<g><path style="opacity:1" fill="#2265b4" d="M 112.5,488.5 C 106.95,528.136 100.116,567.802 92,607.5C 88.8035,599.578 85.8035,591.578 83,583.5C 82.5752,579.131 82.9085,574.797 84,570.5C 88.4406,551.522 92.774,532.522 97,513.5C 102.178,505.139 107.344,496.805 112.5,488.5 Z"/></g>
<g><path style="opacity:1" fill="#2064b5" d="M 420.5,507.5 C 428.622,513.115 436.622,518.949 444.5,525C 446.378,526.543 447.878,528.376 449,530.5C 461.761,570.386 474.595,610.219 487.5,650C 480.159,650.478 472.826,650.978 465.5,651.5C 450.9,603.368 435.9,555.368 420.5,507.5 Z"/></g>
<g><path style="opacity:1" fill="#2a67b1" d="M 83.5,532.5 C 81.8876,541.98 79.721,551.647 77,561.5C 74.7325,556.713 73.7325,551.713 74,546.5C 77.3879,541.952 80.5546,537.286 83.5,532.5 Z"/></g>
<g><path style="opacity:1" fill="#2064b5" d="M 516.5,648.5 C 512.167,649.167 507.833,649.833 503.5,650.5C 500.5,650.5 497.5,650.5 494.5,650.5C 483.074,612.396 471.574,574.396 460,536.5C 469,542.833 478,549.167 487,555.5C 497.34,586.354 507.174,617.354 516.5,648.5 Z"/></g>
<g><path style="opacity:1" fill="#9a975c" d="M 249.5,558.5 C 248.662,558.842 248.328,559.508 248.5,560.5C 247.371,558.372 247.204,556.039 248,553.5C 248.608,555.154 249.108,556.821 249.5,558.5 Z"/></g>
<g><path style="opacity:1" fill="#2565b4" d="M 249.5,558.5 C 260.904,593.712 271.904,629.046 282.5,664.5C 273.479,665.435 264.479,666.435 255.5,667.5C 253.901,655.884 252.735,644.218 252,632.5C 250.87,608.494 249.703,584.494 248.5,560.5C 248.328,559.508 248.662,558.842 249.5,558.5 Z"/></g>
<g><path style="opacity:1" fill="#2265b4" d="M 497.5,562.5 C 507.05,569.197 516.883,575.53 527,581.5C 534.348,604.041 541.181,626.708 547.5,649.5C 539.833,649.5 532.167,649.5 524.5,649.5C 515.698,620.428 506.698,591.428 497.5,562.5 Z"/></g>
<g><path style="opacity:1" fill="#2365b4" d="M 181.5,573.5 C 182.494,583.653 182.828,593.986 182.5,604.5C 182.5,628.167 182.5,651.833 182.5,675.5C 176.218,676.577 169.884,677.243 163.5,677.5C 169.407,642.818 175.407,608.151 181.5,573.5 Z"/></g>
<g><path style="opacity:1" fill="#2065b5" d="M 536.5,588.5 C 536.897,587.475 537.563,587.308 538.5,588C 546.667,592.833 554.833,597.667 563,602.5C 567.734,617.536 572.568,632.536 577.5,647.5C 570.167,648.833 562.833,648.833 555.5,647.5C 549.61,627.578 543.277,607.911 536.5,588.5 Z"/></g>
<g><path style="opacity:1" fill="#6f847d" d="M 182.5,604.5 C 182.828,593.986 182.494,583.653 181.5,573.5C 181.998,570.513 182.498,567.513 183,564.5C 183.827,578.006 183.66,591.34 182.5,604.5 Z"/></g>
<g><path style="opacity:1" fill="#2265b4" d="M 572.5,607.5 C 581.227,612.281 590.061,616.948 599,621.5C 602.139,630.416 604.972,639.416 607.5,648.5C 599.833,648.5 592.167,648.5 584.5,648.5C 580.908,634.722 576.908,621.055 572.5,607.5 Z"/></g>
<g><path style="opacity:1" fill="#2065b5" d="M 662.5,647.5 C 658.366,648.485 654.032,648.818 649.5,648.5C 638.147,648.832 626.814,648.499 615.5,647.5C 612.59,640.281 610.423,632.948 609,625.5C 626.326,634.08 644.16,641.414 662.5,647.5 Z"/></g>
<g><path style="opacity:1" fill="#909363" d="M 662.5,647.5 C 663.922,647.709 665.255,648.209 666.5,649C 660.651,649.818 654.985,649.652 649.5,648.5C 654.032,648.818 658.366,648.485 662.5,647.5 Z"/></g>
<g><path style="opacity:1" fill="#a19a58" d="M 516.5,648.5 C 517.043,648.56 517.376,648.893 517.5,649.5C 512.88,650.493 508.214,650.827 503.5,650.5C 507.833,649.833 512.167,649.167 516.5,648.5 Z"/></g>
<g><path style="opacity:1" fill="#838d6e" d="M 457.5,650.5 C 458.043,650.56 458.376,650.893 458.5,651.5C 455.572,652.484 452.572,652.817 449.5,652.5C 452.167,651.833 454.833,651.167 457.5,650.5 Z"/></g>
<g><path style="opacity:1" fill="#2d67b1" d="M 650.5,704.5 C 655.5,705.167 660.5,705.833 665.5,706.5C 663.221,710.462 659.887,712.795 655.5,713.5C 618.235,710.478 580.902,708.645 543.5,708C 491.504,707.015 439.504,706.515 387.5,706.5C 383.629,706.815 379.962,706.482 376.5,705.5C 467.825,703.306 559.158,702.973 650.5,704.5 Z"/></g>
<g><path style="opacity:1" fill="#5f7f87" d="M 650.5,704.5 C 655.875,704.172 661.208,704.505 666.5,705.5C 666.376,706.107 666.043,706.44 665.5,706.5C 660.5,705.833 655.5,705.167 650.5,704.5 Z"/></g>
<g><path style="opacity:1" fill="#758679" d="M 376.5,705.5 C 379.962,706.482 383.629,706.815 387.5,706.5C 369.671,707.662 351.671,707.829 333.5,707C 347.829,706.306 362.162,705.806 376.5,705.5 Z"/></g>
<g><path style="opacity:1" fill="#1c64b6" d="M 322.5,718.5 C 405.208,717.917 487.875,719.417 570.5,723C 594.909,724.296 619.243,726.296 643.5,729C 564.945,798.181 473.278,827.514 368.5,817C 332.587,812.606 298.254,802.772 265.5,787.5C 262.181,764.945 259.848,742.279 258.5,719.5C 280.007,719.831 301.34,719.497 322.5,718.5 Z"/></g>
<g><path style="opacity:1" fill="#868f6a" d="M 230.5,721.5 C 228.167,721.5 225.833,721.5 223.5,721.5C 223.5,724.167 223.5,726.833 223.5,729.5C 222.523,726.713 222.19,723.713 222.5,720.5C 225.385,720.194 228.052,720.527 230.5,721.5 Z"/></g>
<g><path style="opacity:1" fill="#2766b3" d="M 230.5,721.5 C 231.446,737.854 232.28,754.187 233,770.5C 230.667,768.833 228.333,767.167 226,765.5C 224.835,753.519 224.001,741.519 223.5,729.5C 223.5,726.833 223.5,724.167 223.5,721.5C 225.833,721.5 228.167,721.5 230.5,721.5 Z"/></g>
<g><path style="opacity:1" fill="#386aab" d="M 171.5,723.5 C 175.298,722.517 179.298,722.183 183.5,722.5C 183.665,726.182 183.499,729.848 183,733.5C 178.999,730.331 175.166,726.997 171.5,723.5 Z"/></g>
<g><path style="opacity:0.987" fill="#1a63b7" d="M 769.5,724.5 C 770.822,724.33 771.989,724.663 773,725.5C 777.231,733.606 780.564,741.939 783,750.5C 763.795,751.656 749.795,760.989 741,778.5C 739.077,782.862 739.077,787.195 741,791.5C 744.273,795.311 747.773,795.478 751.5,792C 760.53,782.636 769.863,773.636 779.5,765C 795.794,752.714 810.961,753.881 825,768.5C 831.587,779.739 832.254,791.406 827,803.5C 816.525,824.142 800.691,839.142 779.5,848.5C 778.901,851.067 777.401,852.734 775,853.5C 770.004,845.514 765.504,837.18 761.5,828.5C 762.171,827.054 763.338,826.388 765,826.5C 767.092,826.879 769.092,827.546 771,828.5C 787.231,823.604 799.231,813.604 807,798.5C 809.153,793.396 808.987,788.396 806.5,783.5C 804.999,782.248 803.332,781.248 801.5,780.5C 799.833,781.333 798.167,782.167 796.5,783C 786.53,791.97 776.863,801.303 767.5,811C 747.471,823.867 731.638,820.034 720,799.5C 716.37,784.686 719.37,771.353 729,759.5C 738.827,747.007 750.993,737.507 765.5,731C 767.666,729.322 768.999,727.155 769.5,724.5 Z"/></g>
<g><path style="opacity:0.984" fill="#1a63b6" d="M 61.5,748.5 C 62.552,748.351 63.552,748.517 64.5,749C 73.0173,757.018 81.684,764.852 90.5,772.5C 89.2179,776.671 87.0512,777.338 84,774.5C 83.0754,775.047 82.2421,775.713 81.5,776.5C 74.0965,793.614 67.5965,810.948 62,828.5C 78.2995,819.934 94.7995,811.767 111.5,804C 113.8,801.995 113.8,799.828 111.5,797.5C 112.167,796.167 113.167,795.167 114.5,794.5C 124.611,802.442 134.278,810.942 143.5,820C 142.333,821.167 141.167,822.333 140,823.5C 137.28,820.681 134.947,821.014 133,824.5C 126.888,841.507 120.388,858.34 113.5,875C 130.3,867.267 146.967,858.933 163.5,850C 164.866,847.618 164.533,845.452 162.5,843.5C 163.212,841.954 164.378,840.954 166,840.5C 174.952,847.782 183.619,855.449 192,863.5C 192.667,864.5 192.667,865.5 192,866.5C 187.834,866.229 183.667,866.729 179.5,868C 153.5,881.333 127.5,894.667 101.5,908C 100.134,910.382 100.467,912.548 102.5,914.5C 101.788,916.046 100.622,917.046 99,917.5C 90.0381,910.373 81.5381,902.706 73.5,894.5C 74.2116,892.954 75.3783,891.954 77,891.5C 80.5004,893.25 82.8337,892.25 84,888.5C 91.2956,869.939 97.9623,851.272 104,832.5C 85.5777,841.961 67.0777,851.295 48.5,860.5C 47.2885,862.841 47.6218,865.007 49.5,867C 48.3816,868.074 47.3816,869.24 46.5,870.5C 37.8333,862.833 29.1667,855.167 20.5,847.5C 21.2116,845.954 22.3783,844.954 24,844.5C 28.3209,845.891 30.9876,844.224 32,839.5C 42.3716,812.049 52.5383,784.549 62.5,757C 61.782,755.013 60.782,753.179 59.5,751.5C 60.1925,750.482 60.8592,749.482 61.5,748.5 Z"/></g>
<g><path style="opacity:0.984" fill="#1a63b7" d="M 694.5,805.5 C 713.571,803.736 725.738,812.07 731,830.5C 732.462,840.575 729.628,849.242 722.5,856.5C 736.143,861.37 749.976,865.704 764,869.5C 767.373,866.61 770.206,866.943 772.5,870.5C 762.788,879.041 752.622,887.041 742,894.5C 739.296,892.35 739.129,890.184 741.5,888C 741.167,887.667 740.833,887.333 740.5,887C 727.896,882.688 715.396,878.188 703,873.5C 695.898,878.302 689.064,883.469 682.5,889C 689,897.5 695.5,906 702,914.5C 704,915.833 706,915.833 708,914.5C 709.236,915.399 710.07,916.566 710.5,918C 702.324,925.33 693.657,932.163 684.5,938.5C 680.861,936.724 680.528,934.39 683.5,931.5C 665.938,907.013 647.438,883.346 628,860.5C 625.063,861.949 622.896,861.115 621.5,858C 639.5,844 657.5,830 675.5,816C 681.316,811.428 687.649,807.928 694.5,805.5 Z M 694.5,827.5 C 701.653,828.14 706.319,831.974 708.5,839C 707.863,841.245 707.03,843.412 706,845.5C 694.622,855.213 682.955,864.547 671,873.5C 666.167,867.333 661.333,861.167 656.5,855C 666.785,847.716 676.785,840.05 686.5,832C 689.099,830.205 691.766,828.705 694.5,827.5 Z"/></g>
<g><path style="opacity:0.985" fill="#1a63b6" d="M 205.5,861.5 C 217.022,867.094 228.356,872.927 239.5,879C 239.241,880.261 238.574,881.261 237.5,882C 235.273,882.121 233.44,882.954 232,884.5C 231.333,914.833 231.333,945.167 232,975.5C 231.788,979.769 233.288,983.269 236.5,986C 235.663,987.011 235.33,988.178 235.5,989.5C 223.667,984.554 212,979.221 200.5,973.5C 199.355,972.224 199.355,970.891 200.5,969.5C 202.686,968.779 204.853,968.113 207,967.5C 207.667,961.167 207.667,954.833 207,948.5C 194.911,942.206 182.745,936.039 170.5,930C 168.212,929.582 166.212,930.249 164.5,932C 160.701,934.797 157.201,937.964 154,941.5C 154.24,943.467 155.073,945.3 156.5,947C 156.275,948.621 155.442,949.788 154,950.5C 143.282,945.558 132.782,940.224 122.5,934.5C 122.833,933.833 123.167,933.167 123.5,932.5C 128.553,932.305 132.887,930.472 136.5,927C 158.833,909.167 181.167,891.333 203.5,873.5C 206.167,870.833 206.167,868.167 203.5,865.5C 204.18,864.14 204.847,862.807 205.5,861.5 Z M 208.5,897.5 C 208.667,908.505 208.5,919.505 208,930.5C 199.7,925.933 191.2,921.767 182.5,918C 190.773,910.548 199.44,903.714 208.5,897.5 Z"/></g>
<g><path style="opacity:0.985" fill="#1a63b7" d="M 591.5,871.5 C 620.997,870.185 640.163,883.519 649,911.5C 653.673,942.989 641.173,964.489 611.5,976C 590.07,985.098 570.07,982.765 551.5,969C 532.243,948.96 528.743,926.46 541,901.5C 547.971,891.867 556.804,884.367 567.5,879C 575.401,875.753 583.401,873.253 591.5,871.5 Z M 588.5,892.5 C 611.103,892.932 623.77,904.432 626.5,927C 623.7,947.921 611.7,959.088 590.5,960.5C 570.333,957.662 559.333,945.995 557.5,925.5C 559.968,907.034 570.302,896.034 588.5,892.5 Z"/></g>
<g><path style="opacity:0.985" fill="#1a63b6" d="M 265.5,892.5 C 290.632,896.96 315.632,902.126 340.5,908C 359.176,913.696 366.676,926.196 363,945.5C 358.449,961.019 347.949,968.519 331.5,968C 337.329,980.816 343.163,993.649 349,1006.5C 350.378,1008.21 352.045,1009.55 354,1010.5C 354.49,1011.79 354.657,1013.13 354.5,1014.5C 341.779,1012.49 329.112,1010.15 316.5,1007.5C 316.197,1004.41 317.53,1002.75 320.5,1002.5C 316.233,989.365 311.566,976.365 306.5,963.5C 298.661,961.916 290.828,960.249 283,958.5C 282.5,958.833 282,959.167 281.5,959.5C 279.294,969.862 276.961,980.195 274.5,990.5C 275.48,991.981 276.647,993.315 278,994.5C 278.684,995.784 278.517,996.951 277.5,998C 266.294,997.059 255.294,994.892 244.5,991.5C 245.233,988.599 247.067,986.933 250,986.5C 257.033,957.336 263.033,928.002 268,898.5C 266.926,897.382 265.76,896.382 264.5,895.5C 265.127,894.583 265.461,893.583 265.5,892.5 Z M 290.5,916.5 C 305.337,919.301 320.003,922.801 334.5,927C 340.204,931.963 341.038,937.797 337,944.5C 334.384,946.69 331.384,948.024 328,948.5C 314.152,945.697 300.319,942.697 286.5,939.5C 286.167,939 285.833,938.5 285.5,938C 287.237,930.81 288.903,923.644 290.5,916.5 Z"/></g>
<g><path style="opacity:0.981" fill="#1a63b6" d="M 511.5,899.5 C 512.833,899.5 514.167,899.5 515.5,899.5C 515.66,901.199 515.494,902.866 515,904.5C 512.67,906.664 512.003,909.331 513,912.5C 518.746,939.229 524.746,965.896 531,992.5C 533.2,993.836 535.033,995.502 536.5,997.5C 536.182,998.647 535.516,999.481 534.5,1000C 524.186,1002.33 513.852,1004.5 503.5,1006.5C 503.34,1004.8 503.506,1003.13 504,1001.5C 505.698,1000.47 506.532,998.971 506.5,997C 500.57,969.114 494.403,941.28 488,913.5C 485.907,912.089 484.074,910.422 482.5,908.5C 482.608,907.558 482.941,906.725 483.5,906C 493.035,904.13 502.368,901.964 511.5,899.5 Z"/></g>
<g><path style="opacity:0.985" fill="#1963b6" d="M 434.5,911.5 C 441.86,911.558 449.194,912.058 456.5,913C 468.342,915.509 475.509,922.676 478,934.5C 481.603,954.302 473.769,966.969 454.5,972.5C 464.621,986.695 475.288,999.695 486.5,1011.5C 473.849,1012.51 461.183,1013.18 448.5,1013.5C 449.244,1010.67 450.078,1008.01 451,1005.5C 443.5,995.333 436,985.167 428.5,975C 420.254,974.185 412.088,974.352 404,975.5C 403.251,986.532 403.585,997.532 405,1008.5C 406.154,1009.74 407.488,1010.74 409,1011.5C 409.492,1012.55 409.326,1013.55 408.5,1014.5C 397.514,1015.46 386.514,1016.12 375.5,1016.5C 374.923,1013.45 376.09,1011.45 379,1010.5C 379.119,980.801 378.119,951.134 376,921.5C 374.846,920.257 373.512,919.257 372,918.5C 371.508,917.451 371.674,916.451 372.5,915.5C 393.296,913.872 413.963,912.538 434.5,911.5 Z M 437.5,930.5 C 442.704,930.614 447.537,931.947 452,934.5C 457.127,944.138 454.627,950.638 444.5,954C 430.8,954.794 417.133,955.627 403.5,956.5C 401.88,948.25 401.213,939.917 401.5,931.5C 413.678,931.828 425.678,931.495 437.5,930.5 Z"/></g>
</svg>
