<?xml version="1.0" encoding="UTF-8"?>
<!DOCTYPE svg PUBLIC "-//W3C//DTD SVG 1.1//EN" "http://www.w3.org/Graphics/SVG/1.1/DTD/svg11.dtd">
<svg xmlns="http://www.w3.org/2000/svg" version="1.1" width="1200px" height="1200px" style="shape-rendering:geometricPrecision; text-rendering:geometricPrecision; image-rendering:optimizeQuality; fill-rule:evenodd; clip-rule:evenodd" xmlns:xlink="http://www.w3.org/1999/xlink">
<g><path style="opacity:0.982" fill="#9fa0a1" d="M 528.5,200.5 C 522.372,222.057 516.538,243.724 511,265.5C 507.563,280.019 504.896,294.685 503,309.5C 501.301,310.406 499.467,310.739 497.5,310.5C 503.019,274.76 511.519,239.76 523,205.5C 524.704,203.627 526.537,201.96 528.5,200.5 Z"/></g>
<g><path style="opacity:0.994" fill="#ef0d40" d="M 528.5,200.5 C 529.497,200.47 530.164,200.97 530.5,202C 541.475,234.71 548.809,268.21 552.5,302.5C 553.449,303.152 554.615,303.486 556,303.5C 561.338,303.02 566.505,302.353 571.5,301.5C 598.597,299.369 625.597,300.536 652.5,305C 675.045,309.02 694.212,319.187 710,335.5C 720.968,351.63 724.301,369.296 720,388.5C 715.567,407.406 705.734,422.74 690.5,434.5C 673.486,446.292 654.82,454.626 634.5,459.5C 632.518,459.995 630.518,460.495 628.5,461C 631.039,461.796 633.372,461.629 635.5,460.5C 639.833,460.5 644.167,460.5 648.5,460.5C 663.09,459.731 676.756,462.898 689.5,470C 696.344,474.849 700.844,481.349 703,489.5C 703.5,516.165 703.667,542.831 703.5,569.5C 707.833,569.5 712.167,569.5 716.5,569.5C 721.155,570.166 725.988,570.499 731,570.5C 736.216,570.494 741.049,569.827 745.5,568.5C 775.437,569.51 805.104,573.01 834.5,579C 854.349,582.765 872.683,590.099 889.5,601C 896.771,606.374 900.105,613.541 899.5,622.5C 894.305,630.795 887.305,637.295 878.5,642C 846.839,656.108 813.839,665.774 779.5,671C 753.626,675.479 727.626,678.979 701.5,681.5C 701.216,683.415 701.549,685.081 702.5,686.5C 700.208,779.494 698.208,872.494 696.5,965.5C 695.1,964.9 694.1,963.9 693.5,962.5C 692.523,909.819 691.023,857.152 689,804.5C 686.204,798.342 682.871,798.008 679,803.5C 678.53,804.577 678.697,805.577 679.5,806.5C 677.067,850.088 675.067,893.755 673.5,937.5C 672.833,936.167 672.167,934.833 671.5,933.5C 670.064,883.154 668.231,832.821 666,782.5C 664.155,778.205 661.488,777.538 658,780.5C 657.51,781.793 657.343,783.127 657.5,784.5C 655.857,824.362 653.523,864.029 650.5,903.5C 648.438,837.172 646.438,770.839 644.5,704.5C 644.5,697.833 644.5,691.167 644.5,684.5C 636.981,684.175 629.648,684.508 622.5,685.5C 600.484,685.741 578.484,685.408 556.5,684.5C 556.205,686.735 556.539,688.735 557.5,690.5C 554.977,759.82 552.643,829.153 550.5,898.5C 549.833,888.5 549.167,878.5 548.5,868.5C 547.888,828.486 546.722,788.486 545,748.5C 542.865,743.675 540.199,743.341 537,747.5C 536.517,748.448 536.351,749.448 536.5,750.5C 533.789,787.83 531.122,825.163 528.5,862.5C 527.833,861.167 527.167,859.833 526.5,858.5C 525.777,814.156 524.611,769.823 523,725.5C 521.155,721.205 518.488,720.538 515,723.5C 514.51,724.793 514.343,726.127 514.5,727.5C 511.741,759.129 509.407,790.796 507.5,822.5C 505.902,820.143 504.902,817.477 504.5,814.5C 503.013,769.838 501.68,725.171 500.5,680.5C 455.798,677.567 411.798,670.4 368.5,659C 351.655,654.276 335.655,647.61 320.5,639C 300.957,625.469 300.624,611.636 319.5,597.5C 321.674,597.25 323.341,596.25 324.5,594.5C 325.514,593.326 326.847,592.66 328.5,592.5C 331.241,592.293 333.574,591.293 335.5,589.5C 341.921,588.471 347.921,586.471 353.5,583.5C 354.568,582.566 355.901,582.232 357.5,582.5C 362.12,582.26 366.453,581.26 370.5,579.5C 374.078,579.451 377.411,578.785 380.5,577.5C 402.79,572.883 425.457,570.55 448.5,570.5C 464.833,570.5 481.167,570.5 497.5,570.5C 497.5,570.833 497.5,571.167 497.5,571.5C 465.243,575.465 433.243,580.965 401.5,588C 390.61,590.629 380.277,594.629 370.5,600C 368.627,601.704 366.96,603.537 365.5,605.5C 364.632,611.787 366.632,617.12 371.5,621.5C 371.973,622.906 372.973,623.573 374.5,623.5C 374.973,624.906 375.973,625.573 377.5,625.5C 378.492,625.328 379.158,625.662 379.5,626.5C 380.911,628.539 382.911,629.539 385.5,629.5C 386.78,630.931 388.447,631.598 390.5,631.5C 391.78,632.931 393.447,633.598 395.5,633.5C 396.791,633.263 397.791,633.596 398.5,634.5C 401.381,636.68 404.714,637.68 408.5,637.5C 417.049,639.055 425.382,641.055 433.5,643.5C 436.876,645.082 440.542,645.749 444.5,645.5C 447.544,647.011 450.878,647.678 454.5,647.5C 459.103,649.328 463.769,649.661 468.5,648.5C 476.816,649.593 485.15,650.593 493.5,651.5C 495.379,652.341 497.379,652.675 499.5,652.5C 499.5,637.833 499.5,623.167 499.5,608.5C 500.495,596.011 500.829,583.344 500.5,570.5C 500.009,510.993 499.009,451.493 497.5,392C 497.494,374.468 498.161,356.968 499.5,339.5C 500.477,336.713 500.81,333.713 500.5,330.5C 489.986,330.172 479.653,330.506 469.5,331.5C 446.786,331.69 424.12,332.69 401.5,334.5C 402.167,333.833 402.833,333.167 403.5,332.5C 407.286,332.68 410.619,331.68 413.5,329.5C 415.515,328.076 417.848,327.41 420.5,327.5C 428.836,326.416 436.836,324.416 444.5,321.5C 447.495,321.706 450.162,321.04 452.5,319.5C 453.919,318.549 455.585,318.216 457.5,318.5C 462.444,318.246 467.111,317.246 471.5,315.5C 476.692,313.961 482.025,312.628 487.5,311.5C 490.591,312.621 493.591,312.287 496.5,310.5C 496.833,310.5 497.167,310.5 497.5,310.5C 499.467,310.739 501.301,310.406 503,309.5C 504.896,294.685 507.563,280.019 511,265.5C 516.538,243.724 522.372,222.057 528.5,200.5 Z M 638.5,434.5 C 634.143,437.864 629.809,441.198 625.5,444.5C 619.461,447.519 613.461,450.519 607.5,453.5C 592.214,458.905 576.547,462.905 560.5,465.5C 561.352,440.337 561.018,415.337 559.5,390.5C 559.5,389.167 559.5,387.833 559.5,386.5C 559.797,379.08 559.464,371.746 558.5,364.5C 558.499,356.483 558.166,348.483 557.5,340.5C 580.787,341.996 603.453,347.163 625.5,356C 635.184,360.357 643.017,366.857 649,375.5C 655.625,397.089 652.125,416.756 638.5,434.5 Z M 560.5,478.5 C 578.699,480.648 596.699,484.814 614.5,491C 635.873,499.072 643.873,514.405 638.5,537C 637.665,576.496 637.332,615.996 637.5,655.5C 611.164,656.799 584.831,656.799 558.5,655.5C 557.595,651.667 557.595,647.667 558.5,643.5C 558.114,588.5 558.781,533.5 560.5,478.5 Z M 493.5,651.5 C 485.15,650.593 476.816,649.593 468.5,648.5C 464.846,648.058 461.179,647.724 457.5,647.5C 453.382,646.291 449.049,645.624 444.5,645.5C 441.091,644.097 437.425,643.43 433.5,643.5C 425.382,641.055 417.049,639.055 408.5,637.5C 405.381,636.13 402.048,635.13 398.5,634.5C 397.791,633.596 396.791,633.263 395.5,633.5C 394.22,632.069 392.553,631.402 390.5,631.5C 389.22,630.069 387.553,629.402 385.5,629.5C 383.819,627.992 381.819,626.992 379.5,626.5C 379.158,625.662 378.492,625.328 377.5,625.5C 377.027,624.094 376.027,623.427 374.5,623.5C 374.027,622.094 373.027,621.427 371.5,621.5C 366.632,617.12 364.632,611.787 365.5,605.5C 376.501,599.675 388.167,595.509 400.5,593C 431.55,586.589 462.717,581.089 494,576.5C 494.389,601.502 494.222,626.502 493.5,651.5 Z M 703.5,577.5 C 724.296,580.401 745.296,583.568 766.5,587C 786.893,590.243 806.56,595.91 825.5,604C 834.712,609.416 835.712,615.916 828.5,623.5C 826.973,623.427 825.973,624.094 825.5,625.5C 822.515,626.326 819.849,627.659 817.5,629.5C 815.597,629.796 813.93,630.463 812.5,631.5C 810.447,631.402 808.78,632.069 807.5,633.5C 804.215,633.928 801.215,634.928 798.5,636.5C 796.901,636.232 795.568,636.566 794.5,637.5C 791.848,637.41 789.515,638.076 787.5,639.5C 785.585,639.216 783.919,639.549 782.5,640.5C 779.572,640.565 776.905,641.232 774.5,642.5C 772.379,642.325 770.379,642.659 768.5,643.5C 766.097,643.448 763.764,643.781 761.5,644.5C 758.094,644.956 754.761,645.622 751.5,646.5C 746.759,646.735 742.092,647.402 737.5,648.5C 737.167,648.5 736.833,648.5 736.5,648.5C 731.647,648.813 726.98,649.479 722.5,650.5C 715.798,650.903 709.132,651.57 702.5,652.5C 702.348,627.491 702.681,602.491 703.5,577.5 Z"/></g>
<g><path style="opacity:0.62" fill="#db3c5e" d="M 571.5,301.5 C 566.505,302.353 561.338,303.02 556,303.5C 554.615,303.486 553.449,303.152 552.5,302.5C 558.81,301.81 565.143,301.476 571.5,301.5 Z"/></g>
<g><path style="opacity:0.925" fill="#c56679" d="M 496.5,310.5 C 493.591,312.287 490.591,312.621 487.5,311.5C 490.482,311.037 493.482,310.704 496.5,310.5 Z"/></g>
<g><path style="opacity:0.2" fill="#c06e7e" d="M 471.5,315.5 C 467.111,317.246 462.444,318.246 457.5,318.5C 461.889,316.754 466.556,315.754 471.5,315.5 Z"/></g>
<g><path style="opacity:0.957" fill="#c36a7b" d="M 452.5,319.5 C 450.162,321.04 447.495,321.706 444.5,321.5C 446.905,320.232 449.572,319.565 452.5,319.5 Z"/></g>
<g><path style="opacity:1" fill="#c5697a" d="M 444.5,321.5 C 436.836,324.416 428.836,326.416 420.5,327.5C 428.249,324.896 436.249,322.896 444.5,321.5 Z"/></g>
<g><path style="opacity:1" fill="#c56d7b" d="M 413.5,329.5 C 410.619,331.68 407.286,332.68 403.5,332.5C 406.505,330.723 409.838,329.723 413.5,329.5 Z"/></g>
<g><path style="opacity:1" fill="#d83d60" d="M 469.5,331.5 C 479.653,330.506 489.986,330.172 500.5,330.5C 500.81,333.713 500.477,336.713 499.5,339.5C 499.5,336.833 499.5,334.167 499.5,331.5C 489.5,331.5 479.5,331.5 469.5,331.5 Z"/></g>
<g><path style="opacity:0.969" fill="#a0a0a1" d="M 469.5,331.5 C 479.5,331.5 489.5,331.5 499.5,331.5C 499.5,334.167 499.5,336.833 499.5,339.5C 498.161,356.968 497.494,374.468 497.5,392C 499.009,451.493 500.009,510.993 500.5,570.5C 499.5,570.5 498.5,570.5 497.5,570.5C 481.167,570.5 464.833,570.5 448.5,570.5C 463.658,569.504 478.991,569.17 494.5,569.5C 493.631,513.833 492.631,458.166 491.5,402.5C 491.338,380.554 492.338,358.721 494.5,337C 463.02,336.626 431.353,337.459 399.5,339.5C 393.807,340.384 392.807,339.218 396.5,336C 398.382,335.802 400.048,335.302 401.5,334.5C 424.12,332.69 446.786,331.69 469.5,331.5 Z"/></g>
<g><path style="opacity:0.984" fill="#9fa1a1" d="M 638.5,434.5 C 652.125,416.756 655.625,397.089 649,375.5C 643.017,366.857 635.184,360.357 625.5,356C 603.453,347.163 580.787,341.996 557.5,340.5C 558.166,348.483 558.499,356.483 558.5,364.5C 558.167,364.5 557.833,364.5 557.5,364.5C 557.212,354.467 556.545,344.467 555.5,334.5C 584.131,335.658 611.465,342.158 637.5,354C 655.268,364.608 661.768,380.108 657,400.5C 654.712,414.086 648.545,425.419 638.5,434.5 Z"/></g>
<g><path style="opacity:1" fill="#af8a91" d="M 403.5,332.5 C 402.833,333.167 402.167,333.833 401.5,334.5C 400.048,335.302 398.382,335.802 396.5,336C 392.807,339.218 393.807,340.384 399.5,339.5C 390.609,341.556 389.609,339.722 396.5,334C 398.813,333.338 401.146,332.838 403.5,332.5 Z"/></g>
<g><path style="opacity:1" fill="#ba7a86" d="M 557.5,364.5 C 557.833,364.5 558.167,364.5 558.5,364.5C 559.464,371.746 559.797,379.08 559.5,386.5C 558.293,379.361 557.626,372.028 557.5,364.5 Z"/></g>
<g><path style="opacity:0.915" fill="#b57e8b" d="M 559.5,390.5 C 561.018,415.337 561.352,440.337 560.5,465.5C 559.502,440.672 559.169,415.672 559.5,390.5 Z"/></g>
<g><path style="opacity:1" fill="#e23453" d="M 625.5,444.5 C 624.972,445.721 624.305,446.887 623.5,448C 618.204,450.153 612.871,451.987 607.5,453.5C 613.461,450.519 619.461,447.519 625.5,444.5 Z"/></g>
<g><path style="opacity:0.716" fill="#a39d9f" d="M 690.5,434.5 C 687.134,438.689 683.134,442.189 678.5,445C 668.533,450.482 658.533,455.648 648.5,460.5C 644.167,460.5 639.833,460.5 635.5,460.5C 634.833,460.5 634.5,460.167 634.5,459.5C 654.82,454.626 673.486,446.292 690.5,434.5 Z"/></g>
<g><path style="opacity:1" fill="#bd6e80" d="M 634.5,459.5 C 634.5,460.167 634.833,460.5 635.5,460.5C 633.372,461.629 631.039,461.796 628.5,461C 630.518,460.495 632.518,459.995 634.5,459.5 Z"/></g>
<g><path style="opacity:1" fill="#cc526f" d="M 562.5,472.5 C 560.692,473.918 560.025,475.918 560.5,478.5C 559.532,476.393 559.198,474.059 559.5,471.5C 560.791,471.263 561.791,471.596 562.5,472.5 Z"/></g>
<g><path style="opacity:0.977" fill="#a0a0a1" d="M 562.5,472.5 C 581.322,473.955 599.656,477.789 617.5,484C 623.99,486.498 629.99,489.832 635.5,494C 639.115,497.619 641.949,501.786 644,506.5C 643.742,556.495 643.576,606.495 643.5,656.5C 641.265,656.795 639.265,656.461 637.5,655.5C 637.332,615.996 637.665,576.496 638.5,537C 643.873,514.405 635.873,499.072 614.5,491C 596.699,484.814 578.699,480.648 560.5,478.5C 560.025,475.918 560.692,473.918 562.5,472.5 Z"/></g>
<g><path style="opacity:0.933" fill="#e32c53" d="M 745.5,568.5 C 741.049,569.827 736.216,570.494 731,570.5C 725.988,570.499 721.155,570.166 716.5,569.5C 725.986,568.506 735.652,568.173 745.5,568.5 Z"/></g>
<g><path style="opacity:0.973" fill="#a19fa0" d="M 497.5,571.5 C 499.48,583.455 500.146,595.788 499.5,608.5C 499.5,623.167 499.5,637.833 499.5,652.5C 497.379,652.675 495.379,652.341 493.5,651.5C 494.222,626.502 494.389,601.502 494,576.5C 462.717,581.089 431.55,586.589 400.5,593C 388.167,595.509 376.501,599.675 365.5,605.5C 366.96,603.537 368.627,601.704 370.5,600C 380.277,594.629 390.61,590.629 401.5,588C 433.243,580.965 465.243,575.465 497.5,571.5 Z"/></g>
<g><path style="opacity:0.986" fill="#9fa1a1" d="M 828.5,623.5 C 835.712,615.916 834.712,609.416 825.5,604C 806.56,595.91 786.893,590.243 766.5,587C 745.296,583.568 724.296,580.401 703.5,577.5C 702.539,575.735 702.205,573.735 702.5,571.5C 726.557,574.507 750.557,578.007 774.5,582C 791.12,585.238 807.453,589.572 823.5,595C 827.828,596.829 831.828,599.162 835.5,602C 840.141,606.398 840.641,611.232 837,616.5C 834.564,619.447 831.731,621.78 828.5,623.5 Z"/></g>
<g><path style="opacity:1" fill="#c95972" d="M 497.5,571.5 C 497.5,571.167 497.5,570.833 497.5,570.5C 498.5,570.5 499.5,570.5 500.5,570.5C 500.829,583.344 500.495,596.011 499.5,608.5C 500.146,595.788 499.48,583.455 497.5,571.5 Z"/></g>
<g><path style="opacity:0.627" fill="#ac8d94" d="M 380.5,577.5 C 377.411,578.785 374.078,579.451 370.5,579.5C 373.544,577.989 376.878,577.322 380.5,577.5 Z"/></g>
<g><path style="opacity:1" fill="#b87c88" d="M 370.5,579.5 C 366.453,581.26 362.12,582.26 357.5,582.5C 361.547,580.74 365.88,579.74 370.5,579.5 Z"/></g>
<g><path style="opacity:1" fill="#be7783" d="M 353.5,583.5 C 347.921,586.471 341.921,588.471 335.5,589.5C 341.085,586.527 347.085,584.527 353.5,583.5 Z"/></g>
<g><path style="opacity:0.835" fill="#ab8f95" d="M 335.5,589.5 C 333.574,591.293 331.241,592.293 328.5,592.5C 330.426,590.707 332.759,589.707 335.5,589.5 Z"/></g>
<g><path style="opacity:0.561" fill="#a89499" d="M 324.5,594.5 C 323.341,596.25 321.674,597.25 319.5,597.5C 320.659,595.75 322.326,594.75 324.5,594.5 Z"/></g>
<g><path style="opacity:0.98" fill="#9fa1a1" d="M 319.5,597.5 C 300.624,611.636 300.957,625.469 320.5,639C 335.655,647.61 351.655,654.276 368.5,659C 411.798,670.4 455.798,677.567 500.5,680.5C 501.68,725.171 503.013,769.838 504.5,814.5C 504.5,821.5 504.5,828.5 504.5,835.5C 503.188,837.479 501.521,839.145 499.5,840.5C 497.243,789.025 495.576,737.359 494.5,685.5C 448.756,682.451 403.756,674.951 359.5,663C 342.02,658.091 325.686,650.757 310.5,641C 307.667,638.167 304.833,635.333 302,632.5C 298.474,625.297 298.807,618.297 303,611.5C 307.805,605.849 313.305,601.182 319.5,597.5 Z"/></g>
<g><path style="opacity:0.122" fill="#b7818a" d="M 371.5,621.5 C 373.027,621.427 374.027,622.094 374.5,623.5C 372.973,623.573 371.973,622.906 371.5,621.5 Z"/></g>
<g><path style="opacity:0.035" fill="#b5818b" d="M 374.5,623.5 C 376.027,623.427 377.027,624.094 377.5,625.5C 375.973,625.573 374.973,624.906 374.5,623.5 Z"/></g>
<g><path style="opacity:0.843" fill="#b77d89" d="M 828.5,623.5 C 828.027,624.906 827.027,625.573 825.5,625.5C 825.973,624.094 826.973,623.427 828.5,623.5 Z"/></g>
<g><path style="opacity:0.494" fill="#ba7b86" d="M 379.5,626.5 C 381.819,626.992 383.819,627.992 385.5,629.5C 382.911,629.539 380.911,628.539 379.5,626.5 Z"/></g>
<g><path style="opacity:0.151" fill="#b2868f" d="M 385.5,629.5 C 387.553,629.402 389.22,630.069 390.5,631.5C 388.447,631.598 386.78,630.931 385.5,629.5 Z"/></g>
<g><path style="opacity:1" fill="#c86877" d="M 817.5,629.5 C 816.365,631.213 814.698,631.88 812.5,631.5C 813.93,630.463 815.597,629.796 817.5,629.5 Z"/></g>
<g><path style="opacity:0.151" fill="#b18790" d="M 390.5,631.5 C 392.553,631.402 394.22,632.069 395.5,633.5C 393.447,633.598 391.78,632.931 390.5,631.5 Z"/></g>
<g><path style="opacity:1" fill="#c86876" d="M 812.5,631.5 C 811.365,633.213 809.698,633.88 807.5,633.5C 808.78,632.069 810.447,631.402 812.5,631.5 Z"/></g>
<g><path style="opacity:1" fill="#d1596b" d="M 807.5,633.5 C 804.992,635.554 801.992,636.554 798.5,636.5C 801.215,634.928 804.215,633.928 807.5,633.5 Z"/></g>
<g><path style="opacity:0.745" fill="#bb7985" d="M 398.5,634.5 C 402.048,635.13 405.381,636.13 408.5,637.5C 404.714,637.68 401.381,636.68 398.5,634.5 Z"/></g>
<g><path style="opacity:0.843" fill="#c76376" d="M 794.5,637.5 C 792.485,638.924 790.152,639.59 787.5,639.5C 789.515,638.076 791.848,637.41 794.5,637.5 Z"/></g>
<g><path style="opacity:0.957" fill="#cb5d72" d="M 782.5,640.5 C 780.162,642.04 777.495,642.706 774.5,642.5C 776.905,641.232 779.572,640.565 782.5,640.5 Z"/></g>
<g><path style="opacity:0.749" fill="#ce546e" d="M 768.5,643.5 C 766.863,644.38 765.03,645.046 763,645.5C 762.235,645.43 761.735,645.097 761.5,644.5C 763.764,643.781 766.097,643.448 768.5,643.5 Z"/></g>
<g><path style="opacity:0.349" fill="#ba7a86" d="M 433.5,643.5 C 437.425,643.43 441.091,644.097 444.5,645.5C 440.542,645.749 436.876,645.082 433.5,643.5 Z"/></g>
<g><path style="opacity:0.978" fill="#a19fa0" d="M 899.5,622.5 C 898.62,625.262 897.454,627.929 896,630.5C 887.023,640.905 876.19,648.738 863.5,654C 834.053,665.279 803.72,673.279 772.5,678C 749.262,681.674 725.929,684.508 702.5,686.5C 701.549,685.081 701.216,683.415 701.5,681.5C 727.626,678.979 753.626,675.479 779.5,671C 813.839,665.774 846.839,656.108 878.5,642C 887.305,637.295 894.305,630.795 899.5,622.5 Z"/></g>
<g><path style="opacity:0.384" fill="#cb5c72" d="M 444.5,645.5 C 449.049,645.624 453.382,646.291 457.5,647.5C 456.5,647.5 455.5,647.5 454.5,647.5C 450.878,647.678 447.544,647.011 444.5,645.5 Z"/></g>
<g><path style="opacity:1" fill="#dc3f5c" d="M 751.5,646.5 C 747.809,648.145 743.809,649.145 739.5,649.5C 738.584,649.457 737.917,649.124 737.5,648.5C 742.092,647.402 746.759,646.735 751.5,646.5 Z"/></g>
<g><path style="opacity:0.927" fill="#dc3a5b" d="M 454.5,647.5 C 455.5,647.5 456.5,647.5 457.5,647.5C 461.179,647.724 464.846,648.058 468.5,648.5C 463.769,649.661 459.103,649.328 454.5,647.5 Z"/></g>
<g><path style="opacity:0.627" fill="#db3d5e" d="M 558.5,643.5 C 557.595,647.667 557.595,651.667 558.5,655.5C 558.44,656.043 558.107,656.376 557.5,656.5C 556.062,651.903 556.395,647.57 558.5,643.5 Z"/></g>
<g><path style="opacity:0.804" fill="#d84a61" d="M 736.5,648.5 C 732.914,650.043 729.08,651.043 725,651.5C 724.329,650.748 723.496,650.414 722.5,650.5C 726.98,649.479 731.647,648.813 736.5,648.5 Z"/></g>
<g><path style="opacity:1" fill="#c66076" d="M 622.5,685.5 C 629.648,684.508 636.981,684.175 644.5,684.5C 644.5,691.167 644.5,697.833 644.5,704.5C 643.51,698.355 643.177,692.022 643.5,685.5C 636.5,685.5 629.5,685.5 622.5,685.5 Z"/></g>
<g><path style="opacity:0.973" fill="#9fa1a1" d="M 622.5,685.5 C 629.5,685.5 636.5,685.5 643.5,685.5C 643.177,692.022 643.51,698.355 644.5,704.5C 646.438,770.839 648.438,837.172 650.5,903.5C 649.188,905.479 647.521,907.145 645.5,908.5C 644.679,905.553 644.179,902.553 644,899.5C 641.805,829.832 639.638,760.165 637.5,690.5C 610.439,691.821 583.773,691.821 557.5,690.5C 556.539,688.735 556.205,686.735 556.5,684.5C 578.484,685.408 600.484,685.741 622.5,685.5 Z"/></g>
<g><path style="opacity:0.968" fill="#a0a0a1" d="M 526.5,858.5 C 526.5,861.833 526.5,865.167 526.5,868.5C 525.188,870.479 523.521,872.145 521.5,873.5C 519.899,826.505 518.399,779.505 517,732.5C 516.901,730.347 516.067,728.681 514.5,727.5C 514.343,726.127 514.51,724.793 515,723.5C 518.488,720.538 521.155,721.205 523,725.5C 524.611,769.823 525.777,814.156 526.5,858.5 Z"/></g>
<g><path style="opacity:0.967" fill="#9fa1a1" d="M 548.5,868.5 C 548.5,879.167 548.5,889.833 548.5,900.5C 547.549,902.118 546.216,903.451 544.5,904.5C 542.184,860.198 540.684,815.865 540,771.5C 539.667,765.833 539.333,760.167 539,754.5C 538.392,752.934 537.558,751.6 536.5,750.5C 536.351,749.448 536.517,748.448 537,747.5C 540.199,743.341 542.865,743.675 545,748.5C 546.722,788.486 547.888,828.486 548.5,868.5 Z"/></g>
<g><path style="opacity:0.97" fill="#9fa1a1" d="M 671.5,933.5 C 671.5,938.5 671.5,943.5 671.5,948.5C 670.727,951.787 668.727,953.287 665.5,953C 664.144,898.971 662.311,844.804 660,790.5C 659.434,788.277 658.6,786.277 657.5,784.5C 657.343,783.127 657.51,781.793 658,780.5C 661.488,777.538 664.155,778.205 666,782.5C 668.231,832.821 670.064,883.154 671.5,933.5 Z"/></g>
<g><path style="opacity:0.97" fill="#9fa1a2" d="M 693.5,962.5 C 693.5,969.833 693.5,977.167 693.5,984.5C 692.964,987.698 693.631,990.365 695.5,992.5C 693.211,994.448 690.878,996.448 688.5,998.5C 686.287,937.179 684.454,875.846 683,814.5C 682.996,811.208 681.83,808.542 679.5,806.5C 678.697,805.577 678.53,804.577 679,803.5C 682.871,798.008 686.204,798.342 689,804.5C 691.023,857.152 692.523,909.819 693.5,962.5 Z"/></g>
<g><path style="opacity:0.294" fill="#de3959" d="M 504.5,814.5 C 504.902,817.477 505.902,820.143 507.5,822.5C 507.281,827.249 506.281,831.583 504.5,835.5C 504.5,828.5 504.5,821.5 504.5,814.5 Z"/></g>
<g><path style="opacity:0.967" fill="#cb5e71" d="M 526.5,858.5 C 527.167,859.833 527.833,861.167 528.5,862.5C 528.975,865.082 528.308,867.082 526.5,868.5C 526.5,865.167 526.5,861.833 526.5,858.5 Z"/></g>
<g><path style="opacity:1" fill="#b47f8b" d="M 548.5,868.5 C 549.167,878.5 549.833,888.5 550.5,898.5C 550.167,899.5 549.5,900.167 548.5,900.5C 548.5,889.833 548.5,879.167 548.5,868.5 Z"/></g>
<g><path style="opacity:1" fill="#d8415f" d="M 671.5,933.5 C 672.167,934.833 672.833,936.167 673.5,937.5C 673.665,940.85 673.498,944.183 673,947.5C 672.617,948.056 672.117,948.389 671.5,948.5C 671.5,943.5 671.5,938.5 671.5,933.5 Z"/></g>
<g><path style="opacity:1" fill="#d9455f" d="M 693.5,962.5 C 694.1,963.9 695.1,964.9 696.5,965.5C 695.587,971.441 695.254,977.441 695.5,983.5C 694.833,983.833 694.167,984.167 693.5,984.5C 693.5,977.167 693.5,969.833 693.5,962.5 Z"/></g>
<g><path style="opacity:0.231" fill="#e62f4e" d="M 695.5,983.5 C 695.5,986.5 695.5,989.5 695.5,992.5C 693.631,990.365 692.964,987.698 693.5,984.5C 694.167,984.167 694.833,983.833 695.5,983.5 Z"/></g>
</svg>
