<?xml version="1.0" encoding="UTF-8"?>
<!DOCTYPE svg PUBLIC "-//W3C//DTD SVG 1.1//EN" "http://www.w3.org/Graphics/SVG/1.1/DTD/svg11.dtd">
<svg xmlns="http://www.w3.org/2000/svg" version="1.1" width="1180px" height="1024px" style="shape-rendering:geometricPrecision; text-rendering:geometricPrecision; image-rendering:optimizeQuality; fill-rule:evenodd; clip-rule:evenodd" xmlns:xlink="http://www.w3.org/1999/xlink">
<g><path style="opacity:0.99" fill="#bbbdbf" d="M 257.5,47.5 C 411.5,47.3333 565.5,47.5 719.5,48C 838.673,55.9772 931.84,108.81 999,206.5C 1054.49,298.909 1068.15,397.242 1040,501.5C 1011.26,587.23 958.426,653.73 881.5,701C 826.465,731.511 767.465,748.511 704.5,752C 681.845,752.973 659.178,753.473 636.5,753.5C 585.835,752.596 535.168,752.43 484.5,753C 466.269,827.757 448.269,902.59 430.5,977.5C 304.5,977.667 178.5,977.5 52.5,977C 121.094,667.564 189.427,357.731 257.5,47.5 Z"/></g>
<g><path style="opacity:1" fill="#002d61" d="M 411.5,949.5 C 410.596,950.209 410.263,951.209 410.5,952.5C 301.495,953.165 192.828,952.498 84.5,950.5C 110.714,831.22 136.714,711.887 162.5,592.5C 276.833,592.5 391.167,592.5 505.5,592.5C 514.437,592.984 522.77,595.484 530.5,600C 563.436,626.302 600.436,644.969 641.5,656C 651.212,656.824 660.879,656.491 670.5,655C 700.073,647.392 726.406,633.726 749.5,614C 791.438,577.311 821.271,532.478 839,479.5C 840.036,476.32 839.203,473.82 836.5,472C 824.987,470.324 813.987,471.99 803.5,477C 796.342,480.412 789.342,484.078 782.5,488C 760.77,502.727 738.77,517.06 716.5,531C 663.578,555.647 607.911,569.147 549.5,571.5C 422.162,572.165 295.162,571.498 168.5,569.5C 178.394,523.136 188.394,476.803 198.5,430.5C 266.5,430.5 334.5,430.5 402.5,430.5C 423.039,432.179 437.206,442.512 445,461.5C 449.274,478.654 454.94,495.321 462,511.5C 474.562,532.032 492.729,544.866 516.5,550C 532.037,553.075 547.703,554.075 563.5,553C 619.639,548.731 671.973,532.397 720.5,504C 743.768,489.728 766.768,475.061 789.5,460C 807.341,453.86 825.674,450.86 844.5,451C 845.863,449.055 846.697,446.888 847,444.5C 849.101,432.911 849.768,421.244 849,409.5C 847.989,408.663 846.822,408.33 845.5,408.5C 632.001,407.5 418.334,407.167 204.5,407.5C 213.731,361.011 223.731,314.678 234.5,268.5C 297.5,268.5 360.5,268.5 423.5,268.5C 446.836,272.543 457.003,286.209 454,309.5C 445.299,330.339 440.966,352.005 441,374.5C 445.091,382.581 451.591,387.747 460.5,390C 588.167,390.667 715.833,390.667 843.5,390C 845.519,389.55 847.352,388.717 849,387.5C 849.667,378.833 849.667,370.167 849,361.5C 848.81,357.924 847.643,354.758 845.5,352C 818.181,351.87 793.181,344.204 770.5,329C 746.01,311.247 720.343,295.247 693.5,281C 648.583,261.344 601.583,250.344 552.5,248C 448.167,247.5 343.834,247.333 239.5,247.5C 252.038,189.476 264.705,131.476 277.5,73.5C 422.832,72.3333 568.166,72.1667 713.5,73C 832.796,79.196 923.629,132.696 986,233.5C 1034.41,323.061 1042.08,416.061 1009,512.5C 982.744,579.083 939.911,632.249 880.5,672C 824.929,705.648 764.596,723.981 699.5,727C 621.167,727.5 542.834,727.667 464.5,727.5C 446.519,801.424 428.852,875.424 411.5,949.5 Z"/></g>
<g><path style="opacity:1" fill="#fdc326" d="M 730.5,141.5 C 790.199,148.687 841.532,173.021 884.5,214.5C 892.949,223.111 900.449,232.444 907,242.5C 912.807,254.75 912.807,267.084 907,279.5C 898.94,297.222 886.44,310.722 869.5,320C 865.803,322.447 862.636,321.947 860,318.5C 837.166,246.968 794.999,189.801 733.5,147C 732.167,145.667 730.833,144.333 729.5,143C 730.056,142.617 730.389,142.117 730.5,141.5 Z"/></g>
<g><path style="opacity:1" fill="#fdc426" d="M 653.5,142.5 C 663.224,142.141 672.891,142.641 682.5,144C 703.184,151.838 722.184,162.504 739.5,176C 784.787,212.299 817.287,257.799 837,312.5C 838.418,317.428 838.751,322.428 838,327.5C 837.5,328 837,328.5 836.5,329C 825.892,330.384 815.558,329.384 805.5,326C 800.341,323.588 795.341,320.921 790.5,318C 761.002,295.403 729.335,276.07 695.5,260C 661.521,244.255 625.855,234.588 588.5,231C 563.541,228.714 538.541,227.047 513.5,226C 509.96,225.671 508.794,223.838 510,220.5C 550.004,180.245 597.837,154.245 653.5,142.5 Z"/></g>
<g><path style="opacity:1" fill="#fdc326" d="M 239.5,247.5 C 343.834,247.333 448.167,247.5 552.5,248C 601.583,250.344 648.583,261.344 693.5,281C 720.343,295.247 746.01,311.247 770.5,329C 793.181,344.204 818.181,351.87 845.5,352C 847.643,354.758 848.81,357.924 849,361.5C 849.667,370.167 849.667,378.833 849,387.5C 847.352,388.717 845.519,389.55 843.5,390C 715.833,390.667 588.167,390.667 460.5,390C 451.591,387.747 445.091,382.581 441,374.5C 440.966,352.005 445.299,330.339 454,309.5C 457.003,286.209 446.836,272.543 423.5,268.5C 360.669,267.501 297.669,267.168 234.5,267.5C 235.567,260.567 237.233,253.9 239.5,247.5 Z"/></g>
<g><path style="opacity:1" fill="#fcc327" d="M 929.5,284.5 C 931.903,284.393 933.736,285.393 935,287.5C 952.036,318.62 960.036,351.953 959,387.5C 958.097,388.701 956.931,389.535 955.5,390C 929.167,390.667 902.833,390.667 876.5,390C 873.388,389.375 871.555,387.542 871,384.5C 869.971,373.319 868.804,362.152 867.5,351C 867.494,348.7 867.994,346.534 869,344.5C 886.961,335.55 902.294,323.217 915,307.5C 919.844,299.805 924.677,292.139 929.5,284.5 Z"/></g>
<g><path style="opacity:1" fill="#fec426" d="M 845.5,408.5 C 846.822,408.33 847.989,408.663 849,409.5C 849.768,421.244 849.101,432.911 847,444.5C 846.697,446.888 845.863,449.055 844.5,451C 825.674,450.86 807.341,453.86 789.5,460C 766.768,475.061 743.768,489.728 720.5,504C 671.973,532.397 619.639,548.731 563.5,553C 547.703,554.075 532.037,553.075 516.5,550C 492.729,544.866 474.562,532.032 462,511.5C 454.94,495.321 449.274,478.654 445,461.5C 437.206,442.512 423.039,432.179 402.5,430.5C 334.661,430.166 266.994,429.166 199.5,427.5C 200.726,421.144 202.059,414.811 203.5,408.5C 417.5,408.5 631.5,408.5 845.5,408.5 Z"/></g>
<g><path style="opacity:1" fill="#fdc426" d="M 874.5,408.5 C 901.835,408.333 929.169,408.5 956.5,409C 957.416,409.374 958.25,409.874 959,410.5C 959.044,448.491 950.211,484.325 932.5,518C 929.975,518.896 927.808,518.396 926,516.5C 919.303,500.464 909.469,486.631 896.5,475C 887,468.167 877.5,461.333 868,454.5C 867.333,449.5 867.333,444.5 868,439.5C 869.469,430.887 870.469,422.22 871,413.5C 871.997,411.677 873.164,410.01 874.5,408.5 Z"/></g>
<g><path style="opacity:1" fill="#9a883e" d="M 199.5,427.5 C 266.994,429.166 334.661,430.166 402.5,430.5C 334.5,430.5 266.5,430.5 198.5,430.5C 198.263,429.209 198.596,428.209 199.5,427.5 Z"/></g>
<g><path style="opacity:1" fill="#fec426" d="M 505.5,592.5 C 391.668,591.5 277.668,591.167 163.5,591.5C 164.525,584.991 165.858,578.657 167.5,572.5C 295.001,572.833 422.334,572.5 549.5,571.5C 607.911,569.147 663.578,555.647 716.5,531C 738.77,517.06 760.77,502.727 782.5,488C 789.342,484.078 796.342,480.412 803.5,477C 813.987,471.99 824.987,470.324 836.5,472C 839.203,473.82 840.036,476.32 839,479.5C 821.271,532.478 791.438,577.311 749.5,614C 726.406,633.726 700.073,647.392 670.5,655C 660.879,656.491 651.212,656.824 641.5,656C 600.436,644.969 563.436,626.302 530.5,600C 522.77,595.484 514.437,592.984 505.5,592.5 Z"/></g>
<g><path style="opacity:1" fill="#fdc326" d="M 860.5,480.5 C 867.685,480.756 874.019,483.256 879.5,488C 890.533,496.929 899.033,507.762 905,520.5C 909.184,531.476 910.517,542.809 909,554.5C 908.439,556.725 907.439,558.725 906,560.5C 860.229,617.974 800.729,650.807 727.5,659C 725.972,656.119 726.638,653.786 729.5,652C 763.113,631.39 791.279,604.89 814,572.5C 827.116,553.945 838.449,534.278 848,513.5C 851.694,502.243 855.86,491.243 860.5,480.5 Z"/></g>
<g><path style="opacity:1" fill="#4a5950" d="M 168.5,569.5 C 295.162,571.498 422.162,572.165 549.5,571.5C 422.334,572.5 295.001,572.833 167.5,572.5C 167.263,571.209 167.596,570.209 168.5,569.5 Z"/></g>
<g><path style="opacity:0.984" fill="#002d62" d="M 525.5,799.5 C 551.502,799.333 577.502,799.5 603.5,800C 610.499,801.827 613.832,806.327 613.5,813.5C 607.811,840.589 601.645,867.589 595,894.5C 592.768,902.152 587.935,907.319 580.5,910C 563.17,910.5 545.837,910.667 528.5,910.5C 523.183,932.434 518.183,954.434 513.5,976.5C 503.478,976.832 493.478,976.499 483.5,975.5C 497.817,916.899 511.817,858.232 525.5,799.5 Z M 548.5,825.5 C 559.5,825.5 570.5,825.5 581.5,825.5C 577.478,845.255 572.978,864.921 568,884.5C 556.895,885.82 545.728,885.82 534.5,884.5C 539.422,864.889 544.089,845.222 548.5,825.5 Z"/></g>
<g><path style="opacity:0.978" fill="#002d62" d="M 1036.5,832.5 C 1041.6,832.175 1046.6,832.675 1051.5,834C 1054,835.167 1055.83,837 1057,839.5C 1057.67,843.5 1057.67,847.5 1057,851.5C 1054.83,861.514 1052.66,871.514 1050.5,881.5C 1040.81,881.832 1031.14,881.498 1021.5,880.5C 1023.22,873.906 1024.55,867.239 1025.5,860.5C 1016.83,860.5 1008.17,860.5 999.5,860.5C 990.5,899.165 981.5,937.832 972.5,976.5C 962.81,976.832 953.144,976.498 943.5,975.5C 955.149,928.236 966.483,880.903 977.5,833.5C 987.172,833.334 996.839,833.5 1006.5,834C 1006.04,834.414 1005.71,834.914 1005.5,835.5C 1006.67,835.833 1007.83,836.167 1009,836.5C 1018.34,835.338 1027.5,834.005 1036.5,832.5 Z"/></g>
<g><path style="opacity:0.978" fill="#002d62" d="M 648.5,833.5 C 668.836,833.333 689.169,833.5 709.5,834C 714.26,835.096 717.427,837.929 719,842.5C 719.518,846.551 719.184,850.551 718,854.5C 708.18,895.114 698.68,935.78 689.5,976.5C 678.094,976.932 666.761,976.265 655.5,974.5C 643.836,975.547 632.169,976.547 620.5,977.5C 608.117,976.422 603.284,969.756 606,957.5C 610,940.833 614,924.167 618,907.5C 620.296,896.87 626.796,890.703 637.5,889C 652.163,888.5 666.83,888.333 681.5,888.5C 683.445,878.556 685.778,868.723 688.5,859C 678.833,858.333 669.167,858.333 659.5,859C 657.5,866.333 655.5,873.667 653.5,881C 644.173,881.5 634.839,881.666 625.5,881.5C 627.886,869.408 630.719,857.408 634,845.5C 636.94,839.047 641.774,835.047 648.5,833.5 Z M 645.5,913.5 C 655.506,913.334 665.506,913.5 675.5,914C 672.111,926.389 669.111,938.889 666.5,951.5C 656.5,951.5 646.5,951.5 636.5,951.5C 639.191,938.735 642.191,926.069 645.5,913.5 Z"/></g>
<g><path style="opacity:0.977" fill="#002d62" d="M 764.5,833.5 C 784.169,833.333 803.836,833.5 823.5,834C 830.484,834.983 833.818,838.983 833.5,846C 831.403,857.888 829.069,869.721 826.5,881.5C 816.81,881.832 807.144,881.498 797.5,880.5C 799.8,873.3 801.467,865.967 802.5,858.5C 793.167,858.5 783.833,858.5 774.5,858.5C 767.341,889.468 760.341,920.468 753.5,951.5C 762.833,951.5 772.167,951.5 781.5,951.5C 783.62,939.854 786.287,928.354 789.5,917C 798.827,916.5 808.161,916.334 817.5,916.5C 813.985,932.559 810.152,948.559 806,964.5C 803.112,971.386 797.945,975.219 790.5,976C 771.5,976.667 752.5,976.667 733.5,976C 726.423,975.424 722.423,971.591 721.5,964.5C 730.508,925.466 739.675,886.466 749,847.5C 751.643,839.945 756.81,835.278 764.5,833.5 Z"/></g>
<g><path style="opacity:0.98" fill="#002d62" d="M 875.5,833.5 C 895.503,833.333 915.503,833.5 935.5,834C 942.484,834.983 945.818,838.983 945.5,846C 941.459,866.497 936.792,886.831 931.5,907C 929.167,908.667 926.833,910.333 924.5,912C 907.503,912.5 890.503,912.667 873.5,912.5C 871.011,925.279 868.011,937.946 864.5,950.5C 873.833,951.833 883.167,951.833 892.5,950.5C 894.937,940.251 897.604,930.084 900.5,920C 909.827,919.5 919.161,919.334 928.5,919.5C 925.368,935.325 921.534,950.992 917,966.5C 913.909,972.297 909.076,975.464 902.5,976C 883.5,976.667 864.5,976.667 845.5,976C 835.983,975.153 832.15,969.986 834,960.5C 842.685,922.427 851.685,884.427 861,846.5C 863.571,839.491 868.405,835.157 875.5,833.5 Z M 886.5,858.5 C 895.833,858.5 905.167,858.5 914.5,858.5C 912.325,868.2 909.992,877.866 907.5,887.5C 898.167,888.833 888.833,888.833 879.5,887.5C 882.216,877.919 884.549,868.252 886.5,858.5 Z"/></g>
<g><path style="opacity:0.978" fill="#002d62" d="M 1087.5,833.5 C 1107.5,833.333 1127.5,833.5 1147.5,834C 1153.63,835.582 1156.63,839.582 1156.5,846C 1154.1,857.831 1151.77,869.664 1149.5,881.5C 1139.83,881.5 1130.17,881.5 1120.5,881.5C 1121.85,874.099 1123.52,866.766 1125.5,859.5C 1116.52,858.502 1107.52,858.168 1098.5,858.5C 1097.25,865.002 1095.92,871.502 1094.5,878C 1094.83,878.833 1095.17,879.667 1095.5,880.5C 1108.36,889.197 1121.36,897.697 1134.5,906C 1139.02,910.623 1140.52,916.123 1139,922.5C 1136,935.167 1133,947.833 1130,960.5C 1128.01,969.492 1122.51,974.659 1113.5,976C 1094.5,976.667 1075.5,976.667 1056.5,976C 1049.65,974.995 1046.32,970.995 1046.5,964C 1049.27,949.753 1052.44,935.587 1056,921.5C 1065.42,920.515 1074.92,920.182 1084.5,920.5C 1082.48,930.567 1080.15,940.567 1077.5,950.5C 1086.17,951.833 1094.83,951.833 1103.5,950.5C 1105.27,942.917 1107.27,935.417 1109.5,928C 1095.31,917.639 1080.97,907.472 1066.5,897.5C 1065.42,896.335 1064.58,895.002 1064,893.5C 1065.89,876.938 1069.22,860.605 1074,844.5C 1076.94,838.797 1081.44,835.131 1087.5,833.5 Z"/></g>
<g><path style="opacity:1" fill="#8594a5" d="M 411.5,949.5 C 411.5,950.833 411.5,952.167 411.5,953.5C 302.167,953.5 192.833,953.5 83.5,953.5C 83.2627,952.209 83.596,951.209 84.5,950.5C 192.828,952.498 301.495,953.165 410.5,952.5C 410.263,951.209 410.596,950.209 411.5,949.5 Z"/></g>
</svg>
