<?xml version="1.0" encoding="UTF-8"?>
<!DOCTYPE svg PUBLIC "-//W3C//DTD SVG 1.1//EN" "http://www.w3.org/Graphics/SVG/1.1/DTD/svg11.dtd">
<svg xmlns="http://www.w3.org/2000/svg" version="1.1" width="1200px" height="1200px" style="shape-rendering:geometricPrecision; text-rendering:geometricPrecision; image-rendering:optimizeQuality; fill-rule:evenodd; clip-rule:evenodd" xmlns:xlink="http://www.w3.org/1999/xlink">
<g><path style="opacity:1" fill="#ce1930" d="M 857.5,156.5 C 857.821,158.048 858.821,158.715 860.5,158.5C 904.122,184.188 943.122,215.854 977.5,253.5C 977.738,255.404 978.738,256.738 980.5,257.5C 982.5,258.833 984.167,260.5 985.5,262.5C 985.427,264.027 986.094,265.027 987.5,265.5C 998.636,277.299 1008.64,289.966 1017.5,303.5C 1017.43,305.027 1018.09,306.027 1019.5,306.5C 1023.99,312.148 1027.99,318.148 1031.5,324.5C 1031.43,326.027 1032.09,327.027 1033.5,327.5C 1059.58,367.703 1078.91,411.036 1091.5,457.5C 1091.41,460.152 1092.08,462.485 1093.5,464.5C 1094.43,465.568 1094.77,466.901 1094.5,468.5C 1094.41,471.152 1095.08,473.485 1096.5,475.5C 1131.52,626.539 1105.69,766.205 1019,894.5C 922.964,1025.46 793.464,1097.63 630.5,1111C 577.926,1114.24 526.259,1109.4 475.5,1096.5C 473.485,1095.08 471.152,1094.41 468.5,1094.5C 466.901,1094.77 465.568,1094.43 464.5,1093.5C 462.485,1092.08 460.152,1091.41 457.5,1091.5C 455.485,1090.08 453.152,1089.41 450.5,1089.5C 448.784,1089.37 447.117,1089.04 445.5,1088.5C 444.365,1086.79 442.698,1086.12 440.5,1086.5C 405.357,1075.35 372.023,1060.35 340.5,1041.5C 340.027,1040.09 339.027,1039.43 337.5,1039.5C 333.827,1038 330.494,1036 327.5,1033.5C 327.027,1032.09 326.027,1031.43 324.5,1031.5C 309.66,1022.66 295.66,1012.66 282.5,1001.5C 282.027,1000.09 281.027,999.427 279.5,999.5C 278.5,999.167 277.833,998.5 277.5,997.5C 277.027,996.094 276.027,995.427 274.5,995.5C 270.895,993.528 267.895,990.861 265.5,987.5C 265.027,986.094 264.027,985.427 262.5,985.5C 220.952,949.307 186.285,907.64 158.5,860.5C 158.715,858.821 158.048,857.821 156.5,857.5C 96.7523,752.587 75.5856,640.253 93,520.5C 95.5648,503.833 99.0648,487.5 103.5,471.5C 104.924,469.485 105.59,467.152 105.5,464.5C 106.924,462.485 107.59,460.152 107.5,457.5C 118.237,418.034 133.904,380.701 154.5,345.5C 155.906,345.027 156.573,344.027 156.5,342.5C 156.328,341.508 156.662,340.842 157.5,340.5C 158.906,340.027 159.573,339.027 159.5,337.5C 159.328,336.508 159.662,335.842 160.5,335.5C 161.906,335.027 162.573,334.027 162.5,332.5C 163.11,330.566 164.11,328.899 165.5,327.5C 166.906,327.027 167.573,326.027 167.5,324.5C 171.007,318.148 175.007,312.148 179.5,306.5C 180.906,306.027 181.573,305.027 181.5,303.5C 190.364,289.966 200.364,277.299 211.5,265.5C 212.906,265.027 213.573,264.027 213.5,262.5C 214.833,260.5 216.5,258.833 218.5,257.5C 219.906,257.027 220.573,256.027 220.5,254.5C 228.833,245.5 237.5,236.833 246.5,228.5C 250.436,226.234 253.769,223.234 256.5,219.5C 256.833,218.5 257.5,217.833 258.5,217.5C 261.427,216.243 263.761,214.243 265.5,211.5C 265.5,210.833 265.833,210.5 266.5,210.5C 269.089,209.581 271.089,207.914 272.5,205.5C 294.076,186.707 317.409,170.374 342.5,156.5C 344.027,156.573 345.027,155.906 345.5,154.5C 371.754,138.875 399.421,126.208 428.5,116.5C 431.716,116.655 434.383,115.655 436.5,113.5C 436.833,113.5 437.167,113.5 437.5,113.5C 442.165,112.943 446.498,111.61 450.5,109.5C 454.895,107.565 459.562,106.231 464.5,105.5C 467.152,105.59 469.485,104.924 471.5,103.5C 607.16,70.1657 735.827,87.8324 857.5,156.5 Z"/></g>
<g><path style="opacity:1" fill="#e87a83" d="M 471.5,103.5 C 469.485,104.924 467.152,105.59 464.5,105.5C 466.515,104.076 468.848,103.41 471.5,103.5 Z"/></g>
<g><path style="opacity:1" fill="#e87c83" d="M 450.5,109.5 C 446.498,111.61 442.165,112.943 437.5,113.5C 441.502,111.39 445.835,110.057 450.5,109.5 Z"/></g>
<g><path style="opacity:1" fill="#0b2240" d="M 569.5,113.5 C 737.703,108.041 875.203,169.707 982,298.5C 1074.24,420.507 1104.91,556.841 1074,707.5C 1040.44,843.56 963.937,947.726 844.5,1020C 732.017,1082.97 612.684,1100.63 486.5,1073C 352.876,1038.33 250.376,962.165 179,844.5C 115.343,730.592 98.0097,609.925 127,482.5C 166.854,335.66 254.687,228.16 390.5,160C 447.324,133.236 506.991,117.736 569.5,113.5 Z"/></g>
<g><path style="opacity:1" fill="#e97f84" d="M 436.5,113.5 C 434.383,115.655 431.716,116.655 428.5,116.5C 430.936,115.129 433.603,114.129 436.5,113.5 Z"/></g>
<g><path style="opacity:1" fill="#5a6a7e" d="M 588.5,148.5 C 580.981,148.175 573.648,148.508 566.5,149.5C 565.957,149.44 565.624,149.107 565.5,148.5C 573.323,147.18 580.99,147.18 588.5,148.5 Z"/></g>
<g><path style="opacity:1" fill="#fbfbfc" d="M 588.5,148.5 C 598.5,160.67 608.333,173.004 618,185.5C 618.5,173.171 618.667,160.838 618.5,148.5C 622.167,148.5 625.833,148.5 629.5,148.5C 629.5,168.833 629.5,189.167 629.5,209.5C 624.821,209.666 620.155,209.499 615.5,209C 604.969,195.645 594.303,182.478 583.5,169.5C 583.217,168.711 582.717,168.044 582,167.5C 581.5,181.163 581.333,194.829 581.5,208.5C 577.833,208.5 574.167,208.5 570.5,208.5C 570.667,191.163 570.5,173.83 570,156.5C 568.82,154.14 567.653,151.807 566.5,149.5C 573.648,148.508 580.981,148.175 588.5,148.5 Z"/></g>
<g><path style="opacity:1" fill="#ec8f98" d="M 345.5,154.5 C 345.027,155.906 344.027,156.573 342.5,156.5C 342.973,155.094 343.973,154.427 345.5,154.5 Z"/></g>
<g><path style="opacity:1" fill="#f09395" d="M 857.5,156.5 C 858.71,156.932 859.71,157.599 860.5,158.5C 858.821,158.715 857.821,158.048 857.5,156.5 Z"/></g>
<g><path style="opacity:1" fill="#f9f9fa" d="M 700.5,161.5 C 713.957,159.955 725.957,163.289 736.5,171.5C 736.833,172.333 737.167,173.167 737.5,174C 736.438,177.139 735.438,180.306 734.5,183.5C 727.509,174.111 718.175,170.277 706.5,172C 704.04,173.458 701.873,175.291 700,177.5C 698.001,184.162 696.001,190.828 694,197.5C 693.779,211.106 700.612,217.439 714.5,216.5C 715.243,210.354 716.577,204.354 718.5,198.5C 707.498,198.507 705.998,195.174 714,188.5C 721.768,190.813 729.602,192.813 737.5,194.5C 735.193,204.197 732.693,213.863 730,223.5C 711.485,229.705 695.485,225.705 682,211.5C 673.059,194.759 675.559,179.926 689.5,167C 692.99,164.588 696.657,162.755 700.5,161.5 Z"/></g>
<g><path style="opacity:1" fill="#f8f9f9" d="M 486.5,161.5 C 488.371,161.859 489.871,162.859 491,164.5C 503.691,180.357 516.191,196.357 528.5,212.5C 523.315,214.8 517.982,216.8 512.5,218.5C 509.675,215.505 507.008,212.338 504.5,209C 503.5,208.833 502.5,208.667 501.5,208.5C 492.583,211.216 483.583,213.549 474.5,215.5C 474.331,220.181 473.998,224.848 473.5,229.5C 470.303,229.973 467.137,230.639 464,231.5C 463.5,231.167 463,230.833 462.5,230.5C 465.161,213.405 467.495,196.238 469.5,179C 469.856,174.856 468.522,171.356 465.5,168.5C 472.561,165.994 479.561,163.66 486.5,161.5 Z"/></g>
<g><path style="opacity:1" fill="#112644" d="M 479.5,178.5 C 485.492,185.167 491.159,192.167 496.5,199.5C 490.424,202.251 484.091,204.251 477.5,205.5C 477.255,196.454 477.921,187.454 479.5,178.5 Z"/></g>
<g><path style="opacity:1" fill="#f9fafa" d="M 792.5,190.5 C 806.299,197.566 819.965,204.9 833.5,212.5C 834.705,215.948 834.372,219.282 832.5,222.5C 824.397,218.032 816.23,213.699 808,209.5C 804.761,212.966 802.261,216.966 800.5,221.5C 806.465,225.821 812.798,229.655 819.5,233C 817.317,235.35 814.984,237.517 812.5,239.5C 807.08,236.373 801.58,233.373 796,230.5C 792.66,235.175 789.827,240.175 787.5,245.5C 796.167,250.5 804.833,255.5 813.5,260.5C 811.517,262.984 809.35,265.317 807,267.5C 794.42,260.794 781.92,253.96 769.5,247C 768.978,246.439 768.645,245.772 768.5,245C 776.453,230.261 784.287,215.428 792,200.5C 792.498,197.183 792.665,193.85 792.5,190.5 Z"/></g>
<g><path style="opacity:1" fill="#344860" d="M 583.5,169.5 C 582.833,182.5 582.167,195.5 581.5,208.5C 581.333,194.829 581.5,181.163 582,167.5C 582.717,168.044 583.217,168.711 583.5,169.5 Z"/></g>
<g><path style="opacity:1" fill="#e7767c" d="M 272.5,205.5 C 271.089,207.914 269.089,209.581 266.5,210.5C 267.911,208.086 269.911,206.419 272.5,205.5 Z"/></g>
<g><path style="opacity:1" fill="#e77379" d="M 265.5,211.5 C 263.761,214.243 261.427,216.243 258.5,217.5C 260.239,214.757 262.573,212.757 265.5,211.5 Z"/></g>
<g><path style="opacity:1" fill="#e46a70" d="M 256.5,219.5 C 253.769,223.234 250.436,226.234 246.5,228.5C 249.231,224.766 252.564,221.766 256.5,219.5 Z"/></g>
<g><path style="opacity:1" fill="#f9f9fa" d="M 321.5,244.5 C 323.527,244.338 325.527,244.505 327.5,245C 329.5,247.333 331.5,249.667 333.5,252C 323.075,253.125 314.908,257.959 309,266.5C 308.313,268.568 308.48,270.568 309.5,272.5C 312.106,273.652 314.773,273.818 317.5,273C 323.752,270.138 330.085,267.472 336.5,265C 352.859,263.027 360.359,270.194 359,286.5C 352.433,302.014 340.933,311.18 324.5,314C 321.794,311.629 319.461,308.963 317.5,306C 328.908,305.215 338.075,300.382 345,291.5C 347.903,285.74 346.236,282.073 340,280.5C 332.122,283.521 324.289,286.688 316.5,290C 303.936,291.707 296.936,286.207 295.5,273.5C 297.856,263.643 303.19,255.81 311.5,250C 315.056,248.392 318.389,246.559 321.5,244.5 Z"/></g>
<g><path style="opacity:1" fill="#3b8cdc" d="M 574.5,244.5 C 697.298,240.005 798.131,284.338 877,377.5C 948.238,471.202 970.238,575.535 943,690.5C 906.272,814.894 826.439,897.727 703.5,939C 586.273,972.108 478.94,952.441 381.5,880C 285.009,800.657 239.509,698.157 245,572.5C 256.784,459.531 308.617,370.364 400.5,305C 453.376,269.986 511.376,249.82 574.5,244.5 Z"/></g>
<g><path style="opacity:1" fill="#f9f9fa" d="M 880.5,245.5 C 886.224,250.038 891.557,255.038 896.5,260.5C 885.5,273.167 874.5,285.833 863.5,298.5C 869.824,304.656 876.324,310.656 883,316.5C 881.731,319.364 879.398,321.364 876,322.5C 866.845,314.68 857.678,306.847 848.5,299C 846.773,297.611 845.439,295.944 844.5,294C 854.947,281.216 865.78,268.716 877,256.5C 878.801,253.006 879.967,249.34 880.5,245.5 Z"/></g>
<g><path style="opacity:1" fill="#f1a1a8" d="M 977.5,253.5 C 979.262,254.262 980.262,255.596 980.5,257.5C 978.738,256.738 977.738,255.404 977.5,253.5 Z"/></g>
<g><path style="opacity:1" fill="#f1a2aa" d="M 220.5,254.5 C 220.573,256.027 219.906,257.027 218.5,257.5C 218.427,255.973 219.094,254.973 220.5,254.5 Z"/></g>
<g><path style="opacity:1" fill="#fdfdfe" d="M 574.5,258.5 C 695.542,253.958 794.042,298.291 870,391.5C 941.056,488.843 958.39,595.176 922,710.5C 885.971,809.527 819.138,878.694 721.5,918C 616.718,955.353 516.385,946.02 420.5,890C 321.39,825.676 267.557,734.176 259,615.5C 256.919,485.817 309.086,384.65 415.5,312C 464.273,281.395 517.273,263.562 574.5,258.5 Z"/></g>
<g><path style="opacity:1" fill="#ef98a0" d="M 213.5,262.5 C 213.573,264.027 212.906,265.027 211.5,265.5C 211.427,263.973 212.094,262.973 213.5,262.5 Z"/></g>
<g><path style="opacity:1" fill="#ef979f" d="M 985.5,262.5 C 986.906,262.973 987.573,263.973 987.5,265.5C 986.094,265.027 985.427,264.027 985.5,262.5 Z"/></g>
<g><path style="opacity:1" fill="#ed929c" d="M 181.5,303.5 C 181.573,305.027 180.906,306.027 179.5,306.5C 179.427,304.973 180.094,303.973 181.5,303.5 Z"/></g>
<g><path style="opacity:1" fill="#ed959e" d="M 1017.5,303.5 C 1018.91,303.973 1019.57,304.973 1019.5,306.5C 1018.09,306.027 1017.43,305.027 1017.5,303.5 Z"/></g>
<g><path style="opacity:1" fill="#0b2240" d="M 552.5,405.5 C 562.855,405.832 573.188,405.499 583.5,404.5C 583.376,403.893 583.043,403.56 582.5,403.5C 579.674,392.531 577.008,381.531 574.5,370.5C 500.489,380.738 443.323,417.071 403,479.5C 384.261,509.884 373.428,542.884 370.5,578.5C 350.149,581.392 329.815,584.392 309.5,587.5C 316.178,489.611 359.511,412.777 439.5,357C 488.021,325.106 541.354,309.272 599.5,309.5C 599.167,361.171 599.5,412.838 600.5,464.5C 602.095,459.276 603.762,454.109 605.5,449C 630.831,448.5 656.164,448.333 681.5,448.5C 681.372,459.745 685.705,468.912 694.5,476C 699.536,479.181 704.536,482.347 709.5,485.5C 704.833,485.833 700.167,486.167 695.5,486.5C 663.659,485.708 631.826,484.708 600,483.5C 564.989,484.227 529.989,485.227 495,486.5C 493.167,486.167 491.333,485.833 489.5,485.5C 497.381,481.633 504.548,476.633 511,470.5C 516.342,464.138 518.509,456.805 517.5,448.5C 542.833,448.5 568.167,448.5 593.5,448.5C 593.012,443.726 592.012,439.06 590.5,434.5C 572.179,434.068 553.845,433.901 535.5,434C 546.671,427.829 552.338,418.329 552.5,405.5 Z"/></g>
<g><path style="opacity:1" fill="#0b2240" d="M 611.5,310.5 C 719.882,317.578 801.049,367.911 855,461.5C 861.77,473.654 867.27,486.32 871.5,499.5C 870.62,502.802 869.954,506.135 869.5,509.5C 842.498,509.667 815.498,509.5 788.5,509C 787.707,507.915 787.04,506.748 786.5,505.5C 790.071,496.295 792.904,486.961 795,477.5C 754.146,414.8 696.313,379.133 621.5,370.5C 618.072,350.503 614.739,330.503 611.5,310.5 Z"/></g>
<g><path style="opacity:1" fill="#f9f9fa" d="M 950.5,315.5 C 960.44,328.134 970.107,341.134 979.5,354.5C 977.642,356.524 975.975,358.691 974.5,361C 973.833,361.667 973.167,361.667 972.5,361C 967.289,353.412 961.956,345.912 956.5,338.5C 952.5,341.5 948.5,344.5 944.5,347.5C 948.14,352.973 951.973,358.306 956,363.5C 956.617,364.449 956.451,365.282 955.5,366C 953.412,367.03 951.245,367.863 949,368.5C 944.831,363.492 940.665,358.492 936.5,353.5C 931.697,356.471 927.03,359.638 922.5,363C 927.211,369.589 932.045,376.089 937,382.5C 938.559,384.217 939.392,386.217 939.5,388.5C 936.575,389.639 933.575,390.139 930.5,390C 922.167,378.333 913.833,366.667 905.5,355C 917.5,346.333 929.5,337.667 941.5,329C 946.133,325.56 949.133,321.06 950.5,315.5 Z"/></g>
<g><path style="opacity:1" fill="#f9fafa" d="M 249.5,321.5 C 263.378,319.625 274.878,323.958 284,334.5C 294.277,354.381 290.11,370.881 271.5,384C 249.734,391.536 234.234,384.703 225,363.5C 223.137,343.548 231.304,329.548 249.5,321.5 Z"/></g>
<g><path style="opacity:1" fill="#ed959e" d="M 167.5,324.5 C 167.573,326.027 166.906,327.027 165.5,327.5C 165.427,325.973 166.094,324.973 167.5,324.5 Z"/></g>
<g><path style="opacity:1" fill="#ed969f" d="M 1031.5,324.5 C 1032.91,324.973 1033.57,325.973 1033.5,327.5C 1032.09,327.027 1031.43,326.027 1031.5,324.5 Z"/></g>
<g><path style="opacity:1" fill="#ed98a1" d="M 162.5,332.5 C 162.573,334.027 161.906,335.027 160.5,335.5C 160.427,333.973 161.094,332.973 162.5,332.5 Z"/></g>
<g><path style="opacity:1" fill="#0d2441" d="M 244.5,335.5 C 248.936,335.21 253.27,335.71 257.5,337C 263.597,340.799 269.431,344.965 275,349.5C 280.926,359.501 278.759,367.334 268.5,373C 265.167,373.667 261.833,373.667 258.5,373C 250.703,368.348 243.536,362.848 237,356.5C 235.517,353.298 235.183,349.964 236,346.5C 238.346,342.338 241.179,338.671 244.5,335.5 Z"/></g>
<g><path style="opacity:1" fill="#ef9fa7" d="M 159.5,337.5 C 159.573,339.027 158.906,340.027 157.5,340.5C 157.427,338.973 158.094,337.973 159.5,337.5 Z"/></g>
<g><path style="opacity:1" fill="#f1a7af" d="M 156.5,342.5 C 156.573,344.027 155.906,345.027 154.5,345.5C 154.427,343.973 155.094,342.973 156.5,342.5 Z"/></g>
<g><path style="opacity:1" fill="#394c64" d="M 582.5,403.5 C 583.043,403.56 583.376,403.893 583.5,404.5C 573.188,405.499 562.855,405.832 552.5,405.5C 562.5,404.833 572.5,404.167 582.5,403.5 Z"/></g>
<g><path style="opacity:1" fill="#0d2442" d="M 663.5,433.5 C 661.052,434.473 658.385,434.806 655.5,434.5C 640.157,434.51 624.824,434.177 609.5,433.5C 611.515,424.258 613.849,415.092 616.5,406C 626.828,405.5 637.161,405.334 647.5,405.5C 647.143,418.122 652.476,427.455 663.5,433.5 Z"/></g>
<g><path style="opacity:1" fill="#f9f9fa" d="M 990.5,409.5 C 999.595,407.802 1007.09,410.469 1013,417.5C 1020.53,426.604 1023.03,436.937 1020.5,448.5C 1017.61,449.74 1014.77,451.074 1012,452.5C 1011.96,449.032 1012.12,445.532 1012.5,442C 1012.58,434.498 1009.91,428.164 1004.5,423C 999.076,422.088 996.409,424.421 996.5,430C 999.223,440.246 999.056,450.413 996,460.5C 990.67,467.901 983.503,470.401 974.5,468C 963.087,460.7 956.587,450.2 955,436.5C 954.333,432.833 954.333,429.167 955,425.5C 958.22,422.919 961.72,421.919 965.5,422.5C 962.152,434.609 964.819,445.109 973.5,454C 977.346,455.157 980.179,453.991 982,450.5C 981.815,440.173 981.815,429.839 982,419.5C 983.978,415.362 986.811,412.029 990.5,409.5 Z"/></g>
<g><path style="opacity:1" fill="#f9f9fa" d="M 237.5,426.5 C 241.203,427.368 243.87,429.534 245.5,433C 240.457,445.965 235.124,458.798 229.5,471.5C 215.167,465.667 200.833,459.833 186.5,454C 181.456,452.574 176.456,452.074 171.5,452.5C 174.169,445.829 177.335,439.496 181,433.5C 196.335,440.098 211.835,445.931 227.5,451C 231.252,442.998 234.585,434.831 237.5,426.5 Z"/></g>
<g><path style="opacity:1" fill="#7e8a9a" d="M 663.5,433.5 C 664.043,433.56 664.376,433.893 664.5,434.5C 661.355,435.803 658.355,435.803 655.5,434.5C 658.385,434.806 661.052,434.473 663.5,433.5 Z"/></g>
<g><path style="opacity:1" fill="#e46e76" d="M 107.5,457.5 C 107.59,460.152 106.924,462.485 105.5,464.5C 105.41,461.848 106.076,459.515 107.5,457.5 Z"/></g>
<g><path style="opacity:1" fill="#e5737a" d="M 1091.5,457.5 C 1092.92,459.515 1093.59,461.848 1093.5,464.5C 1092.08,462.485 1091.41,460.152 1091.5,457.5 Z"/></g>
<g><path style="opacity:1" fill="#e97f87" d="M 105.5,464.5 C 105.59,467.152 104.924,469.485 103.5,471.5C 103.41,468.848 104.076,466.515 105.5,464.5 Z"/></g>
<g><path style="opacity:1" fill="#e87f88" d="M 1094.5,468.5 C 1095.92,470.515 1096.59,472.848 1096.5,475.5C 1095.08,473.485 1094.41,471.152 1094.5,468.5 Z"/></g>
<g><path style="opacity:1" fill="#0c2341" d="M 484.5,499.5 C 561.167,499.333 637.834,499.5 714.5,500C 718.855,524.207 730.355,544.374 749,560.5C 749.483,561.448 749.649,562.448 749.5,563.5C 722.627,552.262 695.294,542.096 667.5,533C 644.586,525.984 621.253,520.817 597.5,517.5C 546.708,525.653 498.041,540.653 451.5,562.5C 450.417,561.635 450.251,560.635 451,559.5C 469.215,543.4 480.382,523.4 484.5,499.5 Z"/></g>
<g><path style="opacity:1" fill="#0b2240" d="M 593.5,531.5 C 616.321,533.498 638.655,537.998 660.5,545C 693.156,555.341 724.823,567.841 755.5,582.5C 737.468,587.856 719.468,593.19 701.5,598.5C 764.163,599.5 826.83,599.833 889.5,599.5C 889.5,603.5 889.5,607.5 889.5,611.5C 848.1,617.122 806.767,623.289 765.5,630C 751.104,652.067 737.104,674.4 723.5,697C 701.604,710.357 677.938,717.524 652.5,718.5C 656.749,711 661.249,703.666 666,696.5C 686.382,671.12 706.382,645.453 726,619.5C 726.5,618.5 727,617.5 727.5,616.5C 723.682,615.061 719.849,613.728 716,612.5C 710.667,619.833 705.333,627.167 700,634.5C 682,654.5 664,674.5 646,694.5C 639.122,702.92 633.788,712.254 630,722.5C 627.658,739.842 634.824,751.342 651.5,757C 665.847,761.268 680.514,763.102 695.5,762.5C 695.148,765.428 694.482,768.262 693.5,771C 670.719,778.871 648.052,787.038 625.5,795.5C 617.477,715.85 609.644,636.183 602,556.5C 601.692,555.692 601.192,555.025 600.5,554.5C 599.5,666.165 599.167,777.831 599.5,889.5C 500.652,887.662 421.819,847.329 363,768.5C 327.735,717.8 309.902,661.466 309.5,599.5C 372.17,599.833 434.837,599.5 497.5,598.5C 480.054,593.363 462.554,588.363 445,583.5C 443.274,582.352 443.441,581.185 445.5,580C 492.828,557.279 542.161,541.112 593.5,531.5 Z"/></g>
<g><path style="opacity:1" fill="#fcfdfd" d="M 518.5,761.5 C 513.5,761.5 508.5,761.5 503.5,761.5C 503.263,762.791 503.596,763.791 504.5,764.5C 504.936,766.746 505.603,768.913 506.5,771C 528.653,778.606 550.653,786.606 572.5,795C 575.408,805.944 577.408,817.11 578.5,828.5C 493.191,818.116 431.025,774.783 392,698.5C 380.566,673.7 373.733,647.7 371.5,620.5C 392.524,623.432 413.524,626.599 434.5,630C 449,651.997 463,674.33 476.5,697C 498.387,710.185 522.053,717.518 547.5,719C 543.063,710.902 538.23,703.069 533,695.5C 511.735,669.571 491.235,643.071 471.5,616C 475.552,613.76 479.885,612.76 484.5,613C 492.233,624.735 500.733,635.902 510,646.5C 525.703,663.201 541.037,680.201 556,697.5C 562.503,705.505 567.17,714.505 570,724.5C 571.619,736.312 567.453,745.479 557.5,752C 545.272,758.342 532.272,761.509 518.5,761.5 Z"/></g>
<g><path style="opacity:1" fill="#0b2240" d="M 788.5,689.5 C 815.508,689.167 842.508,689.5 869.5,690.5C 870.599,693.296 871.599,696.129 872.5,699C 836.193,791.308 770.526,851.641 675.5,880C 654.795,885.171 633.795,888.337 612.5,889.5C 614.927,869.083 617.927,848.75 621.5,828.5C 696.288,819.877 754.121,784.21 795,721.5C 793.719,712.641 791.386,703.974 788,695.5C 787.322,693.402 787.489,691.402 788.5,689.5 Z"/></g>
<g><path style="opacity:1" fill="#0d2441" d="M 486.5,718.5 C 506.087,726.877 526.42,732.711 547.5,736C 544.124,739.356 540.124,741.69 535.5,743C 523.277,745.627 510.943,747.46 498.5,748.5C 495.595,738.03 491.595,728.03 486.5,718.5 Z"/></g>
<g><path style="opacity:1" fill="#102643" d="M 710.5,718.5 C 711.376,718.369 712.043,718.702 712.5,719.5C 707.319,728.718 703.319,738.384 700.5,748.5C 684.529,748.229 669.196,745.062 654.5,739C 653.5,738 652.5,737 651.5,736C 672.034,732.736 691.701,726.902 710.5,718.5 Z"/></g>
<g><path style="opacity:1" fill="#818d9c" d="M 518.5,761.5 C 513.579,761.862 508.913,762.862 504.5,764.5C 503.596,763.791 503.263,762.791 503.5,761.5C 508.5,761.5 513.5,761.5 518.5,761.5 Z"/></g>
<g><path style="opacity:1" fill="#f9f9fa" d="M 910.5,840.5 C 914.678,841.145 918.011,843.312 920.5,847C 913.787,849.103 907.954,852.603 903,857.5C 900.827,860.346 899.327,863.512 898.5,867C 899.208,871.051 901.541,872.718 905.5,872C 913.172,866.829 921.172,862.162 929.5,858C 945.848,856.682 953.015,864.182 951,880.5C 946.104,894.397 936.77,904.064 923,909.5C 920.032,907.369 917.199,905.036 914.5,902.5C 923.591,899.872 931.091,894.872 937,887.5C 942.18,878.336 939.68,874.17 929.5,875C 921.646,881.51 912.812,886.01 903,888.5C 890.597,886.391 885.597,879.057 888,866.5C 892.496,855.175 899.996,846.508 910.5,840.5 Z"/></g>
<g><path style="opacity:1" fill="#f8f9fa" d="M 276.5,844.5 C 297.173,844.34 310.506,854.173 316.5,874C 315.068,877.906 312.401,880.739 308.5,882.5C 308.502,871.359 303.502,863.526 293.5,859C 290.5,858.333 287.5,858.333 284.5,859C 279.882,861.95 275.548,865.284 271.5,869C 260.942,878.517 260.942,888.184 271.5,898C 275.721,900.908 280.387,902.741 285.5,903.5C 283.208,905.657 280.875,907.824 278.5,910C 275.217,910.743 272.217,910.076 269.5,908C 255.361,898.555 249.194,885.389 251,868.5C 256.046,856.744 264.546,848.744 276.5,844.5 Z"/></g>
<g><path style="opacity:1" fill="#f09697" d="M 156.5,857.5 C 158.048,857.821 158.715,858.821 158.5,860.5C 157.599,859.71 156.932,858.71 156.5,857.5 Z"/></g>
<g><path style="opacity:1" fill="#f9f9fa" d="M 353.5,904.5 C 360.046,908.041 366.046,912.374 371.5,917.5C 361.588,930.991 351.921,944.658 342.5,958.5C 350.167,964 357.833,969.5 365.5,975C 362.72,976.812 360.22,978.979 358,981.5C 346.202,973.356 334.702,964.856 323.5,956C 333.699,941.776 343.532,927.276 353,912.5C 353.497,909.854 353.664,907.187 353.5,904.5 Z"/></g>
<g><path style="opacity:1" fill="#fafafb" d="M 834.5,912.5 C 848.537,910.005 856.87,915.672 859.5,929.5C 858.941,934.689 856.941,939.189 853.5,943C 862.549,946.405 871.549,949.905 880.5,953.5C 875.305,957.929 869.639,961.595 863.5,964.5C 856.061,961.947 848.727,959.114 841.5,956C 836.726,954.906 835.226,956.406 837,960.5C 840.695,965.362 844.195,970.362 847.5,975.5C 843.746,979.548 839.413,982.882 834.5,985.5C 825.433,973.045 816.6,960.379 808,947.5C 804.581,943.885 800.747,940.885 796.5,938.5C 808.933,929.384 821.6,920.718 834.5,912.5 Z"/></g>
<g><path style="opacity:1" fill="#112644" d="M 832.5,924.5 C 838.965,926.134 842.965,930.301 844.5,937C 844.385,938.895 843.718,940.562 842.5,942C 838.735,944.631 834.902,947.131 831,949.5C 826.668,944.986 822.835,939.986 819.5,934.5C 823.683,930.916 828.016,927.582 832.5,924.5 Z"/></g>
<g><path style="opacity:1" fill="#fafafb" d="M 434.5,954.5 C 441.271,956.72 447.604,959.72 453.5,963.5C 445.764,981.874 437.931,1000.21 430,1018.5C 425.574,1016.37 421.074,1014.37 416.5,1012.5C 416.167,1011.83 415.833,1011.17 415.5,1010.5C 421.054,996.39 426.888,982.39 433,968.5C 434.225,963.915 434.725,959.248 434.5,954.5 Z"/></g>
<g><path style="opacity:1" fill="#f9f9fa" d="M 749.5,960.5 C 751.017,960.511 752.184,961.177 753,962.5C 754.167,964.333 755.333,966.167 756.5,968C 747.521,971.487 738.521,974.987 729.5,978.5C 731.431,983.127 733.265,987.794 735,992.5C 741.873,989.264 749.04,986.931 756.5,985.5C 756.817,988.572 756.484,991.572 755.5,994.5C 750.615,996.628 745.615,998.462 740.5,1000C 739.484,1000.52 738.818,1001.35 738.5,1002.5C 740.116,1007.69 742.116,1012.69 744.5,1017.5C 753.5,1014.17 762.5,1010.83 771.5,1007.5C 772.833,1010.83 772.833,1014.17 771.5,1017.5C 758.167,1022.5 744.833,1027.5 731.5,1032.5C 725.511,1017.7 720.011,1002.7 715,987.5C 712.925,983.421 710.092,979.921 706.5,977C 720.781,971.187 735.115,965.687 749.5,960.5 Z"/></g>
<g><path style="opacity:1" fill="#f9f9fa" d="M 501.5,979.5 C 515.343,981.14 529.009,983.64 542.5,987C 557.856,995.26 560.69,1006.76 551,1021.5C 545.772,1026.19 539.606,1028.19 532.5,1027.5C 526.443,1027.27 520.443,1026.6 514.5,1025.5C 513.392,1031.15 512.392,1036.81 511.5,1042.5C 506.184,1041.7 500.851,1041.04 495.5,1040.5C 497.646,1023.43 500.313,1006.43 503.5,989.5C 503.45,986.024 502.783,982.69 501.5,979.5 Z"/></g>
<g><path style="opacity:1" fill="#f09ba3" d="M 262.5,985.5 C 264.027,985.427 265.027,986.094 265.5,987.5C 263.973,987.573 262.973,986.906 262.5,985.5 Z"/></g>
<g><path style="opacity:1" fill="#fafafb" d="M 632.5,988.5 C 641.337,987.473 649.671,988.973 657.5,993C 664.493,1000.31 666.326,1008.81 663,1018.5C 659.817,1025.68 654.317,1029.85 646.5,1031C 640.843,1031.5 635.176,1031.67 629.5,1031.5C 629.476,1037.86 629.81,1044.19 630.5,1050.5C 624.839,1050.91 619.172,1051.24 613.5,1051.5C 612.332,1034.81 610.832,1018.15 609,1001.5C 607.545,998.088 605.712,994.921 603.5,992C 613.256,990.378 622.922,989.211 632.5,988.5 Z"/></g>
<g><path style="opacity:1" fill="#0f2543" d="M 520.5,992.5 C 525.607,992.685 530.607,993.518 535.5,995C 538.428,998.257 539.262,1002.09 538,1006.5C 538.212,1010.77 536.712,1014.27 533.5,1017C 527.812,1017.55 522.145,1017.39 516.5,1016.5C 517.554,1008.45 518.888,1000.45 520.5,992.5 Z"/></g>
<g><path style="opacity:1" fill="#ee929a" d="M 274.5,995.5 C 276.027,995.427 277.027,996.094 277.5,997.5C 275.973,997.573 274.973,996.906 274.5,995.5 Z"/></g>
<g><path style="opacity:1" fill="#0f2543" d="M 632.5,1022.5 C 631.167,1022.5 629.833,1022.5 628.5,1022.5C 628.795,1020.26 628.461,1018.26 627.5,1016.5C 627.498,1010.48 627.165,1004.48 626.5,998.5C 643.888,994.389 650.388,1001.06 646,1018.5C 642.177,1021.96 637.677,1023.3 632.5,1022.5 Z"/></g>
<g><path style="opacity:1" fill="#ee8f97" d="M 279.5,999.5 C 281.027,999.427 282.027,1000.09 282.5,1001.5C 280.973,1001.57 279.973,1000.91 279.5,999.5 Z"/></g>
<g><path style="opacity:1" fill="#808c9c" d="M 627.5,1016.5 C 628.461,1018.26 628.795,1020.26 628.5,1022.5C 629.833,1022.5 631.167,1022.5 632.5,1022.5C 631.081,1023.45 629.415,1023.78 627.5,1023.5C 627.5,1021.17 627.5,1018.83 627.5,1016.5 Z"/></g>
<g><path style="opacity:1" fill="#ee9ba3" d="M 324.5,1031.5 C 326.027,1031.43 327.027,1032.09 327.5,1033.5C 325.973,1033.57 324.973,1032.91 324.5,1031.5 Z"/></g>
<g><path style="opacity:1" fill="#f1a9b1" d="M 337.5,1039.5 C 339.027,1039.43 340.027,1040.09 340.5,1041.5C 338.973,1041.57 337.973,1040.91 337.5,1039.5 Z"/></g>
<g><path style="opacity:1" fill="#ee9397" d="M 440.5,1086.5 C 442.698,1086.12 444.365,1086.79 445.5,1088.5C 443.597,1088.2 441.93,1087.54 440.5,1086.5 Z"/></g>
<g><path style="opacity:1" fill="#e87b82" d="M 450.5,1089.5 C 453.152,1089.41 455.485,1090.08 457.5,1091.5C 454.848,1091.59 452.515,1090.92 450.5,1089.5 Z"/></g>
<g><path style="opacity:1" fill="#e6737a" d="M 457.5,1091.5 C 460.152,1091.41 462.485,1092.08 464.5,1093.5C 461.848,1093.59 459.515,1092.92 457.5,1091.5 Z"/></g>
<g><path style="opacity:1" fill="#e9838d" d="M 468.5,1094.5 C 471.152,1094.41 473.485,1095.08 475.5,1096.5C 472.848,1096.59 470.515,1095.92 468.5,1094.5 Z"/></g>
</svg>
