<?xml version="1.0" encoding="UTF-8"?>
<!DOCTYPE svg PUBLIC "-//W3C//DTD SVG 1.1//EN" "http://www.w3.org/Graphics/SVG/1.1/DTD/svg11.dtd">
<svg xmlns="http://www.w3.org/2000/svg" version="1.1" width="800px" height="800px" style="shape-rendering:geometricPrecision; text-rendering:geometricPrecision; image-rendering:optimizeQuality; fill-rule:evenodd; clip-rule:evenodd" xmlns:xlink="http://www.w3.org/1999/xlink">
<g><path style="opacity:0.98" fill="#fdfdfd" d="M 359.5,172.5 C 448.046,167.115 518.379,199.948 570.5,271C 628.166,271.5 685.832,271.667 743.5,271.5C 741.66,285.54 739.493,299.54 737,313.5C 735.157,320.695 731.657,326.861 726.5,332C 729.758,332.212 732.924,332.712 736,333.5C 736.089,339.55 735.422,345.55 734,351.5C 729.383,367.519 723.883,383.186 717.5,398.5C 733.833,398.5 750.167,398.5 766.5,398.5C 764.127,437.743 748.461,470.576 719.5,497C 700.655,513.429 679.322,525.763 655.5,534C 634.359,540.229 613.359,539.895 592.5,533C 585.556,529.947 579.389,525.781 574,520.5C 534.932,581.809 479.098,616.976 406.5,626C 312.637,632.068 239.971,596.068 188.5,518C 136.501,517.5 84.5011,517.333 32.5,517.5C 40.0738,502.524 48.0738,487.691 56.5,473C 51.1358,472.829 45.8025,472.329 40.5,471.5C 46.7458,459.34 53.2458,447.34 60,435.5C 71.4386,434.843 82.9386,434.177 94.5,433.5C 95.8333,430.167 97.1667,426.833 98.5,423.5C 93.5,422.833 88.5,422.167 83.5,421.5C 96.3333,397.833 109.167,374.167 122,350.5C 129.443,349.849 136.943,349.182 144.5,348.5C 147.442,342.282 150.109,335.949 152.5,329.5C 146.5,328.833 140.5,328.167 134.5,327.5C 144,309.833 153.5,292.167 163,274.5C 172.756,273.68 182.59,273.18 192.5,273C 233.61,215.44 289.277,181.94 359.5,172.5 Z"/></g>
<g><path style="opacity:1" fill="#0f0b05" d="M 540.5,277.5 C 493.023,240.288 439.023,223.455 378.5,227C 377.086,233.754 379.086,239.42 384.5,244C 403.501,256.169 422.835,267.836 442.5,279C 444.019,280.351 445.352,281.851 446.5,283.5C 445.277,284.614 443.944,284.781 442.5,284C 421.237,271.731 400.237,259.064 379.5,246C 374.329,241.325 371.996,235.491 372.5,228.5C 365.751,228.616 359.084,229.449 352.5,231C 349.364,231.315 346.697,232.482 344.5,234.5C 349.63,249.057 354.463,263.723 359,278.5C 359.91,286.57 358.577,287.237 355,280.5C 350,266.167 345,251.833 340,237.5C 338.991,236.342 337.658,235.675 336,235.5C 323.917,237.875 312.584,242.208 302,248.5C 302.305,251.491 302.972,254.491 304,257.5C 305.891,266.273 303.891,273.94 298,280.5C 297.13,279.892 296.63,279.059 296.5,278C 299.313,271.781 300.146,265.281 299,258.5C 297.985,255.79 296.485,253.457 294.5,251.5C 281.806,259.029 269.806,267.529 258.5,277C 256.091,278.707 253.425,279.54 250.5,279.5C 251.436,276.041 253.436,273.207 256.5,271C 268.028,262.639 279.695,254.472 291.5,246.5C 290.747,244.247 289.414,242.413 287.5,241C 284.52,238.025 281.02,235.859 277,234.5C 258.81,245.687 243.476,260.021 231,277.5C 229.549,279.464 227.716,280.797 225.5,281.5C 224.071,278.537 224.571,275.87 227,273.5C 258.662,233.231 299.829,208.065 350.5,198C 427.759,188.516 491.259,213.349 541,272.5C 541.638,273.609 542.138,274.775 542.5,276C 542.164,277.03 541.497,277.53 540.5,277.5 Z"/></g>
<g><path style="opacity:1" fill="#926b16" d="M 363.5,202.5 C 371.01,201.18 378.677,201.18 386.5,202.5C 386.376,203.107 386.043,203.44 385.5,203.5C 378.352,202.508 371.019,202.175 363.5,202.5 Z"/></g>
<g><path style="opacity:1" fill="#f7b526" d="M 363.5,202.5 C 371.019,202.175 378.352,202.508 385.5,203.5C 381.099,209.289 376.932,215.289 373,221.5C 362.995,222.626 353.162,224.626 343.5,227.5C 342.914,227.291 342.414,226.957 342,226.5C 339.932,220.129 337.765,213.796 335.5,207.5C 344.556,204.349 353.889,202.682 363.5,202.5 Z"/></g>
<g><path style="opacity:1" fill="#f4b325" d="M 393.5,202.5 C 434.15,204.102 470.483,217.269 502.5,242C 505.597,244.391 507.763,247.224 509,250.5C 469.549,227.847 427.049,217.847 381.5,220.5C 383.985,213.542 387.985,207.542 393.5,202.5 Z"/></g>
<g><path style="opacity:1" fill="#f8b626" d="M 324.5,209.5 C 326.467,209.261 328.301,209.594 330,210.5C 332.875,216.625 335.041,222.958 336.5,229.5C 323.213,232.375 310.547,237.041 298.5,243.5C 293.71,238.609 288.377,234.442 282.5,231C 295.873,222.481 309.873,215.314 324.5,209.5 Z"/></g>
<g><path style="opacity:1" fill="#fbb727" d="M 540.5,277.5 C 546.678,285.862 552.344,294.528 557.5,303.5C 554.947,308.938 552.113,314.271 549,319.5C 547.556,321.155 545.722,321.822 543.5,321.5C 543.5,322.5 543.5,323.5 543.5,324.5C 551.5,324.5 559.5,324.5 567.5,324.5C 570.566,332.032 573.233,339.699 575.5,347.5C 560.163,347.333 544.83,347.5 529.5,348C 528.483,349.049 528.316,350.216 529,351.5C 531.52,352.207 534.02,353.04 536.5,354C 537.081,354.893 537.415,355.893 537.5,357C 533.957,365.419 529.624,373.419 524.5,381C 520.129,381.172 515.796,381.672 511.5,382.5C 515.107,383.489 518.774,383.823 522.5,383.5C 518.765,392.777 514.265,401.777 509,410.5C 504.879,411.139 500.713,411.805 496.5,412.5C 499.447,413.321 502.447,413.821 505.5,414C 505.957,414.414 506.291,414.914 506.5,415.5C 500.746,425.339 495.246,435.339 490,445.5C 486.708,450.788 481.875,452.955 475.5,452C 474.483,453.049 474.316,454.216 475,455.5C 492.093,456.658 509.259,456.825 526.5,456C 527.517,454.951 527.684,453.784 527,452.5C 522.606,451.46 520.606,448.793 521,444.5C 528.333,430.5 535.667,416.5 543,402.5C 549.427,401.186 553.761,403.853 556,410.5C 558.682,419.263 559.849,428.096 559.5,437C 552.809,437.169 546.142,437.669 539.5,438.5C 546.723,439.183 553.89,439.849 561,440.5C 561.975,448.159 562.809,455.826 563.5,463.5C 555.804,463.169 548.138,463.503 540.5,464.5C 548.479,465.332 556.479,465.832 564.5,466C 565.933,469.468 567.267,472.968 568.5,476.5C 564.871,484.431 561.204,492.431 557.5,500.5C 556.206,501.29 555.039,502.29 554,503.5C 531.688,541.808 500.021,569.475 459,586.5C 457.523,585.556 456.523,584.223 456,582.5C 444.135,546.573 432.469,510.573 421,474.5C 420.288,472.153 419.121,470.153 417.5,468.5C 417.167,469.167 416.833,469.833 416.5,470.5C 428.679,510.216 441.012,549.883 453.5,589.5C 437.572,594.731 421.239,598.231 404.5,600C 390.5,600.667 376.5,600.667 362.5,600C 358.814,599.441 355.147,598.774 351.5,598C 316.515,560.384 291.848,516.717 277.5,467C 276.552,466.517 275.552,466.351 274.5,466.5C 283.532,503.225 299.032,536.892 321,567.5C 328.045,577.09 335.212,586.59 342.5,596C 301.817,586.909 267.317,567.076 239,536.5C 230.332,526.461 222.165,516.128 214.5,505.5C 212.417,501 210.084,496.666 207.5,492.5C 214.363,480.612 221.363,468.779 228.5,457C 261.167,456.667 293.833,456.333 326.5,456C 327.167,455.333 327.833,454.667 328.5,454C 325.536,452.382 322.703,450.548 320,448.5C 319.333,445.167 319.333,441.833 320,438.5C 335.401,412.089 350.401,385.423 365,358.5C 366.751,355.08 369.418,352.746 373,351.5C 373.667,350.5 373.667,349.5 373,348.5C 358.333,347.167 343.667,347.167 329,348.5C 328.316,349.784 328.483,350.951 329.5,352C 334.643,351.471 336.476,353.638 335,358.5C 331.793,365.086 327.959,371.253 323.5,377C 318.467,377.171 313.467,377.671 308.5,378.5C 312.459,379.327 316.459,379.827 320.5,380C 321.517,381.049 321.684,382.216 321,383.5C 310.079,403.007 299.412,422.674 289,442.5C 284.653,449.489 281.82,448.989 280.5,441C 284.715,410.165 288.549,379.331 292,348.5C 284.246,347.353 276.413,347.186 268.5,348C 265.734,351.522 262.734,354.855 259.5,358C 252.809,358.169 246.142,358.669 239.5,359.5C 244.802,360.329 250.136,360.829 255.5,361C 256.451,361.718 256.617,362.551 256,363.5C 250.167,370.667 244.333,377.833 238.5,385C 235.447,385.179 232.447,385.679 229.5,386.5C 231.5,387.167 233.5,387.833 235.5,388.5C 230.024,395.81 224.357,402.977 218.5,410C 212.141,410.169 205.807,410.669 199.5,411.5C 204.833,412.167 210.167,412.833 215.5,413.5C 207.492,424.166 199.159,434.499 190.5,444.5C 188.289,432.267 186.956,419.934 186.5,407.5C 204.641,373.22 222.808,338.887 241,304.5C 242.543,302.622 244.376,301.122 246.5,300C 254.167,299.667 261.833,299.333 269.5,299C 270.925,297.286 270.592,295.953 268.5,295C 251.503,294.5 234.503,294.333 217.5,294.5C 219.403,289.693 222.07,285.36 225.5,281.5C 227.716,280.797 229.549,279.464 231,277.5C 243.476,260.021 258.81,245.687 277,234.5C 281.02,235.859 284.52,238.025 287.5,241C 289.414,242.413 290.747,244.247 291.5,246.5C 279.695,254.472 268.028,262.639 256.5,271C 253.436,273.207 251.436,276.041 250.5,279.5C 253.425,279.54 256.091,278.707 258.5,277C 269.806,267.529 281.806,259.029 294.5,251.5C 296.485,253.457 297.985,255.79 299,258.5C 300.146,265.281 299.313,271.781 296.5,278C 296.63,279.059 297.13,279.892 298,280.5C 303.891,273.94 305.891,266.273 304,257.5C 302.972,254.491 302.305,251.491 302,248.5C 312.584,242.208 323.917,237.875 336,235.5C 337.658,235.675 338.991,236.342 340,237.5C 345,251.833 350,266.167 355,280.5C 358.577,287.237 359.91,286.57 359,278.5C 354.463,263.723 349.63,249.057 344.5,234.5C 346.697,232.482 349.364,231.315 352.5,231C 359.084,229.449 365.751,228.616 372.5,228.5C 371.996,235.491 374.329,241.325 379.5,246C 400.237,259.064 421.237,271.731 442.5,284C 443.944,284.781 445.277,284.614 446.5,283.5C 445.352,281.851 444.019,280.351 442.5,279C 422.835,267.836 403.501,256.169 384.5,244C 379.086,239.42 377.086,233.754 378.5,227C 439.023,223.455 493.023,240.288 540.5,277.5 Z"/></g>
<g><path style="opacity:1" fill="#572884" d="M 691.5,292.5 C 698.325,292.67 704.992,293.67 711.5,295.5C 711.456,298.316 710.456,300.649 708.5,302.5C 705.961,296.824 701.795,295.157 696,297.5C 695.333,298.5 695.333,299.5 696,300.5C 699.151,303.407 702.484,306.074 706,308.5C 707.045,318.961 702.212,324.295 691.5,324.5C 686.916,324.045 682.583,322.711 678.5,320.5C 676.971,320.529 675.804,321.196 675,322.5C 674.5,322 674,321.5 673.5,321C 674.961,318.579 676.294,316.079 677.5,313.5C 678.325,312.614 679.325,312.281 680.5,312.5C 682.377,319.317 686.71,321.317 693.5,318.5C 694.614,317.277 694.781,315.944 694,314.5C 691,312.5 688,310.5 685,308.5C 681.92,300.998 684.086,295.665 691.5,292.5 Z"/></g>
<g><path style="opacity:1" fill="#582681" d="M 382.5,292.5 C 389.46,292.376 396.127,293.709 402.5,296.5C 401.877,298.711 400.877,300.711 399.5,302.5C 397.173,297.171 393.173,295.338 387.5,297C 386.328,298.868 386.495,300.702 388,302.5C 397.11,305.556 399.443,311.223 395,319.5C 390.034,324.089 384.2,325.589 377.5,324C 374.945,322.556 372.279,321.389 369.5,320.5C 367.945,320.722 366.611,321.389 365.5,322.5C 364.417,321.635 364.251,320.635 365,319.5C 366.5,317.167 368,314.833 369.5,312.5C 372.16,318.66 376.826,320.827 383.5,319C 385.211,317.867 385.711,316.367 385,314.5C 381.142,312.905 377.809,310.572 375,307.5C 373.271,300.29 375.771,295.29 382.5,292.5 Z"/></g>
<g><path style="opacity:1" fill="#592781" d="M 525.5,292.5 C 528.518,292.335 531.518,292.502 534.5,293C 538.268,295.056 542.268,296.222 546.5,296.5C 545.483,303.823 543.15,304.656 539.5,299C 525.494,297.341 518.994,303.508 520,317.5C 526.858,321.304 530.191,319.304 530,311.5C 529.075,310.953 528.242,310.287 527.5,309.5C 532.792,308.505 538.125,308.172 543.5,308.5C 541.844,313.818 540.178,319.151 538.5,324.5C 535.459,324.449 532.792,323.449 530.5,321.5C 527.065,322.384 523.732,323.551 520.5,325C 512.207,324.545 507.54,320.045 506.5,311.5C 509.209,301.457 515.543,295.124 525.5,292.5 Z"/></g>
<g><path style="opacity:1" fill="#572682" d="M 340.5,293.5 C 359.035,291.511 365.535,299.177 360,316.5C 351.264,326.333 341.264,328 330,321.5C 323.102,308.292 326.602,298.959 340.5,293.5 Z"/></g>
<g><path style="opacity:1" fill="#5b2880" d="M 445.5,294.5 C 447.604,294.201 449.604,294.534 451.5,295.5C 454.04,303.119 456.374,310.786 458.5,318.5C 459.822,318.67 460.989,318.337 462,317.5C 465.167,311.167 468.333,304.833 471.5,298.5C 470.5,297.667 469.5,296.833 468.5,296C 468.833,295.667 469.167,295.333 469.5,295C 474.949,294.104 480.282,294.437 485.5,296C 488.71,300.92 492.043,305.754 495.5,310.5C 499.33,307.035 500.663,302.868 499.5,298C 498.552,297.517 497.552,297.351 496.5,297.5C 496.5,296.5 496.5,295.5 496.5,294.5C 501.167,294.5 505.833,294.5 510.5,294.5C 510.5,295.5 510.5,296.5 510.5,297.5C 508.097,297.393 506.264,298.393 505,300.5C 501,307.833 497,315.167 493,322.5C 490.582,324.68 487.916,325.013 485,323.5C 481.841,316.512 478.174,309.846 474,303.5C 471.667,308.167 469.333,312.833 467,317.5C 466.876,319.936 467.376,322.269 468.5,324.5C 458.833,324.5 449.167,324.5 439.5,324.5C 439.277,321.886 440.444,320.219 443,319.5C 444.042,316.196 442.875,314.029 439.5,313C 435.5,312.333 431.5,312.333 427.5,313C 426.333,314.167 425.167,315.333 424,316.5C 424.484,319.198 425.317,321.865 426.5,324.5C 420.833,324.5 415.167,324.5 409.5,324.5C 409.5,323.167 409.5,321.833 409.5,320.5C 415.173,320.018 419.84,317.518 423.5,313C 421.527,312.505 419.527,312.338 417.5,312.5C 417.33,311.178 417.663,310.011 418.5,309C 422.167,308.667 425.833,308.333 429.5,308C 435.09,303.719 440.423,299.219 445.5,294.5 Z"/></g>
<g><path style="opacity:1" fill="#562683" d="M 217.5,294.5 C 234.503,294.333 251.503,294.5 268.5,295C 270.592,295.953 270.925,297.286 269.5,299C 261.833,299.333 254.167,299.667 246.5,300C 244.376,301.122 242.543,302.622 241,304.5C 222.808,338.887 204.641,373.22 186.5,407.5C 178.364,421.834 170.364,436.334 162.5,451C 172.543,451.428 181.877,449.261 190.5,444.5C 199.159,434.499 207.492,424.166 215.5,413.5C 210.167,412.833 204.833,412.167 199.5,411.5C 205.807,410.669 212.141,410.169 218.5,410C 224.357,402.977 230.024,395.81 235.5,388.5C 233.5,387.833 231.5,387.167 229.5,386.5C 232.447,385.679 235.447,385.179 238.5,385C 244.333,377.833 250.167,370.667 256,363.5C 256.617,362.551 256.451,361.718 255.5,361C 250.136,360.829 244.802,360.329 239.5,359.5C 246.142,358.669 252.809,358.169 259.5,358C 262.734,354.855 265.734,351.522 268.5,348C 276.413,347.186 284.246,347.353 292,348.5C 288.549,379.331 284.715,410.165 280.5,441C 281.82,448.989 284.653,449.489 289,442.5C 299.412,422.674 310.079,403.007 321,383.5C 321.684,382.216 321.517,381.049 320.5,380C 316.459,379.827 312.459,379.327 308.5,378.5C 313.467,377.671 318.467,377.171 323.5,377C 327.959,371.253 331.793,365.086 335,358.5C 336.476,353.638 334.643,351.471 329.5,352C 328.483,350.951 328.316,349.784 329,348.5C 343.667,347.167 358.333,347.167 373,348.5C 373.667,349.5 373.667,350.5 373,351.5C 369.418,352.746 366.751,355.08 365,358.5C 350.401,385.423 335.401,412.089 320,438.5C 319.333,441.833 319.333,445.167 320,448.5C 322.703,450.548 325.536,452.382 328.5,454C 327.833,454.667 327.167,455.333 326.5,456C 293.833,456.333 261.167,456.667 228.5,457C 221.363,468.779 214.363,480.612 207.5,492.5C 163.832,492.667 120.165,492.5 76.5,492C 73.8333,490.333 73.8333,488.667 76.5,487C 85.8333,486.667 95.1667,486.333 104.5,486C 108.051,482.062 110.385,477.562 111.5,472.5C 107.116,472.826 102.783,472.492 98.5,471.5C 103.467,470.671 108.467,470.171 113.5,470C 116.126,465.916 118.626,461.75 121,457.5C 121.684,456.216 121.517,455.049 120.5,454C 104.823,453.833 89.156,453.333 73.5,452.5C 90.581,451.973 107.581,451.14 124.5,450C 128.627,442.914 132.627,435.747 136.5,428.5C 135.975,427.808 135.308,427.308 134.5,427C 130.459,426.827 126.459,426.327 122.5,425.5C 127.853,424.789 133.186,424.122 138.5,423.5C 142.571,418.025 145.571,412.025 147.5,405.5C 136.813,405.832 126.146,405.499 115.5,404.5C 126.915,403.958 138.248,403.125 149.5,402C 155.644,392.54 160.81,382.707 165,372.5C 154.561,371.844 144.061,371.177 133.5,370.5C 144.889,369.935 156.222,369.102 167.5,368C 171.983,362.535 174.983,356.368 176.5,349.5C 174.076,349.808 171.743,349.474 169.5,348.5C 173.041,347.8 176.541,347.133 180,346.5C 183.986,340.195 187.153,333.528 189.5,326.5C 184.456,326.827 179.456,326.494 174.5,325.5C 180.138,324.67 185.804,324.17 191.5,324C 194.434,320.64 196.101,316.806 196.5,312.5C 186.145,312.832 175.812,312.499 165.5,311.5C 177.061,310.823 188.561,310.157 200,309.5C 202.781,306.308 202.948,303.142 200.5,300C 192.833,299.667 185.167,299.333 177.5,299C 176.269,297.817 176.269,296.651 177.5,295.5C 190.784,294.518 204.117,294.185 217.5,294.5 Z"/></g>
<g><path style="opacity:1" fill="#5c2980" d="M 296.5,294.5 C 302.833,294.5 309.167,294.5 315.5,294.5C 310.629,302.562 305.962,310.895 301.5,319.5C 304.106,320.652 306.773,320.818 309.5,320C 313.535,318.21 317.202,316.21 320.5,314C 318.413,317.508 316.08,320.842 313.5,324C 303.483,324.832 293.483,324.666 283.5,323.5C 289.648,316.813 294.481,309.146 298,300.5C 297.848,298.481 297.348,296.481 296.5,294.5 Z"/></g>
<g><path style="opacity:1" fill="#5c2c84" d="M 564.5,318.5 C 561.423,321.343 562.09,322.677 566.5,322.5C 572.504,322.276 577.838,320.276 582.5,316.5C 582.833,316.833 583.167,317.167 583.5,317.5C 581.712,319.576 580.046,321.743 578.5,324C 574.848,324.499 571.182,324.665 567.5,324.5C 559.5,324.5 551.5,324.5 543.5,324.5C 543.5,323.5 543.5,322.5 543.5,321.5C 545.722,321.822 547.556,321.155 549,319.5C 552.113,314.271 554.947,308.938 557.5,303.5C 558.525,302.626 559.192,301.459 559.5,300C 557.888,298.518 556.888,296.685 556.5,294.5C 568.171,294.333 579.838,294.5 591.5,295C 594.084,298.397 593.417,301.231 589.5,303.5C 585.638,297.852 580.305,296.019 573.5,298C 571.706,301.088 570.039,304.254 568.5,307.5C 572.734,309.015 576.567,308.348 580,305.5C 579.582,308.521 578.415,311.355 576.5,314C 573.426,312.662 570.092,312.329 566.5,313C 565.139,314.584 564.472,316.418 564.5,318.5 Z"/></g>
<g><path style="opacity:1" fill="#5b2d87" d="M 602.5,294.5 C 608.833,294.5 615.167,294.5 621.5,294.5C 616.502,302.65 611.835,311.15 607.5,320C 610.167,320.667 612.833,320.667 615.5,320C 619.833,318.678 623.5,316.678 626.5,314C 624.413,317.508 622.08,320.842 619.5,324C 609.483,324.832 599.483,324.666 589.5,323.5C 595.473,316.245 600.473,308.245 604.5,299.5C 603.05,298.15 602.383,296.484 602.5,294.5 Z"/></g>
<g><path style="opacity:1" fill="#5c2e87" d="M 642.5,294.5 C 654.171,294.333 665.838,294.5 677.5,295C 680.084,298.397 679.417,301.231 675.5,303.5C 671.493,298.004 666.16,296.171 659.5,298C 657.706,301.088 656.039,304.254 654.5,307.5C 658.734,309.015 662.567,308.348 666,305.5C 665.596,308.976 664.096,311.976 661.5,314.5C 658.792,312.564 655.792,312.064 652.5,313C 650.467,315.896 649.134,319.063 648.5,322.5C 655.995,323.111 662.662,321.111 668.5,316.5C 669.521,317.002 669.688,317.668 669,318.5C 667.38,320.241 665.88,322.075 664.5,324C 652.838,324.5 641.171,324.667 629.5,324.5C 629.5,323.5 629.5,322.5 629.5,321.5C 631.722,321.822 633.556,321.155 635,319.5C 638.333,313.5 641.667,307.5 645,301.5C 645.667,300.5 645.667,299.5 645,298.5C 643.294,297.692 642.461,296.359 642.5,294.5 Z"/></g>
<g><path style="opacity:1" fill="#f7b52b" d="M 345.5,297.5 C 348.044,297.104 350.211,297.771 352,299.5C 353.245,307.429 350.745,313.929 344.5,319C 341.286,321.402 338.786,320.902 337,317.5C 336.177,313.262 336.844,309.262 339,305.5C 341.001,302.669 343.167,300.003 345.5,297.5 Z"/></g>
<g><path style="opacity:1" fill="#fab828" d="M 443.5,308.5 C 440.287,308.81 437.287,308.477 434.5,307.5C 437.579,305.533 440.412,303.2 443,300.5C 443.497,303.146 443.664,305.813 443.5,308.5 Z"/></g>
<g><path style="opacity:1" fill="#895266" d="M 434.5,307.5 C 437.287,308.477 440.287,308.81 443.5,308.5C 440.313,309.806 436.98,309.806 433.5,308.5C 433.624,307.893 433.957,307.56 434.5,307.5 Z"/></g>
<g><path style="opacity:1" fill="#d19442" d="M 564.5,318.5 C 565.167,319.833 565.833,321.167 566.5,322.5C 562.09,322.677 561.423,321.343 564.5,318.5 Z"/></g>
<g><path style="opacity:1" fill="#562683" d="M 568.5,476.5 C 567.267,472.968 565.933,469.468 564.5,466C 556.479,465.832 548.479,465.332 540.5,464.5C 548.138,463.503 555.804,463.169 563.5,463.5C 562.809,455.826 561.975,448.159 561,440.5C 553.89,439.849 546.723,439.183 539.5,438.5C 546.142,437.669 552.809,437.169 559.5,437C 559.849,428.096 558.682,419.263 556,410.5C 553.761,403.853 549.427,401.186 543,402.5C 535.667,416.5 528.333,430.5 521,444.5C 520.606,448.793 522.606,451.46 527,452.5C 527.684,453.784 527.517,454.951 526.5,456C 509.259,456.825 492.093,456.658 475,455.5C 474.316,454.216 474.483,453.049 475.5,452C 481.875,452.955 486.708,450.788 490,445.5C 495.246,435.339 500.746,425.339 506.5,415.5C 506.291,414.914 505.957,414.414 505.5,414C 502.447,413.821 499.447,413.321 496.5,412.5C 500.713,411.805 504.879,411.139 509,410.5C 514.265,401.777 518.765,392.777 522.5,383.5C 518.774,383.823 515.107,383.489 511.5,382.5C 515.796,381.672 520.129,381.172 524.5,381C 529.624,373.419 533.957,365.419 537.5,357C 537.415,355.893 537.081,354.893 536.5,354C 534.02,353.04 531.52,352.207 529,351.5C 528.316,350.216 528.483,349.049 529.5,348C 544.83,347.5 560.163,347.333 575.5,347.5C 587.746,345.753 598.58,348.753 608,356.5C 614.226,366.683 613.893,376.683 607,386.5C 599.662,394.022 591.162,399.688 581.5,403.5C 577.648,403.87 573.981,404.87 570.5,406.5C 574.092,411.357 577.425,416.357 580.5,421.5C 585.575,429.978 590.408,438.645 595,447.5C 596.743,445.679 598.243,443.679 599.5,441.5C 598.5,440.833 597.5,440.167 596.5,439.5C 598.341,438.77 600.175,438.103 602,437.5C 606.333,430.833 610.667,424.167 615,417.5C 613.697,425.069 613.363,432.736 614,440.5C 616.394,449.901 622.394,454.234 632,453.5C 643.521,454.803 650.355,449.803 652.5,438.5C 644.622,438.099 644.622,437.099 652.5,435.5C 652.289,426.234 648.622,418.401 641.5,412C 631.506,411.5 621.506,411.334 611.5,411.5C 611.5,410.5 611.5,409.5 611.5,408.5C 620.192,408.831 628.859,408.498 637.5,407.5C 634.691,403.523 631.691,399.69 628.5,396C 625.447,395.821 622.447,395.321 619.5,394.5C 619.624,393.893 619.957,393.56 620.5,393.5C 622.924,393.808 625.257,393.474 627.5,392.5C 627.376,391.893 627.043,391.56 626.5,391.5C 623.57,382.631 623.903,373.965 627.5,365.5C 625.712,365.785 624.045,365.452 622.5,364.5C 624.766,363.686 627.1,363.186 629.5,363C 634.458,353.686 642.125,348.019 652.5,346C 665.431,343.484 677.098,346.151 687.5,354C 693.891,354.32 700.224,353.82 706.5,352.5C 706.245,355.016 705.411,357.35 704,359.5C 698.833,368.5 693.667,377.5 688.5,386.5C 686.192,387.948 684.859,387.282 684.5,384.5C 685.648,380.911 686.315,377.244 686.5,373.5C 678.5,372.833 678.5,372.167 686.5,371.5C 686.933,360.881 681.933,354.381 671.5,352C 656,350.167 649.167,357 651,372.5C 652.726,376.953 654.726,381.286 657,385.5C 666.275,394.444 673.609,404.778 679,416.5C 682.71,439.879 672.877,454.046 649.5,459C 636.27,460.517 623.936,457.85 612.5,451C 608.375,450.146 604.375,450.48 600.5,452C 599.272,467.911 604.938,481.244 617.5,492C 633.239,500.931 649.572,501.931 666.5,495C 672.873,492.488 678.54,488.988 683.5,484.5C 681.257,483.526 678.924,483.192 676.5,483.5C 676.5,482.5 676.5,481.5 676.5,480.5C 681.628,480.888 686.628,480.388 691.5,479C 698.905,472.265 705.572,464.932 711.5,457C 708.957,456.86 706.623,456.194 704.5,455C 708.446,454.122 712.279,452.955 716,451.5C 721.34,445.326 725.174,438.326 727.5,430.5C 725.076,430.808 722.743,430.474 720.5,429.5C 723.447,428.679 726.447,428.179 729.5,428C 732.155,423.346 732.988,423.846 732,429.5C 718.265,457.908 698.098,480.742 671.5,498C 649.707,511.419 626.707,514.086 602.5,506C 588.136,499.456 576.802,489.623 568.5,476.5 Z"/></g>
<g><path style="opacity:1" fill="#562582" d="M 388.5,347.5 C 430.168,347.333 471.835,347.5 513.5,348C 514.804,348.804 515.471,349.971 515.5,351.5C 509.685,363.13 503.851,374.797 498,386.5C 496.644,387.38 495.144,387.714 493.5,387.5C 493.666,379.826 493.5,372.159 493,364.5C 491.464,357.631 487.298,353.464 480.5,352C 476.459,351.173 472.459,351.34 468.5,352.5C 460.833,367.167 453.167,381.833 445.5,396.5C 454.853,398.328 463.186,396.161 470.5,390C 472.311,387.022 474.644,384.522 477.5,382.5C 478.314,384.952 477.814,387.285 476,389.5C 469.5,400.5 463,411.5 456.5,422.5C 456.167,422 455.833,421.5 455.5,421C 461.022,406.202 456.188,400.369 441,403.5C 433.667,418.167 426.333,432.833 419,447.5C 418.316,448.784 418.483,449.951 419.5,451C 433.207,453.823 445.541,450.823 456.5,442C 463.573,435.598 469.906,428.598 475.5,421C 477.345,419.872 479.345,419.372 481.5,419.5C 476.221,430.72 470.388,441.72 464,452.5C 462.786,454.049 461.286,455.215 459.5,456C 424.5,456.667 389.5,456.667 354.5,456C 352.951,454.786 351.785,453.286 351,451.5C 347.603,435.518 344.603,419.518 342,403.5C 359,389.833 376,376.167 393,362.5C 394.457,359.634 394.79,356.634 394,353.5C 391.667,352.833 389.333,352.167 387,351.5C 386.516,349.807 387.016,348.473 388.5,347.5 Z"/></g>
<g><path style="opacity:1" fill="#fab728" d="M 419.5,349.5 C 425.29,349.096 430.956,349.596 436.5,351C 437.894,354.093 437.227,356.759 434.5,359C 430.901,360.014 427.235,360.847 423.5,361.5C 426.428,362.484 429.428,362.817 432.5,362.5C 427.008,375.652 420.341,388.152 412.5,400C 407.136,400.171 401.802,400.671 396.5,401.5C 401.644,402.049 406.644,402.882 411.5,404C 403.284,418.931 395.45,434.098 388,449.5C 384.111,452.611 381.111,451.944 379,447.5C 375.444,428.275 371.611,409.108 367.5,390C 384.427,375.897 401.761,362.397 419.5,349.5 Z"/></g>
<g><path style="opacity:1" fill="#f9b62a" d="M 576.5,352.5 C 577.855,358.949 579.189,365.283 580.5,371.5C 577.14,383.527 569.807,392.193 558.5,397.5C 555.19,395.518 552.19,393.185 549.5,390.5C 556.454,377.422 563.787,364.589 571.5,352C 573.387,351.22 575.054,351.387 576.5,352.5 Z"/></g>
<g><path style="opacity:1" fill="#f2eae9" d="M 576.5,352.5 C 579.452,353.359 581.285,355.359 582,358.5C 582.731,362.984 582.231,367.318 580.5,371.5C 579.189,365.283 577.855,358.949 576.5,352.5 Z"/></g>
<g><path style="opacity:1" fill="#f9b629" d="M 264.5,358.5 C 265.043,358.56 265.376,358.893 265.5,359.5C 262.618,376.125 259.952,392.791 257.5,409.5C 247.161,409.666 236.828,409.5 226.5,409C 239.383,392.29 252.05,375.456 264.5,358.5 Z"/></g>
<g><path style="opacity:1" fill="#a48abd" d="M 626.5,391.5 C 627.043,391.56 627.376,391.893 627.5,392.5C 625.257,393.474 622.924,393.808 620.5,393.5C 622.5,392.833 624.5,392.167 626.5,391.5 Z"/></g>
<g><path style="opacity:1" fill="#f7b531" d="M 581.5,403.5 C 582.163,405.473 582.496,407.639 582.5,410C 582.569,414.095 581.903,417.928 580.5,421.5C 577.425,416.357 574.092,411.357 570.5,406.5C 573.981,404.87 577.648,403.87 581.5,403.5 Z"/></g>
<g><path style="opacity:1" fill="#fbfafa" d="M 186.5,407.5 C 186.956,419.934 188.289,432.267 190.5,444.5C 181.877,449.261 172.543,451.428 162.5,451C 170.364,436.334 178.364,421.834 186.5,407.5 Z"/></g>
<g><path style="opacity:1" fill="#fab729" d="M 199.5,475.5 C 197.63,469.223 195.963,462.89 194.5,456.5C 201.09,456.811 207.59,456.478 214,455.5C 214.684,454.216 214.517,453.049 213.5,452C 206.063,451.57 202.563,447.736 203,440.5C 209.378,431.578 215.878,422.744 222.5,414C 233.161,413.5 243.828,413.333 254.5,413.5C 253.612,424.843 251.445,435.843 248,446.5C 242.989,450.506 237.323,453.173 231,454.5C 232.482,450.524 234.315,446.524 236.5,442.5C 235.277,441.386 233.944,441.219 232.5,442C 225.294,449.537 218.46,457.371 212,465.5C 207.959,469.047 203.792,472.38 199.5,475.5 Z"/></g>
<g><path style="opacity:1" fill="#fcfbfc" d="M 194.5,456.5 C 195.963,462.89 197.63,469.223 199.5,475.5C 191.436,480.913 182.436,484.079 172.5,485C 163.921,485.816 155.421,485.649 147,484.5C 146.333,483.167 146.333,481.833 147,480.5C 151.167,472.833 155.333,465.167 159.5,457.5C 171.148,456.501 182.814,456.168 194.5,456.5 Z"/></g>
<g><path style="opacity:1" fill="#100d07" d="M 557.5,500.5 C 558.412,501.738 558.579,503.072 558,504.5C 523.87,563.676 472.704,597.51 404.5,606C 350.595,611.805 302.595,597.805 260.5,564C 240.679,548.351 224.679,529.517 212.5,507.5C 212.855,506.478 213.522,505.811 214.5,505.5C 222.165,516.128 230.332,526.461 239,536.5C 267.317,567.076 301.817,586.909 342.5,596C 335.212,586.59 328.045,577.09 321,567.5C 299.032,536.892 283.532,503.225 274.5,466.5C 275.552,466.351 276.552,466.517 277.5,467C 291.848,516.717 316.515,560.384 351.5,598C 355.147,598.774 358.814,599.441 362.5,600C 376.5,600.667 390.5,600.667 404.5,600C 421.239,598.231 437.572,594.731 453.5,589.5C 441.012,549.883 428.679,510.216 416.5,470.5C 416.833,469.833 417.167,469.167 417.5,468.5C 419.121,470.153 420.288,472.153 421,474.5C 432.469,510.573 444.135,546.573 456,582.5C 456.523,584.223 457.523,585.556 459,586.5C 500.021,569.475 531.688,541.808 554,503.5C 555.039,502.29 556.206,501.29 557.5,500.5 Z"/></g>
</svg>
