<?xml version="1.0" encoding="UTF-8"?>
<!DOCTYPE svg PUBLIC "-//W3C//DTD SVG 1.1//EN" "http://www.w3.org/Graphics/SVG/1.1/DTD/svg11.dtd">
<svg xmlns="http://www.w3.org/2000/svg" version="1.1" width="831px" height="1023px" style="shape-rendering:geometricPrecision; text-rendering:geometricPrecision; image-rendering:optimizeQuality; fill-rule:evenodd; clip-rule:evenodd" xmlns:xlink="http://www.w3.org/1999/xlink">
<g><path style="opacity:0.994" fill="#23375b" d="M 210.5,19.5 C 242.995,18.5811 268.661,31.2478 287.5,57.5C 331.904,50.4391 374.737,55.7724 416,73.5C 457.589,55.6784 500.755,50.3451 545.5,57.5C 571.838,21.7816 606.171,11.2816 648.5,26C 696.578,47.994 713.411,84.494 699,135.5C 696.487,142.027 693.32,148.193 689.5,154C 715.719,189.286 731.886,228.786 738,272.5C 741.984,311.256 733.984,347.256 714,380.5C 712.981,381.687 711.814,382.687 710.5,383.5C 707.667,378.5 704.833,373.5 702,368.5C 690.329,438.274 653.496,489.607 591.5,522.5C 590.669,514.855 590.169,507.188 590,499.5C 571.478,521.693 549.644,539.86 524.5,554C 502.007,565.746 479.674,577.746 457.5,590C 442.75,598.883 429.75,609.883 418.5,623C 417.365,623.749 416.365,623.583 415.5,622.5C 403.304,608.239 389.304,596.072 373.5,586C 353.651,573.906 333.317,562.573 312.5,552C 289.043,538.555 267.876,522.055 249,502.5C 247.605,508.544 246.105,514.544 244.5,520.5C 186.535,485.697 147.369,436.03 127,371.5C 122.985,375.682 118.818,379.682 114.5,383.5C 105.028,369.542 98.5284,354.209 95,337.5C 86.6258,292.827 91.9591,249.827 111,208.5C 119.942,188.768 130.775,170.268 143.5,153C 123.376,121.377 123.543,89.8769 144,58.5C 160.808,36.3465 182.975,23.3465 210.5,19.5 Z"/></g>
<g><path style="opacity:1" fill="#6088b8" d="M 208.5,48.5 C 224.942,48.0362 239.608,52.8695 252.5,63C 261.804,71.6293 270.304,80.796 278,90.5C 284.09,88.9631 290.256,87.7964 296.5,87C 337.435,85.0147 377.435,90.1814 416.5,102.5C 440.352,93.074 465.019,86.9074 490.5,84C 513.194,82.6227 535.36,85.4561 557,92.5C 558.261,92.2409 559.261,91.5742 560,90.5C 582.558,52.806 613.725,43.306 653.5,62C 612.755,55.9456 584.588,71.779 569,109.5C 564.215,117.952 557.715,124.786 549.5,130C 538.503,135.83 527.836,142.163 517.5,149C 503.001,165.154 495.001,183.987 493.5,205.5C 531.188,188.624 567.522,191.124 602.5,213C 593.508,212.002 584.508,210.669 575.5,209C 541.87,204.989 511.537,212.989 484.5,233C 474.126,242.376 463.46,251.376 452.5,260C 443.339,265.046 434.506,264.546 426,258.5C 423.099,217.47 420.099,176.47 417,135.5C 414.237,176.519 411.237,217.519 408,258.5C 399.463,264.471 390.63,264.971 381.5,260C 370.54,251.376 359.874,242.376 349.5,233C 321.804,212.79 290.804,204.79 256.5,209C 247.703,210.033 239.036,211.7 230.5,214C 246.47,213.542 261.803,216.376 276.5,222.5C 278.61,233.94 282.11,244.94 287,255.5C 292.751,265.253 300.917,272.086 311.5,276C 307.658,289.213 305.158,302.713 304,316.5C 301.063,388.254 318.23,454.754 355.5,516C 366.41,524.151 378.743,528.485 392.5,529C 400.493,529.5 408.493,529.666 416.5,529.5C 416.667,546.837 416.5,564.17 416,581.5C 412.454,576.287 407.954,572.12 402.5,569C 381.421,557.128 360.087,545.794 338.5,535C 297.848,509.537 261.848,478.37 230.5,441.5C 228.68,449.391 227.513,457.391 227,465.5C 226.911,468.849 225.744,469.349 223.5,467C 203.362,452.537 187.529,434.371 176,412.5C 161.168,383.331 149.502,352.998 141,321.5C 135.833,327.833 130.667,334.167 125.5,340.5C 114.094,300.016 116.594,260.35 133,221.5C 143.745,196.322 158.245,173.656 176.5,153.5C 164.677,132.553 160.51,110.22 164,86.5C 171.943,65.7212 186.776,53.0545 208.5,48.5 Z"/></g>
<g><path style="opacity:1" fill="#23385c" d="M 206.5,71.5 C 221.711,70.5146 235.044,75.0146 246.5,85C 250.682,89.015 254.682,93.1817 258.5,97.5C 231.907,107.461 208.574,122.461 188.5,142.5C 187.431,136.764 188.598,131.431 192,126.5C 196.089,120.407 200.922,114.907 206.5,110C 203.046,107.103 199.046,105.936 194.5,106.5C 190.966,106.32 187.632,106.987 184.5,108.5C 184.167,108.167 183.833,107.833 183.5,107.5C 187.569,100.264 193.569,95.4303 201.5,93C 209.961,92.2183 218.295,92.5516 226.5,94C 220.751,88.074 213.751,84.4073 205.5,83C 200.857,82.1696 196.19,81.5029 191.5,81C 195.922,76.7963 200.922,73.6296 206.5,71.5 Z"/></g>
<g><path style="opacity:1" fill="#bad0e3" d="M 317.5,234.5 C 317.557,244.741 320.39,254.074 326,262.5C 329.031,266.239 332.864,268.073 337.5,268C 340.89,261.428 346.224,257.928 353.5,257.5C 363.947,266.231 375.28,273.731 387.5,280C 396.409,283.976 405.742,285.476 415.5,284.5C 415.5,319.833 415.5,355.167 415.5,390.5C 410.305,390.179 405.305,390.513 400.5,391.5C 360.751,393.692 352.584,410.692 376,442.5C 377.667,439.167 379.333,435.833 381,432.5C 383.171,428.672 386.338,426.838 390.5,427C 399.827,436.18 408.327,446.013 416,456.5C 416.5,465.827 416.666,475.161 416.5,484.5C 396.776,484.27 377.443,486.937 358.5,492.5C 331.014,429.575 325.18,364.575 341,297.5C 343.243,289.103 346.077,280.936 349.5,273C 327.491,275.912 312.325,267.079 304,246.5C 301.779,241.007 300.279,235.34 299.5,229.5C 306.224,228.879 312.224,230.546 317.5,234.5 Z"/></g>
<g><path style="opacity:1" fill="#5f86b6" d="M 482.5,257.5 C 485.32,257.248 487.986,257.748 490.5,259C 494.232,261.945 497.399,265.445 500,269.5C 512.127,263.1 518.294,252.933 518.5,239C 518.492,237.293 518.158,235.793 517.5,234.5C 523.838,231.829 530.505,230.162 537.5,229.5C 535.44,247.366 526.773,260.866 511.5,270C 506.051,272.279 500.384,273.446 494.5,273.5C 502.705,297.947 508.538,322.947 512,348.5C 515.76,390.006 509.76,430.006 494,468.5C 490.175,476.819 485.842,484.819 481,492.5C 496.554,449.954 502.888,405.954 500,360.5C 498.039,330.819 490.539,302.653 477.5,276C 471.167,275.667 464.833,275.333 458.5,275C 466.939,269.722 474.939,263.889 482.5,257.5 Z"/></g>
<g><path style="opacity:1" fill="#f9b529" d="M 517.5,234.5 C 518.158,235.793 518.492,237.293 518.5,239C 518.294,252.933 512.127,263.1 500,269.5C 497.399,265.445 494.232,261.945 490.5,259C 487.986,257.748 485.32,257.248 482.5,257.5C 492.617,247.599 504.284,239.933 517.5,234.5 Z"/></g>
<g><path style="opacity:1" fill="#f9b62a" d="M 317.5,234.5 C 330.549,240.554 342.549,248.221 353.5,257.5C 346.224,257.928 340.89,261.428 337.5,268C 332.864,268.073 329.031,266.239 326,262.5C 320.39,254.074 317.557,244.741 317.5,234.5 Z"/></g>
<g><path style="opacity:1" fill="#556a88" d="M 415.5,284.5 C 416.498,319.996 416.832,355.663 416.5,391.5C 411.167,391.5 405.833,391.5 400.5,391.5C 405.305,390.513 410.305,390.179 415.5,390.5C 415.5,355.167 415.5,319.833 415.5,284.5 Z"/></g>
<g><path style="opacity:1" fill="#5b81b0" d="M 419.5,391.5 C 435.209,389.863 450.543,392.03 465.5,398C 475.032,403.595 477.532,411.429 473,421.5C 469.448,428.382 465.115,434.716 460,440.5C 463.4,434.675 466.066,428.341 468,421.5C 470.144,412.956 467.644,406.123 460.5,401C 447.631,394.434 433.965,391.267 419.5,391.5 Z"/></g>
<g><path style="opacity:1" fill="#b7cde1" d="M 400.5,497.5 C 424.334,497.178 448.001,498.844 471.5,502.5C 471.919,505.325 470.919,507.491 468.5,509C 465.583,510.528 462.583,511.861 459.5,513C 436.955,516.367 414.288,517.367 391.5,516C 381.199,515.585 371.699,512.752 363,507.5C 362.333,505.833 362.333,504.167 363,502.5C 366.099,501.545 369.266,500.711 372.5,500C 382.001,499.327 391.335,498.494 400.5,497.5 Z"/></g>
<g><path style="opacity:0.974" fill="#23375b" d="M 161.5,813.5 C 161.667,758.499 161.5,703.499 161,648.5C 157.833,637.333 150.667,630.167 139.5,627C 108.502,626.5 77.5018,626.333 46.5,626.5C 46.5,688.833 46.5,751.167 46.5,813.5C 40.8333,813.5 35.1667,813.5 29.5,813.5C 29.6667,754.499 29.5,695.499 29,636.5C 25.7237,627.503 22.557,618.503 19.5,609.5C 60.8347,609.333 102.168,609.5 143.5,610C 161.388,612.892 172.554,623.058 177,640.5C 177.5,698.166 177.667,755.832 177.5,813.5C 172.167,813.5 166.833,813.5 161.5,813.5 Z"/></g>
<g><path style="opacity:0.975" fill="#23375b" d="M 791.5,676.5 C 791.666,668.826 791.5,661.159 791,653.5C 787.483,638.316 777.983,629.816 762.5,628C 745.076,625.95 733.576,633.116 728,649.5C 727.333,663.833 727.333,678.167 728,692.5C 731.561,705.385 740.061,712.552 753.5,714C 762.533,713.949 771.2,715.616 779.5,719C 781.652,721.469 783.152,724.302 784,727.5C 784.667,743.167 784.667,758.833 784,774.5C 781.702,782.399 776.536,787.232 768.5,789C 758.156,791.978 748.49,790.645 739.5,785C 735.907,780.143 734.073,774.643 734,768.5C 733.5,761.174 733.334,753.841 733.5,746.5C 739.833,746.5 746.167,746.5 752.5,746.5C 752.065,754.611 752.565,762.611 754,770.5C 757.943,773.366 761.61,773.032 765,769.5C 765.957,757.736 765.623,746.07 764,734.5C 762.2,732.683 760.034,731.516 757.5,731C 739.84,731.418 725.34,724.918 714,711.5C 712.059,707.952 710.393,704.286 709,700.5C 707.383,680.885 707.049,661.218 708,641.5C 713.136,622.994 725.303,612.494 744.5,610C 754.833,609.333 765.167,609.333 775.5,610C 792.311,613.481 803.478,623.314 809,639.5C 810.343,651.791 810.843,664.124 810.5,676.5C 804.167,676.5 797.833,676.5 791.5,676.5 Z"/></g>
<g><path style="opacity:0.994" fill="#6088b7" d="M 161.5,813.5 C 159.167,813.5 156.833,813.5 154.5,813.5C 154.667,759.166 154.5,704.832 154,650.5C 151.807,641.64 146.307,636.14 137.5,634C 127.839,633.5 118.172,633.334 108.5,633.5C 108.5,693.5 108.5,753.5 108.5,813.5C 106.167,813.5 103.833,813.5 101.5,813.5C 101.5,813.167 101.5,812.833 101.5,812.5C 101.5,752.833 101.5,693.167 101.5,633.5C 85.5,633.5 69.5,633.5 53.5,633.5C 53.5,693.167 53.5,752.833 53.5,812.5C 53.5,812.833 53.5,813.167 53.5,813.5C 51.1667,813.5 48.8333,813.5 46.5,813.5C 46.5,751.167 46.5,688.833 46.5,626.5C 77.5018,626.333 108.502,626.5 139.5,627C 150.667,630.167 157.833,637.333 161,648.5C 161.5,703.499 161.667,758.499 161.5,813.5 Z"/></g>
<g><path style="opacity:0.991" fill="#5f86b6" d="M 791.5,676.5 C 789.167,676.5 786.833,676.5 784.5,676.5C 785.06,667.016 784.227,657.683 782,648.5C 778.78,641.308 773.28,637.142 765.5,636C 740.161,633.52 729.827,645.02 734.5,670.5C 734.667,677.167 734.833,683.833 735,690.5C 736.824,698.991 741.991,704.158 750.5,706C 759.587,706.84 768.587,708.173 777.5,710C 783.667,712.167 787.833,716.333 790,722.5C 791.611,740.114 791.944,757.78 791,775.5C 787.626,787.54 779.793,794.707 767.5,797C 755.071,799.609 743.905,797.109 734,789.5C 731.473,785.779 729.473,781.779 728,777.5C 726.734,767.207 726.234,756.874 726.5,746.5C 728.833,746.5 731.167,746.5 733.5,746.5C 733.334,753.841 733.5,761.174 734,768.5C 734.073,774.643 735.907,780.143 739.5,785C 748.49,790.645 758.156,791.978 768.5,789C 776.536,787.232 781.702,782.399 784,774.5C 784.667,758.833 784.667,743.167 784,727.5C 783.152,724.302 781.652,721.469 779.5,719C 771.2,715.616 762.533,713.949 753.5,714C 740.061,712.552 731.561,705.385 728,692.5C 727.333,678.167 727.333,663.833 728,649.5C 733.576,633.116 745.076,625.95 762.5,628C 777.983,629.816 787.483,638.316 791,653.5C 791.5,661.159 791.666,668.826 791.5,676.5 Z"/></g>
<g><path style="opacity:0.808" fill="#38537b" d="M 101.5,812.5 C 100.501,753.336 100.168,694.002 100.5,634.5C 85.1667,634.5 69.8333,634.5 54.5,634.5C 54.8324,694.002 54.4991,753.336 53.5,812.5C 53.5,752.833 53.5,693.167 53.5,633.5C 69.5,633.5 85.5,633.5 101.5,633.5C 101.5,693.167 101.5,752.833 101.5,812.5 Z"/></g>
<g><path style="opacity:0.981" fill="#22365a" d="M 101.5,812.5 C 101.5,812.833 101.5,813.167 101.5,813.5C 95.5,813.5 89.5,813.5 83.5,813.5C 83.5,759.5 83.5,705.5 83.5,651.5C 79.1667,651.5 74.8333,651.5 70.5,651.5C 70.5,705.5 70.5,759.5 70.5,813.5C 64.8333,813.5 59.1667,813.5 53.5,813.5C 53.5,813.167 53.5,812.833 53.5,812.5C 54.4991,753.336 54.8324,694.002 54.5,634.5C 69.8333,634.5 85.1667,634.5 100.5,634.5C 100.168,694.002 100.501,753.336 101.5,812.5 Z"/></g>
<g><path style="opacity:0.974" fill="#23375b" d="M 154.5,813.5 C 148.167,813.5 141.833,813.5 135.5,813.5C 136.611,761.842 136.777,710.175 136,658.5C 134.826,652.822 131.326,650.489 125.5,651.5C 125.5,705.5 125.5,759.5 125.5,813.5C 119.833,813.5 114.167,813.5 108.5,813.5C 108.5,753.5 108.5,693.5 108.5,633.5C 118.172,633.334 127.839,633.5 137.5,634C 146.307,636.14 151.807,641.64 154,650.5C 154.5,704.832 154.667,759.166 154.5,813.5 Z"/></g>
<g><path style="opacity:0.974" fill="#23375b" d="M 784.5,676.5 C 778.475,676.571 772.142,676.571 765.5,676.5C 765.925,669.385 765.425,662.385 764,655.5C 760.535,652.872 757.035,652.872 753.5,655.5C 752.359,665.453 752.192,675.453 753,685.5C 754.48,688.663 756.98,690.496 760.5,691C 772.832,690.221 784.499,692.554 795.5,698C 802.303,702.82 806.803,709.32 809,717.5C 810.607,738.124 810.941,758.79 810,779.5C 805.727,798.773 793.894,810.273 774.5,814C 722.607,820.94 700.274,798.44 707.5,746.5C 713.833,746.5 720.167,746.5 726.5,746.5C 726.234,756.874 726.734,767.207 728,777.5C 729.473,781.779 731.473,785.779 734,789.5C 743.905,797.109 755.071,799.609 767.5,797C 779.793,794.707 787.626,787.54 791,775.5C 791.944,757.78 791.611,740.114 790,722.5C 787.833,716.333 783.667,712.167 777.5,710C 768.587,708.173 759.587,706.84 750.5,706C 741.991,704.158 736.824,698.991 735,690.5C 734.833,683.833 734.667,677.167 734.5,670.5C 729.827,645.02 740.161,633.52 765.5,636C 773.28,637.142 778.78,641.308 782,648.5C 784.227,657.683 785.06,667.016 784.5,676.5 Z"/></g>
<g><path style="opacity:0.966" fill="#23375b" d="M 560.5,652.5 C 560.5,706.833 560.5,761.167 560.5,815.5C 554.833,815.5 549.167,815.5 543.5,815.5C 543.667,769.499 543.5,723.499 543,677.5C 540.445,669.393 537.612,661.393 534.5,653.5C 543.141,652.502 551.808,652.169 560.5,652.5 Z"/></g>
<g><path style="opacity:0.987" fill="#5e86b5" d="M 560.5,652.5 C 562.833,652.5 565.167,652.5 567.5,652.5C 567.5,677.833 567.5,703.167 567.5,728.5C 583.833,728.5 600.167,728.5 616.5,728.5C 616.5,703.167 616.5,677.833 616.5,652.5C 619.167,652.5 621.833,652.5 624.5,652.5C 624.5,706.833 624.5,761.167 624.5,815.5C 622.144,815.684 619.477,815.684 616.5,815.5C 616.5,788.833 616.5,762.167 616.5,735.5C 600.167,735.5 583.833,735.5 567.5,735.5C 567.5,762.167 567.5,788.833 567.5,815.5C 565.167,815.5 562.833,815.5 560.5,815.5C 560.5,761.167 560.5,706.833 560.5,652.5 Z"/></g>
<g><path style="opacity:0.967" fill="#22365a" d="M 567.5,652.5 C 572.5,652.5 577.5,652.5 582.5,652.5C 582.5,673.5 582.5,694.5 582.5,715.5C 588.5,715.5 594.5,715.5 600.5,715.5C 600.5,694.5 600.5,673.5 600.5,652.5C 605.833,652.5 611.167,652.5 616.5,652.5C 616.5,677.833 616.5,703.167 616.5,728.5C 600.167,728.5 583.833,728.5 567.5,728.5C 567.5,703.167 567.5,677.833 567.5,652.5 Z"/></g>
<g><path style="opacity:0.96" fill="#22365a" d="M 624.5,652.5 C 629.5,652.5 634.5,652.5 639.5,652.5C 639.5,706.833 639.5,761.167 639.5,815.5C 634.5,815.5 629.5,815.5 624.5,815.5C 624.5,761.167 624.5,706.833 624.5,652.5 Z"/></g>
<g><path style="opacity:0.99" fill="#5f87b7" d="M 673.5,652.5 C 675.833,652.5 678.167,652.5 680.5,652.5C 680.5,706.5 680.5,760.5 680.5,814.5C 678.477,814.715 676.144,814.715 673.5,814.5C 673.5,760.5 673.5,706.5 673.5,652.5 Z"/></g>
<g><path style="opacity:0.985" fill="#23375b" d="M 281.5,671.5 C 257.833,671.5 234.167,671.5 210.5,671.5C 210.5,713.167 210.5,754.833 210.5,796.5C 234.167,796.5 257.833,796.5 281.5,796.5C 281.5,802.167 281.5,807.833 281.5,813.5C 252.167,813.5 222.833,813.5 193.5,813.5C 193.667,767.832 193.5,722.165 193,676.5C 190.358,668.905 187.525,661.405 184.5,654C 216.832,653.5 249.165,653.333 281.5,653.5C 281.5,659.5 281.5,665.5 281.5,671.5 Z"/></g>
<g><path style="opacity:0.953" fill="#23375b" d="M 417.5,814.5 C 417.667,774.165 417.5,733.832 417,693.5C 415.482,680.257 408.316,672.09 395.5,669C 367.835,668.5 340.169,668.333 312.5,668.5C 312.5,717.167 312.5,765.833 312.5,814.5C 307.167,814.5 301.833,814.5 296.5,814.5C 296.667,768.499 296.5,722.499 296,676.5C 293.069,669.206 290.235,661.873 287.5,654.5C 306,654.167 324.5,653.833 343,653.5C 363.535,653.369 384.035,653.869 404.5,655C 419.144,658.643 427.978,667.81 431,682.5C 431.5,726.499 431.667,770.499 431.5,814.5C 426.833,814.5 422.167,814.5 417.5,814.5 Z"/></g>
<g><path style="opacity:0.969" fill="#23375b" d="M 466.5,814.5 C 466.5,789.167 466.5,763.833 466.5,738.5C 478.171,738.667 489.838,738.5 501.5,738C 514.333,735.833 521.833,728.333 524,715.5C 524.667,707.167 524.667,698.833 524,690.5C 522.017,680.36 516.184,673.527 506.5,670C 490.891,668.563 475.224,668.063 459.5,668.5C 459.5,717.167 459.5,765.833 459.5,814.5C 454.833,814.5 450.167,814.5 445.5,814.5C 445.667,769.165 445.5,723.832 445,678.5C 441.859,670.243 439.026,661.91 436.5,653.5C 460.872,653.06 485.205,653.56 509.5,655C 530.164,660.318 539.83,673.652 538.5,695C 538.177,703.843 537.677,712.677 537,721.5C 533.282,739.889 522.115,749.723 503.5,751C 496.842,751.5 490.175,751.666 483.5,751.5C 483.5,772.5 483.5,793.5 483.5,814.5C 477.833,814.5 472.167,814.5 466.5,814.5 Z M 483.5,689.5 C 499.791,688.354 505.291,695.688 500,711.5C 498.833,712.667 497.667,713.833 496.5,715C 492.179,715.499 487.846,715.666 483.5,715.5C 483.5,706.833 483.5,698.167 483.5,689.5 Z"/></g>
<g><path style="opacity:0.978" fill="#24385c" d="M 673.5,652.5 C 673.5,706.5 673.5,760.5 673.5,814.5C 667.5,814.5 661.5,814.5 655.5,814.5C 655.667,769.499 655.5,724.499 655,679.5C 651.932,670.795 648.765,662.128 645.5,653.5C 654.81,652.502 664.143,652.168 673.5,652.5 Z"/></g>
<g><path style="opacity:0.994" fill="#22365a" d="M 680.5,652.5 C 686.167,652.5 691.833,652.5 697.5,652.5C 697.5,706.5 697.5,760.5 697.5,814.5C 691.833,814.5 686.167,814.5 680.5,814.5C 680.5,760.5 680.5,706.5 680.5,652.5 Z"/></g>
<g><path style="opacity:0.996" fill="#5f86b6" d="M 466.5,814.5 C 464.167,814.5 461.833,814.5 459.5,814.5C 459.5,765.833 459.5,717.167 459.5,668.5C 475.224,668.063 490.891,668.563 506.5,670C 516.184,673.527 522.017,680.36 524,690.5C 524.667,698.833 524.667,707.167 524,715.5C 521.833,728.333 514.333,735.833 501.5,738C 489.838,738.5 478.171,738.667 466.5,738.5C 466.5,763.833 466.5,789.167 466.5,814.5 Z M 483.5,689.5 C 483.5,698.167 483.5,706.833 483.5,715.5C 487.846,715.666 492.179,715.499 496.5,715C 497.667,713.833 498.833,712.667 500,711.5C 505.291,695.688 499.791,688.354 483.5,689.5 Z"/></g>
<g><path style="opacity:0.99" fill="#5e85b5" d="M 417.5,814.5 C 414.833,814.5 412.167,814.5 409.5,814.5C 409.667,773.165 409.5,731.832 409,690.5C 407.718,684.887 404.551,680.72 399.5,678C 389.246,676.574 378.912,676.074 368.5,676.5C 368.5,722.5 368.5,768.5 368.5,814.5C 366.167,814.5 363.833,814.5 361.5,814.5C 361.5,768.5 361.5,722.5 361.5,676.5C 347.5,676.5 333.5,676.5 319.5,676.5C 319.5,722.5 319.5,768.5 319.5,814.5C 317.167,814.5 314.833,814.5 312.5,814.5C 312.5,765.833 312.5,717.167 312.5,668.5C 340.169,668.333 367.835,668.5 395.5,669C 408.316,672.09 415.482,680.257 417,693.5C 417.5,733.832 417.667,774.165 417.5,814.5 Z"/></g>
<g><path style="opacity:0.996" fill="#6087b7" d="M 281.5,671.5 C 281.5,673.833 281.5,676.167 281.5,678.5C 260.167,678.5 238.833,678.5 217.5,678.5C 217.5,695.5 217.5,712.5 217.5,729.5C 233.167,729.5 248.833,729.5 264.5,729.5C 264.5,731.833 264.5,734.167 264.5,736.5C 248.833,736.5 233.167,736.5 217.5,736.5C 217.5,754.167 217.5,771.833 217.5,789.5C 238.833,789.5 260.167,789.5 281.5,789.5C 281.5,791.833 281.5,794.167 281.5,796.5C 257.833,796.5 234.167,796.5 210.5,796.5C 210.5,754.833 210.5,713.167 210.5,671.5C 234.167,671.5 257.833,671.5 281.5,671.5 Z"/></g>
<g><path style="opacity:0.987" fill="#22375a" d="M 361.5,814.5 C 356.167,814.5 350.833,814.5 345.5,814.5C 345.5,773.833 345.5,733.167 345.5,692.5C 341.833,692.5 338.167,692.5 334.5,692.5C 334.5,733.167 334.5,773.833 334.5,814.5C 329.5,814.5 324.5,814.5 319.5,814.5C 319.5,768.5 319.5,722.5 319.5,676.5C 333.5,676.5 347.5,676.5 361.5,676.5C 361.5,722.5 361.5,768.5 361.5,814.5 Z"/></g>
<g><path style="opacity:0.976" fill="#23375c" d="M 409.5,814.5 C 404.167,814.5 398.833,814.5 393.5,814.5C 393.667,775.165 393.5,735.832 393,696.5C 392.535,695.069 391.701,693.903 390.5,693C 388.19,692.503 385.857,692.337 383.5,692.5C 383.5,733.167 383.5,773.833 383.5,814.5C 378.5,814.5 373.5,814.5 368.5,814.5C 368.5,768.5 368.5,722.5 368.5,676.5C 378.912,676.074 389.246,676.574 399.5,678C 404.551,680.72 407.718,684.887 409,690.5C 409.5,731.832 409.667,773.165 409.5,814.5 Z"/></g>
<g><path style="opacity:0.98" fill="#23385c" d="M 466.5,675.5 C 477.505,675.333 488.505,675.5 499.5,676C 513.682,679.323 519.349,688.323 516.5,703C 518.576,713.041 515.909,721.374 508.5,728C 506.608,728.973 504.608,729.64 502.5,730C 490.505,730.5 478.505,730.667 466.5,730.5C 466.5,712.167 466.5,693.833 466.5,675.5 Z M 483.5,689.5 C 483.5,698.167 483.5,706.833 483.5,715.5C 487.846,715.666 492.179,715.499 496.5,715C 497.667,713.833 498.833,712.667 500,711.5C 505.291,695.688 499.791,688.354 483.5,689.5 Z"/></g>
<g><path style="opacity:0.964" fill="#23375b" d="M 281.5,678.5 C 281.5,684.167 281.5,689.833 281.5,695.5C 265.5,695.5 249.5,695.5 233.5,695.5C 233.5,701.5 233.5,707.5 233.5,713.5C 243.833,713.5 254.167,713.5 264.5,713.5C 264.5,718.833 264.5,724.167 264.5,729.5C 248.833,729.5 233.167,729.5 217.5,729.5C 217.5,712.5 217.5,695.5 217.5,678.5C 238.833,678.5 260.167,678.5 281.5,678.5 Z"/></g>
<g><path style="opacity:0.974" fill="#22365a" d="M 616.5,815.5 C 611.167,815.5 605.833,815.5 600.5,815.5C 600.5,794.167 600.5,772.833 600.5,751.5C 594.5,751.5 588.5,751.5 582.5,751.5C 582.5,772.833 582.5,794.167 582.5,815.5C 577.5,815.5 572.5,815.5 567.5,815.5C 567.5,788.833 567.5,762.167 567.5,735.5C 583.833,735.5 600.167,735.5 616.5,735.5C 616.5,762.167 616.5,788.833 616.5,815.5 Z"/></g>
<g><path style="opacity:0.82" fill="#3c5880" d="M 264.5,736.5 C 264.5,736.833 264.5,737.167 264.5,737.5C 249.167,737.5 233.833,737.5 218.5,737.5C 218.5,754.5 218.5,771.5 218.5,788.5C 239.5,788.5 260.5,788.5 281.5,788.5C 281.5,788.833 281.5,789.167 281.5,789.5C 260.167,789.5 238.833,789.5 217.5,789.5C 217.5,771.833 217.5,754.167 217.5,736.5C 233.167,736.5 248.833,736.5 264.5,736.5 Z"/></g>
<g><path style="opacity:0.967" fill="#22365a" d="M 264.5,737.5 C 264.5,743.167 264.5,748.833 264.5,754.5C 254.167,754.5 243.833,754.5 233.5,754.5C 233.5,760.833 233.5,767.167 233.5,773.5C 249.5,773.5 265.5,773.5 281.5,773.5C 281.5,778.5 281.5,783.5 281.5,788.5C 260.5,788.5 239.5,788.5 218.5,788.5C 218.5,771.5 218.5,754.5 218.5,737.5C 233.833,737.5 249.167,737.5 264.5,737.5 Z"/></g>
<g><path style="opacity:0.952" fill="#6088b8" d="M 146.5,846.5 C 157.931,848.301 167.431,853.635 175,862.5C 178.28,868.261 178.947,874.261 177,880.5C 174.511,885.473 171.511,890.14 168,894.5C 162.333,890.5 156.667,886.5 151,882.5C 151.398,880.369 152.398,878.369 154,876.5C 154.946,872.865 153.613,870.532 150,869.5C 148.739,869.759 147.739,870.426 147,871.5C 139,883.5 131,895.5 123,907.5C 121.813,909.044 121.48,910.711 122,912.5C 123.512,913.257 124.846,914.257 126,915.5C 129.862,912.299 133.028,908.466 135.5,904C 134.328,903.581 133.328,902.915 132.5,902C 135.331,897.469 138.497,893.303 142,889.5C 149.257,893.598 156.091,898.265 162.5,903.5C 156.08,913.341 149.413,923.007 142.5,932.5C 136.633,937.166 129.967,938.666 122.5,937C 114.19,933.348 107.024,928.181 101,921.5C 97.4686,913.674 97.802,906.008 102,898.5C 111.333,884.5 120.667,870.5 130,856.5C 134.163,850.68 139.663,847.347 146.5,846.5 Z"/></g>
<g><path style="opacity:0.948" fill="#6088b8" d="M 681.5,847.5 C 692.62,848.94 700.286,854.94 704.5,865.5C 699.444,870.048 693.944,874.048 688,877.5C 686.01,874.512 683.677,871.845 681,869.5C 679.365,870.726 677.865,872.059 676.5,873.5C 678.762,878.09 681.762,882.09 685.5,885.5C 690.221,882.473 695.221,879.973 700.5,878C 706.929,877.032 712.429,878.865 717,883.5C 721.333,890.167 725.667,896.833 730,903.5C 733.678,912.763 731.845,920.929 724.5,928C 705.959,943.231 691.625,940.065 681.5,918.5C 686.874,914.622 692.374,910.955 698,907.5C 700.878,910.212 703.544,913.212 706,916.5C 707.972,915.695 709.472,914.361 710.5,912.5C 707.901,907.572 704.568,903.239 700.5,899.5C 683.462,910.182 670.795,907.015 662.5,890C 652.993,880.453 652.159,870.287 660,859.5C 666.334,853.755 673.501,849.755 681.5,847.5 Z"/></g>
<g><path style="opacity:0.954" fill="#6088b8" d="M 197.5,873.5 C 211.366,878.098 225.032,883.264 238.5,889C 246.33,895.158 248.83,902.992 246,912.5C 243.664,920.006 240.164,926.84 235.5,933C 231.997,933.538 231.164,935.038 233,937.5C 233.667,940.5 233.667,943.5 233,946.5C 229.2,956.425 225.7,966.425 222.5,976.5C 216.832,974.778 211.165,972.944 205.5,971C 203.777,970.477 202.444,969.477 201.5,968C 205.265,958.205 208.932,948.372 212.5,938.5C 210.606,935.967 208.106,934.3 205,933.5C 201.197,944.577 197.197,955.577 193,966.5C 187.338,963.945 181.504,961.778 175.5,960C 174.09,959.632 173.09,958.799 172.5,957.5C 180.765,935.205 188.932,912.872 197,890.5C 197.499,884.843 197.666,879.176 197.5,873.5 Z M 216.5,901.5 C 225.38,904.184 226.714,909.018 220.5,916C 217.808,916.43 215.141,916.263 212.5,915.5C 213.624,910.793 214.957,906.126 216.5,901.5 Z"/></g>
<g><path style="opacity:0.952" fill="#6088b8" d="M 630.5,875.5 C 632.144,875.286 633.644,875.62 635,876.5C 637.265,882.462 639.432,888.462 641.5,894.5C 640.91,895.799 639.91,896.632 638.5,897C 630.98,899.283 623.647,901.95 616.5,905C 617.896,908.394 619.563,911.56 621.5,914.5C 626.039,912.932 630.539,911.265 635,909.5C 635.772,909.645 636.439,909.978 637,910.5C 639.068,916.871 641.235,923.204 643.5,929.5C 638.321,931.951 632.988,934.118 627.5,936C 628.809,939.599 630.309,943.099 632,946.5C 639.997,943.166 648.163,940.666 656.5,939C 659.123,945.033 661.456,951.2 663.5,957.5C 648.837,963.726 633.837,969.393 618.5,974.5C 617.914,974.291 617.414,973.957 617,973.5C 608.693,950.232 600.693,927.232 593,904.5C 590.333,901.167 587.667,897.833 585,894.5C 584.517,893.552 584.351,892.552 584.5,891.5C 600.121,886.738 615.455,881.405 630.5,875.5 Z"/></g>
<g><path style="opacity:0.948" fill="#6088b8" d="M 269.5,897.5 C 278.62,898.99 287.62,900.99 296.5,903.5C 290.116,932.087 284.116,960.754 278.5,989.5C 271.167,988.167 263.833,986.833 256.5,985.5C 261.083,962.431 265.916,939.098 271,915.5C 271.162,909.459 270.662,903.459 269.5,897.5 Z"/></g>
<g><path style="opacity:0.947" fill="#6088b8" d="M 562.5,897.5 C 564.463,899.967 565.629,902.967 566,906.5C 571.504,932.514 577.004,958.514 582.5,984.5C 575.226,986.152 567.892,987.485 560.5,988.5C 555.829,965.481 550.996,942.481 546,919.5C 543.601,914.1 540.768,908.933 537.5,904C 545.813,901.508 554.147,899.341 562.5,897.5 Z"/></g>
<g><path style="opacity:0.951" fill="#6088b8" d="M 319.5,907.5 C 337.664,909.081 355.664,911.248 373.5,914C 363.5,935 353.5,956 343.5,977C 350.701,978.687 358.035,979.521 365.5,979.5C 365.34,986.43 364.673,993.263 363.5,1000C 347.146,999.265 330.812,997.932 314.5,996C 313.062,995.781 311.729,995.281 310.5,994.5C 320.459,972.919 330.126,951.252 339.5,929.5C 332.029,929.535 324.696,930.535 317.5,932.5C 317.926,924.144 318.593,915.811 319.5,907.5 Z"/></g>
<g><path style="opacity:0.951" fill="#6088b8" d="M 494.5,909.5 C 496.164,910.949 496.998,912.949 497,915.5C 499.098,935.816 500.932,956.149 502.5,976.5C 512.833,975.833 523.167,975.167 533.5,974.5C 533.987,980.518 534.653,986.518 535.5,992.5C 535.182,993.647 534.516,994.481 533.5,995C 516.512,996.711 499.512,998.211 482.5,999.5C 480.424,976.498 478.257,953.498 476,930.5C 474.541,924.744 472.374,919.244 469.5,914C 469.905,913.055 470.572,912.388 471.5,912C 479.346,911.433 487.012,910.6 494.5,909.5 Z"/></g>
<g><path style="opacity:0.957" fill="#6088b8" d="M 392.5,914.5 C 410.167,914.5 427.833,914.5 445.5,914.5C 438.167,936.833 430.833,959.167 423.5,981.5C 430.833,981.5 438.167,981.5 445.5,981.5C 445.5,988.5 445.5,995.5 445.5,1002.5C 427.488,1002.83 409.488,1002.5 391.5,1001.5C 399.167,979.5 406.833,957.5 414.5,935.5C 407.09,934.294 400.09,935.627 393.5,939.5C 392.502,931.193 392.169,922.86 392.5,914.5 Z"/></g>
</svg>
