<?xml version="1.0" encoding="UTF-8"?>
<!DOCTYPE svg PUBLIC "-//W3C//DTD SVG 1.1//EN" "http://www.w3.org/Graphics/SVG/1.1/DTD/svg11.dtd">
<svg xmlns="http://www.w3.org/2000/svg" version="1.1" width="800px" height="800px" style="shape-rendering:geometricPrecision; text-rendering:geometricPrecision; image-rendering:optimizeQuality; fill-rule:evenodd; clip-rule:evenodd" xmlns:xlink="http://www.w3.org/1999/xlink">
<g><path style="opacity:0.95" fill="#050202" d="M 492.5,51.5 C 497.214,51.1734 501.88,51.5067 506.5,52.5C 502.814,56.3519 499.314,60.3519 496,64.5C 493.552,72.6563 492.886,80.9897 494,89.5C 495.353,97.6399 496.52,105.807 497.5,114C 496.705,119.266 495.872,124.433 495,129.5C 498.082,126.341 500.416,122.675 502,118.5C 503.971,110.94 505.471,103.274 506.5,95.5C 510.25,98.6547 512.75,102.655 514,107.5C 516.413,117.12 517.413,126.787 517,136.5C 524.616,132.551 530.616,126.884 535,119.5C 535.645,110.867 534.812,102.367 532.5,94C 532.85,92.7425 533.517,92.4092 534.5,93C 541.775,101.047 547.942,109.88 553,119.5C 557.138,129.455 556.138,138.788 550,147.5C 544.949,152.274 539.449,156.44 533.5,160C 530.202,162.464 527.868,165.63 526.5,169.5C 557.531,175.232 587.197,185.066 615.5,199C 624.473,204.073 632.64,210.24 640,217.5C 654.121,234.107 655.121,251.44 643,269.5C 626.52,286.949 606.687,299.115 583.5,306C 554.521,315.661 524.854,322.328 494.5,326C 482.382,334.381 474.882,345.881 472,360.5C 474.483,404.649 467.816,447.316 452,488.5C 424.338,542.098 380.171,568.265 319.5,567C 259.948,559.811 220.115,527.978 200,471.5C 184.945,405.481 205.112,353.314 260.5,315C 231.321,309.064 204.654,297.73 180.5,281C 154.186,257.66 153.853,233.993 179.5,210C 198.66,196.378 219.66,186.378 242.5,180C 294.91,166.156 348.243,158.989 402.5,158.5C 407.88,138.897 419.88,125.063 438.5,117C 448.231,113.12 458.231,110.12 468.5,108C 471.637,107.198 473.304,105.198 473.5,102C 470.699,92.7971 468.366,83.4638 466.5,74C 467.717,66.4377 471.717,60.771 478.5,57C 483.306,55.2372 487.972,53.4039 492.5,51.5 Z M 364.5,206.5 C 367.518,206.335 370.518,206.502 373.5,207C 365.851,213.456 360.018,221.29 356,230.5C 352.965,242.404 350.298,254.404 348,266.5C 342.389,276.777 334.222,284.277 323.5,289C 288.795,286.793 255.795,278.126 224.5,263C 219.957,260.491 216.457,256.991 214,252.5C 213.416,249.743 213.75,247.077 215,244.5C 221.445,238.059 228.945,233.226 237.5,230C 261.094,221.08 285.427,215.08 310.5,212C 328.607,209.716 346.607,207.883 364.5,206.5 Z M 486.5,290.5 C 495.849,287.069 504.015,281.736 511,274.5C 512.608,271.618 513.941,268.618 515,265.5C 516.047,257.176 517.047,248.842 518,240.5C 521.316,234.684 525.816,230.017 531.5,226.5C 529.028,225.104 526.362,224.27 523.5,224C 525.046,221.743 526.712,219.576 528.5,217.5C 549.105,221.646 568.771,228.479 587.5,238C 591.325,240.825 594.825,243.992 598,247.5C 598.667,250.167 598.667,252.833 598,255.5C 589.516,264.33 579.349,270.497 567.5,274C 541.139,282.639 514.139,288.139 486.5,290.5 Z"/></g>
<g><path style="opacity:1" fill="#f59e1a" d="M 490.5,57.5 C 491.873,57.3433 493.207,57.51 494.5,58C 489.084,63.7484 486.75,70.5817 487.5,78.5C 488.134,86.2395 489.301,93.9062 491,101.5C 491.667,108.5 491.667,115.5 491,122.5C 490.101,126.538 488.434,130.205 486,133.5C 476.132,143.037 465.965,152.203 455.5,161C 439.838,161.039 424.172,160.872 408.5,160.5C 411.545,145.611 419.545,134.111 432.5,126C 444.413,119.52 457.08,115.187 470.5,113C 478.204,109.624 480.704,103.791 478,95.5C 474.146,87.2288 472.479,78.5622 473,69.5C 474.458,67.04 476.291,64.8734 478.5,63C 482.475,60.8537 486.475,59.0204 490.5,57.5 Z"/></g>
<g><path style="opacity:1" fill="#f39d1a" d="M 540.5,109.5 C 548.857,117.895 551.691,127.895 549,139.5C 547.939,142.562 546.106,145.062 543.5,147C 537.053,151.113 530.886,155.613 525,160.5C 522.95,163.148 521.784,166.148 521.5,169.5C 518.833,169.5 516.167,169.5 513.5,169.5C 514.867,162.243 515.7,154.909 516,147.5C 517,145.833 518,144.167 519,142.5C 525.981,137.517 532.314,131.851 538,125.5C 540.08,120.37 540.913,115.037 540.5,109.5 Z"/></g>
<g><path style="opacity:1" fill="#f49d1a" d="M 508.5,112.5 C 510.045,113.23 510.878,114.563 511,116.5C 513.481,133.613 511.148,149.946 504,165.5C 502.431,166.122 500.764,166.456 499,166.5C 488.504,165.112 478.004,163.778 467.5,162.5C 478.054,152.959 488.554,143.292 499,133.5C 504.196,127.41 507.363,120.41 508.5,112.5 Z"/></g>
<g><path style="opacity:1" fill="#fcfcfc" d="M 373.5,167.5 C 430.094,164.956 486.094,169.456 541.5,181C 566.034,185.967 589.368,194.3 611.5,206C 622.869,212.039 632.369,220.206 640,230.5C 646.099,244.432 644.099,257.099 634,268.5C 619.826,281.178 603.659,290.678 585.5,297C 564.696,303.992 543.529,309.492 522,313.5C 512.365,310.403 502.532,307.903 492.5,306C 486.833,305.333 481.167,305.333 475.5,306C 467.018,309.237 466.352,307.237 473.5,300C 508.127,297.952 541.794,291.286 574.5,280C 585.967,275.858 595.8,269.358 604,260.5C 607.265,254.472 607.265,248.472 604,242.5C 601.5,238.667 598.333,235.5 594.5,233C 578.939,223.608 562.272,216.941 544.5,213C 472.416,198.296 399.749,194.629 326.5,202C 301.472,204.872 276.806,209.539 252.5,216C 242.49,219.172 232.824,223.172 223.5,228C 199.099,243.863 199.766,258.863 225.5,273C 252.24,285.183 280.24,293.017 309.5,296.5C 297.24,301.531 284.74,305.865 272,309.5C 242.489,304.11 214.989,293.61 189.5,278C 160.948,254.829 161.615,232.495 191.5,211C 218.5,195.004 247.5,184.338 278.5,179C 309.998,172.731 341.665,168.898 373.5,167.5 Z M 364.5,206.5 C 346.607,207.883 328.607,209.716 310.5,212C 285.427,215.08 261.094,221.08 237.5,230C 228.945,233.226 221.445,238.059 215,244.5C 213.75,247.077 213.416,249.743 214,252.5C 216.457,256.991 219.957,260.491 224.5,263C 255.795,278.126 288.795,286.793 323.5,289C 334.222,284.277 342.389,276.777 348,266.5C 350.298,254.404 352.965,242.404 356,230.5C 360.018,221.29 365.851,213.456 373.5,207C 370.518,206.502 367.518,206.335 364.5,206.5 Z M 486.5,290.5 C 514.139,288.139 541.139,282.639 567.5,274C 579.349,270.497 589.516,264.33 598,255.5C 598.667,252.833 598.667,250.167 598,247.5C 594.825,243.992 591.325,240.825 587.5,238C 568.771,228.479 549.105,221.646 528.5,217.5C 526.712,219.576 525.046,221.743 523.5,224C 526.362,224.27 529.028,225.104 531.5,226.5C 525.816,230.017 521.316,234.684 518,240.5C 517.047,248.842 516.047,257.176 515,265.5C 513.941,268.618 512.608,271.618 511,274.5C 504.015,281.736 495.849,287.069 486.5,290.5 Z"/></g>
<g><path style="opacity:1" fill="#97002d" d="M 384.5,205.5 C 386.5,205.5 388.5,205.5 390.5,205.5C 389.901,211.865 391.068,217.865 394,223.5C 401.027,229.988 408.194,229.988 415.5,223.5C 418.631,217.783 419.298,211.783 417.5,205.5C 422.179,205.334 426.845,205.501 431.5,206C 432.134,208.075 432.468,210.241 432.5,212.5C 432.034,234.873 430.867,257.206 429,279.5C 425.652,308.523 413.985,333.523 394,354.5C 375.482,371.498 356.316,387.665 336.5,403C 307.38,427.687 298.547,458.187 310,494.5C 312.569,499.3 315.402,503.967 318.5,508.5C 311.247,510.431 303.914,511.598 296.5,512C 268.284,470.855 259.117,425.688 269,376.5C 272.529,362.105 279.196,349.438 289,338.5C 298.367,327.456 309.2,318.289 321.5,311C 333.924,304.454 346.591,298.454 359.5,293C 370.743,286.014 375.743,275.847 374.5,262.5C 374.437,253.914 372.937,245.581 370,237.5C 368.874,229.955 369.54,222.621 372,215.5C 376.066,211.923 380.232,208.589 384.5,205.5 Z"/></g>
<g><path style="opacity:1" fill="#96002d" d="M 443.5,207.5 C 451.507,207.334 459.507,207.5 467.5,208C 469.577,208.192 471.577,208.692 473.5,209.5C 459.954,229.312 453.12,251.312 453,275.5C 453.888,309.073 451.554,342.406 446,375.5C 431.787,436.368 395.954,478.868 338.5,503C 334.928,504.48 331.262,505.146 327.5,505C 314.919,490.418 310.753,473.585 315,454.5C 317.407,442.02 322.741,431.02 331,421.5C 336.833,415.667 342.667,409.833 348.5,404C 364.018,391.405 379.352,378.571 394.5,365.5C 419.413,340.333 433.58,310 437,274.5C 438.333,256.5 439.667,238.5 441,220.5C 441.645,216.111 442.478,211.777 443.5,207.5 Z"/></g>
<g><path style="opacity:1" fill="#95002d" d="M 484.5,210.5 C 493.588,211.06 502.588,212.227 511.5,214C 503.44,217.112 496.273,221.612 490,227.5C 487.271,234.742 488.438,241.242 493.5,247C 496.5,249 499.5,249 502.5,247C 505.13,241.775 508.13,236.775 511.5,232C 514.438,229.575 517.772,228.575 521.5,229C 517.612,231.222 514.779,234.388 513,238.5C 511.474,247.096 510.474,255.763 510,264.5C 507.256,272.245 502.089,277.745 494.5,281C 478.301,284.863 467.468,294.697 462,310.5C 460.705,290.7 461.705,271.033 465,251.5C 468.554,236.287 475.054,222.62 484.5,210.5 Z"/></g>
<g><path style="opacity:1" fill="#95002d" d="M 361.5,229.5 C 363.161,235.529 364.661,241.862 366,248.5C 367.429,256.119 367.762,263.785 367,271.5C 365.858,279.28 361.692,284.78 354.5,288C 335.155,295.838 316.821,305.505 299.5,317C 272.506,338.591 258.006,366.757 256,401.5C 253.553,441.217 263.053,477.717 284.5,511C 278.388,511.461 272.388,510.794 266.5,509C 255.291,490.076 243.457,471.576 231,453.5C 208.905,415.699 210.572,379.033 236,343.5C 247.979,330.173 262.146,320.006 278.5,313C 300.065,307.213 320.065,298.213 338.5,286C 344.135,281.371 348.635,275.871 352,269.5C 355.061,256.124 358.228,242.791 361.5,229.5 Z"/></g>
<g><path style="opacity:1" fill="#95002d" d="M 487.5,315.5 C 491.182,315.335 494.848,315.501 498.5,316C 480.842,327.146 470.008,342.979 466,363.5C 465.667,380.5 465.333,397.5 465,414.5C 463.881,444.192 454.548,470.858 437,494.5C 413.869,519.654 385.702,528.487 352.5,521C 347.353,519.262 342.686,516.762 338.5,513.5C 414.066,481.779 454.232,424.779 459,342.5C 462.257,326.739 471.757,317.739 487.5,315.5 Z"/></g>
<g><path style="opacity:1" fill="#93002c" d="M 206.5,389.5 C 205.194,406.855 207.694,423.855 214,440.5C 224.829,461.504 237.162,481.504 251,500.5C 252.543,502.089 252.543,503.423 251,504.5C 214.905,487.716 197.905,459.383 200,419.5C 201.205,409.265 203.371,399.265 206.5,389.5 Z"/></g>
<g><path style="opacity:1" fill="#94002c" d="M 213.5,490.5 C 219.676,496.161 226.343,501.328 233.5,506C 242.197,510.229 251.03,514.063 260,517.5C 264.96,526.265 266.793,535.598 265.5,545.5C 242.633,532.302 225.3,513.969 213.5,490.5 Z"/></g>
<g><path style="opacity:1" fill="#94002d" d="M 427.5,514.5 C 428.239,514.369 428.906,514.536 429.5,515C 416.772,530.057 401.439,541.724 383.5,550C 379.91,551.893 376.077,552.727 372,552.5C 345.445,550.634 322.945,540.301 304.5,521.5C 312.395,519.352 320.395,518.186 328.5,518C 353.083,535.273 379.416,538.273 407.5,527C 415.073,524.059 421.739,519.893 427.5,514.5 Z"/></g>
<g><path style="opacity:1" fill="#95002d" d="M 271.5,519.5 C 278.427,520.828 285.427,521.661 292.5,522C 309.365,541.269 330.365,553.603 355.5,559C 328.034,564.677 301.534,561.843 276,550.5C 276.27,539.866 274.77,529.533 271.5,519.5 Z"/></g>
<g><path style="opacity:0.945" fill="#000000" d="M 164.5,588.5 C 176.505,588.333 188.505,588.5 200.5,589C 202.263,599.893 204.097,610.727 206,621.5C 212.04,610.585 218.207,599.752 224.5,589C 236.167,588.333 247.833,588.333 259.5,589C 253.478,612.075 247.645,635.242 242,658.5C 233.585,659.483 225.085,659.817 216.5,659.5C 218.843,648.474 221.01,637.474 223,626.5C 217.086,637.33 210.919,647.997 204.5,658.5C 199.208,659.495 193.875,659.828 188.5,659.5C 187.082,648.407 185.249,637.407 183,626.5C 180.229,637.188 177.396,647.855 174.5,658.5C 165.525,659.498 156.525,659.832 147.5,659.5C 153.039,635.805 158.706,612.139 164.5,588.5 Z"/></g>
<g><path style="opacity:0.94" fill="#000000" d="M 270.5,588.5 C 280.167,588.5 289.833,588.5 299.5,588.5C 294.251,611.918 288.584,635.252 282.5,658.5C 272.856,659.498 263.19,659.832 253.5,659.5C 258.695,635.721 264.361,612.054 270.5,588.5 Z"/></g>
<g><path style="opacity:0.937" fill="#000000" d="M 324.5,588.5 C 339.167,588.5 353.833,588.5 368.5,588.5C 369.8,612.169 371.133,635.835 372.5,659.5C 363.494,659.666 354.494,659.5 345.5,659C 340.708,650.58 335.542,642.413 330,634.5C 326.028,642.737 321.861,650.904 317.5,659C 308.506,659.5 299.506,659.666 290.5,659.5C 301.012,635.475 312.345,611.808 324.5,588.5 Z M 342.5,608.5 C 344.007,616.506 345.007,624.673 345.5,633C 340.845,633.499 336.179,633.666 331.5,633.5C 335.361,625.25 339.028,616.916 342.5,608.5 Z"/></g>
<g><path style="opacity:0.946" fill="#000000" d="M 395.5,588.5 C 407.505,588.333 419.505,588.5 431.5,589C 433.281,600.415 434.781,611.915 436,623.5C 442.373,611.919 448.873,600.419 455.5,589C 467.181,588.167 478.848,588.334 490.5,589.5C 484.512,612.452 478.679,635.452 473,658.5C 464.585,659.483 456.085,659.817 447.5,659.5C 449.666,649.175 451.499,638.842 453,628.5C 446.914,638.336 441.081,648.336 435.5,658.5C 430.198,659.663 424.864,659.829 419.5,659C 417.672,647.54 415.838,636.04 414,624.5C 411.261,636.212 408.427,647.879 405.5,659.5C 396.5,659.5 387.5,659.5 378.5,659.5C 384.012,635.787 389.678,612.12 395.5,588.5 Z"/></g>
<g><path style="opacity:0.939" fill="#000000" d="M 500.5,588.5 C 510.522,588.168 520.522,588.501 530.5,589.5C 524.773,612.518 518.939,635.518 513,658.5C 503.25,659.486 493.416,659.819 483.5,659.5C 489.325,635.868 494.991,612.202 500.5,588.5 Z"/></g>
<g><path style="opacity:0.941" fill="#000000" d="M 558.5,642.5 C 560.411,642.574 561.578,643.574 562,645.5C 564.95,652.354 563.45,658.02 557.5,662.5C 552.02,664.982 547.187,668.316 543,672.5C 540.525,677.872 539.191,683.538 539,689.5C 537.681,695.076 534.181,698.243 528.5,699C 522.584,699.19 516.751,699.69 511,700.5C 507.48,715.914 503.647,731.247 499.5,746.5C 489.856,747.498 480.19,747.832 470.5,747.5C 473.596,731.52 477.262,715.686 481.5,700C 475.175,699.5 468.842,699.334 462.5,699.5C 463.993,691.856 465.993,684.356 468.5,677C 488.537,676.925 508.537,676.259 528.5,675C 530.624,673.878 532.457,672.378 534,670.5C 534.273,665.771 534.939,661.104 536,656.5C 536.833,655.667 537.667,654.833 538.5,654C 544.412,653.106 550.078,651.439 555.5,649C 557.451,647.266 558.451,645.099 558.5,642.5 Z"/></g>
<g><path style="opacity:0.951" fill="#000000" d="M 242.5,676.5 C 251.857,676.168 261.19,676.502 270.5,677.5C 268.184,686.098 266.184,694.765 264.5,703.5C 270.758,703.81 276.924,703.476 283,702.5C 284.791,693.872 286.957,685.372 289.5,677C 298.494,676.5 307.494,676.334 316.5,676.5C 311.147,699.912 305.48,723.245 299.5,746.5C 290.184,747.665 280.851,747.832 271.5,747C 273.888,739.282 275.888,731.449 277.5,723.5C 271.167,723.5 264.833,723.5 258.5,723.5C 256.833,731.5 255.167,739.5 253.5,747.5C 244.167,747.5 234.833,747.5 225.5,747.5C 231.007,723.806 236.673,700.14 242.5,676.5 Z"/></g>
<g><path style="opacity:0.945" fill="#000000" d="M 327.5,676.5 C 347.833,676.5 368.167,676.5 388.5,676.5C 387.087,683.232 385.42,689.899 383.5,696.5C 372.5,696.5 361.5,696.5 350.5,696.5C 350.149,699.238 349.482,701.904 348.5,704.5C 359.5,705.167 370.5,705.833 381.5,706.5C 379.921,711.735 378.255,716.902 376.5,722C 365.833,722.333 355.167,722.667 344.5,723C 343.446,725.382 342.779,727.882 342.5,730.5C 353.52,730.168 364.52,730.501 375.5,731.5C 373.548,736.687 372.215,742.02 371.5,747.5C 351.167,747.5 330.833,747.5 310.5,747.5C 316.009,723.798 321.675,700.132 327.5,676.5 Z"/></g>
<g><path style="opacity:0.949" fill="#000000" d="M 418.5,722.5 C 413.713,730.41 409.713,738.743 406.5,747.5C 396.81,747.832 387.144,747.498 377.5,746.5C 389.132,723.069 400.798,699.902 412.5,677C 419.667,676.833 426.833,676.667 434,676.5C 441.569,676.519 448.903,677.185 456,678.5C 457.4,701.492 458.566,724.492 459.5,747.5C 450.494,747.666 441.494,747.5 432.5,747C 427.578,738.928 422.911,730.761 418.5,722.5 Z M 418.5,722.5 C 422.383,713.733 426.549,705.067 431,696.5C 431.687,705.173 432.02,713.84 432,722.5C 427.501,721.194 423.001,721.194 418.5,722.5 Z"/></g>
</svg>
