<?xml version="1.0" encoding="UTF-8"?>
<!DOCTYPE svg PUBLIC "-//W3C//DTD SVG 1.1//EN" "http://www.w3.org/Graphics/SVG/1.1/DTD/svg11.dtd">
<svg xmlns="http://www.w3.org/2000/svg" version="1.1" width="350px" height="401px" style="shape-rendering:geometricPrecision; text-rendering:geometricPrecision; image-rendering:optimizeQuality; fill-rule:evenodd; clip-rule:evenodd" xmlns:xlink="http://www.w3.org/1999/xlink">
<g><path style="opacity:1" fill="#eadfc3" d="M 122.5,5.5 C 126.226,5.17744 129.893,5.51078 133.5,6.5C 134.967,9.86196 134.634,13.0286 132.5,16C 123.484,21.0241 115.818,27.6908 109.5,36C 114.782,35.495 120.116,35.495 125.5,36C 127.567,38.9711 127.9,42.1378 126.5,45.5C 115.476,49.4266 105.309,54.7599 96,61.5C 88.3184,89.4231 93.3184,114.756 111,137.5C 110.803,112.397 121.97,94.5642 144.5,84C 153.551,81.7161 156.718,84.8828 154,93.5C 150.414,94.9191 147.581,97.2524 145.5,100.5C 152.716,100.874 155.549,104.541 154,111.5C 152.903,113.053 151.57,114.386 150,115.5C 134.904,123.345 132.071,134.678 141.5,149.5C 148.213,139.737 153.046,129.07 156,117.5C 158.93,114.134 162.097,113.801 165.5,116.5C 168.193,132.9 165.527,148.4 157.5,163C 168.426,167.638 179.426,167.638 190.5,163C 183.625,149.667 180.459,135.501 181,120.5C 182.622,114.383 186.122,113.05 191.5,116.5C 194.5,127.838 199.166,138.505 205.5,148.5C 206.167,149.833 206.833,149.833 207.5,148.5C 214.935,137.812 213.935,127.978 204.5,119C 201.178,116.055 197.844,113.888 194.5,112.5C 192.015,104.478 195.015,100.645 203.5,101C 199.981,97.1107 196.481,93.9441 193,91.5C 191.964,88.3201 192.797,85.8201 195.5,84C 199.478,83.2823 203.311,83.7823 207,85.5C 226.241,96.2126 236.241,113.213 237,136.5C 254.902,113.974 259.902,88.9738 252,61.5C 251.167,60.6667 250.333,59.8333 249.5,59C 240.447,53.2789 230.947,48.4456 221,44.5C 220.105,41.5337 220.605,38.8671 222.5,36.5C 227.852,35.4935 233.186,35.3268 238.5,36C 232.512,27.8618 225.179,21.3618 216.5,16.5C 210.798,10.5781 211.965,6.91143 220,5.5C 228.945,7.0511 237.111,11.0511 244.5,17.5C 245.981,16.5197 247.315,15.353 248.5,14C 255.062,14.6039 261.062,16.9372 266.5,21C 284.004,33.8337 294.504,51.0004 298,72.5C 300.158,91.3809 296.325,108.881 286.5,125C 332.408,175.554 344.241,233.388 322,298.5C 296.344,355.822 252.844,388.655 191.5,397C 143.494,401.778 101.161,387.778 64.5,355C 20.0215,309.61 5.52148,255.777 21,193.5C 29.4082,167.742 42.9082,145.076 61.5,125.5C 43.1903,91.8057 46.0236,60.139 70,30.5C 77.747,22.7959 86.747,17.1292 97,13.5C 99.8809,14.0427 101.881,15.7094 103,18.5C 109.586,13.3611 116.086,9.02774 122.5,5.5 Z"/></g>
<g><path style="opacity:1" fill="#06491e" d="M 209.5,221.5 C 207.554,222.254 206.721,223.588 207,225.5C 208.129,223.859 209.629,222.859 211.5,222.5C 217.928,242.209 223.428,262.209 228,282.5C 212.851,295.405 197.518,308.072 182,320.5C 185.509,301.454 189.509,282.454 194,263.5C 194.667,261.5 194.667,259.5 194,257.5C 187.561,265.386 180.895,273.053 174,280.5C 167.105,273.053 160.439,265.386 154,257.5C 157.069,276.952 161.069,296.285 166,315.5C 166.667,317.167 166.667,318.833 166,320.5C 150.667,307.833 135.333,295.167 120,282.5C 124.69,262.412 130.023,242.412 136,222.5C 137.303,221.888 138.47,221.554 139.5,221.5C 136.198,215.701 132.698,210.034 129,204.5C 129.365,201.206 129.865,197.873 130.5,194.5C 121.49,193.856 112.49,193.023 103.5,192C 95.4005,187.658 90.9005,180.825 90,171.5C 89.1889,167.504 88.8555,163.504 89,159.5C 89.414,159.043 89.914,158.709 90.5,158.5C 96.296,161.58 102.296,163.747 108.5,165C 94,153.167 80.8333,140 69,125.5C 51.0699,97.4588 51.0699,69.4588 69,41.5C 74.2073,34.6253 80.374,28.7919 87.5,24C 89.0444,22.8129 90.7111,22.4795 92.5,23C 80.4074,34.3525 72.9074,48.1859 70,64.5C 74.033,60.1321 78.3663,56.1321 83,52.5C 89.9583,37.5407 100.458,25.7074 114.5,17C 117.298,15.0863 120.298,14.0863 123.5,14C 112.32,22.5084 103.32,32.8417 96.5,45C 101.102,44.1875 105.769,43.3541 110.5,42.5C 112.735,42.2053 114.735,42.5386 116.5,43.5C 108.298,46.2678 100.631,50.1012 93.5,55C 91.5125,56.3189 90.3459,58.1523 90,60.5C 82.5313,89.8234 87.8647,116.49 106,140.5C 109.7,144.535 113.7,148.202 118,151.5C 114.698,134.051 118.031,118.051 128,103.5C 131.817,98.675 136.484,95.0084 142,92.5C 142.5,92.6667 143,92.8333 143.5,93C 138.116,98.2683 134.116,104.435 131.5,111.5C 131.667,112.167 131.833,112.833 132,113.5C 136.464,110.566 141.297,109.066 146.5,109C 139.484,113.677 134.317,119.844 131,127.5C 128.932,139.629 132.266,149.962 141,158.5C 149.11,150.22 154.943,140.553 158.5,129.5C 159.117,129.389 159.617,129.056 160,128.5C 160.494,130.134 160.66,131.801 160.5,133.5C 159.424,145.145 155.424,155.645 148.5,165C 162.463,173.353 177.13,174.686 192.5,169C 194.996,167.92 197.33,166.586 199.5,165C 191.097,153.561 187.264,140.727 188,126.5C 191.775,138.721 198.108,149.388 207,158.5C 223.663,139.971 221.829,123.471 201.5,109C 206.612,108.981 211.278,110.481 215.5,113.5C 216.248,109.929 215.415,106.595 213,103.5C 209.507,99.0072 205.673,94.8405 201.5,91C 213.46,95.2879 221.96,103.455 227,115.5C 230.491,126.979 231.325,138.646 229.5,150.5C 230.002,151.521 230.668,151.688 231.5,151C 258.594,124.958 267.094,93.7917 257,57.5C 249.186,51.8386 241.02,46.8386 232.5,42.5C 232.833,42.1667 233.167,41.8333 233.5,41.5C 239.536,42.798 245.536,43.9646 251.5,45C 243.972,31.8025 233.972,20.8025 221.5,12C 241.344,19.5023 255.844,33.0023 265,52.5C 269.634,56.1321 273.967,60.1321 278,64.5C 275.024,47.7196 267.19,33.553 254.5,22C 271.457,29.6397 282.957,42.473 289,60.5C 294.984,80.203 293.317,99.203 284,117.5C 280.724,123.108 277.057,128.442 273,133.5C 262.437,144.732 251.27,155.232 239.5,165C 245.644,163.56 251.644,161.394 257.5,158.5C 258.086,158.709 258.586,159.043 259,159.5C 260.019,171.271 256.519,181.437 248.5,190C 246.913,190.862 245.246,191.529 243.5,192C 234.85,193.07 226.183,193.903 217.5,194.5C 217.339,197.528 218.006,200.361 219.5,203C 215.925,209.065 212.592,215.231 209.5,221.5 Z"/></g>
<g><path style="opacity:1" fill="#668460" d="M 110.5,42.5 C 113.304,41.3622 116.304,41.1955 119.5,42C 118.473,42.5133 117.473,43.0133 116.5,43.5C 114.735,42.5386 112.735,42.2053 110.5,42.5 Z"/></g>
<g><path style="opacity:1" fill="#d5d0ad" d="M 271.5,71.5 C 276.632,75.7073 278.965,81.2073 278.5,88C 277.491,98.0272 274.658,107.527 270,116.5C 272.484,101.596 272.984,86.596 271.5,71.5 Z"/></g>
<g><path style="opacity:1" fill="#d6d1af" d="M 75.5,71.5 C 75.1083,86.4158 75.9416,101.416 78,116.5C 73.535,107.47 70.7016,97.9703 69.5,88C 69.236,81.621 71.236,76.121 75.5,71.5 Z"/></g>
<g><path style="opacity:1" fill="#6d8765" d="M 160.5,133.5 C 160.66,131.801 160.494,130.134 160,128.5C 159.617,129.056 159.117,129.389 158.5,129.5C 159.32,127.188 160.153,124.854 161,122.5C 161.81,126.358 161.643,130.024 160.5,133.5 Z"/></g>
<g><path style="opacity:1" fill="#145025" d="M 72.5,353.5 C 69.9249,349.581 66.9249,345.915 63.5,342.5C 62.0603,341.048 60.3936,340.048 58.5,339.5C 22.5914,296.056 12.4248,247.056 28,192.5C 35.5364,168.403 48.3697,147.737 66.5,130.5C 67.9814,131.48 69.3147,132.647 70.5,134C 26.305,181.306 15.4717,235.473 38,296.5C 62.5728,348.389 103.406,378.222 160.5,386C 221.15,388.76 267.984,364.927 301,314.5C 328.317,264.06 328.317,213.727 301,163.5C 294.49,152.664 286.656,142.831 277.5,134C 278.766,132.017 280.432,131.017 282.5,131C 318.795,168.638 332.962,213.471 325,265.5C 315.074,313.555 288.908,349.721 246.5,374C 207.228,393.496 166.561,396.83 124.5,384C 105.098,377.141 87.7649,366.974 72.5,353.5 Z"/></g>
<g><path style="opacity:1" fill="#094b20" d="M 73.5,137.5 C 75.1454,138.479 76.4787,139.812 77.5,141.5C 44.8346,176.209 32.3346,217.209 40,264.5C 53.6656,260.266 67.4989,256.599 81.5,253.5C 88.1011,289.943 108.768,314.776 143.5,328C 190.795,339.921 227.961,325.754 255,285.5C 260.522,275.466 264.022,264.799 265.5,253.5C 279.836,256.444 294.003,260.111 308,264.5C 316.397,217.44 304.064,176.774 271,142.5C 271.083,140.715 272.083,139.382 274,138.5C 278.654,141.821 282.654,145.821 286,150.5C 319.315,196.022 325.315,245.022 304,297.5C 277.285,350.877 233.952,378.877 174,381.5C 114.034,378.871 70.7006,350.871 44,297.5C 20.981,237.931 30.8144,184.598 73.5,137.5 Z"/></g>
<g><path style="opacity:1" fill="#eff3f0" d="M 97.5,168.5 C 104.95,174.731 112.95,180.231 121.5,185C 106.742,189.052 98.7415,183.552 97.5,168.5 Z"/></g>
<g><path style="opacity:1" fill="#f1f5f2" d="M 249.5,168.5 C 249.339,183.423 241.672,188.923 226.5,185C 235.185,180.8 242.851,175.3 249.5,168.5 Z"/></g>
<g><path style="opacity:1" fill="#edf2ee" d="M 145.5,188.5 C 150.629,189.397 155.296,191.397 159.5,194.5C 156.764,197.305 153.43,198.138 149.5,197C 146.179,195.188 144.845,192.355 145.5,188.5 Z"/></g>
<g><path style="opacity:1" fill="#ecf1ee" d="M 199.5,188.5 C 200.5,188.5 201.5,188.5 202.5,188.5C 202.666,196.098 198.999,198.931 191.5,197C 190.09,196.632 189.09,195.799 188.5,194.5C 192.1,192.203 195.767,190.203 199.5,188.5 Z"/></g>
<g><path style="opacity:1" fill="#f5f8f6" d="M 168.5,199.5 C 172.239,200.449 175.906,200.783 179.5,200.5C 181.044,209.844 185.044,217.844 191.5,224.5C 192.819,228.094 193.319,231.761 193,235.5C 191.167,238 189.333,240.5 187.5,243C 185.421,243.808 183.421,243.641 181.5,242.5C 183.5,239.5 185.5,236.5 187.5,233.5C 186.985,231.775 186.318,230.108 185.5,228.5C 177.937,233.745 170.437,233.745 163,228.5C 161.885,230 161.052,231.667 160.5,233.5C 162.5,236.5 164.5,239.5 166.5,242.5C 164.579,243.641 162.579,243.808 160.5,243C 158.667,240.5 156.833,238 155,235.5C 154.681,231.761 155.181,228.094 156.5,224.5C 163.162,217.551 167.162,209.217 168.5,199.5 Z"/></g>
<g><path style="opacity:1" fill="#7d9b7a" d="M 209.5,221.5 C 210.492,221.328 211.158,221.662 211.5,222.5C 209.629,222.859 208.129,223.859 207,225.5C 206.721,223.588 207.554,222.254 209.5,221.5 Z"/></g>
<g><path style="opacity:1" fill="#f8f9f9" d="M 165.5,250.5 C 170.985,249.348 176.651,249.182 182.5,250C 180.992,253.881 178.159,255.381 174,254.5C 170.036,255.252 167.203,253.919 165.5,250.5 Z"/></g>
<g><path style="opacity:1" fill="#edf2f0" d="M 64.5,278.5 C 65.0431,278.44 65.3764,278.107 65.5,277.5C 63.604,276.534 61.604,276.201 59.5,276.5C 61.0846,274.892 62.2513,273.225 63,271.5C 56.9025,273.732 50.7358,275.732 44.5,277.5C 44.67,276.178 44.3366,275.011 43.5,274C 53.6015,269.632 63.9348,266.298 74.5,264C 75.0585,264.725 75.3918,265.558 75.5,266.5C 73.7122,268.791 71.7122,270.957 69.5,273C 72.5535,273.179 75.5535,273.679 78.5,274.5C 79.2458,275.736 79.5792,277.07 79.5,278.5C 69.0833,281.54 58.75,284.873 48.5,288.5C 48.0338,286.799 48.0338,285.299 48.5,284C 53.8941,282.258 59.2274,280.424 64.5,278.5 Z"/></g>
<g><path style="opacity:1" fill="#e9efec" d="M 272.5,262.5 C 275.794,262.259 278.794,263.092 281.5,265C 280.663,266.011 280.33,267.178 280.5,268.5C 278.833,268.5 277.167,268.5 275.5,268.5C 275.643,270.262 275.309,271.929 274.5,273.5C 277.08,275.759 279.913,276.426 283,275.5C 283.673,271.98 284.84,268.647 286.5,265.5C 292.623,267.398 298.623,269.565 304.5,272C 302.618,276.696 301.285,281.53 300.5,286.5C 297.574,285.539 294.574,284.873 291.5,284.5C 291.491,282.692 291.991,281.025 293,279.5C 294.049,280.517 295.216,280.684 296.5,280C 297.167,278.333 297.833,276.667 298.5,275C 295.992,273.55 293.325,272.383 290.5,271.5C 288.506,274.155 287.006,277.155 286,280.5C 285.275,281.059 284.442,281.392 283.5,281.5C 278.357,280.086 273.357,278.42 268.5,276.5C 270.717,272.082 272.05,267.416 272.5,262.5 Z"/></g>
<g><path style="opacity:1" fill="#8ea697" d="M 59.5,276.5 C 61.604,276.201 63.604,276.534 65.5,277.5C 65.3764,278.107 65.0431,278.44 64.5,278.5C 62.1944,277.962 60.5277,277.295 59.5,276.5 Z"/></g>
<g><path style="opacity:1" fill="#e3ebe6" d="M 80.5,283.5 C 82.5638,283.762 83.8971,284.929 84.5,287C 74.6993,292.653 64.866,297.486 55,301.5C 53.759,300.123 53.5923,298.79 54.5,297.5C 63.2284,292.805 71.8951,288.138 80.5,283.5 Z"/></g>
<g><path style="opacity:1" fill="#edf2ee" d="M 266.5,280.5 C 269.657,284.127 272.824,287.794 276,291.5C 282.584,292.458 289.084,293.792 295.5,295.5C 294.885,297.384 293.552,298.384 291.5,298.5C 287.856,297.585 284.19,297.419 280.5,298C 284.007,300.254 287.673,302.254 291.5,304C 290.833,305 290.167,306 289.5,307C 279.199,303.349 269.532,298.349 260.5,292C 260.78,290.605 261.447,289.438 262.5,288.5C 264.487,290.501 266.82,291.335 269.5,291C 267.833,288.667 266.167,286.333 264.5,284C 265.305,282.887 265.972,281.721 266.5,280.5 Z"/></g>
<g><path style="opacity:1" fill="#eaf0ed" d="M 257.5,296.5 C 260.268,298.087 262.935,299.92 265.5,302C 264.845,303.487 263.845,304.653 262.5,305.5C 257.766,302.385 255.599,303.718 256,309.5C 261.106,312.972 265.94,316.806 270.5,321C 273.481,321.381 275.481,320.048 276.5,317C 272.881,314.976 272.714,312.809 276,310.5C 278.185,311.928 280.185,313.595 282,315.5C 282.667,316.5 282.667,317.5 282,318.5C 279.354,321.98 276.521,325.314 273.5,328.5C 265.062,322.529 256.895,316.196 249,309.5C 248.333,308.833 248.333,308.167 249,307.5C 252.049,303.957 254.882,300.291 257.5,296.5 Z"/></g>
<g><path style="opacity:1" fill="#e9efec" d="M 85.5,292.5 C 88.0014,292.826 89.1681,294.159 89,296.5C 82,301.5 75,306.5 68,311.5C 68.8698,315.054 70.7031,318.221 73.5,321C 72.0692,321.465 70.9025,322.299 70,323.5C 66.4693,319.603 63.3026,315.436 60.5,311C 69.2574,305.3 77.5907,299.133 85.5,292.5 Z"/></g>
<g><path style="opacity:1" fill="#eef2f0" d="M 95.5,304.5 C 96.8118,305.145 97.8118,306.145 98.5,307.5C 91.5477,316.713 92.7143,317.713 102,310.5C 102.167,311 102.333,311.5 102.5,312C 100.462,315.584 98.6283,319.084 97,322.5C 100.026,319.974 103.193,317.64 106.5,315.5C 107.646,316.145 108.646,316.978 109.5,318C 101.312,325.022 92.9787,331.856 84.5,338.5C 83.1667,337.833 82.1667,336.833 81.5,335.5C 87.1158,327.618 85.9492,326.618 78,332.5C 76.9783,331.646 76.1449,330.646 75.5,329.5C 82.1902,321.148 88.8569,312.814 95.5,304.5 Z"/></g>
<g><path style="opacity:1" fill="#ebf0ed" d="M 111.5,320.5 C 116.826,322.495 121.493,325.495 125.5,329.5C 119.904,338.369 114.071,347.036 108,355.5C 106.775,355.138 105.609,354.638 104.5,354C 107.093,350.148 109.426,346.148 111.5,342C 110.069,339.33 108.069,338.497 105.5,339.5C 103.302,342.533 101.302,345.7 99.5,349C 97.3927,349.854 96.0593,349.188 95.5,347C 101.07,338.273 106.404,329.44 111.5,320.5 Z"/></g>
<g><path style="opacity:1" fill="#294a35" d="M 113.5,327.5 C 118.394,328.026 119.561,330.36 117,334.5C 114.258,337.104 111.758,336.771 109.5,333.5C 110.844,331.471 112.177,329.471 113.5,327.5 Z"/></g>
<g><path style="opacity:1" fill="#eaf0ec" d="M 128.5,331.5 C 130.429,331.231 132.095,331.731 133.5,333C 130.32,341.198 126.987,349.365 123.5,357.5C 125.551,359.72 127.884,360.386 130.5,359.5C 133.537,351.194 137.037,343.194 141,335.5C 142.225,335.862 143.391,336.362 144.5,337C 140.134,346.567 136.467,356.4 133.5,366.5C 127.96,365.097 122.627,363.097 117.5,360.5C 121.464,350.912 125.131,341.245 128.5,331.5 Z"/></g>
<g><path style="opacity:1" fill="#eaf0ed" d="M 243.5,312.5 C 245.716,313.203 247.549,314.536 249,316.5C 254.311,323.312 259.811,329.979 265.5,336.5C 261.507,340.324 257.34,343.991 253,347.5C 246.167,339.167 239.333,330.833 232.5,322.5C 233.76,321.618 234.926,320.618 236,319.5C 241.626,326.794 247.626,333.794 254,340.5C 255.019,339.313 256.186,338.313 257.5,337.5C 258.583,336.635 258.749,335.635 258,334.5C 252.125,328.293 246.625,321.793 241.5,315C 242.381,314.292 243.047,313.458 243.5,312.5 Z"/></g>
<g><path style="opacity:1" fill="#f2f6f4" d="M 181.5,340.5 C 181.5,341.833 181.5,343.167 181.5,344.5C 177.958,344.187 174.625,344.521 171.5,345.5C 171.5,348.167 171.5,350.833 171.5,353.5C 175.167,353.5 178.833,353.5 182.5,353.5C 182.5,355.167 182.5,356.833 182.5,358.5C 178.833,358.5 175.167,358.5 171.5,358.5C 171.216,361.777 171.549,364.943 172.5,368C 175.817,368.498 179.15,368.665 182.5,368.5C 182.5,369.833 182.5,371.167 182.5,372.5C 177.463,372.413 172.463,372.746 167.5,373.5C 167.713,362.473 167.38,351.473 166.5,340.5C 171.5,340.5 176.5,340.5 181.5,340.5 Z"/></g>
<g><path style="opacity:1" fill="#ecf1ef" d="M 148.5,337.5 C 149.708,338.234 151.041,338.567 152.5,338.5C 152.337,340.857 152.503,343.19 153,345.5C 154.62,343.759 156.12,341.925 157.5,340C 159.319,339.217 160.652,339.717 161.5,341.5C 158.282,345.036 155.949,349.036 154.5,353.5C 155.873,359.445 156.873,365.445 157.5,371.5C 156.022,371.762 154.689,371.429 153.5,370.5C 152.641,366.422 151.474,362.422 150,358.5C 149.15,362.62 147.983,366.62 146.5,370.5C 144.545,369.72 143.545,368.22 143.5,366C 145.126,356.494 146.792,346.994 148.5,337.5 Z"/></g>
<g><path style="opacity:1" fill="#48734e" d="M 58.5,339.5 C 60.3936,340.048 62.0603,341.048 63.5,342.5C 66.9249,345.915 69.9249,349.581 72.5,353.5C 67.4729,349.14 62.8062,344.473 58.5,339.5 Z"/></g>
<g><path style="opacity:1" fill="#98b7a5" d="M 181.5,340.5 C 182.451,341.919 182.784,343.585 182.5,345.5C 178.833,345.5 175.167,345.5 171.5,345.5C 174.625,344.521 177.958,344.187 181.5,344.5C 181.5,343.167 181.5,341.833 181.5,340.5 Z"/></g>
<g><path style="opacity:1" fill="#eef3f0" d="M 224.5,326.5 C 226.589,326.857 228.589,327.523 230.5,328.5C 232.849,332.195 234.349,336.195 235,340.5C 238.206,343.219 240.706,346.553 242.5,350.5C 241.985,352.225 241.318,353.892 240.5,355.5C 236.871,357.3 233.371,359.3 230,361.5C 224.96,351.92 219.794,342.42 214.5,333C 218.069,331.058 221.402,328.892 224.5,326.5 Z"/></g>
<g><path style="opacity:1" fill="#274a34" d="M 231.5,343.5 C 233.822,345.586 235.822,348.086 237.5,351C 235.751,352.292 233.918,353.458 232,354.5C 230.247,351.995 228.747,349.329 227.5,346.5C 228.901,345.479 230.235,344.479 231.5,343.5 Z"/></g>
<g><path style="opacity:1" fill="#2a4735" d="M 224.5,332.5 C 227.411,333.41 229.411,335.41 230.5,338.5C 225.855,343.023 222.855,342.023 221.5,335.5C 222.34,334.265 223.34,333.265 224.5,332.5 Z"/></g>
<g><path style="opacity:1" fill="#e9efeb" d="M 198.5,337.5 C 199.5,337.5 200.5,337.5 201.5,337.5C 201.966,339.201 201.966,340.701 201.5,342C 198.522,342.696 195.522,343.196 192.5,343.5C 192.292,345.92 192.626,348.253 193.5,350.5C 197.096,351.079 200.762,351.079 204.5,350.5C 204.762,351.978 204.429,353.311 203.5,354.5C 200.553,355.423 197.553,356.089 194.5,356.5C 194.467,359.836 195.134,363.003 196.5,366C 200.067,365.367 203.733,364.867 207.5,364.5C 207.5,366.167 207.5,367.833 207.5,369.5C 202.5,370.167 197.5,370.833 192.5,371.5C 190.501,361.178 188.501,350.845 186.5,340.5C 190.627,339.489 194.627,338.489 198.5,337.5 Z"/></g>
</svg>
