<?xml version="1.0" encoding="UTF-8"?>
<!DOCTYPE svg PUBLIC "-//W3C//DTD SVG 1.1//EN" "http://www.w3.org/Graphics/SVG/1.1/DTD/svg11.dtd">
<svg xmlns="http://www.w3.org/2000/svg" version="1.1" width="800px" height="800px" style="shape-rendering:geometricPrecision; text-rendering:geometricPrecision; image-rendering:optimizeQuality; fill-rule:evenodd; clip-rule:evenodd" xmlns:xlink="http://www.w3.org/1999/xlink">
<g><path style="opacity:0.968" fill="#9ca1a1" d="M 378.5,86.5 C 493.109,83.3972 584.943,127.064 654,217.5C 716.88,311.354 728.547,411.354 689,517.5C 644.774,618.378 568.941,681.211 461.5,706C 360.851,723.842 271.517,700.175 193.5,635C 109.998,557.516 75.8314,462.016 91,348.5C 109.384,251.186 160.884,177.353 245.5,127C 287.145,104.282 331.478,90.782 378.5,86.5 Z"/></g>
<g><path style="opacity:1" fill="#0c2340" d="M 371.5,98.5 C 478.632,92.1769 566.799,129.51 636,210.5C 698.06,292.137 716.06,382.804 690,482.5C 659.888,578.946 597.721,645.446 503.5,682C 397.87,716.677 300.87,700.677 212.5,634C 125.152,558.662 88.985,463.496 104,348.5C 122.708,252.52 174.541,180.687 259.5,133C 294.816,114.502 332.15,103.002 371.5,98.5 Z"/></g>
<g><path style="opacity:1" fill="#f6f7f8" d="M 423.5,119.5 C 433.492,120.497 443.492,121.497 453.5,122.5C 453.345,125.609 452.678,128.609 451.5,131.5C 448.292,130.198 444.959,129.531 441.5,129.5C 440.418,139.157 439.418,148.824 438.5,158.5C 435.833,158.5 433.167,158.5 430.5,158.5C 430.597,148.726 431.597,139.059 433.5,129.5C 430.294,128.192 426.96,127.525 423.5,127.5C 423.5,124.833 423.5,122.167 423.5,119.5 Z"/></g>
<g><path style="opacity:1" fill="#f4f5f7" d="M 349.5,122.5 C 350.496,122.414 351.329,122.748 352,123.5C 359.5,134.5 367,145.5 374.5,156.5C 371.179,157.949 367.846,158.282 364.5,157.5C 361,152.5 357.5,147.5 354,142.5C 351.728,148.683 349.895,155.016 348.5,161.5C 345.762,161.851 343.096,162.518 340.5,163.5C 340.167,163 339.833,162.5 339.5,162C 342.603,148.756 345.936,135.59 349.5,122.5 Z"/></g>
<g><path style="opacity:1" fill="#f4f5f6" d="M 477.5,129.5 C 480.686,129.613 483.353,130.78 485.5,133C 482.266,144.202 478.933,155.369 475.5,166.5C 472.874,167.449 470.208,167.449 467.5,166.5C 470.362,154.051 473.696,141.718 477.5,129.5 Z"/></g>
<g><path style="opacity:1" fill="#f5f6f7" d="M 310.5,131.5 C 313.639,133.085 315.306,135.752 315.5,139.5C 312.763,140.031 310.096,140.864 307.5,142C 306.978,142.561 306.645,143.228 306.5,144C 309.833,152.333 313.167,160.667 316.5,169C 314.635,171.77 311.968,173.27 308.5,173.5C 305.528,164.069 301.695,155.069 297,146.5C 294.256,147.303 291.589,148.303 289,149.5C 287.09,147.799 285.923,145.633 285.5,143C 293.624,138.682 301.958,134.849 310.5,131.5 Z"/></g>
<g><path style="opacity:1" fill="#f5f6f7" d="M 514.5,141.5 C 515.931,141.881 516.764,142.881 517,144.5C 519.309,152.068 521.142,159.734 522.5,167.5C 529.91,165.308 537.243,162.808 544.5,160C 545.944,159.219 547.277,159.386 548.5,160.5C 542.798,171.043 537.298,181.709 532,192.5C 531.282,193.451 530.449,193.617 529.5,193C 527.373,191.949 525.707,190.449 524.5,188.5C 526.688,183.958 529.021,179.458 531.5,175C 526.561,176.118 521.561,177.284 516.5,178.5C 515.652,173.774 514.485,169.108 513,164.5C 510.167,169.5 507.333,174.5 504.5,179.5C 501.797,178.487 499.464,176.987 497.5,175C 503.313,163.874 508.98,152.707 514.5,141.5 Z"/></g>
<g><path style="opacity:1" fill="#f4f5f6" d="M 252.5,159.5 C 269.493,158 277.993,165.667 278,182.5C 272.73,196.817 262.897,201.317 248.5,196C 236.211,185.659 235.544,174.659 246.5,163C 248.727,162.059 250.727,160.892 252.5,159.5 Z"/></g>
<g><path style="opacity:1" fill="#0f2441" d="M 254.5,168.5 C 264.337,167.511 269.17,171.844 269,181.5C 266.189,187.823 261.355,190.323 254.5,189C 248.823,185.364 246.99,180.197 249,173.5C 250.73,171.598 252.563,169.931 254.5,168.5 Z"/></g>
<g><path style="opacity:1" fill="#9b9fa0" d="M 385.5,174.5 C 485.94,173.219 559.107,216.885 605,305.5C 634.886,375.26 631.886,443.594 596,510.5C 577.522,542.313 552.855,568.313 522,588.5C 520.489,584.826 519.989,581.159 520.5,577.5C 587.324,529.173 618.824,463.507 615,380.5C 605.622,304.86 568.122,248.027 502.5,210C 430.035,174.202 358.702,176.202 288.5,216C 212.635,266.909 179.135,338.076 188,429.5C 191.27,451.977 197.77,473.477 207.5,494C 205.522,495.978 203.522,497.978 201.5,500C 200.668,500.688 200.002,500.521 199.5,499.5C 162.386,418.929 168.553,341.929 218,268.5C 259.896,212.628 315.729,181.295 385.5,174.5 Z"/></g>
<g><path style="opacity:1" fill="#f7f7f8" d="M 573.5,178.5 C 579.359,181.846 584.526,186.18 589,191.5C 592.05,199.185 589.884,204.851 582.5,208.5C 579.606,220.851 572.606,224.018 561.5,218C 557.5,214.333 553.5,210.667 549.5,207C 557.872,197.716 565.872,188.216 573.5,178.5 Z"/></g>
<g><path style="opacity:1" fill="#132744" d="M 574.5,190.5 C 579.357,192.136 581.357,195.302 580.5,200C 576.622,200.162 573.622,198.495 571.5,195C 573.141,193.871 574.141,192.371 574.5,190.5 Z"/></g>
<g><path style="opacity:1" fill="#f5f6f7" d="M 209.5,194.5 C 210.833,194.5 212.167,194.5 213.5,194.5C 213.5,197.5 213.5,200.5 213.5,203.5C 210.685,204.126 208.185,205.46 206,207.5C 205.167,210.667 206.333,211.833 209.5,211C 212.5,209.333 215.5,207.667 218.5,206C 227.134,204.467 232.467,207.967 234.5,216.5C 231.779,227.558 224.779,233.558 213.5,234.5C 213.5,231.167 213.5,227.833 213.5,224.5C 218.791,225.357 222.457,223.357 224.5,218.5C 223.307,216.616 221.641,216.116 219.5,217C 213.938,221.201 207.938,222.201 201.5,220C 194.381,212.061 195.047,204.728 203.5,198C 205.727,197.059 207.727,195.892 209.5,194.5 Z"/></g>
<g><path style="opacity:1" fill="#226091" d="M 387.5,199.5 C 410.919,199.083 433.919,201.917 456.5,208C 425.927,214.58 396.26,224.08 367.5,236.5C 358.803,231.776 354.803,224.443 355.5,214.5C 355.544,211.445 355.877,208.445 356.5,205.5C 366.781,202.598 377.114,200.598 387.5,199.5 Z"/></g>
<g><path style="opacity:1" fill="#152845" d="M 565.5,201.5 C 568.394,202.882 570.894,204.882 573,207.5C 574.167,211.667 572.667,213.167 568.5,212C 564.983,210.516 563.149,208.016 563,204.5C 564.045,203.627 564.878,202.627 565.5,201.5 Z"/></g>
<g><path style="opacity:1" fill="#226091" d="M 340.5,208.5 C 342.196,214.13 343.362,220.13 344,226.5C 345.367,232.359 348.201,237.359 352.5,241.5C 352.291,242.086 351.957,242.586 351.5,243C 344.833,246 338.167,249 331.5,252C 310.179,251.821 288.845,251.487 267.5,251C 289.107,232.195 313.44,218.028 340.5,208.5 Z"/></g>
<g><path style="opacity:1" fill="#226090" d="M 471.5,218.5 C 476.511,218.334 481.511,218.501 486.5,219C 530.711,240.539 562.544,273.706 582,318.5C 564.835,298.34 544.001,283.174 519.5,273C 514.446,263.612 507.112,256.612 497.5,252C 494.5,246.333 490.167,242 484.5,239C 480.203,239.134 476.203,240.467 472.5,243C 468.2,246.298 464.2,249.965 460.5,254C 442.483,252.887 424.483,251.22 406.5,249C 400.281,248.244 394.281,246.744 388.5,244.5C 414.656,230.716 442.322,222.05 471.5,218.5 Z"/></g>
<g><path style="opacity:1" fill="#f5f6f7" d="M 614.5,218.5 C 616.017,218.511 617.184,219.177 618,220.5C 622.5,226.333 627,232.167 631.5,238C 629.627,240.209 627.46,242.042 625,243.5C 621.5,239.167 618,234.833 614.5,230.5C 612.483,231.174 610.817,232.341 609.5,234C 612.691,237.69 615.691,241.523 618.5,245.5C 616.5,247.167 614.5,248.833 612.5,250.5C 609.342,247.172 606.342,243.672 603.5,240C 601.248,240.05 599.582,241.216 598.5,243.5C 601.833,247.833 605.167,252.167 608.5,256.5C 606.5,258.167 604.5,259.833 602.5,261.5C 596.336,255.665 591.002,249.165 586.5,242C 595.67,233.999 605.003,226.165 614.5,218.5 Z"/></g>
<g><path style="opacity:1" fill="#f5f6f7" d="M 173.5,231.5 C 176.381,232.274 179.048,233.607 181.5,235.5C 178.5,240.167 175.5,244.833 172.5,249.5C 173.694,251.431 175.361,252.264 177.5,252C 180,248.128 182.834,244.628 186,241.5C 188.411,242.624 190.578,244.124 192.5,246C 189.71,249.746 187.043,253.579 184.5,257.5C 185.865,258.941 187.365,260.274 189,261.5C 192.29,257.088 195.456,252.588 198.5,248C 201.357,248.442 203.69,249.942 205.5,252.5C 201.081,259.672 196.415,266.672 191.5,273.5C 180.602,266.891 170.269,259.558 160.5,251.5C 164.859,244.816 169.193,238.149 173.5,231.5 Z"/></g>
<g><path style="opacity:1" fill="#73b722" d="M 478.5,247.5 C 485.959,246.288 490.126,249.288 491,256.5C 482.62,251.699 475.286,253.032 469,260.5C 470.67,255.195 473.836,250.861 478.5,247.5 Z"/></g>
<g><path style="opacity:1" fill="#75ba21" d="M 306.5,263.5 C 308.948,262.527 311.615,262.194 314.5,262.5C 321.171,263.001 327.837,263.168 334.5,263C 343.692,259.154 352.526,254.654 361,249.5C 357.209,256.183 353.042,262.85 348.5,269.5C 354.924,274.419 360.924,279.919 366.5,286C 356.355,284.789 346.189,283.289 336,281.5C 326.916,285.376 318.249,290.042 310,295.5C 313.12,288.444 316.953,281.611 321.5,275C 316.431,271.146 311.431,267.313 306.5,263.5 Z"/></g>
<g><path style="opacity:1" fill="#226091" d="M 376.5,254.5 C 384.3,257.284 392.3,259.451 400.5,261C 417.546,262.649 434.546,264.649 451.5,267C 438.667,280.5 425.833,294 413,307.5C 404.755,301.626 396.255,296.126 387.5,291C 381.032,283.53 374.198,276.364 367,269.5C 369.028,263.932 372.195,258.932 376.5,254.5 Z"/></g>
<g><path style="opacity:1" fill="#3d6932" d="M 314.5,262.5 C 311.615,262.194 308.948,262.527 306.5,263.5C 305.711,263.217 305.044,262.717 304.5,262C 308.027,261.192 311.36,261.359 314.5,262.5 Z"/></g>
<g><path style="opacity:1" fill="#f4f5f6" d="M 645.5,263.5 C 646.496,263.414 647.329,263.748 648,264.5C 650.607,269.38 652.94,274.38 655,279.5C 654.911,293.733 648.078,298.399 634.5,293.5C 631.863,297.968 629.03,302.302 626,306.5C 624.62,303.572 623.12,300.738 621.5,298C 625.123,292.242 628.29,286.409 631,280.5C 626.579,282.961 622.079,285.294 617.5,287.5C 614.948,285.399 613.781,282.733 614,279.5C 624.514,273.994 635.014,268.66 645.5,263.5 Z"/></g>
<g><path style="opacity:1" fill="#226091" d="M 252.5,265.5 C 272.518,262.438 290.518,266.938 306.5,279C 303.833,283.333 301.167,287.667 298.5,292C 285.523,290.332 272.856,291.666 260.5,296C 242.956,303.52 227.789,314.354 215,328.5C 223.38,305.077 235.88,284.077 252.5,265.5 Z"/></g>
<g><path style="opacity:1" fill="#9da1a1" d="M 498.5,268.5 C 505.434,272.959 509.934,279.293 512,287.5C 514.36,297.038 515.027,306.705 514,316.5C 512.545,306.262 508.878,296.929 503,288.5C 502.804,305.676 499.804,322.343 494,338.5C 489.333,349.833 484.667,361.167 480,372.5C 477.486,379.845 478.152,386.845 482,393.5C 483.743,395.871 486.077,397.205 489,397.5C 493.772,396.365 498.272,394.532 502.5,392C 510.872,386.481 519.539,381.481 528.5,377C 536.869,375.697 539.869,379.03 537.5,387C 535.5,387.333 533.5,387.667 531.5,388C 515.292,399.874 501.459,414.041 490,430.5C 477.296,447.912 468.963,467.245 465,488.5C 463.505,502.158 464.838,515.491 469,528.5C 469.561,517.903 472.727,508.236 478.5,499.5C 482.174,518.355 488.34,536.355 497,553.5C 500.766,562.895 503.099,572.562 504,582.5C 501.022,578.944 497.522,576.944 493.5,576.5C 501.068,595.133 503.568,614.466 501,634.5C 500.412,640.426 498.912,646.093 496.5,651.5C 493.143,639.913 487.976,629.246 481,619.5C 470.667,607.833 460.333,596.167 450,584.5C 433.519,563.867 422.686,540.534 417.5,514.5C 409.618,518.546 403.118,524.213 398,531.5C 389.194,544.447 382.527,558.447 378,573.5C 360.653,535.09 355.153,495.09 361.5,453.5C 343.098,461.125 326.932,472.125 313,486.5C 315.997,459.338 327.831,436.838 348.5,419C 354.677,414.408 361.344,410.575 368.5,407.5C 369.56,412.859 370.726,418.192 372,423.5C 376.432,403.87 383.432,385.203 393,367.5C 412.95,333.893 436.284,302.893 463,274.5C 474.242,278.11 485.742,279.276 497.5,278C 498.451,274.943 498.784,271.777 498.5,268.5 Z"/></g>
<g><path style="opacity:1" fill="#112542" d="M 642.5,274.5 C 647.123,278.412 647.456,282.579 643.5,287C 638.287,287.81 635.287,285.477 634.5,280C 637.029,277.907 639.696,276.074 642.5,274.5 Z"/></g>
<g><path style="opacity:1" fill="#f6f7f8" d="M 144.5,280.5 C 156.664,284.835 168.664,289.668 180.5,295C 171.833,299.333 163.167,303.667 154.5,308C 160.167,310.833 165.833,313.667 171.5,316.5C 170.399,318.642 169.399,320.808 168.5,323C 156.816,319.252 145.316,314.752 134,309.5C 133.383,308.551 133.549,307.718 134.5,307C 142.97,303.455 151.303,299.622 159.5,295.5C 154.289,293.062 148.955,290.895 143.5,289C 142.941,288.275 142.608,287.442 142.5,286.5C 143.178,284.484 143.844,282.484 144.5,280.5 Z"/></g>
<g><path style="opacity:1" fill="#226091" d="M 523.5,289.5 C 523.56,288.957 523.893,288.624 524.5,288.5C 588.481,323.901 611.647,377.235 594,448.5C 589.065,467.698 581.399,485.698 571,502.5C 560.944,472.05 546.444,444.05 527.5,418.5C 531.453,409.496 537.453,407.496 545.5,412.5C 550.704,401.768 551.537,390.768 548,379.5C 546.431,375.928 544.098,372.928 541,370.5C 538.057,360.559 532.39,352.559 524,346.5C 525.04,334.888 525.873,323.221 526.5,311.5C 526.778,303.857 525.778,296.524 523.5,289.5 Z"/></g>
<g><path style="opacity:1" fill="#226091" d="M 335.5,293.5 C 351.32,293.858 366.653,296.692 381.5,302C 389.303,306.971 396.97,312.138 404.5,317.5C 396.311,327.188 388.311,337.022 380.5,347C 373.194,347.16 366.194,348.66 359.5,351.5C 353.421,339.669 346.588,328.335 339,317.5C 333.616,311.613 327.783,306.28 321.5,301.5C 326.22,298.81 330.887,296.144 335.5,293.5 Z"/></g>
<g><path style="opacity:1" fill="#226091" d="M 274.5,304.5 C 280.176,304.334 285.843,304.501 291.5,305C 284.667,317.167 277.833,329.333 271,341.5C 253.601,378.158 245.268,416.825 246,457.5C 237.652,466.014 229.152,474.348 220.5,482.5C 215.951,474.721 212.451,466.388 210,457.5C 200.729,425.258 199.063,392.592 205,359.5C 218.627,340.871 235.127,325.371 254.5,313C 261.074,309.652 267.741,306.818 274.5,304.5 Z"/></g>
<g><path style="opacity:1" fill="#226091" d="M 308.5,309.5 C 321.432,316.598 331.599,326.598 339,339.5C 342.228,344.936 344.562,350.602 346,356.5C 338.56,360.942 331.394,365.775 324.5,371C 302.243,393.752 280.91,417.252 260.5,441.5C 261.008,396.136 274.175,354.802 300,317.5C 302.729,314.601 305.562,311.934 308.5,309.5 Z"/></g>
<g><path style="opacity:1" fill="#f3f4f6" d="M 666.5,310.5 C 667.496,310.414 668.329,310.748 669,311.5C 670.436,314.143 670.602,316.81 669.5,319.5C 664.697,322.471 660.03,325.638 655.5,329C 661.19,331.591 667.19,333.257 673.5,334C 673.957,334.414 674.291,334.914 674.5,335.5C 669.675,340.157 664.675,344.657 659.5,349C 665.895,349.71 672.228,350.71 678.5,352C 679.713,354.687 680.38,357.52 680.5,360.5C 667.162,359.111 653.829,357.611 640.5,356C 640.043,355.586 639.709,355.086 639.5,354.5C 645.314,349.854 650.98,345.021 656.5,340C 649.177,337.835 641.844,335.669 634.5,333.5C 634.667,333.167 634.833,332.833 635,332.5C 645.679,325.304 656.179,317.97 666.5,310.5 Z"/></g>
<g><path style="opacity:1" fill="#f5f6f7" d="M 123.5,341.5 C 136.581,342.958 149.581,344.958 162.5,347.5C 155.018,354.072 147.351,360.405 139.5,366.5C 145.787,367.826 152.12,368.826 158.5,369.5C 157.908,372.127 157.575,374.794 157.5,377.5C 144.64,376.579 131.973,374.579 119.5,371.5C 126.662,365.175 133.995,359.008 141.5,353C 135.601,351.406 129.601,350.572 123.5,350.5C 123.5,347.5 123.5,344.5 123.5,341.5 Z"/></g>
<g><path style="opacity:1" fill="#d9dce1" d="M 524.5,359.5 C 527.79,360.789 530.123,363.123 531.5,366.5C 529.892,367.318 528.225,367.985 526.5,368.5C 525.647,365.522 524.981,362.522 524.5,359.5 Z"/></g>
<g><path style="opacity:1" fill="#eeeff1" d="M 504.5,363.5 C 508.651,365.487 511.651,368.654 513.5,373C 511,374.833 508.5,376.667 506,378.5C 505.728,373.451 505.228,368.451 504.5,363.5 Z"/></g>
<g><path style="opacity:1" fill="#75bb21" d="M 371.5,369.5 C 372.043,369.56 372.376,369.893 372.5,370.5C 370.833,376.506 369.166,382.506 367.5,388.5C 357.14,390.459 347.14,393.292 337.5,397C 348.153,386.832 359.486,377.665 371.5,369.5 Z"/></g>
<g><path style="opacity:1" fill="#f7f7f8" d="M 656.5,381.5 C 668.393,379.362 676.893,383.696 682,394.5C 683.688,412.479 675.521,420.979 657.5,420C 645.344,414.519 641.177,405.352 645,392.5C 648.07,387.927 651.904,384.261 656.5,381.5 Z"/></g>
<g><path style="opacity:1" fill="#0e2441" d="M 658.5,390.5 C 669.512,389.013 674.345,393.68 673,404.5C 670.24,410.297 665.74,412.463 659.5,411C 650.509,404.571 650.176,397.738 658.5,390.5 Z"/></g>
<g><path style="opacity:1" fill="#f3f4f5" d="M 156.5,401.5 C 156.5,404.167 156.5,406.833 156.5,409.5C 151.968,409.182 147.634,409.515 143.5,410.5C 135.167,410.5 126.833,410.5 118.5,410.5C 118.5,407.5 118.5,404.5 118.5,401.5C 131.167,401.5 143.833,401.5 156.5,401.5 Z"/></g>
<g><path style="opacity:1" fill="#8994a3" d="M 156.5,401.5 C 157.477,404.287 157.81,407.287 157.5,410.5C 152.833,410.5 148.167,410.5 143.5,410.5C 147.634,409.515 151.968,409.182 156.5,409.5C 156.5,406.833 156.5,404.167 156.5,401.5 Z"/></g>
<g><path style="opacity:1" fill="#226091" d="M 518.5,430.5 C 519.496,430.414 520.329,430.748 521,431.5C 534.332,450.492 545.332,470.825 554,492.5C 556.882,499.978 559.049,507.645 560.5,515.5C 560.333,516.833 560.167,518.167 560,519.5C 547.938,536.063 533.438,550.063 516.5,561.5C 493.508,517.596 494.174,473.929 518.5,430.5 Z"/></g>
<g><path style="opacity:1" fill="#f4f5f7" d="M 151.5,433.5 C 158.17,432.175 160.836,434.842 159.5,441.5C 154.059,442.13 148.726,443.296 143.5,445C 146.833,447 150.167,449 153.5,451C 154.574,451.739 155.241,452.739 155.5,454C 153.297,457.569 150.963,461.069 148.5,464.5C 148.833,464.833 149.167,465.167 149.5,465.5C 154.689,463.729 160.023,462.729 165.5,462.5C 165.292,464.92 165.626,467.253 166.5,469.5C 165.975,470.192 165.308,470.692 164.5,471C 152.415,473.921 140.415,476.088 128.5,477.5C 133.377,470.246 138.377,463.079 143.5,456C 135.833,451.167 128.167,446.333 120.5,441.5C 130.917,438.718 141.25,436.051 151.5,433.5 Z"/></g>
<g><path style="opacity:1" fill="#f3f5f6" d="M 640.5,440.5 C 653.244,443.353 665.911,446.519 678.5,450C 677.446,452.382 676.779,454.882 676.5,457.5C 667.512,455.506 658.512,453.506 649.5,451.5C 648.353,451.818 647.519,452.484 647,453.5C 645.842,458.118 645.008,462.784 644.5,467.5C 640.764,467.504 637.764,466.171 635.5,463.5C 637.795,455.953 639.462,448.286 640.5,440.5 Z"/></g>
<g><path style="opacity:1" fill="#f5f5f7" d="M 649.5,488.5 C 655.868,488.17 662.202,488.504 668.5,489.5C 667.305,491.751 666.305,494.085 665.5,496.5C 658.833,497.167 652.167,497.833 645.5,498.5C 649.485,502.985 653.651,507.318 658,511.5C 658.186,515.143 657.186,518.477 655,521.5C 646.03,511.53 636.697,501.863 627,492.5C 626.517,491.552 626.351,490.552 626.5,489.5C 634.352,489.825 642.018,489.492 649.5,488.5 Z"/></g>
<g><path style="opacity:1" fill="#9a9f9f" d="M 286.5,493.5 C 287.525,493.897 287.692,494.563 287,495.5C 278.333,506.833 268.333,516.833 257,525.5C 257.546,528.093 259.046,530.26 261.5,532C 240.6,535.96 219.933,534.96 199.5,529C 231.562,524.29 260.562,512.457 286.5,493.5 Z"/></g>
<g><path style="opacity:1" fill="#f5f6f7" d="M 611.5,520.5 C 622.598,527.082 633.598,533.915 644.5,541C 640.03,548.302 635.363,555.468 630.5,562.5C 627.827,561.499 625.493,559.999 623.5,558C 626.251,553.163 629.251,548.497 632.5,544C 631.183,542.341 629.517,541.174 627.5,540.5C 624.902,544.706 622.069,548.706 619,552.5C 616.361,551.432 614.195,549.766 612.5,547.5C 615.083,544.003 617.416,540.336 619.5,536.5C 618.472,534.639 616.972,533.305 615,532.5C 611.657,537.197 608.323,541.864 605,546.5C 602.589,545.376 600.422,543.876 598.5,542C 603.086,534.93 607.42,527.763 611.5,520.5 Z"/></g>
<g><path style="opacity:1" fill="#f5f5f7" d="M 584.5,561.5 C 587.167,561.5 589.833,561.5 592.5,561.5C 592.5,564.5 592.5,567.5 592.5,570.5C 586.688,569.505 582.688,571.672 580.5,577C 580.645,577.772 580.978,578.439 581.5,579C 585.807,578.86 589.807,577.526 593.5,575C 605.053,573.22 609.887,578.053 608,589.5C 604.804,596.521 599.304,600.188 591.5,600.5C 591.492,597.455 591.159,594.455 590.5,591.5C 595.14,591.519 598.473,589.519 600.5,585.5C 598.956,583.554 596.956,583.054 594.5,584C 589.641,587.401 584.308,588.734 578.5,588C 571.459,583.206 569.959,577.039 574,569.5C 576.94,565.963 580.44,563.297 584.5,561.5 Z"/></g>
</svg>
