<?xml version="1.0" encoding="UTF-8"?>
<!DOCTYPE svg PUBLIC "-//W3C//DTD SVG 1.1//EN" "http://www.w3.org/Graphics/SVG/1.1/DTD/svg11.dtd">
<svg xmlns="http://www.w3.org/2000/svg" version="1.1" width="800px" height="800px" style="shape-rendering:geometricPrecision; text-rendering:geometricPrecision; image-rendering:optimizeQuality; fill-rule:evenodd; clip-rule:evenodd" xmlns:xlink="http://www.w3.org/1999/xlink">
<g><path style="opacity:0.992" fill="#fefefe" d="M 309.5,64.5 C 369.168,64.3333 428.834,64.5 488.5,65C 520.68,71.8462 540.18,91.3462 547,123.5C 547.667,307.167 547.667,490.833 547,674.5C 541.013,704.155 523.513,723.321 494.5,732C 432.203,733.648 369.87,733.981 307.5,733C 275.465,725.631 256.298,705.798 250,673.5C 249.333,490.5 249.333,307.5 250,124.5C 256.68,91.3205 276.513,71.3205 309.5,64.5 Z"/></g>
<g><path style="opacity:1" fill="#bac6dc" d="M 314.5,84.5 C 345.669,83.1701 377.003,83.1701 408.5,84.5C 408.376,85.1067 408.043,85.44 407.5,85.5C 376.671,84.5018 345.671,84.1685 314.5,84.5 Z"/></g>
<g><path style="opacity:1" fill="#f3c9d0" d="M 483.5,84.5 C 464.992,84.1698 446.659,84.5032 428.5,85.5C 427.957,85.44 427.624,85.1067 427.5,84.5C 446.329,83.1724 464.996,83.1724 483.5,84.5 Z"/></g>
<g><path style="opacity:1" fill="#c8112e" d="M 428.5,85.5 C 446.659,84.5032 464.992,84.1698 483.5,84.5C 507.828,89.1597 523.161,103.493 529.5,127.5C 529.5,128.833 529.5,130.167 529.5,131.5C 528.833,216.833 528.167,302.167 527.5,387.5C 525.417,384.473 523.417,381.307 521.5,378C 517.27,376.897 514.27,374.397 512.5,370.5C 508.598,369.488 505.098,367.821 502,365.5C 499.756,355.222 497.756,344.889 496,334.5C 491.742,325.648 487.742,316.648 484,307.5C 482,296.833 480,286.167 478,275.5C 477.969,263.08 476.969,250.747 475,238.5C 472.397,224.458 465.564,212.958 454.5,204C 446.61,200.073 439.943,194.739 434.5,188C 429.256,185.797 424.422,182.964 420,179.5C 419.333,177.833 419.333,176.167 420,174.5C 426.86,169.296 431.86,162.629 435,154.5C 439.749,150.743 443.416,146.077 446,140.5C 446.664,137.484 446.164,134.651 444.5,132C 449.11,123.73 450.943,114.896 450,105.5C 449,103.5 448,101.5 447,99.5C 443.167,97 440,93.8333 437.5,90C 434.757,87.9617 431.757,86.4617 428.5,85.5 Z"/></g>
<g><path style="opacity:1" fill="#c50221" d="M 529.5,131.5 C 529.833,218.335 529.499,305.002 528.5,391.5C 528.167,390.167 527.833,388.833 527.5,387.5C 528.167,302.167 528.833,216.833 529.5,131.5 Z"/></g>
<g><path style="opacity:1" fill="#dd687b" d="M 529.5,127.5 C 530.666,215.999 530.832,304.666 530,393.5C 529.283,392.956 528.783,392.289 528.5,391.5C 529.499,305.002 529.833,218.335 529.5,131.5C 529.5,130.167 529.5,128.833 529.5,127.5 Z"/></g>
<g><path style="opacity:1" fill="#1f428a" d="M 314.5,84.5 C 345.671,84.1685 376.671,84.5018 407.5,85.5C 400.629,88.2011 395.462,92.8677 392,99.5C 390.023,107.03 389.19,114.697 389.5,122.5C 386.956,122.104 384.789,122.771 383,124.5C 382.333,128.833 382.333,133.167 383,137.5C 383.26,139.618 384.26,141.284 386,142.5C 386.64,150.715 385.64,158.715 383,166.5C 381.2,168.317 379.034,169.484 376.5,170C 365.046,172.501 353.379,174.167 341.5,175C 331.342,177.164 323.509,182.664 318,191.5C 307.948,205.938 300.282,221.604 295,238.5C 289.35,250.469 283.683,262.469 278,274.5C 274.588,282.568 272.088,290.902 270.5,299.5C 271.689,305.236 273.189,310.903 275,316.5C 275.465,317.931 276.299,319.097 277.5,320C 284.385,321.425 291.385,321.925 298.5,321.5C 298.663,323.857 298.497,326.19 298,328.5C 292.334,332.511 288.667,337.845 287,344.5C 281.448,363.585 282.448,382.251 290,400.5C 295.333,411.167 300.667,421.833 306,432.5C 308.007,437.02 309.507,441.687 310.5,446.5C 315.501,446.78 320.334,447.78 325,449.5C 339.103,475.385 355.436,499.719 374,522.5C 387.5,535.333 401,548.167 414.5,561C 424.56,569.114 435.06,576.614 446,583.5C 448.588,588.842 450.755,594.342 452.5,600C 450.013,604.004 449.847,608.171 452,612.5C 458.246,622.992 463.412,633.992 467.5,645.5C 464.354,650.586 465.188,654.919 470,658.5C 470.03,670.232 469.03,681.898 467,693.5C 465.644,701.529 466.644,709.195 470,716.5C 471.704,718.373 473.537,720.04 475.5,721.5C 422.003,722.499 368.336,722.832 314.5,722.5C 287.008,717.508 271.175,701.174 267,673.5C 266.333,492.167 266.333,310.833 267,129.5C 272.992,104.006 288.825,89.0055 314.5,84.5 Z"/></g>
<g><path style="opacity:1" fill="#c8112e" d="M 528.5,432.5 C 529.499,513.665 529.833,594.998 529.5,676.5C 525.609,698.887 512.942,713.72 491.5,721C 489.833,721.667 488.167,721.667 486.5,721C 494.303,715.56 497.97,708.06 497.5,698.5C 497.479,693.777 496.979,689.111 496,684.5C 493.526,677.94 491.36,671.273 489.5,664.5C 489.897,663.014 490.23,661.514 490.5,660C 482.426,641.472 481.593,622.638 488,603.5C 488.38,597.299 486.713,591.632 483,586.5C 479.837,582.844 477.171,578.844 475,574.5C 471.983,554.379 468.316,534.379 464,514.5C 456.822,501.477 450.155,488.143 444,474.5C 441.042,455.881 438.375,437.214 436,418.5C 433.921,409.188 431.421,400.022 428.5,391C 431.207,389.136 432.041,386.636 431,383.5C 426.136,365.047 420.803,346.714 415,328.5C 413.064,324.61 410.231,321.61 406.5,319.5C 406.167,318.333 405.833,317.167 405.5,316C 409.674,301.812 414.841,287.979 421,274.5C 427.519,268.995 434.685,264.662 442.5,261.5C 445.197,283.211 449.697,304.544 456,325.5C 462.576,338.151 468.742,350.984 474.5,364C 474.355,364.772 474.022,365.439 473.5,366C 451.867,373.47 440.2,388.637 438.5,411.5C 442.878,445.013 461.878,460.513 495.5,458C 510.734,454.927 521.734,446.427 528.5,432.5 Z"/></g>
<g><path style="opacity:1" fill="#d85369" d="M 529.5,676.5 C 529.833,594.998 529.499,513.665 528.5,432.5C 528.783,431.711 529.283,431.044 530,430.5C 530.832,512.668 530.666,594.668 529.5,676.5 Z"/></g>
<g><path style="opacity:1" fill="#fafbfc" d="M 330.5,661.5 C 330.838,663.854 331.338,666.187 332,668.5C 332.81,664.642 332.643,660.976 331.5,657.5C 330.168,636.197 329.501,614.864 329.5,593.5C 333.167,593.5 336.833,593.5 340.5,593.5C 340.5,625.5 340.5,657.5 340.5,689.5C 335.167,689.5 329.833,689.5 324.5,689.5C 320.816,667.435 316.816,645.435 312.5,623.5C 312.067,620.834 311.567,618.168 311,615.5C 310.188,619.689 310.355,623.689 311.5,627.5C 311.5,648.167 311.5,668.833 311.5,689.5C 307.833,689.5 304.167,689.5 300.5,689.5C 300.5,657.167 300.5,624.833 300.5,592.5C 306.5,592.5 312.5,592.5 318.5,592.5C 322.825,615.452 326.825,638.452 330.5,661.5 Z"/></g>
<g><path style="opacity:1" fill="#7a8fba" d="M 329.5,593.5 C 333.298,592.517 337.298,592.183 341.5,592.5C 341.832,625.004 341.498,657.338 340.5,689.5C 340.5,657.5 340.5,625.5 340.5,593.5C 336.833,593.5 333.167,593.5 329.5,593.5 Z"/></g>
<g><path style="opacity:1" fill="#adbad5" d="M 373.5,593.5 C 365.833,593.5 358.167,593.5 350.5,593.5C 350.5,625.167 350.5,656.833 350.5,688.5C 358.5,688.5 366.5,688.5 374.5,688.5C 366.35,689.493 358.017,689.826 349.5,689.5C 349.5,657.167 349.5,624.833 349.5,592.5C 357.684,592.174 365.684,592.508 373.5,593.5 Z"/></g>
<g><path style="opacity:1" fill="#fcfcfd" d="M 373.5,593.5 C 379.02,594.851 382.853,598.184 385,603.5C 385.667,613.833 385.667,624.167 385,634.5C 384.122,637.215 382.622,639.549 380.5,641.5C 381.803,643.968 383.303,646.301 385,648.5C 385.667,658.167 385.667,667.833 385,677.5C 383.345,682.987 379.845,686.654 374.5,688.5C 366.5,688.5 358.5,688.5 350.5,688.5C 350.5,656.833 350.5,625.167 350.5,593.5C 358.167,593.5 365.833,593.5 373.5,593.5 Z"/></g>
<g><path style="opacity:1" fill="#f7f8fb" d="M 401.5,592.5 C 407.833,592.5 414.167,592.5 420.5,592.5C 423.747,624.89 427.414,657.223 431.5,689.5C 426.833,689.5 422.167,689.5 417.5,689.5C 416.946,682.847 416.612,676.18 416.5,669.5C 412.5,669.5 408.5,669.5 404.5,669.5C 404.167,676.167 403.833,682.833 403.5,689.5C 399.167,689.5 394.833,689.5 390.5,689.5C 393.324,657.067 396.991,624.734 401.5,592.5 Z"/></g>
<g><path style="opacity:1" fill="#23448b" d="M 362.5,605.5 C 365.777,605.216 368.943,605.549 372,606.5C 372.667,616.167 372.667,625.833 372,635.5C 368.943,636.451 365.777,636.784 362.5,636.5C 362.5,626.167 362.5,615.833 362.5,605.5 Z"/></g>
<g><path style="opacity:1" fill="#6e85b4" d="M 312.5,623.5 C 311.566,624.568 311.232,625.901 311.5,627.5C 310.355,623.689 310.188,619.689 311,615.5C 311.567,618.168 312.067,620.834 312.5,623.5 Z"/></g>
<g><path style="opacity:1" fill="#27468d" d="M 409.5,604.5 C 412.462,622.235 414.129,640.235 414.5,658.5C 411.5,658.5 408.5,658.5 405.5,658.5C 406.916,640.518 408.249,622.518 409.5,604.5 Z"/></g>
<g><path style="opacity:1" fill="#5973a9" d="M 363.5,647.5 C 363.5,657.167 363.5,666.833 363.5,676.5C 365.5,676.5 367.5,676.5 369.5,676.5C 367.393,677.468 365.059,677.802 362.5,677.5C 362.173,667.319 362.506,657.319 363.5,647.5 Z"/></g>
<g><path style="opacity:1" fill="#1c4089" d="M 363.5,647.5 C 366.685,647.02 369.519,647.686 372,649.5C 372.667,658.167 372.667,666.833 372,675.5C 371.329,676.252 370.496,676.586 369.5,676.5C 367.5,676.5 365.5,676.5 363.5,676.5C 363.5,666.833 363.5,657.167 363.5,647.5 Z"/></g>
<g><path style="opacity:1" fill="#9eadcd" d="M 331.5,657.5 C 332.643,660.976 332.81,664.642 332,668.5C 331.338,666.187 330.838,663.854 330.5,661.5C 331.434,660.432 331.768,659.099 331.5,657.5 Z"/></g>
<g><path style="opacity:1" fill="#a6b5d1" d="M 475.5,721.5 C 476.043,721.56 476.376,721.893 476.5,722.5C 422.335,723.831 368.335,723.831 314.5,722.5C 368.336,722.832 422.003,722.499 475.5,721.5 Z"/></g>
</svg>
