<?xml version="1.0" encoding="UTF-8"?>
<!DOCTYPE svg PUBLIC "-//W3C//DTD SVG 1.1//EN" "http://www.w3.org/Graphics/SVG/1.1/DTD/svg11.dtd">
<svg xmlns="http://www.w3.org/2000/svg" version="1.1" width="871px" height="646px" style="shape-rendering:geometricPrecision; text-rendering:geometricPrecision; image-rendering:optimizeQuality; fill-rule:evenodd; clip-rule:evenodd" xmlns:xlink="http://www.w3.org/1999/xlink">
<g><path style="opacity:1" fill="#faf9f7" d="M 391.5,-0.5 C 406.5,-0.5 421.5,-0.5 436.5,-0.5C 437.5,0.833333 438.5,2.16667 439.5,3.5C 437.906,3.08049 436.406,2.41382 435,1.5C 433.107,2.19631 431.274,3.02964 429.5,4C 424.7,9.80172 419.533,15.3017 414,20.5C 408.826,8.79564 399.993,2.46231 387.5,1.5C 388.833,0.833333 390.167,0.166667 391.5,-0.5 Z"/></g>
<g><path style="opacity:1" fill="#fdfaed" d="M 470.5,-0.5 C 470.833,-0.5 471.167,-0.5 471.5,-0.5C 471.315,0.170143 470.981,0.170143 470.5,-0.5 Z"/></g>
<g><path style="opacity:1" fill="#f4f7f6" d="M 488.5,0.5 C 489.833,1.16667 489.833,1.16667 488.5,0.5 Z"/></g>
<g><path style="opacity:1" fill="#fdfaed" d="M 493.5,2.5 C 493.897,1.47498 494.563,1.30831 495.5,2C 494.906,2.46434 494.239,2.63101 493.5,2.5 Z"/></g>
<g><path style="opacity:1" fill="#d2c4a7" d="M 498.5,31.5 C 503.785,10.7845 495.785,1.45117 474.5,3.5C 473.167,3.5 471.833,3.5 470.5,3.5C 481.678,-0.891195 491.511,1.44214 500,10.5C 502.837,16.3542 503.17,22.3542 501,28.5C 500.623,29.9423 499.79,30.9423 498.5,31.5 Z"/></g>
<g><path style="opacity:1" fill="#b79857" d="M 498.5,31.5 C 498.5,33.5 497.5,34.5 495.5,34.5C 490.215,36.7091 484.881,36.8757 479.5,35C 476.542,32.8723 475.876,30.2056 477.5,27C 480.338,26.6305 483.171,26.7971 486,27.5C 490.357,27.3068 492.524,24.9735 492.5,20.5C 492.564,18.4434 491.898,16.7767 490.5,15.5C 488.973,15.573 487.973,14.9063 487.5,13.5C 486.653,12.0337 485.32,11.2004 483.5,11C 480.304,10.1955 477.304,10.3622 474.5,11.5C 468.011,8.93893 468.011,6.27227 474.5,3.5C 495.785,1.45117 503.785,10.7845 498.5,31.5 Z"/></g>
<g><path style="opacity:1" fill="#d2c8b2" d="M 375.5,5.5 C 373.159,8.83853 370.826,12.1719 368.5,15.5C 369.336,11.016 371.669,7.68263 375.5,5.5 Z"/></g>
<g><path style="opacity:1" fill="#fefff4" d="M 478.5,14.5 C 479.833,15.1667 479.833,15.1667 478.5,14.5 Z"/></g>
<g><path style="opacity:1" fill="#daceb5" d="M 487.5,13.5 C 484.572,13.1484 481.738,12.4817 479,11.5C 475.038,13.2247 471.538,15.558 468.5,18.5C 468.539,17.4168 468.873,16.4168 469.5,15.5C 471.419,14.3875 473.086,13.0542 474.5,11.5C 477.304,10.3622 480.304,10.1955 483.5,11C 485.32,11.2004 486.653,12.0337 487.5,13.5 Z"/></g>
<g><path style="opacity:1" fill="#f8f7f1" d="M 468.5,22.5 C 469.833,23.1667 469.833,23.1667 468.5,22.5 Z"/></g>
<g><path style="opacity:1" fill="#f8fbfb" d="M 487.5,24.5 C 487.369,23.7611 487.536,23.0944 488,22.5C 488.692,23.4368 488.525,24.1034 487.5,24.5 Z"/></g>
<g><path style="opacity:1" fill="#d6cdb9" d="M 368.5,16.5 C 368.309,23.2596 370.309,29.2596 374.5,34.5C 369.731,31.469 367.398,26.969 367.5,21C 367.508,19.2933 367.842,17.7933 368.5,16.5 Z"/></g>
<g><path style="opacity:1" fill="#fdfaed" d="M 502.5,29.5 C 503.525,29.8966 503.692,30.5632 503,31.5C 502.536,30.9056 502.369,30.2389 502.5,29.5 Z"/></g>
<g><path style="opacity:1" fill="#f8fef3" d="M 367.5,30.5 C 368.833,31.1667 368.833,31.1667 367.5,30.5 Z"/></g>
<g><path style="opacity:1" fill="#f8f7f1" d="M 469.5,31.5 C 470.833,32.1667 470.833,32.1667 469.5,31.5 Z"/></g>
<g><path style="opacity:1" fill="#cebfa0" d="M 490.5,15.5 C 491.898,16.7767 492.564,18.4434 492.5,20.5C 492.524,24.9735 490.357,27.3068 486,27.5C 483.171,26.7971 480.338,26.6305 477.5,27C 475.876,30.2056 476.542,32.8723 479.5,35C 484.881,36.8757 490.215,36.7091 495.5,34.5C 493.089,36.8597 490.089,37.8597 486.5,37.5C 479.393,38.4216 474.726,35.5883 472.5,29C 475.633,23.9452 479.799,23.1119 485,26.5C 486.011,25.9444 486.844,25.2778 487.5,24.5C 487.56,25.0431 487.893,25.3764 488.5,25.5C 491.472,22.5936 492.139,19.2603 490.5,15.5 Z"/></g>
<g><path style="opacity:1" fill="#cfc09f" d="M 359.5,39.5 C 346.422,35.5653 333.088,34.5653 319.5,36.5C 319.918,35.7784 320.584,35.2784 321.5,35C 334.08,32.7802 346.413,33.7802 358.5,38C 359.056,38.3826 359.389,38.8826 359.5,39.5 Z"/></g>
<g><path style="opacity:1" fill="#cebfa0" d="M 551.5,36.5 C 542.191,35.683 532.857,35.3496 523.5,35.5C 532.913,32.8774 542.246,33.2107 551.5,36.5 Z"/></g>
<g><path style="opacity:1" fill="#c7b692" d="M 395.5,27.5 C 396.754,29.3569 396.754,31.3569 395.5,33.5C 390.389,37.1486 384.722,38.3153 378.5,37C 376.68,36.7996 375.347,35.9663 374.5,34.5C 379.448,35.5591 384.448,35.7258 389.5,35C 389.167,34.6667 388.833,34.3333 388.5,34C 389.667,32.5 390.833,31 392,29.5C 394.552,32.1941 395.719,31.5274 395.5,27.5 Z"/></g>
<g><path style="opacity:1" fill="#ebf7fe" d="M 295.5,39.5 C 296.833,40.1667 296.833,40.1667 295.5,39.5 Z"/></g>
<g><path style="opacity:1" fill="#effefe" d="M 304.5,40.5 C 303.833,39.1667 303.833,39.1667 304.5,40.5 Z"/></g>
<g><path style="opacity:1" fill="#effefe" d="M 470.5,39.5 C 471.833,40.1667 471.833,40.1667 470.5,39.5 Z"/></g>
<g><path style="opacity:1" fill="#effefe" d="M 566.5,39.5 C 567.833,40.1667 567.833,40.1667 566.5,39.5 Z"/></g>
<g><path style="opacity:1" fill="#baa26d" d="M 470.5,3.5 C 471.833,3.5 473.167,3.5 474.5,3.5C 468.011,6.27227 468.011,8.93893 474.5,11.5C 473.086,13.0542 471.419,14.3875 469.5,15.5C 468.873,16.4168 468.539,17.4168 468.5,18.5C 465.502,24.3095 465.002,30.3095 467,36.5C 467.949,38.0931 469.115,39.4264 470.5,40.5C 474.138,43.6774 478.472,45.5108 483.5,46C 488.603,46.5706 493.603,46.0706 498.5,44.5C 495.32,46.8673 491.653,47.8673 487.5,47.5C 479.81,47.1299 472.477,45.9632 465.5,44C 466.833,45.3333 466.833,46.6667 465.5,48C 467.402,49.3938 467.735,51.2271 466.5,53.5C 465.833,53.1667 465.167,52.8333 464.5,52.5C 461.482,49.6627 458.149,47.3294 454.5,45.5C 456.262,45.3573 457.929,45.6906 459.5,46.5C 462.226,43.9952 464.226,40.9952 465.5,37.5C 464.855,31.3252 464.189,25.1586 463.5,19C 464.167,17.6667 464.833,16.3333 465.5,15C 464.991,13.8315 464.158,12.9981 463,12.5C 461.25,14.424 459.417,16.0907 457.5,17.5C 459.567,10.68 463.9,6.01333 470.5,3.5 Z"/></g>
<g><path style="opacity:1" fill="#fdfaed" d="M 499.5,40.5 C 500.833,41.1667 500.833,41.1667 499.5,40.5 Z"/></g>
<g><path style="opacity:1" fill="#fdfaed" d="M 295.5,41.5 C 296.833,42.1667 296.833,42.1667 295.5,41.5 Z"/></g>
<g><path style="opacity:1" fill="#f8f7f1" d="M 570.5,41.5 C 571.833,42.1667 571.833,42.1667 570.5,41.5 Z"/></g>
<g><path style="opacity:1" fill="#effefe" d="M 478.5,42.5 C 479.833,43.1667 479.833,43.1667 478.5,42.5 Z"/></g>
<g><path style="opacity:1" fill="#fdfaed" d="M 486.5,42.5 C 487.833,43.1667 487.833,43.1667 486.5,42.5 Z"/></g>
<g><path style="opacity:1" fill="#dcd3bf" d="M 560.5,39.5 C 565.783,41.1398 570.449,43.8065 574.5,47.5C 569.52,45.3446 564.854,42.6779 560.5,39.5 Z"/></g>
<g><path style="opacity:1" fill="#b49758" d="M 523.5,35.5 C 532.857,35.3496 542.191,35.683 551.5,36.5C 554.879,36.5152 557.879,37.5152 560.5,39.5C 564.854,42.6779 569.52,45.3446 574.5,47.5C 579.32,51.0862 583.987,54.9195 588.5,59C 595.724,60.0867 602.724,61.5867 609.5,63.5C 621.865,67.0104 634.531,69.6771 647.5,71.5C 658.628,72.8989 669.295,75.5656 679.5,79.5C 695.047,84.6705 711.047,89.3371 727.5,93.5C 727.987,94.4734 728.487,95.4734 729,96.5C 730.494,95.2528 731.994,95.2528 733.5,96.5C 732.975,97.1924 732.308,97.6924 731.5,98C 734.989,100.719 738.822,101.219 743,99.5C 747.891,100.7 752.725,102.033 757.5,103.5C 758.167,103.5 758.833,103.5 759.5,103.5C 762.577,105.308 765.743,107.308 769,109.5C 774.908,110.937 780.741,112.271 786.5,113.5C 790.224,116.639 794.557,118.639 799.5,119.5C 804.117,122.266 809.117,124.266 814.5,125.5C 814.833,125.5 815.167,125.5 815.5,125.5C 817.814,129.692 821.48,131.692 826.5,131.5C 835.365,136.204 843.198,142.204 850,149.5C 854.423,155.738 858.589,162.072 862.5,168.5C 864.122,173.415 865.456,178.415 866.5,183.5C 867.404,204.817 867.738,226.151 867.5,247.5C 867.167,247.5 866.833,247.5 866.5,247.5C 866.565,247.062 866.399,246.728 866,246.5C 865.833,247.167 865.667,247.833 865.5,248.5C 868.912,259.906 870.245,271.573 869.5,283.5C 869.898,295.639 868.898,307.639 866.5,319.5C 864.348,330.143 859.348,339.143 851.5,346.5C 846.919,349.402 842.586,352.736 838.5,356.5C 836.5,357.833 834.5,357.833 832.5,356.5C 832.06,357.698 831.727,358.865 831.5,360C 830.056,360.781 828.723,360.614 827.5,359.5C 828.921,356.572 827.921,355.238 824.5,355.5C 824.834,361.482 822.167,365.149 816.5,366.5C 816.351,367.552 816.517,368.552 817,369.5C 817.71,368.027 818.876,367.36 820.5,367.5C 820.043,370.406 819.043,373.072 817.5,375.5C 814.835,379.161 811.502,382.161 807.5,384.5C 801.323,387.95 794.99,391.117 788.5,394C 787.464,395.776 787.464,397.609 788.5,399.5C 787.18,400.942 785.514,401.608 783.5,401.5C 783.5,402.5 783.5,403.5 783.5,404.5C 782.5,404.5 781.5,404.5 780.5,404.5C 780.895,407.523 779.895,408.523 777.5,407.5C 776.217,404.628 776.217,401.795 777.5,399C 776.956,398.283 776.289,397.783 775.5,397.5C 770.201,395.231 764.868,392.898 759.5,390.5C 771.153,390.553 782.153,388.053 792.5,383C 799.251,379.246 805.085,374.413 810,368.5C 810.483,367.552 810.649,366.552 810.5,365.5C 805.516,364.016 800.849,361.849 796.5,359C 828.909,357.255 849.409,340.755 858,309.5C 858.667,292.833 858.667,276.167 858,259.5C 855.244,248.227 850.744,237.727 844.5,228C 844.667,227.5 844.833,227 845,226.5C 848.168,228.722 851.668,230.056 855.5,230.5C 855.56,231.043 855.893,231.376 856.5,231.5C 857.825,218.006 857.825,204.673 856.5,191.5C 853.512,173.53 844.845,158.863 830.5,147.5C 820.855,141.342 810.855,135.842 800.5,131C 707.704,93.5218 611.37,70.1884 511.5,61C 497.187,59.8958 482.854,59.3958 468.5,59.5C 468.396,57.2972 467.73,55.2972 466.5,53.5C 467.735,51.2271 467.402,49.3938 465.5,48C 466.833,46.6667 466.833,45.3333 465.5,44C 472.477,45.9632 479.81,47.1299 487.5,47.5C 491.653,47.8673 495.32,46.8673 498.5,44.5C 506.031,39.5811 514.365,36.5811 523.5,35.5 Z"/></g>
<g><path style="opacity:1" fill="#fefff4" d="M 582.5,47.5 C 583.833,48.1667 583.833,48.1667 582.5,47.5 Z"/></g>
<g><path style="opacity:1" fill="#eef1ef" d="M 288.5,48.5 C 289.833,49.1667 289.833,49.1667 288.5,48.5 Z"/></g>
<g><path style="opacity:1" fill="#f8f7f1" d="M 288.5,49.5 C 287.833,50.1667 287.833,50.1667 288.5,49.5 Z"/></g>
<g><path style="opacity:1" fill="#0f2e62" d="M 525.5,44.5 C 540.823,42.9974 554.823,46.4974 567.5,55C 550.198,53.5051 532.865,52.0051 515.5,50.5C 514.167,50.1667 512.833,49.8333 511.5,49.5C 516.387,48.1227 521.053,46.4561 525.5,44.5 Z"/></g>
<g><path style="opacity:1" fill="#fdfaed" d="M 279.5,55.5 C 280.833,56.1667 280.833,56.1667 279.5,55.5 Z"/></g>
<g><path style="opacity:1" fill="#fdfaed" d="M 590.5,55.5 C 591.833,56.1667 591.833,56.1667 590.5,55.5 Z"/></g>
<g><path style="opacity:1" fill="#f8fef3" d="M 592.5,55.5 C 593.833,56.1667 593.833,56.1667 592.5,55.5 Z"/></g>
<g><path style="opacity:1" fill="#fefff4" d="M 631.5,63.5 C 632.833,64.1667 632.833,64.1667 631.5,63.5 Z"/></g>
<g><path style="opacity:1" fill="#f4fafd" d="M 240.5,66.5 C 239.833,65.1667 239.833,65.1667 240.5,66.5 Z"/></g>
<g><path style="opacity:1" fill="#d1c5ab" d="M 609.5,63.5 C 622.523,65.0367 635.189,67.7033 647.5,71.5C 634.531,69.6771 621.865,67.0104 609.5,63.5 Z"/></g>
<g><path style="opacity:1" fill="#cfc3a8" d="M 261.5,63.5 C 249.172,67.0059 236.505,69.6726 223.5,71.5C 229.126,69.677 234.793,68.0103 240.5,66.5C 247.165,65.2292 254.165,64.2292 261.5,63.5 Z"/></g>
<g><path style="opacity:1" fill="#b59859" d="M 387.5,1.5 C 399.993,2.46231 408.826,8.79564 414,20.5C 419.533,15.3017 424.7,9.80172 429.5,4C 431.274,3.02964 433.107,2.19631 435,1.5C 436.406,2.41382 437.906,3.08049 439.5,3.5C 445.133,8.96724 450.633,14.6339 456,20.5C 456.232,19.2625 456.732,18.2625 457.5,17.5C 459.417,16.0907 461.25,14.424 463,12.5C 464.158,12.9981 464.991,13.8315 465.5,15C 464.833,16.3333 464.167,17.6667 463.5,19C 464.189,25.1586 464.855,31.3252 465.5,37.5C 464.226,40.9952 462.226,43.9952 459.5,46.5C 457.929,45.6906 456.262,45.3573 454.5,45.5C 451.775,33.0512 445.275,23.0512 435,15.5C 424.169,23.1538 417.336,33.4871 414.5,46.5C 408.093,48.742 403.426,52.9087 400.5,59C 281.369,63.6212 167.369,89.6212 58.5,137C 57.5939,138.699 57.2606,140.533 57.5,142.5C 52.4012,142.175 47.4012,142.675 42.5,144C 31.831,148.751 21.331,153.918 11,159.5C 10.3333,167.5 10.3333,175.5 11,183.5C 11.6072,187.381 13.2738,190.714 16,193.5C 16.6667,206.167 16.6667,218.833 16,231.5C 11.7841,237.881 10.4508,244.881 12,252.5C 12.9009,255.071 14.2342,257.404 16,259.5C 16.3333,281.167 16.6667,302.833 17,324.5C 18.3961,327.064 19.5627,329.731 20.5,332.5C 19.51,336.149 17.6766,336.482 15,333.5C 14.6667,334.5 14.3333,335.5 14,336.5C 12.9887,335.663 11.8221,335.33 10.5,335.5C 9.62048,332.738 8.45382,330.071 7,327.5C 6.83194,305.996 6.33194,284.663 5.5,263.5C 0.898894,253.147 0.232228,242.48 3.5,231.5C 4.96626,230.653 5.79959,229.32 6,227.5C 6.66667,217.5 6.66667,207.5 6,197.5C 4.47285,195.779 3.47285,193.779 3,191.5C 0.765344,178.621 -0.067989,165.621 0.5,152.5C 21.4456,141.438 42.6123,131.438 64,122.5C 66.6897,121.071 69.5231,120.071 72.5,119.5C 77.883,118.266 82.883,116.266 87.5,113.5C 111.714,102.872 136.714,94.2052 162.5,87.5C 172.479,85.591 182.146,82.9244 191.5,79.5C 201.827,75.9183 212.494,73.2516 223.5,71.5C 236.505,69.6726 249.172,67.0059 261.5,63.5C 267.964,61.693 274.631,60.193 281.5,59C 288.463,51.8609 296.13,45.6942 304.5,40.5C 309.266,38.3568 314.266,37.0235 319.5,36.5C 333.088,34.5653 346.422,35.5653 359.5,39.5C 366.163,43.8235 373.496,46.4902 381.5,47.5C 383.369,47.4932 385.036,47.1599 386.5,46.5C 402.63,45.6099 408.463,37.2765 404,21.5C 403.051,19.9069 401.885,18.5736 400.5,17.5C 399.662,17.1583 399.328,16.4916 399.5,15.5C 392.833,8.83333 386.167,8.83333 379.5,15.5C 378.883,15.6107 378.383,15.944 378,16.5C 376.545,26.7085 380.545,29.7085 390,25.5C 391.9,26.0769 393.733,26.7435 395.5,27.5C 395.719,31.5274 394.552,32.1941 392,29.5C 390.833,31 389.667,32.5 388.5,34C 388.833,34.3333 389.167,34.6667 389.5,35C 384.448,35.7258 379.448,35.5591 374.5,34.5C 370.309,29.2596 368.309,23.2596 368.5,16.5C 368.5,16.1667 368.5,15.8333 368.5,15.5C 370.826,12.1719 373.159,8.83853 375.5,5.5C 378.956,2.79248 382.956,1.45914 387.5,1.5 Z"/></g>
<g><path style="opacity:1" fill="#0e2e62" d="M 325.5,44.5 C 336.375,43.3364 346.708,45.0031 356.5,49.5C 338.096,51.7594 319.763,53.926 301.5,56C 303.657,54.0879 305.991,52.4213 308.5,51C 314.127,48.5206 319.794,46.3539 325.5,44.5 Z"/></g>
<g><path style="opacity:1" fill="#d4c9b1" d="M 359.5,39.5 C 364.67,40.7464 369.67,42.5797 374.5,45C 378.418,46.1564 382.418,46.6564 386.5,46.5C 385.036,47.1599 383.369,47.4932 381.5,47.5C 373.496,46.4902 366.163,43.8235 359.5,39.5 Z"/></g>
<g><path style="opacity:1" fill="#f8fef3" d="M 381.5,43.5 C 381.897,42.475 382.563,42.3083 383.5,43C 382.906,43.4643 382.239,43.631 381.5,43.5 Z"/></g>
<g><path style="opacity:1" fill="#f8f7f1" d="M 395.5,40.5 C 396.833,41.1667 396.833,41.1667 395.5,40.5 Z"/></g>
<g><path style="opacity:1" fill="#effefe" d="M 366.5,39.5 C 367.833,40.1667 367.833,40.1667 366.5,39.5 Z"/></g>
<g><path style="opacity:1" fill="#cfc1a2" d="M 400.5,17.5 C 401.885,18.5736 403.051,19.9069 404,21.5C 408.463,37.2765 402.63,45.6099 386.5,46.5C 403.012,43.1385 407.679,33.4718 400.5,17.5 Z"/></g>
<g><path style="opacity:1" fill="#d6cbb2" d="M 379.5,15.5 C 377.517,25.6746 381.351,28.6746 391,24.5C 393.626,24.0503 395.126,25.0503 395.5,27.5C 393.733,26.7435 391.9,26.0769 390,25.5C 380.545,29.7085 376.545,26.7085 378,16.5C 378.383,15.944 378.883,15.6107 379.5,15.5 Z"/></g>
<g><path style="opacity:1" fill="#d8ccb3" d="M 399.5,15.5 C 396.561,14.3946 393.727,13.0613 391,11.5C 386.966,12.3444 383.132,13.6777 379.5,15.5C 386.167,8.83333 392.833,8.83333 399.5,15.5 Z"/></g>
<g><path style="opacity:1" fill="#fdfaed" d="M 390.5,14.5 C 391.833,15.1667 391.833,15.1667 390.5,14.5 Z"/></g>
<g><path style="opacity:1" fill="#04295d" d="M 454.5,45.5 C 458.149,47.3294 461.482,49.6627 464.5,52.5C 464.279,53.7348 463.612,54.7348 462.5,55.5C 463.817,55.3131 465.15,55.9798 466.5,57.5C 467.23,59.3413 467.897,61.1746 468.5,63C 468.167,63.1667 467.833,63.3333 467.5,63.5C 466.833,62.1667 466.167,60.8333 465.5,59.5C 464.573,61.1128 463.739,62.7795 463,64.5C 462.346,63.3044 461.846,63.3044 461.5,64.5C 462.167,65.1667 462.833,65.8333 463.5,66.5C 463.154,67.6956 462.654,67.6956 462,66.5C 461.598,67.8721 461.098,69.2054 460.5,70.5C 462.631,70.3378 463.631,71.6711 463.5,74.5C 464.791,74.2627 465.791,74.596 466.5,75.5C 463.783,79.2039 461.116,82.8706 458.5,86.5C 496.776,86.7675 534.776,90.1008 572.5,96.5C 575.496,97.6776 578.496,99.0109 581.5,100.5C 577.656,101.982 573.656,102.815 569.5,103C 574.143,103.83 578.81,104.497 583.5,105C 584.253,106.487 585.086,106.654 586,105.5C 587.701,107.024 587.201,108.024 584.5,108.5C 583.051,107.383 581.384,106.716 579.5,106.5C 572.844,107.503 566.177,107.503 559.5,106.5C 558.252,107.334 557.585,108.667 557.5,110.5C 557.511,112.045 557.844,113.378 558.5,114.5C 558.494,117.825 559.994,120.159 563,121.5C 563.5,135.496 563.667,149.496 563.5,163.5C 562.041,163.433 560.708,163.766 559.5,164.5C 557.763,167.008 556.93,170.008 557,173.5C 556.333,171.5 555.667,169.5 555,167.5C 554.818,170.226 554.318,172.893 553.5,175.5C 552.702,173.922 552.202,172.256 552,170.5C 551.015,173.96 550.848,177.294 551.5,180.5C 546.124,180.735 540.791,180.402 535.5,179.5C 533.971,179.529 532.804,180.196 532,181.5C 530.955,190.128 530.122,198.795 529.5,207.5C 528.668,199.521 528.168,191.521 528,183.5C 527.168,192.186 527.335,200.853 528.5,209.5C 529.748,208.96 530.915,208.293 532,207.5C 532.498,210.482 532.665,213.482 532.5,216.5C 530.833,216.5 529.167,216.5 527.5,216.5C 523.233,216.797 519.066,216.464 515,215.5C 514.167,182.162 514.333,148.828 515.5,115.5C 519.956,112.34 521.622,108.006 520.5,102.5C 510.5,101.833 500.5,101.167 490.5,100.5C 489.481,106.614 491.314,111.614 496,115.5C 496.833,129.179 496.666,142.846 495.5,156.5C 488.928,160.64 488.928,164.973 495.5,169.5C 496.5,189.489 496.833,209.489 496.5,229.5C 512.383,229.949 528.049,231.283 543.5,233.5C 533.004,233.43 533.004,234.264 543.5,236C 534.236,236.515 534.236,237.348 543.5,238.5C 543,238.833 542.5,239.167 542,239.5C 537.461,238.421 532.627,237.754 527.5,237.5C 527.657,238.873 527.49,240.207 527,241.5C 526.667,240.833 526.333,240.167 526,239.5C 522.697,240.184 519.864,241.684 517.5,244C 519.346,245.03 521.013,246.196 522.5,247.5C 513.868,246.422 505.202,246.256 496.5,247C 495.584,247.374 494.75,247.874 494,248.5C 494.736,254.632 497.403,259.966 502,264.5C 529.781,309.527 524.281,349.861 485.5,385.5C 483.833,385.5 482.167,385.5 480.5,385.5C 481.519,391.144 479.186,394.144 473.5,394.5C 469.989,392.244 466.322,390.244 462.5,388.5C 460.189,396.37 458.522,404.37 457.5,412.5C 452.335,433.135 448.335,454.135 445.5,475.5C 446.041,482.584 447.041,489.584 448.5,496.5C 451.19,497.602 453.857,497.436 456.5,496C 457.128,493.061 457.795,490.228 458.5,487.5C 458.833,490.833 459.167,494.167 459.5,497.5C 457.712,497.215 456.045,497.548 454.5,498.5C 454.667,498.833 454.833,499.167 455,499.5C 458.409,499.415 461.909,499.748 465.5,500.5C 463.943,504.155 464.443,507.488 467,510.5C 467.758,508.231 467.591,506.064 466.5,504C 467.448,503.517 468.448,503.351 469.5,503.5C 469.082,509.406 471.416,513.906 476.5,517C 477.577,517.47 478.577,517.303 479.5,516.5C 478.203,518.772 476.203,519.605 473.5,519C 473.833,518.667 474.167,518.333 474.5,518C 473.552,517.517 472.552,517.351 471.5,517.5C 471.52,519.143 470.853,520.476 469.5,521.5C 471.05,525.172 470.55,525.839 468,523.5C 467.617,524.056 467.117,524.389 466.5,524.5C 462.899,519.737 460.232,514.403 458.5,508.5C 458,508.167 457.5,507.833 457,507.5C 452.957,508.958 448.791,509.625 444.5,509.5C 444.771,511.38 444.104,512.713 442.5,513.5C 441.527,513.013 440.527,512.513 439.5,512C 440.517,510.951 440.684,509.784 440,508.5C 439.138,510.087 438.471,511.754 438,513.5C 437.329,514.252 436.496,514.586 435.5,514.5C 437.155,509.692 439.488,505.192 442.5,501C 439.102,488.069 437.768,474.902 438.5,461.5C 439.479,425.58 441.813,389.746 445.5,354C 445.323,346.85 444.156,346.683 442,353.5C 441.828,348.798 441.328,344.132 440.5,339.5C 436.622,334.233 432.789,334.233 429,339.5C 428.667,344.5 428.333,349.5 428,354.5C 424.96,346.682 423.793,347.348 424.5,356.5C 422.562,355.539 421.062,356.205 420,358.5C 419.578,356.574 418.411,355.574 416.5,355.5C 414.743,351.55 411.91,349.883 408,350.5C 407.833,351.333 407.667,352.167 407.5,353C 410.742,368.465 413.742,383.965 416.5,399.5C 415.732,400.263 415.232,401.263 415,402.5C 414.751,401.376 414.251,400.376 413.5,399.5C 412.83,401.291 412.163,402.958 411.5,404.5C 410.326,399.146 408.826,393.813 407,388.5C 403.045,389.977 399.378,391.977 396,394.5C 389.882,403.638 387.549,413.638 389,424.5C 389.232,425.737 389.732,426.737 390.5,427.5C 391.013,431.553 391.846,435.553 393,439.5C 397.325,449.132 401.659,458.799 406,468.5C 408.221,473.993 409.721,479.66 410.5,485.5C 409.03,489.099 407.03,492.432 404.5,495.5C 403.784,494.689 402.95,494.022 402,493.5C 400.12,494.902 398.453,496.569 397,498.5C 395.56,499.148 394.06,499.481 392.5,499.5C 384.931,494.934 377.931,489.601 371.5,483.5C 368.675,479.863 365.842,476.197 363,472.5C 362.82,474.488 362.986,476.488 363.5,478.5C 363.997,482.162 362.831,485.162 360,487.5C 359.808,485.423 359.308,483.423 358.5,481.5C 357.808,482.025 357.308,482.692 357,483.5C 356.577,482.044 355.744,481.544 354.5,482C 355.071,483.205 355.738,484.372 356.5,485.5C 357.396,484.494 358.062,484.494 358.5,485.5C 357.359,486.425 357.359,487.259 358.5,488C 357.364,489.145 356.364,490.312 355.5,491.5C 353.115,488.347 351.782,484.68 351.5,480.5C 328.996,489.253 305.663,492.42 281.5,490C 270.556,489.066 259.89,487.066 249.5,484C 253.548,480.284 257.882,476.95 262.5,474C 246.105,475.264 229.939,473.764 214,469.5C 213.5,469.833 213,470.167 212.5,470.5C 216.255,479.008 220.255,487.341 224.5,495.5C 224.343,496.873 224.51,498.207 225,499.5C 227.339,501.14 228.172,503.14 227.5,505.5C 226.757,504.092 225.923,502.759 225,501.5C 224.107,504.916 224.607,508.083 226.5,511C 225.551,511.617 224.718,511.451 224,510.5C 222.59,514.685 221.09,515.018 219.5,511.5C 218.295,512.577 217.628,513.91 217.5,515.5C 211.131,505.928 205.298,495.928 200,485.5C 195.379,474.69 191.212,463.69 187.5,452.5C 178.362,450.906 169.362,448.739 160.5,446C 152.475,442.166 145.141,437.332 138.5,431.5C 143.128,429.519 147.461,427.019 151.5,424C 132.821,423.981 116.154,418.315 101.5,407C 98.6,404.603 96.2667,401.77 94.5,398.5C 100.123,395.571 105.79,392.737 111.5,390C 89.5326,391.459 71.8659,383.626 58.5,366.5C 63.0302,363.735 67.6969,361.235 72.5,359C 69.5184,358.502 66.5184,358.335 63.5,358.5C 61.1617,356.96 58.4951,356.294 55.5,356.5C 49.5618,355.021 43.8951,352.854 38.5,350C 31.9695,344.635 25.9695,338.802 20.5,332.5C 19.5627,329.731 18.3961,327.064 17,324.5C 16.6667,302.833 16.3333,281.167 16,259.5C 14.2342,257.404 12.9009,255.071 12,252.5C 10.4508,244.881 11.7841,237.881 16,231.5C 16.6667,218.833 16.6667,206.167 16,193.5C 13.2738,190.714 11.6072,187.381 11,183.5C 10.3333,175.5 10.3333,167.5 11,159.5C 21.331,153.918 31.831,148.751 42.5,144C 47.4012,142.675 52.4012,142.175 57.5,142.5C 57.2606,140.533 57.5939,138.699 58.5,137C 167.369,89.6212 281.369,63.6212 400.5,59C 403.426,52.9087 408.093,48.742 414.5,46.5C 417.336,33.4871 424.169,23.1538 435,15.5C 445.275,23.0512 451.775,33.0512 454.5,45.5 Z"/></g>
<g><path style="opacity:1" fill="#e31233" d="M 434.5,31.5 C 438.874,35.9381 441.54,41.2714 442.5,47.5C 441.789,54.4682 439.955,61.1349 437,67.5C 436.503,69.8098 436.337,72.1432 436.5,74.5C 437.5,74.5 438.5,74.5 439.5,74.5C 439.408,69.4399 440.742,64.7732 443.5,60.5C 448.238,56.4659 452.738,56.7992 457,61.5C 459.174,66.8274 457.674,70.8274 452.5,73.5C 451.734,68.8495 449.068,67.3495 444.5,69C 443.594,70.6995 443.261,72.5328 443.5,74.5C 444.5,74.5 445.5,74.5 446.5,74.5C 446.5,76.1667 446.5,77.8333 446.5,79.5C 443.428,79.1826 440.428,79.5159 437.5,80.5C 438.709,82.4145 440.042,84.2478 441.5,86C 438.54,88.1861 436.373,91.0195 435,94.5C 433.473,92.779 432.473,90.779 432,88.5C 430.513,87.8448 429.347,86.8448 428.5,85.5C 430.027,83.8067 431.36,81.9734 432.5,80C 429.183,79.5017 425.85,79.335 422.5,79.5C 422.5,77.8333 422.5,76.1667 422.5,74.5C 423.833,74.5 425.167,74.5 426.5,74.5C 426.548,69.1193 424.048,67.4526 419,69.5C 418.51,70.7932 418.343,72.1266 418.5,73.5C 411.906,71.3546 410.073,67.0213 413,60.5C 417.943,56.3973 422.609,56.7306 427,61.5C 428.863,65.649 430.03,69.9823 430.5,74.5C 431.5,74.5 432.5,74.5 433.5,74.5C 432.987,67.793 431.154,61.4597 428,55.5C 427.333,50.8333 427.333,46.1667 428,41.5C 429.996,38.0142 432.163,34.6809 434.5,31.5 Z"/></g>
<g><path style="opacity:1" fill="#f8fef3" d="M 677.5,72.5 C 677.897,71.475 678.563,71.3083 679.5,72C 678.906,72.4643 678.239,72.631 677.5,72.5 Z"/></g>
<g><path style="opacity:1" fill="#f7f9fa" d="M 386.5,73.5 C 391.511,73.3341 396.511,73.5007 401.5,74C 403.642,77.9752 406.642,81.1419 410.5,83.5C 411.386,84.325 411.719,85.325 411.5,86.5C 305.387,89.073 202.72,109.073 103.5,146.5C 102.866,137.613 106.866,131.78 115.5,129C 203.255,97.7491 293.589,79.2491 386.5,73.5 Z"/></g>
<g><path style="opacity:1" fill="#f7f9fa" d="M 572.5,96.5 C 534.776,90.1008 496.776,86.7675 458.5,86.5C 461.116,82.8706 463.783,79.2039 466.5,75.5C 469.062,74.2781 471.895,73.6115 475,73.5C 573.386,79.177 668.886,98.677 761.5,132C 766.964,133.814 771.464,136.98 775,141.5C 775.498,144.482 775.665,147.482 775.5,150.5C 709.774,125.484 642.108,107.484 572.5,96.5 Z"/></g>
<g><path style="opacity:1" fill="#f8f7f1" d="M 168.5,82.5 C 169.833,83.1667 169.833,83.1667 168.5,82.5 Z"/></g>
<g><path style="opacity:1" fill="#d5c8ae" d="M 679.5,79.5 C 696.068,82.6373 712.068,87.3039 727.5,93.5C 711.047,89.3371 695.047,84.6705 679.5,79.5 Z"/></g>
<g><path style="opacity:1" fill="#fbfef4" d="M 159.5,84.5 C 160.525,84.8966 160.692,85.5632 160,86.5C 159.536,85.9056 159.369,85.2389 159.5,84.5 Z"/></g>
<g><path style="opacity:1" fill="#cdc0a3" d="M 191.5,79.5 C 182.146,82.9244 172.479,85.591 162.5,87.5C 170.041,85.069 177.541,82.4024 185,79.5C 187.027,79.9863 189.193,79.9863 191.5,79.5 Z"/></g>
<g><path style="opacity:1" fill="#f8fef3" d="M 118.5,97.5 C 119.833,98.1667 119.833,98.1667 118.5,97.5 Z"/></g>
<g><path style="opacity:1" fill="#a7bbcd" d="M 455.5,99.5 C 442.167,99.5 428.833,99.5 415.5,99.5C 415.5,102.167 415.5,104.833 415.5,107.5C 414.523,104.713 414.19,101.713 414.5,98.5C 428.344,98.171 442.01,98.5043 455.5,99.5 Z"/></g>
<g><path style="opacity:1" fill="#c8b185" d="M 727.5,93.5 C 736.849,95.4632 746.016,98.1298 755,101.5C 756.376,101.684 757.209,102.351 757.5,103.5C 752.725,102.033 747.891,100.7 743,99.5C 738.822,101.219 734.989,100.719 731.5,98C 732.308,97.6924 732.975,97.1924 733.5,96.5C 731.994,95.2528 730.494,95.2528 729,96.5C 728.487,95.4734 727.987,94.4734 727.5,93.5 Z"/></g>
<g><path style="opacity:1" fill="#fafbfb" d="M 455.5,99.5 C 468.051,100.546 475.884,107.213 479,119.5C 479.667,128.833 479.667,138.167 479,147.5C 477.574,152.758 474.741,157.092 470.5,160.5C 472.149,162.65 473.982,164.65 476,166.5C 477.197,169.089 478.197,171.756 479,174.5C 479.333,187.5 479.667,200.5 480,213.5C 481.955,214.453 483.622,215.787 485,217.5C 485.498,220.817 485.665,224.15 485.5,227.5C 479.491,227.666 473.491,227.499 467.5,227C 465,225.833 463.167,224 462,221.5C 461.956,205.1 461.289,188.767 460,172.5C 456.425,169.034 452.092,167.7 447,168.5C 443.748,168.519 440.915,169.186 438.5,170.5C 437.503,188.993 437.17,207.659 437.5,226.5C 431.833,226.5 426.167,226.5 420.5,226.5C 420.833,206.822 420.5,187.155 419.5,167.5C 415.748,165.171 414.582,161.837 416,157.5C 417.019,156.313 418.186,155.313 419.5,154.5C 420.666,140.846 420.833,127.179 420,113.5C 417.873,111.886 416.373,109.886 415.5,107.5C 415.5,104.833 415.5,102.167 415.5,99.5C 428.833,99.5 442.167,99.5 455.5,99.5 Z"/></g>
<g><path style="opacity:1" fill="#f7f9fa" d="M 367.5,99.5 C 377.345,98.3896 386.679,99.8896 395.5,104C 399.739,107.65 402.572,112.15 404,117.5C 404.167,129.847 404.667,142.18 405.5,154.5C 409.958,156.42 411.458,159.754 410,164.5C 408.736,166.607 406.903,167.607 404.5,167.5C 404.667,181.504 404.5,195.504 404,209.5C 401.659,217.841 396.493,223.674 388.5,227C 376.793,231.583 365.126,231.583 353.5,227C 349.281,224.448 346.114,220.948 344,216.5C 342.566,201.558 342.066,186.558 342.5,171.5C 336.546,170.305 335.046,166.972 338,161.5C 339.154,160.257 340.488,159.257 342,158.5C 342.054,144.765 342.72,131.098 344,117.5C 349.1,107.896 356.934,101.896 367.5,99.5 Z"/></g>
<g><path style="opacity:1" fill="#f6f8f9" d="M 527.5,216.5 C 529.265,217.461 531.265,217.795 533.5,217.5C 533.333,206.162 533.5,194.828 534,183.5C 535.996,181.941 538.329,181.274 541,181.5C 544.511,181.804 548.011,182.137 551.5,182.5C 551.667,198.503 551.5,214.503 551,230.5C 550.626,231.416 550.126,232.25 549.5,233C 547.527,233.495 545.527,233.662 543.5,233.5C 528.049,231.283 512.383,229.949 496.5,229.5C 496.833,209.489 496.5,189.489 495.5,169.5C 488.928,164.973 488.928,160.64 495.5,156.5C 496.666,142.846 496.833,129.179 496,115.5C 491.314,111.614 489.481,106.614 490.5,100.5C 500.5,101.167 510.5,101.833 520.5,102.5C 521.622,108.006 519.956,112.34 515.5,115.5C 514.333,148.828 514.167,182.162 515,215.5C 519.066,216.464 523.233,216.797 527.5,216.5 Z"/></g>
<g><path style="opacity:1" fill="#fefbf0" d="M 95.5,106.5 C 95.8966,105.475 96.5632,105.308 97.5,106C 96.9056,106.464 96.2389,106.631 95.5,106.5 Z"/></g>
<g><path style="opacity:1" fill="#f8f9fa" d="M 559.5,107.5 C 577.262,109.682 594.928,112.516 612.5,116C 614.881,116.223 616.547,117.39 617.5,119.5C 617.5,131.833 617.5,144.167 617.5,156.5C 616.167,156.5 614.833,156.5 613.5,156.5C 608.893,156.469 605.06,154.803 602,151.5C 601.817,143.588 601.317,135.754 600.5,128C 594.2,126.839 587.866,126.006 581.5,125.5C 581.168,138.517 581.501,151.517 582.5,164.5C 590.46,166.495 598.46,168.329 606.5,170C 607.467,174.401 607.8,178.901 607.5,183.5C 598.808,182.718 590.142,181.718 581.5,180.5C 581.333,194.837 581.5,209.171 582,223.5C 588.253,225.844 594.753,226.844 601.5,226.5C 601.334,218.826 601.5,211.159 602,203.5C 606.453,202.324 610.953,202.324 615.5,203.5C 617.45,215.918 618.117,228.585 617.5,241.5C 616.306,242.777 614.64,243.444 612.5,243.5C 596.285,240.889 580.119,238.222 564,235.5C 563.667,215.833 563.333,196.167 563,176.5C 558.743,173.372 557.576,169.372 559.5,164.5C 560.708,163.766 562.041,163.433 563.5,163.5C 563.667,149.496 563.5,135.496 563,121.5C 559.994,120.159 558.494,117.825 558.5,114.5C 558.198,111.941 558.532,109.607 559.5,107.5 Z"/></g>
<g><path style="opacity:1" fill="#7a91ab" d="M 559.5,106.5 C 559.5,106.833 559.5,107.167 559.5,107.5C 558.532,109.607 558.198,111.941 558.5,114.5C 557.844,113.378 557.511,112.045 557.5,110.5C 557.585,108.667 558.252,107.334 559.5,106.5 Z"/></g>
<g><path style="opacity:1" fill="#cdbfa1" d="M 759.5,103.5 C 769.066,106.43 778.066,109.764 786.5,113.5C 780.741,112.271 774.908,110.937 769,109.5C 765.743,107.308 762.577,105.308 759.5,103.5 Z"/></g>
<g><path style="opacity:1" fill="#f9fafb" d="M 282.5,110.5 C 285.167,110.5 287.833,110.5 290.5,110.5C 290.665,113.518 290.498,116.518 290,119.5C 288,122.167 286,124.833 284,127.5C 282.536,140.177 281.036,152.844 279.5,165.5C 281.059,167.889 282.393,170.389 283.5,173C 282.093,176.89 280.093,180.39 277.5,183.5C 275.399,201.507 273.233,219.507 271,237.5C 270.535,238.931 269.701,240.097 268.5,241C 261.533,242.658 254.533,244.158 247.5,245.5C 246.228,245.43 245.062,245.097 244,244.5C 238.662,217.774 233.328,191.108 228,164.5C 223.495,192.545 218.828,220.545 214,248.5C 213.293,250.081 212.46,251.581 211.5,253C 203.265,256.077 194.931,257.911 186.5,258.5C 183.389,240.283 181.055,221.95 179.5,203.5C 173.844,203.133 172.011,200.133 174,194.5C 175.959,192.048 176.792,189.214 176.5,186C 175.292,174.837 174.125,163.671 173,152.5C 167.466,149.093 165.299,144.093 166.5,137.5C 173.742,135.419 181.075,133.752 188.5,132.5C 190.418,153.515 192.585,174.515 195,195.5C 196.637,209.236 198.637,222.903 201,236.5C 206.234,201.763 211.901,167.096 218,132.5C 218.796,126.37 222.296,122.87 228.5,122C 231.257,121.416 233.923,121.75 236.5,123C 237.191,124.067 237.691,125.234 238,126.5C 244.135,159.505 250.135,192.505 256,225.5C 260.366,188.174 264.532,150.84 268.5,113.5C 273.431,113.144 278.098,112.144 282.5,110.5 Z"/></g>
<g><path style="opacity:1" fill="#01295d" d="M 370.5,113.5 C 376.731,112.853 381.898,114.853 386,119.5C 386.667,148.833 386.667,178.167 386,207.5C 381.501,214.822 375.001,217.322 366.5,215C 364,213.833 362.167,212 361,209.5C 360.333,180.167 360.333,150.833 361,121.5C 363.362,117.755 366.528,115.089 370.5,113.5 Z"/></g>
<g><path style="opacity:1" fill="#01295c" d="M 439.5,113.5 C 446.061,112.919 452.395,113.752 458.5,116C 459.211,117.255 460.044,118.421 461,119.5C 461.667,128.5 461.667,137.5 461,146.5C 460.654,148.848 459.487,150.681 457.5,152C 451.285,153.416 444.952,153.916 438.5,153.5C 438.186,140.087 438.519,126.754 439.5,113.5 Z"/></g>
<g><path style="opacity:1" fill="#d7ccb5" d="M 786.5,113.5 C 791.443,114.463 795.777,116.463 799.5,119.5C 794.557,118.639 790.224,116.639 786.5,113.5 Z"/></g>
<g><path style="opacity:1" fill="#d2c7b0" d="M 87.5,113.5 C 82.883,116.266 77.883,118.266 72.5,119.5C 73.0577,118.21 74.0577,117.377 75.5,117C 79.4379,115.526 83.4379,114.359 87.5,113.5 Z"/></g>
<g><path style="opacity:1" fill="#04295c" d="M 464.5,52.5 C 465.167,52.8333 465.833,53.1667 466.5,53.5C 467.73,55.2972 468.396,57.2972 468.5,59.5C 482.854,59.3958 497.187,59.8958 511.5,61C 611.37,70.1884 707.704,93.5218 800.5,131C 810.855,135.842 820.855,141.342 830.5,147.5C 844.845,158.863 853.512,173.53 856.5,191.5C 856.829,204.677 856.495,217.677 855.5,230.5C 851.668,230.056 848.168,228.722 845,226.5C 844.833,227 844.667,227.5 844.5,228C 850.744,237.727 855.244,248.227 858,259.5C 858.667,276.167 858.667,292.833 858,309.5C 849.409,340.755 828.909,357.255 796.5,359C 800.849,361.849 805.516,364.016 810.5,365.5C 810.649,366.552 810.483,367.552 810,368.5C 805.085,374.413 799.251,379.246 792.5,383C 782.153,388.053 771.153,390.553 759.5,390.5C 764.868,392.898 770.201,395.231 775.5,397.5C 774.419,399.764 773.085,401.931 771.5,404C 756.401,417.033 738.734,423.7 718.5,424C 722.469,427.137 726.803,429.637 731.5,431.5C 717.09,443.423 700.423,450.09 681.5,451.5C 680.488,458.395 678.655,465.061 676,471.5C 638.174,558.381 572.674,611.548 479.5,631C 389.33,644.385 312.163,619.219 248,555.5C 236.466,543.142 226.299,529.809 217.5,515.5C 217.628,513.91 218.295,512.577 219.5,511.5C 221.09,515.018 222.59,514.685 224,510.5C 224.718,511.451 225.551,511.617 226.5,511C 224.607,508.083 224.107,504.916 225,501.5C 225.923,502.759 226.757,504.092 227.5,505.5C 228.172,503.14 227.339,501.14 225,499.5C 224.51,498.207 224.343,496.873 224.5,495.5C 271.343,572.788 340.343,613.455 431.5,617.5C 508.428,616.611 571.928,587.278 622,529.5C 636.357,511.469 648.191,491.803 657.5,470.5C 656.667,470.167 655.833,469.833 655,469.5C 639.417,474.003 623.583,475.503 607.5,474C 612.014,477.091 616.347,480.425 620.5,484C 589.434,492.441 558.434,492.441 527.5,484C 524.344,483.063 521.511,481.563 519,479.5C 503.2,524.5 471.367,545.667 423.5,543C 391.742,537.732 369.076,520.565 355.5,491.5C 356.364,490.312 357.364,489.145 358.5,488C 357.359,487.259 357.359,486.425 358.5,485.5C 358.062,484.494 357.396,484.494 356.5,485.5C 355.738,484.372 355.071,483.205 354.5,482C 355.744,481.544 356.577,482.044 357,483.5C 357.308,482.692 357.808,482.025 358.5,481.5C 359.308,483.423 359.808,485.423 360,487.5C 362.831,485.162 363.997,482.162 363.5,478.5C 366.957,488.083 371.957,496.75 378.5,504.5C 382.29,509.737 386.957,514.07 392.5,517.5C 397.968,513.948 400.302,509.114 399.5,503C 396.826,502.33 394.493,501.163 392.5,499.5C 394.06,499.481 395.56,499.148 397,498.5C 398.453,496.569 400.12,494.902 402,493.5C 402.95,494.022 403.784,494.689 404.5,495.5C 407.03,492.432 409.03,489.099 410.5,485.5C 411.598,489.014 412.598,492.681 413.5,496.5C 416.166,497.738 418.832,497.738 421.5,496.5C 422.714,489.882 423.714,483.216 424.5,476.5C 421.577,455.169 417.577,434.169 412.5,413.5C 412.037,410.518 411.704,407.518 411.5,404.5C 412.163,402.958 412.83,401.291 413.5,399.5C 414.251,400.376 414.751,401.376 415,402.5C 415.232,401.263 415.732,400.263 416.5,399.5C 418.811,407.239 420.478,415.239 421.5,423.5C 421.995,425.482 422.495,427.482 423,429.5C 423.796,426.961 423.629,424.628 422.5,422.5C 421.615,399.964 419.615,377.63 416.5,355.5C 418.411,355.574 419.578,356.574 420,358.5C 421.062,356.205 422.562,355.539 424.5,356.5C 428.367,392.044 430.701,427.711 431.5,463.5C 431.816,476.194 430.483,488.694 427.5,501C 429.991,506.238 432.658,510.738 435.5,514.5C 436.496,514.586 437.329,514.252 438,513.5C 438.471,511.754 439.138,510.087 440,508.5C 440.684,509.784 440.517,510.951 439.5,512C 440.527,512.513 441.527,513.013 442.5,513.5C 440.877,519.012 440.21,524.678 440.5,530.5C 449.453,529.643 458.119,527.643 466.5,524.5C 467.117,524.389 467.617,524.056 468,523.5C 470.55,525.839 471.05,525.172 469.5,521.5C 470.853,520.476 471.52,519.143 471.5,517.5C 472.552,517.351 473.552,517.517 474.5,518C 474.167,518.333 473.833,518.667 473.5,519C 476.203,519.605 478.203,518.772 479.5,516.5C 484.091,512.575 488.425,508.242 492.5,503.5C 500.316,494.2 505.149,483.534 507,471.5C 504.002,475.992 500.835,480.325 497.5,484.5C 489.214,492.315 479.88,498.648 469.5,503.5C 468.448,503.351 467.448,503.517 466.5,504C 467.591,506.064 467.758,508.231 467,510.5C 464.443,507.488 463.943,504.155 465.5,500.5C 461.909,499.748 458.409,499.415 455,499.5C 454.833,499.167 454.667,498.833 454.5,498.5C 456.045,497.548 457.712,497.215 459.5,497.5C 459.167,494.167 458.833,490.833 458.5,487.5C 459.531,485.039 460.198,482.373 460.5,479.5C 464.916,465.423 470.416,451.757 477,438.5C 478.15,434.888 478.983,431.222 479.5,427.5C 482.292,415.69 480.292,404.69 473.5,394.5C 479.186,394.144 481.519,391.144 480.5,385.5C 482.167,385.5 483.833,385.5 485.5,385.5C 486.207,387.134 487.373,388.468 489,389.5C 527.561,363.014 540.894,327.014 529,281.5C 527.222,275.496 525.055,269.662 522.5,264C 559.326,266.312 595.659,271.979 631.5,281C 685.508,294.336 738.175,311.67 789.5,333C 797.525,335.349 805.192,334.516 812.5,330.5C 805.422,326.458 798.088,322.625 790.5,319C 704.741,281.803 615.407,257.97 522.5,247.5C 521.013,246.196 519.346,245.03 517.5,244C 519.864,241.684 522.697,240.184 526,239.5C 526.333,240.167 526.667,240.833 527,241.5C 527.49,240.207 527.657,238.873 527.5,237.5C 532.627,237.754 537.461,238.421 542,239.5C 542.5,239.167 543,238.833 543.5,238.5C 534.236,237.348 534.236,236.515 543.5,236C 533.004,234.264 533.004,233.43 543.5,233.5C 545.527,233.662 547.527,233.495 549.5,233C 550.126,232.25 550.626,231.416 551,230.5C 551.5,214.503 551.667,198.503 551.5,182.5C 548.011,182.137 544.511,181.804 541,181.5C 538.329,181.274 535.996,181.941 534,183.5C 533.5,194.828 533.333,206.162 533.5,217.5C 531.265,217.795 529.265,217.461 527.5,216.5C 529.167,216.5 530.833,216.5 532.5,216.5C 532.665,213.482 532.498,210.482 532,207.5C 530.915,208.293 529.748,208.96 528.5,209.5C 527.335,200.853 527.168,192.186 528,183.5C 528.168,191.521 528.668,199.521 529.5,207.5C 530.122,198.795 530.955,190.128 532,181.5C 532.804,180.196 533.971,179.529 535.5,179.5C 540.791,180.402 546.124,180.735 551.5,180.5C 550.848,177.294 551.015,173.96 552,170.5C 552.202,172.256 552.702,173.922 553.5,175.5C 554.318,172.893 554.818,170.226 555,167.5C 555.667,169.5 556.333,171.5 557,173.5C 556.93,170.008 557.763,167.008 559.5,164.5C 557.576,169.372 558.743,173.372 563,176.5C 563.333,196.167 563.667,215.833 564,235.5C 580.119,238.222 596.285,240.889 612.5,243.5C 614.64,243.444 616.306,242.777 617.5,241.5C 618.495,229.011 618.829,216.344 618.5,203.5C 617.5,203.5 616.5,203.5 615.5,203.5C 610.953,202.324 606.453,202.324 602,203.5C 601.5,211.159 601.334,218.826 601.5,226.5C 594.753,226.844 588.253,225.844 582,223.5C 581.5,209.171 581.333,194.837 581.5,180.5C 590.142,181.718 598.808,182.718 607.5,183.5C 607.8,178.901 607.467,174.401 606.5,170C 598.46,168.329 590.46,166.495 582.5,164.5C 581.501,151.517 581.168,138.517 581.5,125.5C 587.866,126.006 594.2,126.839 600.5,128C 601.317,135.754 601.817,143.588 602,151.5C 605.06,154.803 608.893,156.469 613.5,156.5C 614.919,157.451 616.585,157.784 618.5,157.5C 618.829,144.656 618.495,131.989 617.5,119.5C 616.547,117.39 614.881,116.223 612.5,116C 594.928,112.516 577.262,109.682 559.5,107.5C 559.5,107.167 559.5,106.833 559.5,106.5C 566.177,107.503 572.844,107.503 579.5,106.5C 581.384,106.716 583.051,107.383 584.5,108.5C 587.201,108.024 587.701,107.024 586,105.5C 585.086,106.654 584.253,106.487 583.5,105C 578.81,104.497 574.143,103.83 569.5,103C 573.656,102.815 577.656,101.982 581.5,100.5C 578.496,99.0109 575.496,97.6776 572.5,96.5C 642.108,107.484 709.774,125.484 775.5,150.5C 775.665,147.482 775.498,144.482 775,141.5C 771.464,136.98 766.964,133.814 761.5,132C 668.886,98.677 573.386,79.177 475,73.5C 471.895,73.6115 469.062,74.2781 466.5,75.5C 465.791,74.596 464.791,74.2627 463.5,74.5C 463.631,71.6711 462.631,70.3378 460.5,70.5C 461.098,69.2054 461.598,67.8721 462,66.5C 462.654,67.6956 463.154,67.6956 463.5,66.5C 462.833,65.8333 462.167,65.1667 461.5,64.5C 461.846,63.3044 462.346,63.3044 463,64.5C 463.739,62.7795 464.573,61.1128 465.5,59.5C 466.167,60.8333 466.833,62.1667 467.5,63.5C 467.833,63.3333 468.167,63.1667 468.5,63C 467.897,61.1746 467.23,59.3413 466.5,57.5C 465.15,55.9798 463.817,55.3131 462.5,55.5C 463.612,54.7348 464.279,53.7348 464.5,52.5 Z"/></g>
<g><path style="opacity:1" fill="#fefdf2" d="M 814.5,120.5 C 815.525,120.897 815.692,121.563 815,122.5C 814.536,121.906 814.369,121.239 814.5,120.5 Z"/></g>
<g><path style="opacity:1" fill="#d9ceb7" d="M 799.5,119.5 C 804.895,120.704 809.895,122.704 814.5,125.5C 809.117,124.266 804.117,122.266 799.5,119.5 Z"/></g>
<g><path style="opacity:1" fill="#778fa9" d="M 647.5,123.5 C 645.692,124.918 645.025,126.918 645.5,129.5C 644.532,127.393 644.198,125.059 644.5,122.5C 645.791,122.263 646.791,122.596 647.5,123.5 Z"/></g>
<g><path style="opacity:1" fill="#f9fafb" d="M 647.5,123.5 C 655.971,125.065 664.305,127.232 672.5,130C 674.359,131.558 675.859,133.391 677,135.5C 679.559,151.853 682.226,168.186 685,184.5C 686.539,187.725 688.539,190.725 691,193.5C 691.667,195.5 691.667,197.5 691,199.5C 689.302,200.529 688.468,202.029 688.5,204C 691.901,224.167 695.234,244.334 698.5,264.5C 692.512,263.337 686.678,261.67 681,259.5C 679.547,248.845 678.213,238.179 677,227.5C 669.93,224.02 662.43,221.687 654.5,220.5C 653.5,220.833 652.5,221.167 651.5,221.5C 649.039,231.014 647.373,240.68 646.5,250.5C 640.805,249.66 635.139,248.66 629.5,247.5C 632.507,229.125 635.841,210.792 639.5,192.5C 639.489,190.146 638.656,188.146 637,186.5C 636.333,184.167 636.333,181.833 637,179.5C 639.116,178.31 641.116,176.977 643,175.5C 645.117,163.248 647.617,151.082 650.5,139C 649.73,137.225 648.563,135.725 647,134.5C 645.991,132.975 645.491,131.308 645.5,129.5C 645.025,126.918 645.692,124.918 647.5,123.5 Z"/></g>
<g><path style="opacity:1" fill="#b6c8d8" d="M 617.5,119.5 C 618.495,131.989 618.829,144.656 618.5,157.5C 616.585,157.784 614.919,157.451 613.5,156.5C 614.833,156.5 616.167,156.5 617.5,156.5C 617.5,144.167 617.5,131.833 617.5,119.5 Z"/></g>
<g><path style="opacity:1" fill="#f8fef3" d="M 36.5,129.5 C 37.8333,130.167 37.8333,130.167 36.5,129.5 Z"/></g>
<g><path style="opacity:1" fill="#d7cbb5" d="M 815.5,125.5 C 819.362,127.262 823.028,129.262 826.5,131.5C 821.48,131.692 817.814,129.692 815.5,125.5 Z"/></g>
<g><path style="opacity:1" fill="#fefff4" d="M 25.5,135.5 C 26.8333,136.167 26.8333,136.167 25.5,135.5 Z"/></g>
<g><path style="opacity:1" fill="#f8fef3" d="M 23.5,136.5 C 24.8333,137.167 24.8333,137.167 23.5,136.5 Z"/></g>
<g><path style="opacity:1" fill="#fafbfb" d="M 47.5,222.5 C 47.0133,221.527 46.5133,220.527 46,219.5C 45.5,250.498 45.3334,281.498 45.5,312.5C 40.7463,314.306 36.0796,316.306 31.5,318.5C 31.5,294.167 31.5,269.833 31.5,245.5C 30.5,245.5 29.5,245.5 28.5,245.5C 25.1974,243.061 24.6974,240.061 27,236.5C 28.3333,235.167 29.6667,233.833 31,232.5C 31.4999,215.17 31.6666,197.837 31.5,180.5C 29.0968,180.607 27.2635,179.607 26,177.5C 25.1764,174.118 25.343,170.784 26.5,167.5C 32.8204,164.09 39.3204,161.09 46,158.5C 47.2613,158.759 48.2613,159.426 49,160.5C 56.8205,185.457 64.3205,210.457 71.5,235.5C 71.9867,236.473 72.4867,237.473 73,238.5C 73.5,207.835 73.6666,177.168 73.5,146.5C 79.8298,143.272 86.4964,140.606 93.5,138.5C 94.3056,144.246 92.8056,149.246 89,153.5C 88.167,171.509 88.3337,189.509 89.5,207.5C 93.4625,211.487 93.2959,215.487 89,219.5C 88.9711,243.896 88.3045,268.229 87,292.5C 82.2583,296.52 76.925,298.52 71,298.5C 62.853,273.24 55.0197,247.907 47.5,222.5 Z"/></g>
<g><path style="opacity:1" fill="#fbfcfc" d="M 729.5,197.5 C 729.108,195.821 728.608,194.154 728,192.5C 727.5,219.498 727.333,246.498 727.5,273.5C 722.5,272.167 717.5,270.833 712.5,269.5C 712.667,249.497 712.5,229.497 712,209.5C 707.86,206.881 706.527,203.215 708,198.5C 709.11,196.963 710.61,196.297 712.5,196.5C 712.667,183.163 712.5,169.829 712,156.5C 707.56,151.761 705.727,146.094 706.5,139.5C 713.632,141.2 720.632,143.367 727.5,146C 729.049,147.214 730.215,148.714 731,150.5C 739.158,179.466 747.158,208.466 755,237.5C 755.5,210.502 755.667,183.502 755.5,156.5C 762.362,158.217 769.028,160.551 775.5,163.5C 777.636,168.891 776.136,172.891 771,175.5C 770.333,189.5 770.333,203.5 771,217.5C 775.281,220.366 776.281,224.033 774,228.5C 772.989,229.337 771.822,229.67 770.5,229.5C 770.667,248.503 770.5,267.503 770,286.5C 768.274,287.576 766.441,287.743 764.5,287C 761.167,285.667 757.833,284.333 754.5,283C 745.78,254.623 737.447,226.123 729.5,197.5 Z"/></g>
<g><path style="opacity:1" fill="#f8fef3" d="M 846.5,142.5 C 847.833,143.167 847.833,143.167 846.5,142.5 Z"/></g>
<g><path style="opacity:1" fill="#f9fafa" d="M 152.5,142.5 C 154.167,142.5 155.833,142.5 157.5,142.5C 157.832,155.517 157.499,168.517 156.5,181.5C 154.974,181.994 153.641,182.661 152.5,183.5C 148.949,184.61 145.449,184.61 142,183.5C 141.5,176.174 141.334,168.841 141.5,161.5C 135.014,162.492 128.847,164.492 123,167.5C 122.5,180.496 122.333,193.496 122.5,206.5C 130.878,204.322 139.211,201.989 147.5,199.5C 147.803,204.43 147.469,209.263 146.5,214C 138.5,216.419 130.666,219.252 123,222.5C 122.5,236.829 122.333,251.163 122.5,265.5C 128.854,264.037 135.021,262.037 141,259.5C 141.333,251.5 141.667,243.5 142,235.5C 146.403,231.53 151.57,229.197 157.5,228.5C 157.667,241.504 157.5,254.504 157,267.5C 156.167,268.333 155.333,269.167 154.5,270C 137.969,275.01 121.636,280.51 105.5,286.5C 106.154,266.472 105.488,246.805 103.5,227.5C 99.3704,225.597 98.5371,222.597 101,218.5C 102.333,217.167 103.667,215.833 105,214.5C 105.667,201.167 105.667,187.833 105,174.5C 103.89,172.963 102.39,172.297 100.5,172.5C 99.7279,168.548 99.3946,164.548 99.5,160.5C 117.155,154.504 134.822,148.504 152.5,142.5 Z"/></g>
<g><path style="opacity:1" fill="#3d5677" d="M 152.5,142.5 C 154.847,141.105 157.181,141.272 159.5,143C 158.167,156 158.167,169 159.5,182C 157.323,183.202 154.989,183.702 152.5,183.5C 153.641,182.661 154.974,181.994 156.5,181.5C 157.499,168.517 157.832,155.517 157.5,142.5C 155.833,142.5 154.167,142.5 152.5,142.5 Z"/></g>
<g><path style="opacity:1" fill="#f6f8f9" d="M 793.5,150.5 C 817.522,150.696 833.688,162.029 842,184.5C 842.831,191.524 842.664,198.524 841.5,205.5C 828.669,201.508 823.169,192.842 825,179.5C 820.591,170.545 813.424,166.712 803.5,168C 802.347,179.09 802.18,190.257 803,201.5C 806.062,207.23 809.896,212.397 814.5,217C 817.822,217.059 820.656,218.226 823,220.5C 824.706,224.035 826.04,227.702 827,231.5C 834.963,239.751 840.63,249.418 844,260.5C 844.667,273.833 844.667,287.167 844,300.5C 842.841,309.251 837.841,313.251 829,312.5C 797.867,307.212 782.7,288.879 783.5,257.5C 798.213,259.887 804.379,268.554 802,283.5C 805.214,288.382 809.381,292.215 814.5,295C 818.225,295.76 821.892,295.593 825.5,294.5C 826.666,280.512 826.833,266.512 826,252.5C 824.055,247.443 821.221,242.943 817.5,239C 808.922,238.717 804.755,234.217 805,225.5C 785.211,205.806 779.544,182.472 788,155.5C 789.73,153.598 791.563,151.931 793.5,150.5 Z"/></g>
<g><path style="opacity:1" fill="#7d94b1" d="M 73.5,146.5 C 73.6666,177.168 73.5,207.835 73,238.5C 72.4867,237.473 71.9867,236.473 71.5,235.5C 72.1667,205.833 72.8333,176.167 73.5,146.5 Z"/></g>
<g><path style="opacity:1" fill="#effefe" d="M 862.5,167.5 C 863.833,168.167 863.833,168.167 862.5,167.5 Z"/></g>
<g><path style="opacity:1" fill="#738aa2" d="M 438.5,170.5 C 438.5,189.5 438.5,208.5 438.5,227.5C 432.31,227.823 426.31,227.49 420.5,226.5C 426.167,226.5 431.833,226.5 437.5,226.5C 437.17,207.659 437.503,188.993 438.5,170.5 Z"/></g>
<g><path style="opacity:1" fill="#fdfaed" d="M 867.5,183.5 C 867.351,182.448 867.517,181.448 868,180.5C 868.74,181.749 868.573,182.749 867.5,183.5 Z"/></g>
<g><path style="opacity:1" fill="#0c2d5f" d="M 663.5,146.5 C 668.01,167.558 671.677,188.892 674.5,210.5C 668.144,209.161 661.811,207.661 655.5,206C 654.196,205.196 653.529,204.029 653.5,202.5C 657.22,183.899 660.554,165.232 663.5,146.5 Z"/></g>
<g><path style="opacity:1" fill="#c6bda9" d="M 866.5,183.5 C 866.833,183.5 867.167,183.5 867.5,183.5C 867.055,186.365 867.722,188.865 869.5,191C 868.507,209.757 868.174,228.59 868.5,247.5C 868.167,247.5 867.833,247.5 867.5,247.5C 867.738,226.151 867.404,204.817 866.5,183.5 Z"/></g>
<g><path style="opacity:1" fill="#304257" d="M 856.5,191.5 C 857.825,204.673 857.825,218.006 856.5,231.5C 855.893,231.376 855.56,231.043 855.5,230.5C 856.495,217.677 856.829,204.677 856.5,191.5 Z"/></g>
<g><path style="opacity:1" fill="#ccbd9f" d="M -0.5,152.5 C -0.166667,152.5 0.166667,152.5 0.5,152.5C -0.067989,165.621 0.765344,178.621 3,191.5C 3.47285,193.779 4.47285,195.779 6,197.5C 6.66667,207.5 6.66667,217.5 6,227.5C 5.79959,229.32 4.96626,230.653 3.5,231.5C 5.54362,220.628 6.04362,209.628 5,198.5C 2.26547,194.439 0.43214,190.106 -0.5,185.5C -0.5,174.5 -0.5,163.5 -0.5,152.5 Z"/></g>
<g><path style="opacity:1" fill="#b6c9d9" d="M 615.5,203.5 C 616.5,203.5 617.5,203.5 618.5,203.5C 618.829,216.344 618.495,229.011 617.5,241.5C 618.117,228.585 617.45,215.918 615.5,203.5 Z"/></g>
<g><path style="opacity:1" fill="#3d608b" d="M 729.5,197.5 C 728.833,222.833 728.167,248.167 727.5,273.5C 727.333,246.498 727.5,219.498 728,192.5C 728.608,194.154 729.108,195.821 729.5,197.5 Z"/></g>
<g><path style="opacity:1" fill="#455f7f" d="M 103.5,227.5 C 105.488,246.805 106.154,266.472 105.5,286.5C 104.822,266.931 104.155,247.265 103.5,227.5 Z"/></g>
<g><path style="opacity:1" fill="#7e95ac" d="M 47.5,222.5 C 46.8333,252.5 46.1667,282.5 45.5,312.5C 45.3334,281.498 45.5,250.498 46,219.5C 46.5133,220.527 47.0133,221.527 47.5,222.5 Z"/></g>
<g><path style="opacity:1" fill="#fdfaed" d="M 870.5,242.5 C 870.5,242.833 870.5,243.167 870.5,243.5C 869.83,243.019 869.83,242.685 870.5,242.5 Z"/></g>
<g><path style="opacity:1" fill="#fbf9f3" d="M 870.5,244.5 C 870.5,245.167 870.5,245.833 870.5,246.5C 869.167,245.833 869.167,245.167 870.5,244.5 Z"/></g>
<g><path style="opacity:1" fill="#3c5f8b" d="M 28.5,245.5 C 29.5,245.5 30.5,245.5 31.5,245.5C 31.5,269.833 31.5,294.167 31.5,318.5C 31.147,294.111 30.147,269.777 28.5,245.5 Z"/></g>
<g><path style="opacity:1" fill="#f8fafa" d="M 351.5,246.5 C 359.585,246.099 367.585,246.599 375.5,248C 376.059,248.725 376.392,249.558 376.5,250.5C 372.57,257.607 368.403,264.607 364,271.5C 341.012,315.078 347.846,353.244 384.5,386C 383.333,387.167 382.167,388.333 381,389.5C 343.147,364.102 329.48,329.102 340,284.5C 342.076,277.44 344.243,270.44 346.5,263.5C 286.107,268.945 227.107,281.112 169.5,300C 138.872,310.209 108.539,321.209 78.5,333C 73.1667,333.667 67.8333,333.667 62.5,333C 60.3686,332.457 58.3686,331.624 56.5,330.5C 101.17,308.442 147.503,290.608 195.5,277C 246.865,262.76 298.865,252.593 351.5,246.5 Z"/></g>
<g><path style="opacity:1" fill="#f8fafa" d="M 522.5,247.5 C 615.407,257.97 704.741,281.803 790.5,319C 798.088,322.625 805.422,326.458 812.5,330.5C 805.192,334.516 797.525,335.349 789.5,333C 738.175,311.67 685.508,294.336 631.5,281C 595.659,271.979 559.326,266.312 522.5,264C 525.055,269.662 527.222,275.496 529,281.5C 540.894,327.014 527.561,363.014 489,389.5C 487.373,388.468 486.207,387.134 485.5,385.5C 524.281,349.861 529.781,309.527 502,264.5C 497.403,259.966 494.736,254.632 494,248.5C 494.75,247.874 495.584,247.374 496.5,247C 505.202,246.256 513.868,246.422 522.5,247.5 Z"/></g>
<g><path style="opacity:1" fill="#effefe" d="M 868.5,247.5 C 869.833,248.167 869.833,248.167 868.5,247.5 Z"/></g>
<g><path style="opacity:1" fill="#d2c3a5" d="M 3.5,231.5 C 0.232228,242.48 0.898894,253.147 5.5,263.5C 3.66499,262.878 2.49833,261.544 2,259.5C 1.15876,256.372 0.325426,253.372 -0.5,250.5C -0.5,248.5 -0.5,246.5 -0.5,244.5C 0.103647,239.969 1.43698,235.635 3.5,231.5 Z"/></g>
<g><path style="opacity:1" fill="#cab891" d="M 5.5,263.5 C 6.33194,284.663 6.83194,305.996 7,327.5C 8.45382,330.071 9.62048,332.738 10.5,335.5C 7.47128,332.109 5.47128,328.109 4.5,323.5C 5.48791,303.546 5.82124,283.546 5.5,263.5 Z"/></g>
<g><path style="opacity:1" fill="#d3cdc1" d="M 866.5,247.5 C 867.698,251.98 869.031,256.313 870.5,260.5C 870.5,275.167 870.5,289.833 870.5,304.5C 869.518,308.316 868.851,312.316 868.5,316.5C 867.596,317.209 867.263,318.209 867.5,319.5C 867.167,319.5 866.833,319.5 866.5,319.5C 868.898,307.639 869.898,295.639 869.5,283.5C 870.245,271.573 868.912,259.906 865.5,248.5C 865.667,247.833 865.833,247.167 866,246.5C 866.399,246.728 866.565,247.062 866.5,247.5 Z"/></g>
<g><path style="opacity:1" fill="#f9fbfb" d="M 428.5,269.5 C 439.904,268.933 450.237,271.933 459.5,278.5C 460.478,278.023 461.311,277.357 462,276.5C 473.729,291.466 476.729,308.133 471,326.5C 468.089,328.124 464.922,329.29 461.5,330C 457.644,333.357 453.644,336.524 449.5,339.5C 447.772,335.457 448.438,331.957 451.5,329C 456.572,329.092 460.739,327.258 464,323.5C 465.928,317.649 467.095,311.649 467.5,305.5C 463.869,305.16 460.536,305.994 457.5,308C 451.793,314.6 446.46,321.434 441.5,328.5C 439.364,327.528 438.197,325.861 438,323.5C 437.304,315.749 436.304,308.083 435,300.5C 433.348,307.649 432.348,314.982 432,322.5C 431.588,324.997 430.422,326.997 428.5,328.5C 423.632,321.948 418.632,315.448 413.5,309C 409.966,306.323 405.966,305.156 401.5,305.5C 402.604,311.603 404.104,317.603 406,323.5C 407.167,324.667 408.333,325.833 409.5,327C 413.194,327.801 416.694,328.968 420,330.5C 421.923,333.9 421.923,337.234 420,340.5C 414.65,333.746 407.817,329.413 399.5,327.5C 398.366,324.93 397.532,322.264 397,319.5C 393.646,303.246 397.313,288.913 408,276.5C 409.726,277.576 411.559,277.743 413.5,277C 418.14,273.63 423.14,271.13 428.5,269.5 Z"/></g>
<g><path style="opacity:1" fill="#b59757" d="M 279.5,298.5 C 285.097,298.23 290.43,297.23 295.5,295.5C 302.177,294.647 308.844,293.647 315.5,292.5C 314.692,301.476 314.358,310.476 314.5,319.5C 275.698,327.16 237.365,336.66 199.5,348C 184.784,351.212 170.784,349.546 157.5,343C 154.468,340.302 151.801,337.302 149.5,334C 150.444,332.523 151.777,331.523 153.5,331C 194.775,317.54 236.775,306.707 279.5,298.5 Z"/></g>
<g><path style="opacity:1" fill="#b59757" d="M 554.5,293.5 C 611.481,300.58 666.814,313.913 720.5,333.5C 716.328,341.173 709.995,346.006 701.5,348C 686.946,350.361 672.613,349.361 658.5,345C 624.578,334.769 590.244,326.269 555.5,319.5C 555.416,310.822 555.083,302.155 554.5,293.5 Z"/></g>
<g><path style="opacity:1" fill="#706f5f" d="M 295.5,295.5 C 290.43,297.23 285.097,298.23 279.5,298.5C 284.57,296.77 289.903,295.77 295.5,295.5 Z"/></g>
<g><path style="opacity:1" fill="#effefe" d="M 868.5,316.5 C 869.525,316.897 869.692,317.563 869,318.5C 868.536,317.906 868.369,317.239 868.5,316.5 Z"/></g>
<g><path style="opacity:1" fill="#cf153b" d="M 409.5,315.5 C 410.496,315.414 411.329,315.748 412,316.5C 412.494,318.134 412.66,319.801 412.5,321.5C 413.675,321.281 414.675,321.614 415.5,322.5C 413.994,323.747 412.494,323.747 411,322.5C 410.023,320.26 409.523,317.927 409.5,315.5 Z"/></g>
<g><path style="opacity:1" fill="#fefbf0" d="M 867.5,319.5 C 868.525,319.897 868.692,320.563 868,321.5C 867.536,320.906 867.369,320.239 867.5,319.5 Z"/></g>
<g><path style="opacity:1" fill="#c51842" d="M 458.5,315.5 C 460.847,317.03 461.014,319.03 459,321.5C 457.445,323.515 455.611,323.848 453.5,322.5C 454.689,321.571 456.022,321.238 457.5,321.5C 457.325,319.379 457.659,317.379 458.5,315.5 Z"/></g>
<g><path style="opacity:1" fill="#f8fef3" d="M 870.5,325.5 C 870.5,325.833 870.5,326.167 870.5,326.5C 869.83,326.019 869.83,325.685 870.5,325.5 Z"/></g>
<g><path style="opacity:1" fill="#b49657" d="M 311.5,333.5 C 313.288,333.215 314.955,333.548 316.5,334.5C 318.065,341.764 320.399,348.764 323.5,355.5C 291.671,366.707 259.338,376.207 226.5,384C 211.907,385.484 198.574,382.151 186.5,374C 185.313,372.981 184.313,371.814 183.5,370.5C 206.27,362.215 229.27,354.715 252.5,348C 272.281,343.077 291.948,338.243 311.5,333.5 Z"/></g>
<g><path style="opacity:1" fill="#b49757" d="M 552.5,333.5 C 598.097,341.992 642.43,354.492 685.5,371C 673.205,381.763 658.872,386.096 642.5,384C 636.07,383.143 629.737,381.809 623.5,380C 597.712,372.459 572.046,364.625 546.5,356.5C 548.026,351.09 549.859,345.756 552,340.5C 552.497,338.19 552.663,335.857 552.5,333.5 Z"/></g>
<g><path style="opacity:1" fill="#fdfaed" d="M 9.5,342.5 C 10.8333,343.167 10.8333,343.167 9.5,342.5 Z"/></g>
<g><path style="opacity:1" fill="#fefdf2" d="M 851.5,351.5 C 851.897,350.475 852.563,350.308 853.5,351C 852.906,351.464 852.239,351.631 851.5,351.5 Z"/></g>
<g><path style="opacity:1" fill="#f8fef3" d="M 24.5,356.5 C 25.8333,357.167 25.8333,357.167 24.5,356.5 Z"/></g>
<g><path style="opacity:1" fill="#555a54" d="M 55.5,356.5 C 58.4951,356.294 61.1617,356.96 63.5,358.5C 60.5049,358.706 57.8383,358.04 55.5,356.5 Z"/></g>
<g><path style="opacity:1" fill="#effefe" d="M 838.5,358.5 C 839.833,359.167 839.833,359.167 838.5,358.5 Z"/></g>
<g><path style="opacity:1" fill="#c6af81" d="M 851.5,346.5 C 847.589,351.027 843.255,355.027 838.5,358.5C 835.298,360.178 831.965,361.678 828.5,363C 824.934,367.333 821.267,371.499 817.5,375.5C 819.043,373.072 820.043,370.406 820.5,367.5C 818.876,367.36 817.71,368.027 817,369.5C 816.517,368.552 816.351,367.552 816.5,366.5C 822.167,365.149 824.834,361.482 824.5,355.5C 827.921,355.238 828.921,356.572 827.5,359.5C 828.723,360.614 830.056,360.781 831.5,360C 831.727,358.865 832.06,357.698 832.5,356.5C 834.5,357.833 836.5,357.833 838.5,356.5C 842.586,352.736 846.919,349.402 851.5,346.5 Z"/></g>
<g><path style="opacity:1" fill="#ebf7fe" d="M 829.5,363.5 C 830.833,364.167 830.833,364.167 829.5,363.5 Z"/></g>
<g><path style="opacity:1" fill="#fdfaed" d="M 39.5,366.5 C 40.8333,367.167 40.8333,367.167 39.5,366.5 Z"/></g>
<g><path style="opacity:1" fill="#f8fef3" d="M 826.5,366.5 C 827.833,367.167 827.833,367.167 826.5,366.5 Z"/></g>
<g><path style="opacity:1" fill="#b49757" d="M 539.5,367.5 C 574.571,377.968 609.238,389.635 643.5,402.5C 632.306,412.109 619.306,415.276 604.5,412C 578.113,404.309 552.446,394.642 527.5,383C 532.887,378.795 536.887,373.628 539.5,367.5 Z"/></g>
<g><path style="opacity:1" fill="#b49757" d="M 327.5,367.5 C 328.822,367.33 329.989,367.663 331,368.5C 333.184,373.688 336.518,378.022 341,381.5C 341.617,382.449 341.451,383.282 340.5,384C 318.681,393.052 296.681,401.719 274.5,410C 264.275,412.295 253.942,412.961 243.5,412C 236.794,410.815 231.127,407.815 226.5,403C 229.554,400.806 232.888,399.139 236.5,398C 266.974,387.898 297.307,377.731 327.5,367.5 Z"/></g>
<g><path style="opacity:1" fill="#e41133" d="M 435.5,514.5 C 432.658,510.738 429.991,506.238 427.5,501C 430.483,488.694 431.816,476.194 431.5,463.5C 430.701,427.711 428.367,392.044 424.5,356.5C 423.793,347.348 424.96,346.682 428,354.5C 428.333,349.5 428.667,344.5 429,339.5C 432.789,334.233 436.622,334.233 440.5,339.5C 441.328,344.132 441.828,348.798 442,353.5C 444.156,346.683 445.323,346.85 445.5,354C 441.813,389.746 439.479,425.58 438.5,461.5C 437.768,474.902 439.102,488.069 442.5,501C 439.488,505.192 437.155,509.692 435.5,514.5 Z"/></g>
<g><path style="opacity:1" fill="#fdfaed" d="M 806.5,388.5 C 807.833,389.167 807.833,389.167 806.5,388.5 Z"/></g>
<g><path style="opacity:1" fill="#f0fef7" d="M 66.5,390.5 C 67.8333,391.167 67.8333,391.167 66.5,390.5 Z"/></g>
<g><path style="opacity:1" fill="#f5f7f7" d="M 411.5,404.5 C 411.704,407.518 412.037,410.518 412.5,413.5C 404.559,417.141 397.226,421.808 390.5,427.5C 389.732,426.737 389.232,425.737 389,424.5C 387.549,413.638 389.882,403.638 396,394.5C 399.378,391.977 403.045,389.977 407,388.5C 408.826,393.813 410.326,399.146 411.5,404.5 Z"/></g>
<g><path style="opacity:1" fill="#d0c4aa" d="M 55.5,378.5 C 63.3185,384.58 71.6518,389.913 80.5,394.5C 70.0492,392.366 61.7158,387.033 55.5,378.5 Z"/></g>
<g><path style="opacity:1" fill="#e01235" d="M 458.5,349.5 C 460.948,349.085 462.281,350.085 462.5,352.5C 457.141,377.795 451.974,403.128 447,428.5C 448.541,404.854 450.207,381.187 452,357.5C 453.946,354.58 456.113,351.913 458.5,349.5 Z"/></g>
<g><path style="opacity:1" fill="#f8f9f9" d="M 473.5,394.5 C 480.292,404.69 482.292,415.69 479.5,427.5C 473.272,421.942 466.272,417.609 458.5,414.5C 457.702,414.043 457.369,413.376 457.5,412.5C 458.522,404.37 460.189,396.37 462.5,388.5C 466.322,390.244 469.989,392.244 473.5,394.5 Z"/></g>
<g><path style="opacity:1" fill="#dacfb8" d="M 807.5,384.5 C 802.613,389.85 796.78,393.183 790,394.5C 788.086,395.676 788.252,396.676 790.5,397.5C 790.145,398.522 789.478,399.189 788.5,399.5C 787.464,397.609 787.464,395.776 788.5,394C 794.99,391.117 801.323,387.95 807.5,384.5 Z"/></g>
<g><path style="opacity:1" fill="#e01235" d="M 416.5,355.5 C 419.615,377.63 421.615,399.964 422.5,422.5C 422.5,423.167 422.167,423.5 421.5,423.5C 420.478,415.239 418.811,407.239 416.5,399.5C 413.742,383.965 410.742,368.465 407.5,353C 407.667,352.167 407.833,351.333 408,350.5C 411.91,349.883 414.743,351.55 416.5,355.5 Z"/></g>
<g><path style="opacity:1" fill="#d4c9b1" d="M 80.5,394.5 C 83.1247,395.458 83.1247,396.624 80.5,398C 83.8483,400.501 86.1816,403.668 87.5,407.5C 84.6845,404.513 82.0178,401.346 79.5,398C 81.1952,396.954 81.5285,395.787 80.5,394.5 Z"/></g>
<g><path style="opacity:1" fill="#b49757" d="M 348.5,392.5 C 354.876,394.525 360.543,397.859 365.5,402.5C 355.379,410.068 344.712,416.901 333.5,423C 316.845,430.915 299.512,432.915 281.5,429C 279.668,428.252 278.001,427.252 276.5,426C 279.3,424.515 281.966,422.849 284.5,421C 306.079,411.763 327.412,402.263 348.5,392.5 Z"/></g>
<g><path style="opacity:1" fill="#b49657" d="M 516.5,392.5 C 521.744,393.636 526.911,395.303 532,397.5C 550.052,405.854 568.218,414.02 586.5,422C 588.833,423.5 591.167,425 593.5,426.5C 579.823,432 565.823,432.833 551.5,429C 534.054,422.693 518.054,413.86 503.5,402.5C 508.404,399.884 512.738,396.551 516.5,392.5 Z"/></g>
<g><path style="opacity:1" fill="#fefff4" d="M 95.5,417.5 C 96.8333,418.167 96.8333,418.167 95.5,417.5 Z"/></g>
<g><path style="opacity:1" fill="#f8f7f1" d="M 98.5,420.5 C 99.8333,421.167 99.8333,421.167 98.5,420.5 Z"/></g>
<g><path style="opacity:1" fill="#f8fef3" d="M 758.5,427.5 C 759.833,428.167 759.833,428.167 758.5,427.5 Z"/></g>
<g><path style="opacity:1" fill="#f4fafd" d="M 122.5,434.5 C 123.833,435.167 123.833,435.167 122.5,434.5 Z"/></g>
<g><path style="opacity:1" fill="#dbd2c0" d="M 743.5,431.5 C 745.225,431.843 745.725,432.843 745,434.5C 742.205,436.293 739.705,438.46 737.5,441C 736.255,441.791 734.922,442.291 733.5,442.5C 736.157,439.513 739.157,436.847 742.5,434.5C 743.386,433.675 743.719,432.675 743.5,431.5 Z"/></g>
<g><path style="opacity:1" fill="#dad2bf" d="M 733.5,442.5 C 730.35,445.579 726.683,447.913 722.5,449.5C 725.65,446.421 729.317,444.087 733.5,442.5 Z"/></g>
<g><path style="opacity:1" fill="#effefe" d="M 731.5,446.5 C 732.833,447.167 732.833,447.167 731.5,446.5 Z"/></g>
<g><path style="opacity:1" fill="#f8f7f1" d="M 734.5,446.5 C 735.833,447.167 735.833,447.167 734.5,446.5 Z"/></g>
<g><path style="opacity:1" fill="#f8fef3" d="M 147.5,452.5 C 148.833,453.167 148.833,453.167 147.5,452.5 Z"/></g>
<g><path style="opacity:1" fill="#d4c7ac" d="M 716.5,452.5 C 709.075,456.431 701.075,458.931 692.5,460C 691.771,462.058 690.771,463.891 689.5,465.5C 689.318,463.409 689.652,461.409 690.5,459.5C 699.201,457.159 707.868,454.825 716.5,452.5 Z"/></g>
<g><path style="opacity:1" fill="#f8fef3" d="M 166.5,460.5 C 167.833,461.167 167.833,461.167 166.5,460.5 Z"/></g>
<g><path style="opacity:1" fill="#f8fef3" d="M 175.5,462.5 C 176.833,463.167 176.833,463.167 175.5,462.5 Z"/></g>
<g><path style="opacity:1" fill="#f8f7f1" d="M 692.5,463.5 C 693.833,464.167 693.833,464.167 692.5,463.5 Z"/></g>
<g><path style="opacity:1" fill="#f0fef7" d="M 689.5,470.5 C 690.833,471.167 690.833,471.167 689.5,470.5 Z"/></g>
<g><path style="opacity:1" fill="#fdfaed" d="M 686.5,479.5 C 687.525,479.897 687.692,480.563 687,481.5C 686.536,480.906 686.369,480.239 686.5,479.5 Z"/></g>
<g><path style="opacity:1" fill="#dacfbb" d="M 191.5,492.5 C 194.258,495.678 196.258,499.345 197.5,503.5C 194.22,500.612 192.22,496.945 191.5,492.5 Z"/></g>
<g><path style="opacity:1" fill="#fefff4" d="M 678.5,495.5 C 679.833,496.167 679.833,496.167 678.5,495.5 Z"/></g>
<g><path style="opacity:1" fill="#f4f7f6" d="M 675.5,500.5 C 676.833,501.167 676.833,501.167 675.5,500.5 Z"/></g>
<g><path style="opacity:1" fill="#f8fef3" d="M 193.5,505.5 C 194.525,505.897 194.692,506.563 194,507.5C 193.536,506.906 193.369,506.239 193.5,505.5 Z"/></g>
<g><path style="opacity:1" fill="#fefff4" d="M 200.5,511.5 C 199.833,512.167 199.833,512.167 200.5,511.5 Z"/></g>
<g><path style="opacity:1" fill="#b69a5c" d="M 20.5,332.5 C 25.9695,338.802 31.9695,344.635 38.5,350C 43.8951,352.854 49.5618,355.021 55.5,356.5C 57.8383,358.04 60.5049,358.706 63.5,358.5C 66.5184,358.335 69.5184,358.502 72.5,359C 67.6969,361.235 63.0302,363.735 58.5,366.5C 71.8659,383.626 89.5326,391.459 111.5,390C 105.79,392.737 100.123,395.571 94.5,398.5C 96.2667,401.77 98.6,404.603 101.5,407C 116.154,418.315 132.821,423.981 151.5,424C 147.461,427.019 143.128,429.519 138.5,431.5C 145.141,437.332 152.475,442.166 160.5,446C 169.362,448.739 178.362,450.906 187.5,452.5C 191.212,463.69 195.379,474.69 200,485.5C 205.298,495.928 211.131,505.928 217.5,515.5C 226.299,529.809 236.466,543.142 248,555.5C 312.163,619.219 389.33,644.385 479.5,631C 572.674,611.548 638.174,558.381 676,471.5C 678.655,465.061 680.488,458.395 681.5,451.5C 700.423,450.09 717.09,443.423 731.5,431.5C 726.803,429.637 722.469,427.137 718.5,424C 738.734,423.7 756.401,417.033 771.5,404C 773.085,401.931 774.419,399.764 775.5,397.5C 776.289,397.783 776.956,398.283 777.5,399C 776.217,401.795 776.217,404.628 777.5,407.5C 779.895,408.523 780.895,407.523 780.5,404.5C 781.5,404.5 782.5,404.5 783.5,404.5C 783.5,403.5 783.5,402.5 783.5,401.5C 785.514,401.608 787.18,400.942 788.5,399.5C 777.704,415.586 762.704,425.753 743.5,430C 742.262,430.69 742.262,431.19 743.5,431.5C 743.719,432.675 743.386,433.675 742.5,434.5C 739.157,436.847 736.157,439.513 733.5,442.5C 729.317,444.087 725.65,446.421 722.5,449.5C 720.819,451.008 718.819,452.008 716.5,452.5C 707.868,454.825 699.201,457.159 690.5,459.5C 689.652,461.409 689.318,463.409 689.5,465.5C 679.028,497.924 662.361,526.591 639.5,551.5C 637.121,554.03 634.288,556.03 631,557.5C 629.06,561.064 626.893,564.397 624.5,567.5C 622.785,570.201 620.785,572.701 618.5,575C 610.542,580.956 602.875,587.289 595.5,594C 594.255,594.791 592.922,595.291 591.5,595.5C 583.389,600.059 575.389,604.893 567.5,610C 555.947,616.194 544.114,621.694 532,626.5C 530.97,626.836 530.47,627.503 530.5,628.5C 529.005,628.989 527.671,629.655 526.5,630.5C 503.195,638.562 479.528,643.229 455.5,644.5C 437.826,644.461 420.16,644.127 402.5,643.5C 401.5,643.5 400.5,643.5 399.5,643.5C 392.766,641.43 385.766,640.097 378.5,639.5C 367.203,637.759 356.203,634.926 345.5,631C 334.392,626.715 323.392,622.215 312.5,617.5C 301.859,611.207 291.192,604.873 280.5,598.5C 275.858,594.864 271.191,591.197 266.5,587.5C 265.694,586.272 264.694,585.272 263.5,584.5C 262.797,582.284 261.464,580.451 259.5,579C 255.325,576.311 251.325,573.477 247.5,570.5C 229.608,553.202 213.941,533.535 200.5,511.5C 198.957,509.072 197.957,506.406 197.5,503.5C 196.258,499.345 194.258,495.678 191.5,492.5C 189.583,489.283 187.749,485.949 186,482.5C 183.754,474.761 180.921,467.261 177.5,460C 156.615,456.64 138.948,447.64 124.5,433C 124.905,432.055 125.572,431.388 126.5,431C 111.329,426.749 98.3293,418.916 87.5,407.5C 86.1816,403.668 83.8483,400.501 80.5,398C 83.1247,396.624 83.1247,395.458 80.5,394.5C 71.6518,389.913 63.3185,384.58 55.5,378.5C 50.7033,374.861 46.7033,370.361 43.5,365C 28.8321,359.16 17.8321,349.327 10.5,335.5C 11.8221,335.33 12.9887,335.663 14,336.5C 14.3333,335.5 14.6667,334.5 15,333.5C 17.6766,336.482 19.51,336.149 20.5,332.5 Z"/></g>
<g><path style="opacity:1" fill="#e71333" d="M 355.5,491.5 C 369.076,520.565 391.742,537.732 423.5,543C 471.367,545.667 503.2,524.5 519,479.5C 521.511,481.563 524.344,483.063 527.5,484C 558.434,492.441 589.434,492.441 620.5,484C 616.347,480.425 612.014,477.091 607.5,474C 623.583,475.503 639.417,474.003 655,469.5C 655.833,469.833 656.667,470.167 657.5,470.5C 648.191,491.803 636.357,511.469 622,529.5C 571.928,587.278 508.428,616.611 431.5,617.5C 340.343,613.455 271.343,572.788 224.5,495.5C 220.255,487.341 216.255,479.008 212.5,470.5C 213,470.167 213.5,469.833 214,469.5C 229.939,473.764 246.105,475.264 262.5,474C 257.882,476.95 253.548,480.284 249.5,484C 259.89,487.066 270.556,489.066 281.5,490C 305.663,492.42 328.996,489.253 351.5,480.5C 351.782,484.68 353.115,488.347 355.5,491.5 Z"/></g>
<g><path style="opacity:1" fill="#b19556" d="M 466.5,524.5 C 458.119,527.643 449.453,529.643 440.5,530.5C 440.21,524.678 440.877,519.012 442.5,513.5C 444.104,512.713 444.771,511.38 444.5,509.5C 448.791,509.625 452.957,508.958 457,507.5C 457.5,507.833 458,508.167 458.5,508.5C 460.232,514.403 462.899,519.737 466.5,524.5 Z"/></g>
<g><path style="opacity:1" fill="#faf7f6" d="M 292.5,505.5 C 293.552,505.351 294.552,505.517 295.5,506C 300.387,510.887 305.221,515.721 310,520.5C 311.5,529.667 307.667,533.5 298.5,532C 294.686,529.02 291.019,525.854 287.5,522.5C 284.849,524.65 282.349,526.983 280,529.5C 277.705,527.92 276.372,525.92 276,523.5C 282.097,517.909 287.597,511.909 292.5,505.5 Z"/></g>
<g><path style="opacity:1" fill="#b29757" d="M 371.5,483.5 C 377.931,489.601 384.931,494.934 392.5,499.5C 394.493,501.163 396.826,502.33 399.5,503C 400.302,509.114 397.968,513.948 392.5,517.5C 386.957,514.07 382.29,509.737 378.5,504.5C 375.565,497.695 373.232,490.695 371.5,483.5 Z"/></g>
<g><path style="opacity:1" fill="#b19659" d="M 497.5,484.5 C 496.445,490.999 494.778,497.332 492.5,503.5C 488.425,508.242 484.091,512.575 479.5,516.5C 478.577,517.303 477.577,517.47 476.5,517C 471.416,513.906 469.082,509.406 469.5,503.5C 479.88,498.648 489.214,492.315 497.5,484.5 Z"/></g>
<g><path style="opacity:1" fill="#eef0f0" d="M 371.5,483.5 C 373.232,490.695 375.565,497.695 378.5,504.5C 371.957,496.75 366.957,488.083 363.5,478.5C 362.986,476.488 362.82,474.488 363,472.5C 365.842,476.197 368.675,479.863 371.5,483.5 Z"/></g>
<g><path style="opacity:1" fill="#edf1f1" d="M 492.5,503.5 C 494.778,497.332 496.445,490.999 497.5,484.5C 500.835,480.325 504.002,475.992 507,471.5C 505.149,483.534 500.316,494.2 492.5,503.5 Z"/></g>
<g><path style="opacity:1" fill="#64685f" d="M 460.5,479.5 C 460.198,482.373 459.531,485.039 458.5,487.5C 458.111,484.447 458.777,481.78 460.5,479.5 Z"/></g>
<g><path style="opacity:1" fill="#b39658" d="M 488.5,439.5 C 493.567,446.682 496.901,454.682 498.5,463.5C 491.849,475.149 482.516,484.149 470.5,490.5C 469.359,488.579 469.192,486.579 470,484.5C 471.732,480.637 473.066,476.637 474,472.5C 479.108,461.579 483.941,450.579 488.5,439.5 Z"/></g>
<g><path style="opacity:1" fill="#b49758" d="M 381.5,439.5 C 387.776,453.118 393.609,467.118 399,481.5C 399.781,484.834 400.114,488.167 400,491.5C 388.166,484.856 378.666,475.856 371.5,464.5C 372.502,455.145 375.835,446.812 381.5,439.5 Z"/></g>
<g><path style="opacity:1" fill="#6c7066" d="M 543.5,444.5 C 539.946,445.984 536.112,446.651 532,446.5C 529.31,446.497 526.81,446.164 524.5,445.5C 530.863,445.593 537.196,445.26 543.5,444.5 Z"/></g>
<g><path style="opacity:1" fill="#b19557" d="M 543.5,444.5 C 537.196,445.26 530.863,445.593 524.5,445.5C 523.167,445.5 521.833,445.5 520.5,445.5C 520.487,438.254 518.821,431.421 515.5,425C 515.833,424.5 516.167,424 516.5,423.5C 524.867,429.012 533.2,434.512 541.5,440C 542.687,441.019 543.687,442.186 544.5,443.5C 544.376,444.107 544.043,444.44 543.5,444.5 Z"/></g>
<g><path style="opacity:1" fill="#b29657" d="M 352.5,423.5 C 353.376,423.369 354.043,423.702 354.5,424.5C 351.785,431.142 349.785,437.976 348.5,445C 340.58,447.074 332.747,446.907 325,444.5C 324.383,443.551 324.549,442.718 325.5,442C 334.923,436.301 343.923,430.135 352.5,423.5 Z"/></g>
<g><path style="opacity:1" fill="#7d1e47" d="M 422.5,422.5 C 423.629,424.628 423.796,426.961 423,429.5C 422.495,427.482 421.995,425.482 421.5,423.5C 422.167,423.5 422.5,423.167 422.5,422.5 Z"/></g>
<g><path style="opacity:1" fill="#f6f8f8" d="M 498.5,463.5 C 496.901,454.682 493.567,446.682 488.5,439.5C 490.854,430.001 492.021,420.334 492,410.5C 500.098,419.698 505.265,430.365 507.5,442.5C 506.225,450.352 503.225,457.352 498.5,463.5 Z"/></g>
<g><path style="opacity:1" fill="#b49757" d="M 412.5,413.5 C 417.577,434.169 421.577,455.169 424.5,476.5C 423.714,483.216 422.714,489.882 421.5,496.5C 418.832,497.738 416.166,497.738 413.5,496.5C 412.598,492.681 411.598,489.014 410.5,485.5C 409.721,479.66 408.221,473.993 406,468.5C 401.659,458.799 397.325,449.132 393,439.5C 391.846,435.553 391.013,431.553 390.5,427.5C 397.226,421.808 404.559,417.141 412.5,413.5 Z"/></g>
<g><path style="opacity:1" fill="#b59757" d="M 457.5,412.5 C 457.369,413.376 457.702,414.043 458.5,414.5C 466.272,417.609 473.272,421.942 479.5,427.5C 478.983,431.222 478.15,434.888 477,438.5C 470.416,451.757 464.916,465.423 460.5,479.5C 458.777,481.78 458.111,484.447 458.5,487.5C 457.795,490.228 457.128,493.061 456.5,496C 453.857,497.436 451.19,497.602 448.5,496.5C 447.041,489.584 446.041,482.584 445.5,475.5C 448.335,454.135 452.335,433.135 457.5,412.5 Z"/></g>
<g><path style="opacity:1" fill="#f5f7f7" d="M 381.5,439.5 C 375.835,446.812 372.502,455.145 371.5,464.5C 363.388,454.665 361.221,443.665 365,431.5C 368.312,423.54 372.645,416.206 378,409.5C 377.952,419.666 379.119,429.666 381.5,439.5 Z"/></g>
<g><path style="opacity:1" fill="#f8f7f1" d="M 670.5,514.5 C 671.833,515.167 671.833,515.167 670.5,514.5 Z"/></g>
<g><path style="opacity:1" fill="#e72139" d="M 295.5,513.5 C 299.067,516.231 302.067,519.398 304.5,523C 303.074,526.697 300.74,527.363 297.5,525C 294.726,522.936 292.893,520.436 292,517.5C 293.376,516.295 294.542,514.962 295.5,513.5 Z"/></g>
<g><path style="opacity:1" fill="#faf3f2" d="M 575.5,505.5 C 582.324,504.524 583.657,506.357 579.5,511C 574.988,511.508 571.488,513.675 569,517.5C 568.167,520.667 569.333,521.833 572.5,521C 577.633,516.144 583.633,513.81 590.5,514C 594.753,517.42 595.587,521.587 593,526.5C 588.357,534.321 581.524,537.988 572.5,537.5C 572.393,535.097 573.393,533.264 575.5,532C 581.89,531.27 586.224,527.936 588.5,522C 587.941,519.812 586.607,519.146 584.5,520C 580.098,523.905 575.098,526.738 569.5,528.5C 565.27,527.77 562.937,525.27 562.5,521C 564.192,513.485 568.525,508.319 575.5,505.5 Z"/></g>
<g><path style="opacity:1" fill="#b29657" d="M 411.5,507.5 C 415.868,508.288 420.201,509.288 424.5,510.5C 425.719,513.667 427.219,516.667 429,519.5C 429.499,523.152 429.665,526.818 429.5,530.5C 425.466,530.328 421.466,529.828 417.5,529C 412.095,527.977 407.095,525.977 402.5,523C 407.185,518.795 410.185,513.628 411.5,507.5 Z"/></g>
<g><path style="opacity:1" fill="#f8f7f1" d="M 662.5,527.5 C 663.833,528.167 663.833,528.167 662.5,527.5 Z"/></g>
<g><path style="opacity:1" fill="#faf5f4" d="M 325.5,533.5 C 333.754,536.962 341.421,541.462 348.5,547C 348.046,548.622 347.046,549.788 345.5,550.5C 340.666,547.248 335.666,544.248 330.5,541.5C 328.362,543.033 327.695,544.866 328.5,547C 333.473,549.489 338.14,552.489 342.5,556C 341.845,557.487 340.845,558.653 339.5,559.5C 334.731,556.699 329.898,554.033 325,551.5C 322.557,552.854 321.724,554.687 322.5,557C 327.416,559.707 332.249,562.541 337,565.5C 337.47,567.549 336.636,568.883 334.5,569.5C 326.736,565.966 319.736,561.466 313.5,556C 316.618,549.894 320.118,544.061 324,538.5C 325.009,536.975 325.509,535.308 325.5,533.5 Z"/></g>
<g><path style="opacity:1" fill="#eef1ef" d="M 651.5,541.5 C 652.833,542.167 652.833,542.167 651.5,541.5 Z"/></g>
<g><path style="opacity:1" fill="#fefff4" d="M 649.5,542.5 C 650.833,543.167 650.833,543.167 649.5,542.5 Z"/></g>
<g><path style="opacity:1" fill="#f8fef3" d="M 654.5,542.5 C 655.833,543.167 655.833,543.167 654.5,542.5 Z"/></g>
<g><path style="opacity:1" fill="#fefff4" d="M 223.5,550.5 C 224.833,551.167 224.833,551.167 223.5,550.5 Z"/></g>
<g><path style="opacity:1" fill="#faf7f6" d="M 543.5,532.5 C 544.496,532.414 545.329,532.748 546,533.5C 550.3,540.601 554.466,547.768 558.5,555C 557.038,557.459 554.871,558.626 552,558.5C 544.745,556.471 537.578,554.137 530.5,551.5C 530.167,551.833 529.833,552.167 529.5,552.5C 532.898,557.238 535.898,562.238 538.5,567.5C 536.793,570.104 534.626,570.77 532,569.5C 527.7,562.399 523.534,555.232 519.5,548C 521.14,545.929 523.307,544.762 526,544.5C 533.803,547.106 541.636,549.272 549.5,551C 545.576,546.237 542.242,541.07 539.5,535.5C 540.901,534.479 542.235,533.479 543.5,532.5 Z"/></g>
<g><path style="opacity:1" fill="#d1c1a3" d="M 639.5,551.5 C 635.872,556.298 632.039,560.965 628,565.5C 627.184,566.823 626.017,567.489 624.5,567.5C 626.893,564.397 629.06,561.064 631,557.5C 634.288,556.03 637.121,554.03 639.5,551.5 Z"/></g>
<g><path style="opacity:1" fill="#faf5f4" d="M 402.5,563.5 C 404.764,564.219 407.097,564.552 409.5,564.5C 408.412,573.538 407.079,582.538 405.5,591.5C 403.167,591.5 400.833,591.5 398.5,591.5C 399.906,582.183 401.239,572.85 402.5,563.5 Z"/></g>
<g><path style="opacity:1" fill="#faf4f4" d="M 489.5,557.5 C 491.783,557.608 493.783,558.441 495.5,560C 501.353,566.352 507.02,572.852 512.5,579.5C 510.51,580.498 508.51,581.498 506.5,582.5C 504.747,580.739 502.747,579.406 500.5,578.5C 496.565,579.817 492.565,580.817 488.5,581.5C 488.545,586.789 485.878,589.455 480.5,589.5C 481.675,580.457 483.175,571.457 485,562.5C 485.743,560.068 487.243,558.401 489.5,557.5 Z"/></g>
<g><path style="opacity:1" fill="#e72e42" d="M 490.5,566.5 C 493.118,568.452 495.452,570.785 497.5,573.5C 495.106,574.349 492.773,575.349 490.5,576.5C 489.447,573.185 489.447,569.852 490.5,566.5 Z"/></g>
<g><path style="opacity:1" fill="#faf4f4" d="M 364.5,553.5 C 367.179,553.673 369.513,554.673 371.5,556.5C 369.668,561.828 367.834,567.161 366,572.5C 365.202,574.259 365.369,575.926 366.5,577.5C 370.937,578.555 374.937,580.388 378.5,583C 378.22,584.395 377.553,585.562 376.5,586.5C 369.894,584.183 363.227,582.183 356.5,580.5C 358.764,571.376 361.43,562.376 364.5,553.5 Z"/></g>
<g><path style="opacity:1" fill="#d9cfb9" d="M 247.5,570.5 C 251.325,573.477 255.325,576.311 259.5,579C 261.464,580.451 262.797,582.284 263.5,584.5C 257.751,580.295 252.418,575.628 247.5,570.5 Z"/></g>
<g><path style="opacity:1" fill="#faf5f4" d="M 439.5,565.5 C 447.972,563.767 454.972,566.1 460.5,572.5C 458.187,573.273 455.854,573.94 453.5,574.5C 447.133,568.874 441.3,569.207 436,575.5C 434.338,585.502 438.504,590.002 448.5,589C 450.833,588 452.5,586.333 453.5,584C 455.81,583.503 458.143,583.337 460.5,583.5C 459.839,588.33 457.172,591.497 452.5,593C 436.208,597.969 428.042,592.136 428,575.5C 430.202,570.122 434.035,566.788 439.5,565.5 Z"/></g>
<g><path style="opacity:1" fill="#effefe" d="M 614.5,579.5 C 615.833,580.167 615.833,580.167 614.5,579.5 Z"/></g>
<g><path style="opacity:1" fill="#fefff4" d="M 255.5,582.5 C 256.833,583.167 256.833,583.167 255.5,582.5 Z"/></g>
<g><path style="opacity:1" fill="#eef1ef" d="M 266.5,587.5 C 265.833,588.167 265.833,588.167 266.5,587.5 Z"/></g>
<g><path style="opacity:1" fill="#f4fafd" d="M 603.5,588.5 C 604.833,589.167 604.833,589.167 603.5,588.5 Z"/></g>
<g><path style="opacity:1" fill="#f4f7f6" d="M 603.5,589.5 C 602.833,590.167 602.833,590.167 603.5,589.5 Z"/></g>
<g><path style="opacity:1" fill="#f4f7f6" d="M 267.5,590.5 C 268.833,591.167 268.833,591.167 267.5,590.5 Z"/></g>
<g><path style="opacity:1" fill="#f0fef7" d="M 280.5,598.5 C 279.833,599.167 279.833,599.167 280.5,598.5 Z"/></g>
<g><path style="opacity:1" fill="#f0fef7" d="M 590.5,598.5 C 591.833,599.167 591.833,599.167 590.5,598.5 Z"/></g>
<g><path style="opacity:1" fill="#f5fef6" d="M 582.5,603.5 C 583.773,604.077 583.773,604.743 582.5,605.5C 581.537,605.03 581.537,604.363 582.5,603.5 Z"/></g>
<g><path style="opacity:1" fill="#f8fef3" d="M 299.5,612.5 C 300.833,613.167 300.833,613.167 299.5,612.5 Z"/></g>
<g><path style="opacity:1" fill="#f8fef3" d="M 312.5,617.5 C 311.833,618.167 311.833,618.167 312.5,617.5 Z"/></g>
<g><path style="opacity:1" fill="#f8fef3" d="M 314.5,620.5 C 315.833,621.167 315.833,621.167 314.5,620.5 Z"/></g>
<g><path style="opacity:1" fill="#fdfaed" d="M 550.5,622.5 C 551.833,623.167 551.833,623.167 550.5,622.5 Z"/></g>
<g><path style="opacity:1" fill="#d4c8ae" d="M 591.5,595.5 C 573.14,609.852 552.806,620.852 530.5,628.5C 530.47,627.503 530.97,626.836 532,626.5C 544.114,621.694 555.947,616.194 567.5,610C 575.389,604.893 583.389,600.059 591.5,595.5 Z"/></g>
<g><path style="opacity:1" fill="#effefe" d="M 526.5,630.5 C 527.833,631.167 527.833,631.167 526.5,630.5 Z"/></g>
<g><path style="opacity:1" fill="#fefff4" d="M 358.5,636.5 C 359.833,637.167 359.833,637.167 358.5,636.5 Z"/></g>
<g><path style="opacity:1" fill="#d0c6b1" d="M 378.5,639.5 C 385.766,640.097 392.766,641.43 399.5,643.5C 392.225,642.902 385.225,641.568 378.5,639.5 Z"/></g>
<g><path style="opacity:1" fill="#fdfaed" d="M 391.5,645.5 C 390.833,644.167 390.833,644.167 391.5,645.5 Z"/></g>
<g><path style="opacity:1" fill="#c8b695" d="M 402.5,643.5 C 420.16,644.127 437.826,644.461 455.5,644.5C 455.5,644.833 455.5,645.167 455.5,645.5C 441.5,645.5 427.5,645.5 413.5,645.5C 409.833,644.833 406.167,644.167 402.5,643.5 Z"/></g>
</svg>
