<?xml version="1.0" encoding="UTF-8"?>
<!DOCTYPE svg PUBLIC "-//W3C//DTD SVG 1.1//EN" "http://www.w3.org/Graphics/SVG/1.1/DTD/svg11.dtd">
<svg xmlns="http://www.w3.org/2000/svg" version="1.1" width="800px" height="800px" style="shape-rendering:geometricPrecision; text-rendering:geometricPrecision; image-rendering:optimizeQuality; fill-rule:evenodd; clip-rule:evenodd" xmlns:xlink="http://www.w3.org/1999/xlink">
<g><path style="opacity:0.959" fill="#fcfdfe" d="M 371.5,113.5 C 421.01,110.73 469.343,116.897 516.5,132C 517.428,132.388 518.095,133.055 518.5,134C 521.403,144.207 524.403,154.374 527.5,164.5C 532.524,161.131 537.524,157.798 542.5,154.5C 570.602,164.051 598.602,173.885 626.5,184C 634.036,198.441 640.703,213.275 646.5,228.5C 681.506,228.167 716.506,228.5 751.5,229.5C 729.949,258.107 708.283,286.607 686.5,315C 697.53,339.56 708.696,364.06 720,388.5C 720.991,390.447 721.325,392.447 721,394.5C 692.53,424.637 663.697,454.471 634.5,484C 633.5,484.667 632.5,484.667 631.5,484C 615.211,471.6 597.711,461.1 579,452.5C 570.333,463.833 561.667,475.167 553,486.5C 547.227,548.598 516.394,593.098 460.5,620C 455.045,621.895 449.711,624.062 444.5,626.5C 429.136,646.191 413.803,665.857 398.5,685.5C 382.642,665.476 366.976,645.31 351.5,625C 288.259,600.397 252.759,554.231 245,486.5C 236.046,475.424 227.213,464.258 218.5,453C 209.259,456.114 200.259,460.114 191.5,465C 181.916,470.708 172.416,476.541 163,482.5C 134,453.5 105,424.5 76,395.5C 87.7731,368.607 99.6064,341.607 111.5,314.5C 90.1999,286.192 68.8665,257.859 47.5,229.5C 82.1667,228.833 116.833,228.167 151.5,227.5C 158.097,213.542 164.597,199.542 171,185.5C 188.069,178.143 205.235,170.976 222.5,164C 224.696,159.08 226.696,154.08 228.5,149C 242.18,154.081 255.68,159.915 269,166.5C 269.945,166.095 270.612,165.428 271,164.5C 273.974,153.913 277.141,143.413 280.5,133C 310.144,122.706 340.477,116.206 371.5,113.5 Z"/></g>
<g><path style="opacity:1" fill="#186eb8" d="M 410.5,153.5 C 411.493,145.35 411.826,137.017 411.5,128.5C 413.833,128.5 416.167,128.5 418.5,128.5C 419.315,138.157 419.482,147.824 419,157.5C 417.629,159.041 416.129,160.375 414.5,161.5C 412.577,165.029 411.911,169.029 412.5,173.5C 409.833,173.5 407.167,173.5 404.5,173.5C 405.884,166.311 403.717,160.645 398,156.5C 397.5,146.839 397.334,137.172 397.5,127.5C 400.5,127.5 403.5,127.5 406.5,127.5C 406.5,136.167 406.5,144.833 406.5,153.5C 407.833,153.5 409.167,153.5 410.5,153.5 Z"/></g>
<g><path style="opacity:1" fill="#156eb7" d="M 374.5,128.5 C 377.167,128.5 379.833,128.5 382.5,128.5C 381.749,142.179 380.749,155.845 379.5,169.5C 374.123,174.947 367.956,175.947 361,172.5C 359.566,172.93 358.399,173.764 357.5,175C 353.961,175.282 350.461,175.782 347,176.5C 343.831,175.17 341.998,172.836 341.5,169.5C 343.502,156.487 345.502,143.487 347.5,130.5C 350.167,130.5 352.833,130.5 355.5,130.5C 353.947,142.463 352.614,154.463 351.5,166.5C 353.467,166.739 355.301,166.406 357,165.5C 358.005,154.129 359.338,142.795 361,131.5C 363.106,129.709 365.606,129.042 368.5,129.5C 367.9,141.171 367.233,152.837 366.5,164.5C 368.167,164.5 369.833,164.5 371.5,164.5C 372.26,152.475 373.26,140.475 374.5,128.5 Z"/></g>
<g><path style="opacity:1" fill="#136db7" d="M 428.5,129.5 C 432.846,129.334 437.179,129.501 441.5,130C 443,131.5 444.5,133 446,134.5C 448.361,146.415 449.694,158.415 450,170.5C 449.215,172.286 448.049,173.786 446.5,175C 438.658,177.177 432.158,175.344 427,169.5C 426.212,157.167 425.879,144.834 426,132.5C 427.045,131.627 427.878,130.627 428.5,129.5 Z"/></g>
<g><path style="opacity:1" fill="#146eb7" d="M 453.5,132.5 C 459.568,132.789 465.568,133.622 471.5,135C 473.333,136.833 475.167,138.667 477,140.5C 477.975,145.876 479.142,151.209 480.5,156.5C 478.784,159.629 479.284,162.296 482,164.5C 483.319,170.106 484.153,175.773 484.5,181.5C 481.164,181.533 477.997,180.866 475,179.5C 474.228,174.809 473.395,170.142 472.5,165.5C 470.833,165.5 469.167,165.5 467.5,165.5C 467.927,169.824 468.261,174.158 468.5,178.5C 465.5,178.5 462.5,178.5 459.5,178.5C 457.828,163.121 455.828,147.788 453.5,132.5 Z"/></g>
<g><path style="opacity:1" fill="#166eb8" d="M 336.5,132.5 C 338.167,132.5 339.833,132.5 341.5,132.5C 341.216,135.254 340.549,137.92 339.5,140.5C 336.63,141.122 333.796,141.789 331,142.5C 329.711,145.351 329.211,148.351 329.5,151.5C 332.545,151.492 335.545,151.159 338.5,150.5C 338.037,153.482 337.704,156.482 337.5,159.5C 334.167,159.833 330.833,160.167 327.5,160.5C 326.841,163.455 326.508,166.455 326.5,169.5C 329.5,169.5 332.5,169.5 335.5,169.5C 335.296,172.518 334.963,175.518 334.5,178.5C 327.782,178.698 321.115,179.365 314.5,180.5C 316.883,165.751 319.717,151.084 323,136.5C 327.46,134.716 331.96,133.383 336.5,132.5 Z"/></g>
<g><path style="opacity:1" fill="#4c95cb" d="M 418.5,128.5 C 416.167,128.5 413.833,128.5 411.5,128.5C 411.826,137.017 411.493,145.35 410.5,153.5C 410.5,144.833 410.5,136.167 410.5,127.5C 413.385,127.194 416.052,127.527 418.5,128.5 Z"/></g>
<g><path style="opacity:1" fill="#f1f7fb" d="M 433.5,137.5 C 435.167,137.5 436.833,137.5 438.5,137.5C 439.996,146.766 440.663,156.099 440.5,165.5C 439.167,165.5 437.833,165.5 436.5,165.5C 435.764,156.135 434.764,146.802 433.5,137.5 Z"/></g>
<g><path style="opacity:1" fill="#136eb7" d="M 313.5,136.5 C 314.376,136.369 315.043,136.702 315.5,137.5C 311.9,152.468 308.4,167.468 305,182.5C 301.915,183.432 298.748,184.099 295.5,184.5C 296.83,178.513 298.163,172.513 299.5,166.5C 299.353,163.89 298.519,161.556 297,159.5C 293.931,168.04 291.265,176.706 289,185.5C 285.915,186.432 282.748,187.099 279.5,187.5C 282.86,173.062 286.693,158.728 291,144.5C 296.86,139.507 301.026,140.507 303.5,147.5C 304.641,144.938 305.474,142.272 306,139.5C 308.567,138.413 311.067,137.413 313.5,136.5 Z"/></g>
<g><path style="opacity:1" fill="#166eb7" d="M 483.5,137.5 C 486.985,137.691 490.151,138.691 493,140.5C 494.82,147.111 496.32,153.778 497.5,160.5C 499.948,160.99 501.615,160.157 502.5,158C 500.571,152.498 499.571,146.998 499.5,141.5C 502.021,142.785 504.687,143.452 507.5,143.5C 508.622,148.87 509.955,154.204 511.5,159.5C 509.977,163.103 510.81,166.103 514,168.5C 515.978,174.744 517.478,181.077 518.5,187.5C 515.482,187.296 512.482,186.963 509.5,186.5C 508.402,181.851 507.235,177.184 506,172.5C 504.333,171.833 502.667,171.167 501,170.5C 501.292,175.147 501.792,179.814 502.5,184.5C 499.164,184.533 495.997,183.866 493,182.5C 489.723,167.508 486.557,152.508 483.5,137.5 Z"/></g>
<g><path style="opacity:1" fill="#f1f6fb" d="M 464.5,142.5 C 465.833,142.5 467.167,142.5 468.5,142.5C 468.782,145.91 469.449,149.243 470.5,152.5C 468.604,153.466 466.604,153.799 464.5,153.5C 464.5,149.833 464.5,146.167 464.5,142.5 Z"/></g>
<g><path style="opacity:1" fill="#8bbbde" d="M 414.5,161.5 C 413.564,165.735 413.231,170.069 413.5,174.5C 410.287,174.81 407.287,174.477 404.5,173.5C 407.167,173.5 409.833,173.5 412.5,173.5C 411.911,169.029 412.577,165.029 414.5,161.5 Z"/></g>
<g><path style="opacity:1" fill="#166bb4" d="M 637.5,241.5 C 665.814,243.492 694.481,244.159 723.5,243.5C 705.473,266.385 687.807,289.551 670.5,313C 682.75,338.985 694.25,365.152 705,391.5C 680.654,416.679 656.154,441.679 631.5,466.5C 613.986,455.574 595.986,445.407 577.5,436C 576.5,435.333 575.5,435.333 574.5,436C 562.667,451.167 550.833,466.333 539,481.5C 535.519,538.658 508.352,580.158 457.5,606C 450.898,608.534 444.231,610.867 437.5,613C 424.368,629.448 411.368,645.948 398.5,662.5C 385.833,646.167 373.167,629.833 360.5,613.5C 299.349,591.168 265.849,547.501 260,482.5C 247.642,466.976 235.476,451.31 223.5,435.5C 222.635,434.417 221.635,434.251 220.5,435C 201.631,443.682 183.464,453.515 166,464.5C 141.374,440.874 117.04,416.874 93,392.5C 104.376,365.904 116.21,339.404 128.5,313C 111.284,290.064 93.951,267.231 76.5,244.5C 104.5,243.833 132.5,243.167 160.5,242.5C 167.448,226.658 174.781,210.991 182.5,195.5C 198.5,189.167 214.5,182.833 230.5,176.5C 231.167,177.167 231.833,177.833 232.5,178.5C 233.608,174.479 235.275,170.812 237.5,167.5C 248.714,172.941 260.048,178.107 271.5,183C 273.302,186.781 275.469,190.281 278,193.5C 316.255,184.058 355.088,179.058 394.5,178.5C 394.174,182.884 394.508,187.217 395.5,191.5C 399.985,187.515 404.318,183.349 408.5,179C 446.102,179.739 483.269,184.239 520,192.5C 520.833,192.167 521.667,191.833 522.5,191.5C 523.363,187.607 525.363,184.44 528.5,182C 534.167,177.833 539.833,173.667 545.5,169.5C 568.961,178.564 592.628,187.064 616.5,195C 623.792,210.381 630.792,225.881 637.5,241.5 Z"/></g>
<g><path style="opacity:1" fill="#fd671b" d="M 241.5,181.5 C 247.356,183.092 253.023,185.258 258.5,188C 260.555,188.687 262.221,189.854 263.5,191.5C 257.568,210.798 251.734,230.131 246,249.5C 235.488,258.679 225.654,268.512 216.5,279C 220.914,287.164 225.581,295.164 230.5,303C 224.602,321.091 218.935,339.258 213.5,357.5C 201.096,362.302 188.763,367.302 176.5,372.5C 176.167,372 175.833,371.5 175.5,371C 182.976,349.881 190.309,328.715 197.5,307.5C 196.805,303.296 194.471,301.129 190.5,301C 183.333,307.5 176.167,314 169,320.5C 159.804,343.087 150.804,365.754 142,388.5C 134.164,393.419 126.164,398.086 118,402.5C 113.5,398 109,393.5 104.5,389C 132.795,327.575 160.962,266.075 189,204.5C 199.075,199.545 209.242,195.545 219.5,192.5C 209.434,215.608 200.267,238.941 192,262.5C 202.26,253.952 212.426,245.285 222.5,236.5C 229.133,218.241 235.467,199.908 241.5,181.5 Z"/></g>
<g><path style="opacity:1" fill="#fd671b" d="M 545.5,181.5 C 566.972,188.768 588.305,196.435 609.5,204.5C 615.64,218.252 621.973,231.918 628.5,245.5C 628.167,245.833 627.833,246.167 627.5,246.5C 617.167,243.167 606.833,239.833 596.5,236.5C 592.765,229.529 589.431,222.362 586.5,215C 579.46,212.264 572.46,209.431 565.5,206.5C 568.723,218.333 572.723,230.167 577.5,242C 601.273,257.442 624.773,273.275 648,289.5C 662.696,322.393 677.53,355.226 692.5,388C 688.927,393.579 684.594,398.579 679.5,403C 678.5,403.667 677.5,403.667 676.5,403C 647.774,386.554 617.941,372.388 587,360.5C 580.68,340.886 574.513,321.219 568.5,301.5C 569,301.167 569.5,300.833 570,300.5C 580.44,303.869 590.94,307.036 601.5,310C 605.263,319.12 608.929,328.286 612.5,337.5C 621.393,341.407 630.226,345.407 639,349.5C 634.571,334.949 629.238,320.615 623,306.5C 600.202,290.695 577.702,274.528 555.5,258C 548.495,235.638 541.495,213.305 534.5,191C 538.359,187.968 542.026,184.802 545.5,181.5 Z"/></g>
<g><path style="opacity:1" fill="#fd671c" d="M 349.5,328.5 C 348.167,328.5 346.833,328.5 345.5,328.5C 345.5,327.5 345.5,326.5 345.5,325.5C 349.236,280.138 353.236,234.804 357.5,189.5C 365.84,189.309 374.174,188.976 382.5,188.5C 381.281,234.837 379.948,281.171 378.5,327.5C 368.809,327.342 359.143,327.675 349.5,328.5 Z"/></g>
<g><path style="opacity:1" fill="#fd671b" d="M 433.5,213.5 C 430.713,212.523 427.713,212.19 424.5,212.5C 424.19,215.713 424.523,218.713 425.5,221.5C 426.864,247.165 428.197,272.832 429.5,298.5C 439.848,299.011 450.181,299.677 460.5,300.5C 461.167,308.5 461.833,316.5 462.5,324.5C 462.5,326.167 462.5,327.833 462.5,329.5C 461.167,329.5 459.833,329.5 458.5,329.5C 443.506,328.334 428.506,327.167 413.5,326C 408.3,321.135 403.467,315.968 399,310.5C 398.333,274.5 398.333,238.5 399,202.5C 403.5,198 408,193.5 412.5,189C 424.145,189.4 435.811,189.9 447.5,190.5C 448.593,198.15 449.593,205.816 450.5,213.5C 444.833,213.5 439.167,213.5 433.5,213.5 Z"/></g>
<g><path style="opacity:1" fill="#fd671c" d="M 338.5,191.5 C 339.5,191.5 340.5,191.5 341.5,191.5C 335.833,238.168 330.167,284.834 324.5,331.5C 314.18,332.942 303.847,334.276 293.5,335.5C 295.509,322.449 297.842,309.449 300.5,296.5C 297.227,278.959 293.394,261.626 289,244.5C 281.794,276.862 274.461,309.195 267,341.5C 255.82,344.227 244.82,347.56 234,351.5C 246.237,302.777 258.904,254.111 272,205.5C 281.436,202.461 290.936,200.461 300.5,199.5C 303.522,212.439 306.355,225.439 309,238.5C 312.526,224.035 315.359,209.368 317.5,194.5C 324.736,194.235 331.736,193.235 338.5,191.5 Z"/></g>
<g><path style="opacity:1" fill="#fd671c" d="M 456.5,192.5 C 464.68,193.036 472.68,194.369 480.5,196.5C 484.728,217.138 488.894,237.805 493,258.5C 499.287,251.551 504.787,244.051 509.5,236C 505.609,223.601 502.442,211.101 500,198.5C 508.658,200.396 517.158,202.729 525.5,205.5C 528.832,217.494 532.165,229.494 535.5,241.5C 531.928,247.748 527.928,253.748 523.5,259.5C 529.664,264.826 535.997,269.992 542.5,275C 544.049,276.214 545.215,277.714 546,279.5C 552.973,303.728 559.473,328.062 565.5,352.5C 553.839,349.71 542.339,346.377 531,342.5C 527.491,325.465 523.825,308.465 520,291.5C 515.978,287.977 511.811,284.643 507.5,281.5C 503.68,284.983 501.014,289.15 499.5,294C 501.848,308.574 504.515,323.074 507.5,337.5C 496.586,335.292 485.586,333.626 474.5,332.5C 468.5,285.835 462.5,239.168 456.5,192.5 Z"/></g>
<g><path style="opacity:1" fill="#ba6845" d="M 433.5,213.5 C 430.833,213.5 428.167,213.5 425.5,213.5C 425.5,216.167 425.5,218.833 425.5,221.5C 424.523,218.713 424.19,215.713 424.5,212.5C 427.713,212.19 430.713,212.523 433.5,213.5 Z"/></g>
<g><path style="opacity:1" fill="#5a9fcf" d="M 160.5,242.5 C 132.5,243.167 104.5,243.833 76.5,244.5C 75.9569,244.44 75.6236,244.107 75.5,243.5C 103.825,242.5 132.159,242.167 160.5,242.5 Z"/></g>
<g><path style="opacity:1" fill="#5a9fcf" d="M 637.5,241.5 C 666.264,242.159 694.931,242.826 723.5,243.5C 694.481,244.159 665.814,243.492 637.5,241.5 Z"/></g>
<g><path style="opacity:1" fill="#6a97b6" d="M 154.5,255.5 C 136.326,255.17 118.326,255.503 100.5,256.5C 99.9569,256.44 99.6236,256.107 99.5,255.5C 117.996,254.173 136.329,254.173 154.5,255.5 Z"/></g>
<g><path style="opacity:1" fill="#6a97b6" d="M 643.5,255.5 C 662.004,254.172 680.671,254.172 699.5,255.5C 699.376,256.107 699.043,256.44 698.5,256.5C 680.341,255.503 662.008,255.17 643.5,255.5 Z"/></g>
<g><path style="opacity:1" fill="#b2b1b1" d="M 100.5,256.5 C 118.326,255.503 136.326,255.17 154.5,255.5C 147.938,270.291 141.104,284.958 134,299.5C 122.97,284.981 111.803,270.647 100.5,256.5 Z"/></g>
<g><path style="opacity:1" fill="#b2b1b1" d="M 643.5,255.5 C 662.008,255.17 680.341,255.503 698.5,256.5C 687.19,270.814 675.857,285.148 664.5,299.5C 661.565,293.963 658.898,288.296 656.5,282.5C 649.656,277.911 642.99,273.078 636.5,268C 638.734,263.69 641.068,259.524 643.5,255.5 Z"/></g>
<g><path style="opacity:1" fill="#b3b1b1" d="M 398.5,318.5 C 402.194,321.527 405.527,324.86 408.5,328.5C 408.5,332.167 408.5,335.833 408.5,339.5C 404.833,339.5 401.167,339.5 397.5,339.5C 397.175,332.313 397.509,325.313 398.5,318.5 Z"/></g>
<g><path style="opacity:1" fill="#726972" d="M 345.5,325.5 C 345.5,326.5 345.5,327.5 345.5,328.5C 346.833,328.5 348.167,328.5 349.5,328.5C 348.081,329.451 346.415,329.784 344.5,329.5C 344.232,327.901 344.566,326.568 345.5,325.5 Z"/></g>
<g><path style="opacity:1" fill="#99695b" d="M 462.5,324.5 C 463.461,326.265 463.795,328.265 463.5,330.5C 461.585,330.784 459.919,330.451 458.5,329.5C 459.833,329.5 461.167,329.5 462.5,329.5C 462.5,327.833 462.5,326.167 462.5,324.5 Z"/></g>
<g><path style="opacity:1" fill="#b1b1b1" d="M 356.5,331.5 C 363.833,331.5 371.167,331.5 378.5,331.5C 378.5,334.833 378.5,338.167 378.5,341.5C 368.123,342.736 358.123,345.403 348.5,349.5C 347.018,343.909 346.018,338.242 345.5,332.5C 349.371,332.815 353.038,332.482 356.5,331.5 Z"/></g>
<g><path style="opacity:1" fill="#b1b1b1" d="M 414.5,331.5 C 430.543,331.932 446.543,332.932 462.5,334.5C 462.337,340.974 461.337,347.308 459.5,353.5C 446.02,346.429 431.687,342.262 416.5,341C 414.656,338.196 413.989,335.03 414.5,331.5 Z"/></g>
<g><path style="opacity:1" fill="#b1b1b1" d="M 319.5,335.5 C 321.5,335.5 323.5,335.5 325.5,335.5C 326.938,342.458 328.271,349.458 329.5,356.5C 326.094,360.906 321.76,364.406 316.5,367C 312.352,370.314 308.352,373.814 304.5,377.5C 300.628,365.219 296.961,352.885 293.5,340.5C 302.279,338.817 310.945,337.151 319.5,335.5 Z"/></g>
<g><path style="opacity:1" fill="#b2b1b1" d="M 473.5,336.5 C 484.958,337.661 496.291,339.661 507.5,342.5C 503.568,354.464 499.734,366.464 496,378.5C 487.904,371.068 479.237,364.401 470,358.5C 470.706,351.131 471.872,343.798 473.5,336.5 Z"/></g>
<g><path style="opacity:1" fill="#598db4" d="M 398.5,318.5 C 397.509,325.313 397.175,332.313 397.5,339.5C 401.167,339.5 404.833,339.5 408.5,339.5C 408.5,335.833 408.5,332.167 408.5,328.5C 409.483,332.298 409.817,336.298 409.5,340.5C 405.167,340.5 400.833,340.5 396.5,340.5C 396.334,332.493 396.5,324.493 397,316.5C 397.717,317.044 398.217,317.711 398.5,318.5 Z"/></g>
<g><path style="opacity:1" fill="#b2b1b1" d="M 263.5,346.5 C 266.547,345.855 268.713,346.855 270,349.5C 275.833,365 281.667,380.5 287.5,396C 286.705,397.795 285.538,399.295 284,400.5C 275.864,403.267 267.698,405.934 259.5,408.5C 255.607,403.734 252.441,398.4 250,392.5C 244.696,380.725 239.529,368.892 234.5,357C 234.645,356.228 234.978,355.561 235.5,355C 244.971,352.217 254.304,349.384 263.5,346.5 Z"/></g>
<g><path style="opacity:1" fill="#5b697e" d="M 388.5,350.5 C 394.678,349.183 401.012,349.183 407.5,350.5C 407.376,351.107 407.043,351.44 406.5,351.5C 400.69,350.51 394.69,350.177 388.5,350.5 Z"/></g>
<g><path style="opacity:1" fill="#b1b1b1" d="M 530.5,347.5 C 539.405,350.144 548.405,352.644 557.5,355C 560.62,355.585 563.287,356.919 565.5,359C 557.67,375.661 549.337,391.995 540.5,408C 532.626,408.093 524.959,406.76 517.5,404C 515.306,401.305 513.306,398.472 511.5,395.5C 517.841,379.471 524.175,363.471 530.5,347.5 Z"/></g>
<g><path style="opacity:1" fill="#f9671e" d="M 388.5,350.5 C 394.69,350.177 400.69,350.51 406.5,351.5C 396.54,354.711 386.874,358.711 377.5,363.5C 372.226,361.53 367.226,359.03 362.5,356C 370.783,352.598 379.45,350.764 388.5,350.5 Z"/></g>
<g><path style="opacity:1" fill="#fa671d" d="M 418.5,352.5 C 455.291,357.802 484.457,375.469 506,405.5C 506.667,406.167 506.667,406.833 506,407.5C 497.153,398.996 486.987,392.496 475.5,388C 466.954,384.929 458.288,382.262 449.5,380C 428.008,376.308 406.674,371.974 385.5,367C 396.325,361.583 407.325,356.75 418.5,352.5 Z"/></g>
<g><path style="opacity:1" fill="#fb671d" d="M 352.5,358.5 C 358.478,361.489 364.478,364.489 370.5,367.5C 363.487,373.009 356.321,378.342 349,383.5C 339.324,380.859 329.491,379.026 319.5,378C 329.607,369.948 340.607,363.448 352.5,358.5 Z"/></g>
<g><path style="opacity:1" fill="#b2b1b1" d="M 209.5,363.5 C 211.467,363.261 213.301,363.594 215,364.5C 224.121,381.245 233.621,397.745 243.5,414C 233.124,418.737 222.791,423.57 212.5,428.5C 200.022,412.224 188.022,395.558 176.5,378.5C 177.09,377.201 178.09,376.368 179.5,376C 189.704,372.057 199.704,367.89 209.5,363.5 Z"/></g>
<g><path style="opacity:1" fill="#b2b1b1" d="M 585.5,364.5 C 616.901,375.7 646.901,389.867 675.5,407C 660.682,422.985 645.348,438.485 629.5,453.5C 606.174,439.003 581.84,426.336 556.5,415.5C 566.432,398.635 576.098,381.635 585.5,364.5 Z"/></g>
<g><path style="opacity:1" fill="#fe671b" d="M 376.5,370.5 C 398.98,376.081 421.646,380.915 444.5,385C 473.726,389.515 497.226,403.348 515,426.5C 527.535,447.847 531.868,470.847 528,495.5C 525.279,514.999 518.613,532.999 508,549.5C 489.881,485.751 452.381,436.918 395.5,403C 382.965,396.064 369.965,390.231 356.5,385.5C 362.877,379.993 369.544,374.993 376.5,370.5 Z"/></g>
<g><path style="opacity:1" fill="#fc671c" d="M 311.5,384.5 C 321.99,383.99 332.323,384.99 342.5,387.5C 343.932,387.733 344.432,388.4 344,389.5C 338.457,395.374 333.29,401.541 328.5,408C 310.911,406.044 296.077,411.544 284,424.5C 286.668,417.114 290.335,410.114 295,403.5C 299.963,396.704 305.463,390.37 311.5,384.5 Z"/></g>
<g><path style="opacity:1" fill="#fe671b" d="M 350.5,390.5 C 391.549,403.723 426.049,426.723 454,459.5C 478.263,487.86 494.43,520.36 502.5,557C 483.95,581.205 459.783,597.039 430,604.5C 420.886,596.045 413.219,586.378 407,575.5C 401.453,565.074 396.453,554.408 392,543.5C 381.509,509.201 371.176,474.868 361,440.5C 355.868,427.203 347.035,417.203 334.5,410.5C 339.477,403.526 344.81,396.859 350.5,390.5 Z"/></g>
<g><path style="opacity:1" fill="#b2b1b1" d="M 142.5,393.5 C 145.614,394.091 148.114,395.758 150,398.5C 161.457,412.959 173.29,427.126 185.5,441C 180.167,444.333 174.833,447.667 169.5,451C 168.5,451.667 167.5,451.667 166.5,451C 151.5,436 136.5,421 121.5,406C 128.409,401.572 135.409,397.405 142.5,393.5 Z"/></g>
<g><path style="opacity:1" fill="#fc671c" d="M 310.5,414.5 C 314.846,414.334 319.179,414.501 323.5,415C 298.183,453.531 290.683,495.364 301,540.5C 303.92,551.928 307.587,562.928 312,573.5C 280.848,542.723 267.515,505.389 272,461.5C 272.815,454.606 274.481,447.939 277,441.5C 285.7,429.286 296.866,420.286 310.5,414.5 Z"/></g>
<g><path style="opacity:1" fill="#b1b1b1" d="M 272.5,413.5 C 273.873,413.343 275.207,413.51 276.5,414C 268.116,429.822 262.949,446.655 261,464.5C 251.975,452.975 243.141,441.309 234.5,429.5C 246.79,423.015 259.456,417.681 272.5,413.5 Z"/></g>
<g><path style="opacity:1" fill="#fd671b" d="M 329.5,416.5 C 336.186,418.268 341.686,421.935 346,427.5C 349.252,432.334 352.252,437.334 355,442.5C 363.597,468.886 371.264,495.552 378,522.5C 386.591,553.022 400.924,580.356 421,604.5C 421.432,605.6 420.932,606.267 419.5,606.5C 386.389,610.844 355.722,604.01 327.5,586C 308.225,555.645 300.392,522.478 304,486.5C 306.882,461.012 315.382,437.679 329.5,416.5 Z"/></g>
<g><path style="opacity:1" fill="#b2b1b1" d="M 524.5,417.5 C 538.257,418.471 551.257,422.638 563.5,430C 555.454,440.59 547.287,451.09 539,461.5C 536.439,445.984 531.606,431.318 524.5,417.5 Z"/></g>
<g><path style="opacity:1" fill="#b1b1b1" d="M 379.5,618.5 C 392.018,618.432 404.684,618.432 417.5,618.5C 411.167,626.5 404.833,634.5 398.5,642.5C 392.112,634.457 385.779,626.457 379.5,618.5 Z"/></g>
</svg>
