<?xml version="1.0" encoding="UTF-8"?>
<!DOCTYPE svg PUBLIC "-//W3C//DTD SVG 1.1//EN" "http://www.w3.org/Graphics/SVG/1.1/DTD/svg11.dtd">
<svg xmlns="http://www.w3.org/2000/svg" version="1.1" width="500px" height="458px" style="shape-rendering:geometricPrecision; text-rendering:geometricPrecision; image-rendering:optimizeQuality; fill-rule:evenodd; clip-rule:evenodd" xmlns:xlink="http://www.w3.org/1999/xlink">
<g><path style="opacity:0.938" fill="#1d3060" d="M 227.5,8.5 C 232.734,8.95912 237.9,9.62578 243,10.5C 247.667,37.1667 252.333,63.8333 257,90.5C 256.344,63.5088 256.511,36.5088 257.5,9.5C 262.833,9.5 268.167,9.5 273.5,9.5C 272.43,57.4967 271.43,105.497 270.5,153.5C 265.5,153.5 260.5,153.5 255.5,153.5C 251.067,127.499 246.567,101.499 242,75.5C 241.5,101.498 241.333,127.498 241.5,153.5C 236.167,153.5 230.833,153.5 225.5,153.5C 226.132,105.166 226.799,56.8328 227.5,8.5 Z"/></g>
<g><path style="opacity:0.939" fill="#1e3160" d="M 192.5,11.5 C 193.496,11.4142 194.329,11.7476 195,12.5C 201.608,53.8169 208.108,95.1502 214.5,136.5C 211.149,155.316 200.149,162.149 181.5,157C 176.667,154.833 173.167,151.333 171,146.5C 167.564,130.621 164.731,114.621 162.5,98.5C 158.483,72.2283 154.15,45.7283 149.5,19C 153.99,18.1128 158.49,17.2794 163,16.5C 164.326,16.7549 165.326,17.4216 166,18.5C 172.455,59.8511 178.955,101.184 185.5,142.5C 190.378,142.449 195.045,141.615 199.5,140C 192.294,98.2451 185.627,56.0784 179.5,13.5C 184.049,13.3755 188.382,12.7089 192.5,11.5 Z"/></g>
<g><path style="opacity:0.941" fill="#1e3160" d="M 303.5,11.5 C 314.164,13.222 324.831,15.0553 335.5,17C 344.482,21.4731 347.649,28.6397 345,38.5C 339.279,75.5499 333.279,112.55 327,149.5C 325.5,153.667 322.667,156.5 318.5,158C 314.167,158.667 309.833,158.667 305.5,158C 297.187,156.614 288.854,155.448 280.5,154.5C 287.848,106.746 295.515,59.0791 303.5,11.5 Z M 316.5,29.5 C 320.714,30.702 325.048,31.3686 329.5,31.5C 324.113,68.542 318.446,105.542 312.5,142.5C 307.594,142.628 302.927,141.794 298.5,140C 304.658,103.216 310.658,66.3826 316.5,29.5 Z"/></g>
<g><path style="opacity:0.937" fill="#1e3160" d="M 114.5,26.5 C 116.144,26.2865 117.644,26.6198 119,27.5C 133.5,72.3333 148,117.167 162.5,162C 157.752,165.306 152.419,167.139 146.5,167.5C 144.221,157.159 141.221,146.992 137.5,137C 134.519,127.53 131.519,117.697 128.5,107.5C 124.214,108.707 119.88,109.707 115.5,110.5C 121.221,130.997 127.554,151.33 134.5,171.5C 129.805,173.789 124.972,175.789 120,177.5C 104.255,131.765 89.4212,85.7646 75.5,39.5C 80.0708,38.4771 84.5708,37.1438 89,35.5C 96.7586,55.4387 103.759,75.772 110,96.5C 114.004,94.6654 118.17,93.3321 122.5,92.5C 116.596,72.5999 110.263,52.4333 103.5,32C 106.95,29.6864 110.617,27.8531 114.5,26.5 Z"/></g>
<g><path style="opacity:0.936" fill="#1e3160" d="M 382.5,30.5 C 385.85,30.335 389.183,30.5017 392.5,31C 401.5,34 410.5,37 419.5,40C 420.022,40.5613 420.355,41.228 420.5,42C 419.125,46.6252 417.459,51.1252 415.5,55.5C 406.452,52.6544 397.452,49.6544 388.5,46.5C 383.017,61.115 378.017,75.9483 373.5,91C 379.679,94.5628 386.345,97.0628 393.5,98.5C 392.517,103.954 391.017,109.287 389,114.5C 382.165,112.248 375.332,109.914 368.5,107.5C 363.119,122.185 358.119,137.018 353.5,152C 353.905,152.945 354.572,153.612 355.5,154C 364.286,156.817 372.952,159.817 381.5,163C 379.789,167.972 377.789,172.805 375.5,177.5C 365.887,174.18 356.22,171.013 346.5,168C 338.085,163.652 335.252,156.819 338,147.5C 349.938,110.352 362.271,73.3525 375,36.5C 377.114,33.8792 379.614,31.8792 382.5,30.5 Z"/></g>
<g><path style="opacity:0.934" fill="#1e3160" d="M 53.5,48.5 C 56.7873,52.9009 59.454,57.7342 61.5,63C 56.8043,65.0099 52.471,67.5099 48.5,70.5C 67.1667,108.5 85.8333,146.5 104.5,184.5C 99.5165,187.766 94.1831,189.933 88.5,191C 71.157,153.136 52.9903,115.302 34,77.5C 33.6667,77.1667 33.3333,76.8333 33,76.5C 29.1394,78.7636 25.1394,80.7636 21,82.5C 18.007,78.5221 15.507,74.1888 13.5,69.5C 26.6494,62.1193 39.9827,55.1193 53.5,48.5 Z"/></g>
<g><path style="opacity:0.937" fill="#1e3160" d="M 444.5,50.5 C 456.272,54.9695 467.439,60.6362 478,67.5C 481.537,72.5086 482.204,77.8419 480,83.5C 471.939,100.623 463.605,117.623 455,134.5C 453.786,136.049 452.286,137.215 450.5,138C 447.574,138.218 444.74,138.718 442,139.5C 437.109,160.402 431.609,181.069 425.5,201.5C 420.592,199.557 416.259,196.89 412.5,193.5C 417.343,173.13 422.343,152.796 427.5,132.5C 427.132,131.09 426.299,130.09 425,129.5C 415.682,148.136 406.349,166.802 397,185.5C 395.951,186.517 394.784,186.684 393.5,186C 389.235,184.381 385.569,182.048 382.5,179C 403.587,136.328 424.253,93.4945 444.5,50.5 Z M 452.5,71.5 C 456.836,73.332 460.836,75.6654 464.5,78.5C 458.101,92.9655 450.935,106.965 443,120.5C 439.106,118.803 435.273,116.97 431.5,115C 438.64,100.555 445.64,86.0546 452.5,71.5 Z"/></g>
<g><path style="opacity:0.86" fill="#f9f8f9" d="M 232.5,168.5 C 296.301,165.617 355.635,180.284 410.5,212.5C 409.5,215.833 408.5,219.167 407.5,222.5C 427.158,223.333 446.825,223.833 466.5,224C 473.551,224.211 480.551,224.878 487.5,226C 490.637,230.095 489.637,232.762 484.5,234C 456.045,237.962 428.045,242.629 400.5,248C 398.171,252.783 396.838,257.616 396.5,262.5C 426.862,255.59 457.529,251.59 488.5,250.5C 489.641,252.421 489.808,254.421 489,256.5C 453.315,268.062 417.815,280.229 382.5,293C 352.287,352.047 308.287,397.88 250.5,430.5C 224.329,415.607 200.496,397.607 179,376.5C 131.287,399.606 84.1207,423.606 37.5,448.5C 36.2638,447.754 34.9305,447.421 33.5,447.5C 33.3398,445.801 33.5065,444.134 34,442.5C 54.7896,423.69 76.6229,406.19 99.5,390C 92.1699,388.501 88.1699,384.001 87.5,376.5C 88.0955,371.689 89.2622,367.022 91,362.5C 97.2265,348.38 103.726,334.38 110.5,320.5C 110,320.167 109.5,319.833 109,319.5C 77.8799,329.207 47.0466,339.707 16.5,351C 14.5,351.667 12.5,351.667 10.5,351C 8.87558,347.794 9.54224,345.128 12.5,343C 45.345,322.242 79.6783,304.075 115.5,288.5C 106.733,271.521 100.066,253.021 95.5,233C 94.6138,229.42 93.2804,226.087 91.5,223C 91.4526,219.239 91.4526,215.072 91.5,210.5C 135.629,186.341 182.629,172.341 232.5,168.5 Z"/></g>
<g><path style="opacity:1" fill="#253563" d="M 401.5,227.5 C 400.363,232.905 399.03,238.239 397.5,243.5C 394.129,251.27 391.129,259.27 388.5,267.5C 385.264,274.316 382.264,281.316 379.5,288.5C 358.412,332.46 328.412,369.293 289.5,399C 277.685,408.076 265.352,416.409 252.5,424C 249.581,424.552 246.914,423.885 244.5,422C 221.242,407.245 199.575,390.411 179.5,371.5C 175.215,366.571 170.715,361.904 166,357.5C 151.639,363.597 137.806,370.597 124.5,378.5C 119.301,380.93 113.968,383.097 108.5,385C 98.9418,388.075 93.6085,384.742 92.5,375C 92.7134,371.358 93.5468,367.858 95,364.5C 103.181,346.807 111.347,329.14 119.5,311.5C 121.76,307.313 123.76,302.979 125.5,298.5C 124.071,296.107 122.737,293.774 121.5,291.5C 110.148,266.946 101.482,241.446 95.5,215C 162.838,176.205 234.838,164.205 311.5,179C 343.636,186.379 374.303,197.712 403.5,213C 404.059,213.725 404.392,214.558 404.5,215.5C 403.495,219.518 402.495,223.518 401.5,227.5 Z"/></g>
<g><path style="opacity:1" fill="#fbfbfb" d="M 192.5,344.5 C 204.977,360.477 219.31,374.643 235.5,387C 240.5,390.667 245.5,394.333 250.5,398C 253.478,398.833 255.811,398 257.5,395.5C 319.292,353.63 360.292,296.63 380.5,224.5C 368.308,219.576 355.975,214.909 343.5,210.5C 351.273,248.191 345.106,283.525 325,316.5C 302.28,349.012 271.114,367.678 231.5,372.5C 230.167,371.833 229.167,370.833 228.5,369.5C 232.439,368.673 236.439,368.006 240.5,367.5C 244.227,366.652 247.893,365.652 251.5,364.5C 265.088,360.871 277.422,354.871 288.5,346.5C 291.891,345.471 294.557,343.471 296.5,340.5C 311.245,329.424 322.245,315.424 329.5,298.5C 333.663,291.021 336.663,283.021 338.5,274.5C 344.021,252.55 343.687,230.717 337.5,209C 333.178,207.725 328.844,206.558 324.5,205.5C 321.888,204.629 319.221,203.963 316.5,203.5C 313.873,202.908 311.206,202.575 308.5,202.5C 263.835,193.021 219.501,194.854 175.5,208C 159.095,212.795 143.428,219.128 128.5,227C 132.754,242.265 138.087,257.098 144.5,271.5C 140.19,276.814 135.857,282.148 131.5,287.5C 120.898,265.863 112.565,243.363 106.5,220C 175.357,182.421 248.024,173.088 324.5,192C 348.618,198.811 371.618,208.145 393.5,220C 372.847,303.27 326.181,367.27 253.5,412C 251.956,413.187 250.289,413.52 248.5,413C 221.549,396.401 197.215,376.401 175.5,353C 181.162,350.169 186.829,347.336 192.5,344.5 Z"/></g>
<g><path style="opacity:1" fill="#fbbb37" d="M 308.5,202.5 C 286.442,200.906 264.442,201.239 242.5,203.5C 239.615,203.194 236.948,203.527 234.5,204.5C 209.431,207.764 185.431,214.431 162.5,224.5C 159.921,224.394 157.588,225.061 155.5,226.5C 151.938,227.772 148.938,229.772 146.5,232.5C 149.107,241.986 152.107,251.319 155.5,260.5C 152.167,264.5 148.5,268.167 144.5,271.5C 138.087,257.098 132.754,242.265 128.5,227C 143.428,219.128 159.095,212.795 175.5,208C 219.501,194.854 263.835,193.021 308.5,202.5 Z"/></g>
<g><path style="opacity:1" fill="#ef5333" d="M 308.5,202.5 C 311.206,202.575 313.873,202.908 316.5,203.5C 315.885,208.526 315.051,213.526 314,218.5C 309.119,219.628 304.619,221.628 300.5,224.5C 299.494,224.062 299.494,223.396 300.5,222.5C 292.076,222.346 283.742,223.513 275.5,226C 273.667,227.833 271.833,229.667 270,231.5C 270.409,229.775 270.242,228.108 269.5,226.5C 261.865,228.326 254.198,229.992 246.5,231.5C 245.167,222.167 243.833,212.833 242.5,203.5C 264.442,201.239 286.442,200.906 308.5,202.5 Z"/></g>
<g><path style="opacity:1" fill="#ef5333" d="M 234.5,204.5 C 236.273,214.141 237.94,223.807 239.5,233.5C 237.345,233.372 235.345,233.872 233.5,235C 231.284,237.553 228.784,239.72 226,241.5C 221.409,239.491 216.576,238.991 211.5,240C 200.072,242.857 188.739,246.023 177.5,249.5C 171.256,241.92 166.256,233.587 162.5,224.5C 185.431,214.431 209.431,207.764 234.5,204.5 Z"/></g>
<g><path style="opacity:1" fill="#1480c2" d="M 257.5,395.5 C 248.239,388.577 239.573,380.91 231.5,372.5C 271.114,367.678 302.28,349.012 325,316.5C 345.106,283.525 351.273,248.191 343.5,210.5C 355.975,214.909 368.308,219.576 380.5,224.5C 360.292,296.63 319.292,353.63 257.5,395.5 Z"/></g>
<g><path style="opacity:1" fill="#ee5536" d="M 324.5,205.5 C 328.844,206.558 333.178,207.725 337.5,209C 343.687,230.717 344.021,252.55 338.5,274.5C 326.371,293.929 309.704,308.262 288.5,317.5C 287.625,312.04 288.625,306.873 291.5,302C 297.333,298.945 303.333,296.278 309.5,294C 313.667,289.833 317.833,285.667 322,281.5C 324.61,270.828 327.11,260.161 329.5,249.5C 327.425,249.698 325.425,249.865 323.5,250C 326.685,247.116 329.518,243.949 332,240.5C 333.94,232.24 336.106,224.073 338.5,216C 333.464,215.905 328.464,216.405 323.5,217.5C 323.833,213.5 324.167,209.5 324.5,205.5 Z"/></g>
<g><path style="opacity:1" fill="#f9f9fa" d="M 327.5,220.5 C 329.167,220.5 330.833,220.5 332.5,220.5C 331.484,225.898 330.15,231.231 328.5,236.5C 325.054,238.278 321.387,239.278 317.5,239.5C 317.833,237.5 318.167,235.5 318.5,233.5C 315.882,233.779 313.382,234.446 311,235.5C 307.5,247.333 304,259.167 300.5,271C 300.833,271.5 301.167,272 301.5,272.5C 303.385,271.391 305.385,270.557 307.5,270C 309.516,266.455 310.849,262.622 311.5,258.5C 315.5,257.5 319.5,256.5 323.5,255.5C 322.27,263.423 320.27,271.09 317.5,278.5C 307.461,283.356 297.128,287.356 286.5,290.5C 284.9,290.449 283.4,290.116 282,289.5C 281.333,286.5 281.333,283.5 282,280.5C 286.877,263.867 292.544,247.533 299,231.5C 301.264,228.567 304.098,226.4 307.5,225C 314.26,223.334 320.927,221.834 327.5,220.5 Z"/></g>
<g><path style="opacity:1" fill="#ef5535" d="M 155.5,226.5 C 159.382,235.264 164.049,243.597 169.5,251.5C 164.841,254.497 160.175,257.497 155.5,260.5C 152.107,251.319 149.107,241.986 146.5,232.5C 148.938,229.772 151.938,227.772 155.5,226.5 Z"/></g>
<g><path style="opacity:1" fill="#fafbfc" d="M 290.5,226.5 C 291.833,226.5 293.167,226.5 294.5,226.5C 293.376,230.539 292.043,234.539 290.5,238.5C 288.5,239.5 286.5,240.5 284.5,241.5C 278.137,250.698 271.97,260.031 266,269.5C 265.333,270.833 265.333,272.167 266,273.5C 269.619,280.717 272.619,288.05 275,295.5C 269.444,298.707 263.61,300.874 257.5,302C 253.701,294.903 250.035,287.736 246.5,280.5C 241.845,291.296 237.678,302.296 234,313.5C 225.397,318.218 216.564,322.551 207.5,326.5C 215.569,302.305 224.902,278.305 235.5,254.5C 234.224,253.355 232.891,253.355 231.5,254.5C 231.167,254 230.833,253.5 230.5,253C 232.529,248.58 234.362,244.08 236,239.5C 237.491,237.996 239.324,237.163 241.5,237C 249.11,235.01 256.777,233.676 264.5,233C 259.912,242.987 256.079,253.154 253,263.5C 261.257,251.988 269.757,240.654 278.5,229.5C 282.706,228.863 286.706,227.863 290.5,226.5 Z"/></g>
<g><path style="opacity:1" fill="#f05738" d="M 401.5,227.5 C 427.889,227.198 454.222,228.031 480.5,230C 452.676,233.637 425.009,238.137 397.5,243.5C 399.03,238.239 400.363,232.905 401.5,227.5 Z"/></g>
<g><path style="opacity:1" fill="#fcfcfd" d="M 212.5,243.5 C 221.823,241.658 225.656,245.325 224,254.5C 216.333,273.167 208.667,291.833 201,310.5C 194.667,325.166 184.5,336.333 170.5,344C 153.802,352.349 137.136,360.682 120.5,369C 109.281,371.451 105.448,367.285 109,356.5C 121.082,327.671 134.748,299.671 150,272.5C 156.495,264.839 164.328,259.006 173.5,255C 186.572,250.987 199.572,247.154 212.5,243.5 Z"/></g>
<g><path style="opacity:1" fill="#1a81c3" d="M 379.5,288.5 C 382.264,281.316 385.264,274.316 388.5,267.5C 407.255,264.585 426.255,261.418 445.5,258C 457.159,256.534 468.825,255.534 480.5,255C 446.623,265.609 412.956,276.776 379.5,288.5 Z"/></g>
<g><path style="opacity:1" fill="#223462" d="M 192.5,265.5 C 193.552,265.351 194.552,265.517 195.5,266C 186.019,284.963 177.352,304.297 169.5,324C 163.916,327.817 157.916,330.983 151.5,333.5C 151.167,333.167 150.833,332.833 150.5,332.5C 159.118,311.93 168.285,291.596 178,271.5C 182.692,268.996 187.525,266.996 192.5,265.5 Z"/></g>
<g><path style="opacity:1" fill="#f05636" d="M 121.5,291.5 C 122.737,293.774 124.071,296.107 125.5,298.5C 123.76,302.979 121.76,307.313 119.5,311.5C 86.2368,321.891 53.2368,332.724 20.5,344C 52.6466,323.714 86.3133,306.214 121.5,291.5 Z"/></g>
<g><path style="opacity:1" fill="#ef5536" d="M 329.5,298.5 C 322.245,315.424 311.245,329.424 296.5,340.5C 289.613,339.951 286.28,336.117 286.5,329C 286.833,327.833 287.167,326.667 287.5,325.5C 303.501,319.506 317.501,310.506 329.5,298.5 Z"/></g>
<g><path style="opacity:1" fill="#ed5435" d="M 280.5,305.5 C 281.376,305.369 282.043,305.702 282.5,306.5C 280.974,311.306 279.641,316.14 278.5,321C 270.948,323.637 263.281,325.804 255.5,327.5C 255.176,323.445 255.509,319.445 256.5,315.5C 264.425,311.524 272.425,308.191 280.5,305.5 Z"/></g>
<g><path style="opacity:1" fill="#ee5334" d="M 239.5,313.5 C 241.731,315.076 243.397,317.243 244.5,320C 245.549,320.492 246.549,320.326 247.5,319.5C 248.487,322.768 248.82,326.102 248.5,329.5C 239.558,331.495 230.558,332.162 221.5,331.5C 226.632,328.203 231.632,324.703 236.5,321C 238.377,318.874 239.377,316.374 239.5,313.5 Z"/></g>
<g><path style="opacity:1" fill="#ee5435" d="M 288.5,346.5 C 277.422,354.871 265.088,360.871 251.5,364.5C 254.414,354.85 256.081,345.016 256.5,335C 264.014,333.398 271.347,331.232 278.5,328.5C 279.302,333.073 280.802,337.406 283,341.5C 284.055,344.056 285.888,345.723 288.5,346.5 Z"/></g>
<g><path style="opacity:1" fill="#ef5434" d="M 240.5,367.5 C 236.439,368.006 232.439,368.673 228.5,369.5C 223.833,365.5 219.5,361.167 215.5,356.5C 219.871,351.722 221.871,346.055 221.5,339.5C 230.567,339.629 239.567,338.962 248.5,337.5C 248.93,348.456 246.263,358.456 240.5,367.5 Z"/></g>
<g><path style="opacity:1" fill="#ed5838" d="M 210.5,350.5 C 207.46,347.461 204.794,344.127 202.5,340.5C 206.298,339.517 210.298,339.183 214.5,339.5C 214.524,343.787 213.19,347.453 210.5,350.5 Z"/></g>
<g><path style="opacity:1" fill="#fbbc36" d="M 202.5,340.5 C 204.794,344.127 207.46,347.461 210.5,350.5C 211.443,353.109 213.11,355.109 215.5,356.5C 219.5,361.167 223.833,365.5 228.5,369.5C 229.167,370.833 230.167,371.833 231.5,372.5C 239.573,380.91 248.239,388.577 257.5,395.5C 255.811,398 253.478,398.833 250.5,398C 245.5,394.333 240.5,390.667 235.5,387C 219.31,374.643 204.977,360.477 192.5,344.5C 195.833,343.167 199.167,341.833 202.5,340.5 Z"/></g>
<g><path style="opacity:1" fill="#1880c2" d="M 179.5,371.5 C 132.891,392.971 87.2248,416.304 42.5,441.5C 41.3044,441.154 41.3044,440.654 42.5,440C 68.6492,417.776 95.9825,397.276 124.5,378.5C 137.806,370.597 151.639,363.597 166,357.5C 170.715,361.904 175.215,366.571 179.5,371.5 Z"/></g>
</svg>
