<?xml version="1.0" encoding="UTF-8"?>
<!DOCTYPE svg PUBLIC "-//W3C//DTD SVG 1.1//EN" "http://www.w3.org/Graphics/SVG/1.1/DTD/svg11.dtd">
<svg xmlns="http://www.w3.org/2000/svg" version="1.1" width="400px" height="295px" style="shape-rendering:geometricPrecision; text-rendering:geometricPrecision; image-rendering:optimizeQuality; fill-rule:evenodd; clip-rule:evenodd" xmlns:xlink="http://www.w3.org/1999/xlink">
<g><path style="opacity:0.335" fill="#7a8186" d="M 175.5,7.5 C 176.329,15.6566 176.829,23.9899 177,32.5C 177.278,31.5842 177.778,30.9175 178.5,30.5C 178.5,31.5 178.5,32.5 178.5,33.5C 177.5,33.5 176.5,33.5 175.5,33.5C 175.5,24.8333 175.5,16.1667 175.5,7.5 Z"/></g>
<g><path style="opacity:0.137" fill="#969ba1" d="M 215.5,6.5 C 214.524,17.085 214.191,27.7517 214.5,38.5C 213.834,33.3441 213.501,28.0108 213.5,22.5C 213.505,16.7891 214.172,11.4558 215.5,6.5 Z"/></g>
<g><path style="opacity:0.055" fill="#878a8c" d="M 174.5,7.5 C 172.393,8.46822 170.059,8.80155 167.5,8.5C 167.5,18.8333 167.5,29.1667 167.5,39.5C 166.506,29.0131 166.172,18.3464 166.5,7.5C 169.167,7.5 171.833,7.5 174.5,7.5 Z"/></g>
<g><path style="opacity:1" fill="#122329" d="M 215.5,6.5 C 221.601,6.65938 227.601,7.32604 233.5,8.5C 234.45,18.4478 234.784,28.4478 234.5,38.5C 232.5,38.5 230.5,38.5 228.5,38.5C 228.666,30.16 228.5,21.8267 228,13.5C 225.959,12.5769 223.792,12.2436 221.5,12.5C 221.826,21.3494 221.493,30.0161 220.5,38.5C 218.5,38.5 216.5,38.5 214.5,38.5C 214.191,27.7517 214.524,17.085 215.5,6.5 Z"/></g>
<g><path style="opacity:0.055" fill="#797f82" d="M 240.5,8.5 C 240.5,19.1667 240.5,29.8333 240.5,40.5C 239.172,35.5442 238.505,30.2109 238.5,24.5C 238.505,18.7891 239.172,13.4558 240.5,8.5 Z"/></g>
<g><path style="opacity:0.997" fill="#102128" d="M 164.5,23.5 C 163.503,23.4701 162.836,23.9701 162.5,25C 163.425,30.1159 163.758,35.2825 163.5,40.5C 162.5,40.5 161.5,40.5 160.5,40.5C 159.458,39.2089 158.292,39.2089 157,40.5C 156.501,36.5138 156.334,32.5138 156.5,28.5C 154.5,28.5 152.5,28.5 150.5,28.5C 150.666,32.5138 150.499,36.5138 150,40.5C 147.959,41.4231 145.792,41.7564 143.5,41.5C 143.5,31.1667 143.5,20.8333 143.5,10.5C 149.858,8.74052 156.191,8.57386 162.5,10C 163,10.5 163.5,11 164,11.5C 164.499,15.4862 164.666,19.4862 164.5,23.5 Z M 155.5,22.5 C 154.391,22.5569 153.391,22.8902 152.5,23.5C 151.527,21.0521 151.194,18.3854 151.5,15.5C 152.833,15.5 154.167,15.5 155.5,15.5C 155.5,17.8333 155.5,20.1667 155.5,22.5 Z"/></g>
<g><path style="opacity:1" fill="#12232a" d="M 210.5,37.5 C 207.833,37.5 205.167,37.5 202.5,37.5C 202.837,33.3786 202.504,30.0452 201.5,27.5C 200.5,27.5 199.5,27.5 198.5,27.5C 198.44,26.9569 198.107,26.6236 197.5,26.5C 196.511,30.1073 196.177,33.774 196.5,37.5C 193.833,37.5 191.167,37.5 188.5,37.5C 188.5,37.1667 188.5,36.8333 188.5,36.5C 189.493,27.6822 189.827,18.6822 189.5,9.5C 190.058,8.21009 191.058,7.37675 192.5,7C 198.491,6.50051 204.491,6.33385 210.5,6.5C 210.5,16.8333 210.5,27.1667 210.5,37.5 Z M 198.5,12.5 C 199.5,12.5 200.5,12.5 201.5,12.5C 201.5,15.1667 201.5,17.8333 201.5,20.5C 200.5,20.5 199.5,20.5 198.5,20.5C 198.5,17.8333 198.5,15.1667 198.5,12.5 Z"/></g>
<g><path style="opacity:0.925" fill="#5e676c" d="M 251.5,9.5 C 254.831,9.01812 257.497,10.0181 259.5,12.5C 256.603,11.871 253.936,10.871 251.5,9.5 Z"/></g>
<g><path style="opacity:0.604" fill="#414d54" d="M 143.5,10.5 C 143.5,20.8333 143.5,31.1667 143.5,41.5C 145.792,41.7564 147.959,41.4231 150,40.5C 150.499,36.5138 150.666,32.5138 150.5,28.5C 152.5,28.5 154.5,28.5 156.5,28.5C 156.334,32.5138 156.501,36.5138 157,40.5C 158.292,39.2089 159.458,39.2089 160.5,40.5C 159.081,41.4511 157.415,41.7845 155.5,41.5C 155.5,37.5 155.5,33.5 155.5,29.5C 154.167,29.5 152.833,29.5 151.5,29.5C 151.5,33.8333 151.5,38.1667 151.5,42.5C 148.5,42.5 145.5,42.5 142.5,42.5C 142.172,31.6536 142.506,20.9869 143.5,10.5 Z"/></g>
<g><path style="opacity:1" fill="#39464c" d="M 233.5,8.5 C 234.458,8.9528 235.292,9.61947 236,10.5C 236.5,20.1609 236.666,29.8276 236.5,39.5C 233.5,39.5 230.5,39.5 227.5,39.5C 227.666,31.16 227.5,22.8267 227,14.5C 225.989,13.6634 224.822,13.33 223.5,13.5C 223.666,21.84 223.5,30.1733 223,38.5C 222.023,39.7736 221.189,39.7736 220.5,38.5C 221.493,30.0161 221.826,21.3494 221.5,12.5C 223.792,12.2436 225.959,12.5769 228,13.5C 228.5,21.8267 228.666,30.16 228.5,38.5C 230.5,38.5 232.5,38.5 234.5,38.5C 234.784,28.4478 234.45,18.4478 233.5,8.5 Z"/></g>
<g><path style="opacity:0.38" fill="#475258" d="M 155.5,22.5 C 155.5,20.1667 155.5,17.8333 155.5,15.5C 154.167,15.5 152.833,15.5 151.5,15.5C 151.194,18.3854 151.527,21.0521 152.5,23.5C 152.44,24.0431 152.107,24.3764 151.5,24.5C 150.513,21.2317 150.18,17.8984 150.5,14.5C 152.5,14.5 154.5,14.5 156.5,14.5C 156.806,17.3854 156.473,20.0521 155.5,22.5 Z"/></g>
<g><path style="opacity:1" fill="#16262d" d="M 240.5,8.5 C 244.234,8.32274 247.901,8.65608 251.5,9.5C 253.936,10.871 256.603,11.871 259.5,12.5C 260.833,21.8333 260.833,31.1667 259.5,40.5C 256.873,41.0916 254.206,41.4249 251.5,41.5C 247.766,41.6773 244.099,41.3439 240.5,40.5C 240.5,29.8333 240.5,19.1667 240.5,8.5 Z M 248.5,15.5 C 249.822,15.33 250.989,15.6634 252,16.5C 252.667,22.8333 252.667,29.1667 252,35.5C 251.259,34.3595 250.425,34.3595 249.5,35.5C 248.503,28.8665 248.17,22.1998 248.5,15.5 Z"/></g>
<g><path style="opacity:0.942" fill="#0e1f26" d="M 129.5,12.5 C 132.453,13.0035 135.286,14.0035 138,15.5C 138.667,22.8333 138.667,30.1667 138,37.5C 137.24,35.5035 136.74,33.8368 136.5,32.5C 134.161,33.4177 132.661,35.0844 132,37.5C 131.5,31.1754 131.334,24.8421 131.5,18.5C 129.901,18.2322 128.568,18.5655 127.5,19.5C 126.542,25.7436 126.209,32.077 126.5,38.5C 126.577,39.7498 127.244,40.5831 128.5,41C 126.875,41.8525 126.542,42.8525 127.5,44C 125.26,44.977 122.927,45.477 120.5,45.5C 120.167,45.5 119.833,45.5 119.5,45.5C 119.5,36.1667 119.5,26.8333 119.5,17.5C 122.036,14.3775 125.369,12.7109 129.5,12.5 Z"/></g>
<g><path style="opacity:0.192" fill="#475258" d="M 259.5,12.5 C 260.117,12.6107 260.617,12.944 261,13.5C 261.667,22.1667 261.667,30.8333 261,39.5C 260.617,40.056 260.117,40.3893 259.5,40.5C 260.833,31.1667 260.833,21.8333 259.5,12.5 Z"/></g>
<g><path style="opacity:1" fill="#15262c" d="M 282.5,15.5 C 282.461,16.7562 282.961,17.7562 284,18.5C 284.5,26.8267 284.666,35.16 284.5,43.5C 283.714,45.7351 282.048,46.7351 279.5,46.5C 274.51,46.2261 269.843,44.8927 265.5,42.5C 264.749,41.624 264.249,40.624 264,39.5C 263.197,31.1178 263.364,22.7845 264.5,14.5C 270.562,12.0016 276.562,12.3349 282.5,15.5 Z M 272.5,38.5 C 272.5,32.1667 272.5,25.8333 272.5,19.5C 273.822,19.33 274.989,19.6634 276,20.5C 276.499,26.4908 276.666,32.4908 276.5,38.5C 275.167,38.5 273.833,38.5 272.5,38.5 Z"/></g>
<g><path style="opacity:0.672" fill="#576167" d="M 272.5,38.5 C 271.509,32.021 271.176,25.3543 271.5,18.5C 273.467,18.2606 275.301,18.5939 277,19.5C 277.5,26.4921 277.666,33.4921 277.5,40.5C 275.447,40.5979 273.78,39.9313 272.5,38.5 Z M 272.5,38.5 C 273.833,38.5 275.167,38.5 276.5,38.5C 276.666,32.4908 276.499,26.4908 276,20.5C 274.989,19.6634 273.822,19.33 272.5,19.5C 272.5,25.8333 272.5,32.1667 272.5,38.5 Z"/></g>
<g><path style="opacity:0.192" fill="#455156" d="M 282.5,15.5 C 283.458,15.9528 284.292,16.6195 285,17.5C 285.824,26.3433 285.657,35.0099 284.5,43.5C 284.666,35.16 284.5,26.8267 284,18.5C 282.961,17.7562 282.461,16.7562 282.5,15.5 Z"/></g>
<g><path style="opacity:1" fill="#5c676c" d="M 119.5,17.5 C 119.5,26.8333 119.5,36.1667 119.5,45.5C 118.761,45.631 118.094,45.4643 117.5,45C 117.394,36.3707 117.56,27.5374 118,18.5C 118.383,17.944 118.883,17.6107 119.5,17.5 Z"/></g>
<g><path style="opacity:0.478" fill="#94999d" d="M 198.5,12.5 C 198.5,15.1667 198.5,17.8333 198.5,20.5C 199.5,20.5 200.5,20.5 201.5,20.5C 201.5,17.8333 201.5,15.1667 201.5,12.5C 202.477,15.2869 202.81,18.2869 202.5,21.5C 200.833,21.5 199.167,21.5 197.5,21.5C 197.19,18.2869 197.523,15.2869 198.5,12.5 Z M 198.5,12.5 C 199.5,12.5 200.5,12.5 201.5,12.5C 201.5,15.1667 201.5,17.8333 201.5,20.5C 200.5,20.5 199.5,20.5 198.5,20.5C 198.5,17.8333 198.5,15.1667 198.5,12.5 Z"/></g>
<g><path style="opacity:1" fill="#17272e" d="M 174.5,7.5 C 174.833,7.5 175.167,7.5 175.5,7.5C 175.5,16.1667 175.5,24.8333 175.5,33.5C 176.5,33.5 177.5,33.5 178.5,33.5C 178.5,32.5 178.5,31.5 178.5,30.5C 178.5,29.5 178.5,28.5 178.5,27.5C 181.167,27.5 183.833,27.5 186.5,27.5C 186.5,31.1667 186.5,34.8333 186.5,38.5C 185.167,38.5 183.833,38.5 182.5,38.5C 177.968,38.1818 173.634,38.5151 169.5,39.5C 168.833,39.5 168.167,39.5 167.5,39.5C 167.5,29.1667 167.5,18.8333 167.5,8.5C 170.059,8.80155 172.393,8.46822 174.5,7.5 Z"/></g>
<g><path style="opacity:0.192" fill="#5f696e" d="M 189.5,9.5 C 189.827,18.6822 189.493,27.6822 188.5,36.5C 187.933,28.6228 187.6,20.7894 187.5,13C 188.085,11.6976 188.751,10.531 189.5,9.5 Z"/></g>
<g><path style="opacity:0.647" fill="#909496" d="M 164.5,23.5 C 164.736,29.1443 164.403,34.811 163.5,40.5C 163.758,35.2825 163.425,30.1159 162.5,25C 162.836,23.9701 163.503,23.4701 164.5,23.5 Z"/></g>
<g><path style="opacity:1" fill="#2a383e" d="M 129.5,12.5 C 133.007,11.9935 136.174,12.6602 139,14.5C 139.667,23.1667 139.667,31.8333 139,40.5C 137.661,43.0943 135.494,44.5943 132.5,45C 128.56,46.0153 124.56,46.5153 120.5,46.5C 120.5,46.1667 120.5,45.8333 120.5,45.5C 122.927,45.477 125.26,44.977 127.5,44C 126.542,42.8525 126.875,41.8525 128.5,41C 127.244,40.5831 126.577,39.7498 126.5,38.5C 127.833,38.5 129.167,38.5 130.5,38.5C 130.5,32.1667 130.5,25.8333 130.5,19.5C 129.5,19.5 128.5,19.5 127.5,19.5C 128.568,18.5655 129.901,18.2322 131.5,18.5C 131.334,24.8421 131.5,31.1754 132,37.5C 132.661,35.0844 134.161,33.4177 136.5,32.5C 136.74,33.8368 137.24,35.5035 138,37.5C 138.667,30.1667 138.667,22.8333 138,15.5C 135.286,14.0035 132.453,13.0035 129.5,12.5 Z"/></g>
<g><path style="opacity:0.824" fill="#6f787e" d="M 198.5,27.5 C 198.5,31.1667 198.5,34.8333 198.5,38.5C 194.958,38.8128 191.625,38.4794 188.5,37.5C 191.167,37.5 193.833,37.5 196.5,37.5C 196.177,33.774 196.511,30.1073 197.5,26.5C 198.107,26.6236 198.44,26.9569 198.5,27.5 Z"/></g>
<g><path style="opacity:0.824" fill="#898f94" d="M 210.5,37.5 C 207.713,38.4767 204.713,38.81 201.5,38.5C 201.5,34.8333 201.5,31.1667 201.5,27.5C 202.504,30.0452 202.837,33.3786 202.5,37.5C 205.167,37.5 207.833,37.5 210.5,37.5 Z"/></g>
<g><path style="opacity:0.38" fill="#6b7479" d="M 169.5,39.5 C 173.634,38.5151 177.968,38.1818 182.5,38.5C 181.739,39.3909 180.739,40.0576 179.5,40.5C 176.242,39.5827 172.909,39.2493 169.5,39.5 Z"/></g>
<g><path style="opacity:0.516" fill="#f8faf9" d="M 200.5,52.5 C 199.406,54.3594 198.573,56.3594 198,58.5C 197.501,53.5111 197.334,48.5111 197.5,43.5C 182.309,43.3736 167.309,44.0403 152.5,45.5C 137.259,43.8644 126.426,49.8644 120,63.5C 119.501,58.5111 119.334,53.5111 119.5,48.5C 115.158,48.7395 110.824,49.0728 106.5,49.5C 110.958,48.0848 115.625,47.0848 120.5,46.5C 121.013,49.6138 121.846,52.6138 123,55.5C 125.596,51.6099 129.096,48.7766 133.5,47C 137.77,45.7458 142.104,44.7458 146.5,44C 164.138,42.5845 181.805,41.7512 199.5,41.5C 199.185,45.3714 199.518,49.0381 200.5,52.5 Z"/></g>
<g><path style="opacity:0.192" fill="#646d73" d="M 259.5,40.5 C 259.631,41.2389 259.464,41.9056 259,42.5C 256.502,42.6472 254.002,42.3139 251.5,41.5C 254.206,41.4249 256.873,41.0916 259.5,40.5 Z"/></g>
<g><path style="opacity:1" fill="#c1c8cd" d="M 152.5,45.5 C 155.187,45.3359 157.854,45.5026 160.5,46C 153.53,46.669 153.196,47.169 159.5,47.5C 151.897,48.1846 144.23,49.3513 136.5,51C 131.055,53.4452 126.888,57.2786 124,62.5C 122.852,98.4447 122.019,134.445 121.5,170.5C 120.086,171.624 118.586,172.624 117,173.5C 117.162,132.821 116.329,92.4876 114.5,52.5C 102.517,54.6613 90.5167,56.828 78.5,59C 61.3066,63.506 43.9732,67.506 26.5,71C 18.5486,73.2854 12.7152,78.1187 9,85.5C 8.16881,124.669 8.33547,163.669 9.5,202.5C 15.4262,200.302 21.4262,198.302 27.5,196.5C 31.737,195.119 36.0703,194.119 40.5,193.5C 40.5,161.833 40.5,130.167 40.5,98.5C 40.8333,97.5 41.5,96.8333 42.5,96.5C 44.1639,121.317 45.1639,146.317 45.5,171.5C 56.3889,168.695 67.3889,166.361 78.5,164.5C 78.5,139.5 78.5,114.5 78.5,89.5C 79.4745,88.365 80.6412,87.365 82,86.5C 82.1676,118.669 82.6676,150.669 83.5,182.5C 91.7394,180.459 100.073,179.293 108.5,179C 91.5273,192.136 77.194,207.636 65.5,225.5C 64.6715,223.067 65.1715,220.733 67,218.5C 70.4135,213.934 73.5802,209.268 76.5,204.5C 77.7573,201.573 79.7573,199.239 82.5,197.5C 87.3308,192.837 92.3308,188.337 97.5,184C 91.5635,184.749 85.5635,185.583 79.5,186.5C 79.5,180.167 79.5,173.833 79.5,167.5C 67.805,170.007 56.1383,172.674 44.5,175.5C 43.503,182.468 43.1697,189.468 43.5,196.5C 30.7822,198.738 18.4489,202.405 6.5,207.5C 5.3334,166.504 5.16673,125.504 6,84.5C 7.12197,82.5932 7.95531,80.5932 8.5,78.5C 8.85883,76.629 9.85883,75.129 11.5,74C 14.8333,72 18.1667,70 21.5,68C 38.7286,63.5881 56.0619,59.7548 73.5,56.5C 84.7328,54.6887 95.7328,52.3554 106.5,49.5C 110.824,49.0728 115.158,48.7395 119.5,48.5C 119.334,53.5111 119.501,58.5111 120,63.5C 126.426,49.8644 137.259,43.8644 152.5,45.5 Z"/></g>
<g><path style="opacity:1" fill="#c3cacf" d="M 200.5,52.5 C 200.833,51.5 201.5,50.8333 202.5,50.5C 204.843,47.6704 207.843,45.8371 211.5,45C 230.582,44.2843 249.582,45.2843 268.5,48C 270.274,48.9704 272.107,49.8037 274,50.5C 278.124,49.4285 282.29,49.2618 286.5,50C 296.218,51.6195 305.885,53.4528 315.5,55.5C 315.334,61.8421 315.5,68.1754 316,74.5C 320.9,62.631 329.733,57.9644 342.5,60.5C 357.147,63.7423 371.48,67.7423 385.5,72.5C 387.102,74.0739 389.102,74.7406 391.5,74.5C 391.5,92.1667 391.5,109.833 391.5,127.5C 380.068,124.912 368.735,121.912 357.5,118.5C 357.219,114.812 356.719,111.145 356,107.5C 355.5,126.164 355.333,144.83 355.5,163.5C 357.167,163.5 358.833,163.5 360.5,163.5C 360.481,158.53 361.814,154.197 364.5,150.5C 366.292,150.366 367.958,150.699 369.5,151.5C 376.318,153.995 383.318,156.328 390.5,158.5C 391.499,174.486 391.833,190.486 391.5,206.5C 371.949,200.696 352.282,195.362 332.5,190.5C 330.774,190.185 329.107,190.019 327.5,190C 330.038,193.447 331.705,197.28 332.5,201.5C 340.231,229.872 333.565,254.205 312.5,274.5C 312.5,275.167 312.167,275.5 311.5,275.5C 298.197,284.161 283.53,288.161 267.5,287.5C 256.585,287.704 247.251,284.037 239.5,276.5C 229.36,267.855 222.194,257.188 218,244.5C 217.122,237.906 215.955,231.406 214.5,225C 197.65,215.407 179.983,207.741 161.5,202C 181.666,198.723 201.333,200.556 220.5,207.5C 221.958,205.862 222.292,204.195 221.5,202.5C 196.983,195.148 172.316,194.648 147.5,201C 141.568,202.968 135.901,205.468 130.5,208.5C 129.702,208.043 129.369,207.376 129.5,206.5C 131.93,201.804 134.264,196.97 136.5,192C 126.309,193.509 116.643,196.842 107.5,202C 102.833,204.667 98.1667,207.333 93.5,210C 91.3825,211.049 89.7158,212.549 88.5,214.5C 80.9466,219.206 73.7799,224.539 67,230.5C 65.7949,229.929 64.6283,229.262 63.5,228.5C 63.6236,227.893 63.9569,227.56 64.5,227.5C 69.6359,224.619 74.6359,220.786 79.5,216C 98.2207,202.14 118.887,192.307 141.5,186.5C 139.993,191.023 138.326,195.523 136.5,200C 136.833,200.5 137.167,201 137.5,201.5C 146.011,197.289 155.011,194.789 164.5,194C 185.303,192.213 205.636,194.38 225.5,200.5C 225.833,201 226.167,201.5 226.5,202C 225.197,204.744 224.197,207.577 223.5,210.5C 222.85,210.804 222.183,211.137 221.5,211.5C 210.667,206.667 199.334,204 187.5,203.5C 182.684,202.35 177.684,202.184 172.5,203C 173.244,204.039 174.244,204.539 175.5,204.5C 190.947,208.392 205.28,214.725 218.5,223.5C 219.49,250.962 232.49,270.129 257.5,281C 297.266,287.356 321.766,270.856 331,231.5C 331.667,225.5 331.667,219.5 331,213.5C 330.707,209.132 329.54,205.132 327.5,201.5C 324.094,193.254 319.261,185.921 313,179.5C 312.833,138.998 312.333,98.6646 311.5,58.5C 304.765,56.4368 297.765,55.1034 290.5,54.5C 286.6,53.5701 282.6,53.2367 278.5,53.5C 278.667,82.8352 278.5,112.169 278,141.5C 276.672,144.312 275.172,146.978 273.5,149.5C 272.833,134.167 272.167,118.833 271.5,103.5C 259.388,101.447 247.054,100.113 234.5,99.5C 234.5,91.1667 234.5,82.8333 234.5,74.5C 236.833,74.5 239.167,74.5 241.5,74.5C 242.439,78.2494 243.439,82.0827 244.5,86C 252.741,87.86 261.074,89.0267 269.5,89.5C 270.209,90.404 271.209,90.7373 272.5,90.5C 272.829,77.9887 272.495,65.6554 271.5,53.5C 270.4,52.4415 269.066,51.6082 267.5,51C 249.222,48.7383 230.889,47.7383 212.5,48C 206.584,49.748 202.917,53.5813 201.5,59.5C 200.566,60.5676 200.232,61.901 200.5,63.5C 199.502,93.3287 199.169,123.329 199.5,153.5C 197.833,153.5 196.167,153.5 194.5,153.5C 194.832,117.996 194.498,82.6627 193.5,47.5C 182.167,47.5 170.833,47.5 159.5,47.5C 153.196,47.169 153.53,46.669 160.5,46C 157.854,45.5026 155.187,45.3359 152.5,45.5C 167.309,44.0403 182.309,43.3736 197.5,43.5C 197.334,48.5111 197.501,53.5111 198,58.5C 198.573,56.3594 199.406,54.3594 200.5,52.5 Z M 240.5,86.5 C 240.286,88.1439 240.62,89.6439 241.5,91C 251.772,92.7424 262.105,94.0757 272.5,95C 273.337,96.0113 273.67,97.1779 273.5,98.5C 271.833,98.5 270.167,98.5 268.5,98.5C 266.285,97.7321 263.952,97.0654 261.5,96.5C 254.185,95.8637 246.852,95.3637 239.5,95C 238.374,91.2564 238.207,87.423 239,83.5C 239.232,84.7375 239.732,85.7375 240.5,86.5 Z"/></g>
<g><path style="opacity:1" fill="#80898f" d="M 193.5,47.5 C 194.498,82.6627 194.832,117.996 194.5,153.5C 196.167,153.5 197.833,153.5 199.5,153.5C 199.169,123.329 199.502,93.3287 200.5,63.5C 200.5,93.8333 200.5,124.167 200.5,154.5C 198.167,154.5 195.833,154.5 193.5,154.5C 193.5,118.833 193.5,83.1667 193.5,47.5 Z"/></g>
<g><path style="opacity:0.494" fill="#f7f9f8" d="M 106.5,49.5 C 95.7328,52.3554 84.7328,54.6887 73.5,56.5C 84.029,52.5727 95.029,50.2394 106.5,49.5 Z"/></g>
<g><path style="opacity:1" fill="#e2e8ec" d="M 241.5,120.5 C 240.432,119.566 239.099,119.232 237.5,119.5C 237.5,114.167 237.5,108.833 237.5,103.5C 247.787,103.769 257.954,104.769 268,106.5C 268.5,120.496 268.667,134.496 268.5,148.5C 267.5,148.5 266.5,148.5 265.5,148.5C 265.5,135.167 265.5,121.833 265.5,108.5C 257.131,108.138 248.797,107.472 240.5,106.5C 240.5,110.167 240.5,113.833 240.5,117.5C 242.167,117.5 243.833,117.5 245.5,117.5C 245.5,129.5 245.5,141.5 245.5,153.5C 243.833,153.5 242.167,153.5 240.5,153.5C 237.391,153.736 234.391,153.403 231.5,152.5C 229.856,151.684 228.69,150.35 228,148.5C 227.333,122.5 227.333,96.5 228,70.5C 228.833,69.6667 229.667,68.8333 230.5,68C 236.157,67.5006 241.824,67.3339 247.5,67.5C 248.275,71.814 248.941,76.1474 249.5,80.5C 253.481,81.0209 257.481,81.3542 261.5,81.5C 262.568,82.4345 263.901,82.7678 265.5,82.5C 265.826,73.9832 265.493,65.6499 264.5,57.5C 247.552,55.7066 230.552,54.8733 213.5,55C 211.714,55.7845 210.214,56.9512 209,58.5C 207.515,90.0793 207.015,121.746 207.5,153.5C 206.178,153.67 205.011,153.337 204,152.5C 203.5,122.502 203.333,92.5019 203.5,62.5C 205.168,57.9888 208.168,54.4888 212.5,52C 230.607,51.4116 248.607,52.4116 266.5,55C 268.46,64.9069 269.127,75.0736 268.5,85.5C 261.412,85.4056 254.412,84.5723 247.5,83C 246.776,78.9385 245.776,74.9385 244.5,71C 239.913,70.2009 235.413,70.3676 231,71.5C 230.333,96.8333 230.333,122.167 231,147.5C 231.833,148.333 232.667,149.167 233.5,150C 236.482,150.498 239.482,150.665 242.5,150.5C 242.827,140.319 242.494,130.319 241.5,120.5 Z"/></g>
<g><path style="opacity:0.552" fill="#f4f5f5" d="M 342.5,60.5 C 329.733,57.9644 320.9,62.631 316,74.5C 315.5,68.1754 315.334,61.8421 315.5,55.5C 305.885,53.4528 296.218,51.6195 286.5,50C 282.29,49.2618 278.124,49.4285 274,50.5C 272.107,49.8037 270.274,48.9704 268.5,48C 249.582,45.2843 230.582,44.2843 211.5,45C 207.843,45.8371 204.843,47.6704 202.5,50.5C 204.215,45.9639 207.548,43.4639 212.5,43C 230.892,42.6715 249.226,43.6715 267.5,46C 269.351,46.8372 271.184,47.6705 273,48.5C 275.823,48.0805 278.656,47.7472 281.5,47.5C 293.08,49.6784 304.58,52.0117 316,54.5C 316.208,58.9177 316.874,63.251 318,67.5C 324.479,58.8244 332.646,56.4911 342.5,60.5 Z"/></g>
<g><path style="opacity:1" fill="#0b74bc" d="M 264.5,57.5 C 264.5,65.5 264.5,73.5 264.5,81.5C 263.5,81.5 262.5,81.5 261.5,81.5C 257.481,81.3542 253.481,81.0209 249.5,80.5C 248.941,76.1474 248.275,71.814 247.5,67.5C 241.824,67.3339 236.157,67.5006 230.5,68C 229.667,68.8333 228.833,69.6667 228,70.5C 227.333,96.5 227.333,122.5 228,148.5C 228.69,150.35 229.856,151.684 231.5,152.5C 223.414,152.199 215.414,152.533 207.5,153.5C 207.015,121.746 207.515,90.0793 209,58.5C 210.214,56.9512 211.714,55.7845 213.5,55C 230.552,54.8733 247.552,55.7066 264.5,57.5 Z"/></g>
<g><path style="opacity:1" fill="#f3f5f6" d="M 112.5,173.5 C 104.62,174.813 96.6204,176.147 88.5,177.5C 86.5074,146.184 85.8407,114.518 86.5,82.5C 85.209,82.2627 84.209,82.596 83.5,83.5C 82.8333,83.5 82.1667,83.5 81.5,83.5C 77.8333,83.8333 75.8333,85.8333 75.5,89.5C 75.5,113.5 75.5,137.5 75.5,161.5C 67.07,162.691 58.7367,164.358 50.5,166.5C 49.5023,141.339 49.1689,116.005 49.5,90.5C 47.901,90.2322 46.5676,90.5655 45.5,91.5C 41.8593,91.6516 39.1927,93.3182 37.5,96.5C 36.5018,127.662 36.1685,158.996 36.5,190.5C 31.8354,191.057 27.5021,192.39 23.5,194.5C 19.691,195.035 16.0244,196.035 12.5,197.5C 12.0124,159.414 12.5124,121.414 14,83.5C 17.9791,78.4257 23.1457,75.259 29.5,74C 39.0289,71.3609 48.6956,69.3609 58.5,68C 61.2305,67.2716 63.8971,67.4383 66.5,68.5C 68.4935,66.5014 70.8268,65.0014 73.5,64C 86.4757,61.3048 99.4757,58.8048 112.5,56.5C 112.5,95.5 112.5,134.5 112.5,173.5 Z"/></g>
<g><path style="opacity:1" fill="#f6f8f9" d="M 308.5,175.5 C 307.5,174.833 306.5,174.167 305.5,173.5C 305.5,136.833 305.5,100.167 305.5,63.5C 298.802,62.6861 292.136,61.6861 285.5,60.5C 285.831,91.6712 285.498,122.671 284.5,153.5C 282.952,153.179 282.285,152.179 282.5,150.5C 282.5,119.5 282.5,88.5 282.5,57.5C 291.138,58.1288 299.638,59.4621 308,61.5C 308.5,99.4985 308.667,137.499 308.5,175.5 Z"/></g>
<g><path style="opacity:1" fill="#5fa2d3" d="M 264.5,57.5 C 265.493,65.6499 265.826,73.9832 265.5,82.5C 263.901,82.7678 262.568,82.4345 261.5,81.5C 262.5,81.5 263.5,81.5 264.5,81.5C 264.5,73.5 264.5,65.5 264.5,57.5 Z"/></g>
<g><path style="opacity:1" fill="#0b74bc" d="M 106.5,61.5 C 108.494,97.4847 109.16,133.818 108.5,170.5C 107.209,170.263 106.209,170.596 105.5,171.5C 101.476,172.038 97.4764,172.705 93.5,173.5C 92.1667,173.5 90.8333,173.5 89.5,173.5C 89.5,141.833 89.5,110.167 89.5,78.5C 88.209,78.2627 87.209,78.596 86.5,79.5C 80.5301,78.9643 76.0301,81.2976 73,86.5C 72.5,110.498 72.3334,134.498 72.5,158.5C 66.4246,159.519 60.4246,160.852 54.5,162.5C 52.8361,137.683 51.8361,112.683 51.5,87.5C 44.0399,86.8161 38.2066,89.4828 34,95.5C 33.5,126.498 33.3334,157.498 33.5,188.5C 27.456,189.626 21.456,190.959 15.5,192.5C 15.3333,157.165 15.5,121.832 16,86.5C 19.4754,81.3745 24.3087,78.2078 30.5,77C 40.787,74.513 51.1203,72.3463 61.5,70.5C 62.3214,73.4465 62.8214,76.4465 63,79.5C 65.1055,73.7284 68.9389,69.5617 74.5,67C 85.0831,64.5829 95.7497,62.7496 106.5,61.5 Z"/></g>
<g><path style="opacity:1" fill="#223138" d="M 114.5,52.5 C 113.856,92.9797 113.189,133.313 112.5,173.5C 112.5,134.5 112.5,95.5 112.5,56.5C 99.4757,58.8048 86.4757,61.3048 73.5,64C 70.8268,65.0014 68.4935,66.5014 66.5,68.5C 63.8971,67.4383 61.2305,67.2716 58.5,68C 48.6956,69.3609 39.0289,71.3609 29.5,74C 23.1457,75.259 17.9791,78.4257 14,83.5C 12.5124,121.414 12.0124,159.414 12.5,197.5C 11.981,160.609 11.1476,123.609 10,86.5C 9.50001,125.165 9.33335,163.832 9.5,202.5C 8.33547,163.669 8.16881,124.669 9,85.5C 12.7152,78.1187 18.5486,73.2854 26.5,71C 43.9732,67.506 61.3066,63.506 78.5,59C 90.5167,56.828 102.517,54.6613 114.5,52.5 Z"/></g>
<g><path style="opacity:1" fill="#cddfed" d="M 86.5,79.5 C 87.209,78.596 88.209,78.2627 89.5,78.5C 89.5,110.167 89.5,141.833 89.5,173.5C 90.8333,173.5 92.1667,173.5 93.5,173.5C 92.0813,174.451 90.4147,174.784 88.5,174.5C 89.1593,142.482 88.4926,110.816 86.5,79.5 Z"/></g>
<g><path style="opacity:1" fill="#566267" d="M 83.5,83.5 C 84.209,82.596 85.209,82.2627 86.5,82.5C 85.8407,114.518 86.5074,146.184 88.5,177.5C 87.791,178.404 86.791,178.737 85.5,178.5C 86.1593,146.482 85.4926,114.816 83.5,83.5 Z"/></g>
<g><path style="opacity:1" fill="#b1d4e8" d="M 51.5,87.5 C 51.8361,112.683 52.8361,137.683 54.5,162.5C 53.791,163.404 52.791,163.737 51.5,163.5C 51.5,138.167 51.5,112.833 51.5,87.5 Z"/></g>
<g><path style="opacity:1" fill="#0e1f26" d="M 159.5,47.5 C 170.833,47.5 182.167,47.5 193.5,47.5C 193.5,83.1667 193.5,118.833 193.5,154.5C 195.833,154.5 198.167,154.5 200.5,154.5C 200.5,124.167 200.5,93.8333 200.5,63.5C 200.232,61.901 200.566,60.5676 201.5,59.5C 202.401,60.2905 203.068,61.2905 203.5,62.5C 203.333,92.5019 203.5,122.502 204,152.5C 205.011,153.337 206.178,153.67 207.5,153.5C 215.414,152.533 223.414,152.199 231.5,152.5C 234.391,153.403 237.391,153.736 240.5,153.5C 238.393,154.468 236.059,154.802 233.5,154.5C 233.226,156.981 231.893,158.647 229.5,159.5C 229.565,159.062 229.399,158.728 229,158.5C 227.211,162.487 224.045,164.32 219.5,164C 221.019,165.351 222.352,166.851 223.5,168.5C 221.797,170.507 221.463,172.507 222.5,174.5C 220.735,175.461 218.735,175.795 216.5,175.5C 202.362,174.915 188.362,175.915 174.5,178.5C 173.244,178.461 172.244,178.961 171.5,180C 179.493,180.5 187.493,180.666 195.5,180.5C 217.252,180.955 237.919,185.788 257.5,195C 260.02,196.763 262.353,198.763 264.5,201C 259.504,199.687 254.504,198.021 249.5,196C 246.558,194.876 243.558,194.542 240.5,195C 238.306,197.695 236.306,200.528 234.5,203.5C 249.009,211.192 264.342,213.525 280.5,210.5C 281.239,210.369 281.906,210.536 282.5,211C 281.402,211.77 281.402,212.603 282.5,213.5C 265.388,217.183 248.888,215.183 233,207.5C 231.69,208.13 230.856,209.13 230.5,210.5C 228.61,210.297 227.11,210.963 226,212.5C 225.292,211.619 224.458,210.953 223.5,210.5C 224.197,207.577 225.197,204.744 226.5,202C 226.167,201.5 225.833,201 225.5,200.5C 205.636,194.38 185.303,192.213 164.5,194C 155.011,194.789 146.011,197.289 137.5,201.5C 137.167,201 136.833,200.5 136.5,200C 138.326,195.523 139.993,191.023 141.5,186.5C 118.887,192.307 98.2207,202.14 79.5,216C 74.6359,220.786 69.6359,224.619 64.5,227.5C 64.8333,226.833 65.1667,226.167 65.5,225.5C 77.194,207.636 91.5273,192.136 108.5,179C 100.073,179.293 91.7394,180.459 83.5,182.5C 83.1741,150.123 83.5074,117.79 84.5,85.5C 83.3984,84.8243 82.3984,84.1577 81.5,83.5C 82.1667,83.5 82.8333,83.5 83.5,83.5C 85.4926,114.816 86.1593,146.482 85.5,178.5C 86.791,178.737 87.791,178.404 88.5,177.5C 96.6204,176.147 104.62,174.813 112.5,173.5C 113.189,133.313 113.856,92.9797 114.5,52.5C 116.329,92.4876 117.162,132.821 117,173.5C 118.586,172.624 120.086,171.624 121.5,170.5C 122.019,134.445 122.852,98.4447 124,62.5C 126.888,57.2786 131.055,53.4452 136.5,51C 144.23,49.3513 151.897,48.1846 159.5,47.5 Z"/></g>
<g><path style="opacity:1" fill="#8bb9dd" d="M 174.5,54.5 C 178.634,53.5151 182.968,53.1818 187.5,53.5C 187.5,87.1667 187.5,120.833 187.5,154.5C 187.5,154.833 187.5,155.167 187.5,155.5C 187.167,155.5 186.833,155.5 186.5,155.5C 186.5,121.833 186.5,88.1667 186.5,54.5C 182.5,54.5 178.5,54.5 174.5,54.5 Z"/></g>
<g><path style="opacity:1" fill="#0b74bc" d="M 174.5,54.5 C 178.5,54.5 182.5,54.5 186.5,54.5C 186.5,88.1667 186.5,121.833 186.5,155.5C 179.749,156.45 173.082,157.784 166.5,159.5C 166.5,146.167 166.5,132.833 166.5,119.5C 160.788,119.313 155.121,119.646 149.5,120.5C 148.504,134.99 148.171,149.657 148.5,164.5C 144.048,166.082 143.381,164.749 146.5,160.5C 146.167,160.167 145.833,159.833 145.5,159.5C 140.077,161.307 134.743,163.307 129.5,165.5C 129.333,132.498 129.5,99.4983 130,66.5C 131.927,61.5723 135.427,58.4056 140.5,57C 151.762,55.2747 163.095,54.4414 174.5,54.5 Z"/></g>
<g><path style="opacity:1" fill="#b8bcbf" d="M 172.5,51.5 C 178.31,50.5104 184.31,50.1771 190.5,50.5C 190.5,85.5 190.5,120.5 190.5,155.5C 189.5,155.5 188.5,155.5 187.5,155.5C 187.5,155.167 187.5,154.833 187.5,154.5C 189.493,120.516 190.16,86.1829 189.5,51.5C 183.833,51.5 178.167,51.5 172.5,51.5 Z"/></g>
<g><path style="opacity:1" fill="#e5eaee" d="M 172.5,51.5 C 178.167,51.5 183.833,51.5 189.5,51.5C 190.16,86.1829 189.493,120.516 187.5,154.5C 187.5,120.833 187.5,87.1667 187.5,53.5C 182.968,53.1818 178.634,53.5151 174.5,54.5C 163.095,54.4414 151.762,55.2747 140.5,57C 135.427,58.4056 131.927,61.5723 130,66.5C 129.5,99.4983 129.333,132.498 129.5,165.5C 128.739,166.391 127.739,167.058 126.5,167.5C 126.167,151.167 125.833,134.833 125.5,118.5C 125.36,100.783 125.86,83.1166 127,65.5C 129.167,60 133,56.1667 138.5,54C 149.756,52.0969 161.089,51.2636 172.5,51.5 Z"/></g>
<g><path style="opacity:1" fill="#70acd6" d="M 156.5,67.5 C 159.962,66.5184 163.629,66.185 167.5,66.5C 167.829,80.3435 167.496,94.0102 166.5,107.5C 166.5,94.1667 166.5,80.8333 166.5,67.5C 163.167,67.5 159.833,67.5 156.5,67.5 Z"/></g>
<g><path style="opacity:1" fill="#ebedee" d="M 156.5,67.5 C 159.833,67.5 163.167,67.5 166.5,67.5C 166.5,80.8333 166.5,94.1667 166.5,107.5C 160.848,108.032 155.181,108.365 149.5,108.5C 149.333,96.1622 149.5,83.8288 150,71.5C 151.571,69.0771 153.737,67.7438 156.5,67.5 Z"/></g>
<g><path style="opacity:1" fill="#0a1b21" d="M 155.5,70.5 C 158.167,70.5 160.833,70.5 163.5,70.5C 163.5,81.8333 163.5,93.1667 163.5,104.5C 160.091,104.249 156.758,104.583 153.5,105.5C 152.334,94.5151 152.168,83.5151 153,72.5C 153.995,71.9341 154.828,71.2674 155.5,70.5 Z"/></g>
<g><path style="opacity:1" fill="#b9c0c6" d="M 156.5,74.5 C 157.5,74.5 158.5,74.5 159.5,74.5C 159.5,83.5 159.5,92.5 159.5,101.5C 158.167,101.5 156.833,101.5 155.5,101.5C 155.173,92.3178 155.507,83.3178 156.5,74.5 Z"/></g>
<g><path style="opacity:1" fill="#667176" d="M 156.5,74.5 C 157.568,73.5655 158.901,73.2322 160.5,73.5C 160.827,83.015 160.494,92.3483 159.5,101.5C 159.5,92.5 159.5,83.5 159.5,74.5C 158.5,74.5 157.5,74.5 156.5,74.5 Z"/></g>
<g><path style="opacity:1" fill="#0a1b22" d="M 78.5,89.5 C 78.5,114.5 78.5,139.5 78.5,164.5C 67.3889,166.361 56.3889,168.695 45.5,171.5C 45.5,146.167 45.5,120.833 45.5,95.5C 44.209,95.2627 43.209,95.596 42.5,96.5C 41.5,96.8333 40.8333,97.5 40.5,98.5C 39.9924,129.142 39.1591,159.809 38,190.5C 37.5,159.168 37.3334,127.835 37.5,96.5C 39.1927,93.3182 41.8593,91.6516 45.5,91.5C 46.5,91.5 47.5,91.5 48.5,91.5C 48.1669,116.842 48.5002,142.175 49.5,167.5C 50.1067,167.376 50.44,167.043 50.5,166.5C 58.7367,164.358 67.07,162.691 75.5,161.5C 75.5,137.5 75.5,113.5 75.5,89.5C 76.4584,89.0472 77.2917,88.3805 78,87.5C 78.4643,88.0944 78.631,88.7611 78.5,89.5 Z"/></g>
<g><path style="opacity:1" fill="#2383c4" d="M 106.5,61.5 C 107.209,60.596 108.209,60.2627 109.5,60.5C 109.5,97.5 109.5,134.5 109.5,171.5C 108.167,171.5 106.833,171.5 105.5,171.5C 106.209,170.596 107.209,170.263 108.5,170.5C 109.16,133.818 108.494,97.4847 106.5,61.5 Z"/></g>
<g><path style="opacity:1" fill="#0e74bb" d="M 265.5,148.5 C 263.127,147.306 260.793,146.973 258.5,147.5C 260.953,150.241 263.286,153.075 265.5,156C 258.698,155.489 252.032,154.656 245.5,153.5C 245.5,141.5 245.5,129.5 245.5,117.5C 243.833,117.5 242.167,117.5 240.5,117.5C 240.5,113.833 240.5,110.167 240.5,106.5C 248.797,107.472 257.131,108.138 265.5,108.5C 265.5,121.833 265.5,135.167 265.5,148.5 Z"/></g>
<g><path style="opacity:0.567" fill="#f7f8f8" d="M 385.5,72.5 C 388.199,72.4661 390.699,73.1328 393,74.5C 393.667,93.1667 393.667,111.833 393,130.5C 380.985,126.663 368.819,123.329 356.5,120.5C 356.576,134.18 357.076,147.847 358,161.5C 359.32,157.886 360.487,154.22 361.5,150.5C 362.614,149.224 363.614,149.224 364.5,150.5C 361.814,154.197 360.481,158.53 360.5,163.5C 358.833,163.5 357.167,163.5 355.5,163.5C 355.333,144.83 355.5,126.164 356,107.5C 356.719,111.145 357.219,114.812 357.5,118.5C 368.735,121.912 380.068,124.912 391.5,127.5C 391.5,109.833 391.5,92.1667 391.5,74.5C 389.102,74.7406 387.102,74.0739 385.5,72.5 Z"/></g>
<g><path style="opacity:1" fill="#eff2f3" d="M 166.5,159.5 C 165.833,159.5 165.167,159.5 164.5,159.5C 164.5,147.167 164.5,134.833 164.5,122.5C 162.585,122.216 160.919,122.549 159.5,123.5C 157.167,123.5 154.833,123.5 152.5,123.5C 153.148,137.209 152.481,150.542 150.5,163.5C 149.504,149.343 149.171,135.01 149.5,120.5C 155.121,119.646 160.788,119.313 166.5,119.5C 166.5,132.833 166.5,146.167 166.5,159.5 Z"/></g>
<g><path style="opacity:1" fill="#233339" d="M 290.5,54.5 C 297.765,55.1034 304.765,56.4368 311.5,58.5C 310.778,58.9175 310.278,59.5842 310,60.5C 309.833,99.0022 309.333,137.336 308.5,175.5C 308.667,137.499 308.5,99.4985 308,61.5C 299.638,59.4621 291.138,58.1288 282.5,57.5C 282.5,88.5 282.5,119.5 282.5,150.5C 281.502,119.338 281.168,88.0044 281.5,56.5C 284.829,56.7847 287.829,56.1181 290.5,54.5 Z"/></g>
<g><path style="opacity:1" fill="#6dabd5" d="M 149.5,120.5 C 149.171,135.01 149.504,149.343 150.5,163.5C 150.158,164.338 149.492,164.672 148.5,164.5C 148.171,149.657 148.504,134.99 149.5,120.5 Z"/></g>
<g><path style="opacity:1" fill="#c0c5c7" d="M 159.5,123.5 C 160.919,122.549 162.585,122.216 164.5,122.5C 164.5,134.833 164.5,147.167 164.5,159.5C 163.505,147.678 163.172,135.678 163.5,123.5C 162.167,123.5 160.833,123.5 159.5,123.5 Z"/></g>
<g><path style="opacity:1" fill="#1a2a31" d="M 81.5,83.5 C 82.3984,84.1577 83.3984,84.8243 84.5,85.5C 83.5074,117.79 83.1741,150.123 83.5,182.5C 82.6676,150.669 82.1676,118.669 82,86.5C 80.6412,87.365 79.4745,88.365 78.5,89.5C 78.631,88.7611 78.4643,88.0944 78,87.5C 77.2917,88.3805 76.4584,89.0472 75.5,89.5C 75.8333,85.8333 77.8333,83.8333 81.5,83.5 Z"/></g>
<g><path style="opacity:1" fill="#737c82" d="M 156.5,127.5 C 156.172,139.012 156.505,150.346 157.5,161.5C 157.44,162.043 157.107,162.376 156.5,162.5C 155.176,150.673 155.176,139.007 156.5,127.5 Z"/></g>
<g><path style="opacity:1" fill="#697379" d="M 156.5,127.5 C 157.568,126.566 158.901,126.232 160.5,126.5C 160.828,138.345 160.495,150.012 159.5,161.5C 159.5,150.167 159.5,138.833 159.5,127.5C 158.5,127.5 157.5,127.5 156.5,127.5 Z"/></g>
<g><path style="opacity:1" fill="#727c81" d="M 45.5,91.5 C 46.5676,90.5655 47.901,90.2322 49.5,90.5C 49.1689,116.005 49.5023,141.339 50.5,166.5C 50.44,167.043 50.1067,167.376 49.5,167.5C 48.5002,142.175 48.1669,116.842 48.5,91.5C 47.5,91.5 46.5,91.5 45.5,91.5 Z"/></g>
<g><path style="opacity:1" fill="#cbd2d7" d="M 156.5,127.5 C 157.5,127.5 158.5,127.5 159.5,127.5C 159.5,138.833 159.5,150.167 159.5,161.5C 158.833,161.5 158.167,161.5 157.5,161.5C 156.505,150.346 156.172,139.012 156.5,127.5 Z"/></g>
<g><path style="opacity:1" fill="#a1a9af" d="M 42.5,96.5 C 43.209,95.596 44.209,95.2627 45.5,95.5C 45.5,120.833 45.5,146.167 45.5,171.5C 45.1639,146.317 44.1639,121.317 42.5,96.5 Z"/></g>
<g><path style="opacity:1" fill="#091a21" d="M 12.5,197.5 C 16.0244,196.035 19.691,195.035 23.5,194.5C 25.153,194.66 26.4863,195.326 27.5,196.5C 21.4262,198.302 15.4262,200.302 9.5,202.5C 9.33335,163.832 9.50001,125.165 10,86.5C 11.1476,123.609 11.981,160.609 12.5,197.5 Z"/></g>
<g><path style="opacity:1" fill="#122329" d="M 271.5,53.5 C 272.146,65.8799 271.479,77.8799 269.5,89.5C 261.074,89.0267 252.741,87.86 244.5,86C 243.439,82.0827 242.439,78.2494 241.5,74.5C 239.052,73.5269 236.385,73.1936 233.5,73.5C 233.174,82.3494 233.507,91.0161 234.5,99.5C 247.054,100.113 259.388,101.447 271.5,103.5C 271.167,119.181 271.501,134.848 272.5,150.5C 273.107,150.376 273.44,150.043 273.5,149.5C 275.172,146.978 276.672,144.312 278,141.5C 278.5,112.169 278.667,82.8352 278.5,53.5C 282.6,53.2367 286.6,53.5701 290.5,54.5C 287.829,56.1181 284.829,56.7847 281.5,56.5C 281.168,88.0044 281.502,119.338 282.5,150.5C 282.285,152.179 282.952,153.179 284.5,153.5C 288.429,154.87 292.429,156.37 296.5,158C 293.044,159.481 289.711,161.148 286.5,163C 293.182,166.005 299.516,169.505 305.5,173.5C 306.5,174.167 307.5,174.833 308.5,175.5C 309.333,137.336 309.833,99.0022 310,60.5C 310.278,59.5842 310.778,58.9175 311.5,58.5C 312.333,98.6646 312.833,138.998 313,179.5C 319.261,185.921 324.094,193.254 327.5,201.5C 324.998,203.17 322.998,205.336 321.5,208C 319.866,208.494 318.199,208.66 316.5,208.5C 316.804,207.85 317.137,207.183 317.5,206.5C 315.081,201.915 312.081,197.748 308.5,194C 307.423,193.53 306.423,193.697 305.5,194.5C 304.897,193.365 304.564,192.365 304.5,191.5C 299.142,185.302 292.476,180.802 284.5,178C 270.874,173.174 256.874,170.508 242.5,170C 244.058,170.21 245.391,170.71 246.5,171.5C 246.062,171.435 245.728,171.601 245.5,172C 246.167,172.333 246.833,172.667 247.5,173C 247.018,174.008 246.852,175.175 247,176.5C 245.124,177.609 243.291,178.609 241.5,179.5C 233.076,177.877 224.743,176.543 216.5,175.5C 218.735,175.795 220.735,175.461 222.5,174.5C 225.938,170.345 229.105,170.678 232,175.5C 232.576,173.623 232.409,171.789 231.5,170C 232.858,168.311 234.525,166.978 236.5,166C 234.655,164.872 232.655,164.372 230.5,164.5C 230.634,162.708 230.301,161.042 229.5,159.5C 231.893,158.647 233.226,156.981 233.5,154.5C 236.059,154.802 238.393,154.468 240.5,153.5C 242.167,153.5 243.833,153.5 245.5,153.5C 252.032,154.656 258.698,155.489 265.5,156C 263.286,153.075 260.953,150.241 258.5,147.5C 260.793,146.973 263.127,147.306 265.5,148.5C 266.5,148.5 267.5,148.5 268.5,148.5C 268.667,134.496 268.5,120.496 268,106.5C 257.954,104.769 247.787,103.769 237.5,103.5C 236.511,108.975 236.178,114.642 236.5,120.5C 238.167,120.5 239.833,120.5 241.5,120.5C 242.494,130.319 242.827,140.319 242.5,150.5C 239.482,150.665 236.482,150.498 233.5,150C 232.667,149.167 231.833,148.333 231,147.5C 230.333,122.167 230.333,96.8333 231,71.5C 235.413,70.3676 239.913,70.2009 244.5,71C 245.776,74.9385 246.776,78.9385 247.5,83C 254.412,84.5723 261.412,85.4056 268.5,85.5C 269.127,75.0736 268.46,64.9069 266.5,55C 248.607,52.4116 230.607,51.4116 212.5,52C 208.168,54.4888 205.168,57.9888 203.5,62.5C 203.068,61.2905 202.401,60.2905 201.5,59.5C 202.917,53.5813 206.584,49.748 212.5,48C 230.889,47.7383 249.222,48.7383 267.5,51C 269.066,51.6082 270.4,52.4415 271.5,53.5 Z M 240.5,86.5 C 240.286,88.1439 240.62,89.6439 241.5,91C 251.772,92.7424 262.105,94.0757 272.5,95C 273.337,96.0113 273.67,97.1779 273.5,98.5C 271.833,98.5 270.167,98.5 268.5,98.5C 266.285,97.7321 263.952,97.0654 261.5,96.5C 254.185,95.8637 246.852,95.3637 239.5,95C 238.374,91.2564 238.207,87.423 239,83.5C 239.232,84.7375 239.732,85.7375 240.5,86.5 Z"/></g>
<g><path style="opacity:1" fill="#bec6cb" d="M 277.5,146.5 C 279.324,149.07 280.657,152.07 281.5,155.5C 283.795,156.432 286.129,157.265 288.5,158C 286.664,159.419 284.664,160.586 282.5,161.5C 281.679,164.447 281.179,167.447 281,170.5C 279.167,168.667 277.333,166.833 275.5,165C 273.217,164.709 271.05,165.209 269,166.5C 268.5,166.167 268,165.833 267.5,165.5C 268.637,163.393 269.637,161.227 270.5,159C 268.848,156.677 267.181,154.344 265.5,152C 268.46,152.32 271.46,152.32 274.5,152C 276.16,150.512 277.16,148.679 277.5,146.5 Z"/></g>
<g><path style="opacity:1" fill="#bfc5cb" d="M 234.5,123.5 C 235.833,123.5 237.167,123.5 238.5,123.5C 238.5,131.167 238.5,138.833 238.5,146.5C 237.167,146.5 235.833,146.5 234.5,146.5C 234.5,138.833 234.5,131.167 234.5,123.5 Z"/></g>
<g><path style="opacity:1" fill="#979ea2" d="M 237.5,103.5 C 237.5,108.833 237.5,114.167 237.5,119.5C 239.099,119.232 240.432,119.566 241.5,120.5C 239.833,120.5 238.167,120.5 236.5,120.5C 236.178,114.642 236.511,108.975 237.5,103.5 Z"/></g>
<g><path style="opacity:1" fill="#5d696e" d="M 271.5,103.5 C 272.167,118.833 272.833,134.167 273.5,149.5C 273.44,150.043 273.107,150.376 272.5,150.5C 271.501,134.848 271.167,119.181 271.5,103.5 Z"/></g>
<g><path style="opacity:0.51" fill="#f6f8f7" d="M 240.5,86.5 C 241.404,87.209 241.737,88.209 241.5,89.5C 252.784,91.1982 264.117,92.5316 275.5,93.5C 275.5,95.8333 275.5,98.1667 275.5,100.5C 272.848,100.59 270.515,99.9238 268.5,98.5C 270.167,98.5 271.833,98.5 273.5,98.5C 273.67,97.1779 273.337,96.0113 272.5,95C 262.105,94.0757 251.772,92.7424 241.5,91C 240.62,89.6439 240.286,88.1439 240.5,86.5 Z"/></g>
<g><path style="opacity:1" fill="#636e74" d="M 241.5,74.5 C 239.167,74.5 236.833,74.5 234.5,74.5C 234.5,82.8333 234.5,91.1667 234.5,99.5C 233.507,91.0161 233.174,82.3494 233.5,73.5C 236.385,73.1936 239.052,73.5269 241.5,74.5 Z"/></g>
<g><path style="opacity:0.453" fill="#f6f8f7" d="M 240.5,86.5 C 239.732,85.7375 239.232,84.7375 239,83.5C 238.207,87.423 238.374,91.2564 239.5,95C 246.852,95.3637 254.185,95.8637 261.5,96.5C 253.673,97.1956 245.673,97.1956 237.5,96.5C 237.17,90.1318 237.504,83.7985 238.5,77.5C 239.932,80.3273 240.599,83.3273 240.5,86.5 Z"/></g>
<g><path style="opacity:1" fill="#0a74bc" d="M 305.5,173.5 C 299.516,169.505 293.182,166.005 286.5,163C 289.711,161.148 293.044,159.481 296.5,158C 292.429,156.37 288.429,154.87 284.5,153.5C 285.498,122.671 285.831,91.6712 285.5,60.5C 292.136,61.6861 298.802,62.6861 305.5,63.5C 305.5,100.167 305.5,136.833 305.5,173.5 Z"/></g>
<g><path style="opacity:1" fill="#6c767c" d="M 271.5,53.5 C 272.495,65.6554 272.829,77.9887 272.5,90.5C 271.209,90.7373 270.209,90.404 269.5,89.5C 271.479,77.8799 272.146,65.8799 271.5,53.5 Z"/></g>
<g><path style="opacity:1" fill="#e6e9e9" d="M 229.5,159.5 C 230.301,161.042 230.634,162.708 230.5,164.5C 232.655,164.372 234.655,164.872 236.5,166C 234.525,166.978 232.858,168.311 231.5,170C 232.409,171.789 232.576,173.623 232,175.5C 229.105,170.678 225.938,170.345 222.5,174.5C 221.463,172.507 221.797,170.507 223.5,168.5C 222.352,166.851 221.019,165.351 219.5,164C 224.045,164.32 227.211,162.487 229,158.5C 229.399,158.728 229.565,159.062 229.5,159.5 Z"/></g>
<g><path style="opacity:0.294" fill="#f3f5f4" d="M 8.5,78.5 C 7.95531,80.5932 7.12197,82.5932 6,84.5C 5.16673,125.504 5.3334,166.504 6.5,207.5C 18.4489,202.405 30.7822,198.738 43.5,196.5C 43.1697,189.468 43.503,182.468 44.5,175.5C 56.1383,172.674 67.805,170.007 79.5,167.5C 79.5,173.833 79.5,180.167 79.5,186.5C 85.5635,185.583 91.5635,184.749 97.5,184C 92.3308,188.337 87.3308,192.837 82.5,197.5C 85.2281,193.263 88.5615,189.429 92.5,186C 87.6025,186.968 82.6025,187.801 77.5,188.5C 77.5,182.167 77.5,175.833 77.5,169.5C 66.8232,171.836 56.1565,174.17 45.5,176.5C 45.6743,183.535 45.3409,190.535 44.5,197.5C 30.8687,200.574 17.5354,204.574 4.5,209.5C 4.33334,167.165 4.50001,124.832 5,82.5C 5.94873,80.9069 7.11539,79.5736 8.5,78.5 Z"/></g>
<g><path style="opacity:1" fill="#c0c7cd" d="M 216.5,175.5 C 224.743,176.543 233.076,177.877 241.5,179.5C 259.927,183.881 275.927,192.715 289.5,206C 286.408,207.546 283.408,209.046 280.5,210.5C 264.342,213.525 249.009,211.192 234.5,203.5C 236.306,200.528 238.306,197.695 240.5,195C 243.558,194.542 246.558,194.876 249.5,196C 254.504,198.021 259.504,199.687 264.5,201C 262.353,198.763 260.02,196.763 257.5,195C 237.919,185.788 217.252,180.955 195.5,180.5C 188.5,179.833 181.5,179.167 174.5,178.5C 188.362,175.915 202.362,174.915 216.5,175.5 Z"/></g>
<g><path style="opacity:1" fill="#e9ecec" d="M 158.5,177.5 C 160.176,178.183 160.843,179.517 160.5,181.5C 164.554,181.21 165.054,181.877 162,183.5C 161.667,184.833 161.333,186.167 161,187.5C 159.112,185.078 157.112,185.078 155,187.5C 155.594,185.491 155.427,183.491 154.5,181.5C 156.769,180.995 158.103,179.662 158.5,177.5 Z"/></g>
<g><path style="opacity:1" fill="#687379" d="M 174.5,178.5 C 181.5,179.167 188.5,179.833 195.5,180.5C 187.493,180.666 179.493,180.5 171.5,180C 172.244,178.961 173.244,178.461 174.5,178.5 Z"/></g>
<g><path style="opacity:1" fill="#c0c7cc" d="M 304.5,191.5 C 301.402,196.327 297.402,200.327 292.5,203.5C 283.865,194.519 273.865,187.519 262.5,182.5C 268.07,181.045 273.403,181.712 278.5,184.5C 279.696,184.154 279.696,183.654 278.5,183C 268.315,177.737 257.648,173.903 246.5,171.5C 245.391,170.71 244.058,170.21 242.5,170C 256.874,170.508 270.874,173.174 284.5,178C 292.476,180.802 299.142,185.302 304.5,191.5 Z"/></g>
<g><path style="opacity:1" fill="#f7f8f8" d="M 279.5,180.5 C 287.221,181.347 294.221,184.514 300.5,190C 299.667,190.833 298.833,191.667 298,192.5C 292.714,187.109 286.547,183.109 279.5,180.5 Z"/></g>
<g><path style="opacity:0.494" fill="#f6f8f7" d="M 129.5,206.5 C 130.624,202.461 131.957,198.461 133.5,194.5C 133.167,194.167 132.833,193.833 132.5,193.5C 117,198.918 102.334,205.918 88.5,214.5C 89.7158,212.549 91.3825,211.049 93.5,210C 98.1667,207.333 102.833,204.667 107.5,202C 116.643,196.842 126.309,193.509 136.5,192C 134.264,196.97 131.93,201.804 129.5,206.5 Z"/></g>
<g><path style="opacity:0.58" fill="#f6f7f7" d="M 369.5,151.5 C 377.261,153.086 384.928,155.086 392.5,157.5C 393.666,174.824 393.833,192.157 393,209.5C 376.487,203.664 359.653,198.83 342.5,195C 338.771,194.156 335.437,192.656 332.5,190.5C 352.282,195.362 371.949,200.696 391.5,206.5C 391.833,190.486 391.499,174.486 390.5,158.5C 383.318,156.328 376.318,153.995 369.5,151.5 Z"/></g>
<g><path style="opacity:1" fill="#2c3a41" d="M 37.5,96.5 C 37.3334,127.835 37.5,159.168 38,190.5C 39.1591,159.809 39.9924,129.142 40.5,98.5C 40.5,130.167 40.5,161.833 40.5,193.5C 36.0703,194.119 31.737,195.119 27.5,196.5C 26.4863,195.326 25.153,194.66 23.5,194.5C 27.5021,192.39 31.8354,191.057 36.5,190.5C 36.1685,158.996 36.5018,127.662 37.5,96.5 Z"/></g>
<g><path style="opacity:1" fill="#16262c" d="M 330.5,63.5 C 333.85,63.335 337.183,63.5017 340.5,64C 356.416,68.8053 372.416,73.3053 388.5,77.5C 388.5,92.8333 388.5,108.167 388.5,123.5C 379.41,121.249 370.41,118.582 361.5,115.5C 359.733,108.628 358.4,101.628 357.5,94.5C 355.5,94.1667 353.5,93.8333 351.5,93.5C 351.333,116.836 351.5,140.169 352,163.5C 354.788,166.652 358.288,167.818 362.5,167C 363.445,162.722 364.779,158.555 366.5,154.5C 373.713,156.76 380.88,159.093 388,161.5C 388.833,175.179 388.666,188.846 387.5,202.5C 370.163,196.249 352.496,191.082 334.5,187C 325.619,183.453 320.453,176.953 319,167.5C 318.333,136.833 318.333,106.167 319,75.5C 321.019,69.6498 324.852,65.6498 330.5,63.5 Z"/></g>
<g><path style="opacity:1" fill="#616c71" d="M 384.5,163.5 C 385.495,174.654 385.828,185.988 385.5,197.5C 384.209,197.737 383.209,197.404 382.5,196.5C 384.477,185.884 385.144,174.884 384.5,163.5 Z"/></g>
<g><path style="opacity:1" fill="#e5ebf0" d="M 384.5,163.5 C 385.144,174.884 384.477,185.884 382.5,196.5C 367.181,192.337 351.848,188.17 336.5,184C 330,181.5 325.5,177 323,170.5C 322.333,138.833 322.333,107.167 323,75.5C 325.553,69.9487 329.886,67.282 336,67.5C 352.013,71.1147 367.847,75.448 383.5,80.5C 384.499,93.1492 384.832,105.816 384.5,118.5C 377.667,117.112 371,115.112 364.5,112.5C 363.01,105.896 361.844,99.2294 361,92.5C 357.017,90.7844 352.85,89.7844 348.5,89.5C 348.333,114.836 348.5,140.169 349,165.5C 349.93,167.552 351.43,169.052 353.5,170C 357.447,171.154 361.447,171.987 365.5,172.5C 366.275,168.186 366.941,163.853 367.5,159.5C 373.161,160.831 378.827,162.164 384.5,163.5 Z"/></g>
<g><path style="opacity:1" fill="#0a74bc" d="M 331.5,70.5 C 334.187,70.3359 336.854,70.5026 339.5,71C 353.438,75.1505 367.438,78.9838 381.5,82.5C 381.832,93.1874 381.499,103.854 380.5,114.5C 376.034,112.645 371.534,110.979 367,109.5C 366.327,102.428 364.827,95.5944 362.5,89C 357.709,86.8009 352.709,86.1342 347.5,87C 346.667,87.8333 345.833,88.6667 345,89.5C 344.333,114.5 344.333,139.5 345,164.5C 346.442,168.275 348.942,171.108 352.5,173C 356.877,174.011 361.21,175.178 365.5,176.5C 366.647,176.182 367.481,175.516 368,174.5C 368.521,171.081 369.355,167.748 370.5,164.5C 371.167,164.167 371.833,163.833 372.5,163.5C 375.07,164.617 377.737,165.45 380.5,166C 381.484,174.749 381.817,183.582 381.5,192.5C 366.088,188.647 350.755,184.48 335.5,180C 332,177.833 329.167,175 327,171.5C 325.363,139.881 325.03,108.214 326,76.5C 327.36,73.9774 329.193,71.9774 331.5,70.5 Z"/></g>
<g><path style="opacity:1" fill="#c1c8cd" d="M 316.5,208.5 C 312.505,212.49 308.171,216.156 303.5,219.5C 300.833,215.5 298.167,211.5 295.5,207.5C 299.578,203.647 302.911,199.314 305.5,194.5C 306.423,193.697 307.423,193.53 308.5,194C 312.081,197.748 315.081,201.915 317.5,206.5C 317.137,207.183 316.804,207.85 316.5,208.5 Z"/></g>
<g><path style="opacity:1" fill="#f9fbfa" d="M 307.5,197.5 C 311.189,198.862 313.522,201.529 314.5,205.5C 313.52,206.981 312.353,208.315 311,209.5C 309.167,206.5 307.333,203.5 305.5,200.5C 306.193,199.482 306.859,198.482 307.5,197.5 Z"/></g>
<g><path style="opacity:0.564" fill="#f8faf9" d="M 239.5,276.5 C 237.745,275.928 236.078,275.094 234.5,274C 230.333,269.167 226.167,264.333 222,259.5C 217.658,248.627 214.491,237.46 212.5,226C 204.991,221.745 197.324,217.745 189.5,214C 179.642,210.992 169.976,207.492 160.5,203.5C 159.289,202.726 159.289,201.893 160.5,201C 149.026,202.268 138.193,205.768 128,211.5C 127.401,209.465 127.901,207.799 129.5,206.5C 129.369,207.376 129.702,208.043 130.5,208.5C 135.901,205.468 141.568,202.968 147.5,201C 172.316,194.648 196.983,195.148 221.5,202.5C 222.292,204.195 221.958,205.862 220.5,207.5C 201.333,200.556 181.666,198.723 161.5,202C 179.983,207.741 197.65,215.407 214.5,225C 215.955,231.406 217.122,237.906 218,244.5C 222.194,257.188 229.36,267.855 239.5,276.5 Z"/></g>
<g><path style="opacity:1" fill="#3f4c52" d="M 187.5,203.5 C 183.298,203.183 179.298,203.517 175.5,204.5C 174.244,204.539 173.244,204.039 172.5,203C 177.684,202.184 182.684,202.35 187.5,203.5 Z"/></g>
<g><path style="opacity:0.471" fill="#f8f9f8" d="M 332.5,201.5 C 340.952,224.41 337.785,245.744 323,265.5C 319.902,269.107 316.402,272.107 312.5,274.5C 333.565,254.205 340.231,229.872 332.5,201.5 Z"/></g>
<g><path style="opacity:1" fill="#e4e7e9" d="M 76.5,204.5 C 73.5802,209.268 70.4135,213.934 67,218.5C 65.1715,220.733 64.6715,223.067 65.5,225.5C 65.1667,226.167 64.8333,226.833 64.5,227.5C 63.9569,227.56 63.6236,227.893 63.5,228.5C 64.6283,229.262 65.7949,229.929 67,230.5C 73.7799,224.539 80.9466,219.206 88.5,214.5C 78.1144,223.87 67.1144,232.537 55.5,240.5C 55.1667,240.167 54.8333,239.833 54.5,239.5C 59.2241,229.05 64.7241,219.05 71,209.5C 72.7038,207.627 74.5372,205.96 76.5,204.5 Z"/></g>
<g><path style="opacity:1" fill="#112228" d="M 246.5,171.5 C 257.648,173.903 268.315,177.737 278.5,183C 279.696,183.654 279.696,184.154 278.5,184.5C 273.403,181.712 268.07,181.045 262.5,182.5C 273.865,187.519 283.865,194.519 292.5,203.5C 297.402,200.327 301.402,196.327 304.5,191.5C 304.564,192.365 304.897,193.365 305.5,194.5C 302.911,199.314 299.578,203.647 295.5,207.5C 298.167,211.5 300.833,215.5 303.5,219.5C 308.171,216.156 312.505,212.49 316.5,208.5C 318.199,208.66 319.866,208.494 321.5,208C 322.998,205.336 324.998,203.17 327.5,201.5C 329.54,205.132 330.707,209.132 331,213.5C 331.667,219.5 331.667,225.5 331,231.5C 321.766,270.856 297.266,287.356 257.5,281C 232.49,270.129 219.49,250.962 218.5,223.5C 205.28,214.725 190.947,208.392 175.5,204.5C 179.298,203.517 183.298,203.183 187.5,203.5C 199.334,204 210.667,206.667 221.5,211.5C 222.183,211.137 222.85,210.804 223.5,210.5C 224.458,210.953 225.292,211.619 226,212.5C 227.11,210.963 228.61,210.297 230.5,210.5C 227.678,219.256 226.845,228.256 228,237.5C 252.86,240.253 276.36,235.253 298.5,222.5C 299.583,221.635 299.749,220.635 299,219.5C 297.204,216.073 295.037,212.906 292.5,210C 289.148,210.829 285.815,211.996 282.5,213.5C 281.402,212.603 281.402,211.77 282.5,211C 281.906,210.536 281.239,210.369 280.5,210.5C 283.408,209.046 286.408,207.546 289.5,206C 275.927,192.715 259.927,183.881 241.5,179.5C 243.291,178.609 245.124,177.609 247,176.5C 246.852,175.175 247.018,174.008 247.5,173C 246.833,172.667 246.167,172.333 245.5,172C 245.728,171.601 246.062,171.435 246.5,171.5 Z"/></g>
<g><path style="opacity:1" fill="#5b676d" d="M 241.5,243.5 C 237.833,244.167 234.167,244.833 230.5,245.5C 229.957,245.44 229.624,245.107 229.5,244.5C 233.445,243.509 237.445,243.176 241.5,243.5 Z"/></g>
<g><path style="opacity:1" fill="#bdc6cc" d="M 304.5,238.5 C 306.045,239.23 306.878,240.563 307,242.5C 307.667,248.5 307.667,254.5 307,260.5C 306.529,262.246 305.862,263.913 305,265.5C 297.548,271.815 289.048,274.815 279.5,274.5C 284.034,259.67 292.367,247.67 304.5,238.5 Z"/></g>
<g><path style="opacity:1" fill="#1877bd" d="M 297.5,246.5 C 297.794,248.276 297.96,250.276 298,252.5C 299.333,250.5 300.667,248.5 302,246.5C 302.772,251.904 302.439,257.238 301,262.5C 296.511,267.083 291.178,270.417 285,272.5C 286.727,262.711 290.894,254.045 297.5,246.5 Z"/></g>
<g><path style="opacity:1" fill="#c3c9ce" d="M 314.5,234.5 C 317.167,234.5 319.833,234.5 322.5,234.5C 320.914,243.338 317.414,251.338 312,258.5C 311.405,250.835 310.905,243.168 310.5,235.5C 312.099,235.768 313.432,235.434 314.5,234.5 Z"/></g>
<g><path style="opacity:1" fill="#bec6cd" d="M 230.5,245.5 C 234.167,244.833 237.833,244.167 241.5,243.5C 262.926,242.135 282.926,236.135 301.5,225.5C 303.663,228.153 304.497,231.153 304,234.5C 289.692,244.747 280.025,258.414 275,275.5C 253.856,275.158 239.023,265.158 230.5,245.5 Z"/></g>
<g><path style="opacity:1" fill="#1276bd" d="M 285.5,236.5 C 286.239,236.369 286.906,236.536 287.5,237C 278.532,245.155 268.532,251.822 257.5,257C 268.112,255.027 277.445,250.361 285.5,243C 286.167,242.333 286.833,242.333 287.5,243C 281.043,251.467 275.376,260.467 270.5,270C 254.985,270.251 243.985,263.418 237.5,249.5C 254.812,249.408 270.812,245.074 285.5,236.5 Z"/></g>
<g><path style="opacity:1" fill="#c1c8ce" d="M 318.5,211.5 C 319.497,211.47 320.164,211.97 320.5,213C 322.184,218.707 322.851,224.54 322.5,230.5C 318.02,230.268 313.687,230.935 309.5,232.5C 307.884,229.83 306.551,226.996 305.5,224C 310.314,220.353 314.648,216.186 318.5,211.5 Z"/></g>
<g><path style="opacity:1" fill="#f9fbfa" d="M 317.5,215.5 C 319.402,218.337 320.069,221.671 319.5,225.5C 316.174,225.838 314.507,224.338 314.5,221C 314.863,218.808 315.863,216.974 317.5,215.5 Z"/></g>
<g><path style="opacity:1" fill="#c0c8ce" d="M 282.5,213.5 C 285.815,211.996 289.148,210.829 292.5,210C 295.037,212.906 297.204,216.073 299,219.5C 299.749,220.635 299.583,221.635 298.5,222.5C 276.36,235.253 252.86,240.253 228,237.5C 226.845,228.256 227.678,219.256 230.5,210.5C 230.856,209.13 231.69,208.13 233,207.5C 248.888,215.183 265.388,217.183 282.5,213.5 Z"/></g>
<g><path style="opacity:1" fill="#1977bd" d="M 233.5,214.5 C 238.242,215.687 242.909,217.187 247.5,219C 255.484,219.944 263.484,220.777 271.5,221.5C 265.415,223.028 259.415,224.861 253.5,227C 258.833,227.667 264.167,227.667 269.5,227C 274.476,225.78 279.476,225.113 284.5,225C 268.026,232.617 250.692,236.117 232.5,235.5C 231.018,228.406 231.351,221.406 233.5,214.5 Z"/></g>
<g><path style="opacity:0.516" fill="#f8f9f8" d="M 311.5,275.5 C 304.356,282.57 295.689,286.737 285.5,288C 279.319,288.819 273.319,288.653 267.5,287.5C 283.53,288.161 298.197,284.161 311.5,275.5 Z"/></g>
</svg>
