<?xml version="1.0" encoding="UTF-8"?>
<!DOCTYPE svg PUBLIC "-//W3C//DTD SVG 1.1//EN" "http://www.w3.org/Graphics/SVG/1.1/DTD/svg11.dtd">
<svg xmlns="http://www.w3.org/2000/svg" version="1.1" width="316px" height="316px" style="shape-rendering:geometricPrecision; text-rendering:geometricPrecision; image-rendering:optimizeQuality; fill-rule:evenodd; clip-rule:evenodd" xmlns:xlink="http://www.w3.org/1999/xlink">
<g><path style="opacity:0.961" fill="#f2f4f6" d="M 139.5,-0.5 C 151.5,-0.5 163.5,-0.5 175.5,-0.5C 182.673,1.03072 190.007,2.36405 197.5,3.5C 198.209,4.40397 199.209,4.73731 200.5,4.5C 205.341,6.33595 210.341,8.00261 215.5,9.5C 219.907,12.0353 224.574,14.0353 229.5,15.5C 229.5,16.1667 229.833,16.5 230.5,16.5C 236.478,20.132 242.478,23.7986 248.5,27.5C 248.5,28.1667 248.833,28.5 249.5,28.5C 253.833,31.8333 258.167,35.1667 262.5,38.5C 262.5,39.1667 262.833,39.5 263.5,39.5C 263.5,40.1667 263.833,40.5 264.5,40.5C 264.833,41.5 265.5,42.1667 266.5,42.5C 266.833,42.5 267.167,42.5 267.5,42.5C 267.5,43.1667 267.833,43.5 268.5,43.5C 268.833,44.5 269.5,45.1667 270.5,45.5C 270.328,46.4916 270.662,47.1583 271.5,47.5C 271.833,47.5 272.167,47.5 272.5,47.5C 272.427,49.0269 273.094,50.0269 274.5,50.5C 274.5,51.1667 274.833,51.5 275.5,51.5C 275.5,52.1667 275.833,52.5 276.5,52.5C 276.5,53.1667 276.833,53.5 277.5,53.5C 278.167,54.8333 279.167,55.8333 280.5,56.5C 280.5,56.8333 280.5,57.1667 280.5,57.5C 280.5,58.1667 280.833,58.5 281.5,58.5C 282.167,59.5 282.833,60.5 283.5,61.5C 283.5,62.1667 283.833,62.5 284.5,62.5C 284.5,63.1667 284.833,63.5 285.5,63.5C 285.5,64.1667 285.833,64.5 286.5,64.5C 286.328,65.4916 286.662,66.1583 287.5,66.5C 287.5,67.1667 287.833,67.5 288.5,67.5C 288.328,68.4916 288.662,69.1583 289.5,69.5C 289.5,70.1667 289.833,70.5 290.5,70.5C 290.5,71.1667 290.833,71.5 291.5,71.5C 291.5,71.8333 291.5,72.1667 291.5,72.5C 291.5,73.1667 291.833,73.5 292.5,73.5C 292.5,73.8333 292.5,74.1667 292.5,74.5C 292.5,75.1667 292.833,75.5 293.5,75.5C 293.5,76.1667 293.833,76.5 294.5,76.5C 294.5,76.8333 294.5,77.1667 294.5,77.5C 294.5,78.1667 294.833,78.5 295.5,78.5C 295.5,78.8333 295.5,79.1667 295.5,79.5C 295.5,80.1667 295.833,80.5 296.5,80.5C 296.5,80.8333 296.5,81.1667 296.5,81.5C 296.5,82.1667 296.833,82.5 297.5,82.5C 297.5,83.1667 297.833,83.5 298.5,83.5C 298.5,83.8333 298.5,84.1667 298.5,84.5C 298.5,84.8333 298.5,85.1667 298.5,85.5C 298.5,86.1667 298.833,86.5 299.5,86.5C 299.5,86.8333 299.5,87.1667 299.5,87.5C 299.5,88.1667 299.833,88.5 300.5,88.5C 300.5,89.1667 300.833,89.5 301.5,89.5C 301.5,90.1667 301.5,90.8333 301.5,91.5C 301.5,92.1667 301.833,92.5 302.5,92.5C 302.5,92.8333 302.5,93.1667 302.5,93.5C 302.5,94.1667 302.833,94.5 303.5,94.5C 303.557,95.609 303.89,96.609 304.5,97.5C 304.5,97.8333 304.5,98.1667 304.5,98.5C 304.5,99.1667 304.833,99.5 305.5,99.5C 306.462,103.395 307.796,107.061 309.5,110.5C 309.5,111.5 309.5,112.5 309.5,113.5C 309.5,114.167 309.833,114.5 310.5,114.5C 310.5,115.167 310.5,115.833 310.5,116.5C 310.5,117.167 310.833,117.5 311.5,117.5C 311.5,118.833 311.5,120.167 311.5,121.5C 311.328,122.492 311.662,123.158 312.5,123.5C 312.5,124.167 312.5,124.833 312.5,125.5C 312.328,126.492 312.662,127.158 313.5,127.5C 313.216,129.415 313.549,131.081 314.5,132.5C 314.205,134.735 314.539,136.735 315.5,138.5C 315.5,151.167 315.5,163.833 315.5,176.5C 314.539,178.265 314.205,180.265 314.5,182.5C 313.549,183.919 313.216,185.585 313.5,187.5C 312.662,187.842 312.328,188.508 312.5,189.5C 312.5,190.167 312.5,190.833 312.5,191.5C 311.662,191.842 311.328,192.508 311.5,193.5C 311.5,194.833 311.5,196.167 311.5,197.5C 310.833,197.5 310.5,197.833 310.5,198.5C 310.5,199.167 310.5,199.833 310.5,200.5C 309.833,200.5 309.5,200.833 309.5,201.5C 309.5,202.5 309.5,203.5 309.5,204.5C 308.596,205.209 308.263,206.209 308.5,207.5C 307.596,208.209 307.263,209.209 307.5,210.5C 306.596,211.209 306.263,212.209 306.5,213.5C 305.662,213.842 305.328,214.508 305.5,215.5C 304.833,215.5 304.5,215.833 304.5,216.5C 304.5,216.833 304.5,217.167 304.5,217.5C 304.5,217.833 304.5,218.167 304.5,218.5C 303.662,218.842 303.328,219.508 303.5,220.5C 302.833,220.5 302.5,220.833 302.5,221.5C 302.5,221.833 302.5,222.167 302.5,222.5C 301.833,222.5 301.5,222.833 301.5,223.5C 301.5,224.167 301.5,224.833 301.5,225.5C 300.833,225.5 300.5,225.833 300.5,226.5C 299.833,226.5 299.5,226.833 299.5,227.5C 299.5,227.833 299.5,228.167 299.5,228.5C 298.833,228.5 298.5,228.833 298.5,229.5C 298.5,229.833 298.5,230.167 298.5,230.5C 298.5,230.833 298.5,231.167 298.5,231.5C 297.833,231.5 297.5,231.833 297.5,232.5C 296.833,232.5 296.5,232.833 296.5,233.5C 296.5,233.833 296.5,234.167 296.5,234.5C 295.833,234.5 295.5,234.833 295.5,235.5C 295.5,235.833 295.5,236.167 295.5,236.5C 294.833,236.5 294.5,236.833 294.5,237.5C 294.5,237.833 294.5,238.167 294.5,238.5C 293.833,238.5 293.5,238.833 293.5,239.5C 292.833,239.5 292.5,239.833 292.5,240.5C 292.5,240.833 292.5,241.167 292.5,241.5C 291.833,241.5 291.5,241.833 291.5,242.5C 291.5,242.833 291.5,243.167 291.5,243.5C 290.833,243.5 290.5,243.833 290.5,244.5C 289.833,244.5 289.5,244.833 289.5,245.5C 288.662,245.842 288.328,246.508 288.5,247.5C 287.833,247.5 287.5,247.833 287.5,248.5C 286.662,248.842 286.328,249.508 286.5,250.5C 285.833,250.5 285.5,250.833 285.5,251.5C 284.833,251.5 284.5,251.833 284.5,252.5C 283.833,252.5 283.5,252.833 283.5,253.5C 283.5,253.833 283.5,254.167 283.5,254.5C 282.833,254.5 282.5,254.833 282.5,255.5C 281.833,255.5 281.5,255.833 281.5,256.5C 280.833,256.5 280.5,256.833 280.5,257.5C 280.5,257.833 280.5,258.167 280.5,258.5C 279.833,258.5 279.5,258.833 279.5,259.5C 278.833,259.5 278.5,259.833 278.5,260.5C 277.833,260.5 277.5,260.833 277.5,261.5C 276.833,261.5 276.5,261.833 276.5,262.5C 275.833,262.5 275.5,262.833 275.5,263.5C 274.833,263.5 274.5,263.833 274.5,264.5C 273.094,264.973 272.427,265.973 272.5,267.5C 272.167,267.5 271.833,267.5 271.5,267.5C 270.662,267.842 270.328,268.508 270.5,269.5C 269.833,269.5 269.5,269.833 269.5,270.5C 268.833,270.5 268.5,270.833 268.5,271.5C 267.833,271.5 267.5,271.833 267.5,272.5C 267.167,272.5 266.833,272.5 266.5,272.5C 265.5,272.833 264.833,273.5 264.5,274.5C 263.833,274.5 263.5,274.833 263.5,275.5C 262.833,275.5 262.5,275.833 262.5,276.5C 261.833,276.5 261.5,276.833 261.5,277.5C 260.833,277.5 260.5,277.833 260.5,278.5C 259.833,278.5 259.5,278.833 259.5,279.5C 258.833,279.5 258.5,279.833 258.5,280.5C 257.508,280.328 256.842,280.662 256.5,281.5C 255.833,281.5 255.5,281.833 255.5,282.5C 254.833,282.5 254.5,282.833 254.5,283.5C 253.833,283.5 253.5,283.833 253.5,284.5C 252.508,284.328 251.842,284.662 251.5,285.5C 250.833,285.5 250.5,285.833 250.5,286.5C 250.167,286.5 249.833,286.5 249.5,286.5C 248.833,286.5 248.5,286.833 248.5,287.5C 247.833,287.5 247.5,287.833 247.5,288.5C 246.833,288.5 246.5,288.833 246.5,289.5C 245.508,289.328 244.842,289.662 244.5,290.5C 243.833,290.5 243.5,290.833 243.5,291.5C 242.508,291.328 241.842,291.662 241.5,292.5C 240.508,292.328 239.842,292.662 239.5,293.5C 238.833,293.5 238.5,293.833 238.5,294.5C 237.508,294.328 236.842,294.662 236.5,295.5C 235.508,295.328 234.842,295.662 234.5,296.5C 233.508,296.328 232.842,296.662 232.5,297.5C 231.508,297.328 230.842,297.662 230.5,298.5C 229.833,298.5 229.5,298.833 229.5,299.5C 228.209,299.263 227.209,299.596 226.5,300.5C 225.833,300.5 225.5,300.833 225.5,301.5C 224.209,301.263 223.209,301.596 222.5,302.5C 221.508,302.328 220.842,302.662 220.5,303.5C 219.508,303.328 218.842,303.662 218.5,304.5C 217.209,304.263 216.209,304.596 215.5,305.5C 214.508,305.328 213.842,305.662 213.5,306.5C 212.209,306.263 211.209,306.596 210.5,307.5C 209.209,307.263 208.209,307.596 207.5,308.5C 206.209,308.263 205.209,308.596 204.5,309.5C 202.901,309.232 201.568,309.566 200.5,310.5C 199.209,310.263 198.209,310.596 197.5,311.5C 190.007,312.636 182.673,313.969 175.5,315.5C 163.5,315.5 151.5,315.5 139.5,315.5C 132.327,313.969 124.993,312.636 117.5,311.5C 116.791,310.596 115.791,310.263 114.5,310.5C 113.432,309.566 112.099,309.232 110.5,309.5C 106.048,307.459 101.382,305.792 96.5,304.5C 93.1167,302.259 89.45,300.592 85.5,299.5C 85.5,298.833 85.1667,298.5 84.5,298.5C 78.5224,294.868 72.5224,291.201 66.5,287.5C 66.5,286.833 66.1667,286.5 65.5,286.5C 61.1667,283.167 56.8333,279.833 52.5,276.5C 52.5,275.833 52.1667,275.5 51.5,275.5C 51.5,274.833 51.1667,274.5 50.5,274.5C 50.1667,273.5 49.5,272.833 48.5,272.5C 48.1667,272.5 47.8333,272.5 47.5,272.5C 47.5,271.833 47.1667,271.5 46.5,271.5C 46.1667,270.5 45.5,269.833 44.5,269.5C 44.6716,268.508 44.3382,267.842 43.5,267.5C 43.1667,267.5 42.8333,267.5 42.5,267.5C 42.573,265.973 41.9063,264.973 40.5,264.5C 40.5,263.833 40.1667,263.5 39.5,263.5C 39.5,262.833 39.1667,262.5 38.5,262.5C 38.5,261.833 38.1667,261.5 37.5,261.5C 36.8333,260.167 35.8333,259.167 34.5,258.5C 34.5,258.167 34.5,257.833 34.5,257.5C 34.5,256.833 34.1667,256.5 33.5,256.5C 32.8333,255.5 32.1667,254.5 31.5,253.5C 31.5,252.833 31.1667,252.5 30.5,252.5C 30.5,251.833 30.1667,251.5 29.5,251.5C 29.5,250.833 29.1667,250.5 28.5,250.5C 28.6716,249.508 28.3382,248.842 27.5,248.5C 27.5,247.833 27.1667,247.5 26.5,247.5C 26.6716,246.508 26.3382,245.842 25.5,245.5C 25.5,244.833 25.1667,244.5 24.5,244.5C 24.5,243.833 24.1667,243.5 23.5,243.5C 23.5,243.167 23.5,242.833 23.5,242.5C 23.5,241.833 23.1667,241.5 22.5,241.5C 22.5,241.167 22.5,240.833 22.5,240.5C 22.5,239.833 22.1667,239.5 21.5,239.5C 21.5,238.833 21.1667,238.5 20.5,238.5C 20.5,238.167 20.5,237.833 20.5,237.5C 20.5,236.833 20.1667,236.5 19.5,236.5C 19.5,236.167 19.5,235.833 19.5,235.5C 19.5,234.833 19.1667,234.5 18.5,234.5C 18.5,234.167 18.5,233.833 18.5,233.5C 18.1667,232.5 17.5,231.833 16.5,231.5C 16.5,231.167 16.5,230.833 16.5,230.5C 16.5,230.167 16.5,229.833 16.5,229.5C 16.5,228.833 16.1667,228.5 15.5,228.5C 15.5,228.167 15.5,227.833 15.5,227.5C 15.5,226.833 15.1667,226.5 14.5,226.5C 14.5,225.833 14.1667,225.5 13.5,225.5C 13.5,224.833 13.5,224.167 13.5,223.5C 13.5,222.833 13.1667,222.5 12.5,222.5C 12.5,222.167 12.5,221.833 12.5,221.5C 12.5,220.833 12.1667,220.5 11.5,220.5C 11.6716,219.508 11.3382,218.842 10.5,218.5C 10.5,218.167 10.5,217.833 10.5,217.5C 10.5,217.167 10.5,216.833 10.5,216.5C 10.5,215.833 10.1667,215.5 9.5,215.5C 9.67158,214.508 9.33825,213.842 8.5,213.5C 8.40505,211.214 7.73838,209.214 6.5,207.5C 6.73731,206.209 6.40397,205.209 5.5,204.5C 5.5,203.5 5.5,202.5 5.5,201.5C 5.5,200.833 5.16667,200.5 4.5,200.5C 4.5,199.833 4.5,199.167 4.5,198.5C 4.5,197.833 4.16667,197.5 3.5,197.5C 3.5,196.167 3.5,194.833 3.5,193.5C 3.67158,192.508 3.33825,191.842 2.5,191.5C 2.5,190.833 2.5,190.167 2.5,189.5C 2.67158,188.508 2.33825,187.842 1.5,187.5C 1.78448,185.585 1.45115,183.919 0.5,182.5C 0.794717,180.265 0.461384,178.265 -0.5,176.5C -0.5,163.833 -0.5,151.167 -0.5,138.5C 0.461384,136.735 0.794717,134.735 0.5,132.5C 1.45115,131.081 1.78448,129.415 1.5,127.5C 2.33825,127.158 2.67158,126.492 2.5,125.5C 2.5,124.833 2.5,124.167 2.5,123.5C 3.33825,123.158 3.67158,122.492 3.5,121.5C 3.5,120.167 3.5,118.833 3.5,117.5C 4.16667,117.5 4.5,117.167 4.5,116.5C 4.5,115.833 4.5,115.167 4.5,114.5C 5.16667,114.5 5.5,114.167 5.5,113.5C 5.5,112.5 5.5,111.5 5.5,110.5C 7.20427,107.061 8.5376,103.395 9.5,99.5C 10.1667,99.5 10.5,99.1667 10.5,98.5C 10.5,98.1667 10.5,97.8333 10.5,97.5C 11.1098,96.609 11.4431,95.609 11.5,94.5C 12.1667,94.5 12.5,94.1667 12.5,93.5C 12.5,93.1667 12.5,92.8333 12.5,92.5C 13.1667,92.5 13.5,92.1667 13.5,91.5C 13.5,90.8333 13.5,90.1667 13.5,89.5C 14.1667,89.5 14.5,89.1667 14.5,88.5C 15.1667,88.5 15.5,88.1667 15.5,87.5C 15.5,87.1667 15.5,86.8333 15.5,86.5C 16.1667,86.5 16.5,86.1667 16.5,85.5C 16.5,85.1667 16.5,84.8333 16.5,84.5C 16.5,84.1667 16.5,83.8333 16.5,83.5C 17.1667,83.5 17.5,83.1667 17.5,82.5C 18.1667,82.5 18.5,82.1667 18.5,81.5C 18.5,81.1667 18.5,80.8333 18.5,80.5C 19.1667,80.5 19.5,80.1667 19.5,79.5C 19.5,79.1667 19.5,78.8333 19.5,78.5C 20.1667,78.5 20.5,78.1667 20.5,77.5C 20.5,77.1667 20.5,76.8333 20.5,76.5C 21.1667,76.5 21.5,76.1667 21.5,75.5C 22.1667,75.5 22.5,75.1667 22.5,74.5C 22.5,74.1667 22.5,73.8333 22.5,73.5C 23.1667,73.5 23.5,73.1667 23.5,72.5C 23.5,72.1667 23.5,71.8333 23.5,71.5C 24.1667,71.5 24.5,71.1667 24.5,70.5C 25.1667,70.5 25.5,70.1667 25.5,69.5C 26.3382,69.1583 26.6716,68.4916 26.5,67.5C 27.1667,67.5 27.5,67.1667 27.5,66.5C 28.3382,66.1583 28.6716,65.4916 28.5,64.5C 29.1667,64.5 29.5,64.1667 29.5,63.5C 30.1667,63.5 30.5,63.1667 30.5,62.5C 31.1667,62.5 31.5,62.1667 31.5,61.5C 32.1667,60.5 32.8333,59.5 33.5,58.5C 34.1667,58.5 34.5,58.1667 34.5,57.5C 34.5,57.1667 34.5,56.8333 34.5,56.5C 35.8333,55.8333 36.8333,54.8333 37.5,53.5C 38.1667,53.5 38.5,53.1667 38.5,52.5C 39.1667,52.5 39.5,52.1667 39.5,51.5C 40.1667,51.5 40.5,51.1667 40.5,50.5C 41.9063,50.0269 42.573,49.0269 42.5,47.5C 42.8333,47.5 43.1667,47.5 43.5,47.5C 44.3382,47.1583 44.6716,46.4916 44.5,45.5C 45.5,45.1667 46.1667,44.5 46.5,43.5C 47.1667,43.5 47.5,43.1667 47.5,42.5C 47.8333,42.5 48.1667,42.5 48.5,42.5C 49.5,42.1667 50.1667,41.5 50.5,40.5C 51.1667,40.5 51.5,40.1667 51.5,39.5C 52.1667,39.5 52.5,39.1667 52.5,38.5C 56.8333,35.1667 61.1667,31.8333 65.5,28.5C 66.1667,28.5 66.5,28.1667 66.5,27.5C 72.5224,23.7986 78.5224,20.132 84.5,16.5C 85.1667,16.5 85.5,16.1667 85.5,15.5C 95.0931,11.5325 104.76,7.86586 114.5,4.5C 115.791,4.73731 116.791,4.40397 117.5,3.5C 124.993,2.36405 132.327,1.03072 139.5,-0.5 Z"/></g>
<g><path style="opacity:0.016" fill="#101010" d="M 117.5,3.5 C 116.209,3.26269 115.209,3.59603 114.5,4.5C 111.402,4.58747 111.068,4.08747 113.5,3C 115.066,2.23502 116.399,2.40168 117.5,3.5 Z"/></g>
<g><path style="opacity:0.004" fill="#0c0c0c" d="M 197.5,3.5 C 199.435,2.29099 201.435,2.45766 203.5,4C 202.552,4.48278 201.552,4.64945 200.5,4.5C 199.791,3.59603 198.791,3.26269 197.5,3.5 Z"/></g>
<g><path style="opacity:1" fill="#0b6cb8" d="M 140.5,5.5 C 208.251,2.11539 259.084,29.4487 293,87.5C 319.794,146.228 314.127,201.561 276,253.5C 240.2,294.472 195.033,312.972 140.5,309C 67.3576,296.525 22.8576,254.025 7,181.5C -0.509922,110.684 26.3234,57.5176 87.5,22C 104.55,14.1205 122.217,8.62046 140.5,5.5 Z"/></g>
<g><path style="opacity:0.008" fill="#0f0f0f" d="M 215.5,9.5 C 215.897,8.47498 216.563,8.30831 217.5,9C 216.906,9.46434 216.239,9.63101 215.5,9.5 Z"/></g>
<g><path style="opacity:0.004" fill="#0b0b0b" d="M 85.5,15.5 C 84.8333,15.5 84.5,15.8333 84.5,16.5C 82.0248,16.2533 82.0248,15.5866 84.5,14.5C 85.1067,14.6236 85.44,14.9569 85.5,15.5 Z"/></g>
<g><path style="opacity:0.004" fill="#0b0b0b" d="M 229.5,15.5 C 230.497,14.2875 231.497,14.4542 232.5,16C 231.906,16.4643 231.239,16.631 230.5,16.5C 229.833,16.5 229.5,16.1667 229.5,15.5 Z"/></g>
<g><path style="opacity:1" fill="#e9f2f9" d="M 168.5,15.5 C 174.51,16.0937 180.51,16.7604 186.5,17.5C 187.363,19.8954 187.363,22.2287 186.5,24.5C 183.691,20.9287 180.025,19.262 175.5,19.5C 175.5,21.1667 175.5,22.8333 175.5,24.5C 177.484,24.6168 179.15,23.9501 180.5,22.5C 181.367,25.5381 181.034,28.5381 179.5,31.5C 178.996,28.6582 177.329,27.3249 174.5,27.5C 174.5,29.8333 174.5,32.1667 174.5,34.5C 179.126,35.2996 182.96,33.9663 186,30.5C 186.692,31.0253 187.192,31.6919 187.5,32.5C 186.289,34.4219 184.956,36.2552 183.5,38C 177.475,38.0532 171.475,37.5532 165.5,36.5C 165.461,34.6412 166.294,33.3079 168,32.5C 168.516,28.434 169.35,24.434 170.5,20.5C 169.453,18.9436 168.786,17.2769 168.5,15.5 Z"/></g>
<g><path style="opacity:1" fill="#eef4fa" d="M 134.5,16.5 C 145.852,14.7023 151.352,19.3689 151,30.5C 147.942,35.4225 143.442,37.9225 137.5,38C 134.773,38.8184 132.106,38.6517 129.5,37.5C 130.611,36.3887 131.278,35.0554 131.5,33.5C 130.603,29.5138 129.769,25.5138 129,21.5C 127.294,20.6921 126.461,19.3588 126.5,17.5C 129.385,17.8064 132.052,17.4731 134.5,16.5 Z"/></g>
<g><path style="opacity:1" fill="#166fb9" d="M 135.5,19.5 C 144.321,19.794 147.154,24.1273 144,32.5C 142.054,34.9944 139.721,35.6611 137,34.5C 136.252,29.5186 135.752,24.5186 135.5,19.5 Z"/></g>
<g><path style="opacity:1" fill="#f0f6fa" d="M 206.5,23.5 C 210.09,24.6284 213.423,26.295 216.5,28.5C 215.372,29.2621 214.205,29.9288 213,30.5C 210.432,34.6118 208.765,38.9452 208,43.5C 211.621,44.9133 215.121,44.58 218.5,42.5C 219.072,45.8293 217.572,48.1626 214,49.5C 209.58,47.4712 205.08,45.6378 200.5,44C 199.663,42.9887 199.33,41.8221 199.5,40.5C 200.675,40.719 201.675,40.3857 202.5,39.5C 206.139,34.6131 207.472,29.2798 206.5,23.5 Z"/></g>
<g><path style="opacity:0.004" fill="#0a0a0a" d="M 66.5,27.5 C 66.5,28.1667 66.1667,28.5 65.5,28.5C 64.3207,26.591 64.654,26.2576 66.5,27.5 Z"/></g>
<g><path style="opacity:0.008" fill="#0b0b0b" d="M 249.5,28.5 C 248.833,28.5 248.5,28.1667 248.5,27.5C 250.346,26.2576 250.679,26.591 249.5,28.5 Z"/></g>
<g><path style="opacity:1" fill="#f3f8fb" d="M 98.5,27.5 C 99.8734,27.3433 101.207,27.51 102.5,28C 107.264,33.4385 112.598,38.1052 118.5,42C 115.531,43.4844 112.531,44.9844 109.5,46.5C 108.355,45.2243 108.355,43.891 109.5,42.5C 109.023,41.5224 108.357,40.6891 107.5,40C 105.243,40.4371 102.91,40.9371 100.5,41.5C 99.8429,44.8408 101.176,46.8408 104.5,47.5C 102.393,49.8868 99.7265,51.2201 96.5,51.5C 97.101,43.4544 97.7676,35.4544 98.5,27.5 Z"/></g>
<g><path style="opacity:1" fill="#2171ba" d="M 100.5,33.5 C 102.727,34.4006 103.727,36.0672 103.5,38.5C 102.5,38.5 101.5,38.5 100.5,38.5C 100.5,36.8333 100.5,35.1667 100.5,33.5 Z"/></g>
<g><path style="opacity:0.008" fill="#090909" d="M 52.5,38.5 C 51.8333,38.5 51.5,38.8333 51.5,39.5C 50.8333,39.5 50.5,39.8333 50.5,40.5C 50.1667,41.5 49.5,42.1667 48.5,42.5C 48.5,41.8333 48.1667,41.5 47.5,41.5C 48.6485,38.9131 50.3152,37.9131 52.5,38.5 Z"/></g>
<g><path style="opacity:0.008" fill="#090909" d="M 262.5,38.5 C 264.685,37.9131 266.352,38.9131 267.5,41.5C 266.833,41.5 266.5,41.8333 266.5,42.5C 265.5,42.1667 264.833,41.5 264.5,40.5C 263.833,40.5 263.5,40.1667 263.5,39.5C 262.833,39.5 262.5,39.1667 262.5,38.5 Z"/></g>
<g><path style="opacity:0.004" fill="#070707" d="M 47.5,41.5 C 47.5,41.8333 47.5,42.1667 47.5,42.5C 47.5,43.1667 47.1667,43.5 46.5,43.5C 45.5613,42.6726 45.8946,42.0059 47.5,41.5 Z"/></g>
<g><path style="opacity:1" fill="#eff5fa" d="M 239.5,41.5 C 244.918,43.3942 249.418,46.7276 253,51.5C 254.69,56.4578 253.023,59.4578 248,60.5C 244.846,59.8398 242.013,58.5065 239.5,56.5C 236.721,57.6735 236.054,59.5068 237.5,62C 236.975,62.6924 236.308,63.1924 235.5,63.5C 233.424,61.7123 231.257,60.0456 229,58.5C 228.517,57.552 228.351,56.552 228.5,55.5C 229.873,55.6567 231.207,55.49 232.5,55C 235.118,52.2605 237.618,49.4272 240,46.5C 240.384,44.8034 240.218,43.1368 239.5,41.5 Z"/></g>
<g><path style="opacity:0.004" fill="#070707" d="M 267.5,41.5 C 269.105,42.0059 269.439,42.6726 268.5,43.5C 267.833,43.5 267.5,43.1667 267.5,42.5C 267.5,42.1667 267.5,41.8333 267.5,41.5 Z"/></g>
<g><path style="opacity:1" fill="#eef5fa" d="M 141.5,44.5 C 189.927,40.7827 227.76,58.7827 255,98.5C 274.773,133.455 276.773,169.455 261,206.5C 242.89,242.936 213.724,264.436 173.5,271C 123.125,276.061 84.6246,257.228 58,214.5C 32.0199,160.411 40.5199,112.578 83.5,71C 100.539,56.9777 119.873,48.1443 141.5,44.5 Z"/></g>
<g><path style="opacity:0.004" fill="#0c0c0c" d="M 44.5,45.5 C 44.6716,46.4916 44.3382,47.1583 43.5,47.5C 43.5,46.8333 43.1667,46.5 42.5,46.5C 43.0059,44.8946 43.6726,44.5613 44.5,45.5 Z"/></g>
<g><path style="opacity:0.004" fill="#0c0c0c" d="M 272.5,46.5 C 271.833,46.5 271.5,46.8333 271.5,47.5C 270.662,47.1583 270.328,46.4916 270.5,45.5C 271.327,44.5613 271.994,44.8946 272.5,46.5 Z"/></g>
<g><path style="opacity:1" fill="#ecf4f9" d="M 65.5,48.5 C 67.13,50.0261 67.9633,52.0261 68,54.5C 70.3797,57.924 73.213,60.924 76.5,63.5C 80.0086,60.727 81.3419,57.0604 80.5,52.5C 81.5,52.5 82.5,52.5 83.5,52.5C 84.3287,55.4686 84.4954,58.4686 84,61.5C 80,64.8333 76,68.1667 72,71.5C 70.4567,64.0878 65.9567,58.7544 58.5,55.5C 61.0602,53.3879 63.3936,51.0546 65.5,48.5 Z"/></g>
<g><path style="opacity:0.012" fill="#0d0d0d" d="M 272.5,46.5 C 274.463,47.9599 276.296,49.6266 278,51.5C 278.692,52.4368 278.525,53.1034 277.5,53.5C 276.833,53.5 276.5,53.1667 276.5,52.5C 275.833,52.5 275.5,52.1667 275.5,51.5C 274.833,51.5 274.5,51.1667 274.5,50.5C 273.094,50.0269 272.427,49.0269 272.5,47.5C 272.5,47.1667 272.5,46.8333 272.5,46.5 Z"/></g>
<g><path style="opacity:0.012" fill="#0d0d0d" d="M 42.5,46.5 C 42.5,46.8333 42.5,47.1667 42.5,47.5C 42.573,49.0269 41.9063,50.0269 40.5,50.5C 39.8333,50.5 39.5,50.8333 39.5,51.5C 38.8333,51.5 38.5,51.8333 38.5,52.5C 37.8333,52.5 37.5,52.8333 37.5,53.5C 36.475,53.1034 36.3083,52.4368 37,51.5C 38.7038,49.6266 40.5372,47.9599 42.5,46.5 Z"/></g>
<g><path style="opacity:1" fill="#1970b9" d="M 145.5,48.5 C 197.859,46.5844 235.692,68.9177 259,115.5C 274.775,160.962 266.608,201.462 234.5,237C 203.592,264.311 167.925,273.311 127.5,264C 73.912,244.731 47.412,206.564 48,149.5C 56.6466,92.6884 89.1466,59.0217 145.5,48.5 Z"/></g>
<g><path style="opacity:1" fill="#176eb9" d="M 244.5,48.5 C 248.252,49.3057 249.252,51.4723 247.5,55C 245.044,55.9461 243.044,55.4461 241.5,53.5C 242.952,52.0603 243.952,50.3936 244.5,48.5 Z"/></g>
<g><path style="opacity:0.008" fill="#0b0b0b" d="M 34.5,56.5 C 34.5,56.8333 34.5,57.1667 34.5,57.5C 33.8333,57.5 33.5,57.8333 33.5,58.5C 32.2875,57.5029 32.4542,56.5029 34,55.5C 34.3988,55.7284 34.5654,56.0618 34.5,56.5 Z"/></g>
<g><path style="opacity:0.008" fill="#0b0b0b" d="M 281.5,58.5 C 280.833,58.5 280.5,58.1667 280.5,57.5C 280.5,57.1667 280.5,56.8333 280.5,56.5C 280.81,55.2617 281.31,55.2617 282,56.5C 282.692,57.4368 282.525,58.1034 281.5,58.5 Z"/></g>
<g><path style="opacity:1" fill="#f8fbfd" d="M 139.5,63.5 C 133.5,62.8333 127.5,62.1667 121.5,61.5C 143.312,54.088 165.312,53.588 187.5,60C 196.138,67.8327 196.638,75.9994 189,84.5C 179.216,78.3571 169.05,72.8571 158.5,68C 152.273,66.0729 145.94,64.5729 139.5,63.5 Z"/></g>
<g><path style="opacity:0.012" fill="#0f0f0f" d="M 31.5,61.5 C 31.5,62.1667 31.1667,62.5 30.5,62.5C 29.8333,62.5 29.5,62.8333 29.5,63.5C 29.1667,63.5 28.8333,63.5 28.5,63.5C 28.6322,60.9931 29.6322,60.3264 31.5,61.5 Z"/></g>
<g><path style="opacity:0.012" fill="#0f0f0f" d="M 286.5,63.5 C 286.167,63.5 285.833,63.5 285.5,63.5C 284.833,63.5 284.5,63.1667 284.5,62.5C 283.833,62.5 283.5,62.1667 283.5,61.5C 285.368,60.3264 286.368,60.9931 286.5,63.5 Z"/></g>
<g><path style="opacity:1" fill="#67a5d3" d="M 121.5,61.5 C 127.5,62.1667 133.5,62.8333 139.5,63.5C 132.492,63.6663 125.492,63.4996 118.5,63C 119.527,62.4867 120.527,61.9867 121.5,61.5 Z"/></g>
<g><path style="opacity:1" fill="#f9fbfd" d="M 196.5,64.5 C 208.777,68.1672 219.61,74.8338 229,84.5C 229.667,85.1667 229.667,85.8333 229,86.5C 223.544,90.2873 218.377,94.454 213.5,99C 211.788,100.751 209.788,101.418 207.5,101C 202.8,96.6592 198.133,92.3259 193.5,88C 195.705,85.095 197.539,81.9283 199,78.5C 200.193,73.3282 199.36,68.6615 196.5,64.5 Z"/></g>
<g><path style="opacity:0.008" fill="#0c0c0c" d="M 28.5,63.5 C 28.5,63.8333 28.5,64.1667 28.5,64.5C 28.6716,65.4916 28.3382,66.1583 27.5,66.5C 26.8333,66.5 26.5,66.8333 26.5,67.5C 26.6716,68.4916 26.3382,69.1583 25.5,69.5C 24.8333,69.5 24.5,69.8333 24.5,70.5C 24.1667,70.5 23.8333,70.5 23.5,70.5C 24.4333,67.6298 26.1,65.2964 28.5,63.5 Z"/></g>
<g><path style="opacity:1" fill="#fbfcfd" d="M 114.5,67.5 C 140.626,65.029 163.959,71.8624 184.5,88C 177.48,92.6785 169.814,96.0118 161.5,98C 150.52,100.129 139.52,102.129 128.5,104C 127.62,105.356 127.286,106.856 127.5,108.5C 141.347,107.081 155.013,104.581 168.5,101C 175.664,98.5007 182.497,95.334 189,91.5C 194.277,95.1062 199.277,99.1062 204,103.5C 204.667,104.5 204.667,105.5 204,106.5C 192.684,116.315 181.518,126.315 170.5,136.5C 171.531,137.7 172.365,139.034 173,140.5C 185,129.833 197,119.167 209,108.5C 214.021,114.02 218.854,119.686 223.5,125.5C 211.409,139.662 205.242,155.662 205,173.5C 206.892,173.223 208.225,172.223 209,170.5C 210.89,157.601 215.223,145.601 222,134.5C 223.351,132.981 224.851,131.648 226.5,130.5C 235.02,142.878 240.187,156.544 242,171.5C 243.441,172.26 244.941,172.926 246.5,173.5C 246.628,165.638 245.128,157.971 242,150.5C 239.029,142.21 235.196,134.377 230.5,127C 234.605,123.175 239.272,122.509 244.5,125C 254.65,132.97 259.984,143.303 260.5,156C 259.875,173.999 255.875,191.165 248.5,207.5C 246.064,207.317 243.897,207.984 242,209.5C 241.306,214.096 239.972,218.429 238,222.5C 217.6,246.949 191.433,259.449 159.5,260C 175.66,250.162 187.16,236.329 194,218.5C 195.167,215.5 196.333,212.5 197.5,209.5C 195.525,208.422 193.692,208.755 192,210.5C 186.247,228.533 175.747,243.033 160.5,254C 155.609,256.864 150.442,259.03 145,260.5C 121.45,256.891 101.117,246.891 84,230.5C 83.3333,229.833 83.3333,229.167 84,228.5C 89.3877,223.615 94.2211,218.282 98.5,212.5C 96.9255,211.369 95.2588,211.202 93.5,212C 89,216.5 84.5,221 80,225.5C 64.4589,206.894 55.9589,185.394 54.5,161C 56.5247,151.449 61.0247,143.282 68,136.5C 68.6667,134.5 68.6667,132.5 68,130.5C 63.9648,134.2 60.2981,138.2 57,142.5C 59.0974,123.299 66.4307,106.299 79,91.5C 84.8644,85.301 91.0311,79.4677 97.5,74C 103.225,71.6662 108.892,69.4995 114.5,67.5 Z"/></g>
<g><path style="opacity:1" fill="#f0f6fa" d="M 267.5,67.5 C 270.954,68.7924 273.288,71.2924 274.5,75C 274.167,75.5 273.833,76 273.5,76.5C 266.94,75.9606 265.94,78.294 270.5,83.5C 271.002,84.521 271.668,84.6877 272.5,84C 274.422,82.5804 275.755,80.7471 276.5,78.5C 278.727,80.6068 280.727,82.9401 282.5,85.5C 282.192,86.3081 281.692,86.9747 281,87.5C 279.951,86.4829 278.784,86.3162 277.5,87C 272.276,89.7269 268.276,93.5602 265.5,98.5C 263.694,95.528 261.694,92.6947 259.5,90C 261.771,89.5459 264.104,88.8793 266.5,88C 268.007,87.1627 268.507,85.9961 268,84.5C 265.865,79.6747 263.199,79.3414 260,83.5C 259.71,85.0441 259.044,86.3774 258,87.5C 255.787,84.9054 253.953,82.0721 252.5,79C 257.538,77.9715 262.205,75.4715 266.5,71.5C 267.429,70.3112 267.762,68.9778 267.5,67.5 Z"/></g>
<g><path style="opacity:0.008" fill="#0c0c0c" d="M 286.5,63.5 C 288.9,65.2964 290.567,67.6298 291.5,70.5C 291.167,70.5 290.833,70.5 290.5,70.5C 289.833,70.5 289.5,70.1667 289.5,69.5C 288.662,69.1583 288.328,68.4916 288.5,67.5C 287.833,67.5 287.5,67.1667 287.5,66.5C 286.662,66.1583 286.328,65.4916 286.5,64.5C 286.5,64.1667 286.5,63.8333 286.5,63.5 Z"/></g>
<g><path style="opacity:1" fill="#f1f7fb" d="M 45.5,69.5 C 48.7418,73.659 52.7418,77.159 57.5,80C 59.1341,80.4935 60.8008,80.6602 62.5,80.5C 62.6495,81.552 62.4828,82.552 62,83.5C 60.3903,85.731 58.557,87.731 56.5,89.5C 55.9611,86.8336 54.6278,84.6669 52.5,83C 50.1667,81.3333 47.8333,79.6667 45.5,78C 43.8204,77.9657 42.3204,77.799 41,77.5C 42.1413,74.8021 43.6413,72.1354 45.5,69.5 Z"/></g>
<g><path style="opacity:0.008" fill="#0b0b0b" d="M 23.5,70.5 C 23.5,70.8333 23.5,71.1667 23.5,71.5C 23.5,71.8333 23.5,72.1667 23.5,72.5C 22.8333,72.5 22.5,72.8333 22.5,73.5C 22.5,73.8333 22.5,74.1667 22.5,74.5C 21.8333,74.5 21.5,74.8333 21.5,75.5C 20.8333,75.5 20.5,75.8333 20.5,76.5C 20.5,76.8333 20.5,77.1667 20.5,77.5C 19.8333,77.5 19.5,77.8333 19.5,78.5C 19.5,78.8333 19.5,79.1667 19.5,79.5C 18.8333,79.5 18.5,79.8333 18.5,80.5C 18.5,80.8333 18.5,81.1667 18.5,81.5C 17.8333,81.5 17.5,81.8333 17.5,82.5C 17.1667,82.5 16.8333,82.5 16.5,82.5C 17.809,77.8792 20.1423,73.8792 23.5,70.5 Z"/></g>
<g><path style="opacity:0.004" fill="#0a0a0a" d="M 291.5,70.5 C 294.858,73.8792 297.191,77.8792 298.5,82.5C 298.167,82.5 297.833,82.5 297.5,82.5C 296.833,82.5 296.5,82.1667 296.5,81.5C 296.5,81.1667 296.5,80.8333 296.5,80.5C 295.833,80.5 295.5,80.1667 295.5,79.5C 295.5,79.1667 295.5,78.8333 295.5,78.5C 294.833,78.5 294.5,78.1667 294.5,77.5C 294.5,77.1667 294.5,76.8333 294.5,76.5C 293.833,76.5 293.5,76.1667 293.5,75.5C 292.833,75.5 292.5,75.1667 292.5,74.5C 292.5,74.1667 292.5,73.8333 292.5,73.5C 291.833,73.5 291.5,73.1667 291.5,72.5C 291.5,72.1667 291.5,71.8333 291.5,71.5C 291.5,71.1667 291.5,70.8333 291.5,70.5 Z"/></g>
<g><path style="opacity:0.008" fill="#0e0e0e" d="M 16.5,82.5 C 16.5,82.8333 16.5,83.1667 16.5,83.5C 16.5,83.8333 16.5,84.1667 16.5,84.5C 15.1667,84.8333 15.1667,85.1667 16.5,85.5C 16.5,86.1667 16.1667,86.5 15.5,86.5C 14.1667,86.8333 14.1667,87.1667 15.5,87.5C 15.5,88.1667 15.1667,88.5 14.5,88.5C 14.1667,88.5 13.8333,88.5 13.5,88.5C 13.461,85.911 14.461,83.911 16.5,82.5 Z"/></g>
<g><path style="opacity:0.008" fill="#0e0e0e" d="M 298.5,82.5 C 300.539,83.911 301.539,85.911 301.5,88.5C 301.167,88.5 300.833,88.5 300.5,88.5C 299.833,88.5 299.5,88.1667 299.5,87.5C 300.833,87.1667 300.833,86.8333 299.5,86.5C 298.833,86.5 298.5,86.1667 298.5,85.5C 299.833,85.1667 299.833,84.8333 298.5,84.5C 298.5,84.1667 298.5,83.8333 298.5,83.5C 298.5,83.1667 298.5,82.8333 298.5,82.5 Z"/></g>
<g><path style="opacity:0.004" fill="#0b0b0b" d="M 13.5,88.5 C 13.5,88.8333 13.5,89.1667 13.5,89.5C 13.5,90.1667 13.5,90.8333 13.5,91.5C 12.8333,91.5 12.5,91.8333 12.5,92.5C 12.5,92.8333 12.5,93.1667 12.5,93.5C 11.8333,93.5 11.5,93.8333 11.5,94.5C 10.9569,94.44 10.6236,94.1067 10.5,93.5C 10.9572,91.4024 11.9572,89.7358 13.5,88.5 Z"/></g>
<g><path style="opacity:1" fill="#f8fbfd" d="M 232.5,89.5 C 234.017,89.5106 235.184,90.1772 236,91.5C 245.613,103.062 252.28,116.062 256,130.5C 248.519,118.665 238.686,115.832 226.5,122C 223.081,116.577 218.915,111.744 214,107.5C 213.37,105.097 214.203,103.263 216.5,102C 222.02,97.9696 227.353,93.803 232.5,89.5 Z"/></g>
<g><path style="opacity:0.004" fill="#0b0b0b" d="M 301.5,88.5 C 303.043,89.7358 304.043,91.4024 304.5,93.5C 304.376,94.1067 304.043,94.44 303.5,94.5C 302.833,94.5 302.5,94.1667 302.5,93.5C 302.5,93.1667 302.5,92.8333 302.5,92.5C 301.833,92.5 301.5,92.1667 301.5,91.5C 301.5,90.8333 301.5,90.1667 301.5,89.5C 301.5,89.1667 301.5,88.8333 301.5,88.5 Z"/></g>
<g><path style="opacity:1" fill="#337ec1" d="M 99.5,87.5 C 100.683,88.5045 102.016,89.3378 103.5,90C 102.19,95.1248 99.8563,95.1248 96.5,90C 98.1193,89.7645 99.1193,88.9311 99.5,87.5 Z"/></g>
<g><path style="opacity:1" fill="#508cc8" d="M 88.5,89.5 C 89.6597,90.6114 90.993,91.6114 92.5,92.5C 90.6496,93.6482 89.983,94.9815 90.5,96.5C 89.5,95.1667 88.5,95.1667 87.5,96.5C 86.6433,95.2643 85.9766,93.931 85.5,92.5C 86.9935,91.8589 87.9935,90.8589 88.5,89.5 Z"/></g>
<g><path style="opacity:1" fill="#3c7ec1" d="M 110.5,90.5 C 112.915,91.9824 113.582,93.9824 112.5,96.5C 111.5,95.1667 110.5,95.1667 109.5,96.5C 109.167,95.8333 108.833,95.1667 108.5,94.5C 109.225,93.1331 109.892,91.7997 110.5,90.5 Z"/></g>
<g><path style="opacity:1" fill="#eff6fa" d="M 29.5,92.5 C 31.6825,93.2997 33.3492,94.7997 34.5,97C 38.1667,98.5 41.8333,100 45.5,101.5C 46.4776,101.023 47.3109,100.357 48,99.5C 48.3333,99.8333 48.6667,100.167 49,100.5C 48.5238,103.16 47.6905,105.826 46.5,108.5C 45.675,109.386 44.675,109.719 43.5,109.5C 39.9766,102.614 36.9766,102.947 34.5,110.5C 36.109,111.888 37.9423,112.888 40,113.5C 41.5777,112.453 43.0777,112.453 44.5,113.5C 43.2812,116.667 41.7812,119.667 40,122.5C 36.1305,118.139 31.2971,115.139 25.5,113.5C 24.5224,113.977 23.6891,114.643 23,115.5C 22.6667,115.167 22.3333,114.833 22,114.5C 21.9153,111.639 22.7486,108.972 24.5,106.5C 25.325,105.614 26.325,105.281 27.5,105.5C 27.4583,107.849 28.6249,109.182 31,109.5C 32.7856,108.103 33.9523,106.27 34.5,104C 33.7875,102.558 32.6209,101.725 31,101.5C 29.5603,102.148 28.0603,102.481 26.5,102.5C 27.5,99.1667 28.5,95.8333 29.5,92.5 Z"/></g>
<g><path style="opacity:0.012" fill="#0d0d0d" d="M 10.5,97.5 C 10.5,97.8333 10.5,98.1667 10.5,98.5C 9.83333,98.5 9.5,98.8333 9.5,99.5C 8.42654,98.7494 8.25988,97.7494 9,96.5C 9.38258,97.056 9.88258,97.3893 10.5,97.5 Z"/></g>
<g><path style="opacity:0.012" fill="#0d0d0d" d="M 305.5,99.5 C 304.833,99.5 304.5,99.1667 304.5,98.5C 304.5,98.1667 304.5,97.8333 304.5,97.5C 305.117,97.3893 305.617,97.056 306,96.5C 306.74,97.7494 306.573,98.7494 305.5,99.5 Z"/></g>
<g><path style="opacity:1" fill="#337ec1" d="M 80.5,97.5 C 81.5336,98.6871 82.867,99.5204 84.5,100C 83.8333,100.667 83.1667,101.333 82.5,102C 83.4506,102.718 83.6172,103.551 83,104.5C 81.3476,103.783 79.8476,103.45 78.5,103.5C 79.6682,102.094 79.3348,100.928 77.5,100C 79.1193,99.7645 80.1193,98.9311 80.5,97.5 Z"/></g>
<g><path style="opacity:1" fill="#327ec1" d="M 118.5,98.5 C 119.683,99.5045 121.016,100.338 122.5,101C 121.833,101.667 121.167,102.333 120.5,103C 121.451,103.718 121.617,104.551 121,105.5C 118.638,104.648 116.805,103.148 115.5,101C 117.119,100.764 118.119,99.9311 118.5,98.5 Z"/></g>
<g><path style="opacity:1" fill="#f1f6fb" d="M 288.5,103.5 C 289.675,103.281 290.675,103.614 291.5,104.5C 292.695,106.751 293.695,109.085 294.5,111.5C 289.721,111.467 285.054,112.634 280.5,115C 278.07,115.643 276.403,117.143 275.5,119.5C 272.831,116.507 271.831,113.174 272.5,109.5C 277.801,110.216 282.801,109.049 287.5,106C 288.252,105.329 288.586,104.496 288.5,103.5 Z"/></g>
<g><path style="opacity:0.012" fill="#0d0d0d" d="M 5.5,110.5 C 4.42654,109.749 4.25988,108.749 5,107.5C 5.48278,108.448 5.64945,109.448 5.5,110.5 Z"/></g>
<g><path style="opacity:0.012" fill="#0d0d0d" d="M 309.5,110.5 C 309.351,109.448 309.517,108.448 310,107.5C 310.74,108.749 310.573,109.749 309.5,110.5 Z"/></g>
<g><path style="opacity:1" fill="#327ec1" d="M 76.5,108.5 C 80.8269,109.05 81.6602,111.05 79,114.5C 76.6383,113.648 74.8049,112.148 73.5,110C 74.7375,109.768 75.7375,109.268 76.5,108.5 Z"/></g>
<g><path style="opacity:1" fill="#3d81c2" d="M 121.5,109.5 C 124.139,110.706 124.972,112.706 124,115.5C 122.575,114.788 121.075,114.621 119.5,115C 120.668,113.594 120.335,112.428 118.5,111.5C 119.602,110.824 120.602,110.158 121.5,109.5 Z"/></g>
<g><path style="opacity:0.004" fill="#0d0d0d" d="M 5.5,113.5 C 5.5,114.167 5.16667,114.5 4.5,114.5C 3.16667,115.167 3.16667,115.833 4.5,116.5C 4.5,117.167 4.16667,117.5 3.5,117.5C 3.16667,117.5 2.83333,117.5 2.5,117.5C 2.37201,115.345 2.87201,113.345 4,111.5C 4.27842,112.416 4.77842,113.082 5.5,113.5 Z"/></g>
<g><path style="opacity:0.004" fill="#0d0d0d" d="M 312.5,117.5 C 312.167,117.5 311.833,117.5 311.5,117.5C 310.833,117.5 310.5,117.167 310.5,116.5C 311.833,115.833 311.833,115.167 310.5,114.5C 309.833,114.5 309.5,114.167 309.5,113.5C 310.222,113.082 310.722,112.416 311,111.5C 312.128,113.345 312.628,115.345 312.5,117.5 Z"/></g>
<g><path style="opacity:1" fill="#337fc1" d="M 77.5,118.5 C 78.6828,119.504 80.0161,120.338 81.5,121C 80.1897,126.125 77.8563,126.125 74.5,121C 76.1193,120.764 77.1193,119.931 77.5,118.5 Z"/></g>
<g><path style="opacity:1" fill="#4685c4" d="M 120.5,119.5 C 121.66,120.611 122.993,121.611 124.5,122.5C 122.65,123.648 121.983,124.981 122.5,126.5C 121.5,125.167 120.5,125.167 119.5,126.5C 118.643,125.264 117.977,123.931 117.5,122.5C 118.993,121.859 119.993,120.859 120.5,119.5 Z"/></g>
<g><path style="opacity:0.004" fill="#141414" d="M 2.5,117.5 C 2.23219,119.099 2.56552,120.432 3.5,121.5C 3.67158,122.492 3.33825,123.158 2.5,123.5C 1.266,123.285 1.266,123.952 2.5,125.5C 2.67158,126.492 2.33825,127.158 1.5,127.5C 0.481917,128.292 0.148583,129.959 0.5,132.5C 0.166667,132.5 -0.166667,132.5 -0.5,132.5C -0.5,130.167 -0.5,127.833 -0.5,125.5C 0.5,122.833 1.5,120.167 2.5,117.5 Z"/></g>
<g><path style="opacity:0.004" fill="#141414" d="M 312.5,117.5 C 313.5,120.167 314.5,122.833 315.5,125.5C 315.5,127.833 315.5,130.167 315.5,132.5C 315.167,132.5 314.833,132.5 314.5,132.5C 314.851,129.959 314.518,128.292 313.5,127.5C 312.662,127.158 312.328,126.492 312.5,125.5C 313.734,123.952 313.734,123.285 312.5,123.5C 311.662,123.158 311.328,122.492 311.5,121.5C 312.434,120.432 312.768,119.099 312.5,117.5 Z"/></g>
<g><path style="opacity:1" fill="#3580c1" d="M 83.5,128.5 C 87.8269,129.05 88.6602,131.05 86,134.5C 83.6383,133.648 81.8049,132.148 80.5,130C 81.7375,129.768 82.7375,129.268 83.5,128.5 Z"/></g>
<g><path style="opacity:1" fill="#4487c5" d="M 114.5,128.5 C 115.534,129.687 116.867,130.52 118.5,131C 117.833,131.667 117.167,132.333 116.5,133C 117.711,133.893 117.711,134.726 116.5,135.5C 115.28,134.289 114.113,134.289 113,135.5C 112.598,134.128 112.098,132.795 111.5,131.5C 112.77,130.712 113.77,129.712 114.5,128.5 Z"/></g>
<g><path style="opacity:1" fill="#ecf3f9" d="M 278.5,131.5 C 285.872,134.399 293.539,136.732 301.5,138.5C 301.785,140.288 301.452,141.955 300.5,143.5C 293.892,146.961 287.559,150.628 281.5,154.5C 281.603,151.781 281.269,149.115 280.5,146.5C 280.833,145.833 281.167,145.167 281.5,144.5C 285.104,147.274 287.104,146.274 287.5,141.5C 287.888,139.045 286.888,137.712 284.5,137.5C 282.964,138.249 281.631,139.249 280.5,140.5C 279.322,137.609 278.655,134.609 278.5,131.5 Z"/></g>
<g><path style="opacity:1" fill="#0d6db8" d="M 144.5,132.5 C 151.391,131.901 158.058,132.735 164.5,135C 171.145,139.778 172.978,145.945 170,153.5C 164.158,159.16 158.824,158.826 154,152.5C 152.011,148.747 151.178,144.747 151.5,140.5C 146.552,140.267 143.385,142.601 142,147.5C 140.594,153.442 140.261,159.442 141,165.5C 150.488,158.392 159.488,159.058 168,167.5C 169.861,169.888 171.194,172.554 172,175.5C 175.664,202.503 164.164,214.003 137.5,210C 127.423,205.354 121.59,197.52 120,186.5C 115.158,167.037 119.991,150.537 134.5,137C 137.815,135.17 141.149,133.67 144.5,132.5 Z"/></g>
<g><path style="opacity:1" fill="#e9f1f8" d="M 20.5,132.5 C 27.9118,133.634 30.5785,137.968 28.5,145.5C 31.2062,145.425 33.8728,145.092 36.5,144.5C 35.9492,147.807 35.6159,151.14 35.5,154.5C 34.5,154.5 33.5,154.5 32.5,154.5C 32.5,153.5 32.5,152.5 32.5,151.5C 29.1746,151.169 25.8413,150.836 22.5,150.5C 19.7214,150.92 17.0547,151.587 14.5,152.5C 14.8893,147.496 15.3893,142.496 16,137.5C 17.025,135.313 18.525,133.646 20.5,132.5 Z"/></g>
<g><path style="opacity:1" fill="#176fb9" d="M 19.5,138.5 C 23.9083,138.062 25.5749,140.062 24.5,144.5C 22.5,144.5 20.5,144.5 18.5,144.5C 18.3253,142.379 18.6586,140.379 19.5,138.5 Z"/></g>
<g><path style="opacity:1" fill="#1f70ba" d="M 290.5,139.5 C 295.137,139.608 295.47,140.608 291.5,142.5C 290.614,141.675 290.281,140.675 290.5,139.5 Z"/></g>
<g><path style="opacity:1" fill="#ed1e4d" d="M 113.5,153.5 C 116.215,151.098 118.715,148.432 121,145.5C 121.982,144.241 122.315,142.908 122,141.5C 118.939,145.384 115.773,149.051 112.5,152.5C 100.151,161.173 86.4842,164.173 71.5,161.5C 71.1681,151.478 71.5015,141.478 72.5,131.5C 85.8814,143.187 100.881,145.687 117.5,139C 120.939,136.861 124.106,134.361 127,131.5C 126.854,135.959 125.854,140.292 124,144.5C 117.3,156.52 110.634,168.52 104,180.5C 101.857,190.042 101.024,199.708 101.5,209.5C 92.3467,206.511 83.3467,206.844 74.5,210.5C 73.3565,205.712 73.8565,201.045 76,196.5C 84.752,178.914 97.252,164.58 113.5,153.5 Z"/></g>
<g><path style="opacity:1" fill="#fdc3d0" d="M 113.5,153.5 C 113.5,152.833 113.167,152.5 112.5,152.5C 115.773,149.051 118.939,145.384 122,141.5C 122.315,142.908 121.982,144.241 121,145.5C 118.715,148.432 116.215,151.098 113.5,153.5 Z"/></g>
<g><path style="opacity:1" fill="#3580c1" d="M 104.5,133.5 C 105.66,134.611 106.993,135.611 108.5,136.5C 107.902,137.795 107.402,139.128 107,140.5C 104.638,139.648 102.805,138.148 101.5,136C 103.119,135.764 104.119,134.931 104.5,133.5 Z"/></g>
<g><path style="opacity:1" fill="#2f7bbf" d="M 93.5,133.5 C 94.5336,134.687 95.867,135.52 97.5,136C 96.1509,136.772 95.3176,137.939 95,139.5C 93.8525,138.542 92.8525,138.875 92,140.5C 91.7266,138.899 91.2266,137.399 90.5,136C 92.1193,135.764 93.1193,134.931 93.5,133.5 Z"/></g>
<g><path style="opacity:1" fill="#f5f9fc" d="M 144.5,170.5 C 147.325,170.081 149.491,171.081 151,173.5C 153.155,182.891 152.822,192.225 150,201.5C 146.844,204.399 144.178,204.065 142,200.5C 140.437,192.913 140.104,185.246 141,177.5C 141.133,174.596 142.3,172.262 144.5,170.5 Z"/></g>
<g><path style="opacity:1" fill="#156eb8" d="M 184.5,174.5 C 195.347,173.68 201.347,178.68 202.5,189.5C 197.493,190.556 192.493,191.723 187.5,193C 186.633,195.316 187.299,197.316 189.5,199C 191.833,199.667 194.167,199.667 196.5,199C 200.225,195.447 201.725,196.281 201,201.5C 190.606,210.588 181.939,209.254 175,197.5C 172.182,187.158 175.349,179.491 184.5,174.5 Z"/></g>
<g><path style="opacity:1" fill="#166fb9" d="M 211.5,174.5 C 212.496,174.414 213.329,174.748 214,175.5C 213.952,183.032 215.286,183.365 218,176.5C 222.99,173.044 225.99,174.377 227,180.5C 232.638,173.953 238.972,172.953 246,177.5C 247.494,183.336 245.327,185.502 239.5,184C 238.228,182.693 237.228,181.193 236.5,179.5C 234.404,180.62 234.07,182.12 235.5,184C 249.023,186.7 252.023,193.7 244.5,205C 239.768,207.401 234.768,208.068 229.5,207C 224.634,204.643 223.634,201.31 226.5,197C 231.645,195.97 234.312,198.137 234.5,203.5C 238.138,204.263 239.638,202.93 239,199.5C 234.862,197.093 230.862,194.427 227,191.5C 226.027,189.608 225.36,187.608 225,185.5C 222.32,185.985 219.653,186.318 217,186.5C 215.675,191.401 215.175,196.401 215.5,201.5C 216.5,201.5 217.5,201.5 218.5,201.5C 218.5,203.167 218.5,204.833 218.5,206.5C 213.167,206.5 207.833,206.5 202.5,206.5C 202.275,204.284 203.108,202.617 205,201.5C 205.667,195.5 205.667,189.5 205,183.5C 203.444,182.48 202.278,181.147 201.5,179.5C 201.833,178.833 202.167,178.167 202.5,177.5C 205.662,176.635 208.662,175.635 211.5,174.5 Z"/></g>
<g><path style="opacity:1" fill="#e1edf6" d="M 187.5,178.5 C 191.254,179.828 192.421,182.494 191,186.5C 189.559,187.26 188.059,187.926 186.5,188.5C 185.146,184.979 185.48,181.646 187.5,178.5 Z"/></g>
<g><path style="opacity:1" fill="#f2f7fb" d="M 28.5,184.5 C 30.4725,187.084 31.4725,190.084 31.5,193.5C 34.8499,193.335 38.1832,193.502 41.5,194C 38.6629,195.672 36.3296,197.839 34.5,200.5C 35.5533,203.131 36.0533,205.798 36,208.5C 33.586,206.709 31.086,205.043 28.5,203.5C 20.1994,211.022 18.5327,209.855 23.5,200C 21.3529,197.763 19.0196,195.763 16.5,194C 19.5535,193.821 22.5535,193.321 25.5,192.5C 26.8089,189.917 27.8089,187.25 28.5,184.5 Z"/></g>
<g><path style="opacity:1" fill="#f1f6fb" d="M 285.5,184.5 C 287.123,186.878 288.457,189.545 289.5,192.5C 292.447,193.321 295.447,193.821 298.5,194C 296.353,196.237 294.02,198.237 291.5,200C 293.053,203.047 293.886,206.214 294,209.5C 291.591,207.38 289.091,205.38 286.5,203.5C 283.991,204.921 281.657,206.588 279.5,208.5C 279.167,208 278.833,207.5 278.5,207C 279.268,204.864 279.934,202.697 280.5,200.5C 278.67,197.839 276.337,195.672 273.5,194C 276.817,193.502 280.15,193.335 283.5,193.5C 283.873,190.426 284.539,187.426 285.5,184.5 Z"/></g>
<g><path style="opacity:0.004" fill="#121212" d="M 314.5,182.5 C 314.833,182.5 315.167,182.5 315.5,182.5C 315.5,184.833 315.5,187.167 315.5,189.5C 314.5,192.167 313.5,194.833 312.5,197.5C 312.768,195.901 312.434,194.568 311.5,193.5C 311.328,192.508 311.662,191.842 312.5,191.5C 313.734,191.715 313.734,191.048 312.5,189.5C 312.328,188.508 312.662,187.842 313.5,187.5C 314.518,186.708 314.851,185.041 314.5,182.5 Z"/></g>
<g><path style="opacity:1" fill="#2173bb" d="M 115.5,188.5 C 117.908,189.315 118.741,190.981 118,193.5C 113.667,197.833 109.333,202.167 105,206.5C 104.333,204.167 104.333,201.833 105,199.5C 108.704,195.964 112.204,192.298 115.5,188.5 Z"/></g>
<g><path style="opacity:0.008" fill="#121212" d="M -0.5,182.5 C -0.166667,182.5 0.166667,182.5 0.5,182.5C 0.148583,185.041 0.481917,186.708 1.5,187.5C 2.33825,187.842 2.67158,188.508 2.5,189.5C 1.266,191.048 1.266,191.715 2.5,191.5C 3.33825,191.842 3.67158,192.508 3.5,193.5C 2.56552,194.568 2.23219,195.901 2.5,197.5C 1.5,194.833 0.5,192.167 -0.5,189.5C -0.5,187.167 -0.5,184.833 -0.5,182.5 Z"/></g>
<g><path style="opacity:0.008" fill="#0e0e0e" d="M 2.5,197.5 C 2.83333,197.5 3.16667,197.5 3.5,197.5C 4.16667,197.5 4.5,197.833 4.5,198.5C 3.16667,199.167 3.16667,199.833 4.5,200.5C 5.16667,200.5 5.5,200.833 5.5,201.5C 4.77842,201.918 4.27842,202.584 4,203.5C 2.87201,201.655 2.37201,199.655 2.5,197.5 Z"/></g>
<g><path style="opacity:0.008" fill="#0e0e0e" d="M 310.5,198.5 C 310.5,197.833 310.833,197.5 311.5,197.5C 311.833,197.5 312.167,197.5 312.5,197.5C 312.628,199.655 312.128,201.655 311,203.5C 310.722,202.584 310.222,201.918 309.5,201.5C 309.5,200.833 309.833,200.5 310.5,200.5C 311.833,199.833 311.833,199.167 310.5,198.5 Z"/></g>
<g><path style="opacity:0.012" fill="#0d0d0d" d="M 5.5,204.5 C 5.5,205.5 5.5,206.5 5.5,207.5C 4.16667,206.5 4.16667,205.5 5.5,204.5 Z"/></g>
<g><path style="opacity:0.012" fill="#0d0d0d" d="M 309.5,204.5 C 310.833,205.5 310.833,206.5 309.5,207.5C 309.5,206.5 309.5,205.5 309.5,204.5 Z"/></g>
<g><path style="opacity:0.016" fill="#121212" d="M 5.5,207.5 C 5.83333,207.5 6.16667,207.5 6.5,207.5C 6.16667,211.5 5.83333,211.5 5.5,207.5 Z"/></g>
<g><path style="opacity:0.016" fill="#121212" d="M 308.5,207.5 C 308.833,207.5 309.167,207.5 309.5,207.5C 309.737,208.791 309.404,209.791 308.5,210.5C 308.5,209.5 308.5,208.5 308.5,207.5 Z"/></g>
<g><path style="opacity:0.008" fill="#090909" d="M 307.5,210.5 C 307.833,210.5 308.167,210.5 308.5,210.5C 308.737,211.791 308.404,212.791 307.5,213.5C 307.5,212.5 307.5,211.5 307.5,210.5 Z"/></g>
<g><path style="opacity:0.012" fill="#131313" d="M 8.5,213.5 C 8.5,214.167 8.5,214.833 8.5,215.5C 7.16667,214.833 7.16667,214.167 8.5,213.5 Z"/></g>
<g><path style="opacity:0.012" fill="#131313" d="M 306.5,213.5 C 306.833,213.5 307.167,213.5 307.5,213.5C 307.672,214.492 307.338,215.158 306.5,215.5C 306.5,214.833 306.5,214.167 306.5,213.5 Z"/></g>
<g><path style="opacity:0.012" fill="#0d0d0d" d="M 8.5,215.5 C 8.83333,215.5 9.16667,215.5 9.5,215.5C 10.1667,215.5 10.5,215.833 10.5,216.5C 10.5,216.833 10.5,217.167 10.5,217.5C 9.83333,217.5 9.5,217.833 9.5,218.5C 8.59603,217.791 8.26269,216.791 8.5,215.5 Z"/></g>
<g><path style="opacity:0.012" fill="#0d0d0d" d="M 305.5,215.5 C 305.833,215.5 306.167,215.5 306.5,215.5C 306.737,216.791 306.404,217.791 305.5,218.5C 305.5,217.833 305.167,217.5 304.5,217.5C 304.5,217.167 304.5,216.833 304.5,216.5C 305.167,216.5 305.5,216.167 305.5,215.5 Z"/></g>
<g><path style="opacity:0.012" fill="#0f0f0f" d="M 9.5,218.5 C 9.83333,218.5 10.1667,218.5 10.5,218.5C 10.5,219.167 10.5,219.833 10.5,220.5C 9.66175,220.158 9.32842,219.492 9.5,218.5 Z"/></g>
<g><path style="opacity:0.012" fill="#0f0f0f" d="M 304.5,218.5 C 304.833,218.5 305.167,218.5 305.5,218.5C 305.672,219.492 305.338,220.158 304.5,220.5C 304.5,219.833 304.5,219.167 304.5,218.5 Z"/></g>
<g><path style="opacity:0.004" fill="#0a0a0a" d="M 10.5,220.5 C 10.8333,220.5 11.1667,220.5 11.5,220.5C 12.1667,220.5 12.5,220.833 12.5,221.5C 12.5,221.833 12.5,222.167 12.5,222.5C 13.1667,222.5 13.5,222.833 13.5,223.5C 13.5,224.167 13.5,224.833 13.5,225.5C 13.5,225.833 13.5,226.167 13.5,226.5C 11.7549,224.967 10.7549,222.967 10.5,220.5 Z"/></g>
<g><path style="opacity:0.004" fill="#0a0a0a" d="M 303.5,220.5 C 303.833,220.5 304.167,220.5 304.5,220.5C 304.245,222.967 303.245,224.967 301.5,226.5C 301.5,226.167 301.5,225.833 301.5,225.5C 301.5,224.833 301.5,224.167 301.5,223.5C 302.167,223.5 302.5,223.167 302.5,222.5C 302.5,222.167 302.5,221.833 302.5,221.5C 303.167,221.5 303.5,221.167 303.5,220.5 Z"/></g>
<g><path style="opacity:0.004" fill="#0f0f0f" d="M 13.5,226.5 C 13.8333,226.5 14.1667,226.5 14.5,226.5C 15.1667,226.5 15.5,226.833 15.5,227.5C 14.1667,227.833 14.1667,228.167 15.5,228.5C 16.1667,228.5 16.5,228.833 16.5,229.5C 15.1667,229.833 15.1667,230.167 16.5,230.5C 16.5,230.833 16.5,231.167 16.5,231.5C 16.19,232.738 15.69,232.738 15,231.5C 13.9914,229.975 13.4914,228.308 13.5,226.5 Z"/></g>
<g><path style="opacity:0.004" fill="#0d0d0d" d="M 299.5,227.5 C 299.5,226.833 299.833,226.5 300.5,226.5C 300.833,226.5 301.167,226.5 301.5,226.5C 301.539,229.089 300.539,231.089 298.5,232.5C 298.5,232.167 298.5,231.833 298.5,231.5C 298.5,231.167 298.5,230.833 298.5,230.5C 299.833,230.167 299.833,229.833 298.5,229.5C 298.5,228.833 298.833,228.5 299.5,228.5C 300.833,228.167 300.833,227.833 299.5,227.5 Z"/></g>
<g><path style="opacity:0.004" fill="#0a0a0a" d="M 18.5,233.5 C 18.5,233.833 18.5,234.167 18.5,234.5C 19.1667,234.5 19.5,234.833 19.5,235.5C 19.5,235.833 19.5,236.167 19.5,236.5C 20.1667,236.5 20.5,236.833 20.5,237.5C 20.5,237.833 20.5,238.167 20.5,238.5C 21.1667,238.5 21.5,238.833 21.5,239.5C 22.1667,239.5 22.5,239.833 22.5,240.5C 22.5,240.833 22.5,241.167 22.5,241.5C 23.1667,241.5 23.5,241.833 23.5,242.5C 23.5,242.833 23.5,243.167 23.5,243.5C 23.5,243.833 23.5,244.167 23.5,244.5C 20.6966,241.583 18.3633,238.25 16.5,234.5C 16.9569,233.702 17.6236,233.369 18.5,233.5 Z"/></g>
<g><path style="opacity:0.004" fill="#0a0a0a" d="M 297.5,232.5 C 297.833,232.5 298.167,232.5 298.5,232.5C 297.191,237.121 294.858,241.121 291.5,244.5C 291.5,244.167 291.5,243.833 291.5,243.5C 291.5,243.167 291.5,242.833 291.5,242.5C 292.167,242.5 292.5,242.167 292.5,241.5C 292.5,241.167 292.5,240.833 292.5,240.5C 293.167,240.5 293.5,240.167 293.5,239.5C 294.167,239.5 294.5,239.167 294.5,238.5C 294.5,238.167 294.5,237.833 294.5,237.5C 295.167,237.5 295.5,237.167 295.5,236.5C 295.5,236.167 295.5,235.833 295.5,235.5C 296.167,235.5 296.5,235.167 296.5,234.5C 296.5,234.167 296.5,233.833 296.5,233.5C 297.167,233.5 297.5,233.167 297.5,232.5 Z"/></g>
<g><path style="opacity:1" fill="#eff5fa" d="M 65.5,237.5 C 66.9912,239.871 67.9912,242.538 68.5,245.5C 71.7848,246.324 75.1182,246.824 78.5,247C 76.2406,248.715 74.0739,250.548 72,252.5C 71.8462,255.232 72.3462,257.898 73.5,260.5C 73.1667,260.833 72.8333,261.167 72.5,261.5C 70.3428,259.588 68.0094,257.921 65.5,256.5C 63.1443,258.69 60.6443,260.69 58,262.5C 58.0357,259.365 58.869,256.365 60.5,253.5C 58.0562,251.105 55.3895,248.938 52.5,247C 55.8818,246.824 59.2152,246.324 62.5,245.5C 63.5084,242.805 64.5084,240.138 65.5,237.5 Z"/></g>
<g><path style="opacity:1" fill="#eff5fa" d="M 251.5,237.5 C 252.376,237.369 253.043,237.702 253.5,238.5C 254.167,240.833 254.833,243.167 255.5,245.5C 258.785,246.324 262.118,246.824 265.5,247C 263.241,248.715 261.074,250.548 259,252.5C 258.846,255.063 259.346,257.563 260.5,260C 260.167,260.5 259.833,261 259.5,261.5C 257.343,259.588 255.009,257.921 252.5,256.5C 250.144,258.69 247.644,260.69 245,262.5C 245.29,259.449 246.123,256.449 247.5,253.5C 245.056,251.105 242.39,248.938 239.5,247C 247.545,248.499 251.545,245.333 251.5,237.5 Z"/></g>
<g><path style="opacity:0.008" fill="#0b0b0b" d="M 23.5,244.5 C 23.8333,244.5 24.1667,244.5 24.5,244.5C 25.1667,244.5 25.5,244.833 25.5,245.5C 26.3382,245.842 26.6716,246.508 26.5,247.5C 27.1667,247.5 27.5,247.833 27.5,248.5C 28.3382,248.842 28.6716,249.508 28.5,250.5C 28.5,250.833 28.5,251.167 28.5,251.5C 26.1,249.704 24.4333,247.37 23.5,244.5 Z"/></g>
<g><path style="opacity:0.008" fill="#0c0c0c" d="M 290.5,244.5 C 290.833,244.5 291.167,244.5 291.5,244.5C 290.567,247.37 288.9,249.704 286.5,251.5C 286.5,251.167 286.5,250.833 286.5,250.5C 286.328,249.508 286.662,248.842 287.5,248.5C 288.167,248.5 288.5,248.167 288.5,247.5C 288.328,246.508 288.662,245.842 289.5,245.5C 290.167,245.5 290.5,245.167 290.5,244.5 Z"/></g>
<g><path style="opacity:0.012" fill="#0f0f0f" d="M 28.5,251.5 C 28.8333,251.5 29.1667,251.5 29.5,251.5C 30.1667,251.5 30.5,251.833 30.5,252.5C 31.1667,252.5 31.5,252.833 31.5,253.5C 29.6322,254.674 28.6322,254.007 28.5,251.5 Z"/></g>
<g><path style="opacity:0.008" fill="#0e0e0e" d="M 285.5,251.5 C 285.833,251.5 286.167,251.5 286.5,251.5C 286.573,253.027 285.906,254.027 284.5,254.5C 284.5,253.833 284.167,253.5 283.5,253.5C 283.5,252.833 283.833,252.5 284.5,252.5C 285.167,252.5 285.5,252.167 285.5,251.5 Z"/></g>
<g><path style="opacity:0.012" fill="#111211" d="M 283.5,254.5 C 283.833,254.5 284.167,254.5 284.5,254.5C 284.315,255.17 283.981,255.17 283.5,254.5 Z"/></g>
<g><path style="opacity:0.016" fill="#161716" d="M 282.5,255.5 C 282.833,255.5 283.167,255.5 283.5,255.5C 283.315,256.17 282.981,256.17 282.5,255.5 Z"/></g>
<g><path style="opacity:0.008" fill="#0a0a0a" d="M 33.5,256.5 C 34.1667,256.5 34.5,256.833 34.5,257.5C 34.5,257.833 34.5,258.167 34.5,258.5C 34.19,259.738 33.69,259.738 33,258.5C 32.3083,257.563 32.475,256.897 33.5,256.5 Z"/></g>
<g><path style="opacity:0.004" fill="#0a0a0a" d="M 281.5,256.5 C 281.833,256.5 282.167,256.5 282.5,256.5C 282.573,258.027 281.906,259.027 280.5,259.5C 280.5,259.167 280.5,258.833 280.5,258.5C 280.5,258.167 280.5,257.833 280.5,257.5C 281.167,257.5 281.5,257.167 281.5,256.5 Z"/></g>
<g><path style="opacity:0.012" fill="#111211" d="M 279.5,259.5 C 279.833,259.5 280.167,259.5 280.5,259.5C 280.315,260.17 279.981,260.17 279.5,259.5 Z"/></g>
<g><path style="opacity:0.012" fill="#111211" d="M 278.5,260.5 C 278.833,260.5 279.167,260.5 279.5,260.5C 279.315,261.17 278.981,261.17 278.5,260.5 Z"/></g>
<g><path style="opacity:0.004" fill="#0c0c0c" d="M 37.5,261.5 C 38.1667,261.5 38.5,261.833 38.5,262.5C 39.1667,262.5 39.5,262.833 39.5,263.5C 40.1667,263.5 40.5,263.833 40.5,264.5C 41.9063,264.973 42.573,265.973 42.5,267.5C 42.5,267.833 42.5,268.167 42.5,268.5C 40.5372,267.04 38.7038,265.373 37,263.5C 36.3083,262.563 36.475,261.897 37.5,261.5 Z"/></g>
<g><path style="opacity:0.004" fill="#0b0b0b" d="M 277.5,261.5 C 277.833,261.5 278.167,261.5 278.5,261.5C 277.243,264.427 275.243,266.761 272.5,268.5C 272.5,268.167 272.5,267.833 272.5,267.5C 272.427,265.973 273.094,264.973 274.5,264.5C 275.167,264.5 275.5,264.167 275.5,263.5C 276.167,263.5 276.5,263.167 276.5,262.5C 277.167,262.5 277.5,262.167 277.5,261.5 Z"/></g>
<g><path style="opacity:0.004" fill="#0c0c0c" d="M 43.5,267.5 C 44.3382,267.842 44.6716,268.508 44.5,269.5C 43.6726,270.439 43.0059,270.105 42.5,268.5C 43.1667,268.5 43.5,268.167 43.5,267.5 Z"/></g>
<g><path style="opacity:0.004" fill="#0c0c0c" d="M 271.5,267.5 C 271.5,268.167 271.833,268.5 272.5,268.5C 272.167,269.5 271.5,270.167 270.5,270.5C 270.5,270.167 270.5,269.833 270.5,269.5C 270.328,268.508 270.662,267.842 271.5,267.5 Z"/></g>
<g><path style="opacity:0.008" fill="#0a0b0a" d="M 269.5,270.5 C 269.833,270.5 270.167,270.5 270.5,270.5C 270.315,271.17 269.981,271.17 269.5,270.5 Z"/></g>
<g><path style="opacity:0.004" fill="#070707" d="M 46.5,271.5 C 47.1667,271.5 47.5,271.833 47.5,272.5C 47.5,272.833 47.5,273.167 47.5,273.5C 45.8946,272.994 45.5613,272.327 46.5,271.5 Z"/></g>
<g><path style="opacity:0.004" fill="#070707" d="M 268.5,271.5 C 268.833,271.5 269.167,271.5 269.5,271.5C 269.167,272.5 268.5,273.167 267.5,273.5C 267.5,273.167 267.5,272.833 267.5,272.5C 267.5,271.833 267.833,271.5 268.5,271.5 Z"/></g>
<g><path style="opacity:0.004" fill="#080808" d="M 48.5,272.5 C 49.5,272.833 50.1667,273.5 50.5,274.5C 51.1667,274.5 51.5,274.833 51.5,275.5C 52.1667,275.5 52.5,275.833 52.5,276.5C 50.3152,277.087 48.6485,276.087 47.5,273.5C 48.1667,273.5 48.5,273.167 48.5,272.5 Z"/></g>
<g><path style="opacity:1" fill="#f1f6fb" d="M 122.5,272.5 C 124.956,274.818 126.289,277.818 126.5,281.5C 129.518,281.335 132.518,281.502 135.5,282C 132.948,283.771 130.615,285.771 128.5,288C 129.206,290.62 130.206,293.12 131.5,295.5C 131.167,295.833 130.833,296.167 130.5,296.5C 128.343,294.588 126.009,292.921 123.5,291.5C 120.888,292.779 118.555,294.445 116.5,296.5C 116.167,296 115.833,295.5 115.5,295C 116.861,292.27 117.361,289.437 117,286.5C 109.823,281.839 110.99,280.172 120.5,281.5C 120.756,278.402 121.422,275.402 122.5,272.5 Z"/></g>
<g><path style="opacity:1" fill="#f2f7fb" d="M 192.5,272.5 C 193.586,272.62 194.253,273.287 194.5,274.5C 195.467,276.762 196.134,279.095 196.5,281.5C 199.518,281.335 202.518,281.502 205.5,282C 199.247,285.003 197.913,289.503 201.5,295.5C 201.167,295.833 200.833,296.167 200.5,296.5C 198.343,294.588 196.009,292.921 193.5,291.5C 191.321,292.757 189.321,294.257 187.5,296C 186.668,296.688 186.002,296.521 185.5,295.5C 187.103,292.656 187.603,289.656 187,286.5C 179.823,281.839 180.99,280.172 190.5,281.5C 191.461,278.574 192.127,275.574 192.5,272.5 Z"/></g>
<g><path style="opacity:0.004" fill="#080808" d="M 266.5,272.5 C 266.5,273.167 266.833,273.5 267.5,273.5C 266.415,275.587 264.749,276.92 262.5,277.5C 262.5,277.167 262.5,276.833 262.5,276.5C 263.167,276.5 263.5,276.167 263.5,275.5C 264.167,275.5 264.5,275.167 264.5,274.5C 264.833,273.5 265.5,272.833 266.5,272.5 Z"/></g>
<g><path style="opacity:0.016" fill="#161716" d="M 261.5,277.5 C 261.833,277.5 262.167,277.5 262.5,277.5C 262.315,278.17 261.981,278.17 261.5,277.5 Z"/></g>
<g><path style="opacity:0.012" fill="#111211" d="M 260.5,278.5 C 260.833,278.5 261.167,278.5 261.5,278.5C 261.315,279.17 260.981,279.17 260.5,278.5 Z"/></g>
<g><path style="opacity:0.012" fill="#111211" d="M 259.5,279.5 C 259.833,279.5 260.167,279.5 260.5,279.5C 260.315,280.17 259.981,280.17 259.5,279.5 Z"/></g>
<g><path style="opacity:0.012" fill="#111211" d="M 258.5,280.5 C 258.833,280.5 259.167,280.5 259.5,280.5C 259.315,281.17 258.981,281.17 258.5,280.5 Z"/></g>
<g><path style="opacity:0.004" fill="#0d0d0d" d="M 256.5,282.5 C 256.5,282.167 256.5,281.833 256.5,281.5C 257.167,281.5 257.833,281.5 258.5,281.5C 258.158,282.338 257.492,282.672 256.5,282.5 Z"/></g>
<g><path style="opacity:0.016" fill="#161716" d="M 255.5,282.5 C 255.833,282.5 256.167,282.5 256.5,282.5C 256.315,283.17 255.981,283.17 255.5,282.5 Z"/></g>
<g><path style="opacity:0.008" fill="#0a0b0a" d="M 254.5,283.5 C 254.833,283.5 255.167,283.5 255.5,283.5C 255.315,284.17 254.981,284.17 254.5,283.5 Z"/></g>
<g><path style="opacity:0.008" fill="#0a0b0a" d="M 253.5,284.5 C 253.833,284.5 254.167,284.5 254.5,284.5C 254.315,285.17 253.981,285.17 253.5,284.5 Z"/></g>
<g><path style="opacity:0.004" fill="#0a0a0a" d="M 251.5,286.5 C 251.5,286.167 251.5,285.833 251.5,285.5C 252.167,285.5 252.833,285.5 253.5,285.5C 253.158,286.338 252.492,286.672 251.5,286.5 Z"/></g>
<g><path style="opacity:0.012" fill="#111211" d="M 250.5,286.5 C 250.833,286.5 251.167,286.5 251.5,286.5C 251.315,287.17 250.981,287.17 250.5,286.5 Z"/></g>
<g><path style="opacity:0.004" fill="#0a0a0a" d="M 65.5,286.5 C 66.1667,286.5 66.5,286.833 66.5,287.5C 64.654,288.742 64.3207,288.409 65.5,286.5 Z"/></g>
<g><path style="opacity:0.004" fill="#0a0a0a" d="M 249.5,286.5 C 249.5,287.167 249.833,287.5 250.5,287.5C 250.158,288.338 249.492,288.672 248.5,288.5C 248.5,288.167 248.5,287.833 248.5,287.5C 248.5,286.833 248.833,286.5 249.5,286.5 Z"/></g>
<g><path style="opacity:0.012" fill="#111211" d="M 247.5,288.5 C 247.833,288.5 248.167,288.5 248.5,288.5C 248.315,289.17 247.981,289.17 247.5,288.5 Z"/></g>
<g><path style="opacity:0.012" fill="#111211" d="M 246.5,289.5 C 246.833,289.5 247.167,289.5 247.5,289.5C 247.315,290.17 246.981,290.17 246.5,289.5 Z"/></g>
<g><path style="opacity:0.004" fill="#0a0a0a" d="M 244.5,291.5 C 244.5,291.167 244.5,290.833 244.5,290.5C 245.167,290.5 245.833,290.5 246.5,290.5C 246.158,291.338 245.492,291.672 244.5,291.5 Z"/></g>
<g><path style="opacity:0.008" fill="#0a0b0a" d="M 243.5,291.5 C 243.833,291.5 244.167,291.5 244.5,291.5C 244.315,292.17 243.981,292.17 243.5,291.5 Z"/></g>
<g><path style="opacity:0.004" fill="#0a0a0a" d="M 241.5,293.5 C 241.5,293.167 241.5,292.833 241.5,292.5C 242.167,292.5 242.833,292.5 243.5,292.5C 243.158,293.338 242.492,293.672 241.5,293.5 Z"/></g>
<g><path style="opacity:0.004" fill="#0a0a0a" d="M 239.5,294.5 C 239.5,294.167 239.5,293.833 239.5,293.5C 240.167,293.5 240.833,293.5 241.5,293.5C 241.158,294.338 240.492,294.672 239.5,294.5 Z"/></g>
<g><path style="opacity:0.016" fill="#161716" d="M 238.5,294.5 C 238.833,294.5 239.167,294.5 239.5,294.5C 239.315,295.17 238.981,295.17 238.5,294.5 Z"/></g>
<g><path style="opacity:0.004" fill="#070707" d="M 236.5,296.5 C 236.5,296.167 236.5,295.833 236.5,295.5C 237.167,295.5 237.833,295.5 238.5,295.5C 238.158,296.338 237.492,296.672 236.5,296.5 Z"/></g>
<g><path style="opacity:0.008" fill="#0d0d0d" d="M 234.5,297.5 C 234.5,297.167 234.5,296.833 234.5,296.5C 235.167,296.5 235.833,296.5 236.5,296.5C 236.158,297.338 235.492,297.672 234.5,297.5 Z"/></g>
<g><path style="opacity:0.012" fill="#0e0e0e" d="M 232.5,298.5 C 232.5,298.167 232.5,297.833 232.5,297.5C 233.167,297.5 233.833,297.5 234.5,297.5C 234.158,298.338 233.492,298.672 232.5,298.5 Z"/></g>
<g><path style="opacity:0.004" fill="#0b0b0b" d="M 84.5,298.5 C 85.1667,298.5 85.5,298.833 85.5,299.5C 84.5029,300.713 83.5029,300.546 82.5,299C 83.0944,298.536 83.7611,298.369 84.5,298.5 Z"/></g>
<g><path style="opacity:0.004" fill="#0b0b0b" d="M 230.5,298.5 C 231.167,298.5 231.833,298.5 232.5,298.5C 232.027,299.906 231.027,300.573 229.5,300.5C 229.5,300.167 229.5,299.833 229.5,299.5C 230.167,299.5 230.5,299.167 230.5,298.5 Z"/></g>
<g><path style="opacity:0.008" fill="#080808" d="M 226.5,301.5 C 226.5,301.167 226.5,300.833 226.5,300.5C 227.5,300.5 228.5,300.5 229.5,300.5C 228.791,301.404 227.791,301.737 226.5,301.5 Z"/></g>
<g><path style="opacity:0.016" fill="#161716" d="M 225.5,301.5 C 225.833,301.5 226.167,301.5 226.5,301.5C 226.315,302.17 225.981,302.17 225.5,301.5 Z"/></g>
<g><path style="opacity:0.008" fill="#080808" d="M 222.5,303.5 C 222.5,303.167 222.5,302.833 222.5,302.5C 223.5,302.5 224.5,302.5 225.5,302.5C 224.791,303.404 223.791,303.737 222.5,303.5 Z"/></g>
<g><path style="opacity:0.008" fill="#0f0f0f" d="M 220.5,304.5 C 220.5,304.167 220.5,303.833 220.5,303.5C 221.167,303.5 221.833,303.5 222.5,303.5C 222.158,304.338 221.492,304.672 220.5,304.5 Z"/></g>
<g><path style="opacity:0.008" fill="#0d0d0d" d="M 96.5,304.5 C 96.1034,305.525 95.4368,305.692 94.5,305C 95.0944,304.536 95.7611,304.369 96.5,304.5 Z"/></g>
<g><path style="opacity:0.012" fill="#0f0f0f" d="M 218.5,304.5 C 219.167,304.5 219.833,304.5 220.5,304.5C 219.833,305.833 219.167,305.833 218.5,304.5 Z"/></g>
<g><path style="opacity:0.008" fill="#0f0f0f" d="M 215.5,306.5 C 215.5,306.167 215.5,305.833 215.5,305.5C 218.167,305.833 218.167,306.167 215.5,306.5 Z"/></g>
<g><path style="opacity:0.012" fill="#131313" d="M 213.5,307.5 C 213.5,307.167 213.5,306.833 213.5,306.5C 214.167,306.5 214.833,306.5 215.5,306.5C 215.158,307.338 214.492,307.672 213.5,307.5 Z"/></g>
<g><path style="opacity:0.008" fill="#090909" d="M 210.5,308.5 C 210.5,308.167 210.5,307.833 210.5,307.5C 211.5,307.5 212.5,307.5 213.5,307.5C 212.791,308.404 211.791,308.737 210.5,308.5 Z"/></g>
<g><path style="opacity:0.016" fill="#121212" d="M 207.5,309.5 C 207.5,309.167 207.5,308.833 207.5,308.5C 208.5,308.5 209.5,308.5 210.5,308.5C 209.791,309.404 208.791,309.737 207.5,309.5 Z"/></g>
<g><path style="opacity:0.012" fill="#0d0d0d" d="M 110.5,309.5 C 109.749,310.573 108.749,310.74 107.5,310C 108.448,309.517 109.448,309.351 110.5,309.5 Z"/></g>
<g><path style="opacity:0.012" fill="#0d0d0d" d="M 204.5,309.5 C 205.5,309.5 206.5,309.5 207.5,309.5C 206.5,310.833 205.5,310.833 204.5,309.5 Z"/></g>
<g><path style="opacity:0.004" fill="#0d0d0d" d="M 114.5,310.5 C 115.209,311.404 116.209,311.737 117.5,311.5C 115.565,312.709 113.565,312.542 111.5,311C 112.448,310.517 113.448,310.351 114.5,310.5 Z"/></g>
<g><path style="opacity:0.008" fill="#0e0e0e" d="M 200.5,310.5 C 203.598,310.413 203.932,310.913 201.5,312C 199.934,312.765 198.601,312.598 197.5,311.5C 198.791,311.737 199.791,311.404 200.5,310.5 Z"/></g>
</svg>
