<?xml version="1.0" encoding="UTF-8"?>
<!DOCTYPE svg PUBLIC "-//W3C//DTD SVG 1.1//EN" "http://www.w3.org/Graphics/SVG/1.1/DTD/svg11.dtd">
<svg xmlns="http://www.w3.org/2000/svg" version="1.1" width="314px" height="318px" style="shape-rendering:geometricPrecision; text-rendering:geometricPrecision; image-rendering:optimizeQuality; fill-rule:evenodd; clip-rule:evenodd" xmlns:xlink="http://www.w3.org/1999/xlink">
<g><path style="opacity:0.007" fill="#030303" d="M 93.5,-0.5 C 94.5,-0.5 95.5,-0.5 96.5,-0.5C 96.5,0.166667 96.5,0.833333 96.5,1.5C 96.1667,1.5 95.8333,1.5 95.5,1.5C 95.1667,0.166667 94.8333,0.166667 94.5,1.5C 94.5,2.16667 94.1667,2.5 93.5,2.5C 93.1667,1.16667 92.8333,1.16667 92.5,2.5C 91.8333,2.83333 91.1667,3.16667 90.5,3.5C 90.5,2.83333 90.1667,2.5 89.5,2.5C 90.8333,1.5 92.1667,0.5 93.5,-0.5 Z"/></g>
<g><path style="opacity:1" fill="#838b91" d="M 106.5,-0.5 C 175.5,-0.5 244.5,-0.5 313.5,-0.5C 313.5,0.166667 313.5,0.833333 313.5,1.5C 244.402,0.836565 175.402,0.169898 106.5,-0.5 Z"/></g>
<g><path style="opacity:1" fill="#4d555b" d="M 109.5,2.5 C 176.665,1.50083 243.998,1.1675 311.5,1.5C 311.229,3.3797 311.896,4.71304 313.5,5.5C 313.5,7.16667 313.5,8.83333 313.5,10.5C 313.167,10.5 312.833,10.5 312.5,10.5C 312.81,5.54751 311.81,5.21418 309.5,9.5C 309.674,7.13895 310.007,4.80562 310.5,2.5C 243.5,2.5 176.5,2.5 109.5,2.5 Z"/></g>
<g><path style="opacity:1" fill="#040405" d="M 109.5,2.5 C 176.5,2.5 243.5,2.5 310.5,2.5C 310.007,4.80562 309.674,7.13895 309.5,9.5C 286.428,107.263 262.928,204.929 239,302.5C 236.999,305.331 234.833,307.997 232.5,310.5C 228.477,313.013 224.144,314.679 219.5,315.5C 146.998,315.833 74.6647,315.499 2.5,314.5C 26.2019,218.026 50.3686,121.692 75,25.5C 81.4561,10.5066 92.9561,2.83989 109.5,2.5 Z"/></g>
<g><path style="opacity:0.011" fill="#0d0d0d" d="M 86.5,4.5 C 86.5,4.83333 86.5,5.16667 86.5,5.5C 85.8333,5.5 85.5,5.83333 85.5,6.5C 85.5,7.16667 85.1667,7.5 84.5,7.5C 83.3264,5.63216 83.9931,4.63216 86.5,4.5 Z"/></g>
<g><path style="opacity:0.006" fill="#000000" d="M 82.5,8.5 C 81.8333,8.5 81.5,8.83333 81.5,9.5C 80.8333,9.5 80.5,9.83333 80.5,10.5C 79.8333,10.5 79.5,10.8333 79.5,11.5C 78.8333,11.5 78.5,11.8333 78.5,12.5C 77.8333,12.5 77.5,12.8333 77.5,13.5C 76.475,13.1034 76.3083,12.4368 77,11.5C 78.1667,10.3333 79.3333,9.16667 80.5,8C 81.4368,7.30831 82.1034,7.47498 82.5,8.5 Z"/></g>
<g><path style="opacity:1" fill="#363c40" d="M 112.5,12.5 C 173.335,11.1685 234.335,11.1685 295.5,12.5C 295.376,13.1067 295.043,13.44 294.5,13.5C 234.002,12.5009 173.336,12.1676 112.5,12.5 Z"/></g>
<g><path style="opacity:0.01" fill="#000000" d="M 313.5,14.5 C 313.5,15.5 313.5,16.5 313.5,17.5C 313.167,17.5 312.833,17.5 312.5,17.5C 312.263,16.209 312.596,15.209 313.5,14.5 Z"/></g>
<g><path style="opacity:0.007" fill="#000000" d="M 311.5,17.5 C 311.833,17.5 312.167,17.5 312.5,17.5C 312.784,19.4147 312.451,21.0813 311.5,22.5C 311.5,20.8333 311.5,19.1667 311.5,17.5 Z"/></g>
<g><path style="opacity:0.008" fill="#000000" d="M 310.5,22.5 C 310.833,22.5 311.167,22.5 311.5,22.5C 311.768,24.099 311.434,25.4324 310.5,26.5C 310.5,25.1667 310.5,23.8333 310.5,22.5 Z"/></g>
<g><path style="opacity:0.01" fill="#000000" d="M 309.5,26.5 C 309.833,26.5 310.167,26.5 310.5,26.5C 310.784,28.4147 310.451,30.0813 309.5,31.5C 309.5,29.8333 309.5,28.1667 309.5,26.5 Z"/></g>
<g><path style="opacity:0.01" fill="#000000" d="M 308.5,31.5 C 308.833,31.5 309.167,31.5 309.5,31.5C 309.768,33.099 309.434,34.4324 308.5,35.5C 308.5,34.1667 308.5,32.8333 308.5,31.5 Z"/></g>
<g><path style="opacity:0.011" fill="#000000" d="M 307.5,35.5 C 307.833,35.5 308.167,35.5 308.5,35.5C 308.768,37.099 308.434,38.4324 307.5,39.5C 307.5,38.1667 307.5,36.8333 307.5,35.5 Z"/></g>
<g><path style="opacity:0.012" fill="#000000" d="M 65.5,39.5 C 66.525,39.8966 66.6917,40.5632 66,41.5C 65.5357,40.9056 65.369,40.2389 65.5,39.5 Z"/></g>
<g><path style="opacity:0.009" fill="#000000" d="M 306.5,39.5 C 306.833,39.5 307.167,39.5 307.5,39.5C 307.167,44.8333 306.833,44.8333 306.5,39.5 Z"/></g>
<g><path style="opacity:0.013" fill="#000000" d="M 64.5,42.5 C 65.5735,43.2506 65.7401,44.2506 65,45.5C 64.5172,44.552 64.3505,43.552 64.5,42.5 Z"/></g>
<g><path style="opacity:0.01" fill="#000000" d="M 305.5,44.5 C 306.525,44.8966 306.692,45.5632 306,46.5C 305.536,45.9056 305.369,45.2389 305.5,44.5 Z"/></g>
<g><path style="opacity:0.01" fill="#000000" d="M 304.5,51.5 C 304.351,50.448 304.517,49.448 305,48.5C 305.74,49.7494 305.573,50.7494 304.5,51.5 Z"/></g>
<g><path style="opacity:0.01" fill="#000000" d="M 303.5,51.5 C 303.833,51.5 304.167,51.5 304.5,51.5C 304.768,53.099 304.434,54.4324 303.5,55.5C 303.5,54.1667 303.5,52.8333 303.5,51.5 Z"/></g>
<g><path style="opacity:0.008" fill="#000000" d="M 302.5,55.5 C 302.833,55.5 303.167,55.5 303.5,55.5C 303.784,57.4147 303.451,59.0813 302.5,60.5C 302.5,58.8333 302.5,57.1667 302.5,55.5 Z"/></g>
<g><path style="opacity:0.009" fill="#000000" d="M 301.5,60.5 C 301.833,60.5 302.167,60.5 302.5,60.5C 302.784,62.4147 302.451,64.0813 301.5,65.5C 301.5,63.8333 301.5,62.1667 301.5,60.5 Z"/></g>
<g><path style="opacity:0.01" fill="#000000" d="M 300.5,65.5 C 300.833,65.5 301.167,65.5 301.5,65.5C 301.768,67.099 301.434,68.4324 300.5,69.5C 300.5,68.1667 300.5,66.8333 300.5,65.5 Z"/></g>
<g><path style="opacity:0.011" fill="#000000" d="M 299.5,69.5 C 299.833,69.5 300.167,69.5 300.5,69.5C 300.768,71.099 300.434,72.4324 299.5,73.5C 299.5,72.1667 299.5,70.8333 299.5,69.5 Z"/></g>
<g><path style="opacity:0.013" fill="#010101" d="M 298.5,73.5 C 298.833,73.5 299.167,73.5 299.5,73.5C 299.768,75.099 299.434,76.4324 298.5,77.5C 298.5,76.1667 298.5,74.8333 298.5,73.5 Z"/></g>
<g><path style="opacity:1" fill="#606970" d="M 112.5,12.5 C 173.336,12.1676 234.002,12.5009 294.5,13.5C 281.775,69.5085 268.942,125.509 256,181.5C 253.175,192.325 246.342,199.158 235.5,202C 171.497,202.833 107.497,202.667 43.5,201.5C 57.5263,144.395 72.0263,87.3951 87,30.5C 91.9598,19.4404 100.46,13.4404 112.5,12.5 Z"/></g>
<g><path style="opacity:1" fill="#030301" d="M 110.5,14.5 C 170.833,14.5 231.167,14.5 291.5,14.5C 280.001,65.1636 268.501,115.83 257,166.5C 255.284,174.699 252.951,182.699 250,190.5C 246.35,194.739 241.85,197.572 236.5,199C 173.164,199.833 109.831,199.667 46.5,198.5C 60.6267,143.994 74.46,89.3277 88,34.5C 91.6424,23.3508 99.1424,16.6841 110.5,14.5 Z"/></g>
<g><path style="opacity:1" fill="#684407" d="M 120.5,58.5 C 119.833,59.1667 119.167,59.8333 118.5,60.5C 117.957,60.44 117.624,60.1067 117.5,59.5C 118.325,58.6143 119.325,58.281 120.5,58.5 Z"/></g>
<g><path style="opacity:1" fill="#f39e1e" d="M 118.5,60.5 C 119.167,59.8333 119.833,59.1667 120.5,58.5C 130.412,56.1176 140.412,54.1176 150.5,52.5C 151.341,41.7694 152.675,31.1028 154.5,20.5C 166.473,25.4841 178.473,30.4841 190.5,35.5C 197.771,29.5666 204.771,23.2332 211.5,16.5C 215.756,24.7543 219.923,33.0877 224,41.5C 224.561,42.0219 225.228,42.3552 226,42.5C 233.559,39.304 241.059,35.9706 248.5,32.5C 248.833,33 249.167,33.5 249.5,34C 247.4,43.9008 245.066,53.7342 242.5,63.5C 252.188,67.6791 261.855,71.8457 271.5,76C 264.135,82.0085 256.801,88.0085 249.5,94C 253.838,104.35 258.171,114.684 262.5,125C 253.875,126.201 245.208,126.701 236.5,126.5C 231.144,144.402 225.31,162.068 219,179.5C 208.5,169.667 198,159.833 187.5,150C 182.157,150.996 177.157,153.162 172.5,156.5C 171.867,153.443 171.534,150.443 171.5,147.5C 143.771,164.119 115.771,179.953 87.5,195C 110.103,177.494 131.769,159.66 152.5,141.5C 119.639,159.925 86.6394,177.758 53.5,195C 83.5,173.333 113.5,151.667 143.5,130C 114.657,145.255 85.6569,160.255 56.5,175C 82.5,155.667 108.5,136.333 134.5,117C 110.5,129 86.5,141 62.5,153C 84.8333,136 107.167,119 129.5,102C 108.656,112.922 87.6559,123.589 66.5,134C 88.7855,117.383 110.786,100.383 132.5,83C 127.521,82.0772 122.521,81.2439 117.5,80.5C 123.649,77.5924 129.649,74.4257 135.5,71C 129.948,67.275 124.282,63.775 118.5,60.5 Z"/></g>
<g><path style="opacity:1" fill="#e36025" d="M 163.5,120.5 C 156.726,113.036 152.059,104.369 149.5,94.5C 158.244,86.1207 168.577,80.2873 180.5,77C 195.225,72.5303 210.225,71.0303 225.5,72.5C 226.802,75.7079 227.469,79.0412 227.5,82.5C 221.441,82.4631 215.775,83.9631 210.5,87C 200.876,94.2888 191.542,101.955 182.5,110C 176.756,114.539 170.422,118.039 163.5,120.5 Z"/></g>
<g><path style="opacity:1" fill="#b95b25" d="M 156.5,53.5 C 156.5,54.1667 156.833,54.5 157.5,54.5C 154.196,60.1143 151.696,66.1143 150,72.5C 149.188,76.6888 149.355,80.6888 150.5,84.5C 147.206,87.1558 143.873,89.8225 140.5,92.5C 140.067,77.0444 145.401,64.0444 156.5,53.5 Z"/></g>
<g><path style="opacity:1" fill="#df6024" d="M 230.5,54.5 C 235.071,58.6312 238.404,63.6312 240.5,69.5C 236.476,69.0522 232.476,68.3855 228.5,67.5C 226.594,64.36 225.26,61.0266 224.5,57.5C 227.089,57.539 229.089,56.539 230.5,54.5 Z"/></g>
<g><path style="opacity:1" fill="#e36025" d="M 150.5,84.5 C 149.355,80.6888 149.188,76.6888 150,72.5C 151.696,66.1143 154.196,60.1143 157.5,54.5C 167.497,50.2616 177.83,49.4282 188.5,52C 198.344,54.9691 208.344,57.3024 218.5,59C 220.417,61.4985 222.084,64.1651 223.5,67C 197.46,66.0943 173.126,71.9276 150.5,84.5 Z"/></g>
<g><path style="opacity:1" fill="#db5f22" d="M 209.5,41.5 C 216.66,43.9076 222.993,47.5743 228.5,52.5C 226.213,52.7239 224.047,53.3906 222,54.5C 217.652,50.3192 213.485,45.9858 209.5,41.5 Z"/></g>
<g><path style="opacity:1" fill="#110702" d="M 197.5,40.5 C 198.097,39.8614 198.93,39.528 200,39.5C 203.199,40.1063 206.366,40.7729 209.5,41.5C 213.485,45.9858 217.652,50.3192 222,54.5C 224.047,53.3906 226.213,52.7239 228.5,52.5C 229.5,52.8333 230.167,53.5 230.5,54.5C 229.089,56.539 227.089,57.539 224.5,57.5C 225.26,61.0266 226.594,64.36 228.5,67.5C 232.476,68.3855 236.476,69.0522 240.5,69.5C 241.674,70.5137 242.34,71.847 242.5,73.5C 238.465,72.6329 234.465,72.6329 230.5,73.5C 231.423,76.4466 232.089,79.4466 232.5,82.5C 237.281,82.391 241.614,83.7244 245.5,86.5C 245.784,88.4147 245.451,90.0813 244.5,91.5C 241.503,88.5035 237.836,86.8369 233.5,86.5C 233.775,103.417 229.108,118.75 219.5,132.5C 217.196,135.141 214.862,137.808 212.5,140.5C 208.04,142.449 203.373,143.783 198.5,144.5C 201.786,142.549 204.786,140.215 207.5,137.5C 222.469,123.96 229.469,106.96 228.5,86.5C 221.937,86.4091 215.937,88.2425 210.5,92C 197.225,103.787 183.559,114.954 169.5,125.5C 165.734,127.716 161.734,129.383 157.5,130.5C 155.5,129.167 153.833,127.5 152.5,125.5C 156.251,124.027 159.917,122.36 163.5,120.5C 170.422,118.039 176.756,114.539 182.5,110C 191.542,101.955 200.876,94.2888 210.5,87C 215.775,83.9631 221.441,82.4631 227.5,82.5C 227.469,79.0412 226.802,75.7079 225.5,72.5C 210.225,71.0303 195.225,72.5303 180.5,77C 168.577,80.2873 158.244,86.1207 149.5,94.5C 146.87,96.6281 144.37,98.9614 142,101.5C 141.722,100.584 141.222,99.9175 140.5,99.5C 140.5,97.1667 140.5,94.8333 140.5,92.5C 143.873,89.8225 147.206,87.1558 150.5,84.5C 173.126,71.9276 197.46,66.0943 223.5,67C 222.084,64.1651 220.417,61.4985 218.5,59C 208.344,57.3024 198.344,54.9691 188.5,52C 177.83,49.4282 167.497,50.2616 157.5,54.5C 156.833,54.5 156.5,54.1667 156.5,53.5C 159.597,50.1116 163.264,47.4449 167.5,45.5C 182.897,46.4317 197.897,49.4317 212.5,54.5C 213.932,54.2668 214.432,53.6001 214,52.5C 209.182,47.508 203.682,43.508 197.5,40.5 Z"/></g>
<g><path style="opacity:1" fill="#de5f23" d="M 197.5,40.5 C 203.682,43.508 209.182,47.508 214,52.5C 214.432,53.6001 213.932,54.2668 212.5,54.5C 197.897,49.4317 182.897,46.4317 167.5,45.5C 175.858,40.9906 184.858,38.8239 194.5,39C 195.527,39.5133 196.527,40.0133 197.5,40.5 Z"/></g>
<g><path style="opacity:0.01" fill="#010100" d="M 297.5,77.5 C 297.833,77.5 298.167,77.5 298.5,77.5C 298.167,81.5 297.833,81.5 297.5,77.5 Z"/></g>
<g><path style="opacity:1" fill="#e26124" d="M 242.5,73.5 C 244.876,77.4054 245.876,81.7387 245.5,86.5C 241.614,83.7244 237.281,82.391 232.5,82.5C 232.089,79.4466 231.423,76.4466 230.5,73.5C 234.465,72.6329 238.465,72.6329 242.5,73.5 Z"/></g>
<g><path style="opacity:0.011" fill="#000000" d="M 296.5,85.5 C 296.343,84.1266 296.51,82.7932 297,81.5C 297.765,83.0657 297.598,84.3991 296.5,85.5 Z"/></g>
<g><path style="opacity:0.008" fill="#000000" d="M 295.5,85.5 C 295.833,85.5 296.167,85.5 296.5,85.5C 296.768,87.099 296.434,88.4324 295.5,89.5C 295.5,88.1667 295.5,86.8333 295.5,85.5 Z"/></g>
<g><path style="opacity:1" fill="#e46125" d="M 207.5,137.5 C 192.976,138.879 180.309,134.879 169.5,125.5C 183.559,114.954 197.225,103.787 210.5,92C 215.937,88.2425 221.937,86.4091 228.5,86.5C 229.469,106.96 222.469,123.96 207.5,137.5 Z"/></g>
<g><path style="opacity:1" fill="#e36125" d="M 244.5,91.5 C 245.824,107.187 240.491,120.187 228.5,130.5C 225.965,131.349 223.465,132.349 221,133.5C 220.235,133.43 219.735,133.097 219.5,132.5C 229.108,118.75 233.775,103.417 233.5,86.5C 237.836,86.8369 241.503,88.5035 244.5,91.5 Z"/></g>
<g><path style="opacity:0.008" fill="#000000" d="M 294.5,89.5 C 294.833,89.5 295.167,89.5 295.5,89.5C 295.768,91.099 295.434,92.4324 294.5,93.5C 294.5,92.1667 294.5,90.8333 294.5,89.5 Z"/></g>
<g><path style="opacity:0.008" fill="#000000" d="M 293.5,93.5 C 293.833,93.5 294.167,93.5 294.5,93.5C 294.784,95.4147 294.451,97.0813 293.5,98.5C 293.5,96.8333 293.5,95.1667 293.5,93.5 Z"/></g>
<g><path style="opacity:1" fill="#b85a25" d="M 149.5,94.5 C 152.059,104.369 156.726,113.036 163.5,120.5C 159.917,122.36 156.251,124.027 152.5,125.5C 146.02,118.094 142.02,109.427 140.5,99.5C 141.222,99.9175 141.722,100.584 142,101.5C 144.37,98.9614 146.87,96.6281 149.5,94.5 Z"/></g>
<g><path style="opacity:0.013" fill="#000000" d="M 292.5,98.5 C 292.833,98.5 293.167,98.5 293.5,98.5C 293.768,100.099 293.434,101.432 292.5,102.5C 292.5,101.167 292.5,99.8333 292.5,98.5 Z"/></g>
<g><path style="opacity:0.009" fill="#000000" d="M 291.5,102.5 C 291.833,102.5 292.167,102.5 292.5,102.5C 292.784,104.415 292.451,106.081 291.5,107.5C 291.5,105.833 291.5,104.167 291.5,102.5 Z"/></g>
<g><path style="opacity:0.012" fill="#010101" d="M 290.5,107.5 C 290.833,107.5 291.167,107.5 291.5,107.5C 291.768,109.099 291.434,110.432 290.5,111.5C 290.5,110.167 290.5,108.833 290.5,107.5 Z"/></g>
<g><path style="opacity:0.016" fill="#000000" d="M 47.5,111.5 C 48.525,111.897 48.6917,112.563 48,113.5C 47.5357,112.906 47.369,112.239 47.5,111.5 Z"/></g>
<g><path style="opacity:0.012" fill="#010100" d="M 289.5,111.5 C 289.833,111.5 290.167,111.5 290.5,111.5C 290.167,115.5 289.833,115.5 289.5,111.5 Z"/></g>
<g><path style="opacity:0.011" fill="#000000" d="M 288.5,115.5 C 289.833,116.833 289.833,118.167 288.5,119.5C 288.5,118.167 288.5,116.833 288.5,115.5 Z"/></g>
<g><path style="opacity:0.008" fill="#000000" d="M 287.5,119.5 C 287.833,119.5 288.167,119.5 288.5,119.5C 288.768,121.099 288.434,122.432 287.5,123.5C 287.5,122.167 287.5,120.833 287.5,119.5 Z"/></g>
<g><path style="opacity:0.008" fill="#000000" d="M 286.5,123.5 C 286.833,123.5 287.167,123.5 287.5,123.5C 287.768,125.099 287.434,126.432 286.5,127.5C 286.5,126.167 286.5,124.833 286.5,123.5 Z"/></g>
<g><path style="opacity:0.007" fill="#000000" d="M 44.5,130.5 C 43.5655,131.568 43.2322,132.901 43.5,134.5C 42.4824,131.623 42.6491,128.623 44,125.5C 44.4935,127.134 44.6602,128.801 44.5,130.5 Z"/></g>
<g><path style="opacity:1" fill="#b95b25" d="M 169.5,125.5 C 180.309,134.879 192.976,138.879 207.5,137.5C 204.786,140.215 201.786,142.549 198.5,144.5C 182.5,146.168 168.833,141.501 157.5,130.5C 161.734,129.383 165.734,127.716 169.5,125.5 Z"/></g>
<g><path style="opacity:0.009" fill="#000000" d="M 285.5,127.5 C 285.833,127.5 286.167,127.5 286.5,127.5C 286.784,129.415 286.451,131.081 285.5,132.5C 285.5,130.833 285.5,129.167 285.5,127.5 Z"/></g>
<g><path style="opacity:0.009" fill="#000000" d="M 284.5,132.5 C 284.833,132.5 285.167,132.5 285.5,132.5C 285.768,134.099 285.434,135.432 284.5,136.5C 284.5,135.167 284.5,133.833 284.5,132.5 Z"/></g>
<g><path style="opacity:1" fill="#ba5a24" d="M 228.5,130.5 C 224.185,135.331 218.852,138.665 212.5,140.5C 214.862,137.808 217.196,135.141 219.5,132.5C 219.735,133.097 220.235,133.43 221,133.5C 223.465,132.349 225.965,131.349 228.5,130.5 Z"/></g>
<g><path style="opacity:0.011" fill="#010101" d="M 283.5,136.5 C 283.833,136.5 284.167,136.5 284.5,136.5C 284.784,138.415 284.451,140.081 283.5,141.5C 283.5,139.833 283.5,138.167 283.5,136.5 Z"/></g>
<g><path style="opacity:0.009" fill="#000000" d="M 40.5,138.5 C 41.5735,139.251 41.7401,140.251 41,141.5C 40.5172,140.552 40.3505,139.552 40.5,138.5 Z"/></g>
<g><path style="opacity:0.009" fill="#000000" d="M 282.5,141.5 C 282.833,141.5 283.167,141.5 283.5,141.5C 283.768,143.099 283.434,144.432 282.5,145.5C 282.5,144.167 282.5,142.833 282.5,141.5 Z"/></g>
<g><path style="opacity:0.012" fill="#010100" d="M 281.5,145.5 C 281.833,145.5 282.167,145.5 282.5,145.5C 282.167,149.5 281.833,149.5 281.5,145.5 Z"/></g>
<g><path style="opacity:0.009" fill="#000000" d="M 280.5,149.5 C 281.573,150.251 281.74,151.251 281,152.5C 280.517,151.552 280.351,150.552 280.5,149.5 Z"/></g>
<g><path style="opacity:0.01" fill="#000000" d="M 279.5,157.5 C 279.351,156.448 279.517,155.448 280,154.5C 280.74,155.749 280.573,156.749 279.5,157.5 Z"/></g>
<g><path style="opacity:0.986" fill="#626a6f" d="M 312.5,10.5 C 312.007,12.8056 311.674,15.139 311.5,17.5C 310.549,18.9187 310.216,20.5853 310.5,22.5C 309.566,23.5676 309.232,24.901 309.5,26.5C 308.549,27.9187 308.216,29.5853 308.5,31.5C 307.566,32.5676 307.232,33.901 307.5,35.5C 306.566,36.5676 306.232,37.901 306.5,39.5C 304.719,43.1998 303.719,47.1998 303.5,51.5C 302.566,52.5676 302.232,53.901 302.5,55.5C 301.549,56.9187 301.216,58.5853 301.5,60.5C 300.549,61.9187 300.216,63.5853 300.5,65.5C 299.566,66.5676 299.232,67.901 299.5,69.5C 298.566,70.5676 298.232,71.901 298.5,73.5C 297.566,74.5676 297.232,75.901 297.5,77.5C 295.96,79.8383 295.294,82.5049 295.5,85.5C 294.566,86.5676 294.232,87.901 294.5,89.5C 293.566,90.5676 293.232,91.901 293.5,93.5C 292.549,94.9187 292.216,96.5853 292.5,98.5C 291.566,99.5676 291.232,100.901 291.5,102.5C 290.549,103.919 290.216,105.585 290.5,107.5C 289.566,108.568 289.232,109.901 289.5,111.5C 288.566,112.568 288.232,113.901 288.5,115.5C 287.566,116.568 287.232,117.901 287.5,119.5C 286.566,120.568 286.232,121.901 286.5,123.5C 285.566,124.568 285.232,125.901 285.5,127.5C 284.549,128.919 284.216,130.585 284.5,132.5C 283.566,133.568 283.232,134.901 283.5,136.5C 282.549,137.919 282.216,139.585 282.5,141.5C 281.566,142.568 281.232,143.901 281.5,145.5C 280.566,146.568 280.232,147.901 280.5,149.5C 278.96,151.838 278.294,154.505 278.5,157.5C 277.566,158.568 277.232,159.901 277.5,161.5C 276.549,162.919 276.216,164.585 276.5,166.5C 275.596,167.209 275.263,168.209 275.5,169.5C 274.549,170.919 274.216,172.585 274.5,174.5C 273.566,175.568 273.232,176.901 273.5,178.5C 272.549,179.919 272.216,181.585 272.5,183.5C 271.076,185.515 270.41,187.848 270.5,190.5C 269.549,191.919 269.216,193.585 269.5,195.5C 268.566,196.568 268.232,197.901 268.5,199.5C 267.566,200.568 267.232,201.901 267.5,203.5C 266.549,204.919 266.216,206.585 266.5,208.5C 265.566,209.568 265.232,210.901 265.5,212.5C 264.566,213.568 264.232,214.901 264.5,216.5C 263.232,218.905 262.565,221.572 262.5,224.5C 261.549,225.919 261.216,227.585 261.5,229.5C 260.566,230.568 260.232,231.901 260.5,233.5C 259.566,234.568 259.232,235.901 259.5,237.5C 258.549,238.919 258.216,240.585 258.5,242.5C 257.566,243.568 257.232,244.901 257.5,246.5C 256.087,249.219 255.42,252.219 255.5,255.5C 254.596,256.209 254.263,257.209 254.5,258.5C 253.566,259.568 253.232,260.901 253.5,262.5C 252.566,263.568 252.232,264.901 252.5,266.5C 251.566,267.568 251.232,268.901 251.5,270.5C 250.549,271.919 250.216,273.585 250.5,275.5C 249.549,276.919 249.216,278.585 249.5,280.5C 248.566,281.568 248.232,282.901 248.5,284.5C 247.549,285.919 247.216,287.585 247.5,289.5C 245.837,291.438 245.171,293.772 245.5,296.5C 244.566,297.568 244.232,298.901 244.5,300.5C 243.662,300.842 243.328,301.508 243.5,302.5C 242.662,302.842 242.328,303.508 242.5,304.5C 241.833,304.5 241.5,304.833 241.5,305.5C 240.833,305.5 240.5,305.833 240.5,306.5C 239.662,306.842 239.328,307.508 239.5,308.5C 238.833,308.5 238.5,308.833 238.5,309.5C 237.833,309.5 237.5,309.833 237.5,310.5C 236.833,310.5 236.5,310.833 236.5,311.5C 236.167,311.5 235.833,311.5 235.5,311.5C 234.791,310.596 233.791,310.263 232.5,310.5C 234.833,307.997 236.999,305.331 239,302.5C 262.928,204.929 286.428,107.263 309.5,9.5C 311.81,5.21418 312.81,5.54751 312.5,10.5 Z"/></g>
<g><path style="opacity:0.008" fill="#000000" d="M 278.5,157.5 C 278.833,157.5 279.167,157.5 279.5,157.5C 279.768,159.099 279.434,160.432 278.5,161.5C 278.5,160.167 278.5,158.833 278.5,157.5 Z"/></g>
<g><path style="opacity:0.007" fill="#000000" d="M 277.5,161.5 C 277.833,161.5 278.167,161.5 278.5,161.5C 278.784,163.415 278.451,165.081 277.5,166.5C 277.5,164.833 277.5,163.167 277.5,161.5 Z"/></g>
<g><path style="opacity:0.01" fill="#000000" d="M 276.5,166.5 C 276.833,166.5 277.167,166.5 277.5,166.5C 277.737,167.791 277.404,168.791 276.5,169.5C 276.5,168.5 276.5,167.5 276.5,166.5 Z"/></g>
<g><path style="opacity:0.01" fill="#000000" d="M 275.5,169.5 C 275.833,169.5 276.167,169.5 276.5,169.5C 276.784,171.415 276.451,173.081 275.5,174.5C 275.5,172.833 275.5,171.167 275.5,169.5 Z"/></g>
<g><path style="opacity:0.009" fill="#000000" d="M 32.5,170.5 C 33.5735,171.251 33.7401,172.251 33,173.5C 32.5172,172.552 32.3505,171.552 32.5,170.5 Z"/></g>
<g><path style="opacity:0.01" fill="#000000" d="M 32.5,177.5 C 31.4265,176.749 31.2599,175.749 32,174.5C 32.4828,175.448 32.6495,176.448 32.5,177.5 Z"/></g>
<g><path style="opacity:0.012" fill="#010101" d="M 274.5,174.5 C 274.833,174.5 275.167,174.5 275.5,174.5C 275.768,176.099 275.434,177.432 274.5,178.5C 274.5,177.167 274.5,175.833 274.5,174.5 Z"/></g>
<g><path style="opacity:0.009" fill="#000000" d="M 273.5,178.5 C 273.833,178.5 274.167,178.5 274.5,178.5C 274.784,180.415 274.451,182.081 273.5,183.5C 273.5,181.833 273.5,180.167 273.5,178.5 Z"/></g>
<g><path style="opacity:0.012" fill="#000000" d="M 272.5,183.5 C 272.833,183.5 273.167,183.5 273.5,183.5C 273.167,187.5 272.833,187.5 272.5,183.5 Z"/></g>
<g><path style="opacity:0.012" fill="#000000" d="M 271.5,190.5 C 271.351,189.448 271.517,188.448 272,187.5C 272.74,188.749 272.573,189.749 271.5,190.5 Z"/></g>
<g><path style="opacity:0.009" fill="#000000" d="M 270.5,190.5 C 270.833,190.5 271.167,190.5 271.5,190.5C 271.784,192.415 271.451,194.081 270.5,195.5C 270.5,193.833 270.5,192.167 270.5,190.5 Z"/></g>
<g><path style="opacity:0.008" fill="#000000" d="M 269.5,195.5 C 269.833,195.5 270.167,195.5 270.5,195.5C 270.768,197.099 270.434,198.432 269.5,199.5C 269.5,198.167 269.5,196.833 269.5,195.5 Z"/></g>
<g><path style="opacity:0.012" fill="#000000" d="M 268.5,199.5 C 268.833,199.5 269.167,199.5 269.5,199.5C 269.768,201.099 269.434,202.432 268.5,203.5C 268.5,202.167 268.5,200.833 268.5,199.5 Z"/></g>
<g><path style="opacity:0.009" fill="#000000" d="M 267.5,203.5 C 267.833,203.5 268.167,203.5 268.5,203.5C 268.784,205.415 268.451,207.081 267.5,208.5C 267.5,206.833 267.5,205.167 267.5,203.5 Z"/></g>
<g><path style="opacity:0.012" fill="#000000" d="M 266.5,208.5 C 266.833,208.5 267.167,208.5 267.5,208.5C 267.768,210.099 267.434,211.432 266.5,212.5C 266.5,211.167 266.5,209.833 266.5,208.5 Z"/></g>
<g><path style="opacity:1" fill="#e6e7e7" d="M 41.5,211.5 C 45.5138,211.334 49.5138,211.501 53.5,212C 54.5732,215.112 54.5732,218.279 53.5,221.5C 50.5,222.167 47.5,222.833 44.5,223.5C 43.6669,225.752 43.6669,227.919 44.5,230C 42.5273,230.495 40.5273,230.662 38.5,230.5C 39.5178,225.096 40.8511,219.762 42.5,214.5C 41.8728,213.583 41.5394,212.583 41.5,211.5 Z"/></g>
<g><path style="opacity:1" fill="#e6e6e6" d="M 74.5,211.5 C 76.604,211.201 78.604,211.534 80.5,212.5C 79.6518,214.409 79.3184,216.409 79.5,218.5C 80.5,218.5 81.5,218.5 82.5,218.5C 82.6741,216.139 83.0074,213.806 83.5,211.5C 85.288,211.215 86.9547,211.548 88.5,212.5C 87.0895,217.308 85.7562,222.141 84.5,227C 84.5852,228.107 84.9186,229.107 85.5,230C 83.5273,230.495 81.5273,230.662 79.5,230.5C 79.7563,228.063 80.4229,225.729 81.5,223.5C 79.6531,222.17 78.1531,222.503 77,224.5C 76.5045,226.473 76.3379,228.473 76.5,230.5C 74.712,230.785 73.0453,230.452 71.5,229.5C 73.8225,223.578 74.8225,217.578 74.5,211.5 Z"/></g>
<g><path style="opacity:1" fill="#e6e6e6" d="M 110.5,211.5 C 113.777,211.216 116.943,211.549 120,212.5C 120.141,218.771 118.641,224.605 115.5,230C 112.24,230.784 109.073,230.617 106,229.5C 105.324,222.871 106.824,216.871 110.5,211.5 Z"/></g>
<g><path style="opacity:1" fill="#e5e6e6" d="M 140.5,211.5 C 144.5,211.5 148.5,211.5 152.5,211.5C 152.769,213.429 152.269,215.095 151,216.5C 148.959,215.577 146.792,215.244 144.5,215.5C 144.5,216.833 144.5,218.167 144.5,219.5C 145.978,219.238 147.311,219.571 148.5,220.5C 147.009,222.012 145.176,223.012 143,223.5C 142.51,224.793 142.343,226.127 142.5,227.5C 145.044,227.896 147.211,227.229 149,225.5C 148.981,227.107 148.815,228.774 148.5,230.5C 144.833,230.5 141.167,230.5 137.5,230.5C 138.204,225.018 139.537,219.684 141.5,214.5C 140.873,213.583 140.539,212.583 140.5,211.5 Z"/></g>
<g><path style="opacity:1" fill="#e3e3e3" d="M 173.5,211.5 C 177.106,211.211 180.606,211.544 184,212.5C 184.529,217.885 183.695,223.052 181.5,228C 181.957,228.414 182.291,228.914 182.5,229.5C 180.955,230.452 179.288,230.785 177.5,230.5C 177.634,225.468 178.634,220.635 180.5,216C 179.207,215.51 177.873,215.343 176.5,215.5C 175.341,220.468 174.341,225.468 173.5,230.5C 172.167,230.5 170.833,230.5 169.5,230.5C 169.871,223.932 171.204,217.599 173.5,211.5 Z"/></g>
<g><path style="opacity:1" fill="#e2e3e3" d="M 205.5,211.5 C 207.167,211.5 208.833,211.5 210.5,211.5C 209.902,216.73 208.902,221.897 207.5,227C 207.585,228.107 207.919,229.107 208.5,230C 206.527,230.495 204.527,230.662 202.5,230.5C 203.661,224.189 204.661,217.856 205.5,211.5 Z"/></g>
<g><path style="opacity:1" fill="#e8e8e8" d="M 230.5,212.5 C 234.856,210.312 237.356,211.646 238,216.5C 239.353,215.315 240.52,213.981 241.5,212.5C 242.833,211.167 244.167,211.167 245.5,212.5C 243.101,215.476 241.101,218.643 239.5,222C 239.746,225.008 240.746,227.674 242.5,230C 240.527,230.495 238.527,230.662 236.5,230.5C 236.541,224.248 235.208,223.915 232.5,229.5C 230.926,230.631 229.259,230.798 227.5,230C 230.456,227.237 232.79,224.071 234.5,220.5C 234.344,217.111 233.011,214.444 230.5,212.5 Z"/></g>
<g><path style="opacity:0.01" fill="#000000" d="M 265.5,212.5 C 265.833,212.5 266.167,212.5 266.5,212.5C 266.768,214.099 266.434,215.432 265.5,216.5C 265.5,215.167 265.5,213.833 265.5,212.5 Z"/></g>
<g><path style="opacity:1" fill="#202021" d="M 46.5,215.5 C 47.5,215.5 48.5,215.5 49.5,215.5C 49.7725,217.958 48.7725,219.625 46.5,220.5C 45.3336,218.833 45.3336,217.166 46.5,215.5 Z"/></g>
<g><path style="opacity:1" fill="#181818" d="M 111.5,215.5 C 112.833,215.5 114.167,215.5 115.5,215.5C 114.514,219.443 113.848,223.443 113.5,227.5C 112.167,227.5 110.833,227.5 109.5,227.5C 110.761,223.626 111.428,219.626 111.5,215.5 Z"/></g>
<g><path style="opacity:0.011" fill="#000000" d="M 264.5,216.5 C 264.833,216.5 265.167,216.5 265.5,216.5C 265.167,221.833 264.833,221.833 264.5,216.5 Z"/></g>
<g><path style="opacity:0.01" fill="#000000" d="M 263.5,224.5 C 263.351,223.448 263.517,222.448 264,221.5C 264.74,222.749 264.573,223.749 263.5,224.5 Z"/></g>
<g><path style="opacity:0.009" fill="#000000" d="M 262.5,224.5 C 262.833,224.5 263.167,224.5 263.5,224.5C 263.784,226.415 263.451,228.081 262.5,229.5C 262.5,227.833 262.5,226.167 262.5,224.5 Z"/></g>
<g><path style="opacity:0.007" fill="#000000" d="M 261.5,229.5 C 261.833,229.5 262.167,229.5 262.5,229.5C 262.768,231.099 262.434,232.432 261.5,233.5C 261.5,232.167 261.5,230.833 261.5,229.5 Z"/></g>
<g><path style="opacity:0.009" fill="#000000" d="M 260.5,233.5 C 260.833,233.5 261.167,233.5 261.5,233.5C 261.58,236.781 260.913,239.781 259.5,242.5C 259.5,240.833 259.5,239.167 259.5,237.5C 260.434,236.432 260.768,235.099 260.5,233.5 Z"/></g>
<g><path style="opacity:0.009" fill="#000000" d="M 15.5,238.5 C 16.5735,239.251 16.7401,240.251 16,241.5C 15.5172,240.552 15.3505,239.552 15.5,238.5 Z"/></g>
<g><path style="opacity:1" fill="#f8f8f8" d="M 142.5,238.5 C 155.504,238.333 168.504,238.5 181.5,239C 183.359,240.558 184.859,242.391 186,244.5C 182.852,259.561 179.185,274.561 175,289.5C 174.207,292.741 174.707,295.741 176.5,298.5C 176.265,299.097 175.765,299.43 175,299.5C 171.863,298.639 168.697,297.973 165.5,297.5C 168.995,283.519 172.495,269.519 176,255.5C 177.888,251.158 177.722,246.992 175.5,243C 166.167,242.667 156.833,242.333 147.5,242C 145.767,240.811 144.1,239.644 142.5,238.5 Z"/></g>
<g><path style="opacity:1" fill="#f5f5f5" d="M 83.5,239.5 C 90.344,238.181 97.344,238.181 104.5,239.5C 99.3905,256.271 95.0572,273.271 91.5,290.5C 90.596,291.209 90.2627,292.209 90.5,293.5C 95.8437,293.334 101.177,293.501 106.5,294C 108.081,294.707 109.581,295.54 111,296.5C 115.912,279.017 120.746,261.517 125.5,244C 123.718,241.94 121.718,240.107 119.5,238.5C 124.544,238.173 129.544,238.506 134.5,239.5C 129.713,260.672 124.046,281.339 117.5,301.5C 116.426,300.115 115.093,298.949 113.5,298C 104.167,297.667 94.8333,297.333 85.5,297C 84.7894,295.745 83.956,294.579 83,293.5C 87.2856,276.684 91.1189,259.684 94.5,242.5C 90.6861,241.964 87.0194,240.964 83.5,239.5 Z"/></g>
<g><path style="opacity:1" fill="#aeb0b0" d="M 83.5,239.5 C 87.0194,240.964 90.6861,241.964 94.5,242.5C 91.1189,259.684 87.2856,276.684 83,293.5C 83.956,294.579 84.7894,295.745 85.5,297C 94.8333,297.333 104.167,297.667 113.5,298C 115.093,298.949 116.426,300.115 117.5,301.5C 104.829,301.667 92.1623,301.5 79.5,301C 76.0194,298.234 74.5194,294.734 75,290.5C 78.6787,275.452 82.512,260.452 86.5,245.5C 85.7469,243.247 84.4136,241.413 82.5,240C 82.7284,239.601 83.0618,239.435 83.5,239.5 Z"/></g>
<g><path style="opacity:1" fill="#afb1b1" d="M 119.5,238.5 C 121.718,240.107 123.718,241.94 125.5,244C 120.746,261.517 115.912,279.017 111,296.5C 109.581,295.54 108.081,294.707 106.5,294C 101.177,293.501 95.8437,293.334 90.5,293.5C 90.2627,292.209 90.596,291.209 91.5,290.5C 95.7147,292.436 100.381,293.103 105.5,292.5C 109.187,274.749 113.354,257.082 118,239.5C 118.383,238.944 118.883,238.611 119.5,238.5 Z"/></g>
<g><path style="opacity:0.013" fill="#010101" d="M 258.5,242.5 C 258.833,242.5 259.167,242.5 259.5,242.5C 259.768,244.099 259.434,245.432 258.5,246.5C 258.5,245.167 258.5,243.833 258.5,242.5 Z"/></g>
<g><path style="opacity:1" fill="#adafaf" d="M 142.5,238.5 C 144.1,239.644 145.767,240.811 147.5,242C 156.833,242.333 166.167,242.667 175.5,243C 177.722,246.992 177.888,251.158 176,255.5C 172.495,269.519 168.995,283.519 165.5,297.5C 168.697,297.973 171.863,298.639 175,299.5C 175.765,299.43 176.265,299.097 176.5,298.5C 177.404,299.209 177.737,300.209 177.5,301.5C 170.5,301.5 163.5,301.5 156.5,301.5C 160.523,283.407 164.857,265.407 169.5,247.5C 164.833,247.5 160.167,247.5 155.5,247.5C 153.813,245.834 151.813,244.5 149.5,243.5C 143.748,261.175 139.248,279.175 136,297.5C 137.993,298.914 140.16,299.914 142.5,300.5C 137.36,301.488 132.026,301.821 126.5,301.5C 130.761,280.12 136.095,259.12 142.5,238.5 Z"/></g>
<g><path style="opacity:1" fill="#f8f8f8" d="M 155.5,247.5 C 151.014,265.112 146.68,282.779 142.5,300.5C 140.16,299.914 137.993,298.914 136,297.5C 139.248,279.175 143.748,261.175 149.5,243.5C 151.813,244.5 153.813,245.834 155.5,247.5 Z"/></g>
<g><path style="opacity:1" fill="#f5f5f5" d="M 62.5,254.5 C 64.7916,252.733 67.4582,251.733 70.5,251.5C 70.846,248.398 70.1793,245.565 68.5,243C 60.8333,242.333 53.1667,242.333 45.5,243C 44.1667,244 42.8333,245 41.5,246C 43.8127,246.662 46.146,247.162 48.5,247.5C 47.6423,252.242 46.809,256.909 46,261.5C 54.5691,265.855 63.4024,269.522 72.5,272.5C 71.1006,280.107 69.1006,287.44 66.5,294.5C 64.283,293.631 61.9496,293.298 59.5,293.5C 61.0019,287.505 62.1686,281.505 63,275.5C 53.9119,271.704 45.0786,267.537 36.5,263C 38.2089,257.571 39.5423,252.071 40.5,246.5C 38.2143,246.405 36.2143,245.738 34.5,244.5C 36.6467,242.53 38.98,240.697 41.5,239C 52.5,238.333 63.5,238.333 74.5,239C 76.6632,240.998 78.3298,243.332 79.5,246C 78.316,251.054 76.6493,255.887 74.5,260.5C 70.4081,258.454 66.4081,256.454 62.5,254.5 Z"/></g>
<g><path style="opacity:1" fill="#aeb0b0" d="M 62.5,254.5 C 61.5829,252.338 61.5829,250.005 62.5,247.5C 57.8333,247.5 53.1667,247.5 48.5,247.5C 46.146,247.162 43.8127,246.662 41.5,246C 42.8333,245 44.1667,244 45.5,243C 53.1667,242.333 60.8333,242.333 68.5,243C 70.1793,245.565 70.846,248.398 70.5,251.5C 67.4582,251.733 64.7916,252.733 62.5,254.5 Z"/></g>
<g><path style="opacity:0.01" fill="#000000" d="M 257.5,246.5 C 257.833,246.5 258.167,246.5 258.5,246.5C 258.167,251.833 257.833,251.833 257.5,246.5 Z"/></g>
<g><path style="opacity:1" fill="#afb1b1" d="M 34.5,244.5 C 36.2143,245.738 38.2143,246.405 40.5,246.5C 39.5423,252.071 38.2089,257.571 36.5,263C 45.0786,267.537 53.9119,271.704 63,275.5C 62.1686,281.505 61.0019,287.505 59.5,293.5C 61.9496,293.298 64.283,293.631 66.5,294.5C 64.0626,296.433 61.7293,298.6 59.5,301C 48.1667,301.667 36.8333,301.667 25.5,301C 23.0772,298.487 21.7439,295.487 21.5,292C 22.0955,288.118 22.9289,284.284 24,280.5C 24.9772,279.226 25.8106,279.226 26.5,280.5C 26.0618,280.435 25.7284,280.601 25.5,281C 29.0151,283.833 30.3484,287.333 29.5,291.5C 29.7605,293.187 30.4272,294.687 31.5,296C 39.8333,296.667 48.1667,296.667 56.5,296C 57.1667,295.333 57.8333,294.667 58.5,294C 51.3213,293.829 44.3213,293.329 37.5,292.5C 42.1667,292.5 46.8333,292.5 51.5,292.5C 52.1159,288.089 53.1159,283.756 54.5,279.5C 46.6928,274.766 38.3595,270.766 29.5,267.5C 28.359,265.579 28.1923,263.579 29,261.5C 30.3333,256.167 31.6667,250.833 33,245.5C 33.3826,244.944 33.8826,244.611 34.5,244.5 Z"/></g>
<g><path style="opacity:1" fill="#aeb0b0" d="M 194.5,244.5 C 196.305,246.197 198.639,247.03 201.5,247C 199.114,252.683 198.114,258.517 198.5,264.5C 207.058,268.073 215.558,271.74 224,275.5C 222.54,281.357 221.374,287.357 220.5,293.5C 222.621,293.325 224.621,293.659 226.5,294.5C 224.621,297.115 222.288,299.281 219.5,301C 208.5,301.667 197.5,301.667 186.5,301C 184.058,298.775 182.391,296.108 181.5,293C 182.583,288.504 183.583,284.004 184.5,279.5C 186.553,279.402 188.22,280.069 189.5,281.5C 188.624,281.369 187.957,281.702 187.5,282.5C 190.352,285.425 191.018,288.758 189.5,292.5C 190.5,293.833 191.5,295.167 192.5,296.5C 200.145,297.665 207.812,297.831 215.5,297C 216.551,295.615 217.884,294.615 219.5,294C 212.174,293.5 204.841,293.334 197.5,293.5C 197.263,292.209 197.596,291.209 198.5,290.5C 202.715,292.436 207.381,293.103 212.5,292.5C 212.712,287.322 213.712,282.322 215.5,277.5C 206.5,274.167 197.5,270.833 188.5,267.5C 190.008,259.596 192.008,251.93 194.5,244.5 Z"/></g>
<g><path style="opacity:1" fill="#f5f5f5" d="M 222.5,254.5 C 224.828,253.282 227.328,252.282 230,251.5C 232.425,248.118 231.925,245.285 228.5,243C 220.833,242.333 213.167,242.333 205.5,243C 204.5,244 203.5,245 202.5,246C 204.852,246.24 206.852,247.073 208.5,248.5C 208.236,252.393 207.569,256.226 206.5,260C 206.833,260.833 207.167,261.667 207.5,262.5C 215.167,265.667 222.833,268.833 230.5,272C 231.578,272.674 232.245,273.674 232.5,275C 230.521,281.034 229.021,287.201 228,293.5C 227.617,294.056 227.117,294.389 226.5,294.5C 224.621,293.659 222.621,293.325 220.5,293.5C 221.374,287.357 222.54,281.357 224,275.5C 215.558,271.74 207.058,268.073 198.5,264.5C 198.114,258.517 199.114,252.683 201.5,247C 198.639,247.03 196.305,246.197 194.5,244.5C 196.803,242.675 199.136,240.842 201.5,239C 212.833,238.333 224.167,238.333 235.5,239C 237.63,241.261 238.964,243.928 239.5,247C 238.67,251.657 237.336,256.157 235.5,260.5C 231.021,258.76 226.687,256.76 222.5,254.5 Z"/></g>
<g><path style="opacity:1" fill="#adafaf" d="M 222.5,254.5 C 221.957,254.44 221.624,254.107 221.5,253.5C 222.093,251.618 222.76,249.785 223.5,248C 218.416,247.222 213.416,247.389 208.5,248.5C 206.852,247.073 204.852,246.24 202.5,246C 203.5,245 204.5,244 205.5,243C 213.167,242.333 220.833,242.333 228.5,243C 231.925,245.285 232.425,248.118 230,251.5C 227.328,252.282 224.828,253.282 222.5,254.5 Z"/></g>
<g><path style="opacity:0.014" fill="#010101" d="M 256.5,251.5 C 257.525,251.897 257.692,252.563 257,253.5C 256.536,252.906 256.369,252.239 256.5,251.5 Z"/></g>
<g><path style="opacity:0.984" fill="#687077" d="M 99.5,-0.5 C 100.167,-0.5 100.833,-0.5 101.5,-0.5C 101.833,0.833333 102.167,0.833333 102.5,-0.5C 103.833,-0.5 105.167,-0.5 106.5,-0.5C 175.402,0.169898 244.402,0.836565 313.5,1.5C 313.5,2.83333 313.5,4.16667 313.5,5.5C 311.896,4.71304 311.229,3.3797 311.5,1.5C 243.998,1.1675 176.665,1.50083 109.5,2.5C 92.9561,2.83989 81.4561,10.5066 75,25.5C 50.3686,121.692 26.2019,218.026 2.5,314.5C 1.95691,314.56 1.62358,314.893 1.5,315.5C 74.3322,316.832 146.999,316.832 219.5,315.5C 224.144,314.679 228.477,313.013 232.5,310.5C 233.791,310.263 234.791,310.596 235.5,311.5C 234.833,311.5 234.5,311.833 234.5,312.5C 233.833,312.5 233.5,312.833 233.5,313.5C 232.508,313.328 231.842,313.662 231.5,314.5C 230.833,314.5 230.5,314.833 230.5,315.5C 230.167,315.5 229.833,315.5 229.5,315.5C 228.833,315.5 228.5,315.833 228.5,316.5C 227.833,316.5 227.5,316.833 227.5,317.5C 151.5,317.5 75.5,317.5 -0.5,317.5C -0.5,314.5 -0.5,311.5 -0.5,308.5C 11.313,265.153 22.313,221.487 32.5,177.5C 36.7407,163.421 40.4074,149.088 43.5,134.5C 44.4345,133.432 44.7678,132.099 44.5,130.5C 53.2304,96.2533 62.0637,61.5866 71,26.5C 72.6528,21.8611 74.8194,17.5278 77.5,13.5C 78.1667,13.5 78.5,13.1667 78.5,12.5C 79.1667,12.5 79.5,12.1667 79.5,11.5C 80.1667,11.5 80.5,11.1667 80.5,10.5C 81.1667,10.5 81.5,10.1667 81.5,9.5C 82.1667,9.5 82.5,9.16667 82.5,8.5C 83.1667,8.16667 83.8333,7.83333 84.5,7.5C 85.1667,7.5 85.5,7.16667 85.5,6.5C 86.1667,6.5 86.5,6.16667 86.5,5.5C 87.8333,5.16667 87.8333,4.83333 86.5,4.5C 86.9731,3.09368 87.9731,2.42702 89.5,2.5C 90.1667,2.5 90.5,2.83333 90.5,3.5C 91.1667,3.16667 91.8333,2.83333 92.5,2.5C 92.8333,2.5 93.1667,2.5 93.5,2.5C 94.1667,2.5 94.5,2.16667 94.5,1.5C 94.8333,1.5 95.1667,1.5 95.5,1.5C 95.8333,1.5 96.1667,1.5 96.5,1.5C 97.7095,1.06795 98.7095,0.40128 99.5,-0.5 Z"/></g>
<g><path style="opacity:0.01" fill="#000000" d="M 255.5,255.5 C 256.833,256.5 256.833,257.5 255.5,258.5C 255.5,257.5 255.5,256.5 255.5,255.5 Z"/></g>
<g><path style="opacity:0.009" fill="#000000" d="M 254.5,258.5 C 254.833,258.5 255.167,258.5 255.5,258.5C 255.768,260.099 255.434,261.432 254.5,262.5C 254.5,261.167 254.5,259.833 254.5,258.5 Z"/></g>
<g><path style="opacity:0.008" fill="#000000" d="M 253.5,262.5 C 253.833,262.5 254.167,262.5 254.5,262.5C 254.768,264.099 254.434,265.432 253.5,266.5C 253.5,265.167 253.5,263.833 253.5,262.5 Z"/></g>
<g><path style="opacity:0.009" fill="#000000" d="M 252.5,266.5 C 252.833,266.5 253.167,266.5 253.5,266.5C 253.58,269.781 252.913,272.781 251.5,275.5C 251.5,273.833 251.5,272.167 251.5,270.5C 252.434,269.432 252.768,268.099 252.5,266.5 Z"/></g>
<g><path style="opacity:0.009" fill="#000000" d="M 7.5,270.5 C 8.57346,271.251 8.74012,272.251 8,273.5C 7.51722,272.552 7.35055,271.552 7.5,270.5 Z"/></g>
<g><path style="opacity:0.01" fill="#000000" d="M 250.5,275.5 C 250.833,275.5 251.167,275.5 251.5,275.5C 251.784,277.415 251.451,279.081 250.5,280.5C 250.5,278.833 250.5,277.167 250.5,275.5 Z"/></g>
<g><path style="opacity:0.011" fill="#000000" d="M 249.5,280.5 C 249.833,280.5 250.167,280.5 250.5,280.5C 250.768,282.099 250.434,283.432 249.5,284.5C 249.5,283.167 249.5,281.833 249.5,280.5 Z"/></g>
<g><path style="opacity:1" fill="#faf9fa" d="M 26.5,280.5 C 30.3854,282.026 34.2188,283.692 38,285.5C 38.0178,287.797 37.8511,290.131 37.5,292.5C 44.3213,293.329 51.3213,293.829 58.5,294C 57.8333,294.667 57.1667,295.333 56.5,296C 48.1667,296.667 39.8333,296.667 31.5,296C 30.4272,294.687 29.7605,293.187 29.5,291.5C 30.3484,287.333 29.0151,283.833 25.5,281C 25.7284,280.601 26.0618,280.435 26.5,280.5 Z"/></g>
<g><path style="opacity:1" fill="#f6f6f6" d="M 189.5,281.5 C 192.596,282.547 195.596,283.88 198.5,285.5C 199.052,287.003 199.052,288.669 198.5,290.5C 197.596,291.209 197.263,292.209 197.5,293.5C 204.841,293.334 212.174,293.5 219.5,294C 217.884,294.615 216.551,295.615 215.5,297C 207.812,297.831 200.145,297.665 192.5,296.5C 191.5,295.167 190.5,293.833 189.5,292.5C 191.018,288.758 190.352,285.425 187.5,282.5C 187.957,281.702 188.624,281.369 189.5,281.5 Z"/></g>
<g><path style="opacity:0.012" fill="#000000" d="M 248.5,284.5 C 248.833,284.5 249.167,284.5 249.5,284.5C 249.167,289.833 248.833,289.833 248.5,284.5 Z"/></g>
<g><path style="opacity:0.016" fill="#000000" d="M 247.5,289.5 C 248.525,289.897 248.692,290.563 248,291.5C 247.536,290.906 247.369,290.239 247.5,289.5 Z"/></g>
<g><path style="opacity:0.009" fill="#000000" d="M 246.5,296.5 C 246.351,295.448 246.517,294.448 247,293.5C 247.74,294.749 247.573,295.749 246.5,296.5 Z"/></g>
<g><path style="opacity:0.008" fill="#000000" d="M 245.5,296.5 C 245.833,296.5 246.167,296.5 246.5,296.5C 246.768,298.099 246.434,299.432 245.5,300.5C 245.5,299.167 245.5,297.833 245.5,296.5 Z"/></g>
<g><path style="opacity:0.006" fill="#000000" d="M 244.5,300.5 C 244.833,300.5 245.167,300.5 245.5,300.5C 245.672,301.492 245.338,302.158 244.5,302.5C 244.5,301.833 244.5,301.167 244.5,300.5 Z"/></g>
<g><path style="opacity:0.01" fill="#000000" d="M -0.5,301.5 C 0.833333,302.5 0.833333,303.5 -0.5,304.5C -0.5,303.5 -0.5,302.5 -0.5,301.5 Z"/></g>
<g><path style="opacity:0.006" fill="#000000" d="M 243.5,302.5 C 243.833,302.5 244.167,302.5 244.5,302.5C 244.672,303.492 244.338,304.158 243.5,304.5C 243.5,303.833 243.5,303.167 243.5,302.5 Z"/></g>
<g><path style="opacity:0.008" fill="#000000" d="M 242.5,304.5 C 242.833,304.5 243.167,304.5 243.5,304.5C 243.315,305.17 242.981,305.17 242.5,304.5 Z"/></g>
<g><path style="opacity:0.008" fill="#000000" d="M 241.5,305.5 C 241.833,305.5 242.167,305.5 242.5,305.5C 242.315,306.17 241.981,306.17 241.5,305.5 Z"/></g>
<g><path style="opacity:0.008" fill="#000000" d="M 240.5,306.5 C 240.833,306.5 241.167,306.5 241.5,306.5C 241.672,307.492 241.338,308.158 240.5,308.5C 240.5,307.833 240.5,307.167 240.5,306.5 Z"/></g>
<g><path style="opacity:0.008" fill="#000000" d="M 239.5,308.5 C 239.833,308.5 240.167,308.5 240.5,308.5C 240.315,309.17 239.981,309.17 239.5,308.5 Z"/></g>
<g><path style="opacity:0.016" fill="#000000" d="M 238.5,309.5 C 238.833,309.5 239.167,309.5 239.5,309.5C 239.315,310.17 238.981,310.17 238.5,309.5 Z"/></g>
<g><path style="opacity:0.02" fill="#030302" d="M 237.5,310.5 C 237.833,310.5 238.167,310.5 238.5,310.5C 238.315,311.17 237.981,311.17 237.5,310.5 Z"/></g>
<g><path style="opacity:0.02" fill="#030302" d="M 236.5,311.5 C 236.833,311.5 237.167,311.5 237.5,311.5C 237.315,312.17 236.981,312.17 236.5,311.5 Z"/></g>
<g><path style="opacity:0.01" fill="#101111" d="M 235.5,311.5 C 235.5,312.167 235.833,312.5 236.5,312.5C 235.738,314.262 234.404,315.262 232.5,315.5C 232.5,314.833 232.167,314.5 231.5,314.5C 231.842,313.662 232.508,313.328 233.5,313.5C 234.167,313.5 234.5,313.167 234.5,312.5C 234.5,311.833 234.833,311.5 235.5,311.5 Z"/></g>
<g><path style="opacity:1" fill="#3e4449" d="M 2.5,314.5 C 74.6647,315.499 146.998,315.833 219.5,315.5C 146.999,316.832 74.3322,316.832 1.5,315.5C 1.62358,314.893 1.95691,314.56 2.5,314.5 Z"/></g>
<g><path style="opacity:0.007" fill="#0a0a0a" d="M 231.5,314.5 C 232.167,314.5 232.5,314.833 232.5,315.5C 232.167,316.167 231.833,316.833 231.5,317.5C 230.5,317.5 229.5,317.5 228.5,317.5C 228.5,317.167 228.5,316.833 228.5,316.5C 228.5,315.833 228.833,315.5 229.5,315.5C 229.833,316.833 230.167,316.833 230.5,315.5C 230.5,314.833 230.833,314.5 231.5,314.5 Z"/></g>
</svg>
