<?xml version="1.0" encoding="UTF-8"?>
<!DOCTYPE svg PUBLIC "-//W3C//DTD SVG 1.1//EN" "http://www.w3.org/Graphics/SVG/1.1/DTD/svg11.dtd">
<svg xmlns="http://www.w3.org/2000/svg" version="1.1" width="1200px" height="1200px" style="shape-rendering:geometricPrecision; text-rendering:geometricPrecision; image-rendering:optimizeQuality; fill-rule:evenodd; clip-rule:evenodd" xmlns:xlink="http://www.w3.org/1999/xlink">
<g><path style="opacity:0.994" fill="#020101" d="M 554.5,144.5 C 717.168,144.167 879.835,144.5 1042.5,145.5C 986.86,200.473 931.527,255.806 876.5,311.5C 952.186,377.218 995.686,460.218 1007,560.5C 1015.94,665.983 986.943,759.317 920,840.5C 850.681,910.653 781.181,980.653 711.5,1050.5C 548.5,1051.83 385.5,1051.83 222.5,1050.5C 277.653,994.847 332.986,939.347 388.5,884C 298.441,804.718 254.108,704.885 255.5,584.5C 260.356,496.179 291.189,418.513 348,351.5C 416.368,281.966 485.201,212.966 554.5,144.5 Z"/></g>
<g><path style="opacity:1" fill="#45030f" d="M 568.5,175.5 C 583.005,174.174 597.672,174.174 612.5,175.5C 612.376,176.107 612.043,176.44 611.5,176.5C 597.343,175.504 583.01,175.171 568.5,175.5 Z"/></g>
<g><path style="opacity:1" fill="#43030e" d="M 656.5,175.5 C 671.339,174.174 686.339,174.174 701.5,175.5C 701.376,176.107 701.043,176.44 700.5,176.5C 686.01,175.504 671.343,175.171 656.5,175.5 Z"/></g>
<g><path style="opacity:1" fill="#43030e" d="M 745.5,175.5 C 760.339,174.174 775.339,174.174 790.5,175.5C 790.376,176.107 790.043,176.44 789.5,176.5C 775.01,175.504 760.343,175.171 745.5,175.5 Z"/></g>
<g><path style="opacity:1" fill="#45030f" d="M 923.5,175.5 C 938.005,174.174 952.672,174.174 967.5,175.5C 967.376,176.107 967.043,176.44 966.5,176.5C 952.343,175.504 938.01,175.171 923.5,175.5 Z"/></g>
<g><path style="opacity:1" fill="#cd092b" d="M 568.5,175.5 C 583.01,175.171 597.343,175.504 611.5,176.5C 536.479,250.354 462.312,325.021 389,400.5C 327.516,479.732 306.849,568.732 327,667.5C 340.483,726.489 368.483,777.155 411,819.5C 418.531,812.303 425.698,804.803 432.5,797C 370.93,732.636 344.096,655.803 352,566.5C 359.569,507.717 382.569,456.05 421,411.5C 499.701,332.965 578.201,254.299 656.5,175.5C 671.343,175.171 686.01,175.504 700.5,176.5C 614.868,261.632 529.368,346.965 444,432.5C 385.137,504.14 368.47,584.807 394,674.5C 406.317,712.324 426.151,745.491 453.5,774C 454.5,774.667 455.5,774.667 456.5,774C 463.5,767 470.5,760 477.5,753C 428.19,701.407 407.357,639.907 415,568.5C 421.955,522.564 440.955,482.564 472,448.5C 488.368,431.965 504.868,415.632 521.5,399.5C 541.749,380.753 561.582,361.42 581,341.5C 581.464,340.906 581.631,340.239 581.5,339.5C 636.473,285.194 691.14,230.527 745.5,175.5C 760.343,175.171 775.01,175.504 789.5,176.5C 691.507,274.326 593.341,371.993 495,469.5C 442.799,530.867 431.465,599.2 461,674.5C 470.548,695.527 483.381,714.193 499.5,730.5C 507.167,723.5 514.5,716.167 521.5,708.5C 480.54,664.493 467.373,613.16 482,554.5C 488.113,535.272 497.113,517.606 509,501.5C 616.806,392.694 724.973,284.194 833.5,176C 848.5,175.333 863.5,175.333 878.5,176C 764.333,290.167 650.167,404.333 536,518.5C 505.955,557.499 499.622,600.165 517,646.5C 523.26,661.746 532.26,675.079 544,686.5C 551.348,679.319 558.515,671.986 565.5,664.5C 538.647,634.066 532.147,599.732 546,561.5C 549.241,554.011 553.241,547.011 558,540.5C 679.647,418.686 801.48,297.02 923.5,175.5C 938.01,175.171 952.343,175.504 966.5,176.5C 839.922,302.578 713.422,428.911 587,555.5C 567.088,580.612 565.421,606.945 582,634.5C 590.716,646.544 602.216,654.711 616.5,659C 548.833,726.667 481.167,794.333 413.5,862C 370.316,827.554 337.816,784.721 316,733.5C 293.621,680.014 284.787,624.347 289.5,566.5C 290.889,561.731 291.556,556.731 291.5,551.5C 301.07,481.376 329.237,420.043 376,367.5C 440.035,303.299 504.201,239.299 568.5,175.5 Z"/></g>
<g><path style="opacity:1" fill="#fcfcfc" d="M 609.5,1020.5 C 594.657,1020.83 579.99,1020.5 565.5,1019.5C 651.465,934.035 737.299,848.368 823,762.5C 883.47,687.371 898.803,603.704 869,511.5C 856.185,477.178 836.851,447.178 811,421.5C 803.652,428.681 796.485,436.014 789.5,443.5C 853.392,513.506 868.892,593.173 836,682.5C 826.688,704.476 814.355,724.476 799,742.5C 706.5,835 614,927.5 521.5,1020C 506.5,1020.67 491.5,1020.67 476.5,1020C 575.306,922.194 673.806,824.027 772,725.5C 811.037,680.371 826.704,628.038 819,568.5C 812.275,529.215 795.109,495.382 767.5,467C 766.833,466.333 766.167,466.333 765.5,467C 758.652,474.015 751.652,480.848 744.5,487.5C 785.501,531.501 798.668,582.835 784,641.5C 776.629,665.589 764.629,686.922 748,705.5C 642.326,810.007 537.159,915.007 432.5,1020.5C 417.657,1020.83 402.99,1020.5 388.5,1019.5C 501.465,907.035 614.299,794.368 727,681.5C 759.708,640.947 766.708,596.28 748,547.5C 741.607,533.366 732.774,521.033 721.5,510.5C 714.167,517.167 707.167,524.167 700.5,531.5C 728.573,563.387 734.406,599.053 718,638.5C 713.659,647.188 708.326,655.188 702,662.5C 582.632,782.035 463.132,901.368 343.5,1020.5C 328.657,1020.83 313.99,1020.5 299.5,1019.5C 427.132,892.368 554.632,765.035 682,637.5C 700.623,609.928 699.956,582.928 680,556.5C 671.358,547.76 661.192,541.427 649.5,537.5C 717.167,469.167 785.167,401.167 853.5,333.5C 927.405,396.636 968.572,476.969 977,574.5C 981.621,673.987 950.955,760.653 885,834.5C 823.167,896.333 761.333,958.167 699.5,1020C 684.5,1020.67 669.5,1020.67 654.5,1020C 727.361,947.473 799.861,874.639 872,801.5C 938.544,719.345 960.544,626.345 938,522.5C 923.816,466.737 896.649,418.57 856.5,378C 855.833,377.333 855.167,377.333 854.5,378C 847.319,385.014 840.319,392.181 833.5,399.5C 904.35,474.201 929.183,562.201 908,663.5C 896.109,711.294 873.775,753.294 841,789.5C 763.965,866.701 686.799,943.701 609.5,1020.5 Z"/></g>
<g><path style="opacity:1" fill="#b70826" d="M 581.5,339.5 C 581.631,340.239 581.464,340.906 581,341.5C 561.582,361.42 541.749,380.753 521.5,399.5C 541.167,379.167 561.167,359.167 581.5,339.5 Z"/></g>
<g><path style="opacity:1" fill="#88061d" d="M 291.5,551.5 C 291.556,556.731 290.889,561.731 289.5,566.5C 289.444,561.269 290.111,556.269 291.5,551.5 Z"/></g>
<g><path style="opacity:1" fill="#494949" d="M 299.5,1019.5 C 313.99,1020.5 328.657,1020.83 343.5,1020.5C 328.661,1021.83 313.661,1021.83 298.5,1020.5C 298.624,1019.89 298.957,1019.56 299.5,1019.5 Z"/></g>
<g><path style="opacity:1" fill="#484848" d="M 388.5,1019.5 C 402.99,1020.5 417.657,1020.83 432.5,1020.5C 417.661,1021.83 402.661,1021.83 387.5,1020.5C 387.624,1019.89 387.957,1019.56 388.5,1019.5 Z"/></g>
<g><path style="opacity:1" fill="#474747" d="M 565.5,1019.5 C 579.99,1020.5 594.657,1020.83 609.5,1020.5C 594.661,1021.83 579.661,1021.83 564.5,1020.5C 564.624,1019.89 564.957,1019.56 565.5,1019.5 Z"/></g>
</svg>
