<?xml version="1.0" encoding="UTF-8"?>
<!DOCTYPE svg PUBLIC "-//W3C//DTD SVG 1.1//EN" "http://www.w3.org/Graphics/SVG/1.1/DTD/svg11.dtd">
<svg xmlns="http://www.w3.org/2000/svg" version="1.1" width="800px" height="800px" style="shape-rendering:geometricPrecision; text-rendering:geometricPrecision; image-rendering:optimizeQuality; fill-rule:evenodd; clip-rule:evenodd" xmlns:xlink="http://www.w3.org/1999/xlink">
<g><path style="opacity:0.99" fill="#fefefe" d="M 691.5,64.5 C 692.833,130.33 693.5,196.497 693.5,263C 693.333,329.167 693.167,395.333 693,461.5C 682.744,563.641 634.244,641.474 547.5,695C 462.861,741.425 375.527,747.092 285.5,712C 200.755,674.255 144.588,611.088 117,522.5C 111.5,502.5 107.833,482.167 106,461.5C 105.167,329.832 105.333,198.165 106.5,66.5C 134.181,93.3476 161.348,120.681 188,148.5C 211.347,124.986 234.847,101.653 258.5,78.5C 281.486,101.986 304.653,125.32 328,148.5C 351.347,124.986 374.847,101.653 398.5,78.5C 421.486,101.986 444.653,125.32 468,148.5C 491.347,124.986 514.847,101.653 538.5,78.5C 562.153,101.653 585.653,124.986 609,148.5C 637.064,120.937 664.564,92.9367 691.5,64.5 Z"/></g>
<g><path style="opacity:1" fill="#5a2d81" d="M 523.5,234.5 C 522.957,234.56 522.624,234.893 522.5,235.5C 533.993,236.824 545.326,236.824 556.5,235.5C 593.167,199.167 629.833,162.833 666.5,126.5C 667.499,194.331 667.833,262.331 667.5,330.5C 488.833,330.5 310.167,330.5 131.5,330.5C 131.17,263.096 131.504,195.762 132.5,128.5C 150.839,146.673 169.339,164.673 188,182.5C 211.626,159.874 234.96,136.874 258,113.5C 275.681,131.014 293.181,148.681 310.5,166.5C 287.681,189.82 264.681,212.986 241.5,236C 252.833,236.667 264.167,236.667 275.5,236C 316.333,195.167 357.167,154.333 398,113.5C 421.652,136.319 445.152,159.319 468.5,182.5C 491.833,159.5 515.167,136.5 538.5,113.5C 556.319,130.819 573.986,148.319 591.5,166C 569.327,189.34 546.66,212.173 523.5,234.5 Z"/></g>
<g><path style="opacity:1" fill="#a58cba" d="M 667.5,124.5 C 667.56,123.957 667.893,123.624 668.5,123.5C 669.832,193.332 669.832,262.999 668.5,332.5C 668.833,262.998 668.499,193.665 667.5,124.5 Z"/></g>
<g><path style="opacity:1" fill="#b8a4c9" d="M 131.5,126.5 C 130.501,194.998 130.167,263.665 130.5,332.5C 129.168,263.665 129.168,194.665 130.5,125.5C 131.107,125.624 131.44,125.957 131.5,126.5 Z"/></g>
<g><path style="opacity:1" fill="#5d3183" d="M 667.5,124.5 C 668.499,193.665 668.833,262.998 668.5,332.5C 489.167,332.5 309.833,332.5 130.5,332.5C 130.167,263.665 130.501,194.998 131.5,126.5C 131.833,127.167 132.167,127.833 132.5,128.5C 131.504,195.762 131.17,263.096 131.5,330.5C 310.167,330.5 488.833,330.5 667.5,330.5C 667.833,262.331 667.499,194.331 666.5,126.5C 666.833,125.833 667.167,125.167 667.5,124.5 Z"/></g>
<g><path style="opacity:1" fill="#cdbfd8" d="M 506.5,290.5 C 507.473,292.948 507.806,295.615 507.5,298.5C 499.167,298.5 490.833,298.5 482.5,298.5C 490.316,297.508 498.316,297.174 506.5,297.5C 506.5,295.167 506.5,292.833 506.5,290.5 Z"/></g>
<g><path style="opacity:1" fill="#977aaf" d="M 160.5,281.5 C 160.5,284.167 160.5,286.833 160.5,289.5C 167.354,289.176 174.021,289.509 180.5,290.5C 173.5,290.5 166.5,290.5 159.5,290.5C 159.19,287.287 159.523,284.287 160.5,281.5 Z"/></g>
<g><path style="opacity:1" fill="#9d81b3" d="M 283.5,280.5 C 275.684,281.492 267.684,281.826 259.5,281.5C 259.5,290.167 259.5,298.833 259.5,307.5C 258.507,298.682 258.173,289.682 258.5,280.5C 266.833,280.5 275.167,280.5 283.5,280.5 Z"/></g>
<g><path style="opacity:1" fill="#b29ec5" d="M 471.5,273.5 C 483.322,272.505 495.322,272.172 507.5,272.5C 507.5,275.5 507.5,278.5 507.5,281.5C 499.167,281.5 490.833,281.5 482.5,281.5C 490.316,280.508 498.316,280.174 506.5,280.5C 506.5,278.167 506.5,275.833 506.5,273.5C 494.833,273.5 483.167,273.5 471.5,273.5 Z"/></g>
<g><path style="opacity:1" fill="#9f85b5" d="M 331.5,276.5 C 332.492,284.316 332.826,292.316 332.5,300.5C 330.5,300.5 328.5,300.5 326.5,300.5C 327.919,299.549 329.585,299.216 331.5,299.5C 331.5,291.833 331.5,284.167 331.5,276.5 Z"/></g>
<g><path style="opacity:1" fill="#f7f5f9" d="M 616.5,272.5 C 626.172,272.334 635.839,272.5 645.5,273C 646.667,274.167 647.833,275.333 649,276.5C 649.667,288.167 649.667,299.833 649,311.5C 648.626,312.416 648.126,313.25 647.5,314C 642.107,315.12 636.607,315.62 631,315.5C 626.167,315.333 621.333,315.167 616.5,315C 615.692,314.692 615.025,314.192 614.5,313.5C 613.353,300.879 613.186,288.212 614,275.5C 615.045,274.627 615.878,273.627 616.5,272.5 Z"/></g>
<g><path style="opacity:1" fill="#592c80" d="M 624.5,281.5 C 628.833,281.5 633.167,281.5 637.5,281.5C 637.5,290.167 637.5,298.833 637.5,307.5C 633.167,307.5 628.833,307.5 624.5,307.5C 624.5,298.833 624.5,290.167 624.5,281.5 Z"/></g>
<g><path style="opacity:1" fill="#fdfdfd" d="M 588.5,281.5 C 588.5,292.833 588.5,304.167 588.5,315.5C 584.833,315.5 581.167,315.5 577.5,315.5C 577.5,304.167 577.5,292.833 577.5,281.5C 573.702,280.517 569.702,280.183 565.5,280.5C 565.5,278.167 565.5,275.833 565.5,273.5C 577.167,273.5 588.833,273.5 600.5,273.5C 600.5,275.833 600.5,278.167 600.5,280.5C 596.298,280.183 592.298,280.517 588.5,281.5 Z"/></g>
<g><path style="opacity:1" fill="#f7f5f9" d="M 550.5,273.5 C 551.794,274.29 552.961,275.29 554,276.5C 554.5,289.496 554.667,302.496 554.5,315.5C 550.5,315.5 546.5,315.5 542.5,315.5C 542.5,304.167 542.5,292.833 542.5,281.5C 538.167,281.5 533.833,281.5 529.5,281.5C 529.5,292.833 529.5,304.167 529.5,315.5C 525.833,315.5 522.167,315.5 518.5,315.5C 518.5,301.5 518.5,287.5 518.5,273.5C 529.167,273.5 539.833,273.5 550.5,273.5 Z"/></g>
<g><path style="opacity:1" fill="#9072ab" d="M 550.5,273.5 C 539.833,273.5 529.167,273.5 518.5,273.5C 518.5,287.5 518.5,301.5 518.5,315.5C 517.504,301.343 517.171,287.01 517.5,272.5C 528.679,272.172 539.679,272.505 550.5,273.5 Z"/></g>
<g><path style="opacity:1" fill="#fdfcfd" d="M 471.5,273.5 C 483.167,273.5 494.833,273.5 506.5,273.5C 506.5,275.833 506.5,278.167 506.5,280.5C 498.316,280.174 490.316,280.508 482.5,281.5C 482.5,284.5 482.5,287.5 482.5,290.5C 490.5,290.5 498.5,290.5 506.5,290.5C 506.5,292.833 506.5,295.167 506.5,297.5C 498.316,297.174 490.316,297.508 482.5,298.5C 482.5,301.5 482.5,304.5 482.5,307.5C 490.833,307.5 499.167,307.5 507.5,307.5C 507.5,310.167 507.5,312.833 507.5,315.5C 496.495,315.667 485.495,315.5 474.5,315C 473.692,314.692 473.025,314.192 472.5,313.5C 471.518,300.216 471.185,286.883 471.5,273.5 Z"/></g>
<g><path style="opacity:1" fill="#fbfafc" d="M 452.5,273.5 C 454.411,273.574 455.578,274.574 456,276.5C 456.5,289.496 456.667,302.496 456.5,315.5C 452.833,315.5 449.167,315.5 445.5,315.5C 445.5,303.833 445.5,292.167 445.5,280.5C 440.833,280.5 436.167,280.5 431.5,280.5C 431.5,292.167 431.5,303.833 431.5,315.5C 427.833,315.5 424.167,315.5 420.5,315.5C 420.5,304.167 420.5,292.833 420.5,281.5C 416.167,281.5 411.833,281.5 407.5,281.5C 407.5,292.833 407.5,304.167 407.5,315.5C 403.833,315.5 400.167,315.5 396.5,315.5C 396.5,301.5 396.5,287.5 396.5,273.5C 415.167,273.5 433.833,273.5 452.5,273.5 Z"/></g>
<g><path style="opacity:1" fill="#8868a4" d="M 445.5,315.5 C 444.505,304.346 444.172,293.012 444.5,281.5C 440.5,281.5 436.5,281.5 432.5,281.5C 432.828,293.012 432.495,304.346 431.5,315.5C 431.5,303.833 431.5,292.167 431.5,280.5C 436.167,280.5 440.833,280.5 445.5,280.5C 445.5,292.167 445.5,303.833 445.5,315.5 Z"/></g>
<g><path style="opacity:1" fill="#ae98c1" d="M 452.5,273.5 C 433.833,273.5 415.167,273.5 396.5,273.5C 396.5,287.5 396.5,301.5 396.5,315.5C 395.504,301.343 395.171,287.01 395.5,272.5C 414.674,272.17 433.674,272.503 452.5,273.5 Z"/></g>
<g><path style="opacity:1" fill="#fdfdfd" d="M 377.5,273.5 C 379.017,273.511 380.184,274.177 381,275.5C 381.5,288.829 381.667,302.163 381.5,315.5C 377.833,315.5 374.167,315.5 370.5,315.5C 370.5,311.833 370.5,308.167 370.5,304.5C 365.833,304.5 361.167,304.5 356.5,304.5C 356.5,308.167 356.5,311.833 356.5,315.5C 353.167,315.5 349.833,315.5 346.5,315.5C 346.5,301.5 346.5,287.5 346.5,273.5C 356.833,273.5 367.167,273.5 377.5,273.5 Z"/></g>
<g><path style="opacity:1" fill="#8867a4" d="M 356.5,280.5 C 361.167,280.5 365.833,280.5 370.5,280.5C 370.5,285.833 370.5,291.167 370.5,296.5C 365.833,296.5 361.167,296.5 356.5,296.5C 356.5,291.167 356.5,285.833 356.5,280.5 Z"/></g>
<g><path style="opacity:1" fill="#582a7f" d="M 357.5,281.5 C 361.5,281.5 365.5,281.5 369.5,281.5C 369.5,286.167 369.5,290.833 369.5,295.5C 365.5,295.5 361.5,295.5 357.5,295.5C 357.5,290.833 357.5,286.167 357.5,281.5 Z"/></g>
<g><path style="opacity:1" fill="#d4c8de" d="M 377.5,273.5 C 367.167,273.5 356.833,273.5 346.5,273.5C 346.5,287.5 346.5,301.5 346.5,315.5C 345.504,301.343 345.171,287.01 345.5,272.5C 356.346,272.172 367.013,272.506 377.5,273.5 Z"/></g>
<g><path style="opacity:1" fill="#faf8fb" d="M 328.5,273.5 C 329.833,274.167 330.833,275.167 331.5,276.5C 331.5,284.167 331.5,291.833 331.5,299.5C 329.585,299.216 327.919,299.549 326.5,300.5C 328.298,305.22 330.298,309.886 332.5,314.5C 328.833,315.833 325.167,315.833 321.5,314.5C 319.629,309.926 317.629,305.426 315.5,301C 312.854,300.503 310.187,300.336 307.5,300.5C 307.5,305.5 307.5,310.5 307.5,315.5C 303.833,315.5 300.167,315.5 296.5,315.5C 296.5,301.5 296.5,287.5 296.5,273.5C 307.167,273.5 317.833,273.5 328.5,273.5 Z"/></g>
<g><path style="opacity:1" fill="#57297f" d="M 307.5,281.5 C 311.833,281.5 316.167,281.5 320.5,281.5C 320.5,284.833 320.5,288.167 320.5,291.5C 316.167,291.5 311.833,291.5 307.5,291.5C 307.5,288.167 307.5,284.833 307.5,281.5 Z"/></g>
<g><path style="opacity:1" fill="#997cb0" d="M 328.5,273.5 C 317.833,273.5 307.167,273.5 296.5,273.5C 296.5,287.5 296.5,301.5 296.5,315.5C 295.504,301.343 295.171,287.01 295.5,272.5C 306.679,272.172 317.679,272.505 328.5,273.5 Z"/></g>
<g><path style="opacity:1" fill="#fefdfe" d="M 283.5,273.5 C 283.5,275.833 283.5,278.167 283.5,280.5C 275.167,280.5 266.833,280.5 258.5,280.5C 258.173,289.682 258.507,298.682 259.5,307.5C 267.5,307.5 275.5,307.5 283.5,307.5C 283.5,310.167 283.5,312.833 283.5,315.5C 272.495,315.667 261.495,315.5 250.5,315C 249.619,314.292 248.953,313.458 248.5,312.5C 248.5,299.5 248.5,286.5 248.5,273.5C 260.167,273.5 271.833,273.5 283.5,273.5 Z"/></g>
<g><path style="opacity:1" fill="#c5b5d3" d="M 283.5,273.5 C 271.833,273.5 260.167,273.5 248.5,273.5C 248.5,286.5 248.5,299.5 248.5,312.5C 247.504,299.344 247.171,286.01 247.5,272.5C 259.678,272.172 271.678,272.505 283.5,273.5 Z"/></g>
<g><path style="opacity:1" fill="#faf8fb" d="M 198.5,272.5 C 209.172,272.333 219.839,272.5 230.5,273C 231.667,274.167 232.833,275.333 234,276.5C 234.5,289.496 234.667,302.496 234.5,315.5C 230.833,315.5 227.167,315.5 223.5,315.5C 223.5,311.833 223.5,308.167 223.5,304.5C 218.833,304.5 214.167,304.5 209.5,304.5C 209.5,308.167 209.5,311.833 209.5,315.5C 205.833,315.5 202.167,315.5 198.5,315.5C 198.5,301.167 198.5,286.833 198.5,272.5 Z"/></g>
<g><path style="opacity:1" fill="#9a7eb1" d="M 209.5,281.5 C 213.97,280.514 218.637,280.181 223.5,280.5C 223.5,285.833 223.5,291.167 223.5,296.5C 218.637,296.819 213.97,296.486 209.5,295.5C 213.833,295.5 218.167,295.5 222.5,295.5C 222.5,290.833 222.5,286.167 222.5,281.5C 218.167,281.5 213.833,281.5 209.5,281.5 Z"/></g>
<g><path style="opacity:1" fill="#582b7f" d="M 209.5,281.5 C 213.833,281.5 218.167,281.5 222.5,281.5C 222.5,286.167 222.5,290.833 222.5,295.5C 218.167,295.5 213.833,295.5 209.5,295.5C 209.5,290.833 209.5,286.167 209.5,281.5 Z"/></g>
<g><path style="opacity:1" fill="#faf9fb" d="M 184.5,273.5 C 184.5,276.167 184.5,278.833 184.5,281.5C 176.5,281.5 168.5,281.5 160.5,281.5C 159.523,284.287 159.19,287.287 159.5,290.5C 166.5,290.5 173.5,290.5 180.5,290.5C 182.017,290.511 183.184,291.177 184,292.5C 184.5,300.159 184.666,307.826 184.5,315.5C 172.5,315.5 160.5,315.5 148.5,315.5C 148.5,312.833 148.5,310.167 148.5,307.5C 156.833,307.5 165.167,307.5 173.5,307.5C 173.5,304.5 173.5,301.5 173.5,298.5C 166.492,298.666 159.492,298.5 152.5,298C 150.944,297.28 149.944,296.113 149.5,294.5C 149.5,287.5 149.5,280.5 149.5,273.5C 161.167,273.5 172.833,273.5 184.5,273.5 Z"/></g>
<g><path style="opacity:1" fill="#b39ec5" d="M 588.5,281.5 C 592.298,280.517 596.298,280.183 600.5,280.5C 600.5,278.167 600.5,275.833 600.5,273.5C 588.833,273.5 577.167,273.5 565.5,273.5C 565.5,275.833 565.5,278.167 565.5,280.5C 569.702,280.183 573.702,280.517 577.5,281.5C 573.167,281.5 568.833,281.5 564.5,281.5C 564.5,278.5 564.5,275.5 564.5,272.5C 576.833,272.5 589.167,272.5 601.5,272.5C 601.5,275.5 601.5,278.5 601.5,281.5C 597.167,281.5 592.833,281.5 588.5,281.5 Z"/></g>
<g><path style="opacity:1" fill="#b6a3c7" d="M 184.5,273.5 C 172.833,273.5 161.167,273.5 149.5,273.5C 149.5,280.5 149.5,287.5 149.5,294.5C 148.508,287.352 148.175,280.019 148.5,272.5C 160.678,272.172 172.678,272.505 184.5,273.5 Z"/></g>
<g><path style="opacity:1" fill="#ded4e5" d="M 523.5,234.5 C 534.321,235.495 545.321,235.828 556.5,235.5C 545.326,236.824 533.993,236.824 522.5,235.5C 522.624,234.893 522.957,234.56 523.5,234.5 Z"/></g>
<g><path style="opacity:1" fill="#6a428d" d="M 668.5,353.5 C 668.5,353.833 668.5,354.167 668.5,354.5C 633.5,354.5 598.5,354.5 563.5,354.5C 563.5,373.5 563.5,392.5 563.5,411.5C 562.503,392.341 562.17,373.007 562.5,353.5C 597.833,353.5 633.167,353.5 668.5,353.5 Z"/></g>
<g><path style="opacity:1" fill="#9c81b3" d="M 296.5,353.5 C 297.499,391.996 297.832,430.663 297.5,469.5C 283.323,469.829 269.323,469.496 255.5,468.5C 255.833,468.5 256.167,468.5 256.5,468.5C 269.833,468.5 283.167,468.5 296.5,468.5C 296.5,430.5 296.5,392.5 296.5,354.5C 296.5,354.167 296.5,353.833 296.5,353.5 Z"/></g>
<g><path style="opacity:1" fill="#5a2d81" d="M 130.5,353.5 C 143.833,353.5 157.167,353.5 170.5,353.5C 170.5,369.167 170.5,384.833 170.5,400.5C 174.833,400.5 179.167,400.5 183.5,400.5C 189.934,384.961 196.934,369.627 204.5,354.5C 217.833,353.167 231.167,353.167 244.5,354.5C 234.895,373.377 225.561,392.377 216.5,411.5C 226.105,430.377 235.439,449.377 244.5,468.5C 231.167,469.833 217.833,469.833 204.5,468.5C 197.307,453.585 190.307,438.585 183.5,423.5C 179.217,422.508 174.884,422.174 170.5,422.5C 169.504,437.658 169.17,452.991 169.5,468.5C 156.5,468.5 143.5,468.5 130.5,468.5C 130.5,430.167 130.5,391.833 130.5,353.5 Z"/></g>
<g><path style="opacity:1" fill="#6d4590" d="M 296.5,353.5 C 296.5,353.833 296.5,354.167 296.5,354.5C 283.167,354.5 269.833,354.5 256.5,354.5C 256.5,392.5 256.5,430.5 256.5,468.5C 256.167,468.5 255.833,468.5 255.5,468.5C 255.5,430.167 255.5,391.833 255.5,353.5C 269.167,353.5 282.833,353.5 296.5,353.5 Z"/></g>
<g><path style="opacity:1" fill="#592c80" d="M 296.5,354.5 C 296.5,392.5 296.5,430.5 296.5,468.5C 283.167,468.5 269.833,468.5 256.5,468.5C 256.5,430.5 256.5,392.5 256.5,354.5C 269.833,354.5 283.167,354.5 296.5,354.5 Z"/></g>
<g><path style="opacity:1" fill="#5a2d81" d="M 312.5,353.5 C 345.502,353.333 378.502,353.5 411.5,354C 416.944,355.942 419.944,359.775 420.5,365.5C 420.5,399.833 420.5,434.167 420.5,468.5C 408.167,468.5 395.833,468.5 383.5,468.5C 383.831,437.662 383.498,406.995 382.5,376.5C 372.5,376.5 362.5,376.5 352.5,376.5C 352.5,407.167 352.5,437.833 352.5,468.5C 339.167,468.5 325.833,468.5 312.5,468.5C 312.5,430.167 312.5,391.833 312.5,353.5 Z"/></g>
<g><path style="opacity:1" fill="#592c80" d="M 546.5,375.5 C 523.5,375.5 500.5,375.5 477.5,375.5C 477.169,399.339 477.502,423.006 478.5,446.5C 488.5,446.5 498.5,446.5 508.5,446.5C 508.5,430.833 508.5,415.167 508.5,399.5C 521.167,399.5 533.833,399.5 546.5,399.5C 546.5,422.5 546.5,445.5 546.5,468.5C 513.5,468.5 480.5,468.5 447.5,468.5C 443.515,466.679 440.681,463.679 439,459.5C 438.5,424.168 438.333,388.835 438.5,353.5C 474.5,353.5 510.5,353.5 546.5,353.5C 546.5,360.833 546.5,368.167 546.5,375.5 Z"/></g>
<g><path style="opacity:1" fill="#5a2d81" d="M 668.5,354.5 C 668.5,364.5 668.5,374.5 668.5,384.5C 655.833,384.5 643.167,384.5 630.5,384.5C 630.5,381.5 630.5,378.5 630.5,375.5C 621.167,375.5 611.833,375.5 602.5,375.5C 602.5,383.833 602.5,392.167 602.5,400.5C 622.169,400.333 641.836,400.5 661.5,401C 665.704,403.238 668.037,406.738 668.5,411.5C 668.5,430.5 668.5,449.5 668.5,468.5C 633.167,468.5 597.833,468.5 562.5,468.5C 562.5,461.5 562.5,454.5 562.5,447.5C 584.5,447.5 606.5,447.5 628.5,447.5C 628.5,439.167 628.5,430.833 628.5,422.5C 609.497,422.667 590.497,422.5 571.5,422C 567.121,419.789 564.454,416.289 563.5,411.5C 563.5,392.5 563.5,373.5 563.5,354.5C 598.5,354.5 633.5,354.5 668.5,354.5 Z"/></g>
<g><path style="opacity:1" fill="#9274ac" d="M 420.5,365.5 C 421.498,399.996 421.832,434.663 421.5,469.5C 408.5,469.5 395.5,469.5 382.5,469.5C 382.5,438.5 382.5,407.5 382.5,376.5C 383.498,406.995 383.831,437.662 383.5,468.5C 395.833,468.5 408.167,468.5 420.5,468.5C 420.5,434.167 420.5,399.833 420.5,365.5 Z"/></g>
<g><path style="opacity:1" fill="#b5a1c6" d="M 546.5,375.5 C 524.006,376.497 501.339,376.831 478.5,376.5C 478.5,399.5 478.5,422.5 478.5,445.5C 478.5,445.833 478.5,446.167 478.5,446.5C 477.502,423.006 477.169,399.339 477.5,375.5C 500.5,375.5 523.5,375.5 546.5,375.5 Z"/></g>
<g><path style="opacity:1" fill="#c2b1d1" d="M 668.5,353.5 C 669.494,363.987 669.828,374.654 669.5,385.5C 656.323,385.829 643.323,385.495 630.5,384.5C 643.167,384.5 655.833,384.5 668.5,384.5C 668.5,374.5 668.5,364.5 668.5,354.5C 668.5,354.167 668.5,353.833 668.5,353.5 Z"/></g>
<g><path style="opacity:1" fill="#d3c7dd" d="M 508.5,398.5 C 508.5,398.833 508.5,399.167 508.5,399.5C 508.5,415.167 508.5,430.833 508.5,446.5C 498.5,446.5 488.5,446.5 478.5,446.5C 478.5,446.167 478.5,445.833 478.5,445.5C 488.167,445.5 497.833,445.5 507.5,445.5C 507.17,429.658 507.504,413.991 508.5,398.5 Z"/></g>
<g><path style="opacity:1" fill="#a38ab9" d="M 130.5,353.5 C 130.5,391.833 130.5,430.167 130.5,468.5C 143.5,468.5 156.5,468.5 169.5,468.5C 169.17,452.991 169.504,437.658 170.5,422.5C 170.5,438.167 170.5,453.833 170.5,469.5C 156.833,469.5 143.167,469.5 129.5,469.5C 129.168,430.663 129.501,391.996 130.5,353.5 Z"/></g>
<g><path style="opacity:1" fill="#ab94be" d="M 312.5,353.5 C 312.5,391.833 312.5,430.167 312.5,468.5C 325.833,468.5 339.167,468.5 352.5,468.5C 339.01,469.496 325.344,469.829 311.5,469.5C 311.168,430.663 311.501,391.996 312.5,353.5 Z"/></g>
<g><path style="opacity:1" fill="#a38ab8" d="M 508.5,399.5 C 508.5,399.167 508.5,398.833 508.5,398.5C 521.5,398.5 534.5,398.5 547.5,398.5C 547.5,422.167 547.5,445.833 547.5,469.5C 513.996,469.832 480.662,469.498 447.5,468.5C 480.5,468.5 513.5,468.5 546.5,468.5C 546.5,445.5 546.5,422.5 546.5,399.5C 533.833,399.5 521.167,399.5 508.5,399.5 Z"/></g>
<g><path style="opacity:1" fill="#9e84b4" d="M 668.5,411.5 C 669.497,430.659 669.83,449.993 669.5,469.5C 633.663,469.832 597.996,469.498 562.5,468.5C 597.833,468.5 633.167,468.5 668.5,468.5C 668.5,449.5 668.5,430.5 668.5,411.5 Z"/></g>
<g><path style="opacity:1" fill="#9fa8ad" d="M 132.5,491.5 C 151.664,490.833 170.997,490.5 190.5,490.5C 210.178,490.5 229.512,491.167 248.5,492.5C 209.906,491.506 171.239,491.173 132.5,491.5 Z"/></g>
<g><path style="opacity:1" fill="#a1aaaf" d="M 665.5,492.5 C 536.167,491.167 406.833,491.167 277.5,492.5C 276.957,492.44 276.624,492.107 276.5,491.5C 406.5,490.167 536.5,490.167 666.5,491.5C 666.376,492.107 666.043,492.44 665.5,492.5 Z"/></g>
<g><path style="opacity:1" fill="#63727a" d="M 132.5,491.5 C 171.239,491.173 209.906,491.506 248.5,492.5C 251.503,505.177 254.503,517.844 257.5,530.5C 221.004,537.849 192.838,557.183 173,588.5C 152.977,558.943 139.477,526.61 132.5,491.5 Z"/></g>
<g><path style="opacity:1" fill="#63727a" d="M 665.5,492.5 C 657.818,531.857 641.985,567.524 618,599.5C 605.813,612.59 590.979,617.09 573.5,613C 559.704,608.436 546.371,602.769 533.5,596C 505.685,579.425 477.018,564.425 447.5,551C 395.73,528.761 341.73,519.594 285.5,523.5C 282.072,513.357 279.405,503.024 277.5,492.5C 406.833,491.167 536.167,491.167 665.5,492.5 Z"/></g>
<g><path style="opacity:1" fill="#63727a" d="M 305.5,551.5 C 352.576,550.482 397.576,559.649 440.5,579C 473.658,596.078 506.658,613.412 539.5,631C 551.955,636.819 564.955,640.819 578.5,643C 544.625,672.608 505.625,692.774 461.5,703.5C 424.687,695.428 392.354,678.928 364.5,654C 333.697,625.906 310.697,592.406 295.5,553.5C 298.977,552.833 302.311,552.166 305.5,551.5 Z"/></g>
<g><path style="opacity:1" fill="#63727a" d="M 261.5,557.5 C 263.604,557.201 265.604,557.534 267.5,558.5C 289.146,616.95 325.479,663.783 376.5,699C 382.833,702.667 389.167,706.333 395.5,710C 318.192,708.256 253.026,679.423 200,623.5C 197.486,620.322 194.986,617.156 192.5,614C 200.202,594.632 213.202,579.965 231.5,570C 241.247,564.926 251.247,560.76 261.5,557.5 Z"/></g>
</svg>
