<?xml version="1.0" encoding="UTF-8"?>
<!DOCTYPE svg PUBLIC "-//W3C//DTD SVG 1.1//EN" "http://www.w3.org/Graphics/SVG/1.1/DTD/svg11.dtd">
<svg xmlns="http://www.w3.org/2000/svg" version="1.1" width="1280px" height="707px" style="shape-rendering:geometricPrecision; text-rendering:geometricPrecision; image-rendering:optimizeQuality; fill-rule:evenodd; clip-rule:evenodd" xmlns:xlink="http://www.w3.org/1999/xlink">
<g><path style="opacity:0.981" fill="#c2ccd2" d="M 601.5,23.5 C 788.516,18.2254 970.183,46.7254 1146.5,109C 1146.96,109.414 1147.29,109.914 1147.5,110.5C 1143.59,122.049 1140.42,133.715 1138,145.5C 1151.84,150.059 1165.68,154.726 1179.5,159.5C 1178.15,167.393 1175.82,175.226 1172.5,183C 1190.15,189.833 1207.48,197.166 1224.5,205C 1221.27,216.202 1217.93,227.369 1214.5,238.5C 1227.3,243.822 1240.3,248.655 1253.5,253C 1253.96,253.414 1254.29,253.914 1254.5,254.5C 1221.37,354.401 1188.53,454.401 1156,554.5C 1155.44,555.022 1154.77,555.355 1154,555.5C 1141.2,550.735 1128.37,546.068 1115.5,541.5C 1110.5,552.833 1105.5,564.167 1100.5,575.5C 1081.83,567.833 1063.17,560.167 1044.5,552.5C 1042.43,557.704 1040.77,563.038 1039.5,568.5C 961.799,534.88 881.133,511.047 797.5,497C 760.729,490.99 723.729,487.99 686.5,488C 710.646,516.447 735.146,544.614 760,572.5C 761.602,574.369 762.602,576.369 763,578.5C 706.315,563.328 649.482,548.662 592.5,534.5C 578.849,583.955 564.683,633.289 550,682.5C 529.423,635.111 509.423,587.445 490,539.5C 440.616,556.128 391.116,572.461 341.5,588.5C 340.479,587.998 340.312,587.332 341,586.5C 356.814,563.427 371.981,540.427 386.5,517.5C 336.568,530.976 288.068,548.309 241,569.5C 238.547,563.979 236.38,558.312 234.5,552.5C 215.833,560.167 197.167,567.833 178.5,575.5C 173.5,564.167 168.5,552.833 163.5,541.5C 150.231,546.534 136.897,551.034 123.5,555C 90.6081,454.824 57.6081,354.657 24.5,254.5C 24.7093,253.914 25.0426,253.414 25.5,253C 38.7027,248.655 51.7027,243.822 64.5,238.5C 61.0675,227.369 57.7342,216.202 54.5,205C 71.5152,197.166 88.8485,189.833 106.5,183C 103.179,175.226 100.845,167.393 99.5,159.5C 113.324,154.726 127.157,150.059 141,145.5C 138.577,133.715 135.41,122.049 131.5,110.5C 259.618,63.4414 391.951,35.6081 528.5,27C 552.985,25.6515 577.319,24.4849 601.5,23.5 Z"/></g>
<g><path style="opacity:1" fill="#0b1c23" d="M 580.5,43.5 C 766.06,35.7013 946.56,61.7013 1122,121.5C 1122.5,121.833 1123,122.167 1123.5,122.5C 1120.18,132.765 1117.02,143.098 1114,153.5C 1113.33,155.167 1113.33,156.833 1114,158.5C 1127.61,163.528 1141.44,167.861 1155.5,171.5C 1153.14,179.426 1150.47,187.26 1147.5,195C 1164.64,202.324 1181.97,209.157 1199.5,215.5C 1195.76,227.71 1192.43,240.043 1189.5,252.5C 1202.43,257.031 1215.43,261.364 1228.5,265.5C 1199.77,353.513 1170.94,441.513 1142,529.5C 1128.65,524.329 1115.15,519.662 1101.5,515.5C 1098.13,526.965 1093.79,537.965 1088.5,548.5C 1069.99,540.443 1051.33,532.776 1032.5,525.5C 1029.82,530.878 1028.15,536.545 1027.5,542.5C 933.544,503.428 835.877,479.261 734.5,470C 705.509,467.409 676.509,467.076 647.5,469C 670.5,495.333 693.5,521.667 716.5,548C 671.452,537.155 626.452,526.155 581.5,515C 569.618,554.025 558.118,593.191 547,632.5C 531.296,594.927 515.462,557.427 499.5,520C 460.244,531.403 421.244,543.903 382.5,557.5C 382.167,557.167 381.833,556.833 381.5,556.5C 396.637,533.53 411.971,510.697 427.5,488C 367.51,500.383 309.176,518.549 252.5,542.5C 250.366,536.962 248.699,531.295 247.5,525.5C 228.068,532.464 208.902,540.131 190,548.5C 185.504,537.684 181.004,526.85 176.5,516C 163.066,519.479 149.899,523.979 137,529.5C 107.866,441.932 79.033,354.266 50.5,266.5C 63.1976,261.045 76.1976,256.378 89.5,252.5C 86.4823,240.431 83.149,228.431 79.5,216.5C 96.6889,209.075 114.022,201.908 131.5,195C 128.531,187.26 125.864,179.426 123.5,171.5C 137.215,167.373 150.882,163.04 164.5,158.5C 165.631,156.926 165.798,155.259 165,153.5C 161.486,142.763 158.653,132.096 156.5,121.5C 293.936,73.9286 435.269,47.9286 580.5,43.5 Z"/></g>
<g><path style="opacity:1" fill="#fbfbfb" d="M 651.5,99.5 C 651.783,100.289 652.283,100.956 653,101.5C 653.5,92.1726 653.666,82.8393 653.5,73.5C 657.5,73.5 661.5,73.5 665.5,73.5C 665.5,86.5 665.5,99.5 665.5,112.5C 659.158,112.666 652.825,112.5 646.5,112C 639.612,103.045 632.612,94.212 625.5,85.5C 625.44,84.9569 625.107,84.6236 624.5,84.5C 623.502,93.8096 623.168,103.143 623.5,112.5C 619.833,112.5 616.167,112.5 612.5,112.5C 612.5,99.5 612.5,86.5 612.5,73.5C 618.868,73.1703 625.202,73.5037 631.5,74.5C 638.221,82.8767 644.887,91.21 651.5,99.5 Z"/></g>
<g><path style="opacity:1" fill="#615f5f" d="M 653.5,73.5 C 653.666,82.8393 653.5,92.1726 653,101.5C 652.283,100.956 651.783,100.289 651.5,99.5C 652.167,90.8333 652.833,82.1667 653.5,73.5 Z"/></g>
<g><path style="opacity:1" fill="#f7f7f7" d="M 747.5,76.5 C 747.5,79.5 747.5,82.5 747.5,85.5C 742.833,85.5 738.167,85.5 733.5,85.5C 732.5,85.5 731.5,85.5 730.5,85.5C 730.291,95.172 729.958,104.839 729.5,114.5C 725.5,114.5 721.5,114.5 717.5,114.5C 717.553,104.488 717.887,94.4885 718.5,84.5C 713.167,84.5 707.833,84.5 702.5,84.5C 702.5,81.1667 702.5,77.8333 702.5,74.5C 717.542,74.4728 732.542,75.1395 747.5,76.5 Z"/></g>
<g><path style="opacity:1" fill="#f8f8f8" d="M 538.5,76.5 C 544.206,76.1712 549.872,76.5046 555.5,77.5C 563.23,89.2362 570.564,101.236 577.5,113.5C 573.205,114.661 568.871,114.828 564.5,114C 563.167,112 561.833,110 560.5,108C 552.486,107.667 544.486,108.001 536.5,109C 535.214,111.022 534.214,113.189 533.5,115.5C 529.167,116.833 524.833,116.833 520.5,115.5C 526.505,102.476 532.505,89.4755 538.5,76.5 Z"/></g>
<g><path style="opacity:1" fill="#f8f8f8" d="M 791.5,80.5 C 801.528,80.9419 811.528,81.7752 821.5,83C 830.324,83.1688 835.324,87.5021 836.5,96C 836.292,103.368 835.126,110.535 833,117.5C 828.641,121.912 823.307,123.578 817,122.5C 808.798,122.05 800.631,121.216 792.5,120C 786.765,119.228 783.265,116.062 782,110.5C 781.447,103.8 781.78,97.1331 783,90.5C 784.261,85.7452 787.095,82.4118 791.5,80.5 Z"/></g>
<g><path style="opacity:1" fill="#b3b1b2" d="M 625.5,85.5 C 624.833,94.5 624.167,103.5 623.5,112.5C 623.168,103.143 623.502,93.8096 624.5,84.5C 625.107,84.6236 625.44,84.9569 625.5,85.5 Z"/></g>
<g><path style="opacity:1" fill="#f8f8f8" d="M 433.5,85.5 C 436.5,85.5 439.5,85.5 442.5,85.5C 444.577,98.4522 446.244,111.452 447.5,124.5C 441.076,124.61 434.743,125.11 428.5,126C 420.349,118.683 412.349,111.183 404.5,103.5C 404.167,104.333 403.833,105.167 403.5,106C 405.12,114.126 406.453,122.293 407.5,130.5C 403.466,130.505 399.466,130.838 395.5,131.5C 393.786,119.29 391.786,107.124 389.5,95C 389.833,94.5 390.167,94 390.5,93.5C 396.37,91.5899 402.37,90.7566 408.5,91C 417,98.8333 425.5,106.667 434,114.5C 433.003,105.191 431.836,95.8579 430.5,86.5C 431.791,86.7373 432.791,86.404 433.5,85.5 Z"/></g>
<g><path style="opacity:1" fill="#505154" d="M 747.5,76.5 C 748.808,80.0187 748.808,83.6853 747.5,87.5C 742.701,86.8825 738.034,86.2159 733.5,85.5C 738.167,85.5 742.833,85.5 747.5,85.5C 747.5,82.5 747.5,79.5 747.5,76.5 Z"/></g>
<g><path style="opacity:1" fill="#142026" d="M 546.5,85.5 C 549.849,89.6764 552.849,94.1764 555.5,99C 550.845,99.4992 546.179,99.6658 541.5,99.5C 543.16,94.8438 544.826,90.1772 546.5,85.5 Z"/></g>
<g><path style="opacity:1" fill="#f8f8f8" d="M 876.5,91.5 C 882.888,91.846 889.222,92.6793 895.5,94C 901.207,104.581 907.04,115.081 913,125.5C 914.178,116.765 915.678,108.098 917.5,99.5C 921.425,99.0024 925.425,99.0024 929.5,99.5C 926.958,112.419 924.958,125.419 923.5,138.5C 917.125,137.565 910.791,136.399 904.5,135C 898.873,124.913 893.373,114.746 888,104.5C 885.385,113.278 883.552,122.278 882.5,131.5C 878.476,130.962 874.476,130.295 870.5,129.5C 872.717,116.866 874.717,104.199 876.5,91.5 Z"/></g>
<g><path style="opacity:1" fill="#0f1d25" d="M 797.5,91.5 C 805.612,91.6485 813.612,92.4819 821.5,94C 822,94.5 822.5,95 823,95.5C 823.985,100.689 823.485,105.689 821.5,110.5C 819.979,111.937 818.145,112.604 816,112.5C 809.491,111.74 802.991,110.906 796.5,110C 796,109.5 795.5,109 795,108.5C 794.333,104.167 794.333,99.8333 795,95.5C 795.662,94.0161 796.496,92.6828 797.5,91.5 Z"/></g>
<g><path style="opacity:1" fill="#f8f8f8" d="M 327.5,104.5 C 329.527,104.338 331.527,104.505 333.5,105C 343.02,115.686 352.354,126.519 361.5,137.5C 357.657,138.446 353.824,139.446 350,140.5C 347.888,139.392 346.054,137.892 344.5,136C 343.167,135.833 341.833,135.667 340.5,135.5C 333.459,136.678 326.459,138.011 319.5,139.5C 318.908,142.127 318.575,144.794 318.5,147.5C 314.167,148.167 309.833,148.833 305.5,149.5C 308.817,135.713 312.65,122.046 317,108.5C 320.415,106.644 323.915,105.311 327.5,104.5 Z"/></g>
<g><path style="opacity:1" fill="#f6f6f6" d="M 968.5,108.5 C 972.616,108.541 976.616,109.207 980.5,110.5C 978.089,122.886 975.423,135.219 972.5,147.5C 971.833,147.833 971.167,148.167 970.5,148.5C 967.18,147.703 963.846,147.036 960.5,146.5C 963.041,133.794 965.708,121.127 968.5,108.5 Z"/></g>
<g><path style="opacity:1" fill="#172329" d="M 326.5,115.5 C 330.497,118.971 334.163,122.804 337.5,127C 332.928,128.373 328.261,129.206 323.5,129.5C 323.869,124.691 324.869,120.024 326.5,115.5 Z"/></g>
<g><path style="opacity:1" fill="#f8f8f8" d="M 247.5,123.5 C 256.825,120.867 262.159,124.2 263.5,133.5C 260.115,133.846 256.782,134.512 253.5,135.5C 250.349,133.711 247.016,133.211 243.5,134C 239.877,135.156 236.211,136.156 232.5,137C 229.527,138.224 228.86,140.224 230.5,143C 238.566,141.986 246.566,140.32 254.5,138C 266.067,137.238 271.234,142.738 270,154.5C 269.215,156.286 268.049,157.786 266.5,159C 253.658,164.546 240.325,167.546 226.5,168C 223.277,165.414 221.943,162.248 222.5,158.5C 225.765,157.814 228.932,156.814 232,155.5C 233.235,157.563 235.069,158.563 237.5,158.5C 243.569,157.3 249.569,155.8 255.5,154C 258.591,150.133 257.591,148.3 252.5,148.5C 245.471,149.84 238.471,151.34 231.5,153C 228.5,153.667 225.5,153.667 222.5,153C 218.12,147.981 216.62,142.148 218,135.5C 219.938,132.894 222.438,131.061 225.5,130C 233.14,128.429 240.473,126.262 247.5,123.5 Z"/></g>
<g><path style="opacity:1" fill="#f8f8f8" d="M 1023.5,122.5 C 1036.03,124.169 1048.36,127.003 1060.5,131C 1067.45,133.967 1069.95,139.133 1068,146.5C 1066.14,151.761 1064.47,157.095 1063,162.5C 1062.22,164.286 1061.05,165.786 1059.5,167C 1054.95,168.545 1050.29,168.879 1045.5,168C 1037.12,165.822 1028.79,163.489 1020.5,161C 1014.42,159.017 1011.76,154.85 1012.5,148.5C 1013.24,141.213 1015.07,134.213 1018,127.5C 1019.73,125.598 1021.56,123.931 1023.5,122.5 Z"/></g>
<g><path style="opacity:1" fill="#fcfcfc" d="M 581.5,131.5 C 782.357,124.975 976.024,158.808 1162.5,233C 1162.96,233.414 1163.29,233.914 1163.5,234.5C 1159.38,246.343 1156.21,258.343 1154,270.5C 1166.33,275.333 1178.83,279.666 1191.5,283.5C 1168.97,352.427 1146.64,421.427 1124.5,490.5C 1111.46,486.875 1098.63,482.542 1086,477.5C 1085.05,477.905 1084.39,478.572 1084,479.5C 1080.2,489.425 1076.7,499.425 1073.5,509.5C 1026.37,490.4 978.369,473.566 929.5,459C 839.233,433.789 747.233,420.622 653.5,419.5C 641.833,419.667 630.167,419.833 618.5,420C 609.327,427.676 600.327,435.509 591.5,443.5C 607.646,462.814 623.979,481.98 640.5,501C 638.833,501.667 637.167,501.667 635.5,501C 611.459,494.656 587.459,488.656 563.5,483C 556.426,506.127 549.426,529.293 542.5,552.5C 533.205,530.262 523.538,508.262 513.5,486.5C 490.904,494.2 468.237,501.367 445.5,508C 459.167,487.667 472.833,467.333 486.5,447C 480.5,442.667 474.5,438.333 468.5,434C 465.167,433.333 461.833,433.333 458.5,434C 371.381,449.986 287.047,475.152 205.5,509.5C 202.3,499.425 198.8,489.425 195,479.5C 194.612,478.572 193.945,477.905 193,477.5C 180.243,482.141 167.41,486.474 154.5,490.5C 132.574,421.722 110.241,353.056 87.5,284.5C 99.6681,279.443 112.001,274.777 124.5,270.5C 124.833,269.833 125.167,269.167 125.5,268.5C 122.361,257.086 119.028,245.753 115.5,234.5C 115.709,233.914 116.043,233.414 116.5,233C 265.884,173.158 420.884,139.324 581.5,131.5 Z"/></g>
<g><path style="opacity:1" fill="#0f1e25" d="M 1029.5,134.5 C 1037.93,134.486 1045.93,136.319 1053.5,140C 1054.89,140.956 1055.56,142.289 1055.5,144C 1054.54,147.891 1053.37,151.725 1052,155.5C 1050.7,156.98 1049.03,157.646 1047,157.5C 1040.74,156.393 1034.57,154.893 1028.5,153C 1026.12,151.491 1025.12,149.325 1025.5,146.5C 1025.61,142.025 1026.95,138.025 1029.5,134.5 Z"/></g>
<g><path style="opacity:1" fill="#c4ced4" d="M 587.5,147.5 C 779.067,142.032 964.067,173.699 1142.5,242.5C 1142.83,243.167 1143.17,243.833 1143.5,244.5C 1140.4,256.068 1137.07,267.568 1133.5,279C 1134.44,280.477 1135.78,281.477 1137.5,282C 1148.76,286.141 1160.09,289.974 1171.5,293.5C 1152.29,352.619 1132.79,411.619 1113,470.5C 1100.68,465.504 1088.18,461.338 1075.5,458C 1071.63,468.46 1067.3,478.627 1062.5,488.5C 927.13,432.554 786.13,403.72 639.5,402C 643.5,398.667 647.5,395.333 651.5,392C 637.5,391.667 623.5,391.333 609.5,391C 612.35,388.318 615.016,385.484 617.5,382.5C 637.167,381.833 656.833,381.167 676.5,380.5C 695.587,347.329 714.42,313.995 733,280.5C 728.509,309.448 724.009,338.448 719.5,367.5C 743.191,371.038 766.858,374.705 790.5,378.5C 793.291,357.418 796.625,336.418 800.5,315.5C 815.224,317.676 829.89,320.176 844.5,323C 842.395,335.464 840.228,347.964 838,360.5C 837.333,366.167 837.333,371.833 838,377.5C 840.167,382.333 843.667,385.833 848.5,388C 875.105,394.879 901.772,401.546 928.5,408C 966.167,420.333 1003.83,432.667 1041.5,445C 1058.39,449.599 1071.22,444.432 1080,429.5C 1095.45,382.809 1110.29,335.976 1124.5,289C 1123.96,279.258 1119.96,271.258 1112.5,265C 1105.41,261.414 1098.07,258.414 1090.5,256C 1055.04,245.068 1019.7,233.735 984.5,222C 968.824,219.754 957.324,225.588 950,239.5C 936.465,280.438 923.132,321.438 910,362.5C 916.156,320.415 923.156,278.415 931,236.5C 933.074,219.133 925.907,207.633 909.5,202C 856.88,192.839 804.213,184.006 751.5,175.5C 749.228,188.133 747.061,200.8 745,213.5C 744.5,200.171 744.333,186.837 744.5,173.5C 724.257,173.173 704.091,173.507 684,174.5C 675.333,189.833 666.667,205.167 658,220.5C 657,229.833 656,239.167 655,248.5C 645.667,265.167 636.333,281.833 627,298.5C 623.77,300.691 620.27,301.024 616.5,299.5C 624,286.5 631.5,273.5 639,260.5C 639.5,231.502 639.667,202.502 639.5,173.5C 618.831,173.333 598.164,173.5 577.5,174C 568.873,189.42 560.373,204.92 552,220.5C 551.366,229.873 550.366,239.206 549,248.5C 546,253.833 543,259.167 540,264.5C 535.443,242.166 530.777,219.833 526,197.5C 518.7,183.599 507.2,177.766 491.5,180C 440.542,189.825 389.542,199.325 338.5,208.5C 347.997,258.165 357.164,307.832 366,357.5C 353.737,318.043 341.07,278.71 328,239.5C 319.913,225.21 307.747,219.71 291.5,223C 252.573,235.864 213.573,248.531 174.5,261C 158.956,268.252 152.456,280.419 155,297.5C 169.802,342.907 184.802,388.24 200,433.5C 207.694,444.428 218.194,448.928 231.5,447C 272.536,433.823 313.536,420.49 354.5,407C 362.592,402.672 368.259,396.172 371.5,387.5C 372.833,391.833 374.167,396.167 375.5,400.5C 398.352,395.37 421.352,391.037 444.5,387.5C 440.926,366.136 437.426,344.803 434,323.5C 460.692,317.954 487.526,312.954 514.5,308.5C 509.554,319.054 504.054,329.387 498,339.5C 498.258,360.178 499.091,380.844 500.5,401.5C 476.13,401.99 451.797,403.156 427.5,405C 434.5,410 441.5,415 448.5,420C 368.709,434.449 291.375,457.282 216.5,488.5C 211.701,478.627 207.368,468.46 203.5,458C 202.167,457.333 200.833,457.333 199.5,458C 187.727,462.089 176.06,466.256 164.5,470.5C 146.415,411.743 127.415,353.243 107.5,295C 119.832,289.439 132.498,284.439 145.5,280C 142.418,269.177 139.251,258.344 136,247.5C 135.202,245.741 135.369,244.074 136.5,242.5C 281.658,186.11 431.992,154.443 587.5,147.5 Z"/></g>
<g><path style="opacity:1" fill="#616263" d="M 586.5,190.5 C 598.655,189.505 610.989,189.171 623.5,189.5C 623.831,211.673 623.497,233.673 622.5,255.5C 622.5,233.833 622.5,212.167 622.5,190.5C 610.5,190.5 598.5,190.5 586.5,190.5 Z"/></g>
<g><path style="opacity:1" fill="#454547" d="M 693.5,190.5 C 704.988,189.505 716.655,189.172 728.5,189.5C 728.831,212.006 728.497,234.34 727.5,256.5C 727.5,234.5 727.5,212.5 727.5,190.5C 716.167,190.5 704.833,190.5 693.5,190.5 Z"/></g>
<g><path style="opacity:1" fill="#0d1c24" d="M 586.5,190.5 C 598.5,190.5 610.5,190.5 622.5,190.5C 622.5,212.167 622.5,233.833 622.5,255.5C 611.512,275.473 600.512,295.473 589.5,315.5C 588.957,315.56 588.624,315.893 588.5,316.5C 603.995,317.826 619.328,317.826 634.5,316.5C 646.559,296.059 658.392,275.392 670,254.5C 671.169,244.478 672.503,234.478 674,224.5C 680.728,213.278 687.228,201.945 693.5,190.5C 704.833,190.5 716.167,190.5 727.5,190.5C 727.5,212.5 727.5,234.5 727.5,256.5C 707.524,292.446 687.524,328.446 667.5,364.5C 648.509,365.333 629.509,365.833 610.5,366C 597.353,381.315 584.019,396.482 570.5,411.5C 571.833,411.833 573.167,412.167 574.5,412.5C 585.477,411.224 596.477,410.724 607.5,411C 595.167,421.333 582.833,431.667 570.5,442C 580.5,453.333 590.5,464.667 600.5,476C 584.794,472.823 569.127,469.49 553.5,466C 549.006,480.817 544.506,495.65 540,510.5C 534.197,496.917 528.697,483.251 523.5,469.5C 509.142,472.619 495.142,476.952 481.5,482.5C 480.479,481.998 480.312,481.332 481,480.5C 489.544,468.575 497.711,456.409 505.5,444C 505.241,442.739 504.574,441.739 503.5,441C 492.319,433.304 481.319,425.47 470.5,417.5C 485.833,417.167 501.167,416.833 516.5,416.5C 516.802,413.941 516.468,411.607 515.5,409.5C 514.285,397.162 513.452,384.829 513,372.5C 521.678,382.011 530.512,391.344 539.5,400.5C 544.367,389.228 549.034,377.895 553.5,366.5C 554.043,366.44 554.376,366.107 554.5,365.5C 543.854,364.501 533.187,364.168 522.5,364.5C 518.807,357.139 516.307,349.473 515,341.5C 531.587,312.662 547.92,283.662 564,254.5C 565.333,244.504 566.666,234.504 568,224.5C 574.433,213.3 580.6,201.966 586.5,190.5 Z"/></g>
<g><path style="opacity:1" fill="#0c1c23" d="M 764.5,193.5 C 810.82,201.331 857.153,209.164 903.5,217C 913.644,220.108 917.477,226.941 915,237.5C 912.098,256.247 908.764,274.914 905,293.5C 903.019,296.745 900.186,298.911 896.5,300C 900.607,302.55 902.607,306.217 902.5,311C 899.413,329.847 896.247,348.68 893,367.5C 892.207,371.423 892.374,375.256 893.5,379C 881.017,378.171 868.683,376.171 856.5,373C 853.64,369.319 852.807,365.152 854,360.5C 856.965,345.412 859.465,330.245 861.5,315C 861.456,313.236 861.122,311.569 860.5,310C 836.224,305.27 811.891,300.77 787.5,296.5C 784.002,317.485 780.502,338.485 777,359.5C 776.586,359.957 776.086,360.291 775.5,360.5C 763.22,358.12 750.887,355.953 738.5,354C 737.978,353.439 737.645,352.772 737.5,352C 746.879,299.227 755.879,246.393 764.5,193.5 Z"/></g>
<g><path style="opacity:1" fill="#0c1c23" d="M 493.5,195.5 C 502.222,194.275 508.388,197.609 512,205.5C 516.441,227.81 520.774,250.144 525,272.5C 527.097,282.145 523.597,288.645 514.5,292C 481.126,298.062 447.793,304.229 414.5,310.5C 418.684,331.752 422.351,353.085 425.5,374.5C 413.406,376.319 401.406,378.652 389.5,381.5C 388.558,381.392 387.725,381.059 387,380.5C 376.714,327.572 366.881,274.572 357.5,221.5C 403.023,213.194 448.357,204.528 493.5,195.5 Z"/></g>
<g><path style="opacity:1" fill="#c0cbd1" d="M 592.5,199.5 C 598.206,199.171 603.872,199.505 609.5,200.5C 606.215,207.572 602.548,214.405 598.5,221C 592.5,221.667 586.5,221.667 580.5,221C 584.639,213.887 588.639,206.72 592.5,199.5 Z"/></g>
<g><path style="opacity:1" fill="#c0cad0" d="M 698.5,199.5 C 703.875,199.172 709.208,199.505 714.5,200.5C 710.833,207.167 707.167,213.833 703.5,220.5C 697.863,221.663 692.196,221.83 686.5,221C 690.639,213.887 694.639,206.72 698.5,199.5 Z"/></g>
<g><path style="opacity:1" fill="#bfc9cf" d="M 577.5,230.5 C 582.833,230.5 588.167,230.5 593.5,230.5C 593.443,236.851 593.11,243.185 592.5,249.5C 587.167,249.5 581.833,249.5 576.5,249.5C 577.11,243.185 577.443,236.851 577.5,230.5 Z"/></g>
<g><path style="opacity:1" fill="#bcc7cd" d="M 683.5,230.5 C 688.833,230.5 694.167,230.5 699.5,230.5C 698.89,236.815 698.557,243.149 698.5,249.5C 692.833,249.5 687.167,249.5 681.5,249.5C 681.875,243.128 682.541,236.795 683.5,230.5 Z"/></g>
<g><path style="opacity:1" fill="#fbfbfb" d="M 797.5,234.5 C 821.464,238.772 845.464,242.938 869.5,247C 871.124,248.117 872.124,249.617 872.5,251.5C 871.442,258.183 870.275,264.85 869,271.5C 868.5,272 868,272.5 867.5,273C 864.167,273.667 860.833,273.667 857.5,273C 836.544,269.175 815.544,265.675 794.5,262.5C 795.5,253.167 796.5,243.833 797.5,234.5 Z"/></g>
<g><path style="opacity:1" fill="#fbfbfc" d="M 467.5,236.5 C 470.518,236.335 473.518,236.502 476.5,237C 477,237.5 477.5,238 478,238.5C 479.328,244.635 480.495,250.801 481.5,257C 481.646,259.034 480.98,260.701 479.5,262C 455.864,266.894 432.198,271.727 408.5,276.5C 406.097,267.725 404.097,258.891 402.5,250C 424.137,244.842 445.804,240.342 467.5,236.5 Z"/></g>
<g><path style="opacity:1" fill="#0b1b23" d="M 973.5,237.5 C 976.518,237.335 979.518,237.502 982.5,238C 1021.43,250.864 1060.43,263.531 1099.5,276C 1104.65,278.642 1107.65,282.809 1108.5,288.5C 1105.26,302.049 1100.76,315.049 1095,327.5C 1082.59,323.918 1070.42,319.752 1058.5,315C 1059.83,311.684 1061.16,308.35 1062.5,305C 1062.01,303.018 1061.01,301.351 1059.5,300C 1038.92,293.025 1018.25,286.691 997.5,281C 996.069,281.465 994.903,282.299 994,283.5C 991.861,289.415 990.028,295.415 988.5,301.5C 988.406,303.912 989.406,305.745 991.5,307C 1021.9,316.799 1052.23,326.799 1082.5,337C 1087.9,341.295 1089.73,346.795 1088,353.5C 1080.4,377.648 1072.4,401.648 1064,425.5C 1059.43,430.15 1053.93,431.65 1047.5,430C 1007.35,417.062 967.352,403.729 927.5,390C 922.913,385.772 921.413,380.606 923,374.5C 926.44,362.847 930.273,351.347 934.5,340C 935.833,339.333 937.167,339.333 938.5,340C 949.426,343.809 960.426,347.309 971.5,350.5C 970.917,354.586 969.917,358.586 968.5,362.5C 968.848,364.697 969.848,366.53 971.5,368C 991.52,374.395 1011.52,380.895 1031.5,387.5C 1034.17,387.255 1036,385.921 1037,383.5C 1038.83,377.331 1040.67,371.164 1042.5,365C 1042.36,362.849 1041.36,361.182 1039.5,360C 1009.82,350.33 980.156,340.663 950.5,331C 943.46,326.745 940.96,320.578 943,312.5C 950.132,290.104 957.465,267.771 965,245.5C 967.074,241.923 969.907,239.256 973.5,237.5 Z"/></g>
<g><path style="opacity:1" fill="#0b1b23" d="M 297.5,237.5 C 303.194,237.453 308.027,239.453 312,243.5C 317.25,256.172 321.417,269.172 324.5,282.5C 312.168,285.999 300.002,289.999 288,294.5C 286.47,290.91 285.136,287.243 284,283.5C 281.421,281.653 278.588,281.153 275.5,282C 257.214,288.155 238.881,294.155 220.5,300C 216.787,301.691 215.621,304.525 217,308.5C 218.803,314.242 220.803,319.909 223,325.5C 224.231,326.108 225.564,326.441 227,326.5C 256.935,317.411 286.768,307.911 316.5,298C 323.97,296.985 329.47,299.819 333,306.5C 340.488,328.785 347.821,351.119 355,373.5C 357.443,382.436 354.61,388.936 346.5,393C 307.427,405.469 268.427,418.136 229.5,431C 223.184,432.426 218.017,430.593 214,425.5C 209.405,412.548 204.905,399.548 200.5,386.5C 212.297,381.901 224.297,377.901 236.5,374.5C 237.442,374.608 238.275,374.941 239,375.5C 239.727,379.689 241.227,383.522 243.5,387C 245.833,387.667 248.167,387.667 250.5,387C 268.782,380.795 287.115,374.795 305.5,369C 309.292,366.947 310.458,363.781 309,359.5C 307.393,354.012 305.393,348.678 303,343.5C 301.687,342.427 300.187,341.76 298.5,341.5C 269.136,350.899 239.802,360.399 210.5,370C 202.809,371.736 196.976,369.236 193,362.5C 185.667,339.833 178.333,317.167 171,294.5C 168.732,285.535 171.899,279.369 180.5,276C 219.645,263.229 258.645,250.396 297.5,237.5 Z"/></g>
<g><path style="opacity:1" fill="#c5cfd4" d="M 462.5,246.5 C 464.5,246.5 466.5,246.5 468.5,246.5C 469.159,249.455 469.492,252.455 469.5,255.5C 450.882,259.269 432.215,262.603 413.5,265.5C 413.296,262.482 412.963,259.482 412.5,256.5C 429.323,253.321 445.989,249.987 462.5,246.5 Z"/></g>
<g><path style="opacity:1" fill="#c5cfd5" d="M 803.5,246.5 C 821.845,249.113 840.179,251.946 858.5,255C 859.428,255.388 860.095,256.055 860.5,257C 859.678,259.434 859.344,261.934 859.5,264.5C 840.827,261.777 822.161,258.944 803.5,256C 802.862,252.929 802.862,249.763 803.5,246.5 Z"/></g>
<g><path style="opacity:1" fill="#c0cad0" d="M 562.5,424.5 C 566.042,424.187 569.375,424.521 572.5,425.5C 566.686,430.147 561.019,434.98 555.5,440C 559.775,445.947 564.442,451.613 569.5,457C 561.494,455.835 553.494,454.335 545.5,452.5C 543.645,460.236 541.478,467.902 539,475.5C 536.442,468.718 533.609,462.051 530.5,455.5C 529.833,455.167 529.167,454.833 528.5,454.5C 521.89,456.875 515.223,458.708 508.5,460C 512.833,453.667 517.167,447.333 521.5,441C 515.345,436.089 509.011,431.423 502.5,427C 510.493,426.5 518.493,426.334 526.5,426.5C 525.939,419.499 525.772,412.499 526,405.5C 531.367,410.532 536.367,415.865 541,421.5C 552.848,394.474 564.681,367.474 576.5,340.5C 577.043,340.44 577.376,340.107 577.5,339.5C 561.18,338.501 544.847,338.167 528.5,338.5C 543.028,312.613 557.695,286.779 572.5,261C 578.167,260.333 583.833,260.333 589.5,261C 577.373,282.085 565.373,303.252 553.5,324.5C 582.828,325.667 612.161,325.833 641.5,325C 653.627,303.915 665.627,282.748 677.5,261.5C 683.472,260.336 689.472,260.17 695.5,261C 680.58,286.838 665.913,312.838 651.5,339C 634.593,339.174 617.759,339.674 601,340.5C 582.748,368.671 564.248,396.671 545.5,424.5C 551.085,424.791 556.752,424.791 562.5,424.5 Z"/></g>
<g><path style="opacity:1" fill="#c5cfd5" d="M 1002.5,291.5 C 1019.33,296.222 1036,301.555 1052.5,307.5C 1052.83,308 1053.17,308.5 1053.5,309C 1052.52,311.433 1051.85,313.933 1051.5,316.5C 1034.75,311.646 1018.09,306.479 1001.5,301C 1000.94,300.275 1000.61,299.442 1000.5,298.5C 1001.17,296.149 1001.84,293.816 1002.5,291.5 Z"/></g>
<g><path style="opacity:1" fill="#c5cfd5" d="M 274.5,292.5 C 276.144,292.286 277.644,292.62 279,293.5C 279.735,295.871 280.568,298.205 281.5,300.5C 264.466,307.092 247.132,312.758 229.5,317.5C 229.538,314.819 228.871,312.319 227.5,310C 227.645,309.228 227.978,308.561 228.5,308C 244.116,303.295 259.45,298.128 274.5,292.5 Z"/></g>
<g><path style="opacity:1" fill="#585859" d="M 589.5,315.5 C 604.324,316.496 619.324,316.829 634.5,316.5C 619.328,317.826 603.995,317.826 588.5,316.5C 588.624,315.893 588.957,315.56 589.5,315.5 Z"/></g>
<g><path style="opacity:1" fill="#7a878d" d="M 528.5,338.5 C 544.847,338.167 561.18,338.501 577.5,339.5C 577.376,340.107 577.043,340.44 576.5,340.5C 560.5,339.833 544.5,339.167 528.5,338.5 Z"/></g>
<g><path style="opacity:1" fill="#c5cfd5" d="M 982.5,350.5 C 1000.02,355.591 1017.35,361.258 1034.5,367.5C 1033.16,370.51 1031.83,373.51 1030.5,376.5C 1014.23,370.908 997.892,365.408 981.5,360C 980.978,359.439 980.645,358.772 980.5,358C 981.479,355.567 982.145,353.067 982.5,350.5 Z"/></g>
<g><path style="opacity:1" fill="#c6cfd5" d="M 294.5,351.5 C 298.543,351.849 300.543,354.182 300.5,358.5C 300.392,359.442 300.059,360.275 299.5,361C 283.097,366.412 266.763,371.912 250.5,377.5C 248.327,374.355 247.66,371.021 248.5,367.5C 264.123,362.673 279.457,357.339 294.5,351.5 Z"/></g>
<g><path style="opacity:1" fill="#464547" d="M 522.5,364.5 C 533.187,364.168 543.854,364.501 554.5,365.5C 554.376,366.107 554.043,366.44 553.5,366.5C 543.167,365.833 532.833,365.167 522.5,364.5 Z"/></g>
<g><path style="opacity:1" fill="#2e3134" d="M 515.5,409.5 C 516.468,411.607 516.802,413.941 516.5,416.5C 501.167,416.833 485.833,417.167 470.5,417.5C 484.741,416.06 499.741,415.393 515.5,415.5C 515.5,413.5 515.5,411.5 515.5,409.5 Z"/></g>
<g><path style="opacity:1" fill="#68767c" d="M 562.5,424.5 C 566.311,423.355 570.311,423.188 574.5,424C 573.956,424.717 573.289,425.217 572.5,425.5C 569.375,424.521 566.042,424.187 562.5,424.5 Z"/></g>
<g><path style="opacity:1" fill="#112129" d="M 533.5,432.5 C 541.571,433.093 543.571,436.926 539.5,444C 532,445.833 529.167,443 531,435.5C 532.045,434.627 532.878,433.627 533.5,432.5 Z"/></g>
</svg>
