<?xml version="1.0" encoding="UTF-8"?>
<!DOCTYPE svg PUBLIC "-//W3C//DTD SVG 1.1//EN" "http://www.w3.org/Graphics/SVG/1.1/DTD/svg11.dtd">
<svg xmlns="http://www.w3.org/2000/svg" version="1.1" width="447px" height="447px" style="shape-rendering:geometricPrecision; text-rendering:geometricPrecision; image-rendering:optimizeQuality; fill-rule:evenodd; clip-rule:evenodd" xmlns:xlink="http://www.w3.org/1999/xlink">
<g><path style="opacity:0.975" fill="#c00d2d" d="M 202.5,-0.5 C 216.167,-0.5 229.833,-0.5 243.5,-0.5C 324.124,9.71815 383.957,50.3848 423,121.5C 435.675,147.22 443.509,174.22 446.5,202.5C 446.5,216.167 446.5,229.833 446.5,243.5C 436.282,324.124 395.615,383.957 324.5,423C 298.78,435.675 271.78,443.509 243.5,446.5C 229.833,446.5 216.167,446.5 202.5,446.5C 121.876,436.282 62.0429,395.615 23,324.5C 10.3245,298.78 2.4912,271.78 -0.5,243.5C -0.5,229.833 -0.5,216.167 -0.5,202.5C 9.71815,121.876 50.3848,62.0429 121.5,23C 147.22,10.3245 174.22,2.4912 202.5,-0.5 Z"/></g>
<g><path style="opacity:1" fill="#020101" d="M 203.5,11.5 C 285.699,7.5229 350.866,38.5229 399,104.5C 439.695,169.29 445.695,237.29 417,308.5C 383.635,378.125 328.802,419.625 252.5,433C 159.617,441.641 88.4504,406.808 39,328.5C 10.6185,276.51 3.95179,221.844 19,164.5C 42.8333,91.3333 91.3333,42.8333 164.5,19C 177.558,16.0494 190.558,13.5494 203.5,11.5 Z"/></g>
<g><path style="opacity:1" fill="#fbfbfb" d="M 214.5,29.5 C 222.174,29.3336 229.841,29.5003 237.5,30C 239.333,31.8333 241.167,33.6667 243,35.5C 243.667,49.8333 243.667,64.1667 243,78.5C 241.167,80.3333 239.333,82.1667 237.5,84C 229.833,84.6667 222.167,84.6667 214.5,84C 212.667,82.1667 210.833,80.3333 209,78.5C 208.333,64.1667 208.333,49.8333 209,35.5C 211.04,33.6298 212.873,31.6298 214.5,29.5 Z"/></g>
<g><path style="opacity:1" fill="#f9f9f9" d="M 297.5,43.5 C 297.168,53.8548 297.501,64.1881 298.5,74.5C 299.107,74.3764 299.44,74.0431 299.5,73.5C 302.453,64.9277 305.953,56.5944 310,48.5C 313.372,49.7695 316.539,51.4361 319.5,53.5C 313.057,68.0516 306.891,82.7182 301,97.5C 300.152,99.8743 298.819,101.874 297,103.5C 294.38,102.794 291.88,101.794 289.5,100.5C 288.17,91.214 287.503,81.8807 287.5,72.5C 287.813,69.7531 287.48,67.0865 286.5,64.5C 285.702,64.9569 285.369,65.6236 285.5,66.5C 281.846,75.1453 278.179,83.8119 274.5,92.5C 273.635,93.5827 272.635,93.7494 271.5,93C 268.784,92.2176 266.45,90.8843 264.5,89C 271.55,72.0085 278.883,55.1751 286.5,38.5C 290.112,40.367 293.779,42.0337 297.5,43.5 Z"/></g>
<g><path style="opacity:1" fill="#f8f8f8" d="M 156.5,41.5 C 161.075,42.2059 165.241,43.8726 169,46.5C 171.305,52.4154 173.805,58.2487 176.5,64C 175.263,67.0983 174.763,70.265 175,73.5C 179.833,78.3333 184.667,83.1667 189.5,88C 186.018,89.8303 182.518,91.6636 179,93.5C 174.281,88.2785 169.115,83.6118 163.5,79.5C 161.77,80.0256 160.436,81.0256 159.5,82.5C 161.705,87.7413 164.038,92.9079 166.5,98C 163.667,99.7812 160.667,101.281 157.5,102.5C 155.854,101.221 154.687,99.5547 154,97.5C 147.5,82.5 141,67.5 134.5,52.5C 141.653,48.4505 148.986,44.7838 156.5,41.5 Z"/></g>
<g><path style="opacity:1" fill="#0c0c0c" d="M 221.5,41.5 C 224.518,41.3354 227.518,41.502 230.5,42C 231,42.5 231.5,43 232,43.5C 232.667,52.5 232.667,61.5 232,70.5C 228.558,72.7334 224.892,73.0668 221,71.5C 220.193,61.4229 220.36,51.4229 221.5,41.5 Z"/></g>
<g><path style="opacity:1" fill="#0c0c0c" d="M 156.5,54.5 C 160.801,55.5525 163.135,58.3859 163.5,63C 163.241,64.2613 162.574,65.2613 161.5,66C 158.898,66.9771 156.398,68.1437 154,69.5C 152.403,66.2086 150.903,62.8752 149.5,59.5C 151.687,57.5784 154.02,55.9117 156.5,54.5 Z"/></g>
<g><path style="opacity:1" fill="#bcbcbc" d="M 297.5,43.5 C 298.167,53.5 298.833,63.5 299.5,73.5C 299.44,74.0431 299.107,74.3764 298.5,74.5C 297.501,64.1881 297.168,53.8548 297.5,43.5 Z"/></g>
<g><path style="opacity:1" fill="#666666" d="M 287.5,72.5 C 286.833,70.5 286.167,68.5 285.5,66.5C 285.369,65.6236 285.702,64.9569 286.5,64.5C 287.48,67.0865 287.813,69.7531 287.5,72.5 Z"/></g>
<g><path style="opacity:1" fill="#f8f8f8" d="M 348.5,71.5 C 356.479,78.8123 364.146,86.479 371.5,94.5C 369.167,97.5 366.5,100.167 363.5,102.5C 360.849,100.35 358.349,98.0168 356,95.5C 346.349,106.318 336.182,116.651 325.5,126.5C 322.5,124.167 319.833,121.5 317.5,118.5C 327.152,108.347 336.986,98.3475 347,88.5C 345.763,85.224 343.597,82.3906 340.5,80C 343.371,77.2972 346.038,74.4639 348.5,71.5 Z"/></g>
<g><path style="opacity:1" fill="#f9f9f9" d="M 94.5,79.5 C 98.1817,79.3347 101.848,79.5014 105.5,80C 114.681,89.3477 124.014,98.5144 133.5,107.5C 134.66,111.459 134.827,115.459 134,119.5C 129.5,124 125,128.5 120.5,133C 116.5,133.667 112.5,133.667 108.5,133C 99.637,123.803 90.4703,114.969 81,106.5C 80.3333,102.167 80.3333,97.8333 81,93.5C 85.7033,88.9645 90.2033,84.2979 94.5,79.5 Z"/></g>
<g><path style="opacity:1" fill="#070707" d="M 97.5,93.5 C 99.1992,93.3398 100.866,93.5065 102.5,94C 108.364,100.199 114.531,106.032 121,111.5C 121.387,115.165 119.887,117.998 116.5,120C 115.167,120.667 113.833,120.667 112.5,120C 106.636,113.801 100.469,107.968 94,102.5C 93.3333,101.167 93.3333,99.8333 94,98.5C 95.6692,97.1537 96.8358,95.487 97.5,93.5 Z"/></g>
<g><path style="opacity:1" fill="#9e9ea1" d="M 210.5,103.5 C 239.128,102.898 262.628,113.565 281,135.5C 284.667,140.5 288.333,145.5 292,150.5C 293.009,152.025 293.509,153.692 293.5,155.5C 285.995,156.012 278.661,155.178 271.5,153C 269.697,152.363 268.364,151.197 267.5,149.5C 265.228,148.515 262.895,147.681 260.5,147C 255.157,140.269 248.324,137.436 240,138.5C 234.539,136.571 229.373,134.071 224.5,131C 218.833,130.667 213.167,130.333 207.5,130C 205.833,128.333 204.167,126.667 202.5,125C 193.499,123.929 184.499,123.263 175.5,123C 165.83,126.686 156.164,130.019 146.5,133C 165.082,116.871 186.415,107.038 210.5,103.5 Z"/></g>
<g><path style="opacity:1" fill="#9b9b9e" d="M 246.5,105.5 C 260.805,107.552 274.471,112.385 287.5,120C 297.261,125.936 305.928,133.102 313.5,141.5C 310.979,148.208 306.313,152.041 299.5,153C 289.973,136.471 277.306,122.804 261.5,112C 256.594,109.534 251.594,107.368 246.5,105.5 Z"/></g>
<g><path style="opacity:1" fill="#f9f9f9" d="M 383.5,124.5 C 388.12,125.094 392.287,126.761 396,129.5C 398.503,135.172 401.003,140.838 403.5,146.5C 402.631,149.941 401.464,153.274 400,156.5C 388.576,162.128 377.076,167.628 365.5,173C 361.598,173.738 357.932,173.072 354.5,171C 350.635,164.935 347.301,158.602 344.5,152C 345.47,148.756 346.637,145.59 348,142.5C 359.848,136.327 371.681,130.327 383.5,124.5 Z"/></g>
<g><path style="opacity:1" fill="#f8f8f8" d="M 54.5,129.5 C 58.6953,130.76 62.362,132.76 65.5,135.5C 64.6414,138.051 63.6414,140.551 62.5,143C 62.8333,143.5 63.1667,144 63.5,144.5C 76.0747,150.038 88.5747,155.705 101,161.5C 100.573,165.381 99.2401,169.047 97,172.5C 83.9082,166.371 70.7415,160.371 57.5,154.5C 56.091,157.652 54.4243,160.652 52.5,163.5C 49.5,162.167 46.5,160.833 43.5,159.5C 42.4173,158.635 42.2506,157.635 43,156.5C 47.3294,147.668 51.1627,138.668 54.5,129.5 Z"/></g>
<g><path style="opacity:1" fill="#080808" d="M 381.5,138.5 C 385.73,137.563 388.23,139.229 389,143.5C 389.667,145.167 389.667,146.833 389,148.5C 380.787,152.356 372.621,156.356 364.5,160.5C 360.824,158.147 358.991,154.813 359,150.5C 366.609,146.613 374.109,142.613 381.5,138.5 Z"/></g>
<g><path style="opacity:1" fill="#9e9ea1" d="M 316.5,145.5 C 317.496,145.414 318.329,145.748 319,146.5C 329.068,159.254 336.568,173.42 341.5,189C 341.167,189.5 340.833,190 340.5,190.5C 331.478,187.097 322.145,185.764 312.5,186.5C 310.507,177.189 307.507,168.189 303.5,159.5C 306.826,156.402 310.326,153.402 314,150.5C 315.094,148.922 315.928,147.255 316.5,145.5 Z"/></g>
<g><path style="opacity:1" fill="#9f9fa2" d="M 222.5,147.5 C 231.936,147.372 241.27,148.205 250.5,150C 252.539,152.374 254.872,154.374 257.5,156C 264.696,156.287 271.696,157.62 278.5,160C 284.833,160.333 291.167,160.667 297.5,161C 302.121,169.364 305.454,178.198 307.5,187.5C 294.066,190.209 280.732,189.876 267.5,186.5C 263.745,187.652 260.078,187.318 256.5,185.5C 249.948,187.443 243.614,189.943 237.5,193C 229.639,193.972 221.972,193.472 214.5,191.5C 212.772,191.59 211.106,191.923 209.5,192.5C 205.307,190.226 200.973,190.059 196.5,192C 192.2,195.298 188.2,198.965 184.5,203C 177.5,203.333 170.5,203.667 163.5,204C 157.029,208.804 149.695,211.304 141.5,211.5C 140.687,212.814 139.687,213.981 138.5,215C 134.281,215.173 130.281,216.173 126.5,218C 119.635,224.531 113.135,231.364 107,238.5C 105.546,230.214 105.213,221.881 106,213.5C 107.245,207.211 108.245,200.878 109,194.5C 110.115,191.105 111.615,187.939 113.5,185C 123,178.167 132.5,171.333 142,164.5C 148.793,164.993 155.626,165.326 162.5,165.5C 167.148,162.835 171.481,159.668 175.5,156C 182.833,155.667 190.167,155.333 197.5,155C 201.165,153.503 204.498,151.503 207.5,149C 212.684,148.826 217.684,148.326 222.5,147.5 Z"/></g>
<g><path style="opacity:1" fill="#9d9da0" d="M 314.5,192.5 C 324.359,191.635 333.859,192.968 343,196.5C 347.209,211.067 347.543,225.733 344,240.5C 337.44,231.88 328.773,226.547 318,224.5C 318.093,213.66 316.927,202.994 314.5,192.5 Z"/></g>
<g><path style="opacity:1" fill="#9f9fa2" d="M 304.5,192.5 C 307.86,191.79 309.693,193.124 310,196.5C 312.023,206.062 312.857,215.729 312.5,225.5C 309.482,225.335 306.482,225.502 303.5,226C 292.844,229.754 282.178,233.088 271.5,236C 270.5,237.667 269.5,239.333 268.5,241C 261.332,242.597 254.332,244.597 247.5,247C 245.314,248.512 243.647,250.512 242.5,253C 236.046,255.727 229.712,258.727 223.5,262C 220.627,265.577 218.127,269.411 216,273.5C 211.177,274.97 209.177,278.303 210,283.5C 201.554,289.776 194.721,297.443 189.5,306.5C 182.554,306.9 175.887,308.4 169.5,311C 164.631,310.768 159.798,310.934 155,311.5C 149.542,309.52 144.042,307.687 138.5,306C 132.589,299.257 127.255,292.09 122.5,284.5C 123.648,282.851 124.981,281.351 126.5,280C 129.882,279.824 133.215,279.324 136.5,278.5C 138.569,273.127 140.736,267.793 143,262.5C 148.5,258.333 154,254.167 159.5,250C 162.377,248.873 165.377,248.206 168.5,248C 170.213,246.622 171.547,244.955 172.5,243C 181.835,244.08 190.169,241.746 197.5,236C 201.114,235.055 204.781,234.388 208.5,234C 214.167,227.667 219.833,221.333 225.5,215C 235.303,215.263 243.637,211.929 250.5,205C 253.576,204.654 256.576,203.988 259.5,203C 261.657,201.088 263.991,199.421 266.5,198C 272.5,197.667 278.5,197.333 284.5,197C 291.065,194.406 297.731,192.906 304.5,192.5 Z"/></g>
<g><path style="opacity:1" fill="#9f9fa2" d="M 306.5,230.5 C 308.5,230.5 310.5,230.5 312.5,230.5C 311.923,270.14 296.923,302.973 267.5,329C 249.936,341.391 230.603,345.558 209.5,341.5C 213.065,338.54 217.065,336.54 221.5,335.5C 221.34,333.801 221.506,332.134 222,330.5C 223.667,329.5 225.333,328.5 227,327.5C 230.667,322.167 234.333,316.833 238,311.5C 239,309.5 240,307.5 241,305.5C 241.447,300.328 242.613,295.328 244.5,290.5C 246.67,288.914 249.004,287.58 251.5,286.5C 253.311,277.928 255.811,269.594 259,261.5C 262.833,259 266.667,256.5 270.5,254C 273.572,251.191 275.905,247.858 277.5,244C 281.486,243.515 284.819,241.848 287.5,239C 293.697,235.562 300.031,232.729 306.5,230.5 Z"/></g>
<g><path style="opacity:1" fill="#9d9da0" d="M 318.5,230.5 C 329.295,232.474 337.462,238.141 343,247.5C 335.529,281.987 316.695,308.487 286.5,327C 280.173,330.841 273.506,333.508 266.5,335C 282.956,323.54 295.456,308.707 304,290.5C 312.592,271.368 317.425,251.368 318.5,230.5 Z"/></g>
<g><path style="opacity:1" fill="#f9f9f9" d="M 93.5,272.5 C 94.4959,272.414 95.3292,272.748 96,273.5C 99.0785,279.991 102.412,286.325 106,292.5C 106.611,296.682 105.944,300.682 104,304.5C 98.9083,308.298 93.4083,311.465 87.5,314C 83.4522,314.434 79.4522,314.434 75.5,314C 71.118,319.26 66.618,324.427 62,329.5C 59.4669,325.797 58.1335,321.797 58,317.5C 62.604,312.939 66.2707,307.939 69,302.5C 68.221,301.272 67.221,300.272 66,299.5C 61.0158,302.159 56.0158,304.826 51,307.5C 49.0404,304.415 47.2071,301.248 45.5,298C 61.4031,289.216 77.4031,280.716 93.5,272.5 Z"/></g>
<g><path style="opacity:1" fill="#f9f9f9" d="M 361.5,272.5 C 365.187,273.176 368.52,274.676 371.5,277C 369.539,280.421 367.706,283.921 366,287.5C 364.915,286.707 363.748,286.04 362.5,285.5C 360.114,288.592 358.614,291.925 358,295.5C 359.41,296.787 360.91,297.954 362.5,299C 364.076,299.388 365.409,298.888 366.5,297.5C 368.754,293.993 370.754,290.327 372.5,286.5C 376.509,283.951 380.842,283.118 385.5,284C 390.326,286.246 394.992,288.746 399.5,291.5C 401.899,295.191 402.732,299.191 402,303.5C 399.294,309.078 396.461,314.578 393.5,320C 390.331,320.834 387.164,321.668 384,322.5C 380.644,321.906 377.811,320.406 375.5,318C 376.697,315.106 378.03,312.273 379.5,309.5C 381.5,309.167 383.5,308.833 385.5,308.5C 388.048,305.451 388.714,302.117 387.5,298.5C 384.869,296.092 382.369,296.092 380,298.5C 378.294,302.079 376.461,305.579 374.5,309C 371.274,310.464 367.941,311.631 364.5,312.5C 358.312,310.156 352.478,307.156 347,303.5C 345.36,299.62 344.693,295.62 345,291.5C 347.412,286.341 350.079,281.341 353,276.5C 355.682,274.671 358.516,273.337 361.5,272.5 Z"/></g>
<g><path style="opacity:1" fill="#0d0d0d" d="M 87.5,287.5 C 88.4959,287.414 89.3292,287.748 90,288.5C 95.6773,295.131 94.344,299.465 86,301.5C 84.2894,301.561 82.956,300.894 82,299.5C 80.9605,297.254 79.7938,295.087 78.5,293C 81.6717,291.303 84.6717,289.47 87.5,287.5 Z"/></g>
<g><path style="opacity:1" fill="#f8f8f8" d="M 323.5,320.5 C 327.182,320.335 330.848,320.501 334.5,321C 339,326.167 343.5,331.333 348,336.5C 348.176,339.882 348.676,343.215 349.5,346.5C 355.5,349.833 361.5,353.167 367.5,356.5C 364.744,359.427 361.578,361.76 358,363.5C 352.772,361.136 347.606,358.636 342.5,356C 339,355.5 337.5,357 338,360.5C 341.314,364.648 344.814,368.648 348.5,372.5C 345.859,374.804 343.192,377.138 340.5,379.5C 328.155,365.82 316.155,351.82 304.5,337.5C 310.555,331.44 316.889,325.774 323.5,320.5 Z"/></g>
<g><path style="opacity:1" fill="#f9f9f9" d="M 127.5,322.5 C 128.552,322.351 129.552,322.517 130.5,323C 132.35,325.018 134.35,326.851 136.5,328.5C 137.614,329.723 137.781,331.056 137,332.5C 128.651,349.198 120.318,365.864 112,382.5C 108.688,380.355 105.854,377.688 103.5,374.5C 104.706,371.921 106.039,369.421 107.5,367C 104.167,363.667 100.833,360.333 97.5,357C 93.8124,356.587 90.6458,357.754 88,360.5C 85.0294,357.94 82.1961,355.273 79.5,352.5C 95.528,342.489 111.528,332.489 127.5,322.5 Z"/></g>
<g><path style="opacity:1" fill="#0d0d0d" d="M 326.5,333.5 C 337.808,337.117 338.308,342.117 328,348.5C 325.688,345.354 323.188,342.354 320.5,339.5C 322.827,337.839 324.827,335.839 326.5,333.5 Z"/></g>
<g><path style="opacity:1" fill="#181818" d="M 118.5,341.5 C 119.043,341.56 119.376,341.893 119.5,342.5C 117.421,346.993 115.088,351.326 112.5,355.5C 109.736,354.239 107.403,352.405 105.5,350C 109.898,347.143 114.232,344.309 118.5,341.5 Z"/></g>
<g><path style="opacity:1" fill="#f9f9f9" d="M 161.5,346.5 C 169.583,349.363 177.583,352.53 185.5,356C 187.101,359.206 188.434,362.539 189.5,366C 186.894,372.71 183.894,379.21 180.5,385.5C 178.278,386.778 175.944,387.778 173.5,388.5C 168.392,386.78 163.392,384.78 158.5,382.5C 155.761,388.976 152.761,395.31 149.5,401.5C 146.221,400.527 143.221,399.027 140.5,397C 147.796,380.276 154.796,363.443 161.5,346.5 Z"/></g>
<g><path style="opacity:1" fill="#f9f9f9" d="M 281.5,348.5 C 285.822,349.385 289.822,351.052 293.5,353.5C 298.265,365.961 302.932,378.461 307.5,391C 306.081,394.504 304.415,397.837 302.5,401C 296.395,403.368 290.229,405.535 284,407.5C 280.664,406.582 277.497,405.249 274.5,403.5C 269.5,390.833 264.5,378.167 259.5,365.5C 261.171,362.158 262.838,358.824 264.5,355.5C 270.348,353.336 276.014,351.003 281.5,348.5 Z"/></g>
<g><path style="opacity:1" fill="#f9f9f9" d="M 242.5,372.5 C 239.167,372.5 235.833,372.5 232.5,372.5C 232.5,380.167 232.5,387.833 232.5,395.5C 232.5,402.5 232.5,409.5 232.5,416.5C 228.833,416.5 225.167,416.5 221.5,416.5C 221.5,402.167 221.5,387.833 221.5,373.5C 217.833,373.5 214.167,373.5 210.5,373.5C 210.5,369.167 210.5,364.833 210.5,360.5C 221.167,360.5 231.833,360.5 242.5,360.5C 242.5,364.5 242.5,368.5 242.5,372.5 Z"/></g>
<g><path style="opacity:1" fill="#0d0d0d" d="M 166.5,361.5 C 169.574,362.356 172.408,363.69 175,365.5C 174.845,375.994 170.679,377.994 162.5,371.5C 164.4,368.371 165.733,365.037 166.5,361.5 Z"/></g>
<g><path style="opacity:1" fill="#070707" d="M 279.5,362.5 C 281.722,362.178 283.556,362.845 285,364.5C 287.47,371.578 290.137,378.578 293,385.5C 294.45,389.724 292.95,392.224 288.5,393C 286.559,393.743 284.726,393.576 283,392.5C 279.833,384.333 276.667,376.167 273.5,368C 274.523,365.005 276.523,363.172 279.5,362.5 Z"/></g>
<g><path style="opacity:1" fill="#404041" d="M 242.5,372.5 C 239.713,373.477 236.713,373.81 233.5,373.5C 233.5,380.833 233.5,388.167 233.5,395.5C 233.167,395.5 232.833,395.5 232.5,395.5C 232.5,387.833 232.5,380.167 232.5,372.5C 235.833,372.5 239.167,372.5 242.5,372.5 Z"/></g>
<g><path style="opacity:1" fill="#6e6e6e" d="M 232.5,395.5 C 232.833,395.5 233.167,395.5 233.5,395.5C 233.5,402.833 233.5,410.167 233.5,417.5C 229.298,417.817 225.298,417.483 221.5,416.5C 225.167,416.5 228.833,416.5 232.5,416.5C 232.5,409.5 232.5,402.5 232.5,395.5 Z"/></g>
</svg>
