<?xml version="1.0" standalone="no"?>
<!DOCTYPE svg PUBLIC "-//W3C//DTD SVG 20010904//EN"
 "http://www.w3.org/TR/2001/REC-SVG-20010904/DTD/svg10.dtd">
<svg version="1.0" xmlns="http://www.w3.org/2000/svg"
 width="1280.000000pt" height="942.000000pt" viewBox="0 0 1280.000000 942.000000"
 preserveAspectRatio="xMidYMid meet">

<g transform="translate(0.000000,942.000000) scale(0.100000,-0.100000)"
fill="#000000" stroke="none">
<path d="M6690 9139 c-1097 -77 -2109 -542 -2877 -1320 -348 -353 -588 -686
-807 -1119 -462 -913 -591 -1945 -369 -2954 l27 -119 -30 -85 c-16 -47 -34
-91 -39 -99 -9 -12 -50 -5 -258 43 l-247 57 -408 -92 c-224 -51 -618 -140
-877 -198 -259 -58 -472 -107 -473 -109 -2 -1 14 -25 36 -52 78 -100 179 -297
211 -414 17 -60 5 -154 -54 -423 -63 -290 -69 -335 -69 -485 0 -110 4 -150 22
-215 51 -176 140 -296 327 -437 457 -344 1197 -476 1808 -322 143 36 267 88
1054 446 l351 159 97 -81 c608 -512 1344 -852 2127 -985 1460 -247 2942 235
3965 1289 556 572 939 1258 1127 2017 38 151 55 241 104 549 l7 45 275 72
c172 45 279 78 286 88 26 35 476 877 471 881 -3 3 -135 27 -293 53 l-289 49
-87 -44 -87 -44 -35 59 c-20 32 -36 64 -36 71 0 7 160 264 356 572 196 307
355 561 353 562 -2 2 -119 45 -260 96 l-257 92 -388 -51 c-214 -29 -396 -54
-406 -57 -12 -4 -30 21 -73 103 -219 411 -459 743 -765 1057 -704 723 -1626
1186 -2622 1315 -297 39 -619 50 -898 30z m-233 -211 c6 -29 8 -56 5 -59 -4
-3 -46 -12 -94 -19 -49 -7 -88 -18 -88 -24 0 -18 90 -409 119 -519 20 -75 26
-109 18 -112 -7 -1 -46 -9 -87 -15 -41 -7 -92 -19 -113 -26 -29 -10 -39 -11
-41 -1 -2 7 -18 86 -35 177 -30 158 -95 438 -104 446 -2 2 -43 -7 -92 -21 -48
-14 -89 -24 -92 -22 -4 4 -32 112 -30 113 1 0 36 6 77 12 103 17 383 81 450
102 90 29 94 28 107 -32z m1308 -3 c22 -8 54 -14 70 -15 l31 0 12 -107 c15
-127 84 -540 106 -633 8 -35 14 -66 12 -68 -2 -2 -27 3 -55 12 -28 8 -86 20
-130 26 -76 12 -79 13 -85 42 -3 17 -6 48 -6 69 0 20 -6 44 -14 52 -11 11
-204 57 -238 57 -4 0 -23 -31 -44 -69 -32 -59 -40 -68 -55 -60 -10 5 -41 12
-69 16 l-52 8 69 95 c90 123 264 380 338 498 32 50 60 92 64 92 3 0 24 -7 46
-15z m-645 -638 l245 -362 80 -12 c44 -7 115 -20 158 -28 42 -8 83 -15 90 -15
7 0 32 25 55 55 l44 56 68 -89 c64 -82 72 -89 126 -106 303 -94 670 -288 950
-502 46 -35 87 -64 90 -64 4 0 12 7 19 16 10 14 22 2 84 -85 39 -55 79 -105
89 -110 23 -13 226 -237 304 -336 35 -44 90 -119 122 -167 l59 -87 -23 -55
c-12 -31 -23 -56 -24 -56 -1 0 -73 25 -160 55 l-159 56 -306 -40 c-530 -68
-490 -65 -509 -49 -9 8 -105 86 -212 173 -107 87 -202 165 -212 172 -14 13
-29 3 -135 -88 -65 -56 -127 -110 -138 -120 -20 -18 -21 -16 -88 102 l-68 120
163 175 c90 96 164 180 166 187 1 7 -56 91 -128 187 -71 95 -130 178 -130 183
0 4 13 27 29 50 l29 42 -7 147 -6 147 -122 -153 c-68 -84 -125 -160 -128 -167
-4 -14 -105 -733 -105 -754 0 -6 69 -123 154 -260 85 -138 152 -253 148 -256
-4 -4 -32 -10 -62 -13 l-55 -6 -44 72 c-136 223 -554 828 -572 828 -3 0 -60
-125 -126 -277 l-120 -278 -139 -87 c-76 -48 -144 -87 -151 -87 -7 -1 -16 5
-20 13 -4 7 -37 44 -71 81 l-64 68 -186 -184 c-103 -101 -234 -230 -292 -286
l-105 -102 -135 -21 c-74 -11 -151 -22 -170 -26 -32 -5 -13 16 219 250 170
170 250 257 240 260 -7 3 -133 43 -279 90 -146 46 -345 110 -444 141 l-178 57
6 141 c4 78 10 157 13 175 3 17 1 32 -3 31 -5 0 -83 -85 -174 -189 l-165 -189
-75 -7 c-41 -3 -96 -10 -122 -14 -27 -4 -48 -5 -48 -2 0 14 130 162 245 281
239 245 497 441 782 593 88 47 98 56 165 144 40 52 75 94 79 94 4 0 22 -18 40
-41 37 -47 24 -48 204 14 72 25 186 60 255 77 l125 32 220 305 c306 424 335
463 343 463 4 -1 117 -164 252 -363z m1733 280 c36 -24 85 -52 109 -62 23 -10
45 -20 47 -21 2 -2 -29 -55 -69 -118 -40 -64 -73 -124 -74 -133 -1 -12 29 -34
93 -71 111 -64 95 -73 178 93 30 61 57 112 59 114 2 2 32 -15 66 -37 35 -22
84 -51 111 -63 26 -13 47 -27 47 -32 0 -4 -17 -34 -39 -65 -55 -82 -168 -278
-256 -446 -50 -95 -81 -144 -88 -139 -7 3 -30 19 -52 33 -22 15 -68 42 -103
59 -42 21 -60 36 -55 44 4 7 29 46 56 87 59 91 121 200 116 205 -2 2 -47 28
-99 58 -81 47 -97 53 -106 41 -7 -8 -45 -76 -85 -152 -40 -75 -74 -139 -75
-140 -1 -2 -22 9 -46 26 -24 16 -72 44 -108 62 -36 18 -67 34 -68 36 -2 1 25
49 61 106 77 123 232 396 278 491 18 37 34 67 35 67 0 0 31 -19 67 -43z
m-3647 -309 c114 -198 127 -230 127 -303 0 -107 -52 -189 -167 -264 -132 -87
-250 -104 -343 -51 -63 36 -99 80 -198 240 -43 69 -100 158 -127 198 -27 41
-48 75 -46 76 1 1 30 17 63 36 33 18 82 48 108 67 26 20 49 34 51 32 2 -2 19
-35 39 -74 51 -101 194 -335 225 -368 34 -36 73 -57 108 -57 45 0 113 39 141
81 49 75 26 134 -168 428 l-96 146 47 23 c26 12 55 31 65 42 18 20 19 19 53
-42 19 -35 72 -129 118 -210z m6978 -1750 c-4 -7 -153 -248 -331 -535 -177
-287 -323 -526 -323 -531 0 -6 13 -39 30 -74 16 -34 30 -68 30 -75 0 -6 -42
-41 -94 -78 -91 -64 -96 -70 -170 -192 -42 -69 -75 -127 -74 -129 2 -1 41 6
88 17 47 10 177 39 290 63 182 40 232 56 445 141 132 52 243 94 247 92 6 -1
-370 -686 -387 -705 -3 -3 -122 -37 -585 -167 -190 -53 -462 -130 -605 -170
-646 -183 -1116 -315 -1120 -315 -2 0 140 251 314 557 l318 557 -24 101 c-38
156 -49 134 118 227 l146 82 96 155 c54 86 93 157 87 159 -6 2 -100 -10 -209
-28 -181 -28 -223 -39 -450 -115 -224 -74 -249 -81 -238 -61 31 57 421 702
428 710 7 8 1903 322 1962 325 12 1 16 -3 11 -11z m-6611 -131 c-10 -13 -108
-121 -218 -241 l-200 -218 -287 -830 -287 -830 26 -118 26 -117 -109 -125
-110 -124 -41 -119 c-23 -66 -177 -518 -343 -1004 l-300 -884 16 -56 c8 -31
33 -94 55 -140 22 -46 38 -85 37 -87 -4 -3 -529 -246 -779 -359 -373 -170
-570 -223 -856 -232 -245 -8 -423 21 -621 102 -277 113 -485 341 -536 588 -34
163 -23 235 96 650 l91 318 -16 53 c-10 29 -41 93 -71 142 l-54 89 267 66
c539 135 1347 332 1375 337 l30 5 -46 -64 c-24 -35 -108 -158 -185 -274 l-140
-210 -116 -335 c-141 -403 -157 -458 -157 -533 0 -51 4 -62 29 -87 16 -16 41
-32 56 -36 37 -9 171 12 266 42 l77 24 56 163 c31 89 175 508 320 932 l263
770 -50 102 -51 102 126 133 125 133 352 852 c193 468 351 853 351 856 0 3
-68 85 -150 182 -83 98 -148 180 -145 184 6 5 1761 218 1818 220 28 1 28 1 10
-22z m4197 -252 c0 -3 -126 -257 -280 -565 l-280 -560 41 -82 c34 -68 39 -84
27 -92 -8 -6 -61 -46 -118 -88 l-105 -78 -78 -190 c-44 -105 -77 -193 -75
-195 3 -4 495 143 563 169 22 8 137 56 255 106 118 51 225 96 236 100 16 6
-44 -106 -217 -408 -131 -229 -245 -421 -251 -428 -7 -6 -506 -166 -1108 -354
-828 -259 -1240 -394 -1688 -553 -326 -115 -595 -207 -598 -205 -2 3 13 116
33 251 20 136 34 249 32 252 -3 2 -115 -31 -250 -75 l-244 -79 -99 -266 c-55
-146 -104 -270 -110 -275 -14 -11 -1290 -519 -1294 -515 -2 2 191 452 428
1001 l432 999 -20 105 -20 105 123 125 124 125 170 334 170 335 -29 164 c-17
91 -30 170 -30 176 0 8 74 24 208 45 114 17 365 57 557 87 193 30 422 66 510
79 88 14 272 43 410 64 137 22 251 38 253 36 2 -1 -51 -111 -117 -243 l-120
-241 6 -278 6 -278 73 -94 72 -93 -79 -111 c-44 -61 -81 -120 -84 -131 -2 -12
-18 -236 -36 -499 -30 -440 -31 -480 -17 -510 22 -46 100 -139 109 -130 4 5
168 315 363 691 l356 683 -10 87 c-17 146 -23 131 91 205 l101 65 118 198 c66
109 118 199 117 200 -1 1 -123 -18 -272 -42 -265 -43 -274 -46 -530 -133 -143
-49 -261 -89 -261 -88 -1 1 96 180 215 397 152 275 224 396 237 399 53 12
1924 299 1952 300 17 0 32 -1 32 -4z m410 -2291 c0 -14 -97 -300 -132 -389
-93 -235 -251 -522 -403 -730 -663 -912 -1724 -1426 -2815 -1364 -493 27 -968
162 -1393 396 -116 64 -352 218 -445 291 l-63 50 69 27 69 27 124 -92 c165
-122 193 -138 285 -157 115 -24 428 -24 549 0 221 44 414 111 650 227 156 76
252 130 665 375 546 323 785 424 1079 457 l109 12 6 59 c3 33 6 120 6 193 l0
132 63 19 c62 19 62 19 69 -2 9 -30 8 -249 -2 -335 -9 -84 -9 -85 57 -95 155
-23 354 -130 534 -288 l86 -75 73 91 c111 139 257 367 342 533 94 185 117 238
187 439 l56 159 75 22 c79 24 100 27 100 18z"/>
<path d="M7587 8563 c-37 -58 -66 -108 -63 -111 3 -2 44 -12 91 -22 l85 -17
-5 31 c-3 17 -12 73 -20 125 -8 52 -16 95 -17 96 -2 2 -34 -45 -71 -102z"/>
<path d="M6425 7904 c-237 -327 -429 -601 -429 -608 1 -12 366 -470 382 -479
8 -5 435 318 440 332 2 5 -24 47 -58 94 l-60 85 20 123 c11 68 42 306 70 530
27 223 54 429 60 459 6 29 9 54 8 56 -2 1 -197 -265 -433 -592z"/>
<path d="M5405 7308 c-148 -194 -271 -356 -273 -360 -3 -7 288 -338 298 -338
5 1 335 465 353 497 9 15 -11 50 -70 122 -27 33 -27 34 -33 233 l-5 199 -270
-353z"/>
<path d="M8481 7196 c-44 -52 -81 -98 -81 -102 0 -3 14 -23 30 -44 17 -21 30
-44 30 -51 0 -8 -21 -81 -46 -164 l-45 -150 37 -32 c60 -52 334 -273 334 -269
0 28 -168 896 -175 904 -1 2 -39 -40 -84 -92z"/>
<path d="M8990 7042 c-30 -35 -67 -79 -82 -97 l-27 -32 100 -129 c55 -71 105
-129 111 -129 6 0 24 17 41 38 l31 37 -57 83 -56 83 -3 105 -3 105 -55 -64z"/>
<path d="M6092 4089 c-84 -183 -150 -334 -148 -337 3 -2 65 16 138 40 l133 45
17 259 c10 142 17 274 15 292 -2 26 -31 -30 -155 -299z"/>
<path d="M8341 2804 c-177 -30 -430 -133 -686 -279 -66 -37 -210 -122 -320
-188 -720 -431 -1068 -570 -1490 -595 l-110 -7 95 -37 c224 -86 475 -154 695
-188 177 -28 583 -39 762 -20 212 21 362 53 423 91 347 210 622 609 756 1098
19 68 34 128 34 133 0 11 -61 8 -159 -8z"/>
<path d="M8635 2798 c-2 -7 -11 -43 -19 -80 -25 -109 -93 -310 -147 -430 -89
-201 -220 -400 -363 -555 l-66 -71 47 18 c387 148 806 421 1088 710 l80 82
-70 65 c-134 124 -294 216 -443 254 -88 22 -101 23 -107 7z"/>
</g>
</svg>
