<?xml version="1.0" standalone="no"?>
<!DOCTYPE svg PUBLIC "-//W3C//DTD SVG 20010904//EN"
 "http://www.w3.org/TR/2001/REC-SVG-20010904/DTD/svg10.dtd">
<svg version="1.0" xmlns="http://www.w3.org/2000/svg"
 width="1500.000000pt" height="1500.000000pt" viewBox="0 0 1500.000000 1500.000000"
 preserveAspectRatio="xMidYMid meet">

<g transform="translate(0.000000,1500.000000) scale(0.100000,-0.100000)"
fill="#000000" stroke="none">
<path d="M6950 14350 c-417 -36 -744 -89 -1105 -181 -44 -12 -98 -25 -120 -30
-233 -57 -710 -223 -940 -328 -22 -10 -69 -31 -105 -46 -36 -16 -164 -79 -285
-140 -1132 -574 -2105 -1479 -2763 -2570 -134 -223 -294 -527 -376 -715 -16
-36 -39 -87 -51 -115 -13 -27 -44 -104 -69 -170 -26 -66 -51 -129 -56 -140
-37 -81 -132 -380 -215 -680 -41 -151 -109 -479 -136 -660 -32 -218 -68 -568
-69 -667 l0 -38 1054 0 1053 0 6 73 c25 293 79 589 163 887 23 80 123 380 139
415 8 17 30 69 49 118 71 172 211 449 314 617 626 1025 1611 1781 2737 2105
33 9 74 21 90 27 107 33 402 91 630 123 402 55 994 44 1405 -27 85 -14 376
-77 415 -88 17 -5 64 -19 105 -31 163 -46 444 -146 580 -207 452 -200 892
-480 1248 -794 463 -407 864 -932 1126 -1473 57 -117 116 -245 116 -251 0 -3
8 -24 19 -47 36 -81 116 -307 150 -422 90 -309 145 -582 170 -850 6 -60 13
-125 16 -142 l6 -33 1044 0 1044 0 7 -35 c13 -72 15 -23 4 141 -18 276 -63
617 -116 884 -198 997 -626 1952 -1245 2775 -302 402 -707 827 -1100 1155
-505 421 -1116 794 -1704 1039 -55 23 -109 46 -120 51 -72 35 -438 161 -605
210 -41 12 -86 25 -100 30 -23 8 -211 54 -380 94 -160 37 -443 85 -660 111
-409 48 -972 59 -1370 25z m970 -446 c74 -8 145 -18 158 -22 29 -8 32 -14 133
-227 140 -292 169 -356 169 -366 0 -5 4 -9 8 -9 7 0 23 124 49 388 7 68 -1 94
-38 137 -18 20 -29 38 -26 42 4 3 50 0 104 -6 54 -6 139 -16 188 -22 159 -18
149 -12 141 -78 -4 -31 -14 -112 -21 -181 -8 -69 -21 -188 -30 -265 -27 -238
-43 -385 -59 -528 -8 -76 -19 -144 -26 -152 -19 -23 -56 -26 -166 -10 -59 8
-124 15 -143 15 -20 0 -54 5 -76 11 l-39 11 27 14 c35 19 35 48 -2 127 -32 69
-67 147 -107 235 -14 31 -38 84 -54 117 -15 33 -30 70 -34 83 -14 44 -24 20
-31 -75 -3 -54 -13 -145 -20 -203 -8 -58 -16 -134 -20 -170 -3 -35 -11 -70
-17 -77 -13 -16 -139 -16 -258 0 l-85 12 1 40 c0 22 8 108 18 190 9 83 23 209
31 280 18 158 40 357 55 487 12 108 4 142 -46 189 -46 43 -48 43 216 13z
m-420 9 c0 -4 -9 -25 -20 -47 -19 -40 -19 -48 -5 -321 8 -154 19 -379 25 -500
7 -143 16 -240 27 -278 9 -31 13 -60 10 -64 -9 -8 -179 -22 -288 -23 l-86 0
-8 178 c-4 97 -9 195 -11 217 -2 22 -6 101 -9 175 -4 74 -13 229 -20 344 -12
184 -12 213 1 246 20 50 41 57 199 68 183 13 185 13 185 5z m-701 -65 c6 -24
16 -65 21 -93 21 -107 41 -203 55 -270 8 -38 22 -104 30 -145 8 -41 21 -104
29 -140 29 -137 48 -227 61 -290 7 -36 19 -94 26 -129 12 -60 12 -64 -8 -80
-11 -10 -58 -25 -104 -35 -46 -10 -110 -25 -143 -33 -32 -8 -64 -12 -71 -9 -7
2 -15 22 -18 43 -2 21 -19 108 -37 193 -18 85 -35 168 -38 183 -4 28 -6 29
-51 22 -25 -3 -62 -10 -81 -15 -19 -5 -70 -17 -112 -26 -43 -9 -78 -22 -78
-28 0 -6 5 -27 10 -46 6 -19 15 -60 20 -90 5 -30 19 -98 30 -150 25 -122 25
-134 -5 -154 -30 -20 -297 -77 -308 -67 -4 5 -17 50 -28 102 -33 159 -81 391
-95 459 -38 187 -45 221 -59 285 -8 39 -19 95 -25 125 -20 104 -47 152 -101
180 -31 17 -17 23 131 54 69 14 156 32 195 40 38 9 73 12 76 8 3 -4 27 -113
53 -242 26 -129 49 -236 51 -238 2 -2 6 5 9 15 10 30 42 43 169 69 66 14 123
27 125 29 3 2 -10 75 -29 162 -36 170 -55 206 -119 233 -16 7 -30 16 -30 20 0
4 37 15 83 24 128 27 217 46 277 61 78 19 76 19 89 -27z m2541 -193 c41 -8
161 -44 265 -80 105 -37 222 -77 260 -90 108 -36 145 -54 171 -82 36 -39 34
-53 -35 -253 -28 -83 -53 -109 -59 -64 -7 49 -42 65 -377 179 -123 42 -175 51
-204 36 -25 -14 -50 -65 -85 -171 -14 -41 -41 -120 -60 -175 -44 -123 -46
-167 -10 -200 15 -14 32 -25 38 -25 6 0 24 -7 41 -16 16 -8 57 -18 91 -21 60
-6 61 -5 87 29 15 19 27 37 27 40 0 3 -34 18 -77 33 -72 25 -96 27 -150 10
-21 -7 -21 -4 13 91 67 191 88 219 151 211 41 -5 362 -115 422 -144 28 -14 38
-26 46 -57 8 -34 3 -56 -44 -195 -83 -243 -131 -330 -203 -365 -43 -22 -143
-20 -231 3 -121 33 -398 131 -469 167 -93 47 -133 85 -154 146 -27 84 -17 126
164 645 68 195 98 256 151 306 61 58 107 67 231 42z m-3874 -90 c19 -8 42 -21
50 -30 12 -12 134 -278 134 -292 0 -8 -27 -2 -55 13 -46 24 -107 29 -146 11
-19 -9 -90 -39 -159 -67 -167 -69 -192 -80 -212 -98 -25 -21 -23 -77 3 -103
31 -31 80 -22 228 40 190 80 303 81 407 3 39 -30 59 -57 95 -127 59 -115 89
-202 95 -279 13 -137 -54 -196 -367 -326 -128 -53 -179 -75 -214 -90 -151 -67
-204 -70 -257 -13 -23 26 -108 215 -123 275 l-7 27 51 -24 c28 -14 66 -25 84
-25 46 0 410 151 449 187 25 22 23 75 -2 98 -31 28 -73 22 -192 -29 -202 -87
-321 -98 -427 -40 -47 25 -121 98 -121 119 0 4 -6 21 -14 38 -67 148 -86 211
-86 289 0 71 15 103 74 155 37 32 219 133 241 133 4 0 21 6 38 14 36 16 334
140 357 149 25 9 39 8 76 -8z m4926 -321 c73 -42 138 -80 143 -84 6 -4 37 -22
70 -40 33 -17 112 -63 175 -100 63 -37 151 -88 195 -114 44 -25 86 -50 94 -55
10 -7 0 -32 -50 -117 -34 -60 -79 -138 -99 -174 -19 -36 -40 -65 -45 -65 -6 0
-12 20 -15 45 -7 57 -22 83 -63 113 -50 38 -127 78 -137 72 -5 -3 -35 -52 -66
-108 -32 -56 -75 -130 -96 -165 -21 -34 -51 -86 -66 -115 -16 -28 -63 -112
-105 -185 -44 -75 -80 -150 -83 -172 -4 -22 -10 -42 -14 -45 -4 -2 -70 32
-146 77 -77 45 -149 86 -161 92 -13 6 -23 14 -23 18 0 7 62 115 210 368 37 63
81 140 98 170 16 30 55 98 86 149 31 52 56 98 56 101 0 7 -139 88 -184 108
-38 16 -59 15 -95 -5 -16 -10 -32 -15 -35 -12 -7 7 138 265 167 297 11 12 28
22 38 22 9 0 77 -34 151 -76z m-6184 -570 c583 -346 881 -525 886 -533 3 -5
-39 -39 -94 -77 -55 -38 -139 -97 -187 -131 -48 -35 -90 -63 -95 -63 -4 0 -8
15 -8 34 0 38 -21 62 -86 101 l-42 25 -59 -43 c-32 -23 -90 -64 -130 -90 l-71
-49 24 -71 c34 -100 32 -138 -8 -172 -83 -69 -347 -249 -354 -242 -3 3 6 28
20 56 33 65 33 107 -3 211 -16 47 -72 220 -126 385 -53 165 -100 307 -104 315
-5 9 -12 31 -16 50 -4 19 -11 41 -16 50 -12 23 -49 151 -49 170 0 10 9 29 20
43 21 26 228 177 243 177 4 0 119 -66 255 -146z m7174 -93 c56 -28 285 -199
405 -303 102 -87 153 -168 153 -241 0 -46 -62 -163 -137 -258 -37 -47 -113
-143 -168 -214 -193 -248 -239 -296 -319 -329 -60 -25 -78 -22 -196 31 -39 17
-231 160 -355 263 -100 83 -152 140 -176 194 -45 99 -13 176 162 397 46 58
130 164 187 236 114 147 207 238 255 252 48 15 125 3 189 -28z m-7711 -687
c273 -455 289 -485 289 -531 0 -29 -7 -58 -18 -74 -18 -29 -273 -319 -279
-319 -2 0 -90 43 -195 95 -105 52 -193 95 -196 95 -2 0 12 -28 31 -62 19 -35
54 -99 77 -143 106 -198 101 -181 68 -228 -30 -42 -259 -301 -270 -305 -5 -2
-23 3 -41 11 -18 9 -66 31 -107 50 -41 19 -137 65 -213 101 -77 36 -140 66
-142 66 -1 0 -73 34 -160 75 -86 41 -158 75 -160 75 -2 0 -60 27 -129 60 -190
90 -190 104 -9 312 69 79 131 144 137 146 9 2 11 -7 8 -28 -5 -36 12 -81 36
-96 9 -6 125 -66 257 -134 132 -68 278 -143 325 -167 46 -23 85 -43 86 -43 2
0 -57 83 -129 185 -375 525 -361 501 -338 559 8 22 233 284 244 285 4 1 7 -17
7 -39 0 -47 21 -71 97 -110 26 -14 82 -43 123 -66 41 -22 109 -59 150 -81 136
-73 214 -115 268 -145 30 -16 56 -28 58 -26 2 3 -28 54 -67 114 -84 129 -188
289 -305 469 -46 72 -84 135 -84 141 0 21 50 86 163 211 l112 125 8 -48 c6
-37 73 -155 298 -530z m8635 -147 c158 -206 148 -187 129 -244 -9 -26 -40
-113 -70 -193 -30 -80 -57 -157 -61 -173 -3 -15 -10 -30 -15 -33 -5 -3 -9 -12
-9 -21 0 -8 -7 -31 -16 -51 -9 -21 -22 -52 -30 -69 -7 -18 -11 -33 -7 -33 7 0
129 93 265 202 100 81 118 108 118 177 0 35 0 35 20 16 44 -45 259 -329 254
-337 -3 -4 -40 -35 -82 -68 -76 -58 -181 -140 -398 -310 -60 -47 -120 -94
-135 -105 -15 -11 -89 -69 -164 -128 -76 -60 -144 -111 -152 -114 -24 -10 -63
27 -163 155 -55 70 -104 132 -110 139 -16 19 -12 22 24 16 43 -7 50 4 105 147
47 124 145 377 156 404 7 16 -163 -109 -314 -232 -29 -24 -71 -55 -92 -69 -37
-24 -40 -25 -64 -9 -33 22 -195 226 -194 246 0 8 30 38 66 65 37 28 101 77
143 110 42 33 203 159 358 280 187 147 286 231 297 252 8 17 15 49 15 70 0 41
8 59 20 46 4 -5 51 -66 106 -136z m-10284 -1789 c9 -24 45 -133 80 -243 l65
-200 256 -3 c229 -2 288 -8 244 -25 -10 -4 -341 -241 -395 -283 -3 -2 138
-441 155 -481 10 -25 -19 -12 -90 40 -209 155 -326 237 -336 237 -7 0 -82 -52
-169 -114 -86 -63 -176 -129 -200 -146 -24 -18 -46 -29 -49 -26 -4 3 12 61 34
128 22 68 57 176 78 241 24 71 35 120 29 125 -5 5 -99 74 -208 153 l-200 144
259 5 260 5 31 95 c17 52 53 161 80 243 26 81 51 147 55 147 3 0 13 -19 21
-42z m11090 -105 c14 -43 49 -151 78 -240 l52 -163 260 0 c222 0 259 -2 249
-14 -7 -8 -99 -78 -206 -156 -107 -77 -195 -147 -195 -155 0 -8 6 -32 14 -52
18 -47 136 -410 136 -417 0 -17 -39 8 -221 140 l-200 145 -122 -87 c-67 -49
-160 -116 -206 -151 -46 -34 -87 -60 -92 -57 -5 3 -2 22 6 42 15 40 145 440
145 446 0 2 -62 49 -137 103 -76 54 -168 121 -205 148 -38 27 -68 52 -68 57 0
4 116 9 257 10 l257 3 77 235 c43 129 78 236 79 238 0 1 4 2 8 2 5 0 20 -35
34 -77z"/>
<path d="M4163 12275 c14 -44 40 -120 43 -124 3 -4 84 49 84 54 0 2 -28 21
-104 71 -29 18 -29 18 -23 -1z"/>
<path d="M11292 12208 c-27 -17 -119 -126 -255 -305 -86 -112 -75 -151 68
-249 94 -64 92 -65 319 221 135 170 136 198 20 286 -84 63 -113 72 -152 47z"/>
<path d="M7245 11730 c-183 -11 -391 -38 -563 -74 l-54 -11 83 -55 c132 -86
272 -237 349 -375 52 -92 77 -143 94 -187 10 -27 21 -48 24 -48 4 1 42 53 86
118 184 274 239 352 246 352 8 0 73 -94 230 -327 52 -79 97 -142 100 -142 3 0
30 52 61 117 31 64 80 151 108 194 67 100 202 234 301 300 44 28 79 53 77 54
-10 10 -320 57 -487 73 -148 15 -489 20 -655 11z"/>
<path d="M6135 11513 c-11 -3 -24 -9 -29 -14 -6 -5 -17 -9 -25 -9 -9 0 -29 -7
-45 -15 -15 -8 -33 -15 -40 -15 -6 -1 -29 -9 -51 -20 -22 -11 -44 -19 -48 -20
-11 0 -91 -37 -247 -113 -581 -282 -1109 -718 -1512 -1248 -177 -233 -383
-583 -487 -829 -13 -30 -32 -73 -41 -95 -10 -22 -27 -65 -38 -95 -11 -30 -25
-68 -32 -85 -14 -38 -9 -32 75 85 425 590 1016 1085 1686 1414 102 50 201 97
220 105 19 8 52 22 74 31 74 32 318 120 390 140 22 6 63 18 90 26 219 65 469
118 698 148 60 8 111 17 114 20 3 3 -5 26 -17 51 -86 179 -252 345 -446 447
-65 35 -231 98 -252 97 -10 -1 -26 -3 -37 -6z"/>
<path d="M8730 11481 c-101 -39 -183 -82 -259 -133 -76 -52 -201 -178 -251
-255 -54 -82 -95 -161 -87 -169 3 -3 52 -12 109 -19 206 -27 554 -98 658 -135
14 -5 59 -18 100 -30 145 -42 362 -121 495 -180 11 -5 43 -19 70 -31 28 -11
108 -50 178 -85 661 -330 1266 -842 1674 -1418 35 -49 63 -86 63 -84 0 5 -21
59 -39 103 -5 11 -19 45 -31 75 -43 109 -66 157 -146 315 -349 688 -867 1252
-1538 1674 -59 37 -334 191 -342 191 -1 0 -49 22 -106 49 -153 72 -411 172
-441 170 -7 0 -55 -17 -107 -38z"/>
<path d="M5915 10413 c-165 -22 -394 -114 -616 -249 -569 -344 -1053 -766
-1376 -1201 -292 -392 -500 -878 -609 -1418 -23 -116 -25 -144 -19 -260 27
-563 180 -1138 440 -1656 75 -150 221 -401 257 -442 l19 -22 -5 85 c-12 205
33 508 112 755 232 718 806 1529 1757 2479 77 77 178 183 224 236 246 281 503
722 570 980 11 41 38 140 60 220 23 80 41 152 41 162 0 15 -71 59 -305 188
-27 16 -68 38 -90 50 -119 67 -148 80 -201 89 -55 10 -195 13 -259 4z"/>
<path d="M8845 10410 c-59 -13 -107 -36 -360 -179 -131 -73 -231 -136 -233
-145 -2 -9 11 -67 28 -129 18 -61 41 -143 52 -182 64 -228 122 -362 249 -578
166 -282 283 -429 583 -731 302 -305 555 -580 747 -811 618 -745 965 -1383
1073 -1975 23 -129 38 -333 30 -421 -4 -44 -3 -79 2 -79 14 0 194 308 267 455
226 454 358 904 417 1420 28 242 28 405 1 525 -115 508 -298 948 -539 1295
-316 456 -819 909 -1414 1273 -201 123 -343 188 -518 239 -93 27 -309 40 -385
23z"/>
<path d="M7374 9433 c-459 -344 -903 -729 -1282 -1108 -514 -516 -780 -861
-1070 -1390 -397 -724 -575 -1357 -533 -1896 16 -214 62 -406 135 -564 34 -72
48 -87 211 -221 392 -324 876 -589 1358 -744 219 -70 483 -136 594 -147 l52
-6 5 34 c3 19 10 113 16 209 11 174 25 383 55 805 8 121 22 315 30 430 8 116
22 309 30 430 9 121 22 312 30 425 8 113 21 302 30 420 8 118 22 310 30 425
15 214 34 486 60 855 8 113 19 273 24 355 6 83 13 175 16 205 2 30 9 125 15
210 5 85 13 189 16 230 l5 75 154 155 154 154 150 -150 149 -151 11 -154 c13
-172 33 -456 56 -779 8 -118 21 -307 29 -420 8 -113 20 -272 25 -355 6 -82 13
-175 15 -205 8 -89 15 -192 31 -415 39 -555 73 -1042 85 -1205 17 -230 40
-561 46 -645 3 -44 9 -134 14 -200 5 -66 12 -158 15 -205 8 -121 26 -360 30
-395 2 -16 4 -54 4 -82 1 -66 -6 -65 213 -18 284 60 509 130 792 248 63 26
326 157 414 206 250 139 637 421 758 553 42 46 89 149 125 278 95 342 88 747
-21 1161 -52 202 -140 451 -216 617 -19 41 -34 76 -34 78 0 14 -180 362 -251
487 -282 493 -525 804 -1006 1287 -321 322 -620 589 -998 891 -200 160 -424
329 -435 329 -4 0 -66 -43 -136 -97z"/>
<path d="M14363 7655 c0 -33 2 -45 4 -27 2 18 2 45 0 60 -2 15 -4 0 -4 -33z"/>
<path d="M890 5685 c0 -2 4 -14 9 -27 6 -13 20 -57 31 -98 48 -163 174 -528
209 -605 5 -11 28 -65 51 -120 231 -553 562 -1106 955 -1600 422 -528 974
-1041 1510 -1398 55 -37 105 -71 110 -75 6 -4 107 -66 225 -137 470 -282 1066
-547 1540 -683 19 -6 67 -19 105 -31 473 -135 953 -214 1504 -247 585 -35
1293 21 1836 146 549 127 943 260 1422 481 154 70 364 178 451 231 34 21 65
38 68 38 11 0 230 134 364 224 423 281 726 530 1085 890 253 253 494 532 646
745 14 20 52 72 84 116 188 261 386 587 533 880 80 159 108 220 193 415 11 25
24 54 29 65 5 11 19 45 30 75 11 30 25 64 30 75 28 61 164 471 207 628 4 16
-54 17 -1109 17 l-1114 0 -15 -37 c-25 -66 -194 -404 -254 -508 -393 -683
-974 -1272 -1680 -1703 -98 -60 -391 -212 -495 -257 -36 -15 -83 -35 -105 -45
-66 -29 -215 -86 -295 -113 -230 -78 -419 -126 -730 -188 -74 -14 -347 -47
-465 -56 -142 -10 -571 -10 -700 0 -114 9 -385 43 -460 57 -308 60 -461 98
-690 175 -585 195 -1116 495 -1585 895 -140 120 -439 418 -549 550 -297 354
-536 738 -726 1168 l-28 62 -1113 0 c-613 0 -1114 -2 -1114 -5z m10301 -2041
c20 -18 179 -240 179 -250 0 -3 -14 -2 -32 1 -18 4 -55 7 -82 6 -54 -1 -39 7
-281 -159 -99 -68 -145 -110 -145 -134 0 -35 29 -76 58 -83 40 -8 68 5 184 86
57 40 128 84 158 98 98 45 220 31 307 -35 70 -53 201 -256 223 -346 30 -121
-54 -205 -509 -511 -123 -83 -163 -94 -220 -61 -26 16 -197 251 -188 260 2 3
25 0 51 -7 53 -13 104 -6 137 19 13 10 83 58 154 106 196 132 237 184 185 236
-38 38 -79 27 -201 -56 -163 -111 -224 -137 -324 -137 -126 -1 -183 37 -284
188 -76 113 -111 195 -111 256 0 113 59 167 525 483 95 65 102 68 147 64 27
-3 57 -13 69 -24z m-7175 -42 c201 -123 252 -157 248 -164 -3 -5 -18 -8 -33
-8 -51 0 -75 -32 -129 -167 -150 -381 -183 -466 -180 -474 2 -4 35 22 73 59
211 200 441 409 462 420 15 8 38 11 56 8 30 -6 326 -185 327 -197 0 -4 -15
-10 -34 -13 -46 -9 -62 -30 -90 -122 -13 -43 -38 -122 -54 -174 -81 -255 -111
-355 -107 -358 1 -2 119 110 260 248 240 236 258 252 286 246 16 -3 102 -52
191 -108 l162 -103 -46 -13 c-37 -10 -70 -36 -174 -134 -71 -67 -196 -186
-279 -263 -82 -78 -207 -196 -278 -262 -167 -159 -181 -161 -333 -65 -43 28
-121 76 -171 108 -51 32 -93 62 -93 68 0 9 48 168 96 316 13 41 24 80 24 88 0
7 -39 -18 -87 -55 -197 -151 -255 -193 -272 -193 -30 0 -381 219 -381 238 0
13 18 66 173 512 41 118 87 251 101 295 15 44 31 89 36 100 5 11 20 56 35 100
14 43 33 87 42 97 29 32 82 23 169 -30z m6263 -668 c46 -40 66 -77 247 -474
195 -428 203 -489 79 -582 -32 -24 -194 -99 -464 -215 -228 -98 -419 -180
-424 -182 -5 -2 -6 11 -2 29 16 72 6 105 -110 375 -105 245 -171 395 -195 450
-5 11 -25 54 -43 96 -36 80 -70 114 -126 125 -41 8 -48 22 -19 33 13 5 50 21
83 36 56 26 752 325 785 338 8 3 45 6 81 6 61 1 68 -1 108 -35z m-4504 -317
c71 -25 131 -50 133 -55 1 -4 -8 -14 -22 -21 -32 -18 -54 -65 -121 -266 -35
-105 -178 -517 -215 -620 -18 -49 -38 -119 -44 -155 -9 -46 -16 -65 -26 -64
-23 3 -314 105 -324 114 -9 9 18 90 224 680 34 96 75 215 91 264 35 103 44
123 73 154 29 32 67 27 231 -31z m410 -127 c22 -6 74 -17 115 -26 168 -35 579
-125 670 -147 63 -15 61 -5 31 -142 -18 -82 -26 -104 -49 -123 -30 -25 -173
-135 -462 -355 -107 -82 -196 -152 -198 -156 -1 -4 94 -29 212 -55 227 -50
255 -52 308 -15 35 26 41 24 33 -8 -4 -16 -20 -86 -35 -156 -16 -75 -35 -136
-46 -148 -21 -23 -50 -24 -146 -3 -40 9 -100 22 -133 29 -72 15 -332 73 -360
80 -11 2 -94 21 -185 40 -91 20 -168 39 -172 43 -4 4 -4 23 1 42 5 19 15 61
21 93 l12 58 137 117 c75 64 228 193 339 286 132 110 198 172 190 176 -7 4
-58 17 -113 29 -55 12 -140 31 -190 42 -94 22 -152 20 -191 -6 -28 -18 -34
-11 -23 28 5 18 18 76 30 130 27 122 54 157 121 157 23 0 61 -5 83 -10z m2915
-15 c61 -32 80 -74 126 -295 43 -202 50 -339 20 -385 -26 -40 -55 -63 -89 -70
-16 -4 -27 -12 -25 -20 2 -8 61 -77 132 -155 98 -108 140 -147 175 -162 l46
-21 -30 -8 c-16 -5 -105 -22 -196 -39 -91 -16 -173 -32 -182 -36 -11 -4 -41
25 -104 102 -198 242 -202 247 -237 240 -82 -16 -117 -24 -121 -28 -3 -3 9
-82 27 -177 35 -190 34 -198 -23 -218 -50 -17 -268 -55 -278 -48 -6 3 -13 27
-16 53 -4 26 -13 79 -20 117 -14 71 -34 180 -60 327 -8 46 -28 155 -44 243
-16 88 -35 193 -42 234 -14 80 -38 124 -85 156 -16 11 -32 25 -34 30 -3 6 34
17 85 27 50 9 126 23 170 32 44 8 157 29 250 46 94 18 204 38 245 47 143 28
175 32 228 27 30 -2 66 -11 82 -19z m-1440 -190 c8 -16 40 -84 69 -150 30 -66
67 -149 83 -185 16 -36 36 -78 43 -95 7 -16 32 -70 54 -118 23 -49 41 -90 41
-92 0 -1 18 -41 39 -87 21 -45 59 -128 84 -183 24 -55 61 -135 81 -178 20 -43
36 -83 36 -88 0 -10 -453 -13 -463 -2 -4 3 2 12 13 20 27 19 25 58 -5 127
l-25 56 -161 -2 -162 -3 -18 -55 c-10 -30 -18 -63 -18 -72 -1 -9 -13 -30 -27
-47 l-26 -31 -229 0 c-126 0 -229 3 -229 8 0 4 18 15 40 25 49 23 96 68 103
99 3 13 12 47 21 76 28 91 46 151 60 200 111 377 230 752 245 772 25 34 48 39
200 37 l134 -2 17 -30z"/>
<path d="M9895 2557 c-77 -34 -145 -66 -152 -70 -12 -7 6 -57 76 -209 11 -26
21 -49 21 -52 0 -3 17 -42 38 -88 21 -46 51 -113 67 -150 15 -38 32 -68 37
-68 10 0 256 103 299 126 15 7 29 21 33 30 10 26 -199 507 -231 532 -25 18
-36 15 -188 -51z"/>
<path d="M8667 2140 c-76 -15 -141 -31 -144 -34 -3 -3 4 -56 16 -118 12 -62
21 -123 21 -135 0 -35 17 -36 39 0 27 45 47 54 180 81 138 28 145 35 136 121
-8 76 -31 109 -76 112 -19 1 -96 -11 -172 -27z"/>
<path d="M7516 1748 c-10 -28 -36 -126 -36 -132 0 -3 23 -6 50 -6 57 0 59 4
30 69 -11 24 -20 49 -20 57 0 18 -19 28 -24 12z"/>
</g>
</svg>
